<svg width="322" height="356" viewBox="0 0 322 356" fill="none" xmlns="http://www.w3.org/2000/svg">
<mask id="mask0_4530_184826" style="mask-type:alpha" maskUnits="userSpaceOnUse" x="0" y="0" width="322" height="356">
<rect x="0.5" y="0.5" width="321" height="355" rx="7.5" fill="#F6F6F6" stroke="#EEEEEE"/>
</mask>
<g mask="url(#mask0_4530_184826)">
<path d="M110 80H47C47 80 53.2462 63 62.8602 63C72.4735 63 75.4844 74.7335 75.4844 74.7335C75.4844 74.7335 81.9712 68.3589 87.2982 68.3589C92.6259 68.3589 97.2588 76.783 97.2588 76.783C97.2588 76.783 104.788 72.2535 110 80Z" fill="white"/>
<path d="M123 31H64C64 31 74.135 12.2772 85.1293 12.0038C96.1231 11.7315 101.904 26.1747 101.904 26.1747C101.904 26.1747 119.006 12.8912 123 31Z" fill="white"/>
<path d="M232 43H188C188 43 195.558 29.2042 203.757 29.0028C211.956 28.8022 216.267 39.4445 216.267 39.4445C216.267 39.4445 229.022 29.6567 232 43Z" fill="white"/>
<path d="M236 213.158H279.312V48.8939H236V213.158Z" fill="#EAEAEA"/>
<path d="M242.163 48.894H279.314V37.9999H242.163V48.894Z" fill="#DFDFDF"/>
<path d="M240.751 177.379H274.566V54.5803H240.751V177.379Z" fill="#DFDFDF"/>
<path d="M240.75 69.2031H274.565V66.3004H240.75V69.2031Z" fill="#F5F5F5"/>
<path d="M240.75 81.2207H274.565V78.3192H240.75V81.2207Z" fill="#F5F5F5"/>
<path d="M240.75 93.2422H274.565V90.3407H240.75V93.2422Z" fill="#F5F5F5"/>
<path d="M240.75 105.26H274.565V102.358H240.75V105.26Z" fill="#F5F5F5"/>
<path d="M240.75 117.281H274.565V114.38H240.75V117.281Z" fill="#F5F5F5"/>
<path d="M240.75 129.301H274.565V126.399H240.75V129.301Z" fill="#F5F5F5"/>
<path d="M240.75 141.32H274.565V138.418H240.75V141.32Z" fill="#F5F5F5"/>
<path d="M240.75 153.34H274.565V150.438H240.75V153.34Z" fill="#F5F5F5"/>
<path d="M240.75 165.359H274.565V162.457H240.75V165.359Z" fill="#F5F5F5"/>
<path d="M240.75 177.379H274.565V174.477H240.75V177.379Z" fill="#F5F5F5"/>
<path d="M279.313 213.158H306.443V48.8939H279.313V213.158Z" fill="#D8DBE0"/>
<path d="M279.313 48.894H302.371V37.9999H279.313V48.894Z" fill="#C8CBD0"/>
<path d="M283.054 177.379H303.912V54.5803H283.054V177.379Z" fill="#C8CBD0"/>
<path d="M283.055 69.2031H303.913V66.3004H283.055V69.2031Z" fill="#F6F5F9"/>
<path d="M283.055 81.2207H303.913V78.3192H283.055V81.2207Z" fill="#F6F5F9"/>
<path d="M283.055 93.2422H303.913V90.3407H283.055V93.2422Z" fill="#F6F5F9"/>
<path d="M283.055 105.26H303.913V102.358H283.055V105.26Z" fill="#F6F5F9"/>
<path d="M283.055 117.281H303.913V114.38H283.055V117.281Z" fill="#F6F5F9"/>
<path d="M283.055 129.301H303.913V126.399H283.055V129.301Z" fill="#F6F5F9"/>
<path d="M283.055 141.32H303.913V138.418H283.055V141.32Z" fill="#F6F5F9"/>
<path d="M283.055 153.34H303.913V150.438H283.055V153.34Z" fill="#F6F5F9"/>
<path d="M283.055 165.359H303.913V162.457H283.055V165.359Z" fill="#F6F5F9"/>
<path d="M283.055 177.379H303.913V174.477H283.055V177.379Z" fill="#F6F5F9"/>
<path d="M40.9324 256.084H68.971V49.6001H40.9324V256.084Z" fill="#D8DBE0"/>
<path d="M68.971 63.3359H40.9324V61.1667H68.971V63.3359Z" fill="#C8CBD0"/>
<path d="M48.9831 69.7141V81.7866H43.8225V69.7141H48.9831Z" fill="#F6F5F9"/>
<path d="M48.9831 84.9485V97.021H43.8225V84.9485H48.9831Z" fill="#F6F5F9"/>
<path d="M48.9831 100.181V112.253H43.8225V100.181H48.9831Z" fill="#F6F5F9"/>
<path d="M48.9831 115.405V127.477H43.8225V115.405H48.9831Z" fill="#F6F5F9"/>
<path d="M48.9831 130.638V142.711H43.8225V130.638H48.9831Z" fill="#F6F5F9"/>
<path d="M43.8225 145.871H48.9831V157.944H43.8225V145.871Z" fill="#F6F5F9"/>
<path d="M43.8225 161.096H48.9831V173.167H43.8225V161.096Z" fill="#F6F5F9"/>
<path d="M48.9831 176.328V188.401H43.8225V176.328H48.9831Z" fill="#F6F5F9"/>
<path d="M43.8225 191.56H48.9831V203.633H43.8225V191.56Z" fill="#F6F5F9"/>
<path d="M43.8225 206.785H48.9831V218.857H43.8225V206.785Z" fill="#F6F5F9"/>
<path d="M48.9831 222.018V234.09H43.8225V222.018H48.9831Z" fill="#F6F5F9"/>
<path d="M43.8225 237.251H48.9831V249.323H43.8225V237.251Z" fill="#F6F5F9"/>
<path d="M48.9831 69.7141V81.7866H43.8225V69.7141H48.9831Z" fill="#F6F5F9"/>
<path d="M48.9831 84.9485V97.021H43.8225V84.9485H48.9831Z" fill="#F6F5F9"/>
<path d="M48.9831 100.181V112.253H43.8225V100.181H48.9831Z" fill="#F6F5F9"/>
<path d="M48.9831 115.405V127.477H43.8225V115.405H48.9831Z" fill="#F6F5F9"/>
<path d="M48.9831 130.638V142.711H43.8225V130.638H48.9831Z" fill="#F6F5F9"/>
<path d="M48.9831 145.871V157.944H43.8225V145.871H48.9831Z" fill="#F6F5F9"/>
<path d="M48.9831 161.096V173.167H43.8225V161.096H48.9831Z" fill="#F6F5F9"/>
<path d="M48.9831 176.328V188.401H43.8225V176.328H48.9831Z" fill="#F6F5F9"/>
<path d="M48.9831 191.56V203.633H43.8225V191.56H48.9831Z" fill="#F6F5F9"/>
<path d="M48.9831 206.785V218.857H43.8225V206.785H48.9831Z" fill="#F6F5F9"/>
<path d="M48.9831 222.018V234.09H43.8225V222.018H48.9831Z" fill="#F6F5F9"/>
<path d="M48.9831 237.251V249.323H43.8225V237.251H48.9831Z" fill="#F6F5F9"/>
<path d="M57.531 69.7141V81.7866H52.3696V69.7141H57.531Z" fill="#F6F5F9"/>
<path d="M57.531 84.9485V97.021H52.3696V84.9485H57.531Z" fill="#F6F5F9"/>
<path d="M52.3696 112.253H57.531V100.181H52.3696V112.253Z" fill="#F6F5F9"/>
<path d="M57.531 115.405V127.477H52.3696V115.405H57.531Z" fill="#F6F5F9"/>
<path d="M57.531 130.638V142.711H52.3696V130.638H57.531Z" fill="#F6F5F9"/>
<path d="M52.3696 145.871H57.531V157.944H52.3696V145.871Z" fill="#F6F5F9"/>
<path d="M52.3696 161.096H57.531V173.167H52.3696V161.096Z" fill="#F6F5F9"/>
<path d="M57.531 176.328V188.401H52.3696V176.328H57.531Z" fill="#F6F5F9"/>
<path d="M52.3696 191.56H57.531V203.633H52.3696V191.56Z" fill="#F6F5F9"/>
<path d="M52.3696 206.785H57.531V218.857H52.3696V206.785Z" fill="#F6F5F9"/>
<path d="M57.531 222.018V234.09H52.3696V222.018H57.531Z" fill="#F6F5F9"/>
<path d="M52.3696 237.251H57.531V249.323H52.3696V237.251Z" fill="#F6F5F9"/>
<path d="M57.531 69.7141V81.7866H52.3696V69.7141H57.531Z" fill="#F6F5F9"/>
<path d="M57.531 84.9485V97.021H52.3696V84.9485H57.531Z" fill="#F6F5F9"/>
<path d="M52.3696 112.253H57.531V100.181H52.3696V112.253Z" fill="#F6F5F9"/>
<path d="M57.531 115.405V127.477H52.3696V115.405H57.531Z" fill="#F6F5F9"/>
<path d="M57.531 130.638V142.711H52.3696V130.638H57.531Z" fill="#F6F5F9"/>
<path d="M57.531 145.871V157.944H52.3696V145.871H57.531Z" fill="#F6F5F9"/>
<path d="M57.531 161.096V173.167H52.3696V161.096H57.531Z" fill="#F6F5F9"/>
<path d="M57.531 176.328V188.401H52.3696V176.328H57.531Z" fill="#F6F5F9"/>
<path d="M57.531 191.56V203.633H52.3696V191.56H57.531Z" fill="#F6F5F9"/>
<path d="M57.531 206.785V218.857H52.3696V206.785H57.531Z" fill="#F6F5F9"/>
<path d="M57.531 222.018V234.09H52.3696V222.018H57.531Z" fill="#F6F5F9"/>
<path d="M57.531 237.251V249.323H52.3696V237.251H57.531Z" fill="#F6F5F9"/>
<path d="M66.0822 69.7141V81.7866H60.9216V69.7141H66.0822Z" fill="#F6F5F9"/>
<path d="M66.0822 84.9485V97.021H60.9216V84.9485H66.0822Z" fill="#F6F5F9"/>
<path d="M60.9216 112.253H66.0821V100.181H60.9216V112.253Z" fill="#F6F5F9"/>
<path d="M60.9216 127.477H66.0821V115.405H60.9216V127.477Z" fill="#F6F5F9"/>
<path d="M60.9216 142.711H66.0821V130.639H60.9216V142.711Z" fill="#F6F5F9"/>
<path d="M60.9216 157.944H66.0821V145.872H60.9216V157.944Z" fill="#F6F5F9"/>
<path d="M60.9216 173.167H66.0821V161.096H60.9216V173.167Z" fill="#F6F5F9"/>
<path d="M60.9216 188.401H66.0821V176.328H60.9216V188.401Z" fill="#F6F5F9"/>
<path d="M60.9216 203.633H66.0821V191.56H60.9216V203.633Z" fill="#F6F5F9"/>
<path d="M60.9216 218.857H66.0821V206.785H60.9216V218.857Z" fill="#F6F5F9"/>
<path d="M60.9216 234.09H66.0821V222.018H60.9216V234.09Z" fill="#F6F5F9"/>
<path d="M60.9216 237.251H66.0822V249.323H60.9216V237.251Z" fill="#F6F5F9"/>
<path d="M66.0822 69.7141V81.7866H60.9216V69.7141H66.0822Z" fill="#F6F5F9"/>
<path d="M66.0822 84.9485V97.021H60.9216V84.9485H66.0822Z" fill="#F6F5F9"/>
<path d="M60.9216 112.253H66.0821V100.181H60.9216V112.253Z" fill="#F6F5F9"/>
<path d="M60.9216 127.477H66.0821V115.405H60.9216V127.477Z" fill="#F6F5F9"/>
<path d="M60.9216 142.711H66.0821V130.639H60.9216V142.711Z" fill="#F6F5F9"/>
<path d="M60.9216 157.944H66.0821V145.872H60.9216V157.944Z" fill="#F6F5F9"/>
<path d="M60.9216 173.167H66.0821V161.096H60.9216V173.167Z" fill="#F6F5F9"/>
<path d="M60.9216 188.401H66.0821V176.328H60.9216V188.401Z" fill="#F6F5F9"/>
<path d="M60.9216 203.633H66.0821V191.56H60.9216V203.633Z" fill="#F6F5F9"/>
<path d="M60.9216 218.857H66.0821V206.785H60.9216V218.857Z" fill="#F6F5F9"/>
<path d="M60.9216 234.09H66.0821V222.018H60.9216V234.09Z" fill="#F6F5F9"/>
<path d="M66.0822 237.251V249.323H60.9216V237.251H66.0822Z" fill="#F6F5F9"/>
<path d="M-7 256.084H40.9323V49.6001H-7V256.084Z" fill="#EAEAEA"/>
<path d="M40.9324 63.3359H-7V61.1667H40.9324V63.3359Z" fill="#DFDFDF"/>
<path d="M40.9325 37.9999H10.0852V49.6006H40.9325V37.9999Z" fill="#DFDFDF"/>
<path d="M40.9324 37.9999H55.4275V49.6006H40.9324V37.9999Z" fill="#C8CBD0"/>
<path d="M6.51477 69.7141V81.7866H-1.86426V69.7141H6.51477Z" fill="#F6F5F9"/>
<path d="M6.51477 84.9485V97.021H-1.86426V84.9485H6.51477Z" fill="#F6F5F9"/>
<path d="M-1.86426 112.253H6.51374V100.181H-1.86426V112.253Z" fill="#F6F5F9"/>
<path d="M-1.86426 127.477H6.51374V115.405H-1.86426V127.477Z" fill="#F6F5F9"/>
<path d="M-1.86426 142.711H6.51374V130.639H-1.86426V142.711Z" fill="#F6F5F9"/>
<path d="M-1.86426 157.944H6.51374V145.872H-1.86426V157.944Z" fill="#F6F5F9"/>
<path d="M-1.86426 173.167H6.51374V161.096H-1.86426V173.167Z" fill="#F6F5F9"/>
<path d="M-1.86426 188.401H6.51374V176.328H-1.86426V188.401Z" fill="#F6F5F9"/>
<path d="M-1.86426 203.633H6.51374V191.56H-1.86426V203.633Z" fill="#F6F5F9"/>
<path d="M-1.86426 218.857H6.51374V206.785H-1.86426V218.857Z" fill="#F6F5F9"/>
<path d="M-1.86426 234.09H6.51374V222.018H-1.86426V234.09Z" fill="#F6F5F9"/>
<path d="M-1.86426 249.323H6.51374V237.251H-1.86426V249.323Z" fill="#F6F5F9"/>
<path d="M6.51477 69.7141V81.7866H-1.86426V69.7141H6.51477Z" fill="#F6F5F9"/>
<path d="M6.51477 84.9485V97.021H-1.86426V84.9485H6.51477Z" fill="#F6F5F9"/>
<path d="M-1.86426 112.253H6.51374V100.181H-1.86426V112.253Z" fill="#F6F5F9"/>
<path d="M-1.86426 127.477H6.51374V115.405H-1.86426V127.477Z" fill="#F6F5F9"/>
<path d="M-1.86426 142.711H6.51374V130.639H-1.86426V142.711Z" fill="#F6F5F9"/>
<path d="M-1.86426 157.944H6.51374V145.872H-1.86426V157.944Z" fill="#F6F5F9"/>
<path d="M-1.86426 173.167H6.51374V161.096H-1.86426V173.167Z" fill="#F6F5F9"/>
<path d="M-1.86426 188.401H6.51374V176.328H-1.86426V188.401Z" fill="#F6F5F9"/>
<path d="M-1.86426 203.633H6.51374V191.56H-1.86426V203.633Z" fill="#F6F5F9"/>
<path d="M-1.86426 218.857H6.51374V206.785H-1.86426V218.857Z" fill="#F6F5F9"/>
<path d="M-1.86426 234.09H6.51374V222.018H-1.86426V234.09Z" fill="#F6F5F9"/>
<path d="M-1.86426 249.323H6.51374V237.251H-1.86426V249.323Z" fill="#F6F5F9"/>
<path d="M20.3948 69.7141V81.7866H12.0166V69.7141H20.3948Z" fill="#F6F5F9"/>
<path d="M20.3948 84.9485V97.021H12.0166V84.9485H20.3948Z" fill="#F6F5F9"/>
<path d="M20.3948 100.181V112.253H12.0166V100.181H20.3948Z" fill="#F6F5F9"/>
<path d="M20.3948 115.405V127.477H12.0166V115.405H20.3948Z" fill="#F6F5F9"/>
<path d="M20.3948 130.638V142.711H12.0166V130.638H20.3948Z" fill="#F6F5F9"/>
<path d="M12.0166 145.871H20.3948V157.944H12.0166V145.871Z" fill="#F6F5F9"/>
<path d="M12.0166 161.096H20.3948V173.167H12.0166V161.096Z" fill="#F6F5F9"/>
<path d="M20.3948 176.328V188.401H12.0166V176.328H20.3948Z" fill="#F6F5F9"/>
<path d="M12.0166 191.56H20.3948V203.633H12.0166V191.56Z" fill="#F6F5F9"/>
<path d="M12.0166 206.785H20.3948V218.857H12.0166V206.785Z" fill="#F6F5F9"/>
<path d="M20.3948 222.018V234.09H12.0166V222.018H20.3948Z" fill="#F6F5F9"/>
<path d="M12.0166 237.251H20.3948V249.323H12.0166V237.251Z" fill="#F6F5F9"/>
<path d="M20.3948 69.7141V81.7866H12.0166V69.7141H20.3948Z" fill="#F6F5F9"/>
<path d="M20.3948 84.9485V97.021H12.0166V84.9485H20.3948Z" fill="#F6F5F9"/>
<path d="M20.3948 100.181V112.253H12.0166V100.181H20.3948Z" fill="#F6F5F9"/>
<path d="M20.3948 115.405V127.477H12.0166V115.405H20.3948Z" fill="#F6F5F9"/>
<path d="M20.3948 130.638V142.711H12.0166V130.638H20.3948Z" fill="#F6F5F9"/>
<path d="M20.3948 145.871V157.944H12.0166V145.871H20.3948Z" fill="#F6F5F9"/>
<path d="M20.3948 161.096V173.167H12.0166V161.096H20.3948Z" fill="#F6F5F9"/>
<path d="M20.3948 176.328V188.401H12.0166V176.328H20.3948Z" fill="#F6F5F9"/>
<path d="M20.3948 191.56V203.633H12.0166V191.56H20.3948Z" fill="#F6F5F9"/>
<path d="M20.3948 206.785V218.857H12.0166V206.785H20.3948Z" fill="#F6F5F9"/>
<path d="M20.3948 222.018V234.09H12.0166V222.018H20.3948Z" fill="#F6F5F9"/>
<path d="M20.3948 237.251V249.323H12.0166V237.251H20.3948Z" fill="#F6F5F9"/>
<path d="M34.274 69.7141V81.7866H25.895V69.7141H34.274Z" fill="#F6F5F9"/>
<path d="M34.274 84.9485V97.021H25.895V84.9485H34.274Z" fill="#F6F5F9"/>
<path d="M34.274 100.181V112.253H25.895V100.181H34.274Z" fill="#F6F5F9"/>
<path d="M34.274 115.405V127.477H25.895V115.405H34.274Z" fill="#F6F5F9"/>
<path d="M34.274 130.638V142.711H25.895V130.638H34.274Z" fill="#F6F5F9"/>
<path d="M25.895 145.871H34.274V157.944H25.895V145.871Z" fill="#F6F5F9"/>
<path d="M25.895 161.096H34.274V173.167H25.895V161.096Z" fill="#F6F5F9"/>
<path d="M34.274 176.328V188.401H25.895V176.328H34.274Z" fill="#F6F5F9"/>
<path d="M25.895 191.56H34.274V203.633H25.895V191.56Z" fill="#F6F5F9"/>
<path d="M25.895 206.785H34.274V218.857H25.895V206.785Z" fill="#F6F5F9"/>
<path d="M34.274 222.018V234.09H25.895V222.018H34.274Z" fill="#F6F5F9"/>
<path d="M25.895 237.251H34.274V249.323H25.895V237.251Z" fill="#F6F5F9"/>
<path d="M34.274 69.7141V81.7866H25.895V69.7141H34.274Z" fill="#F6F5F9"/>
<path d="M34.274 84.9485V97.021H25.895V84.9485H34.274Z" fill="#F6F5F9"/>
<path d="M34.274 100.181V112.253H25.895V100.181H34.274Z" fill="#F6F5F9"/>
<path d="M34.274 115.405V127.477H25.895V115.405H34.274Z" fill="#F6F5F9"/>
<path d="M34.274 130.638V142.711H25.895V130.638H34.274Z" fill="#F6F5F9"/>
<path d="M34.274 145.871V157.944H25.895V145.871H34.274Z" fill="#F6F5F9"/>
<path d="M34.274 161.096V173.167H25.895V161.096H34.274Z" fill="#F6F5F9"/>
<path d="M34.274 176.328V188.401H25.895V176.328H34.274Z" fill="#F6F5F9"/>
<path d="M34.274 191.56V203.633H25.895V191.56H34.274Z" fill="#F6F5F9"/>
<path d="M34.274 206.785V218.857H25.895V206.785H34.274Z" fill="#F6F5F9"/>
<path d="M34.274 222.018V234.09H25.895V222.018H34.274Z" fill="#F6F5F9"/>
<path d="M34.274 237.251V249.323H25.895V237.251H34.274Z" fill="#F6F5F9"/>
<path d="M327.04 283.084H299.002V76.6001H327.04V283.084Z" fill="#D8DBE0"/>
<path d="M299.002 90.3359H327.04V88.1667H299.002V90.3359Z" fill="#C8CBD0"/>
<path d="M318.99 96.7141V108.787H324.15V96.7141H318.99Z" fill="#F6F5F9"/>
<path d="M318.99 111.948V124.021H324.15V111.948H318.99Z" fill="#F6F5F9"/>
<path d="M318.99 127.181V139.253H324.15V127.181H318.99Z" fill="#F6F5F9"/>
<path d="M318.99 142.405V154.477H324.15V142.405H318.99Z" fill="#F6F5F9"/>
<path d="M318.99 157.638V169.711H324.15V157.638H318.99Z" fill="#F6F5F9"/>
<path d="M324.15 172.871H318.99V184.944H324.15V172.871Z" fill="#F6F5F9"/>
<path d="M324.15 188.096H318.99V200.167H324.15V188.096Z" fill="#F6F5F9"/>
<path d="M318.99 203.328V215.401H324.15V203.328H318.99Z" fill="#F6F5F9"/>
<path d="M324.15 218.56H318.99V230.633H324.15V218.56Z" fill="#F6F5F9"/>
<path d="M324.15 233.785H318.99V245.857H324.15V233.785Z" fill="#F6F5F9"/>
<path d="M318.99 249.018V261.09H324.15V249.018H318.99Z" fill="#F6F5F9"/>
<path d="M324.15 264.251H318.99V276.323H324.15V264.251Z" fill="#F6F5F9"/>
<path d="M318.99 96.7141V108.787H324.15V96.7141H318.99Z" fill="#F6F5F9"/>
<path d="M318.99 111.948V124.021H324.15V111.948H318.99Z" fill="#F6F5F9"/>
<path d="M318.99 127.181V139.253H324.15V127.181H318.99Z" fill="#F6F5F9"/>
<path d="M318.99 142.405V154.477H324.15V142.405H318.99Z" fill="#F6F5F9"/>
<path d="M318.99 157.638V169.711H324.15V157.638H318.99Z" fill="#F6F5F9"/>
<path d="M318.99 172.871V184.944H324.15V172.871H318.99Z" fill="#F6F5F9"/>
<path d="M318.99 188.096V200.167H324.15V188.096H318.99Z" fill="#F6F5F9"/>
<path d="M318.99 203.328V215.401H324.15V203.328H318.99Z" fill="#F6F5F9"/>
<path d="M318.99 218.56V230.633H324.15V218.56H318.99Z" fill="#F6F5F9"/>
<path d="M318.99 233.785V245.857H324.15V233.785H318.99Z" fill="#F6F5F9"/>
<path d="M318.99 249.018V261.09H324.15V249.018H318.99Z" fill="#F6F5F9"/>
<path d="M318.99 264.251V276.323H324.15V264.251H318.99Z" fill="#F6F5F9"/>
<path d="M310.442 96.7141V108.787H315.603V96.7141H310.442Z" fill="#F6F5F9"/>
<path d="M310.442 111.948V124.021H315.603V111.948H310.442Z" fill="#F6F5F9"/>
<path d="M315.603 139.253H310.442V127.181H315.603V139.253Z" fill="#F6F5F9"/>
<path d="M310.442 142.405V154.477H315.603V142.405H310.442Z" fill="#F6F5F9"/>
<path d="M310.442 157.638V169.711H315.603V157.638H310.442Z" fill="#F6F5F9"/>
<path d="M315.603 172.871H310.442V184.944H315.603V172.871Z" fill="#F6F5F9"/>
<path d="M315.603 188.096H310.442V200.167H315.603V188.096Z" fill="#F6F5F9"/>
<path d="M310.442 203.328V215.401H315.603V203.328H310.442Z" fill="#F6F5F9"/>
<path d="M315.603 218.56H310.442V230.633H315.603V218.56Z" fill="#F6F5F9"/>
<path d="M315.603 233.785H310.442V245.857H315.603V233.785Z" fill="#F6F5F9"/>
<path d="M310.442 249.018V261.09H315.603V249.018H310.442Z" fill="#F6F5F9"/>
<path d="M315.603 264.251H310.442V276.323H315.603V264.251Z" fill="#F6F5F9"/>
<path d="M310.442 96.7141V108.787H315.603V96.7141H310.442Z" fill="#F6F5F9"/>
<path d="M310.442 111.948V124.021H315.603V111.948H310.442Z" fill="#F6F5F9"/>
<path d="M315.603 139.253H310.442V127.181H315.603V139.253Z" fill="#F6F5F9"/>
<path d="M310.442 142.405V154.477H315.603V142.405H310.442Z" fill="#F6F5F9"/>
<path d="M310.442 157.638V169.711H315.603V157.638H310.442Z" fill="#F6F5F9"/>
<path d="M310.442 172.871V184.944H315.603V172.871H310.442Z" fill="#F6F5F9"/>
<path d="M310.442 188.096V200.167H315.603V188.096H310.442Z" fill="#F6F5F9"/>
<path d="M310.442 203.328V215.401H315.603V203.328H310.442Z" fill="#F6F5F9"/>
<path d="M310.442 218.56V230.633H315.603V218.56H310.442Z" fill="#F6F5F9"/>
<path d="M310.442 233.785V245.857H315.603V233.785H310.442Z" fill="#F6F5F9"/>
<path d="M310.442 249.018V261.09H315.603V249.018H310.442Z" fill="#F6F5F9"/>
<path d="M310.442 264.251V276.323H315.603V264.251H310.442Z" fill="#F6F5F9"/>
<path d="M301.89 96.7141V108.787H307.051V96.7141H301.89Z" fill="#F6F5F9"/>
<path d="M301.89 111.948V124.021H307.051V111.948H301.89Z" fill="#F6F5F9"/>
<path d="M307.051 139.253H301.891V127.181H307.051V139.253Z" fill="#F6F5F9"/>
<path d="M307.051 154.477H301.891V142.405H307.051V154.477Z" fill="#F6F5F9"/>
<path d="M307.051 169.711H301.891V157.639H307.051V169.711Z" fill="#F6F5F9"/>
<path d="M307.051 184.944H301.891V172.872H307.051V184.944Z" fill="#F6F5F9"/>
<path d="M307.051 200.167H301.891V188.096H307.051V200.167Z" fill="#F6F5F9"/>
<path d="M307.051 215.401H301.891V203.328H307.051V215.401Z" fill="#F6F5F9"/>
<path d="M307.051 230.633H301.891V218.56H307.051V230.633Z" fill="#F6F5F9"/>
<path d="M307.051 245.857H301.891V233.785H307.051V245.857Z" fill="#F6F5F9"/>
<path d="M307.051 261.09H301.891V249.018H307.051V261.09Z" fill="#F6F5F9"/>
<path d="M307.051 264.251H301.89V276.323H307.051V264.251Z" fill="#F6F5F9"/>
<path d="M301.89 96.7141V108.787H307.051V96.7141H301.89Z" fill="#F6F5F9"/>
<path d="M301.89 111.948V124.021H307.051V111.948H301.89Z" fill="#F6F5F9"/>
<path d="M307.051 139.253H301.891V127.181H307.051V139.253Z" fill="#F6F5F9"/>
<path d="M307.051 154.477H301.891V142.405H307.051V154.477Z" fill="#F6F5F9"/>
<path d="M307.051 169.711H301.891V157.639H307.051V169.711Z" fill="#F6F5F9"/>
<path d="M307.051 184.944H301.891V172.872H307.051V184.944Z" fill="#F6F5F9"/>
<path d="M307.051 200.167H301.891V188.096H307.051V200.167Z" fill="#F6F5F9"/>
<path d="M307.051 215.401H301.891V203.328H307.051V215.401Z" fill="#F6F5F9"/>
<path d="M307.051 230.633H301.891V218.56H307.051V230.633Z" fill="#F6F5F9"/>
<path d="M307.051 245.857H301.891V233.785H307.051V245.857Z" fill="#F6F5F9"/>
<path d="M307.051 261.09H301.891V249.018H307.051V261.09Z" fill="#F6F5F9"/>
<path d="M301.89 264.251V276.323H307.051V264.251H301.89Z" fill="#F6F5F9"/>
<path d="M223.04 351.484H195.002V145H223.04V351.484Z" fill="#D8DBE0"/>
<path d="M195.002 158.736H223.04V156.567H195.002V158.736Z" fill="#C8CBD0"/>
<path d="M214.99 165.114V177.187H220.15V165.114H214.99Z" fill="#F6F5F9"/>
<path d="M214.99 180.348V192.421H220.15V180.348H214.99Z" fill="#F6F5F9"/>
<path d="M214.99 195.581V207.653H220.15V195.581H214.99Z" fill="#F6F5F9"/>
<path d="M214.99 210.805V222.877H220.15V210.805H214.99Z" fill="#F6F5F9"/>
<path d="M214.99 226.038V238.111H220.15V226.038H214.99Z" fill="#F6F5F9"/>
<path d="M220.15 241.271H214.99V253.344H220.15V241.271Z" fill="#F6F5F9"/>
<path d="M220.15 256.496H214.99V268.567H220.15V256.496Z" fill="#F6F5F9"/>
<path d="M214.99 271.728V283.801H220.15V271.728H214.99Z" fill="#F6F5F9"/>
<path d="M220.15 286.96H214.99V299.033H220.15V286.96Z" fill="#F6F5F9"/>
<path d="M220.15 302.185H214.99V314.257H220.15V302.185Z" fill="#F6F5F9"/>
<path d="M214.99 317.418V329.49H220.15V317.418H214.99Z" fill="#F6F5F9"/>
<path d="M220.15 332.651H214.99V344.723H220.15V332.651Z" fill="#F6F5F9"/>
<path d="M214.99 165.114V177.187H220.15V165.114H214.99Z" fill="#F6F5F9"/>
<path d="M214.99 180.348V192.421H220.15V180.348H214.99Z" fill="#F6F5F9"/>
<path d="M214.99 195.581V207.653H220.15V195.581H214.99Z" fill="#F6F5F9"/>
<path d="M214.99 210.805V222.877H220.15V210.805H214.99Z" fill="#F6F5F9"/>
<path d="M214.99 226.038V238.111H220.15V226.038H214.99Z" fill="#F6F5F9"/>
<path d="M214.99 241.271V253.344H220.15V241.271H214.99Z" fill="#F6F5F9"/>
<path d="M214.99 256.496V268.567H220.15V256.496H214.99Z" fill="#F6F5F9"/>
<path d="M214.99 271.728V283.801H220.15V271.728H214.99Z" fill="#F6F5F9"/>
<path d="M214.99 286.96V299.033H220.15V286.96H214.99Z" fill="#F6F5F9"/>
<path d="M214.99 302.185V314.257H220.15V302.185H214.99Z" fill="#F6F5F9"/>
<path d="M214.99 317.418V329.49H220.15V317.418H214.99Z" fill="#F6F5F9"/>
<path d="M214.99 332.651V344.723H220.15V332.651H214.99Z" fill="#F6F5F9"/>
<path d="M206.442 165.114V177.187H211.603V165.114H206.442Z" fill="#F6F5F9"/>
<path d="M206.442 180.348V192.421H211.603V180.348H206.442Z" fill="#F6F5F9"/>
<path d="M211.603 207.653H206.442V195.581H211.603V207.653Z" fill="#F6F5F9"/>
<path d="M206.442 210.805V222.877H211.603V210.805H206.442Z" fill="#F6F5F9"/>
<path d="M206.442 226.038V238.111H211.603V226.038H206.442Z" fill="#F6F5F9"/>
<path d="M211.603 241.271H206.442V253.344H211.603V241.271Z" fill="#F6F5F9"/>
<path d="M211.603 256.496H206.442V268.567H211.603V256.496Z" fill="#F6F5F9"/>
<path d="M206.442 271.728V283.801H211.603V271.728H206.442Z" fill="#F6F5F9"/>
<path d="M211.603 286.96H206.442V299.033H211.603V286.96Z" fill="#F6F5F9"/>
<path d="M211.603 302.185H206.442V314.257H211.603V302.185Z" fill="#F6F5F9"/>
<path d="M206.442 317.418V329.49H211.603V317.418H206.442Z" fill="#F6F5F9"/>
<path d="M211.603 332.651H206.442V344.723H211.603V332.651Z" fill="#F6F5F9"/>
<path d="M206.442 165.114V177.187H211.603V165.114H206.442Z" fill="#F6F5F9"/>
<path d="M206.442 180.348V192.421H211.603V180.348H206.442Z" fill="#F6F5F9"/>
<path d="M211.603 207.653H206.442V195.581H211.603V207.653Z" fill="#F6F5F9"/>
<path d="M206.442 210.805V222.877H211.603V210.805H206.442Z" fill="#F6F5F9"/>
<path d="M206.442 226.038V238.111H211.603V226.038H206.442Z" fill="#F6F5F9"/>
<path d="M206.442 241.271V253.344H211.603V241.271H206.442Z" fill="#F6F5F9"/>
<path d="M206.442 256.496V268.567H211.603V256.496H206.442Z" fill="#F6F5F9"/>
<path d="M206.442 271.728V283.801H211.603V271.728H206.442Z" fill="#F6F5F9"/>
<path d="M206.442 286.96V299.033H211.603V286.96H206.442Z" fill="#F6F5F9"/>
<path d="M206.442 302.185V314.257H211.603V302.185H206.442Z" fill="#F6F5F9"/>
<path d="M206.442 317.418V329.49H211.603V317.418H206.442Z" fill="#F6F5F9"/>
<path d="M206.442 332.651V344.723H211.603V332.651H206.442Z" fill="#F6F5F9"/>
<path d="M197.89 165.114V177.187H203.051V165.114H197.89Z" fill="#F6F5F9"/>
<path d="M197.89 180.348V192.421H203.051V180.348H197.89Z" fill="#F6F5F9"/>
<path d="M203.051 207.653H197.891V195.581H203.051V207.653Z" fill="#F6F5F9"/>
<path d="M203.051 222.877H197.891V210.805H203.051V222.877Z" fill="#F6F5F9"/>
<path d="M203.051 238.111H197.891V226.039H203.051V238.111Z" fill="#F6F5F9"/>
<path d="M203.051 253.344H197.891V241.271H203.051V253.344Z" fill="#F6F5F9"/>
<path d="M203.051 268.567H197.891V256.496H203.051V268.567Z" fill="#F6F5F9"/>
<path d="M203.051 283.801H197.891V271.728H203.051V283.801Z" fill="#F6F5F9"/>
<path d="M203.051 299.033H197.891V286.96H203.051V299.033Z" fill="#F6F5F9"/>
<path d="M203.051 314.257H197.891V302.185H203.051V314.257Z" fill="#F6F5F9"/>
<path d="M203.051 329.49H197.891V317.418H203.051V329.49Z" fill="#F6F5F9"/>
<path d="M203.051 332.651H197.89V344.723H203.051V332.651Z" fill="#F6F5F9"/>
<path d="M197.89 165.114V177.187H203.051V165.114H197.89Z" fill="#F6F5F9"/>
<path d="M197.89 180.348V192.421H203.051V180.348H197.89Z" fill="#F6F5F9"/>
<path d="M203.051 207.653H197.891V195.581H203.051V207.653Z" fill="#F6F5F9"/>
<path d="M203.051 222.877H197.891V210.805H203.051V222.877Z" fill="#F6F5F9"/>
<path d="M203.051 238.111H197.891V226.039H203.051V238.111Z" fill="#F6F5F9"/>
<path d="M203.051 253.344H197.891V241.271H203.051V253.344Z" fill="#F6F5F9"/>
<path d="M203.051 268.567H197.891V256.496H203.051V268.567Z" fill="#F6F5F9"/>
<path d="M203.051 283.801H197.891V271.728H203.051V283.801Z" fill="#F6F5F9"/>
<path d="M203.051 299.033H197.891V286.96H203.051V299.033Z" fill="#F6F5F9"/>
<path d="M203.051 314.257H197.891V302.185H203.051V314.257Z" fill="#F6F5F9"/>
<path d="M203.051 329.49H197.891V317.418H203.051V329.49Z" fill="#F6F5F9"/>
<path d="M197.89 332.651V344.723H203.051V332.651H197.89Z" fill="#F6F5F9"/>
<path d="M270.973 351.484H223.04V145H270.973V351.484Z" fill="#EAEAEA"/>
<path d="M223.04 158.736H270.973V156.567H223.04V158.736Z" fill="#DFDFDF"/>
<path d="M257.458 165.114V177.187H265.837V165.114H257.458Z" fill="#F6F5F9"/>
<path d="M257.458 180.348V192.421H265.837V180.348H257.458Z" fill="#F6F5F9"/>
<path d="M265.837 207.653H257.459V195.581H265.837V207.653Z" fill="#F6F5F9"/>
<path d="M265.837 222.877H257.459V210.805H265.837V222.877Z" fill="#F6F5F9"/>
<path d="M265.837 238.111H257.459V226.039H265.837V238.111Z" fill="#F6F5F9"/>
<path d="M265.837 253.344H257.459V241.271H265.837V253.344Z" fill="#F6F5F9"/>
<path d="M265.837 268.567H257.459V256.496H265.837V268.567Z" fill="#F6F5F9"/>
<path d="M265.837 283.801H257.459V271.728H265.837V283.801Z" fill="#F6F5F9"/>
<path d="M265.837 299.033H257.459V286.96H265.837V299.033Z" fill="#F6F5F9"/>
<path d="M265.837 314.257H257.459V302.185H265.837V314.257Z" fill="#F6F5F9"/>
<path d="M265.837 329.49H257.459V317.418H265.837V329.49Z" fill="#F6F5F9"/>
<path d="M265.837 344.723H257.459V332.651H265.837V344.723Z" fill="#F6F5F9"/>
<path d="M257.458 165.114V177.187H265.837V165.114H257.458Z" fill="#F6F5F9"/>
<path d="M257.458 180.348V192.421H265.837V180.348H257.458Z" fill="#F6F5F9"/>
<path d="M265.837 207.653H257.459V195.581H265.837V207.653Z" fill="#F6F5F9"/>
<path d="M265.837 222.877H257.459V210.805H265.837V222.877Z" fill="#F6F5F9"/>
<path d="M265.837 238.111H257.459V226.039H265.837V238.111Z" fill="#F6F5F9"/>
<path d="M265.837 253.344H257.459V241.271H265.837V253.344Z" fill="#F6F5F9"/>
<path d="M265.837 268.567H257.459V256.496H265.837V268.567Z" fill="#F6F5F9"/>
<path d="M265.837 283.801H257.459V271.728H265.837V283.801Z" fill="#F6F5F9"/>
<path d="M265.837 299.033H257.459V286.96H265.837V299.033Z" fill="#F6F5F9"/>
<path d="M265.837 314.257H257.459V302.185H265.837V314.257Z" fill="#F6F5F9"/>
<path d="M265.837 329.49H257.459V317.418H265.837V329.49Z" fill="#F6F5F9"/>
<path d="M265.837 344.723H257.459V332.651H265.837V344.723Z" fill="#F6F5F9"/>
<path d="M243.578 165.114V177.187H251.956V165.114H243.578Z" fill="#F6F5F9"/>
<path d="M243.578 180.348V192.421H251.956V180.348H243.578Z" fill="#F6F5F9"/>
<path d="M243.578 195.581V207.653H251.956V195.581H243.578Z" fill="#F6F5F9"/>
<path d="M243.578 210.805V222.877H251.956V210.805H243.578Z" fill="#F6F5F9"/>
<path d="M243.578 226.038V238.111H251.956V226.038H243.578Z" fill="#F6F5F9"/>
<path d="M251.956 241.271H243.578V253.344H251.956V241.271Z" fill="#F6F5F9"/>
<path d="M251.956 256.496H243.578V268.567H251.956V256.496Z" fill="#F6F5F9"/>
<path d="M243.578 271.728V283.801H251.956V271.728H243.578Z" fill="#F6F5F9"/>
<path d="M251.956 286.96H243.578V299.033H251.956V286.96Z" fill="#F6F5F9"/>
<path d="M251.956 302.185H243.578V314.257H251.956V302.185Z" fill="#F6F5F9"/>
<path d="M243.578 317.418V329.49H251.956V317.418H243.578Z" fill="#F6F5F9"/>
<path d="M251.956 332.651H243.578V344.723H251.956V332.651Z" fill="#F6F5F9"/>
<path d="M243.578 165.114V177.187H251.956V165.114H243.578Z" fill="#F6F5F9"/>
<path d="M243.578 180.348V192.421H251.956V180.348H243.578Z" fill="#F6F5F9"/>
<path d="M243.578 195.581V207.653H251.956V195.581H243.578Z" fill="#F6F5F9"/>
<path d="M243.578 210.805V222.877H251.956V210.805H243.578Z" fill="#F6F5F9"/>
<path d="M243.578 226.038V238.111H251.956V226.038H243.578Z" fill="#F6F5F9"/>
<path d="M243.578 241.271V253.344H251.956V241.271H243.578Z" fill="#F6F5F9"/>
<path d="M243.578 256.496V268.567H251.956V256.496H243.578Z" fill="#F6F5F9"/>
<path d="M243.578 271.728V283.801H251.956V271.728H243.578Z" fill="#F6F5F9"/>
<path d="M243.578 286.96V299.033H251.956V286.96H243.578Z" fill="#F6F5F9"/>
<path d="M243.578 302.185V314.257H251.956V302.185H243.578Z" fill="#F6F5F9"/>
<path d="M243.578 317.418V329.49H251.956V317.418H243.578Z" fill="#F6F5F9"/>
<path d="M243.578 332.651V344.723H251.956V332.651H243.578Z" fill="#F6F5F9"/>
<path d="M229.699 165.114V177.187H238.078V165.114H229.699Z" fill="#F6F5F9"/>
<path d="M229.699 180.348V192.421H238.078V180.348H229.699Z" fill="#F6F5F9"/>
<path d="M229.699 195.581V207.653H238.078V195.581H229.699Z" fill="#F6F5F9"/>
<path d="M229.699 210.805V222.877H238.078V210.805H229.699Z" fill="#F6F5F9"/>
<path d="M229.699 226.038V238.111H238.078V226.038H229.699Z" fill="#F6F5F9"/>
<path d="M238.078 241.271H229.699V253.344H238.078V241.271Z" fill="#F6F5F9"/>
<path d="M238.078 256.496H229.699V268.567H238.078V256.496Z" fill="#F6F5F9"/>
<path d="M229.699 271.728V283.801H238.078V271.728H229.699Z" fill="#F6F5F9"/>
<path d="M238.078 286.96H229.699V299.033H238.078V286.96Z" fill="#F6F5F9"/>
<path d="M238.078 302.185H229.699V314.257H238.078V302.185Z" fill="#F6F5F9"/>
<path d="M229.699 317.418V329.49H238.078V317.418H229.699Z" fill="#F6F5F9"/>
<path d="M238.078 332.651H229.699V344.723H238.078V332.651Z" fill="#F6F5F9"/>
<path d="M229.699 165.114V177.187H238.078V165.114H229.699Z" fill="#F6F5F9"/>
<path d="M229.699 180.348V192.421H238.078V180.348H229.699Z" fill="#F6F5F9"/>
<path d="M229.699 195.581V207.653H238.078V195.581H229.699Z" fill="#F6F5F9"/>
<path d="M229.699 210.805V222.877H238.078V210.805H229.699Z" fill="#F6F5F9"/>
<path d="M229.699 226.038V238.111H238.078V226.038H229.699Z" fill="#F6F5F9"/>
<path d="M229.699 241.271V253.344H238.078V241.271H229.699Z" fill="#F6F5F9"/>
<path d="M229.699 256.496V268.567H238.078V256.496H229.699Z" fill="#F6F5F9"/>
<path d="M229.699 271.728V283.801H238.078V271.728H229.699Z" fill="#F6F5F9"/>
<path d="M229.699 286.96V299.033H238.078V286.96H229.699Z" fill="#F6F5F9"/>
<path d="M229.699 302.185V314.257H238.078V302.185H229.699Z" fill="#F6F5F9"/>
<path d="M229.699 317.418V329.49H238.078V317.418H229.699Z" fill="#F6F5F9"/>
<path d="M229.699 332.651V344.723H238.078V332.651H229.699Z" fill="#F6F5F9"/>
<path d="M93.0457 229.439H57V116.36L93.0457 92.9994V229.439Z" fill="#EAEAEA"/>
<path d="M88.4154 229.439L88.4145 228.568H76.7388V222.296H88.4145V221.425H76.7388V215.153H88.4145V214.282H76.7388V208.011H88.4145V207.14H76.7388V200.868H88.4145V199.996H76.7388V193.726H88.4145V192.854H76.7388V186.584H88.4145V185.711H76.7388V179.44H88.4145V178.569H76.7388V172.298H88.4145V171.426H76.7388V165.155H88.4145V164.283H76.7388V158.013H88.4145V157.14H76.7388V150.87H88.4145V149.998H76.7388V143.727H88.4145V142.855H76.7388V136.584H88.4145V135.713H76.7388V129.441H88.4145V128.57H76.7388V122.298H88.4145V121.427H76.7388V113.294L88.4145 105.728V101.795L88.4154 101.794V229.439ZM61.0606 229.439H61.0588V119.525L61.0606 119.523V229.439ZM75.8673 228.568H64.1914V222.296H75.8673V228.568ZM75.8673 221.425H64.1914V215.153H75.8673V221.425ZM75.8673 214.282H64.1914V208.011H75.8673V214.282ZM75.8673 207.14H64.1914V200.868H75.8673V207.14ZM75.8673 199.996H64.1914V193.726H75.8673V199.996ZM75.8673 192.854H64.1914V186.584H75.8673V192.854ZM75.8673 185.711H64.1914V179.44H75.8673V185.711ZM75.8673 178.569H64.1914V172.298H75.8673V178.569ZM75.8673 171.426H64.1914V165.155H75.8673V171.426ZM75.8673 164.283H64.1914V158.013H75.8673V164.283ZM75.8673 157.14H64.1914V150.87H75.8673V157.14ZM75.8673 149.998H64.1914V143.727H75.8673V149.998ZM75.8673 142.855H64.1914V136.584H75.8673V142.855ZM75.8673 135.713H64.1914V129.441H75.8673V135.713ZM75.8673 128.57H64.1914V122.298H75.8673V128.57ZM75.8673 121.427H64.1914L75.8673 113.859V121.427Z" fill="#C8CBD0"/>
<path d="M88.415 122.299H76.7394V121.428H88.415V122.299ZM75.8679 122.299H64.1919V121.428H75.8679V122.299Z" fill="#F6F5F9"/>
<path d="M88.415 129.445H76.7394V128.573H88.415V129.445ZM75.8679 129.445H64.1919V128.573H75.8679V129.445Z" fill="#F6F5F9"/>
<path d="M88.415 136.584H76.7394V135.713H88.415V136.584ZM75.8679 136.584H64.1919V135.713H75.8679V136.584Z" fill="#F6F5F9"/>
<path d="M88.415 143.729H76.7394V142.857H88.415V143.729ZM75.8679 143.729H64.1919V142.857H75.8679V143.729Z" fill="#F6F5F9"/>
<path d="M88.415 150.872H76.7394V150H88.415V150.872ZM75.8679 150.872H64.1919V150H75.8679V150.872Z" fill="#F6F5F9"/>
<path d="M88.415 158.014H76.7394V157.141H88.415V158.014ZM75.8679 158.014H64.1919V157.141H75.8679V158.014Z" fill="#F6F5F9"/>
<path d="M88.415 165.157H76.7394V164.285H88.415V165.157ZM75.8679 165.157H64.1919V164.285H75.8679V165.157Z" fill="#F6F5F9"/>
<path d="M88.415 172.299H76.7394V171.428H88.415V172.299ZM75.8679 172.299H64.1919V171.428H75.8679V172.299Z" fill="#F6F5F9"/>
<path d="M88.415 179.443H76.7394V178.572H88.415V179.443ZM75.8679 179.443H64.1919V178.572H75.8679V179.443Z" fill="#F6F5F9"/>
<path d="M88.415 186.584H76.7394V185.712H88.415V186.584ZM75.8679 186.584H64.1919V185.712H75.8679V186.584Z" fill="#F6F5F9"/>
<path d="M88.415 193.729H76.7394V192.857H88.415V193.729ZM75.8679 193.729H64.1919V192.857H75.8679V193.729Z" fill="#F6F5F9"/>
<path d="M88.415 200.87H76.7394V199.998H88.415V200.87ZM75.8679 200.87H64.1919V199.998H75.8679V200.87Z" fill="#F6F5F9"/>
<path d="M88.415 208.014H76.7394V207.143H88.415V208.014ZM75.8679 208.014H64.1919V207.143H75.8679V208.014Z" fill="#F6F5F9"/>
<path d="M88.415 215.156H76.7394V214.285H88.415V215.156ZM75.8679 215.156H64.1919V214.285H75.8679V215.156Z" fill="#F6F5F9"/>
<path d="M88.415 222.299H76.7394V221.428H88.415V222.299ZM75.8679 222.299H64.1919V221.428H75.8679V222.299Z" fill="#F6F5F9"/>
<path d="M88.4178 229.441H76.7412V228.569H88.4169V229.441" fill="#F6F5F9"/>
<path d="M64.1919 229.441H75.8679V228.569H64.1919V229.441Z" fill="#F6F5F9"/>
<path d="M76.7382 229.441H75.8667V113.861L76.7382 113.296V121.428V122.3V128.571V129.443V135.714V136.585V142.856V143.728V149.999V150.871V157.142V158.014V164.284V165.156V171.427V172.299V178.57V179.441V185.713V186.585V192.856V193.727V199.998V200.87V207.142V208.013V214.284V215.155V221.427V222.298V228.569V229.441Z" fill="#F6F5F9"/>
<path d="M64.1896 229.439H61.0588V119.523L88.4128 101.794V105.728L76.7371 113.294L75.8656 113.859L64.1896 121.427V122.298V128.57V129.441V135.713V136.584V142.855V143.727V149.998V150.87V157.14V158.013V164.283V165.155V171.426V172.298V178.569V179.44V185.711V186.584V192.854V193.726V199.996V200.868V207.14V208.011V214.282V215.153V221.425V222.296V228.568V229.439Z" fill="#D8DBE0"/>
<path d="M124.803 229.439H93.0466V92.9994H124.803V229.439ZM96.128 220.741V223.829H121.721V220.741H96.128ZM96.128 213.744V216.832H121.721V213.744H96.128ZM96.128 206.747V209.835H121.721V206.747H96.128ZM96.128 199.751V202.839H121.721V199.751H96.128ZM96.128 192.754V195.842H121.721V192.754H96.128ZM96.128 185.757V188.845H121.721V185.757H96.128ZM96.128 178.76V181.847H121.721V178.76H96.128ZM96.128 171.764V174.85H121.721V171.764H96.128ZM96.128 164.766V167.854H121.721V164.766H96.128ZM96.128 157.769V160.857H121.721V157.769H96.128ZM96.128 150.772V153.86H121.721V150.772H96.128ZM96.128 143.776V146.863H121.721V143.776H96.128ZM96.128 136.779V139.867H121.721V136.779H96.128ZM96.128 129.782V132.869H121.721V129.782H96.128ZM96.128 122.785V125.872H121.721V122.785H96.128ZM96.128 115.788V118.875H121.721V115.788H96.128ZM96.128 108.791V111.879H121.721V108.791H96.128ZM96.128 101.794V104.882H121.721V101.794H96.128Z" fill="#D8DBE0"/>
<path d="M96.1265 104.883H121.72V101.795H96.1265V104.883Z" fill="#F6F5F9"/>
<path d="M96.1265 111.88H121.72V108.793H96.1265V111.88Z" fill="#F6F5F9"/>
<path d="M96.1265 118.876H121.72V115.789H96.1265V118.876Z" fill="#F6F5F9"/>
<path d="M96.1265 125.873H121.72V122.785H96.1265V125.873Z" fill="#F6F5F9"/>
<path d="M96.1265 132.871H121.72V129.784H96.1265V132.871Z" fill="#F6F5F9"/>
<path d="M96.1265 139.867H121.72V136.779H96.1265V139.867Z" fill="#F6F5F9"/>
<path d="M96.1265 146.865H121.72V143.777H96.1265V146.865Z" fill="#F6F5F9"/>
<path d="M96.1265 153.86H121.72V150.773H96.1265V153.86Z" fill="#F6F5F9"/>
<path d="M96.1265 160.856H121.72V157.769H96.1265V160.856Z" fill="#F6F5F9"/>
<path d="M96.1265 167.854H121.72V164.767H96.1265V167.854Z" fill="#F6F5F9"/>
<path d="M96.1265 174.851H121.72V171.764H96.1265V174.851Z" fill="#F6F5F9"/>
<path d="M96.1265 181.849H121.72V178.761H96.1265V181.849Z" fill="#F6F5F9"/>
<path d="M96.1265 188.846H121.72V185.758H96.1265V188.846Z" fill="#F6F5F9"/>
<path d="M96.1265 195.842H121.72V192.754H96.1265V195.842Z" fill="#F6F5F9"/>
<path d="M96.1265 202.838H121.72V199.751H96.1265V202.838Z" fill="#F6F5F9"/>
<path d="M96.1265 209.834H121.72V206.746H96.1265V209.834Z" fill="#F6F5F9"/>
<path d="M96.1265 216.833H121.72V213.745H96.1265V216.833Z" fill="#F6F5F9"/>
<path d="M96.1265 223.829H121.72V220.741H96.1265V223.829Z" fill="#F6F5F9"/>
</g>
<path d="M0 181L102.069 195.447C141.99 201.097 182.622 199.08 221.787 189.504L322 165V348C322 351.866 318.866 355 315 355H7C3.13401 355 0 351.866 0 348V181Z" fill="white"/>
<path d="M162 219C171.389 219 179 217.657 179 216C179 214.343 171.389 213 162 213C152.611 213 145 214.343 145 216C145 217.657 152.611 219 162 219Z" fill="#E6E6E6"/>
<path d="M165.355 101.328C165.355 101.328 162.789 100.568 162.238 101.395C161.688 102.222 162.989 108.215 162.989 108.215L168.643 108.559L166.67 103.569L165.355 101.328Z" fill="#2F2E41"/>
<path d="M145.574 150.541C145.574 150.541 150.719 161.851 146.757 161.495C142.795 161.14 141.257 150.541 141.257 150.541H145.574Z" fill="#FFB8B8"/>
<path d="M179.224 149.364C179.224 149.364 176.967 161.585 180.726 160.28C184.484 158.974 183.413 148.317 183.413 148.317L179.224 149.364Z" fill="#FFB8B8"/>
<path d="M164.261 98.4905C164.261 98.4905 164.202 104.175 166.39 104.471C168.578 104.767 165.148 107.787 165.148 107.787L161.245 108.557L155.627 108.143L153.143 104.945C153.143 104.945 157.519 102.872 155.627 96.418L164.261 98.4905Z" fill="#A0616A"/>
<path d="M164.261 98.4905C164.261 98.4905 164.202 104.175 166.39 104.471C168.578 104.767 165.148 107.787 165.148 107.787L161.245 108.557L155.627 108.143L153.143 104.945C153.143 104.945 157.519 102.872 155.627 96.418L164.261 98.4905Z" fill="#E9A7A7"/>
<path d="M174.315 146.574C174.315 146.574 177.095 152.555 174.907 171.326C174.907 171.326 175.557 177.958 175.025 179.201C174.493 180.445 170.117 197.321 170.117 197.321C170.117 197.321 164.498 198.565 163.729 194.834C163.729 194.834 164.498 189.505 164.439 188.676C164.38 187.847 165.681 178.787 165.681 178.787L163.02 161.259L161.009 177.07C161.009 177.07 161.009 181.629 160.358 182.636C159.708 183.643 160.358 203.894 160.358 203.894C160.358 203.894 162.192 206.973 159.412 207.032C156.633 207.092 154.149 206.973 153.912 205.019C153.676 203.065 153.557 201.111 152.966 199.927C152.375 198.742 151.606 185.182 151.783 180.445C151.961 175.708 147.88 151.37 149.181 148.824C150.482 146.278 174.315 146.574 174.315 146.574Z" fill="#2F2E41"/>
<path d="M161.245 100.623C165.165 100.623 168.342 97.4413 168.342 93.5169C168.342 89.5925 165.165 86.4111 161.245 86.4111C157.326 86.4111 154.148 89.5925 154.148 93.5169C154.148 97.4413 157.326 100.623 161.245 100.623Z" fill="#FFB8B8"/>
<path d="M154.147 105.064C154.147 105.064 158.465 108.261 164.733 105.715C164.733 105.715 166.803 104.708 166.626 103.169C166.448 101.629 170.943 115.545 170.943 115.545L175.497 139.764L175.26 149.652C175.26 149.652 173.25 148.646 166.981 150.896C160.712 153.146 150.481 148.35 150.481 148.35L150.836 122.947L151.19 108.143L152.137 104.886C152.137 104.886 152.61 103.998 154.147 105.064Z" fill="#F2F2F2"/>
<path d="M164.46 101.089C164.46 101.089 165.504 100.919 166.51 102.518C167.515 104.117 169.881 105.124 169.881 105.124C169.881 105.124 175.617 105.479 176.445 108.558C177.273 111.637 179.343 115.841 180.349 123.599C181.354 131.356 183.365 143.732 183.66 144.738C183.956 145.745 183.246 148.824 184.074 149.772C184.902 150.719 178.219 150.719 178.219 150.719C178.219 150.719 177.628 145.863 177.214 145.863C176.8 145.863 176.918 149.12 177.332 151.489C177.746 153.857 174.316 151.489 174.316 151.489C174.316 151.489 171.655 140.652 169.112 130.882C166.569 121.112 165.09 115.723 165.564 113.532C166.037 111.341 167.338 105.064 166.392 104.472C165.445 103.88 164.46 101.089 164.46 101.089Z" fill="#2F2E41"/>
<path d="M155.931 101.084C155.931 101.084 154.386 101.926 150.483 104.709C146.58 107.492 143.919 109.624 143.919 109.624C143.919 109.624 142.381 110.808 141.435 117.855C140.488 124.901 138.359 143.139 139.187 145.449C140.015 147.758 140.311 149.12 140.015 150.482C139.72 151.844 146.225 151.785 146.343 151.489C146.462 151.193 146.166 145.804 146.462 145.686C146.757 145.567 148.354 148.883 148.65 151.666C148.945 154.45 152.375 156.64 153.144 156.64C153.913 156.64 157.876 140.593 157.935 129.638C157.994 118.684 156.634 109.446 155.628 108.143C154.623 106.841 155.931 101.084 155.931 101.084Z" fill="#2F2E41"/>
<path d="M166.331 197.855C166.331 197.855 166.804 196.552 168.46 196.967C170.116 197.381 171.24 195.901 171.24 195.901C171.24 195.901 172.127 195.782 171.535 196.907C170.944 198.032 170.471 198.802 170.471 198.802C170.471 198.802 174.019 206.915 171.713 208.869C169.406 210.823 166.745 209.638 166.745 209.638C166.745 209.638 164.143 207.803 164.261 202.947C164.261 202.947 164.143 201.408 162.723 198.921C161.304 196.434 160.24 192.644 161.955 191.933C163.67 191.223 164.111 191.196 164.111 191.196C164.111 191.196 163.309 194.872 165.382 196.156L166.331 197.855Z" fill="#3F3D56"/>
<path d="M155.331 207.031C155.331 207.031 153.912 204.367 156.277 204.071C158.643 203.775 161.186 203.597 161.067 204.84C160.949 206.084 160.653 207.979 160.653 207.979L161.067 209.341C161.067 209.341 161.186 212.716 161.6 213.13C162.014 213.545 164.261 217.098 159.471 217.098C154.68 217.098 153.261 216.565 153.675 215.44C154.089 214.315 154.207 208.749 154.207 208.749L155.331 207.031Z" fill="#3F3D56"/>
<path d="M158.998 87.8329C158.998 87.8329 162.31 88.7212 164.025 89.0764C165.74 89.4317 165.563 88.4251 165.563 88.4251C165.563 88.4251 167.81 88.7212 167.692 88.4843C167.574 88.2474 168.638 87.0039 167.396 85.5828C166.154 84.1616 166.509 83.0957 166.509 83.0957H165.445L165.149 82.6812H163.493C163.493 82.6812 162.251 82.2075 158.998 82.6812C155.746 83.155 151.31 83.2734 150.955 85.2275C150.601 87.1816 148.767 89.6094 149.418 90.7345C150.068 91.8595 153.794 96.4783 154.149 98.4324C154.504 100.386 156.161 100.821 156.101 99.5969C156.041 98.3732 154.386 94.1097 155.805 93.9321C157.224 93.7544 159.649 90.1423 158.998 87.8329Z" fill="#2F2E41"/>
</svg>
