<svg width="322" height="356" viewBox="0 0 322 356" fill="none" xmlns="http://www.w3.org/2000/svg">
<mask id="mask0_4531_184827" style="mask-type:alpha" maskUnits="userSpaceOnUse" x="0" y="0" width="322" height="356">
<rect x="0.5" y="0.5" width="321" height="355" rx="7.5" fill="#F6F6F6" stroke="#EEEEEE"/>
</mask>
<g mask="url(#mask0_4531_184827)">
<path d="M111 43H67C67 43 74.5583 29.2042 82.7574 29.0028C90.9562 28.8022 95.267 39.4445 95.267 39.4445C95.267 39.4445 108.022 29.6567 111 43Z" fill="white"/>
<path d="M242 31H183C183 31 193.135 12.2772 204.129 12.0038C215.123 11.7315 220.904 26.1747 220.904 26.1747C220.904 26.1747 238.006 12.8912 242 31Z" fill="white"/>
<path d="M70.4366 88.8722C70.4366 79.5181 62.8533 71.9349 53.4992 71.9349C44.1451 71.9349 36.5639 79.5181 36.5639 88.8722C36.5639 89.6846 36.6402 90.4767 36.7502 91.2575C33.7808 94.9433 32 99.6283 32 104.729C32 116.604 41.626 126.228 53.4992 126.228C65.3736 126.228 75 116.604 75 104.729C75 99.6283 73.2178 94.9433 70.2498 91.2575C70.3601 90.4767 70.4366 89.6846 70.4366 88.8722Z" fill="#E1E5EB"/>
<path d="M54.3546 88.8024L53.4253 152.153C53.4253 152.666 53.8416 153.082 54.3546 153.082H54.4762C54.9892 153.082 55.4055 152.666 55.4055 152.153C55.4055 152.153 54.9892 88.8024 54.4762 88.8024C54.4762 88.8024 54.3546 88.2894 54.3546 88.8024Z" fill="#C8CBD0"/>
<path d="M47.7746 109.833C44.6356 107.572 42.1853 104.174 42.1853 104.174C48.4947 114.507 54.2935 114.206 54.2935 114.206L54.415 112.752C54.415 112.752 53.1684 113.72 47.7746 109.833Z" fill="#C8CBD0"/>
<path d="M60.0578 106.184C55.4741 109.487 54.4143 108.663 54.4143 108.663L54.5201 109.901C54.5201 109.901 59.448 110.158 64.808 101.375C64.808 101.375 62.7266 104.262 60.0578 106.184Z" fill="#C8CBD0"/>
<path d="M49.8629 99.1344C47.7095 97.5818 46.0286 95.2506 46.0286 95.2506C50.3557 102.339 54.3341 102.132 54.3341 102.132L54.4174 101.135C54.4174 101.135 53.5623 101.799 49.8629 99.1344Z" fill="#C8CBD0"/>
<path d="M40.6294 72.717C40.6294 57.9619 28.6677 46.0003 13.9126 46.0003C-0.842516 46.0003 -12.801 57.9619 -12.801 72.717C-12.801 73.9984 -12.6806 75.2478 -12.5071 76.4795C-17.1909 82.2935 -20 89.6834 -20 97.7301C-20 116.461 -4.81614 131.642 13.9126 131.642C32.6431 131.642 47.8277 116.461 47.8277 97.7301C47.8277 89.6834 45.0165 82.2935 40.3348 76.4795C40.5087 75.2478 40.6294 73.9984 40.6294 72.717Z" fill="#EAEAEA"/>
<path d="M15.2628 72.6061L13.7969 172.534C13.7969 173.343 14.4535 174 15.2628 174H15.4545C16.2638 174 16.9204 173.343 16.9204 172.534C16.9204 172.534 16.2638 72.6061 15.4545 72.6061C15.4545 72.6061 15.2628 71.7969 15.2628 72.6061Z" fill="#C8CBD0"/>
<path d="M4.87997 105.781C-0.0715215 102.214 -3.93652 96.8543 -3.93652 96.8543C6.0158 113.153 15.1627 112.678 15.1627 112.678L15.3544 110.385C15.3544 110.385 13.388 111.911 4.87997 105.781Z" fill="#C8CBD0"/>
<path d="M24.2577 100.024C17.0275 105.234 15.3557 103.935 15.3557 103.935L15.5225 105.887C15.5225 105.887 23.2958 106.292 31.7506 92.4386C31.7506 92.4386 28.4674 96.9925 24.2577 100.024Z" fill="#C8CBD0"/>
<path d="M8.17476 88.9045C4.77793 86.4554 2.12646 82.7781 2.12646 82.7781C8.95208 93.9589 15.2275 93.6323 15.2275 93.6323L15.3589 92.0599C15.3589 92.0599 14.0101 93.107 8.17476 88.9045Z" fill="#C8CBD0"/>
<path d="M280.502 35.5312C277.242 33.4893 272.901 33.4893 269.645 35.5312C257.795 42.9572 219.923 138.35 275.073 138.35C327.177 138.35 292.349 42.9572 280.502 35.5312Z" fill="#EAEAEA"/>
<path d="M258.429 100.695C257.621 64.428 268.367 37.4272 266.619 38.5256C255.187 45.6888 221.579 137.742 271.856 137.742C271.856 137.742 259.229 136.715 258.429 100.695Z" fill="#D8DBE0"/>
<path d="M273.717 88.4861L270.087 158.942C270.951 158.903 276.598 158.994 277.461 158.942C277.192 128.801 274.462 88.4861 273.917 88.4861C273.917 88.4861 273.717 87.6589 273.717 88.4861Z" fill="#C8CBD0"/>
<path d="M262.942 122.322C257.798 118.681 253.787 113.216 253.787 113.216C264.118 129.842 273.616 129.355 273.616 129.355L273.818 127.014C273.818 127.014 271.773 128.572 262.942 122.322Z" fill="#C8CBD0"/>
<path d="M283.057 116.45C275.551 121.762 273.816 120.44 273.816 120.44L273.985 122.429C273.985 122.429 282.058 122.841 290.837 108.714C290.837 108.714 287.428 113.359 283.057 116.45Z" fill="#C8CBD0"/>
<path d="M266.349 105.102C262.822 102.607 260.069 98.8576 260.069 98.8576C267.157 110.262 273.673 109.93 273.673 109.93L273.811 108.323C273.811 108.323 272.408 109.391 266.349 105.102Z" fill="#C8CBD0"/>
</g>
<path d="M0 157L66.3368 136.997C128.913 118.128 195.791 119.062 257.816 139.672L322 161V348C322 351.866 318.866 355 315 355H7C3.13401 355 0 351.866 0 348V157Z" fill="white"/>
<rect x="99" y="64" width="63" height="148" rx="2" fill="#D8DBE0"/>
<rect x="137" y="150.5" width="61.5" height="61.5" rx="2" fill="#ECECEC"/>
<path d="M223 218C232.388 218 240 216.657 240 215C240 213.343 232.388 212 223 212C213.611 212 206 213.343 206 215C206 216.657 213.611 218 223 218Z" fill="#E6E6E6"/>
<path d="M179.843 143.805L178.011 144.721C178.011 144.721 170.683 148.077 172.82 149.908C174.958 151.739 180.759 148.077 180.759 148.077L181.981 146.551L179.843 143.805Z" fill="#FFB8B8"/>
<path d="M233.444 143.351L227.782 181.338L219.231 207.884L214.652 205.749L218.926 169.438L206.712 159.063L207.629 143.806L233.444 143.351Z" fill="#2F2E41"/>
<path d="M214.04 206.664C214.04 206.664 219.231 203.918 219.536 207.885L218.926 211.851C218.926 211.851 220.758 218.87 214.651 217.344C208.544 215.818 212.819 211.241 212.819 211.241L214.04 206.664Z" fill="#2F2E41"/>
<path d="M210.682 155.706L206.712 159.063C206.712 159.063 206.712 179.812 209.46 182.863C212.209 185.914 229.613 201.476 230.224 202.087C230.835 202.697 233.583 195.984 233.583 195.984L217.094 176.76L218.315 164.86L210.682 155.706Z" fill="#2F2E41"/>
<path d="M231.748 195.069C231.748 195.069 236.633 194.153 236.633 197.51C236.694 200.163 236.898 202.812 237.244 205.443C237.244 205.443 238.465 216.123 234.496 214.597C230.526 213.072 229 202.392 229 202.392C229.369 201.504 230.01 200.756 230.832 200.256C232.053 199.646 231.748 195.069 231.748 195.069Z" fill="#2F2E41"/>
<path d="M216.481 98.0361L217.397 109.326L214.955 113.598L208.237 107.19L207.626 98.6465L216.481 98.0361Z" fill="#F0ABAB"/>
<path d="M210.988 101.697C215.035 101.697 218.316 98.4185 218.316 94.374C218.316 90.3295 215.035 87.0508 210.988 87.0508C206.941 87.0508 203.66 90.3295 203.66 94.374C203.66 98.4185 206.941 101.697 210.988 101.697Z" fill="#FFB8B8"/>
<path d="M214.041 109.02L217.095 100.171L222.591 106.274L232.667 145.025L225.033 149.603L221.675 144.72L221.064 151.128L206.102 148.077L204.881 107.188L207.932 102.893L214.041 109.02Z" fill="#F2F2F2"/>
<path d="M209.766 152.35L207.934 102.918L203.965 105.969L196.636 110.851L201.522 128.244L203.048 146.552L209.766 152.35Z" fill="#2F2E41"/>
<path d="M198.774 111.156L196.636 110.851L190.529 128.854L178.315 144.111L182.896 148.993L196.941 135.262L202.133 123.972L198.774 111.156Z" fill="#2F2E41"/>
<path d="M232.117 144.084L231.701 146.088C231.701 146.088 229.795 153.915 232.557 153.374C235.32 152.832 236.04 146.013 236.04 146.013L235.599 144.11L232.117 144.084Z" fill="#FFB8B8"/>
<path d="M216.618 99.6768L231.752 105.665L229.92 123.973L233.584 144.112L229.92 148.078L216.372 102.27L216.618 99.6768Z" fill="#2F2E41"/>
<path d="M211.369 82.0748L213.521 81V82.0748L214.955 81.3583V83.1496C214.955 83.1496 220.332 87.0905 219.257 91.7479C218.181 96.4054 218.181 96.7636 218.181 96.7636C218.181 96.7636 216.821 87.9065 211.444 89.3395C206.066 90.7726 205.633 91.0314 204.199 94.9723L203.81 96.6627C203.81 96.6627 197.746 82.7913 211.369 82.0748Z" fill="#2F2E41"/>
<path d="M229.611 105.664H232.053L236.023 127.023V145.636L231.138 144.72L227.168 116.648L229.611 105.664Z" fill="#2F2E41"/>
<path d="M95.0567 220C103.81 220 110.906 218.748 110.906 217.203C110.906 215.659 103.81 214.406 95.0567 214.406C86.3031 214.406 79.207 215.659 79.207 217.203C79.207 218.748 86.3031 220 95.0567 220Z" fill="#E6E6E6"/>
<path d="M110.266 104.561C107.868 100.506 103.124 100.317 103.124 100.317C103.124 100.317 98.5021 99.7249 95.5369 105.901C92.7732 111.657 88.9588 117.215 94.9229 118.563L96.0001 115.206L96.6673 118.812C97.5165 118.874 98.3684 118.888 99.2191 118.856C105.606 118.65 111.689 118.916 111.493 116.622C111.233 113.573 112.573 108.462 110.266 104.561Z" fill="#2F2E41"/>
<path d="M92.988 194.104L93.3016 202.265H98.9465L98.6329 193.476L92.988 194.104Z" fill="#FBBEBE"/>
<path d="M108.355 136.347L107.784 138.247L100.39 162.834L99.5743 165.54L100.202 194.418L92.3614 195.36C92.3614 195.36 92.1325 192.327 91.7969 187.851C91.1227 178.987 90.0188 164.45 89.379 156.54C89.1438 153.615 88.9745 151.596 88.9117 151.1C88.5981 148.589 92.675 136.034 92.675 136.034L100.829 135.406L108.355 136.347Z" fill="#2F2E41"/>
<path d="M94.8676 201.323C94.8676 201.323 92.6724 198.812 92.3588 200.696C92.0452 202.579 88.2819 209.798 88.2819 209.798C88.2819 209.798 77.3057 217.018 86.7139 217.646C86.7139 217.646 91.4179 217.018 92.986 214.507C92.986 214.507 95.4948 212.937 96.122 212.937C96.7492 212.937 100.512 211.682 99.8853 209.798C99.2581 207.915 99.5717 201.009 99.5717 201.009L94.8676 201.323Z" fill="#2F2E41"/>
<path d="M94.554 186.571L97.3764 191.907L101.767 189.71L98.9444 183.432L94.554 186.571Z" fill="#FBBEBE"/>
<path opacity="0.2" d="M92.3582 171.189C92.3582 171.189 90.0187 166.073 89.3789 158.163C93.9199 153.084 99.4143 147.49 99.4143 147.49L106 147.176L108.038 147.02C108.515 151.791 104.482 157.937 100.386 162.834C97.8975 165.793 95.2156 168.585 92.3582 171.189Z" fill="black"/>
<path d="M100.511 147.333C100.511 147.333 80.4406 164.912 83.263 172.131C86.0854 179.351 93.9256 188.14 93.9256 188.14L99.9827 184.521L94.2392 171.189C94.2392 171.189 96.6471 169.052 99.578 165.885C104.348 160.732 110.502 152.852 109.919 147.02L109.606 136.347L104.275 136.975L100.511 147.333Z" fill="#2F2E41"/>
<path d="M98.6296 190.65C98.6296 190.65 96.4343 190.65 96.7479 192.533C97.0616 194.416 97.6888 197.555 97.6888 197.555C97.6888 197.555 95.1799 212.308 101.138 208.855C107.097 205.403 105.529 196.3 105.529 196.3C105.529 196.3 107.724 190.65 104.902 190.022C102.079 189.394 101.138 188.766 100.825 189.08C100.511 189.394 98.6296 190.65 98.6296 190.65Z" fill="#2F2E41"/>
<path d="M100.827 110.294C100.827 110.294 103.336 116.886 102.395 117.2C101.454 117.514 99.5728 119.083 99.5728 119.083L102.709 121.909L110.863 117.514C110.863 117.514 107.099 112.492 107.413 110.294H100.827Z" fill="#E9AFAF"/>
<path d="M103.02 113.746C106.137 113.746 108.665 111.216 108.665 108.095C108.665 104.975 106.137 102.445 103.02 102.445C99.9023 102.445 97.375 104.975 97.375 108.095C97.375 111.216 99.9023 113.746 103.02 113.746Z" fill="#FBBEBE"/>
<path d="M110.859 116.258C110.859 116.258 104.297 119.496 101.934 117.406C101.934 117.406 98.0017 117.2 97.3745 119.397C96.7473 121.595 98.0017 123.478 96.4337 124.106C94.8656 124.733 93.768 126.46 94.7088 129.285C95.6496 132.11 95.4928 132.581 94.2384 133.522C92.984 134.464 91.7296 136.348 91.7296 136.975C91.7296 137.603 90.4752 137.603 91.1024 138.231C91.7296 138.859 90.4752 138.231 91.7296 138.859C92.984 139.486 96.4337 133.836 98.9425 136.661C101.451 139.486 109.291 144.195 109.919 141.37C110.546 138.545 112.428 131.639 112.428 131.639C112.428 131.639 119.013 119.397 117.132 118.142C115.25 116.886 110.859 116.258 110.859 116.258Z" fill="#F2F2F2"/>
<path d="M109.919 138.229C109.919 138.229 106.469 137.601 105.528 139.798C104.587 141.996 99.2562 147.018 102.706 147.332C106.156 147.646 108.664 141.996 108.664 141.996L112.114 141.368L109.919 138.229Z" fill="#FBBEBE"/>
<path d="M113.37 118.141L117.471 118.37C117.471 118.37 119.328 120.338 119.642 122.222C119.956 124.105 125.914 138.23 122.151 139.8C118.388 141.369 110.234 142.311 110.234 142.311L109.293 137.916L114.624 136.033L110.861 128.186L113.37 118.141Z" fill="#F2F2F2"/>
<path opacity="0.2" d="M94.7118 171.345L99.8703 184.254L93.771 171.345L99.1023 165.695L94.7118 171.345Z" fill="black"/>
<path opacity="0.2" d="M91.6187 185.555L93.769 188.296H92.201L91.6187 185.555Z" fill="black"/>
<path d="M103.702 103.771C105.596 103.771 107.132 102.234 107.132 100.338C107.132 98.4418 105.596 96.9048 103.702 96.9048C101.808 96.9048 100.272 98.4418 100.272 100.338C100.272 102.234 101.808 103.771 103.702 103.771Z" fill="#2F2E41"/>
<path d="M99.9119 99.433C99.912 98.5851 100.226 97.7673 100.792 97.137C101.359 96.5067 102.138 96.1086 102.981 96.0193C102.861 96.0066 102.74 96.0001 102.62 96C102.169 95.9996 101.723 96.0881 101.306 96.2604C100.89 96.4327 100.511 96.6855 100.192 97.0043C99.8734 97.3232 99.6205 97.7018 99.4479 98.1185C99.2753 98.5352 99.1865 98.9819 99.1865 99.433C99.1865 99.8841 99.2753 100.331 99.4479 100.748C99.6205 101.164 99.8734 101.543 100.192 101.862C100.511 102.18 100.89 102.433 101.306 102.606C101.723 102.778 102.169 102.866 102.62 102.866C102.74 102.866 102.861 102.859 102.981 102.847C102.138 102.757 101.359 102.359 100.792 101.729C100.226 101.099 99.912 100.281 99.9119 99.433Z" fill="#2F2E41"/>
<path d="M109.204 104.169L104.517 101.712L98.0456 102.717L96.7065 108.637L100.04 108.508L100.971 106.334V108.472L102.509 108.413L103.401 104.951L103.959 108.637L109.427 108.525L109.204 104.169Z" fill="#2F2E41"/>
</svg>
