<svg width="56" height="56" viewBox="0 0 56 56" fill="none" xmlns="http://www.w3.org/2000/svg">
<path d="M47.25 6.5H8.75C7.7835 6.5 7 7.2835 7 8.25V15.25C7 16.2165 7.7835 17 8.75 17H47.25C48.2165 17 49 16.2165 49 15.25V8.25C49 7.2835 48.2165 6.5 47.25 6.5Z" stroke="#6D7684" stroke-width="2" stroke-linecap="round" stroke-linejoin="round"/>
<path d="M42.5 24V46.75C42.5 47.2141 42.3156 47.6593 41.9874 47.9874C41.6592 48.3156 41.2141 48.5 40.75 48.5H9.25C8.78587 48.5 8.34075 48.3156 8.01256 47.9874C7.68437 47.6593 7.5 47.2141 7.5 46.75V24" fill="#E5E8ED"/>
<path d="M45.5 21V43.75C45.5 44.2141 45.3156 44.6592 44.9874 44.9874C44.6592 45.3156 44.2141 45.5 43.75 45.5H12.25C11.7859 45.5 11.3408 45.3156 11.0126 44.9874C10.6844 44.6592 10.5 44.2141 10.5 43.75V21" stroke="#6D7684" stroke-width="2" stroke-linecap="round" stroke-linejoin="round"/>
<path d="M22.75 29.75H33.25" stroke="#6D7684" stroke-width="2" stroke-linecap="round" stroke-linejoin="round"/>
</svg>
