<svg width="12" height="6" viewBox="0 0 12 6" fill="none" xmlns="http://www.w3.org/2000/svg">
<path d="M11.77 1.18591C11.9188 1.05675 12 0.892368 12 0.69863C12 0.311155 11.6483 0 11.2018 0C10.9786 0 10.7756 0.0821919 10.6201 0.217221L5.99324 4.32681L1.37993 0.217221C1.22435 0.0821919 1.01466 0 0.798196 0C0.351747 0 0 0.311155 0 0.69863C0 0.892368 0.0811725 1.05675 0.229989 1.18591L5.37091 5.75342C5.54679 5.91781 5.76325 5.99413 6 6C6.23675 6 6.43968 5.91781 6.62232 5.75342L11.77 1.18591Z" fill="#616161"/>
</svg>
