<svg width="12" height="7" viewBox="0 0 12 7" fill="none" xmlns="http://www.w3.org/2000/svg">
<path d="M11.4619 0.808655C11.4241 0.717292 11.36 0.639204 11.2778 0.584264C11.1956 0.529324 11.0989 0.5 11 0.5H1C0.90111 0.5 0.804439 0.529324 0.722214 0.584266C0.639988 0.639208 0.575902 0.717299 0.538058 0.808663C0.500215 0.900028 0.490315 1.00056 0.509609 1.09755C0.528904 1.19455 0.576527 1.28364 0.646456 1.35356L5.64646 6.35355C5.69288 6.39998 5.748 6.43681 5.80866 6.46194C5.86932 6.48707 5.93434 6.5 6 6.5C6.06566 6.5 6.13068 6.48707 6.19134 6.46194C6.252 6.43681 6.30712 6.39998 6.35355 6.35355L11.3535 1.35356C11.4235 1.28364 11.4711 1.19454 11.4904 1.09755C11.5097 1.00056 11.4998 0.900021 11.4619 0.808655Z" fill="#212121"/>
</svg>
