<svg width="24" height="24" viewBox="0 0 24 24" fill="none" xmlns="http://www.w3.org/2000/svg">
<path d="M16.5156 9.34814H21.0156V4.84814" stroke="#757575" stroke-width="1.5" stroke-linecap="round" stroke-linejoin="round"/>
<path d="M6.16602 6.16613C6.9321 5.40004 7.84157 4.79235 8.84251 4.37775C9.84344 3.96315 10.9162 3.74976 11.9996 3.74976C13.0831 3.74976 14.1558 3.96315 15.1568 4.37775C16.1577 4.79235 17.0672 5.40004 17.8333 6.16613L20.5 8.99976" stroke="#757575" stroke-width="2" stroke-linecap="round" stroke-linejoin="round"/>
<path d="M7.48438 14.6514H2.98438V19.1514" stroke="#757575" stroke-width="1.5" stroke-linecap="round" stroke-linejoin="round"/>
<path d="M17.8336 17.8333C17.0675 18.5994 16.1581 19.2071 15.1571 19.6217C14.1562 20.0363 13.0834 20.2497 12 20.2497C10.9166 20.2497 9.84378 20.0363 8.84285 19.6217C7.84191 19.2071 6.93244 18.5994 6.16635 17.8333L4.57536 16.2424L3.5 14.9995" stroke="#757575" stroke-width="2" stroke-linecap="round" stroke-linejoin="round"/>
</svg>
