<svg width="8" height="4" viewBox="0 0 8 4" fill="none" xmlns="http://www.w3.org/2000/svg">
<path d="M7.84667 0.790607C7.94589 0.704501 8 0.594912 8 0.465753C8 0.207436 7.7655 -8.91741e-08 7.46787 -8.91741e-08C7.31905 -8.91741e-08 7.18377 0.0547944 7.08005 0.144814L3.99549 2.88454L0.919955 0.144814C0.816235 0.0547944 0.676437 -8.91741e-08 0.532131 -8.91741e-08C0.234498 -8.91741e-08 0 0.207436 0 0.465753C0 0.594912 0.054115 0.704501 0.153326 0.790607L3.58061 3.83562C3.69786 3.94521 3.84216 3.99609 4 4C4.15784 4 4.29312 3.94521 4.41488 3.83562L7.84667 0.790607Z" fill="#BDBDBD"/>
</svg>
