<svg width="40" height="40" viewBox="0 0 40 40" fill="none" xmlns="http://www.w3.org/2000/svg">
<path d="M32.2083 15.7803C32.2083 15.7803 31.3033 27.0053 30.7783 31.7336C30.5283 33.9919 29.1333 35.3153 26.8483 35.3569C22.5 35.4353 18.1466 35.4403 13.8 35.3486C11.6016 35.3036 10.23 33.9636 9.98497 31.7453C9.45664 26.9753 8.55664 15.7803 8.55664 15.7803" stroke="#78909C" stroke-width="2.5" stroke-linecap="round" stroke-linejoin="round"/>
<path d="M34.5133 10.3993H6.25" stroke="#78909C" stroke-width="2.5" stroke-linecap="round" stroke-linejoin="round"/>
<path d="M29.067 10.3995C27.7586 10.3995 26.632 9.47447 26.3753 8.19281L25.9703 6.16614C25.7203 5.23114 24.8736 4.58447 23.9086 4.58447H16.8536C15.8886 4.58447 15.042 5.23114 14.792 6.16614L14.387 8.19281C14.1303 9.47447 13.0036 10.3995 11.6953 10.3995" stroke="#78909C" stroke-width="2.5" stroke-linecap="round" stroke-linejoin="round"/>
<path d="M16.5 19V29" stroke="#78909C" stroke-width="2.5" stroke-linecap="round" stroke-linejoin="round"/>
<path d="M24 19V29" stroke="#78909C" stroke-width="2.5" stroke-linecap="round" stroke-linejoin="round"/>
</svg>
