<svg width="20" height="20" viewBox="0 0 20 20" fill="none" xmlns="http://www.w3.org/2000/svg">
<path d="M4.39087 8.12495C4.38983 7.38371 4.53552 6.64959 4.81952 5.96491C5.10353 5.28024 5.52024 4.65854 6.04564 4.13567C6.57104 3.61279 7.19473 3.19907 7.88077 2.91837C8.56681 2.63766 9.30162 2.49551 10.0428 2.50011C13.1358 2.5231 15.6098 5.09396 15.6098 8.19557V8.74995C15.6098 11.548 16.1952 13.1717 16.7108 14.0592C16.7663 14.154 16.7959 14.2618 16.7965 14.3717C16.7971 14.4816 16.7686 14.5897 16.7141 14.6851C16.6596 14.7805 16.5809 14.8599 16.4859 14.9151C16.3909 14.9704 16.283 14.9997 16.1731 15H3.82685C3.71694 14.9997 3.60906 14.9704 3.51407 14.9151C3.41908 14.8598 3.34036 14.7805 3.28584 14.685C3.23132 14.5896 3.20293 14.4815 3.20354 14.3716C3.20415 14.2617 3.23373 14.1539 3.2893 14.059C3.80518 13.1716 4.39086 11.5479 4.39086 8.74995L4.39087 8.12495Z" stroke="#8E9AA6" stroke-width="1.5" stroke-linecap="round" stroke-linejoin="round"/>
<path d="M7.5 15V15.625C7.5 16.288 7.76339 16.9239 8.23223 17.3928C8.70107 17.8616 9.33696 18.125 10 18.125C10.663 18.125 11.2989 17.8616 11.7678 17.3928C12.2366 16.9239 12.5 16.288 12.5 15.625V15" stroke="#8E9AA6" stroke-width="1.5" stroke-linecap="round" stroke-linejoin="round"/>
</svg>
