<svg width="1096" height="778" xmlns="http://www.w3.org/2000/svg">
 <g>
  <title>background</title>
  <rect x="-1" y="-1" width="1098" height="780" id="canvas_background" fill="none"/>
 </g>

 <g>
  <title>Layer 1</title>
  <path fill-rule="evenodd" clip-rule="evenodd" d="m338.56682,236.507297c90.67,-25.575 263.776,-161.2013 430.072,-74.017c84.845,44.482 69.278,46.769 115.844,131.128c41.619,75.399 114.749,37.385 159.079,111.298c55.28,92.193 82.14,249.245 2.35,325.261c-82.99,79.064 -310.72,4.272 -425.058,7.417c-78.586,2.162 -238.347,35.824 -316.731,29.081c-108.619,-9.345 -251.831,54.548 -295.551,-46.562c-46.8319,-108.308 112.666,-151.413 130.636,-267.831c14.687,-95.144 -61.652,-72.369 -15.945,-156.688c44.415,-81.937 126.167,-33.944 215.304,-59.087z" fill="#F2F2F2" id="svg_1" stroke="null"/>
  <path d="m711.16482,581.452297c60.005,0 108.65,-48.665 108.65,-108.698c0,-60.032 -48.645,-108.697 -108.65,-108.697c-60.005,0 -108.649,48.665 -108.649,108.697c0,60.033 48.644,108.698 108.649,108.698z" fill="#DF8282" id="svg_2"/>
  <path d="m712.43582,586.905297c0,76.585 -83.775,48.534 -187.118,48.534c-103.342,0 -187.118,28.051 -187.118,-48.534c0,-76.584 83.776,-228.802 187.118,-228.802c103.343,0 187.118,152.218 187.118,228.802z" fill="#70A8DD" id="svg_3"/>
  <path d="m899.03382,651.127297c-21.673,-3.674 -42.517,-6.828 -62.53,-9.465l7.911,-15.346c-2.667,-0.927 -14.388,7.861 -14.388,7.861l10.382,-44.547c-13.417,1.619 -20.239,47.104 -20.239,47.104l-14.991,-15.378l7.257,17.289c-52.647,-6.367 -105.617,-9.702 -158.647,-9.988l6.771,-13.136c-2.668,-0.927 -14.389,7.862 -14.389,7.862l10.383,-44.548c-13.417,1.619 -20.239,47.105 -20.239,47.105l-14.991,-15.378l7.687,18.312c-17.402,0.348 -33.285,1.092 -47.685,2.077l2.39,-4.635c-1.693,-0.588 -7.025,2.732 -10.7,5.239c-1.06,0.083 -2.095,0.168 -3.137,0.254l9.831,-42.179c-10.946,1.32 -17.501,31.829 -19.546,43.027c-1.44,0.135 -2.868,0.271 -4.27,0.409l-11.31,-11.603c9.474,-14.708 23.343,-26.315 23.343,-26.315c-17.769,5.287 -27.09,14.147 -31.96,22.407c-0.435,-42.22 6.582,-84.186 20.729,-123.966c0,0 -36.729,79.959 -32.042,133.631l0.502,8.529c-50.098,-5.043 -94.146,-7.01 -132.067,-7.092l6.772,-13.136c-2.668,-0.927 -14.39,7.862 -14.39,7.862l10.383,-44.548c-13.417,1.619 -20.239,47.105 -20.239,47.105l-14.991,-15.378l7.687,18.312c-30.486,0.504 -60.926,2.572 -91.2,6.198c6.849,-20.463 30.116,-39.924 30.116,-39.924c-17.769,5.288 -27.09,14.147 -31.96,22.407c-0.435,-42.22 6.582,-84.186 20.729,-123.966c0,0 -36.729,79.959 -32.042,133.631l0.561,9.531c-31.138,4.46 -46.792,9.101 -46.792,9.101l420.611,5.275c-7.335,-1.243 -14.572,-2.424 -21.712,-3.542l282.412,3.542zm-354.487,-29.608l5.117,12.19c-4.123,0.442 -8.087,0.897 -11.853,1.362c1.682,-4.776 3.944,-9.328 6.736,-13.552z" fill="#3F3D56" id="svg_4"/>
  <path d="m771.98382,639.918297c-0.227,-0.371 -5.584,-9.32 -7.441,-27.903c-1.704,-17.05 -0.609,-45.787 14.289,-85.874c28.222,-75.941 -6.504,-137.215 -6.859,-137.825l1.713,-0.995c0.09,0.155 9.051,15.777 14.344,40.654c6.994,32.98 4.447,67.272 -7.342,98.857c-28.174,75.812 -7.228,111.7 -7.014,112.054l-1.69,1.032z" fill="#3F3D56" id="svg_5"/>
  <path d="m760.94882,383.856297c7.109,0 12.871,-5.765 12.871,-12.876c0,-7.112 -5.762,-12.877 -12.871,-12.877c-7.108,0 -12.87,5.765 -12.87,12.877c0,7.111 5.762,12.876 12.87,12.876z" fill="#70A8DD" id="svg_6"/>
  <path d="m801.54082,431.400297c7.108,0 12.87,-5.765 12.87,-12.877c0,-7.111 -5.762,-12.876 -12.87,-12.876c-7.109,0 -12.871,5.765 -12.871,12.876c0,7.112 5.762,12.877 12.871,12.877z" fill="#3F3D56" id="svg_7"/>
  <path d="m773.81882,463.095297c7.108,0 12.871,-5.765 12.871,-12.876c0,-7.111 -5.763,-12.876 -12.871,-12.876c-7.108,0 -12.87,5.765 -12.87,12.876c0,7.111 5.762,12.876 12.87,12.876z" fill="#70A8DD" id="svg_8"/>
  <path d="m807.47882,489.837297c7.109,0 12.871,-5.765 12.871,-12.876c0,-7.111 -5.762,-12.876 -12.871,-12.876c-7.108,0 -12.87,5.765 -12.87,12.876c0,7.111 5.762,12.876 12.87,12.876z" fill="#70A8DD" id="svg_9"/>
  <path d="m763.91882,531.438297c7.108,0 12.87,-5.765 12.87,-12.876c0,-7.111 -5.762,-12.876 -12.87,-12.876c-7.108,0 -12.871,5.765 -12.871,12.876c0,7.111 5.763,12.876 12.871,12.876z" fill="#3F3D56" id="svg_10"/>
  <path d="m779.75582,640.392297c0,0 -12.871,-31.696 25.741,-55.467l-25.741,55.467z" fill="#3F3D56" id="svg_11"/>
  <path d="m763.92782,639.818297c0,0 -5.857,-33.706 -51.193,-33.417l51.193,33.417z" fill="#3F3D56" id="svg_12"/>
  <path d="m555.78982,90.211297c-14.117,-23.8654 -42.049,-24.9777 -42.049,-24.9777c0,0 -27.217,-3.482 -44.676,32.8654c-16.274,33.8783 -38.734,66.5893 -3.616,74.5203l6.343,-19.752l3.928,21.222c5.001,0.36 10.017,0.446 15.026,0.257c37.608,-1.215 73.425,0.356 72.272,-13.146c-1.533,-17.948 6.357,-48.026 -7.228,-70.989z" fill="#2F2E41" id="svg_13"/>
  <path d="m454.03382,282.826297l-2.971,53.486l87.125,8.916l2.97,-55.468l-29.701,-18.818l-57.423,11.884z" fill="#E9A7A7" id="svg_14"/>
  <path d="m688.17882,400.199297c-2.613,-25.268 -106.338,-36.738 -131.265,-39.133l-9.321,-5.439l-2.97,-31.696c0,0 -92.074,-7.924 -99.005,-8.914c-6.93,-0.991 -12.87,11.886 -12.87,14.857c0,2.148 -1.295,17.484 -6.497,26.573c-11.233,9.031 -45.48,37.444 -45.48,48.209c0,12.876 27.226,174.82 27.226,174.82l2.97,33.677l27.721,4.952l-1.98,-104.991c0,0 9.9,-60.42 -3.96,-77.258l0,-6.933c0,0 40.653,-10.597 54.981,-22.134c4.152,-0.893 15.819,-3.091 22.263,-1.179c0.883,0.52 1.902,1.055 3.035,1.599c0.145,0.131 0.282,0.27 0.409,0.418c0,0 0.041,-0.062 0.112,-0.171c18.535,8.679 66.082,19.627 85.527,16.514c14.998,-2.29 30.33,0.499 43.562,7.924c-10.89,13.867 -2.97,53.486 -2.97,53.486l0.99,85.182l13.861,16.838l18.81,0l0,-46.552c0,0 17.821,-111.925 14.851,-140.649z" fill="#2F2E41" id="svg_15"/>
  <path d="m485.21982,143.664297c0,0 4.95,21.79 -1.98,23.771c-5.483,1.818 -10.786,4.139 -15.841,6.934l-7.92,25.752l0,25.753l96.034,10.895l2.97,-8.914l0,-12.876l-10.89,-19.81l-4.951,-4.953c0,0 -21.78,-23.771 -16.83,-46.552l-40.592,0z" fill="#E9A7A7" id="svg_16"/>
  <path d="m505.01982,155.549297c18.044,0 32.672,-14.634 32.672,-32.686c0,-18.052 -14.628,-32.6856 -32.672,-32.6856c-18.044,0 -32.671,14.6336 -32.671,32.6856c0,18.052 14.627,32.686 32.671,32.686z" fill="#FFB8B8" id="svg_17"/>
  <path d="m570.85782,222.406297c0,0 2.97,34.667 0,50.515c-2.971,15.848 -1.98,39.62 -1.98,39.62l-21.781,-3.962l0,-53.487l4.95,-28.724l18.811,-3.962z" fill="#FFB8B8" id="svg_18"/>
  <path d="m517.16282,85.559597c11.153,0 20.195,-9.0459 20.195,-20.2047c0,-11.1588 -9.042,-20.2047 -20.195,-20.2047c-11.154,0 -20.196,9.0459 -20.196,20.2047c0,11.1588 9.042,20.2047 20.196,20.2047z" fill="#2F2E41" id="svg_19"/>
  <path d="m494.84282,60.037097c0,-4.9901 1.847,-9.8035 5.183,-13.5129c3.336,-3.7095 7.926,-6.0527 12.887,-6.5782c-2.817,-0.3 -5.665,-0.004 -8.36,0.8689c-2.695,0.873 -5.176,2.3032 -7.282,4.198c-2.106,1.8947 -3.791,4.2115 -4.944,6.7999c-1.153,2.5885 -1.749,5.3906 -1.749,8.2244c0,2.8338 0.596,5.6359 1.749,8.2243c1.153,2.5884 2.838,4.9052 4.944,6.8c2.106,1.8947 4.587,3.325 7.282,4.1979c2.695,0.8729 5.543,1.1689 8.36,0.8689c-4.961,-0.5255 -9.551,-2.8686 -12.887,-6.5781c-3.336,-3.7095 -5.183,-8.523 -5.183,-13.5131z" fill="#2F2E41" id="svg_20"/>
  <path d="m549.55082,87.911497l-27.595,-14.4617l-38.106,5.9164l-7.885,34.8371l19.626,-0.756l5.483,-12.798l0,12.587l9.056,-0.348l5.256,-20.3767l3.285,21.6917l32.193,-0.657l-1.313,-25.6348z" fill="#2F2E41" id="svg_21"/>
  <path d="m569.86882,345.228297l-120.785,0l0,120.839l120.785,0l0,-120.839z" fill="#F2F2F2" id="svg_22"/>
  <path d="m429.27982,205.570297l-17.821,73.296c0,0 -6.93,15.848 8.911,25.752c15.841,9.905 51.482,22.782 51.482,22.782c0,0 31.682,43.581 35.642,25.752c3.96,-17.829 -23.761,-40.61 -23.761,-40.61l-48.513,-30.705l18.811,-51.505l-24.751,-24.762z" fill="#FFB8B8" id="svg_23"/>
  <path d="m557.98582,297.684297c0,0 14.85,-1.981 13.86,14.857c-0.99,16.838 -20.791,18.819 -20.791,18.819c0,0 -8.91,37.638 -21.781,30.705c-12.87,-6.933 6.931,-44.572 6.931,-44.572l16.831,-12.876l4.95,-6.933z" fill="#FFB8B8" id="svg_24"/>
  <path d="m462.44682,199.131297l15.841,-32.686l-31.681,10.895c0,0 -17.821,8.914 -18.811,29.714c-0.99,20.801 22.771,31.696 22.771,31.696c0,0 3.96,29.715 1.98,33.676c-1.98,3.962 0,19.81 0,19.81c0,0 38.117,-10.4 56.927,2.476c18.811,12.877 34.157,5.448 34.157,5.448c0,0 -0.99,-24.762 6.93,-28.724c7.921,-3.962 14.851,-22.781 7.921,-34.667c0,0 15.84,1.981 14.85,-12.876c-0.99,-14.858 -8.91,-27.734 -21.781,-33.677c-12.87,-5.943 -14.293,-6.892 -14.293,-6.892l18.254,33.635l0,8.915c0,0 -32.314,-20.635 -64.285,-22.355c-10.43,-0.477 -20.672,2.896 -28.779,9.478l-0.001,0l0,-13.866z" fill="#2F2E41" id="svg_25"/>
  <path d="m437.14782,579.891297c0,0 14.049,6.615 18.181,9.095c4.132,2.48 20.66,-2.48 17.354,12.401c-3.305,14.882 -17.354,28.937 -17.354,28.937c0,0 -6.611,7.441 -6.611,12.402c0,4.961 -16.528,42.992 -36.362,41.339c-19.833,-1.654 -16.528,-21.497 -16.528,-21.497l4.132,-21.496c0,0 8.264,-36.377 9.917,-35.551c1.653,0.827 5.785,6.614 5.785,6.614c0,0 20.66,-8.267 21.486,-32.244z" fill="#3F3D56" id="svg_26"/>
  <path d="m643.18682,555.129297c0,0 -14.049,6.614 -18.181,9.094c-4.132,2.481 -20.66,-2.48 -17.354,12.402c3.306,14.882 17.354,28.937 17.354,28.937c0,0 6.612,7.441 6.612,12.401c0,4.961 16.528,42.992 36.361,41.339c19.834,-1.654 16.528,-21.496 16.528,-21.496l-4.132,-21.496c0,0 -8.264,-36.378 -9.917,-35.551c-1.652,0.826 -5.784,6.614 -5.784,6.614c0,0 -20.66,-8.268 -21.487,-32.244z" fill="#3F3D56" id="svg_27"/>
  <path d="m734.98482,41.409597l-129.101,0c0,0 22.177,-40.8055 46.234,-41.40131c24.056,-0.59344 36.704,30.88491 36.704,30.88491c0,0 37.424,-28.95094 46.163,10.5164z" fill="#F2F2F2" id="svg_28"/>
  <path d="m796.23882,262.713297l-103.524,0c0,0 17.783,-32.404 37.074,-32.877c19.291,-0.471 29.433,24.526 29.433,24.526c0,0 30.009,-22.99 37.017,8.351z" fill="white" id="svg_29"/>
  <path d="m370.34182,140.109297l-201,0c0,0 34.528,-62.0808 71.983,-62.9873c37.453,-0.9028 57.146,46.9883 57.146,46.9883c0,0 58.265,-44.046 71.871,15.999z" fill="#F2F2F2" id="svg_30"/>
  <path d="m487.77982,398.266297c0.932,0 1.665,0.133 2.198,0.4c0.532,0.247 0.932,0.59 1.199,1.027c0.285,0.438 0.466,0.952 0.542,1.542c0.076,0.571 0.114,1.18 0.114,1.827l0,16.898c0,0.666 -0.038,1.285 -0.114,1.856c-0.076,0.571 -0.247,1.075 -0.514,1.513c-0.266,0.418 -0.666,0.751 -1.199,0.999c-0.533,0.247 -1.256,0.371 -2.169,0.371c-0.895,0 -1.608,-0.114 -2.141,-0.343c-0.533,-0.247 -0.942,-0.571 -1.228,-0.97c-0.285,-0.4 -0.475,-0.876 -0.57,-1.427c-0.077,-0.552 -0.115,-1.142 -0.115,-1.77l0,-5.081l-9.762,0c-1.18,0 -2.151,-0.095 -2.912,-0.286c-0.761,-0.19 -1.37,-0.437 -1.827,-0.742c-0.437,-0.323 -0.751,-0.695 -0.942,-1.113c-0.171,-0.419 -0.257,-0.847 -0.257,-1.285c0,-0.228 0.019,-0.456 0.058,-0.685c0.057,-0.228 0.114,-0.457 0.171,-0.685l5.766,-20.039c0.19,-0.704 0.371,-1.389 0.542,-2.055c0.191,-0.666 0.438,-1.256 0.742,-1.77c0.324,-0.514 0.762,-0.923 1.314,-1.227c0.551,-0.324 1.303,-0.485 2.255,-0.485c0.685,0 1.246,0.095 1.684,0.285c0.457,0.19 0.818,0.447 1.085,0.771c0.266,0.304 0.447,0.666 0.542,1.084c0.114,0.4 0.171,0.828 0.171,1.285c0,0.457 -0.038,0.923 -0.114,1.399c-0.076,0.456 -0.171,0.885 -0.285,1.284c-0.096,0.4 -0.2,0.761 -0.314,1.085c-0.096,0.304 -0.162,0.533 -0.2,0.685c0,0 -0.057,0.209 -0.172,0.628c-0.114,0.4 -0.266,0.933 -0.456,1.599c-0.191,0.647 -0.4,1.398 -0.628,2.255c-0.229,0.837 -0.467,1.693 -0.714,2.569c-0.59,2.055 -1.246,4.386 -1.97,6.993l0.229,0.229l5.994,0l0,-3.883c0,-0.647 0.038,-1.255 0.115,-1.826c0.076,-0.571 0.247,-1.066 0.513,-1.485c0.267,-0.437 0.666,-0.78 1.199,-1.027c0.533,-0.267 1.256,-0.4 2.17,-0.4z" fill="#616161" id="svg_31"/>
  <path d="m496.87582,396.154297c0,-1.846 0.257,-3.416 0.771,-4.71c0.533,-1.313 1.208,-2.398 2.026,-3.254c0.819,-0.857 1.723,-1.532 2.712,-2.027c0.99,-0.495 1.951,-0.866 2.883,-1.113c0.952,-0.248 1.799,-0.4 2.541,-0.457c0.761,-0.057 1.322,-0.086 1.684,-0.086l0.971,0c0.361,0 0.923,0.029 1.684,0.086c0.761,0.057 1.598,0.209 2.512,0.457c0.932,0.247 1.884,0.618 2.854,1.113c0.99,0.495 1.884,1.17 2.684,2.027c0.818,0.856 1.484,1.941 1.998,3.254c0.513,1.294 0.77,2.864 0.77,4.71l0,16.841c0,1.903 -0.257,3.521 -0.77,4.853c-0.514,1.332 -1.18,2.445 -1.998,3.34c-0.8,0.875 -1.694,1.56 -2.684,2.055c-0.97,0.495 -1.922,0.875 -2.854,1.142c-0.914,0.247 -1.751,0.399 -2.512,0.457c-0.761,0.057 -1.323,0.085 -1.684,0.085l-0.971,0c-0.362,0 -0.923,-0.028 -1.684,-0.085c-0.742,-0.058 -1.589,-0.21 -2.541,-0.457c-0.932,-0.267 -1.893,-0.647 -2.883,-1.142c-0.989,-0.495 -1.893,-1.18 -2.712,-2.055c-0.818,-0.895 -1.493,-2.008 -2.026,-3.34c-0.514,-1.332 -0.771,-2.95 -0.771,-4.853l0,-16.841zm9.363,18.326c0.057,0.666 0.238,1.256 0.542,1.769c0.248,0.438 0.619,0.847 1.114,1.228c0.513,0.361 1.217,0.542 2.112,0.542c0.875,0 1.56,-0.181 2.055,-0.542c0.495,-0.381 0.866,-0.79 1.113,-1.228c0.286,-0.513 0.467,-1.103 0.543,-1.769l0,-19.297c-0.076,-0.666 -0.257,-1.256 -0.543,-1.77c-0.247,-0.437 -0.618,-0.837 -1.113,-1.199c-0.495,-0.38 -1.18,-0.571 -2.055,-0.571c-0.895,0 -1.599,0.191 -2.112,0.571c-0.495,0.362 -0.866,0.762 -1.114,1.199c-0.304,0.514 -0.485,1.104 -0.542,1.77l0,19.297z" fill="#616161" id="svg_32"/>
  <path d="m547.07782,398.266297c0.932,0 1.665,0.133 2.198,0.4c0.532,0.247 0.932,0.59 1.198,1.027c0.286,0.438 0.467,0.952 0.543,1.542c0.076,0.571 0.114,1.18 0.114,1.827l0,16.898c0,0.666 -0.038,1.285 -0.114,1.856c-0.076,0.571 -0.248,1.075 -0.514,1.513c-0.266,0.418 -0.666,0.751 -1.199,0.999c-0.533,0.247 -1.256,0.371 -2.169,0.371c-0.895,0 -1.608,-0.114 -2.141,-0.343c-0.533,-0.247 -0.942,-0.571 -1.228,-0.97c-0.285,-0.4 -0.475,-0.876 -0.571,-1.427c-0.076,-0.552 -0.114,-1.142 -0.114,-1.77l0,-5.081l-9.762,0c-1.18,0 -2.151,-0.095 -2.912,-0.286c-0.761,-0.19 -1.37,-0.437 -1.827,-0.742c-0.437,-0.323 -0.751,-0.695 -0.942,-1.113c-0.171,-0.419 -0.257,-0.847 -0.257,-1.285c0,-0.228 0.019,-0.456 0.057,-0.685c0.058,-0.228 0.115,-0.457 0.172,-0.685l5.766,-20.039c0.19,-0.704 0.371,-1.389 0.542,-2.055c0.191,-0.666 0.438,-1.256 0.742,-1.77c0.324,-0.514 0.762,-0.923 1.314,-1.227c0.551,-0.324 1.303,-0.485 2.255,-0.485c0.685,0 1.246,0.095 1.684,0.285c0.456,0.19 0.818,0.447 1.084,0.771c0.267,0.304 0.448,0.666 0.543,1.084c0.114,0.4 0.171,0.828 0.171,1.285c0,0.457 -0.038,0.923 -0.114,1.399c-0.076,0.456 -0.171,0.885 -0.286,1.284c-0.095,0.4 -0.199,0.761 -0.314,1.085c-0.095,0.304 -0.161,0.533 -0.199,0.685c0,0 -0.057,0.209 -0.172,0.628c-0.114,0.4 -0.266,0.933 -0.456,1.599c-0.191,0.647 -0.4,1.398 -0.628,2.255c-0.229,0.837 -0.467,1.693 -0.714,2.569c-0.59,2.055 -1.246,4.386 -1.97,6.993l0.229,0.229l5.994,0l0,-3.883c0,-0.647 0.038,-1.255 0.114,-1.826c0.077,-0.571 0.248,-1.066 0.514,-1.485c0.267,-0.437 0.666,-0.78 1.199,-1.027c0.533,-0.267 1.256,-0.4 2.17,-0.4z" fill="#616161" id="svg_33"/>
 </g>
</svg>