<svg width="795" height="674" viewBox="0 0 795 674" xmlns="http://www.w3.org/2000/svg" fill="none">

 <g>
  <title>Layer 1</title>
  <path id="svg_1" fill="#F2F2F2" d="m334.21053,162.06781c78.998,-22.03 164.324,-78.5328 234.093,-52.439c70.559,26.39 50.043,103.454 85.821,159.124c31.978,49.756 97.102,79.385 112.479,135.39c19.847,72.281 58.172,167.207 -13.975,223.358c-75.041,58.402 -188.4,2.78 -286.588,10.564c-67.487,5.349 -130.424,28.571 -197.3,27.792c-92.671,-1.079 -231.141,34.159 -263.6549,-33.159c-34.8282,-72.111 119.8789,-139.901 141.0119,-220.77c17.271,-66.092 -78.602,-114.544 -35.266,-174.723c42.111,-58.479 145.716,-53.479 223.379,-75.137z" clip-rule="evenodd" fill-rule="evenodd"/>
  <path id="svg_2" fill="#DF8282" d="m534.73953,509.30781c52.24,0 94.588,-42.368 94.588,-94.631c0,-52.262 -42.348,-94.63 -94.588,-94.63c-52.239,0 -94.588,42.368 -94.588,94.63c0,52.263 42.349,94.631 94.588,94.631z"/>
  <path id="svg_3" fill="#70A8DD" d="m535.84653,514.05481c0,66.673 -72.934,42.253 -162.902,42.253c-89.968,0 -162.901,24.42 -162.901,-42.253c0,-66.672 72.933,-199.191 162.901,-199.191c89.968,0 162.902,132.519 162.902,199.191z"/>
  <path id="svg_4" fill="#3F3D56" d="m698.29553,569.96481c-18.869,-3.198 -37.015,-5.945 -54.438,-8.24l6.888,-13.36c-2.323,-0.807 -12.527,6.844 -12.527,6.844l9.039,-38.782c-11.681,1.409 -17.62,41.008 -17.62,41.008l-13.051,-13.388l6.318,15.052c-45.834,-5.543 -91.948,-8.447 -138.115,-8.696l5.895,-11.435c-2.323,-0.807 -12.527,6.844 -12.527,6.844l9.039,-38.783c-11.681,1.41 -17.62,41.009 -17.62,41.009l-13.051,-13.388l6.692,15.942c-15.149,0.303 -28.977,0.95 -41.513,1.808l2.08,-4.035c-1.473,-0.512 -6.115,2.378 -9.315,4.561c-0.922,0.072 -1.824,0.147 -2.731,0.221l8.559,-36.72c-9.529,1.15 -15.236,27.71 -17.016,37.459c-1.254,0.117 -2.497,0.235 -3.717,0.356l-9.847,-10.101c8.248,-12.805 20.322,-22.91 20.322,-22.91c-15.469,4.603 -23.584,12.316 -27.824,19.507c-0.379,-36.756 5.73,-73.291 18.046,-107.923c0,0 -31.975,69.612 -27.895,116.337l0.437,7.426c-43.614,-4.391 -81.962,-6.104 -114.975,-6.175l5.896,-11.435c-2.323,-0.807 -12.527,6.844 -12.527,6.844l9.039,-38.783c-11.681,1.41 -17.62,41.009 -17.62,41.009l-13.051,-13.388l6.692,15.942c-26.541,0.439 -53.041,2.239 -79.397,5.396c5.963,-17.814 26.219,-34.757 26.219,-34.757c-15.47,4.603 -23.584,12.316 -27.824,19.507c-0.379,-36.756 5.73,-73.291 18.046,-107.923c0,0 -31.975,69.612 -27.895,116.338l0.488,8.297c-27.108,3.883 -40.736,7.923 -40.736,7.923l366.176,4.592c-6.386,-1.082 -12.686,-2.11 -18.902,-3.083l245.863,3.083zm-308.61,-25.776l4.455,10.613c-3.589,0.384 -7.041,0.78 -10.32,1.185c1.465,-4.158 3.434,-8.12 5.865,-11.798z"/>
  <path id="svg_5" fill="#3F3D56" d="m587.68753,560.20681c-0.198,-0.324 -4.861,-8.115 -6.478,-24.293c-1.483,-14.843 -0.53,-39.861 12.439,-74.76c24.57,-66.113 -5.662,-119.457 -5.971,-119.988l1.492,-0.866c0.078,0.135 7.879,13.735 12.487,35.392c6.089,28.713 3.872,58.567 -6.392,86.063c-24.527,66.001 -6.292,97.245 -6.105,97.553l-1.472,0.899z"/>
  <path id="svg_6" fill="#70A8DD" d="m578.08153,337.28381c6.189,0 11.205,-5.019 11.205,-11.21c0,-6.191 -5.016,-11.21 -11.205,-11.21c-6.188,0 -11.205,5.019 -11.205,11.21c0,6.191 5.017,11.21 11.205,11.21z"/>
  <path id="svg_7" fill="#3F3D56" d="m613.41853,378.67381c6.188,0 11.205,-5.019 11.205,-11.21c0,-6.191 -5.017,-11.209 -11.205,-11.209c-6.188,0 -11.205,5.018 -11.205,11.209c0,6.191 5.017,11.21 11.205,11.21z"/>
  <path id="svg_8" fill="#70A8DD" d="m589.28553,406.26781c6.188,0 11.205,-5.019 11.205,-11.21c0,-6.191 -5.017,-11.21 -11.205,-11.21c-6.188,0 -11.205,5.019 -11.205,11.21c0,6.191 5.017,11.21 11.205,11.21z"/>
  <path id="svg_9" fill="#70A8DD" d="m618.58953,429.54881c6.189,0 11.205,-5.018 11.205,-11.209c0,-6.191 -5.016,-11.21 -11.205,-11.21c-6.188,0 -11.204,5.019 -11.204,11.21c0,6.191 5.016,11.209 11.204,11.209z"/>
  <path id="svg_10" fill="#3F3D56" d="m580.66653,465.76681c6.188,0 11.205,-5.019 11.205,-11.21c0,-6.191 -5.017,-11.21 -11.205,-11.21c-6.188,0 -11.205,5.019 -11.205,11.21c0,6.191 5.017,11.21 11.205,11.21z"/>
  <path id="svg_11" fill="#3F3D56" d="m594.45353,560.61881c0,0 -11.205,-27.593 22.409,-48.288l-22.409,48.288z"/>
  <path id="svg_12" fill="#3F3D56" d="m580.67453,560.11881c0,0 -5.1,-29.343 -44.569,-29.091l44.569,29.091z"/>
  <path id="svg_13" fill="#2F2E41" d="m399.47353,81.64211c-12.291,-20.7768 -36.607,-21.7451 -36.607,-21.7451c0,0 -23.695,-3.0315 -38.895,28.6119c-14.167,29.4939 -33.721,57.9719 -3.148,64.8759l5.523,-17.196l3.42,18.476c4.353,0.313 8.72,0.388 13.081,0.224c32.741,-1.058 63.922,0.309 62.918,-11.445c-1.335,-15.625 5.534,-41.81 -6.292,-61.8017z"/>
  <path id="svg_14" fill="#E9A7A7" d="m310.88753,249.32881l-2.586,46.564l75.849,7.762l2.585,-48.29l-25.857,-16.383l-49.991,10.347z"/>
  <path id="svg_15" fill="#2F2E41" d="m514.72953,351.51181c-2.275,-21.998 -92.576,-31.983 -114.277,-34.068l-8.115,-4.736l-2.586,-27.593c0,0 -80.158,-6.899 -86.191,-7.761c-6.033,-0.862 -11.205,10.348 -11.205,12.935c0,1.869 -1.127,15.22 -5.656,23.134c-9.779,7.861 -39.594,32.597 -39.594,41.969c0,11.21 23.702,152.196 23.702,152.196l2.586,29.318l24.134,4.311l-1.724,-91.403c0,0 8.619,-52.601 -3.448,-67.26l0,-6.036c0,0 35.392,-9.225 47.866,-19.269c3.614,-0.777 13.771,-2.691 19.381,-1.026c0.769,0.453 1.656,0.918 2.642,1.392c0.127,0.114 0.246,0.235 0.357,0.364c0,0 0.035,-0.054 0.097,-0.149c16.137,7.556 57.53,17.087 74.459,14.377c13.056,-1.994 26.404,0.434 37.924,6.898c-9.481,12.072 -2.586,46.564 -2.586,46.564l0.862,74.158l12.067,14.659l16.376,0l0,-40.528c0,0 15.515,-97.44 12.929,-122.446z"/>
  <path id="svg_16" fill="#E9A7A7" d="m338.03653,128.17581c0,0 4.309,18.971 -1.724,20.695c-4.773,1.583 -9.39,3.604 -13.791,6.037l-6.895,22.419l0,22.42l83.606,9.485l2.585,-7.76l0,-11.21l-9.481,-17.246l-4.309,-4.312c0,0 -18.962,-20.695 -14.653,-40.528l-35.338,0z"/>
  <path id="svg_17" fill="#FFB8B8" d="m355.27553,138.52381c15.708,0 28.443,-12.74 28.443,-28.455c0,-15.7161 -12.735,-28.4563 -28.443,-28.4563c-15.709,0 -28.444,12.7402 -28.444,28.4563c0,15.715 12.735,28.455 28.444,28.455z"/>
  <path id="svg_18" fill="#FFB8B8" d="m412.59053,196.72881c0,0 2.586,30.181 0,43.977c-2.585,13.797 -1.723,34.492 -1.723,34.492l-18.963,-3.449l0,-46.564l4.31,-25.007l16.376,-3.449z"/>
  <path id="svg_19" fill="#2F2E41" d="m365.84553,77.59181c9.71,0 17.582,-7.8753 17.582,-17.5899c0,-9.7146 -7.872,-17.5898 -17.582,-17.5898c-9.71,0 -17.582,7.8752 -17.582,17.5898c0,9.7146 7.872,17.5899 17.582,17.5899z"/>
  <path id="svg_20" fill="#2F2E41" d="m346.41253,55.37291c0.001,-4.3443 1.608,-8.5348 4.513,-11.7642c2.904,-3.2294 6.9,-5.2693 11.218,-5.7268c-2.452,-0.2612 -4.931,-0.0035 -7.277,0.7564c-2.346,0.76 -4.506,2.0052 -6.34,3.6547c-1.834,1.6495 -3.3,3.6665 -4.304,5.9199c-1.003,2.2534 -1.522,4.6929 -1.522,7.16c0,2.467 0.519,4.9065 1.522,7.1599c1.004,2.2534 2.47,4.2704 4.304,5.9199c1.834,1.6496 3.994,2.8947 6.34,3.6547c2.346,0.7599 4.825,1.0177 7.277,0.7564c-4.318,-0.4574 -8.314,-2.4973 -11.218,-5.7268c-2.905,-3.2294 -4.512,-7.4199 -4.513,-11.7641z"/>
  <path id="svg_21" fill="#2F2E41" d="m394.04153,79.63961l-24.023,-12.5901l-33.175,5.1507l-6.864,30.3286l17.086,-0.658l4.773,-11.1421l0,10.9581l7.884,-0.303l4.576,-17.7395l2.86,18.8845l28.027,-0.572l-1.144,-22.3172z"/>
  <path id="svg_22" fill="#F2F2F2" d="m411.73053,303.65381l-105.154,0l0,105.201l105.154,0l0,-105.201z"/>
  <path id="svg_23" fill="#FFB8B8" d="m289.33553,182.06981l-15.514,63.81c0,0 -6.034,13.797 7.757,22.42c13.791,8.623 44.819,19.833 44.819,19.833c0,0 27.582,37.941 31.029,22.42c3.448,-15.522 -20.686,-35.354 -20.686,-35.354l-42.233,-26.732l16.376,-44.839l-21.548,-21.558z"/>
  <path id="svg_24" fill="#FFB8B8" d="m401.38453,262.26381c0,0 12.929,-1.725 12.067,12.934c-0.862,14.659 -18.1,16.384 -18.1,16.384c0,0 -7.757,32.767 -18.962,26.731c-11.205,-6.036 6.033,-38.803 6.033,-38.803l14.653,-11.21l4.309,-6.036z"/>
  <path id="svg_25" fill="#2F2E41" d="m318.21153,176.46481l13.79,-28.456l-27.581,9.486c0,0 -15.515,7.76 -16.377,25.868c-0.861,18.109 19.825,27.594 19.825,27.594c0,0 3.447,25.869 1.723,29.318c-1.724,3.449 0,17.246 0,17.246c0,0 33.184,-9.054 49.56,2.156c16.377,11.21 29.736,4.742 29.736,4.742c0,0 -0.861,-21.557 6.034,-25.006c6.895,-3.449 12.929,-19.833 6.895,-30.181c0,0 13.791,1.725 12.929,-11.209c-0.862,-12.935 -7.757,-24.145 -18.962,-29.319c-11.205,-5.173 -12.444,-6 -12.444,-6l15.891,29.283l0,7.76c0,0 -28.131,-17.964 -55.964,-19.461c-9.08,-0.416 -17.997,2.52 -25.055,8.251l0,0l0,-12.072z"/>
  <path id="svg_26" fill="#3F3D56" d="m296.18653,507.94881c0,0 12.23,5.758 15.827,7.917c3.598,2.159 17.987,-2.159 15.109,10.797c-2.878,12.955 -15.109,25.192 -15.109,25.192c0,0 -5.755,6.478 -5.755,10.796c0,4.319 -14.389,37.428 -31.656,35.989c-17.267,-1.44 -14.389,-18.714 -14.389,-18.714l3.597,-18.714c0,0 7.195,-31.67 8.634,-30.951c1.439,0.72 5.036,5.759 5.036,5.759c0,0 17.986,-7.198 18.706,-28.071z"/>
  <path id="svg_27" fill="#3F3D56" d="m475.56053,486.39081c0,0 -12.231,5.758 -15.828,7.917c-3.598,2.16 -17.987,-2.159 -15.109,10.797c2.878,12.956 15.109,25.192 15.109,25.192c0,0 5.755,6.478 5.755,10.796c0,4.319 14.389,37.428 31.656,35.989c17.267,-1.44 14.389,-18.714 14.389,-18.714l-3.597,-18.714c0,0 -7.195,-31.67 -8.634,-30.95c-1.439,0.719 -5.036,5.758 -5.036,5.758c0,0 -17.986,-7.198 -18.705,-28.071z"/>
  <path id="svg_28" fill="#F2F2F2" d="m241.65453,116.50281l-201,0c0,0 34.528,-62.0809 71.983,-62.9874c37.453,-0.9028 57.146,46.9874 57.146,46.9874c0,0 58.265,-44.0451 71.871,16z"/>
  <path id="svg_29" fill="#F2F2F2" d="m550.58353,36.05041l-112.393,0c0,0 19.307,-35.5245 40.251,-36.0432c20.942,-0.51663 31.954,26.8878 31.954,26.8878c0,0 32.58,-25.20412 40.188,9.1554z"/>
  <path id="svg_30" fill="white" d="m592.80453,231.81881l-90.126,0c0,0 15.482,-28.21 32.277,-28.622c16.793,-0.41 25.623,21.352 25.623,21.352c0,0 26.126,-20.015 32.226,7.27z"/>
  <path id="svg_31" fill="#616161" d="m340.26453,349.82781c0.812,0 1.449,0.116 1.913,0.348c0.464,0.216 0.812,0.514 1.044,0.895c0.249,0.381 0.406,0.828 0.472,1.342c0.067,0.497 0.1,1.027 0.1,1.59l0,14.712c0,0.58 -0.033,1.118 -0.1,1.615c-0.066,0.497 -0.215,0.936 -0.447,1.317c-0.232,0.365 -0.58,0.655 -1.044,0.87c-0.464,0.216 -1.093,0.323 -1.888,0.323c-0.779,0 -1.4,-0.099 -1.864,-0.298c-0.464,-0.215 -0.82,-0.497 -1.069,-0.845c-0.248,-0.348 -0.414,-0.762 -0.497,-1.242c-0.066,-0.481 -0.099,-0.995 -0.099,-1.541l0,-4.424l-8.499,0c-1.027,0 -1.872,-0.083 -2.535,-0.248c-0.663,-0.166 -1.193,-0.381 -1.591,-0.646c-0.381,-0.282 -0.654,-0.605 -0.82,-0.97c-0.149,-0.364 -0.223,-0.737 -0.223,-1.118c0,-0.199 0.016,-0.397 0.049,-0.596c0.05,-0.199 0.1,-0.398 0.15,-0.597l5.019,-17.445c0.166,-0.613 0.323,-1.209 0.473,-1.789c0.165,-0.58 0.381,-1.094 0.646,-1.541c0.281,-0.447 0.662,-0.804 1.143,-1.069c0.48,-0.281 1.135,-0.422 1.963,-0.422c0.596,0 1.085,0.083 1.466,0.248c0.398,0.166 0.713,0.39 0.945,0.671c0.232,0.265 0.389,0.58 0.472,0.945c0.099,0.348 0.149,0.72 0.149,1.118c0,0.398 -0.033,0.804 -0.1,1.218c-0.066,0.397 -0.149,0.77 -0.248,1.118c-0.083,0.348 -0.174,0.663 -0.273,0.944c-0.083,0.265 -0.141,0.464 -0.174,0.597c0,0 -0.05,0.182 -0.149,0.546c-0.1,0.348 -0.232,0.812 -0.398,1.392c-0.166,0.563 -0.348,1.218 -0.547,1.963c-0.199,0.729 -0.406,1.475 -0.621,2.237c-0.514,1.789 -1.085,3.819 -1.715,6.088l0.199,0.199l5.219,0l0,-3.379c0,-0.564 0.033,-1.094 0.099,-1.591c0.066,-0.497 0.216,-0.928 0.447,-1.292c0.232,-0.381 0.58,-0.679 1.044,-0.895c0.464,-0.232 1.094,-0.348 1.889,-0.348z"/>
  <path id="svg_32" fill="#616161" d="m348.18353,347.98881c0,-1.607 0.224,-2.974 0.671,-4.1c0.464,-1.143 1.052,-2.088 1.764,-2.833c0.713,-0.746 1.5,-1.334 2.361,-1.765c0.862,-0.43 1.698,-0.753 2.51,-0.969c0.829,-0.215 1.566,-0.348 2.212,-0.397c0.663,-0.05 1.151,-0.075 1.466,-0.075l0.845,0c0.315,0 0.804,0.025 1.466,0.075c0.663,0.049 1.392,0.182 2.187,0.397c0.812,0.216 1.64,0.539 2.485,0.969c0.862,0.431 1.64,1.019 2.336,1.765c0.713,0.745 1.292,1.69 1.74,2.833c0.447,1.126 0.671,2.493 0.671,4.1l0,14.662c0,1.657 -0.224,3.065 -0.671,4.225c-0.448,1.16 -1.027,2.129 -1.74,2.908c-0.696,0.762 -1.474,1.358 -2.336,1.789c-0.845,0.431 -1.673,0.762 -2.485,0.994c-0.795,0.215 -1.524,0.348 -2.187,0.397c-0.662,0.05 -1.151,0.075 -1.466,0.075l-0.845,0c-0.315,0 -0.803,-0.025 -1.466,-0.075c-0.646,-0.049 -1.383,-0.182 -2.212,-0.397c-0.812,-0.232 -1.648,-0.563 -2.51,-0.994c-0.861,-0.431 -1.648,-1.027 -2.361,-1.789c-0.712,-0.779 -1.3,-1.748 -1.764,-2.908c-0.447,-1.16 -0.671,-2.568 -0.671,-4.225l0,-14.662zm8.151,15.955c0.05,0.579 0.207,1.093 0.472,1.54c0.216,0.381 0.539,0.738 0.969,1.069c0.448,0.315 1.061,0.472 1.839,0.472c0.763,0 1.359,-0.157 1.79,-0.472c0.43,-0.331 0.754,-0.688 0.969,-1.069c0.248,-0.447 0.406,-0.961 0.472,-1.54l0,-16.8c-0.066,-0.579 -0.224,-1.093 -0.472,-1.54c-0.215,-0.381 -0.539,-0.729 -0.969,-1.044c-0.431,-0.331 -1.027,-0.497 -1.79,-0.497c-0.778,0 -1.391,0.166 -1.839,0.497c-0.43,0.315 -0.753,0.663 -0.969,1.044c-0.265,0.447 -0.422,0.961 -0.472,1.54l0,16.8z"/>
  <path id="svg_33" fill="#616161" d="m391.88853,349.82781c0.811,0 1.449,0.116 1.913,0.348c0.464,0.216 0.812,0.514 1.044,0.895c0.248,0.381 0.406,0.828 0.472,1.342c0.066,0.497 0.099,1.027 0.099,1.59l0,14.712c0,0.58 -0.033,1.118 -0.099,1.615c-0.066,0.497 -0.215,0.936 -0.447,1.317c-0.232,0.365 -0.58,0.655 -1.044,0.87c-0.464,0.216 -1.094,0.323 -1.889,0.323c-0.778,0 -1.4,-0.099 -1.864,-0.298c-0.463,-0.215 -0.82,-0.497 -1.068,-0.845c-0.249,-0.348 -0.414,-0.762 -0.497,-1.242c-0.066,-0.481 -0.1,-0.995 -0.1,-1.541l0,-4.424l-8.499,0c-1.027,0 -1.872,-0.083 -2.534,-0.248c-0.663,-0.166 -1.193,-0.381 -1.591,-0.646c-0.381,-0.282 -0.654,-0.605 -0.82,-0.97c-0.149,-0.364 -0.224,-0.737 -0.224,-1.118c0,-0.199 0.017,-0.397 0.05,-0.596c0.05,-0.199 0.1,-0.398 0.149,-0.597l5.02,-17.445c0.166,-0.613 0.323,-1.209 0.472,-1.789c0.166,-0.58 0.381,-1.094 0.646,-1.541c0.282,-0.447 0.663,-0.804 1.144,-1.069c0.48,-0.281 1.134,-0.422 1.963,-0.422c0.596,0 1.085,0.083 1.466,0.248c0.398,0.166 0.712,0.39 0.944,0.671c0.232,0.265 0.39,0.58 0.472,0.945c0.1,0.348 0.15,0.72 0.15,1.118c0,0.398 -0.034,0.804 -0.1,1.218c-0.066,0.397 -0.149,0.77 -0.248,1.118c-0.083,0.348 -0.174,0.663 -0.274,0.944c-0.083,0.265 -0.141,0.464 -0.174,0.597c0,0 -0.049,0.182 -0.149,0.546c-0.099,0.348 -0.232,0.812 -0.397,1.392c-0.166,0.563 -0.348,1.218 -0.547,1.963c-0.199,0.729 -0.406,1.475 -0.621,2.237c-0.514,1.789 -1.086,3.819 -1.715,6.088l0.199,0.199l5.218,0l0,-3.379c0,-0.564 0.034,-1.094 0.1,-1.591c0.066,-0.497 0.215,-0.928 0.447,-1.292c0.232,-0.381 0.58,-0.679 1.044,-0.895c0.464,-0.232 1.093,-0.348 1.889,-0.348z"/>
 </g>
</svg>