<svg width="282" height="287" viewBox="0 0 282 287" fill="none" xmlns="http://www.w3.org/2000/svg">
<path d="M14.3512 70H12.7522V60.9H14.3642L17.4712 65.151L20.4352 60.9H21.9432V70H20.3572V63.422L17.4842 67.465H17.2502L14.3512 63.461V70ZM24.548 69.285C23.9673 68.7043 23.677 67.9677 23.677 67.075C23.677 66.1823 23.9673 65.45 24.548 64.878C25.1287 64.2973 25.9 64.007 26.862 64.007C27.8153 64.007 28.5823 64.2973 29.163 64.878C29.7523 65.45 30.047 66.1823 30.047 67.075C30.047 67.959 29.7523 68.6957 29.163 69.285C28.5737 69.857 27.8067 70.143 26.862 70.143C25.9 70.143 25.1287 69.857 24.548 69.285ZM25.731 65.879C25.4277 66.191 25.276 66.5897 25.276 67.075C25.276 67.5603 25.4233 67.9633 25.718 68.284C26.0213 68.596 26.4027 68.752 26.862 68.752C27.33 68.752 27.7113 68.596 28.006 68.284C28.3093 67.972 28.461 67.569 28.461 67.075C28.461 66.5897 28.3093 66.191 28.006 65.879C27.7027 65.567 27.3213 65.411 26.862 65.411C26.4113 65.411 26.0343 65.567 25.731 65.879Z" fill="#212121"/>
<path d="M57.5302 62.395H54.5792V60.9H62.0802V62.395H59.1292V70H57.5302V62.395ZM65.2218 64.15H66.7168V70H65.2218V69.285C64.7538 69.857 64.1298 70.143 63.3498 70.143C62.7258 70.143 62.2274 69.935 61.8548 69.519C61.4821 69.103 61.2958 68.505 61.2958 67.725V64.15H62.7908V67.413C62.7908 68.3057 63.1634 68.752 63.9088 68.752C64.4201 68.752 64.8578 68.5137 65.2218 68.037V64.15Z" fill="#212121"/>
<path d="M102.881 60.9H104.415L101.815 70H100.32L98.1233 63.422L95.9653 70H94.4573L91.7403 60.9H93.5343L95.3673 67.387L97.3953 60.9H98.9813L101.061 67.4L102.881 60.9ZM109.043 68.362L109.472 69.415C108.891 69.9003 108.146 70.143 107.236 70.143C106.3 70.143 105.537 69.8613 104.948 69.298C104.376 68.7433 104.09 68.0023 104.09 67.075C104.09 66.2083 104.371 65.4803 104.935 64.891C105.498 64.3017 106.248 64.007 107.184 64.007C107.955 64.007 108.609 64.2627 109.147 64.774C109.684 65.2853 109.953 65.9353 109.953 66.724C109.953 67.0707 109.922 67.3393 109.862 67.53H105.637C105.697 67.9547 105.884 68.2883 106.196 68.531C106.516 68.7737 106.915 68.895 107.392 68.895C108.042 68.895 108.592 68.7173 109.043 68.362ZM107.119 65.255C106.269 65.255 105.758 65.6797 105.585 66.529H108.458C108.466 66.1563 108.345 65.853 108.094 65.619C107.851 65.3763 107.526 65.255 107.119 65.255Z" fill="#212121"/>
<path d="M136.654 62.395H133.703V60.9H141.204V62.395H138.253V70H136.654V62.395ZM143.657 70H142.162V60.9H143.657V64.683C144.09 64.2583 144.649 64.046 145.334 64.046C146.937 64.046 147.739 64.8997 147.739 66.607V70H146.244V66.802C146.244 66.3687 146.131 66.035 145.906 65.801C145.681 65.567 145.36 65.45 144.944 65.45C144.441 65.45 144.012 65.6277 143.657 65.983V70Z" fill="#212121"/>
<path d="M178.223 70H176.624V60.9H181.824V62.395H178.223V64.969H181.434V66.464H178.223V70ZM184.368 70H182.873V64.15H184.368V64.722C184.689 64.2713 185.135 64.046 185.707 64.046C186.114 64.046 186.418 64.1197 186.617 64.267L186.084 65.671C185.833 65.5237 185.581 65.45 185.33 65.45C184.897 65.45 184.576 65.658 184.368 66.074V70Z" fill="#212121"/>
<path d="M219.312 67.582C219.312 67.3047 219.208 67.062 219 66.854C218.801 66.6373 218.55 66.464 218.246 66.334C217.943 66.1953 217.609 66.0393 217.245 65.866C216.89 65.684 216.561 65.4977 216.257 65.307C215.954 65.1077 215.698 64.8347 215.49 64.488C215.291 64.1327 215.191 63.7253 215.191 63.266C215.191 62.564 215.447 61.9703 215.958 61.485C216.487 60.9997 217.176 60.757 218.025 60.757C219.178 60.757 220.045 61.082 220.625 61.732L219.767 62.928C219.308 62.4773 218.771 62.252 218.155 62.252C217.765 62.252 217.453 62.343 217.219 62.525C216.994 62.707 216.881 62.9497 216.881 63.253C216.881 63.409 216.912 63.5563 216.972 63.695C217.033 63.825 217.098 63.9333 217.167 64.02C217.245 64.1067 217.367 64.202 217.531 64.306C217.705 64.41 217.839 64.488 217.934 64.54C218.038 64.5833 218.207 64.657 218.441 64.761C218.675 64.865 218.84 64.9387 218.935 64.982C219.317 65.1553 219.65 65.3373 219.936 65.528C220.257 65.7187 220.513 65.9917 220.703 66.347C220.903 66.7023 221.002 67.1097 221.002 67.569C221.002 68.3317 220.712 68.9513 220.131 69.428C219.551 69.9047 218.827 70.143 217.96 70.143C217.354 70.143 216.751 70.0173 216.153 69.766C215.581 69.506 215.191 69.155 214.983 68.713L215.893 67.621C216.136 67.9417 216.448 68.193 216.829 68.375C217.219 68.557 217.605 68.648 217.986 68.648C218.385 68.648 218.706 68.5527 218.948 68.362C219.191 68.1713 219.312 67.9113 219.312 67.582ZM222.871 65.658L222.494 64.566C223.127 64.1933 223.816 64.007 224.561 64.007C225.376 64.007 225.969 64.2063 226.342 64.605C226.715 65.0037 226.901 65.6147 226.901 66.438V70H225.601V69.324C225.254 69.8267 224.678 70.078 223.872 70.078C223.317 70.078 222.871 69.9177 222.533 69.597C222.204 69.2677 222.039 68.83 222.039 68.284C222.039 67.6773 222.234 67.2093 222.624 66.88C223.014 66.5507 223.53 66.386 224.171 66.386C224.7 66.386 225.142 66.5117 225.497 66.763C225.514 66.243 225.436 65.8617 225.263 65.619C225.098 65.3763 224.812 65.255 224.405 65.255C223.954 65.255 223.443 65.3893 222.871 65.658ZM224.366 68.817C224.869 68.817 225.246 68.6393 225.497 68.284V67.686C225.254 67.4953 224.912 67.4 224.47 67.4C224.193 67.4 223.967 67.465 223.794 67.595C223.621 67.725 223.534 67.9027 223.534 68.128C223.534 68.336 223.612 68.505 223.768 68.635C223.924 68.7563 224.123 68.817 224.366 68.817Z" fill="#212121"/>
<path d="M258.843 67.582C258.843 67.3047 258.739 67.062 258.531 66.854C258.331 66.6373 258.08 66.464 257.777 66.334C257.473 66.1953 257.14 66.0393 256.776 65.866C256.42 65.684 256.091 65.4977 255.788 65.307C255.484 65.1077 255.229 64.8347 255.021 64.488C254.821 64.1327 254.722 63.7253 254.722 63.266C254.722 62.564 254.977 61.9703 255.489 61.485C256.017 60.9997 256.706 60.757 257.556 60.757C258.708 60.757 259.575 61.082 260.156 61.732L259.298 62.928C258.838 62.4773 258.301 62.252 257.686 62.252C257.296 62.252 256.984 62.343 256.75 62.525C256.524 62.707 256.412 62.9497 256.412 63.253C256.412 63.409 256.442 63.5563 256.503 63.695C256.563 63.825 256.628 63.9333 256.698 64.02C256.776 64.1067 256.897 64.202 257.062 64.306C257.235 64.41 257.369 64.488 257.465 64.54C257.569 64.5833 257.738 64.657 257.972 64.761C258.206 64.865 258.37 64.9387 258.466 64.982C258.847 65.1553 259.181 65.3373 259.467 65.528C259.787 65.7187 260.043 65.9917 260.234 66.347C260.433 66.7023 260.533 67.1097 260.533 67.569C260.533 68.3317 260.242 68.9513 259.662 69.428C259.081 69.9047 258.357 70.143 257.491 70.143C256.884 70.143 256.282 70.0173 255.684 69.766C255.112 69.506 254.722 69.155 254.514 68.713L255.424 67.621C255.666 67.9417 255.978 68.193 256.36 68.375C256.75 68.557 257.135 68.648 257.517 68.648C257.915 68.648 258.236 68.5527 258.479 68.362C258.721 68.1713 258.843 67.9113 258.843 67.582ZM265.742 64.15H267.237V70H265.742V69.285C265.274 69.857 264.65 70.143 263.87 70.143C263.246 70.143 262.748 69.935 262.375 69.519C262.003 69.103 261.816 68.505 261.816 67.725V64.15H263.311V67.413C263.311 68.3057 263.684 68.752 264.429 68.752C264.941 68.752 265.378 68.5137 265.742 68.037V64.15Z" fill="#212121"/>
<path d="M19.4413 103.383L18.8953 102.538L21.0793 100.848H21.8073V110H20.7673V102.343L19.4413 103.383Z" fill="#212121"/>
<path d="M1 86V85.5H0.5V86H1ZM41 86H41.5V85.5H41V86ZM41 126V126.5H41.5V126H41ZM1 126H0.5V126.5H1V126ZM1 86.5H41V85.5H1V86.5ZM40.5 86V126H41.5V86H40.5ZM41 125.5H1V126.5H41V125.5ZM1.5 126V86H0.5V126H1.5Z" fill="#DFDFDF"/>
<path d="M63.7963 110H58.2453V109.155C59.424 108.002 60.2907 107.084 60.8453 106.399C61.8247 105.168 62.3143 104.137 62.3143 103.305C62.3143 102.872 62.18 102.521 61.9113 102.252C61.6513 101.975 61.2917 101.836 60.8323 101.836C60.4337 101.836 60.0827 101.966 59.7793 102.226C59.4847 102.477 59.294 102.833 59.2073 103.292L58.3233 102.928C58.4273 102.278 58.7177 101.762 59.1943 101.381C59.6797 100.991 60.256 100.796 60.9233 100.796C61.7207 100.796 62.336 101.026 62.7693 101.485C63.2027 101.944 63.4193 102.482 63.4193 103.097C63.4193 104.267 62.8603 105.511 61.7423 106.828C61.231 107.417 60.828 107.859 60.5333 108.154C60.2733 108.414 59.9613 108.704 59.5973 109.025H63.7963V110Z" fill="#212121"/>
<path d="M41 86V85.5H40.5V86H41ZM81 86H81.5V85.5H81V86ZM81 126V126.5H81.5V126H81ZM41 126H40.5V126.5H41V126ZM41 86.5H81V85.5H41V86.5ZM80.5 86V126H81.5V86H80.5ZM81 125.5H41V126.5H81V125.5ZM41.5 126V86H40.5V126H41.5Z" fill="#DFDFDF"/>
<path d="M100.91 110.13C100.269 110.13 99.7057 109.996 99.2203 109.727C98.7437 109.458 98.3883 109.073 98.1543 108.57L98.7523 107.829C98.9603 108.228 99.255 108.54 99.6363 108.765C100.018 108.982 100.429 109.09 100.871 109.09C101.417 109.09 101.851 108.938 102.171 108.635C102.501 108.332 102.665 107.937 102.665 107.452C102.665 106.967 102.492 106.581 102.145 106.295C101.807 106.009 101.361 105.866 100.806 105.866H100.091V104.826H100.741C101.166 104.826 101.53 104.679 101.833 104.384C102.154 104.089 102.314 103.712 102.314 103.253C102.314 102.802 102.18 102.451 101.911 102.2C101.651 101.94 101.292 101.81 100.832 101.81C100.009 101.81 99.385 102.187 98.9603 102.941L98.3753 102.226C98.5833 101.767 98.9083 101.411 99.3503 101.16C99.801 100.9 100.321 100.77 100.91 100.77C101.673 100.77 102.28 100.978 102.73 101.394C103.19 101.81 103.419 102.369 103.419 103.071C103.419 103.574 103.298 104.016 103.055 104.397C102.813 104.778 102.462 105.064 102.002 105.255V105.294C102.54 105.381 102.969 105.628 103.289 106.035C103.61 106.442 103.77 106.928 103.77 107.491C103.77 108.288 103.502 108.93 102.964 109.415C102.436 109.892 101.751 110.13 100.91 110.13Z" fill="#212121"/>
<path d="M81 86V85.5H80.5V86H81ZM121 86H121.5V85.5H121V86ZM121 126V126.5H121.5V126H121ZM81 126H80.5V126.5H81V126ZM81 86.5H121V85.5H81V86.5ZM120.5 86V126H121.5V86H120.5ZM121 125.5H81V126.5H121V125.5ZM81.5 126V86H80.5V126H81.5Z" fill="#DFDFDF"/>
<path d="M143.029 110H141.989V107.725H137.79V106.984L141.56 100.9H142.756L139.155 106.685H141.989V104.15H143.029V106.685H144.29V107.725H143.029V110Z" fill="#212121"/>
<path d="M121 86V85.5H120.5V86H121ZM161 86H161.5V85.5H161V86ZM161 126V126.5H161.5V126H161ZM121 126H120.5V126.5H121V126ZM121 86.5H161V85.5H121V86.5ZM160.5 86V126H161.5V86H160.5ZM161 125.5H121V126.5H161V125.5ZM121.5 126V86H120.5V126H121.5Z" fill="#DFDFDF"/>
<path d="M178.908 105.476L179.48 100.9H183.588V101.94H180.39L180.052 104.397C180.26 104.336 180.503 104.306 180.78 104.306C181.621 104.306 182.31 104.566 182.847 105.086C183.385 105.597 183.653 106.278 183.653 107.127C183.653 108.037 183.367 108.765 182.795 109.311C182.223 109.857 181.521 110.13 180.689 110.13C180.152 110.13 179.645 110.009 179.168 109.766C178.692 109.523 178.328 109.185 178.076 108.752L178.674 107.985C178.882 108.323 179.173 108.592 179.545 108.791C179.927 108.99 180.317 109.09 180.715 109.09C181.235 109.09 181.669 108.908 182.015 108.544C182.371 108.171 182.548 107.712 182.548 107.166C182.548 106.611 182.345 106.152 181.937 105.788C181.539 105.424 181.006 105.242 180.338 105.242C179.792 105.242 179.316 105.32 178.908 105.476Z" fill="#212121"/>
<path d="M161 86V85.5H160.5V86H161ZM201 86H201.5V85.5H201V86ZM201 126V126.5H201.5V126H201ZM161 126H160.5V126.5H161V126ZM161 86.5H201V85.5H161V86.5ZM200.5 86V126H201.5V86H200.5ZM201 125.5H161V126.5H201V125.5ZM161.5 126V86H160.5V126H161.5Z" fill="#DFDFDF"/>
<path d="M201 86H241V126H201V86Z" fill="#F5F5F5"/>
<path d="M217.933 106.776C217.933 105.996 218.063 105.246 218.323 104.527C218.592 103.808 218.947 103.197 219.389 102.694C220.299 101.663 221.287 101.021 222.353 100.77L222.782 101.563C221.924 101.78 221.149 102.243 220.455 102.954C219.788 103.647 219.355 104.531 219.155 105.606C219.589 104.8 220.304 104.397 221.3 104.397C222.054 104.397 222.674 104.657 223.159 105.177C223.653 105.697 223.9 106.369 223.9 107.192C223.9 108.041 223.619 108.748 223.055 109.311C222.501 109.857 221.846 110.13 221.092 110.13C220.113 110.13 219.342 109.809 218.778 109.168C218.215 108.509 217.933 107.712 217.933 106.776ZM219.038 106.776C219.038 107.426 219.216 107.976 219.571 108.427C219.918 108.869 220.421 109.09 221.079 109.09C221.565 109.09 221.972 108.912 222.301 108.557C222.631 108.184 222.795 107.755 222.795 107.27C222.795 106.707 222.631 106.252 222.301 105.905C221.981 105.55 221.53 105.372 220.949 105.372C220.49 105.372 220.087 105.506 219.74 105.775C219.402 106.044 219.168 106.377 219.038 106.776Z" fill="#212121"/>
<path d="M201 86V85.5H200.5V86H201ZM241 86H241.5V85.5H241V86ZM241 126V126.5H241.5V126H241ZM201 126H200.5V126.5H201V126ZM201 86.5H241V85.5H201V86.5ZM240.5 86V126H241.5V86H240.5ZM241 125.5H201V126.5H241V125.5ZM201.5 126V86H200.5V126H201.5Z" fill="#DFDFDF"/>
<path d="M262.561 101.94H258.362V100.9H263.822V101.576L260.468 110H259.324L262.561 101.94Z" fill="#212121"/>
<path d="M241 86V85.5H240.5V86H241ZM281 86H281.5V85.5H281V86ZM281 126V126.5H281.5V126H281ZM241 126H240.5V126.5H241V126ZM241 86.5H281V85.5H241V86.5ZM280.5 86V126H281.5V86H280.5ZM281 125.5H241V126.5H281V125.5ZM241.5 126V86H240.5V126H241.5Z" fill="#DFDFDF"/>
<path d="M1 126H41V166H1V126Z" fill="white"/>
<path d="M20.8453 144.8H21.1833C21.5733 144.8 21.9113 144.653 22.1973 144.358C22.492 144.063 22.6393 143.712 22.6393 143.305C22.6393 142.854 22.4833 142.495 22.1713 142.226C21.8593 141.949 21.465 141.81 20.9883 141.81C20.5203 141.81 20.1347 141.949 19.8313 142.226C19.528 142.503 19.3763 142.863 19.3763 143.305C19.3763 143.712 19.5193 144.063 19.8053 144.358C20.1 144.653 20.4467 144.8 20.8453 144.8ZM21.1703 145.84H20.8843C20.3903 145.84 19.9657 145.992 19.6103 146.295C19.2637 146.59 19.0903 146.975 19.0903 147.452C19.0903 147.929 19.268 148.323 19.6233 148.635C19.9873 148.938 20.4467 149.09 21.0013 149.09C21.582 149.09 22.0457 148.943 22.3923 148.648C22.7477 148.345 22.9253 147.946 22.9253 147.452C22.9167 146.967 22.7477 146.577 22.4183 146.282C22.089 145.987 21.673 145.84 21.1703 145.84ZM17.9853 147.647C17.9853 147.101 18.1413 146.62 18.4533 146.204C18.7653 145.779 19.1813 145.493 19.7013 145.346V145.307C19.2853 145.168 18.943 144.9 18.6743 144.501C18.4057 144.094 18.2713 143.643 18.2713 143.149C18.2713 142.447 18.5313 141.875 19.0513 141.433C19.5887 140.991 20.2387 140.77 21.0013 140.77C21.764 140.77 22.414 140.991 22.9513 141.433C23.48 141.875 23.7443 142.447 23.7443 143.149C23.7443 143.608 23.6057 144.037 23.3283 144.436C23.0597 144.826 22.7 145.112 22.2493 145.294V145.333C22.7693 145.42 23.194 145.671 23.5233 146.087C23.8613 146.494 24.0303 146.988 24.0303 147.569C24.0303 148.366 23.74 148.99 23.1593 149.441C22.57 149.9 21.855 150.13 21.0143 150.13C20.1563 150.13 19.437 149.905 18.8563 149.454C18.2757 149.003 17.9853 148.401 17.9853 147.647Z" fill="#212121"/>
<path d="M1 126V125.5H0.5V126H1ZM41 126H41.5V125.5H41V126ZM41 166V166.5H41.5V166H41ZM1 166H0.5V166.5H1V166ZM1 126.5H41V125.5H1V126.5ZM40.5 126V166H41.5V126H40.5ZM41 165.5H1V166.5H41V165.5ZM1.5 166V126H0.5V166H1.5Z" fill="#DFDFDF"/>
<path d="M64.0303 144.189C64.0303 145.862 63.6013 147.231 62.7433 148.297C61.9027 149.346 60.815 149.957 59.4803 150.13L59.1293 149.311C60.1607 149.112 60.997 148.67 61.6383 147.985C62.2797 147.3 62.6697 146.429 62.8083 145.372C62.401 146.126 61.7163 146.503 60.7543 146.503C59.957 146.503 59.307 146.239 58.8043 145.71C58.293 145.173 58.0373 144.505 58.0373 143.708C58.0373 142.85 58.332 142.148 58.9213 141.602C59.502 141.047 60.1737 140.77 60.9363 140.77C61.9157 140.77 62.674 141.091 63.2113 141.732C63.7573 142.373 64.0303 143.192 64.0303 144.189ZM62.9253 144.189C62.9253 143.522 62.7563 142.958 62.4183 142.499C62.0803 142.04 61.5907 141.81 60.9493 141.81C60.4467 141.81 60.022 141.992 59.6753 142.356C59.32 142.711 59.1423 143.136 59.1423 143.63C59.1423 144.167 59.3113 144.618 59.6493 144.982C59.996 145.346 60.451 145.528 61.0143 145.528C61.4823 145.528 61.8853 145.402 62.2233 145.151C62.5613 144.9 62.7953 144.579 62.9253 144.189Z" fill="#212121"/>
<path d="M41 126V125.5H40.5V126H41ZM81 126H81.5V125.5H81V126ZM81 166V166.5H81.5V166H81ZM41 166H40.5V166.5H41V166ZM41 126.5H81V125.5H41V126.5ZM80.5 126V166H81.5V126H80.5ZM81 165.5H41V166.5H81V165.5ZM41.5 166V126H40.5V166H41.5Z" fill="#DFDFDF"/>
<path d="M95.5946 143.383L95.0486 142.538L97.2326 140.848H97.9606V150H96.9206V142.343L95.5946 143.383ZM107.799 145.45C107.799 146.923 107.552 148.067 107.058 148.882C106.573 149.697 105.845 150.104 104.874 150.104C103.886 150.104 103.141 149.688 102.638 148.856C102.144 148.015 101.897 146.88 101.897 145.45C101.897 144.029 102.14 142.898 102.625 142.057C103.119 141.216 103.86 140.796 104.848 140.796C105.845 140.796 106.581 141.216 107.058 142.057C107.552 142.889 107.799 144.02 107.799 145.45ZM104.874 149.129C105.507 149.129 105.966 148.826 106.252 148.219C106.547 147.612 106.694 146.689 106.694 145.45C106.694 144.219 106.542 143.301 106.239 142.694C105.944 142.079 105.481 141.771 104.848 141.771C103.617 141.771 103.002 142.997 103.002 145.45C103.002 147.903 103.626 149.129 104.874 149.129Z" fill="#212121"/>
<path d="M81 126V125.5H80.5V126H81ZM121 126H121.5V125.5H121V126ZM121 166V166.5H121.5V166H121ZM81 166H80.5V166.5H81V166ZM81 126.5H121V125.5H81V126.5ZM120.5 126V166H121.5V126H120.5ZM121 165.5H81V166.5H121V165.5ZM81.5 166V126H80.5V166H81.5Z" fill="#DFDFDF"/>
<path d="M135.595 143.383L135.049 142.538L137.233 140.848H137.961V150H136.921V142.343L135.595 143.383ZM143.288 143.383L142.742 142.538L144.926 140.848H145.654V150H144.614V142.343L143.288 143.383Z" fill="#212121"/>
<path d="M121 126V125.5H120.5V126H121ZM161 126H161.5V125.5H161V126ZM161 166V166.5H161.5V166H161ZM121 166H120.5V166.5H121V166ZM121 126.5H161V125.5H121V126.5ZM160.5 126V166H161.5V126H160.5ZM161 165.5H121V166.5H161V165.5ZM121.5 166V126H120.5V166H121.5Z" fill="#DFDFDF"/>
<path d="M175.595 143.383L175.049 142.538L177.233 140.848H177.961V150H176.921V142.343L175.595 143.383ZM187.643 150H182.092V149.155C183.271 148.002 184.137 147.084 184.692 146.399C185.671 145.168 186.161 144.137 186.161 143.305C186.161 142.872 186.027 142.521 185.758 142.252C185.498 141.975 185.138 141.836 184.679 141.836C184.28 141.836 183.929 141.966 183.626 142.226C183.331 142.477 183.141 142.833 183.054 143.292L182.17 142.928C182.274 142.278 182.564 141.762 183.041 141.381C183.526 140.991 184.103 140.796 184.77 140.796C185.567 140.796 186.183 141.026 186.616 141.485C187.049 141.944 187.266 142.482 187.266 143.097C187.266 144.267 186.707 145.511 185.589 146.828C185.078 147.417 184.675 147.859 184.38 148.154C184.12 148.414 183.808 148.704 183.444 149.025H187.643V150Z" fill="#212121"/>
<path d="M161 126V125.5H160.5V126H161ZM201 126H201.5V125.5H201V126ZM201 166V166.5H201.5V166H201ZM161 166H160.5V166.5H161V166ZM161 126.5H201V125.5H161V126.5ZM200.5 126V166H201.5V126H200.5ZM201 165.5H161V166.5H201V165.5ZM161.5 166V126H160.5V166H161.5Z" fill="#DFDFDF"/>
<path d="M215.595 143.383L215.049 142.538L217.233 140.848H217.961V150H216.921V142.343L215.595 143.383ZM224.757 150.13C224.116 150.13 223.552 149.996 223.067 149.727C222.59 149.458 222.235 149.073 222.001 148.57L222.599 147.829C222.807 148.228 223.102 148.54 223.483 148.765C223.864 148.982 224.276 149.09 224.718 149.09C225.264 149.09 225.697 148.938 226.018 148.635C226.347 148.332 226.512 147.937 226.512 147.452C226.512 146.967 226.339 146.581 225.992 146.295C225.654 146.009 225.208 145.866 224.653 145.866H223.938V144.826H224.588C225.013 144.826 225.377 144.679 225.68 144.384C226.001 144.089 226.161 143.712 226.161 143.253C226.161 142.802 226.027 142.451 225.758 142.2C225.498 141.94 225.138 141.81 224.679 141.81C223.856 141.81 223.232 142.187 222.807 142.941L222.222 142.226C222.43 141.767 222.755 141.411 223.197 141.16C223.648 140.9 224.168 140.77 224.757 140.77C225.52 140.77 226.126 140.978 226.577 141.394C227.036 141.81 227.266 142.369 227.266 143.071C227.266 143.574 227.145 144.016 226.902 144.397C226.659 144.778 226.308 145.064 225.849 145.255V145.294C226.386 145.381 226.815 145.628 227.136 146.035C227.457 146.442 227.617 146.928 227.617 147.491C227.617 148.288 227.348 148.93 226.811 149.415C226.282 149.892 225.598 150.13 224.757 150.13Z" fill="#212121"/>
<path d="M201 126V125.5H200.5V126H201ZM241 126H241.5V125.5H241V126ZM241 166V166.5H241.5V166H241ZM201 166H200.5V166.5H201V166ZM201 126.5H241V125.5H201V126.5ZM240.5 126V166H241.5V126H240.5ZM241 165.5H201V166.5H241V165.5ZM201.5 166V126H200.5V166H201.5Z" fill="#DFDFDF"/>
<path d="M255.595 143.383L255.049 142.538L257.233 140.848H257.961V150H256.921V142.343L255.595 143.383ZM266.876 150H265.836V147.725H261.637V146.984L265.407 140.9H266.603L263.002 146.685H265.836V144.15H266.876V146.685H268.137V147.725H266.876V150Z" fill="#212121"/>
<path d="M241 126V125.5H240.5V126H241ZM281 126H281.5V125.5H281V126ZM281 166V166.5H281.5V166H281ZM241 166H240.5V166.5H241V166ZM241 126.5H281V125.5H241V126.5ZM280.5 126V166H281.5V126H280.5ZM281 165.5H241V166.5H281V165.5ZM241.5 166V126H240.5V166H241.5Z" fill="#DFDFDF"/>
<path d="M15.5946 183.383L15.0486 182.538L17.2326 180.848H17.9606V190H16.9206V182.343L15.5946 183.383ZM22.755 185.476L23.327 180.9H27.435V181.94H24.237L23.899 184.397C24.107 184.336 24.3497 184.306 24.627 184.306C25.4677 184.306 26.1567 184.566 26.694 185.086C27.2313 185.597 27.5 186.278 27.5 187.127C27.5 188.037 27.214 188.765 26.642 189.311C26.07 189.857 25.368 190.13 24.536 190.13C23.9987 190.13 23.4917 190.009 23.015 189.766C22.5383 189.523 22.1743 189.185 21.923 188.752L22.521 187.985C22.729 188.323 23.0193 188.592 23.392 188.791C23.7733 188.99 24.1633 189.09 24.562 189.09C25.082 189.09 25.5153 188.908 25.862 188.544C26.2173 188.171 26.395 187.712 26.395 187.166C26.395 186.611 26.1913 186.152 25.784 185.788C25.3853 185.424 24.8523 185.242 24.185 185.242C23.639 185.242 23.1623 185.32 22.755 185.476Z" fill="#212121"/>
<path d="M1 166V165.5H0.5V166H1ZM41 166H41.5V165.5H41V166ZM41 206V206.5H41.5V206H41ZM1 206H0.5V206.5H1V206ZM1 166.5H41V165.5H1V166.5ZM40.5 166V206H41.5V166H40.5ZM41 205.5H1V206.5H41V205.5ZM1.5 206V166H0.5V206H1.5Z" fill="#DFDFDF"/>
<path d="M55.5946 183.383L55.0486 182.538L57.2326 180.848H57.9606V190H56.9206V182.343L55.5946 183.383ZM61.78 186.776C61.78 185.996 61.91 185.246 62.17 184.527C62.4387 183.808 62.794 183.197 63.236 182.694C64.146 181.663 65.134 181.021 66.2 180.77L66.629 181.563C65.771 181.78 64.9953 182.243 64.302 182.954C63.6347 183.647 63.2013 184.531 63.002 185.606C63.4353 184.8 64.1503 184.397 65.147 184.397C65.901 184.397 66.5207 184.657 67.006 185.177C67.5 185.697 67.747 186.369 67.747 187.192C67.747 188.041 67.4653 188.748 66.902 189.311C66.3473 189.857 65.693 190.13 64.939 190.13C63.9597 190.13 63.1883 189.809 62.625 189.168C62.0617 188.509 61.78 187.712 61.78 186.776ZM62.885 186.776C62.885 187.426 63.0627 187.976 63.418 188.427C63.7647 188.869 64.2673 189.09 64.926 189.09C65.4113 189.09 65.8187 188.912 66.148 188.557C66.4773 188.184 66.642 187.755 66.642 187.27C66.642 186.707 66.4773 186.252 66.148 185.905C65.8273 185.55 65.3767 185.372 64.796 185.372C64.3367 185.372 63.9337 185.506 63.587 185.775C63.249 186.044 63.015 186.377 62.885 186.776Z" fill="#212121"/>
<path d="M41 166V165.5H40.5V166H41ZM81 166H81.5V165.5H81V166ZM81 206V206.5H81.5V206H81ZM41 206H40.5V206.5H41V206ZM41 166.5H81V165.5H41V166.5ZM80.5 166V206H81.5V166H80.5ZM81 205.5H41V206.5H81V205.5ZM41.5 206V166H40.5V206H41.5Z" fill="#DFDFDF"/>
<path d="M95.5946 183.383L95.0486 182.538L97.2326 180.848H97.9606V190H96.9206V182.343L95.5946 183.383ZM106.408 181.94H102.209V180.9H107.669V181.576L104.315 190H103.171L106.408 181.94Z" fill="#212121"/>
<path d="M81 166V165.5H80.5V166H81ZM121 166H121.5V165.5H121V166ZM121 206V206.5H121.5V206H121ZM81 206H80.5V206.5H81V206ZM81 166.5H121V165.5H81V166.5ZM120.5 166V206H121.5V166H120.5ZM121 205.5H81V206.5H121V205.5ZM81.5 206V166H80.5V206H81.5Z" fill="#DFDFDF"/>
<path d="M121 166H161V206H121V166Z" fill="#1991EB"/>
<path d="M135.557 183.851L134.777 182.616L137.104 180.874H138.17V190H136.675V183.006L135.557 183.851ZM144.757 184.579H145.017C145.346 184.579 145.624 184.466 145.849 184.241C146.074 184.007 146.187 183.73 146.187 183.409C146.187 183.045 146.066 182.763 145.823 182.564C145.58 182.356 145.26 182.252 144.861 182.252C144.471 182.252 144.159 182.36 143.925 182.577C143.691 182.785 143.574 183.062 143.574 183.409C143.574 183.73 143.687 184.007 143.912 184.241C144.146 184.466 144.428 184.579 144.757 184.579ZM145.004 186.074H144.783C144.376 186.074 144.029 186.195 143.743 186.438C143.457 186.672 143.314 186.98 143.314 187.361C143.314 187.734 143.457 188.041 143.743 188.284C144.029 188.527 144.406 188.648 144.874 188.648C145.385 188.648 145.775 188.531 146.044 188.297C146.313 188.063 146.443 187.751 146.434 187.361C146.434 186.962 146.3 186.65 146.031 186.425C145.771 186.191 145.429 186.074 145.004 186.074ZM141.728 187.647C141.728 187.092 141.871 186.611 142.157 186.204C142.443 185.788 142.816 185.502 143.275 185.346V185.307C142.894 185.142 142.582 184.869 142.339 184.488C142.096 184.098 141.975 183.652 141.975 183.149C141.975 182.447 142.252 181.875 142.807 181.433C143.362 180.982 144.051 180.757 144.874 180.757C145.689 180.757 146.373 180.982 146.928 181.433C147.491 181.875 147.773 182.447 147.773 183.149C147.773 183.608 147.647 184.037 147.396 184.436C147.145 184.826 146.807 185.112 146.382 185.294V185.333C146.859 185.437 147.253 185.688 147.565 186.087C147.877 186.477 148.033 186.954 148.033 187.517C148.033 188.332 147.734 188.973 147.136 189.441C146.547 189.909 145.797 190.143 144.887 190.143C143.968 190.143 143.214 189.918 142.625 189.467C142.027 189.008 141.728 188.401 141.728 187.647Z" fill="white"/>
<path d="M121 166V165.5H120.5V166H121ZM161 166H161.5V165.5H161V166ZM161 206V206.5H161.5V206H161ZM121 206H120.5V206.5H121V206ZM121 166.5H161V165.5H121V166.5ZM160.5 166V206H161.5V166H160.5ZM161 205.5H121V206.5H161V205.5ZM121.5 206V166H120.5V206H121.5Z" fill="#DFDFDF"/>
<path d="M175.595 183.383L175.049 182.538L177.233 180.848H177.961V190H176.921V182.343L175.595 183.383ZM187.877 184.189C187.877 185.862 187.448 187.231 186.59 188.297C185.749 189.346 184.662 189.957 183.327 190.13L182.976 189.311C184.007 189.112 184.844 188.67 185.485 187.985C186.126 187.3 186.516 186.429 186.655 185.372C186.248 186.126 185.563 186.503 184.601 186.503C183.804 186.503 183.154 186.239 182.651 185.71C182.14 185.173 181.884 184.505 181.884 183.708C181.884 182.85 182.179 182.148 182.768 181.602C183.349 181.047 184.02 180.77 184.783 180.77C185.762 180.77 186.521 181.091 187.058 181.732C187.604 182.373 187.877 183.192 187.877 184.189ZM186.772 184.189C186.772 183.522 186.603 182.958 186.265 182.499C185.927 182.04 185.437 181.81 184.796 181.81C184.293 181.81 183.869 181.992 183.522 182.356C183.167 182.711 182.989 183.136 182.989 183.63C182.989 184.167 183.158 184.618 183.496 184.982C183.843 185.346 184.298 185.528 184.861 185.528C185.329 185.528 185.732 185.402 186.07 185.151C186.408 184.9 186.642 184.579 186.772 184.189Z" fill="#212121"/>
<path d="M161 166V165.5H160.5V166H161ZM201 166H201.5V165.5H201V166ZM201 206V206.5H201.5V206H201ZM161 206H160.5V206.5H161V206ZM161 166.5H201V165.5H161V166.5ZM200.5 166V206H201.5V166H200.5ZM201 205.5H161V206.5H201V205.5ZM161.5 206V166H160.5V206H161.5Z" fill="#DFDFDF"/>
<path d="M219.95 190H214.399V189.155C215.577 188.002 216.444 187.084 216.999 186.399C217.978 185.168 218.468 184.137 218.468 183.305C218.468 182.872 218.333 182.521 218.065 182.252C217.805 181.975 217.445 181.836 216.986 181.836C216.587 181.836 216.236 181.966 215.933 182.226C215.638 182.477 215.447 182.833 215.361 183.292L214.477 182.928C214.581 182.278 214.871 181.762 215.348 181.381C215.833 180.991 216.409 180.796 217.077 180.796C217.874 180.796 218.489 181.026 218.923 181.485C219.356 181.944 219.573 182.482 219.573 183.097C219.573 184.267 219.014 185.511 217.896 186.828C217.384 187.417 216.981 187.859 216.687 188.154C216.427 188.414 216.115 188.704 215.751 189.025H219.95V190ZM227.799 185.45C227.799 186.923 227.552 188.067 227.058 188.882C226.573 189.697 225.845 190.104 224.874 190.104C223.886 190.104 223.141 189.688 222.638 188.856C222.144 188.015 221.897 186.88 221.897 185.45C221.897 184.029 222.14 182.898 222.625 182.057C223.119 181.216 223.86 180.796 224.848 180.796C225.845 180.796 226.581 181.216 227.058 182.057C227.552 182.889 227.799 184.02 227.799 185.45ZM224.874 189.129C225.507 189.129 225.966 188.826 226.252 188.219C226.547 187.612 226.694 186.689 226.694 185.45C226.694 184.219 226.542 183.301 226.239 182.694C225.944 182.079 225.481 181.771 224.848 181.771C223.617 181.771 223.002 182.997 223.002 185.45C223.002 187.903 223.626 189.129 224.874 189.129Z" fill="#212121"/>
<path d="M201 166V165.5H200.5V166H201ZM241 166H241.5V165.5H241V166ZM241 206V206.5H241.5V206H241ZM201 206H200.5V206.5H201V206ZM201 166.5H241V165.5H201V166.5ZM240.5 166V206H241.5V166H240.5ZM241 205.5H201V206.5H241V205.5ZM201.5 206V166H200.5V206H201.5Z" fill="#DFDFDF"/>
<path d="M259.95 190H254.399V189.155C255.577 188.002 256.444 187.084 256.999 186.399C257.978 185.168 258.468 184.137 258.468 183.305C258.468 182.872 258.333 182.521 258.065 182.252C257.805 181.975 257.445 181.836 256.986 181.836C256.587 181.836 256.236 181.966 255.933 182.226C255.638 182.477 255.447 182.833 255.361 183.292L254.477 182.928C254.581 182.278 254.871 181.762 255.348 181.381C255.833 180.991 256.409 180.796 257.077 180.796C257.874 180.796 258.489 181.026 258.923 181.485C259.356 181.944 259.573 182.482 259.573 183.097C259.573 184.267 259.014 185.511 257.896 186.828C257.384 187.417 256.981 187.859 256.687 188.154C256.427 188.414 256.115 188.704 255.751 189.025H259.95V190ZM263.288 183.383L262.742 182.538L264.926 180.848H265.654V190H264.614V182.343L263.288 183.383Z" fill="#212121"/>
<path d="M241 166V165.5H240.5V166H241ZM281 166H281.5V165.5H281V166ZM281 206V206.5H281.5V206H281ZM241 206H240.5V206.5H241V206ZM241 166.5H281V165.5H241V166.5ZM280.5 166V206H281.5V166H280.5ZM281 205.5H241V206.5H281V205.5ZM241.5 206V166H240.5V206H241.5Z" fill="#DFDFDF"/>
<path d="M19.9496 230H14.3986V229.155C15.5773 228.002 16.444 227.084 16.9986 226.399C17.978 225.168 18.4676 224.137 18.4676 223.305C18.4676 222.872 18.3333 222.521 18.0646 222.252C17.8046 221.975 17.445 221.836 16.9856 221.836C16.587 221.836 16.236 221.966 15.9326 222.226C15.638 222.477 15.4473 222.833 15.3606 223.292L14.4766 222.928C14.5806 222.278 14.871 221.762 15.3476 221.381C15.833 220.991 16.4093 220.796 17.0766 220.796C17.874 220.796 18.4893 221.026 18.9226 221.485C19.356 221.944 19.5726 222.482 19.5726 223.097C19.5726 224.267 19.0136 225.511 17.8956 226.828C17.3843 227.417 16.9813 227.859 16.6866 228.154C16.4266 228.414 16.1146 228.704 15.7506 229.025H19.9496V230ZM27.643 230H22.092V229.155C23.2707 228.002 24.1373 227.084 24.692 226.399C25.6713 225.168 26.161 224.137 26.161 223.305C26.161 222.872 26.0267 222.521 25.758 222.252C25.498 221.975 25.1383 221.836 24.679 221.836C24.2803 221.836 23.9293 221.966 23.626 222.226C23.3313 222.477 23.1407 222.833 23.054 223.292L22.17 222.928C22.274 222.278 22.5643 221.762 23.041 221.381C23.5263 220.991 24.1027 220.796 24.77 220.796C25.5673 220.796 26.1827 221.026 26.616 221.485C27.0493 221.944 27.266 222.482 27.266 223.097C27.266 224.267 26.707 225.511 25.589 226.828C25.0777 227.417 24.6747 227.859 24.38 228.154C24.12 228.414 23.808 228.704 23.444 229.025H27.643V230Z" fill="#212121"/>
<path d="M1 206V205.5H0.5V206H1ZM41 206H41.5V205.5H41V206ZM41 246V246.5H41.5V246H41ZM1 246H0.5V246.5H1V246ZM1 206.5H41V205.5H1V206.5ZM40.5 206V246H41.5V206H40.5ZM41 245.5H1V246.5H41V245.5ZM1.5 246V206H0.5V246H1.5Z" fill="#DFDFDF"/>
<path d="M59.9496 230H54.3986V229.155C55.5773 228.002 56.444 227.084 56.9986 226.399C57.978 225.168 58.4676 224.137 58.4676 223.305C58.4676 222.872 58.3333 222.521 58.0646 222.252C57.8046 221.975 57.445 221.836 56.9856 221.836C56.587 221.836 56.236 221.966 55.9326 222.226C55.638 222.477 55.4473 222.833 55.3606 223.292L54.4766 222.928C54.5806 222.278 54.871 221.762 55.3476 221.381C55.833 220.991 56.4093 220.796 57.0766 220.796C57.874 220.796 58.4893 221.026 58.9226 221.485C59.356 221.944 59.5726 222.482 59.5726 223.097C59.5726 224.267 59.0136 225.511 57.8956 226.828C57.3843 227.417 56.9813 227.859 56.6866 228.154C56.4266 228.414 56.1146 228.704 55.7506 229.025H59.9496V230ZM64.757 230.13C64.1157 230.13 63.5523 229.996 63.067 229.727C62.5903 229.458 62.235 229.073 62.001 228.57L62.599 227.829C62.807 228.228 63.1017 228.54 63.483 228.765C63.8643 228.982 64.276 229.09 64.718 229.09C65.264 229.09 65.6973 228.938 66.018 228.635C66.3473 228.332 66.512 227.937 66.512 227.452C66.512 226.967 66.3387 226.581 65.992 226.295C65.654 226.009 65.2077 225.866 64.653 225.866H63.938V224.826H64.588C65.0127 224.826 65.3767 224.679 65.68 224.384C66.0007 224.089 66.161 223.712 66.161 223.253C66.161 222.802 66.0267 222.451 65.758 222.2C65.498 221.94 65.1383 221.81 64.679 221.81C63.8557 221.81 63.2317 222.187 62.807 222.941L62.222 222.226C62.43 221.767 62.755 221.411 63.197 221.16C63.6477 220.9 64.1677 220.77 64.757 220.77C65.5197 220.77 66.1263 220.978 66.577 221.394C67.0363 221.81 67.266 222.369 67.266 223.071C67.266 223.574 67.1447 224.016 66.902 224.397C66.6593 224.778 66.3083 225.064 65.849 225.255V225.294C66.3863 225.381 66.8153 225.628 67.136 226.035C67.4567 226.442 67.617 226.928 67.617 227.491C67.617 228.288 67.3483 228.93 66.811 229.415C66.2823 229.892 65.5977 230.13 64.757 230.13Z" fill="#212121"/>
<path d="M41 206V205.5H40.5V206H41ZM81 206H81.5V205.5H81V206ZM81 246V246.5H81.5V246H81ZM41 246H40.5V246.5H41V246ZM41 206.5H81V205.5H41V206.5ZM80.5 206V246H81.5V206H80.5ZM81 245.5H41V246.5H81V245.5ZM41.5 246V206H40.5V246H41.5Z" fill="#DFDFDF"/>
<path d="M99.9496 230H94.3986V229.155C95.5773 228.002 96.444 227.084 96.9986 226.399C97.978 225.168 98.4676 224.137 98.4676 223.305C98.4676 222.872 98.3333 222.521 98.0646 222.252C97.8046 221.975 97.445 221.836 96.9856 221.836C96.587 221.836 96.236 221.966 95.9326 222.226C95.638 222.477 95.4473 222.833 95.3606 223.292L94.4766 222.928C94.5806 222.278 94.871 221.762 95.3476 221.381C95.833 220.991 96.4093 220.796 97.0766 220.796C97.874 220.796 98.4893 221.026 98.9226 221.485C99.356 221.944 99.5726 222.482 99.5726 223.097C99.5726 224.267 99.0136 225.511 97.8956 226.828C97.3843 227.417 96.9813 227.859 96.6866 228.154C96.4266 228.414 96.1146 228.704 95.7506 229.025H99.9496V230ZM106.876 230H105.836V227.725H101.637V226.984L105.407 220.9H106.603L103.002 226.685H105.836V224.15H106.876V226.685H108.137V227.725H106.876V230Z" fill="#212121"/>
<path d="M81 206V205.5H80.5V206H81ZM121 206H121.5V205.5H121V206ZM121 246V246.5H121.5V246H121ZM81 246H80.5V246.5H81V246ZM81 206.5H121V205.5H81V206.5ZM120.5 206V246H121.5V206H120.5ZM121 245.5H81V246.5H121V245.5ZM81.5 246V206H80.5V246H81.5Z" fill="#DFDFDF"/>
<path d="M139.95 230H134.399V229.155C135.577 228.002 136.444 227.084 136.999 226.399C137.978 225.168 138.468 224.137 138.468 223.305C138.468 222.872 138.333 222.521 138.065 222.252C137.805 221.975 137.445 221.836 136.986 221.836C136.587 221.836 136.236 221.966 135.933 222.226C135.638 222.477 135.447 222.833 135.361 223.292L134.477 222.928C134.581 222.278 134.871 221.762 135.348 221.381C135.833 220.991 136.409 220.796 137.077 220.796C137.874 220.796 138.489 221.026 138.923 221.485C139.356 221.944 139.573 222.482 139.573 223.097C139.573 224.267 139.014 225.511 137.896 226.828C137.384 227.417 136.981 227.859 136.687 228.154C136.427 228.414 136.115 228.704 135.751 229.025H139.95V230ZM142.755 225.476L143.327 220.9H147.435V221.94H144.237L143.899 224.397C144.107 224.336 144.35 224.306 144.627 224.306C145.468 224.306 146.157 224.566 146.694 225.086C147.231 225.597 147.5 226.278 147.5 227.127C147.5 228.037 147.214 228.765 146.642 229.311C146.07 229.857 145.368 230.13 144.536 230.13C143.999 230.13 143.492 230.009 143.015 229.766C142.538 229.523 142.174 229.185 141.923 228.752L142.521 227.985C142.729 228.323 143.019 228.592 143.392 228.791C143.773 228.99 144.163 229.09 144.562 229.09C145.082 229.09 145.515 228.908 145.862 228.544C146.217 228.171 146.395 227.712 146.395 227.166C146.395 226.611 146.191 226.152 145.784 225.788C145.385 225.424 144.852 225.242 144.185 225.242C143.639 225.242 143.162 225.32 142.755 225.476Z" fill="#212121"/>
<path d="M121 206V205.5H120.5V206H121ZM161 206H161.5V205.5H161V206ZM161 246V246.5H161.5V246H161ZM121 246H120.5V246.5H121V246ZM121 206.5H161V205.5H121V206.5ZM160.5 206V246H161.5V206H160.5ZM161 245.5H121V246.5H161V245.5ZM121.5 246V206H120.5V246H121.5Z" fill="#DFDFDF"/>
<path d="M179.95 230H174.399V229.155C175.577 228.002 176.444 227.084 176.999 226.399C177.978 225.168 178.468 224.137 178.468 223.305C178.468 222.872 178.333 222.521 178.065 222.252C177.805 221.975 177.445 221.836 176.986 221.836C176.587 221.836 176.236 221.966 175.933 222.226C175.638 222.477 175.447 222.833 175.361 223.292L174.477 222.928C174.581 222.278 174.871 221.762 175.348 221.381C175.833 220.991 176.409 220.796 177.077 220.796C177.874 220.796 178.489 221.026 178.923 221.485C179.356 221.944 179.573 222.482 179.573 223.097C179.573 224.267 179.014 225.511 177.896 226.828C177.384 227.417 176.981 227.859 176.687 228.154C176.427 228.414 176.115 228.704 175.751 229.025H179.95V230ZM181.78 226.776C181.78 225.996 181.91 225.246 182.17 224.527C182.439 223.808 182.794 223.197 183.236 222.694C184.146 221.663 185.134 221.021 186.2 220.77L186.629 221.563C185.771 221.78 184.995 222.243 184.302 222.954C183.635 223.647 183.201 224.531 183.002 225.606C183.435 224.8 184.15 224.397 185.147 224.397C185.901 224.397 186.521 224.657 187.006 225.177C187.5 225.697 187.747 226.369 187.747 227.192C187.747 228.041 187.465 228.748 186.902 229.311C186.347 229.857 185.693 230.13 184.939 230.13C183.96 230.13 183.188 229.809 182.625 229.168C182.062 228.509 181.78 227.712 181.78 226.776ZM182.885 226.776C182.885 227.426 183.063 227.976 183.418 228.427C183.765 228.869 184.267 229.09 184.926 229.09C185.411 229.09 185.819 228.912 186.148 228.557C186.477 228.184 186.642 227.755 186.642 227.27C186.642 226.707 186.477 226.252 186.148 225.905C185.827 225.55 185.377 225.372 184.796 225.372C184.337 225.372 183.934 225.506 183.587 225.775C183.249 226.044 183.015 226.377 182.885 226.776Z" fill="#212121"/>
<path d="M161 206V205.5H160.5V206H161ZM201 206H201.5V205.5H201V206ZM201 246V246.5H201.5V246H201ZM161 246H160.5V246.5H161V246ZM161 206.5H201V205.5H161V206.5ZM200.5 206V246H201.5V206H200.5ZM201 245.5H161V246.5H201V245.5ZM161.5 246V206H160.5V246H161.5Z" fill="#DFDFDF"/>
<path d="M219.95 230H214.399V229.155C215.577 228.002 216.444 227.084 216.999 226.399C217.978 225.168 218.468 224.137 218.468 223.305C218.468 222.872 218.333 222.521 218.065 222.252C217.805 221.975 217.445 221.836 216.986 221.836C216.587 221.836 216.236 221.966 215.933 222.226C215.638 222.477 215.447 222.833 215.361 223.292L214.477 222.928C214.581 222.278 214.871 221.762 215.348 221.381C215.833 220.991 216.409 220.796 217.077 220.796C217.874 220.796 218.489 221.026 218.923 221.485C219.356 221.944 219.573 222.482 219.573 223.097C219.573 224.267 219.014 225.511 217.896 226.828C217.384 227.417 216.981 227.859 216.687 228.154C216.427 228.414 216.115 228.704 215.751 229.025H219.95V230ZM226.408 221.94H222.209V220.9H227.669V221.576L224.315 230H223.171L226.408 221.94Z" fill="#212121"/>
<path d="M201 206V205.5H200.5V206H201ZM241 206H241.5V205.5H241V206ZM241 246V246.5H241.5V246H241ZM201 246H200.5V246.5H201V246ZM201 206.5H241V205.5H201V206.5ZM240.5 206V246H241.5V206H240.5ZM241 245.5H201V246.5H241V245.5ZM201.5 246V206H200.5V246H201.5Z" fill="#DFDFDF"/>
<path d="M259.95 230H254.399V229.155C255.577 228.002 256.444 227.084 256.999 226.399C257.978 225.168 258.468 224.137 258.468 223.305C258.468 222.872 258.333 222.521 258.065 222.252C257.805 221.975 257.445 221.836 256.986 221.836C256.587 221.836 256.236 221.966 255.933 222.226C255.638 222.477 255.447 222.833 255.361 223.292L254.477 222.928C254.581 222.278 254.871 221.762 255.348 221.381C255.833 220.991 256.409 220.796 257.077 220.796C257.874 220.796 258.489 221.026 258.923 221.485C259.356 221.944 259.573 222.482 259.573 223.097C259.573 224.267 259.014 225.511 257.896 226.828C257.384 227.417 256.981 227.859 256.687 228.154C256.427 228.414 256.115 228.704 255.751 229.025H259.95V230ZM264.692 224.8H265.03C265.42 224.8 265.758 224.653 266.044 224.358C266.339 224.063 266.486 223.712 266.486 223.305C266.486 222.854 266.33 222.495 266.018 222.226C265.706 221.949 265.312 221.81 264.835 221.81C264.367 221.81 263.981 221.949 263.678 222.226C263.375 222.503 263.223 222.863 263.223 223.305C263.223 223.712 263.366 224.063 263.652 224.358C263.947 224.653 264.293 224.8 264.692 224.8ZM265.017 225.84H264.731C264.237 225.84 263.812 225.992 263.457 226.295C263.11 226.59 262.937 226.975 262.937 227.452C262.937 227.929 263.115 228.323 263.47 228.635C263.834 228.938 264.293 229.09 264.848 229.09C265.429 229.09 265.892 228.943 266.239 228.648C266.594 228.345 266.772 227.946 266.772 227.452C266.763 226.967 266.594 226.577 266.265 226.282C265.936 225.987 265.52 225.84 265.017 225.84ZM261.832 227.647C261.832 227.101 261.988 226.62 262.3 226.204C262.612 225.779 263.028 225.493 263.548 225.346V225.307C263.132 225.168 262.79 224.9 262.521 224.501C262.252 224.094 262.118 223.643 262.118 223.149C262.118 222.447 262.378 221.875 262.898 221.433C263.435 220.991 264.085 220.77 264.848 220.77C265.611 220.77 266.261 220.991 266.798 221.433C267.327 221.875 267.591 222.447 267.591 223.149C267.591 223.608 267.452 224.037 267.175 224.436C266.906 224.826 266.547 225.112 266.096 225.294V225.333C266.616 225.42 267.041 225.671 267.37 226.087C267.708 226.494 267.877 226.988 267.877 227.569C267.877 228.366 267.587 228.99 267.006 229.441C266.417 229.9 265.702 230.13 264.861 230.13C264.003 230.13 263.284 229.905 262.703 229.454C262.122 229.003 261.832 228.401 261.832 227.647Z" fill="#212121"/>
<path d="M241 206V205.5H240.5V206H241ZM281 206H281.5V205.5H281V206ZM281 246V246.5H281.5V246H281ZM241 246H240.5V246.5H241V246ZM241 206.5H281V205.5H241V206.5ZM280.5 206V246H281.5V206H280.5ZM281 245.5H241V246.5H281V245.5ZM241.5 246V206H240.5V246H241.5Z" fill="#DFDFDF"/>
<path d="M19.9496 270H14.3986V269.155C15.5773 268.002 16.444 267.084 16.9986 266.399C17.978 265.168 18.4676 264.137 18.4676 263.305C18.4676 262.872 18.3333 262.521 18.0646 262.252C17.8046 261.975 17.445 261.836 16.9856 261.836C16.587 261.836 16.236 261.966 15.9326 262.226C15.638 262.477 15.4473 262.833 15.3606 263.292L14.4766 262.928C14.5806 262.278 14.871 261.762 15.3476 261.381C15.833 260.991 16.4093 260.796 17.0766 260.796C17.874 260.796 18.4893 261.026 18.9226 261.485C19.356 261.944 19.5726 262.482 19.5726 263.097C19.5726 264.267 19.0136 265.511 17.8956 266.828C17.3843 267.417 16.9813 267.859 16.6866 268.154C16.4266 268.414 16.1146 268.704 15.7506 269.025H19.9496V270ZM27.877 264.189C27.877 265.862 27.448 267.231 26.59 268.297C25.7493 269.346 24.6617 269.957 23.327 270.13L22.976 269.311C24.0073 269.112 24.8437 268.67 25.485 267.985C26.1263 267.3 26.5163 266.429 26.655 265.372C26.2477 266.126 25.563 266.503 24.601 266.503C23.8037 266.503 23.1537 266.239 22.651 265.71C22.1397 265.173 21.884 264.505 21.884 263.708C21.884 262.85 22.1787 262.148 22.768 261.602C23.3487 261.047 24.0203 260.77 24.783 260.77C25.7623 260.77 26.5207 261.091 27.058 261.732C27.604 262.373 27.877 263.192 27.877 264.189ZM26.772 264.189C26.772 263.522 26.603 262.958 26.265 262.499C25.927 262.04 25.4373 261.81 24.796 261.81C24.2933 261.81 23.8687 261.992 23.522 262.356C23.1667 262.711 22.989 263.136 22.989 263.63C22.989 264.167 23.158 264.618 23.496 264.982C23.8427 265.346 24.2977 265.528 24.861 265.528C25.329 265.528 25.732 265.402 26.07 265.151C26.408 264.9 26.642 264.579 26.772 264.189Z" fill="#212121"/>
<path d="M1 246V245.5H0.5V246H1ZM41 246H41.5V245.5H41V246ZM41 286V286.5H41.5V286H41ZM1 286H0.5V286.5H1V286ZM1 246.5H41V245.5H1V246.5ZM40.5 246V286H41.5V246H40.5ZM41 285.5H1V286.5H41V285.5ZM1.5 286V246H0.5V286H1.5Z" fill="#DFDFDF"/>
<path d="M57.0636 270.13C56.4223 270.13 55.859 269.996 55.3736 269.727C54.897 269.458 54.5416 269.073 54.3076 268.57L54.9056 267.829C55.1136 268.228 55.4083 268.54 55.7896 268.765C56.171 268.982 56.5826 269.09 57.0246 269.09C57.5706 269.09 58.004 268.938 58.3246 268.635C58.654 268.332 58.8186 267.937 58.8186 267.452C58.8186 266.967 58.6453 266.581 58.2986 266.295C57.9606 266.009 57.5143 265.866 56.9596 265.866H56.2446V264.826H56.8946C57.3193 264.826 57.6833 264.679 57.9866 264.384C58.3073 264.089 58.4676 263.712 58.4676 263.253C58.4676 262.802 58.3333 262.451 58.0646 262.2C57.8046 261.94 57.445 261.81 56.9856 261.81C56.1623 261.81 55.5383 262.187 55.1136 262.941L54.5286 262.226C54.7366 261.767 55.0616 261.411 55.5036 261.16C55.9543 260.9 56.4743 260.77 57.0636 260.77C57.8263 260.77 58.433 260.978 58.8836 261.394C59.343 261.81 59.5726 262.369 59.5726 263.071C59.5726 263.574 59.4513 264.016 59.2086 264.397C58.966 264.778 58.615 265.064 58.1556 265.255V265.294C58.693 265.381 59.122 265.628 59.4426 266.035C59.7633 266.442 59.9236 266.928 59.9236 267.491C59.9236 268.288 59.655 268.93 59.1176 269.415C58.589 269.892 57.9043 270.13 57.0636 270.13ZM67.799 265.45C67.799 266.923 67.552 268.067 67.058 268.882C66.5727 269.697 65.8447 270.104 64.874 270.104C63.886 270.104 63.1407 269.688 62.638 268.856C62.144 268.015 61.897 266.88 61.897 265.45C61.897 264.029 62.1397 262.898 62.625 262.057C63.119 261.216 63.86 260.796 64.848 260.796C65.8447 260.796 66.5813 261.216 67.058 262.057C67.552 262.889 67.799 264.02 67.799 265.45ZM64.874 269.129C65.5067 269.129 65.966 268.826 66.252 268.219C66.5467 267.612 66.694 266.689 66.694 265.45C66.694 264.219 66.5423 263.301 66.239 262.694C65.9443 262.079 65.4807 261.771 64.848 261.771C63.6173 261.771 63.002 262.997 63.002 265.45C63.002 267.903 63.626 269.129 64.874 269.129Z" fill="#212121"/>
<path d="M41 246V245.5H40.5V246H41ZM81 246H81.5V245.5H81V246ZM81 286V286.5H81.5V286H81ZM41 286H40.5V286.5H41V286ZM41 246.5H81V245.5H41V246.5ZM80.5 246V286H81.5V246H80.5ZM81 285.5H41V286.5H81V285.5ZM41.5 286V246H40.5V286H41.5Z" fill="#DFDFDF"/>
<path d="M81 246H121V286H81V246Z" fill="#FCFCFC"/>
<path d="M99.4413 263.383L98.8953 262.538L101.079 260.848H101.807V270H100.767V262.343L99.4413 263.383Z" fill="#9E9E9E"/>
<path d="M81 246V245.5H80.5V246H81ZM121 246H121.5V245.5H121V246ZM121 286V286.5H121.5V286H121ZM81 286H80.5V286.5H81V286ZM81 246.5H121V245.5H81V246.5ZM120.5 246V286H121.5V246H120.5ZM121 285.5H81V286.5H121V285.5ZM81.5 286V246H80.5V286H81.5Z" fill="#DFDFDF"/>
<path d="M121 246H161V286H121V246Z" fill="#FCFCFC"/>
<path d="M143.796 270H138.245V269.155C139.424 268.002 140.291 267.084 140.845 266.399C141.825 265.168 142.314 264.137 142.314 263.305C142.314 262.872 142.18 262.521 141.911 262.252C141.651 261.975 141.292 261.836 140.832 261.836C140.434 261.836 140.083 261.966 139.779 262.226C139.485 262.477 139.294 262.833 139.207 263.292L138.323 262.928C138.427 262.278 138.718 261.762 139.194 261.381C139.68 260.991 140.256 260.796 140.923 260.796C141.721 260.796 142.336 261.026 142.769 261.485C143.203 261.944 143.419 262.482 143.419 263.097C143.419 264.267 142.86 265.511 141.742 266.828C141.231 267.417 140.828 267.859 140.533 268.154C140.273 268.414 139.961 268.704 139.597 269.025H143.796V270Z" fill="#9E9E9E"/>
<path d="M121 246V245.5H120.5V246H121ZM161 246H161.5V245.5H161V246ZM161 286V286.5H161.5V286H161ZM121 286H120.5V286.5H121V286ZM121 246.5H161V245.5H121V246.5ZM160.5 246V286H161.5V246H160.5ZM161 285.5H121V286.5H161V285.5ZM121.5 286V246H120.5V286H121.5Z" fill="#DFDFDF"/>
<path d="M161 246H201V286H161V246Z" fill="#FCFCFC"/>
<path d="M180.91 270.13C180.269 270.13 179.706 269.996 179.22 269.727C178.744 269.458 178.388 269.073 178.154 268.57L178.752 267.829C178.96 268.228 179.255 268.54 179.636 268.765C180.018 268.982 180.429 269.09 180.871 269.09C181.417 269.09 181.851 268.938 182.171 268.635C182.501 268.332 182.665 267.937 182.665 267.452C182.665 266.967 182.492 266.581 182.145 266.295C181.807 266.009 181.361 265.866 180.806 265.866H180.091V264.826H180.741C181.166 264.826 181.53 264.679 181.833 264.384C182.154 264.089 182.314 263.712 182.314 263.253C182.314 262.802 182.18 262.451 181.911 262.2C181.651 261.94 181.292 261.81 180.832 261.81C180.009 261.81 179.385 262.187 178.96 262.941L178.375 262.226C178.583 261.767 178.908 261.411 179.35 261.16C179.801 260.9 180.321 260.77 180.91 260.77C181.673 260.77 182.28 260.978 182.73 261.394C183.19 261.81 183.419 262.369 183.419 263.071C183.419 263.574 183.298 264.016 183.055 264.397C182.813 264.778 182.462 265.064 182.002 265.255V265.294C182.54 265.381 182.969 265.628 183.289 266.035C183.61 266.442 183.77 266.928 183.77 267.491C183.77 268.288 183.502 268.93 182.964 269.415C182.436 269.892 181.751 270.13 180.91 270.13Z" fill="#9E9E9E"/>
<path d="M161 246V245.5H160.5V246H161ZM201 246H201.5V245.5H201V246ZM201 286V286.5H201.5V286H201ZM161 286H160.5V286.5H161V286ZM161 246.5H201V245.5H161V246.5ZM200.5 246V286H201.5V246H200.5ZM201 285.5H161V286.5H201V285.5ZM161.5 286V246H160.5V286H161.5Z" fill="#DFDFDF"/>
<path d="M201 246H241V286H201V246Z" fill="#FCFCFC"/>
<path d="M223.029 270H221.989V267.725H217.79V266.984L221.56 260.9H222.756L219.155 266.685H221.989V264.15H223.029V266.685H224.29V267.725H223.029V270Z" fill="#9E9E9E"/>
<path d="M201 246V245.5H200.5V246H201ZM241 246H241.5V245.5H241V246ZM241 286V286.5H241.5V286H241ZM201 286H200.5V286.5H201V286ZM201 246.5H241V245.5H201V246.5ZM240.5 246V286H241.5V246H240.5ZM241 285.5H201V286.5H241V285.5ZM201.5 286V246H200.5V286H201.5Z" fill="#DFDFDF"/>
<path d="M241 246H281V286H241V246Z" fill="#FCFCFC"/>
<path d="M258.908 265.476L259.48 260.9H263.588V261.94H260.39L260.052 264.397C260.26 264.336 260.503 264.306 260.78 264.306C261.621 264.306 262.31 264.566 262.847 265.086C263.385 265.597 263.653 266.278 263.653 267.127C263.653 268.037 263.367 268.765 262.795 269.311C262.223 269.857 261.521 270.13 260.689 270.13C260.152 270.13 259.645 270.009 259.168 269.766C258.692 269.523 258.328 269.185 258.076 268.752L258.674 267.985C258.882 268.323 259.173 268.592 259.545 268.791C259.927 268.99 260.317 269.09 260.715 269.09C261.235 269.09 261.669 268.908 262.015 268.544C262.371 268.171 262.548 267.712 262.548 267.166C262.548 266.611 262.345 266.152 261.937 265.788C261.539 265.424 261.006 265.242 260.338 265.242C259.792 265.242 259.316 265.32 258.908 265.476Z" fill="#9E9E9E"/>
<path d="M241 246V245.5H240.5V246H241ZM281 246H281.5V245.5H281V246ZM281 286V286.5H281.5V286H281ZM241 286H240.5V286.5H241V286ZM241 246.5H281V245.5H241V246.5ZM280.5 246V286H281.5V246H280.5ZM281 285.5H241V286.5H281V285.5ZM241.5 286V246H240.5V286H241.5Z" fill="#DFDFDF"/>
<path d="M3.413 21.375H1.228V16.815H2.653C3.033 16.3717 3.44467 15.39 3.888 13.87C4.344 12.312 4.61633 10.4753 4.705 8.36L4.838 5.7H13.084V16.815H14.889V21.375H12.704V19H3.413V21.375ZM7.099 7.885L6.89 10.203C6.776 11.799 6.54167 13.1987 6.187 14.402C5.81967 15.656 5.49667 16.4603 5.218 16.815H10.766V7.885H7.099ZM22.9689 16.606L23.5959 18.145C22.7472 18.8543 21.6579 19.209 20.3279 19.209C18.9599 19.209 17.8452 18.7973 16.9839 17.974C16.1479 17.1633 15.7299 16.0803 15.7299 14.725C15.7299 13.4583 16.1416 12.3943 16.9649 11.533C17.7882 10.6717 18.8839 10.241 20.2519 10.241C21.3792 10.241 22.3356 10.6147 23.1209 11.362C23.9062 12.1093 24.2989 13.0593 24.2989 14.212C24.2989 14.7187 24.2546 15.1113 24.1659 15.39H17.9909C18.0796 16.0107 18.3519 16.4983 18.8079 16.853C19.2766 17.2077 19.8592 17.385 20.5559 17.385C21.5059 17.385 22.3102 17.1253 22.9689 16.606ZM20.1569 12.065C18.9156 12.065 18.1682 12.6857 17.9149 13.927H22.1139C22.1266 13.3823 21.9492 12.939 21.5819 12.597C21.2272 12.2423 20.7522 12.065 20.1569 12.065ZM31.3978 10.45H34.1528L30.8658 14.516L34.5518 19H31.7018L28.3198 14.687L31.3978 10.45ZM28.2438 19H26.0588V10.45H28.2438V19ZM36.5021 12.654L35.9511 11.058C36.8758 10.5133 37.8828 10.241 38.9721 10.241C40.1628 10.241 41.0304 10.5323 41.5751 11.115C42.1198 11.6977 42.3921 12.5907 42.3921 13.794V19H40.4921V18.012C39.9854 18.7467 39.1431 19.114 37.9651 19.114C37.1544 19.114 36.5021 18.8797 36.0081 18.411C35.5268 17.9297 35.2861 17.29 35.2861 16.492C35.2861 15.6053 35.5711 14.9213 36.1411 14.44C36.7111 13.9587 37.4648 13.718 38.4021 13.718C39.1748 13.718 39.8208 13.9017 40.3401 14.269C40.3654 13.509 40.2514 12.9517 39.9981 12.597C39.7574 12.2423 39.3394 12.065 38.7441 12.065C38.0854 12.065 37.3381 12.2613 36.5021 12.654ZM38.6871 17.271C39.4218 17.271 39.9728 17.0113 40.3401 16.492V15.618C39.9854 15.3393 39.4851 15.2 38.8391 15.2C38.4338 15.2 38.1044 15.295 37.8511 15.485C37.5978 15.675 37.4711 15.9347 37.4711 16.264C37.4711 16.568 37.5851 16.815 37.8131 17.005C38.0411 17.1823 38.3324 17.271 38.6871 17.271ZM51.054 5.491L52.194 7.277C51.89 7.657 51.51 7.93567 51.054 8.113C50.6487 8.25233 50.142 8.39167 49.534 8.531C48.9387 8.645 48.4447 8.80333 48.052 9.006C47.0007 9.5 46.3863 10.564 46.209 12.198H46.247C46.513 11.7293 46.9247 11.3493 47.482 11.058C48.0393 10.754 48.6283 10.602 49.249 10.602C50.427 10.602 51.3707 10.982 52.08 11.742C52.7893 12.5147 53.144 13.5343 53.144 14.801C53.144 16.0297 52.726 17.0747 51.89 17.936C51.054 18.7847 49.9773 19.209 48.66 19.209C47.2287 19.209 46.095 18.7213 45.259 17.746C44.4357 16.7707 44.024 15.4533 44.024 13.794C44.024 10.146 45.1007 7.85333 47.254 6.916C47.7227 6.71333 48.242 6.56133 48.812 6.46C49.458 6.33333 49.933 6.213 50.237 6.099C50.541 5.97233 50.8133 5.76967 51.054 5.491ZM46.361 14.25C46.3737 15.1113 46.5827 15.8143 46.988 16.359C47.3933 16.9037 47.9317 17.176 48.603 17.176C49.2617 17.176 49.7937 16.9607 50.199 16.53C50.6043 16.0993 50.807 15.5547 50.807 14.896C50.807 14.2247 50.617 13.68 50.237 13.262C49.8697 12.844 49.3567 12.635 48.698 12.635C48.128 12.635 47.634 12.787 47.216 13.091C46.798 13.3823 46.513 13.7687 46.361 14.25ZM57.2262 22.8H55.0412V10.45H57.2262V11.267C57.5049 10.963 57.8849 10.716 58.3662 10.526C58.8475 10.336 59.3479 10.241 59.8672 10.241C61.0452 10.241 61.9825 10.6463 62.6792 11.457C63.3885 12.2803 63.7432 13.3253 63.7432 14.592C63.7432 15.922 63.3252 17.024 62.4892 17.898C61.6532 18.772 60.5639 19.209 59.2212 19.209C58.3599 19.209 57.6949 19.0697 57.2262 18.791V22.8ZM59.1832 12.293C58.4232 12.293 57.7709 12.6033 57.2262 13.224V16.682C57.7455 17.0113 58.3472 17.176 59.0312 17.176C59.7532 17.176 60.3295 16.9417 60.7602 16.473C61.2035 16.0043 61.4252 15.3963 61.4252 14.649C61.4252 13.9397 61.2225 13.3697 60.8172 12.939C60.4245 12.5083 59.8799 12.293 59.1832 12.293ZM68.8279 19H65.6359V10.45H67.8209V12.787H68.9989C70.2783 12.787 71.2219 13.053 71.8299 13.585C72.4506 14.117 72.7609 14.839 72.7609 15.751C72.7609 16.7263 72.4316 17.5117 71.7729 18.107C71.1143 18.7023 70.1326 19 68.8279 19ZM68.8089 14.535H67.8209V17.1H68.7899C69.8919 17.1 70.4429 16.6757 70.4429 15.827C70.4429 14.9657 69.8983 14.535 68.8089 14.535ZM87.1954 19H78.8544V17.252C80.4378 15.694 81.5144 14.5857 82.0844 13.927C83.6044 12.1663 84.3644 10.678 84.3644 9.462C84.3644 8.91733 84.2188 8.493 83.9274 8.189C83.6361 7.885 83.2181 7.733 82.6734 7.733C82.2048 7.733 81.7994 7.89133 81.4574 8.208C81.1281 8.52467 80.8938 8.96167 80.7544 9.519L78.9304 8.702C79.1204 7.72667 79.5701 6.96033 80.2794 6.403C81.0014 5.833 81.8818 5.548 82.9204 5.548C84.1238 5.548 85.0548 5.89 85.7134 6.574C86.3721 7.24533 86.7014 8.06233 86.7014 9.025C86.7014 11.5203 85.0294 14.1677 81.6854 16.967H87.1954V19ZM94.2958 5.548C95.7651 5.548 96.8735 6.156 97.6208 7.372C98.3681 8.60067 98.7418 10.26 98.7418 12.35C98.7418 14.5033 98.3681 16.1753 97.6208 17.366C96.8735 18.5567 95.7778 19.152 94.3338 19.152C92.8771 19.152 91.7625 18.5503 90.9898 17.347C90.2171 16.1437 89.8308 14.478 89.8308 12.35C89.8308 10.2093 90.2108 8.54367 90.9708 7.353C91.7308 6.14967 92.8391 5.548 94.2958 5.548ZM92.1678 12.35C92.1678 15.5293 92.8898 17.119 94.3338 17.119C95.0811 17.119 95.6131 16.7453 95.9298 15.998C96.2591 15.2507 96.4238 14.0347 96.4238 12.35C96.4238 10.678 96.2591 9.46833 95.9298 8.721C95.6005 7.97367 95.0558 7.6 94.2958 7.6C93.5485 7.6 93.0038 7.98633 92.6618 8.759C92.3325 9.519 92.1678 10.716 92.1678 12.35ZM109.832 19H101.491V17.252C103.074 15.694 104.151 14.5857 104.721 13.927C106.241 12.1663 107.001 10.678 107.001 9.462C107.001 8.91733 106.855 8.493 106.564 8.189C106.273 7.885 105.855 7.733 105.31 7.733C104.841 7.733 104.436 7.89133 104.094 8.208C103.765 8.52467 103.53 8.96167 103.391 9.519L101.567 8.702C101.757 7.72667 102.207 6.96033 102.916 6.403C103.638 5.833 104.518 5.548 105.557 5.548C106.76 5.548 107.691 5.89 108.35 6.574C109.009 7.24533 109.338 8.06233 109.338 9.025C109.338 11.5203 107.666 14.1677 104.322 16.967H109.832V19ZM114.634 10.013L113.494 8.208L116.895 5.662H118.453V19H116.268V8.778L114.634 10.013Z" fill="#212121"/>
<g opacity="0.2">
<path fill-rule="evenodd" clip-rule="evenodd" d="M270.457 17.957L269.043 16.5428L274.836 10.7499L269.043 4.95703L270.457 3.54282L277.664 10.7499L270.457 17.957Z" fill="black"/>
</g>
<path fill-rule="evenodd" clip-rule="evenodd" d="M251.543 3.54297L252.957 4.95718L247.164 10.7501L252.957 16.543L251.543 17.9572L244.336 10.7501L251.543 3.54297Z" fill="#212121"/>
</svg>
