<svg width="22" height="22" viewBox="0 0 22 22" fill="none" xmlns="http://www.w3.org/2000/svg">
<path fill-rule="evenodd" clip-rule="evenodd" d="M16.1678 6.51727V6.51727C15.8259 6.51727 15.5161 6.32019 15.3703 6.01219C15.1073 5.45485 14.7727 4.7426 14.5747 4.35485C14.2823 3.77827 13.8083 3.44277 13.152 3.43819C13.141 3.43727 8.85834 3.43727 8.84734 3.43819C8.19101 3.44277 7.71801 3.77827 7.42467 4.35485C7.22759 4.7426 6.89301 5.45485 6.62992 6.01219C6.48417 6.32019 6.17342 6.51727 5.83242 6.51727V6.51727C4.00276 6.51727 2.52051 7.99952 2.52051 9.82827V15.2696C2.52051 17.0974 4.00276 18.5806 5.83242 18.5806H16.1678C17.9966 18.5806 19.4788 17.0974 19.4788 15.2696V9.82827C19.4788 7.99952 17.9966 6.51727 16.1678 6.51727Z" stroke="#9E9E9E" stroke-width="1.5" stroke-linecap="round" stroke-linejoin="round"/>
<path fill-rule="evenodd" clip-rule="evenodd" d="M8.08603 12.223C8.08511 13.8299 9.39686 15.1444 11.001 15.1435C12.6024 15.1417 13.9105 13.8327 13.9133 12.2294C13.916 10.6197 12.6089 9.30799 11.0029 9.30615C9.3877 9.30432 8.0732 10.6381 8.08603 12.223Z" stroke="#9E9E9E" stroke-width="1.5" stroke-linecap="round" stroke-linejoin="round"/>
<path d="M15.4943 10.0788C15.4057 10.0697 15.3183 10.0466 15.2203 10.0072C15.1113 9.95879 15.017 9.8972 14.9257 9.80454C14.7619 9.63023 14.667 9.40227 14.667 9.16711C14.667 9.0422 14.6925 8.91839 14.7424 8.80624C14.7924 8.69262 14.8516 8.59677 14.9587 8.49251C15.0401 8.42159 15.1235 8.36452 15.2375 8.31429C15.5757 8.18029 15.9779 8.26036 16.2293 8.51163C16.3046 8.58585 16.3681 8.67543 16.4033 8.75097L16.4242 8.80453C16.4748 8.91839 16.5003 9.0422 16.5003 9.16711C16.5003 9.40703 16.4067 9.62892 16.2328 9.81362C16.0825 9.96491 15.8851 10.0579 15.6746 10.0788L15.5837 10.0833L15.4943 10.0788Z" fill="#9E9E9E"/>
</svg>
