<svg width="184" height="123" viewBox="0 0 184 123" fill="none" xmlns="http://www.w3.org/2000/svg">
<g clip-path="url(#clip0_2896_30705)">
<rect x="1.23022" y="0.984375" width="141.381" height="120.139" rx="3.5" fill="white" stroke="#E6E6E6"/>
<path d="M24.504 111.162C30.2349 111.162 34.8806 106.579 34.8806 100.925C34.8806 95.2709 30.2349 90.6875 24.504 90.6875C18.7732 90.6875 14.1274 95.2709 14.1274 100.925C14.1274 106.579 18.7732 111.162 24.504 111.162Z" fill="#E6E6E6"/>
<path d="M48.4697 94.1016C48.011 94.1016 47.5711 94.2813 47.2468 94.6013C46.9224 94.9213 46.7402 95.3553 46.7402 95.8078C46.7402 96.2603 46.9224 96.6943 47.2468 97.0143C47.5711 97.3343 48.011 97.514 48.4697 97.514H130C130.459 97.514 130.898 97.3343 131.223 97.0143C131.547 96.6943 131.729 96.2603 131.729 95.8078C131.729 95.3553 131.547 94.9213 131.223 94.6013C130.898 94.2813 130.459 94.1016 130 94.1016H48.4697Z" fill="#E6E6E6"/>
<path d="M48.4703 104.336C48.2429 104.336 48.0178 104.38 47.8076 104.465C47.5975 104.551 47.4066 104.676 47.2457 104.835C47.0849 104.993 46.9572 105.181 46.8702 105.389C46.7831 105.596 46.7383 105.818 46.7383 106.042C46.7383 106.266 46.7831 106.489 46.8702 106.696C46.9572 106.903 47.0849 107.091 47.2457 107.25C47.4066 107.408 47.5975 107.534 47.8076 107.619C48.0178 107.705 48.2429 107.749 48.4703 107.748H83.553C84.0112 107.748 84.4505 107.568 84.7742 107.248C85.098 106.928 85.2799 106.494 85.2799 106.042C85.2799 105.59 85.098 105.156 84.7742 104.837C84.4505 104.517 84.0112 104.337 83.553 104.336H48.4703Z" fill="#E6E6E6"/>
<path d="M173.37 81.0879H35.813C35.1376 81.0872 34.4902 80.8221 34.0126 80.351C33.5351 79.8798 33.2664 79.241 33.2656 78.5747V19.0171C33.2664 18.3508 33.535 17.712 34.0126 17.2409C34.4901 16.7697 35.1376 16.5047 35.813 16.5039H173.37C174.046 16.5047 174.693 16.7697 175.171 17.2409C175.648 17.712 175.917 18.3508 175.918 19.0171V78.5747C175.917 79.241 175.648 79.8798 175.171 80.351C174.693 80.8221 174.046 81.0872 173.37 81.0879Z" fill="#EAACAC"/>
<path d="M59.375 44.9448H64.875V53.1186H59.375V44.9448ZM86.875 36.771V64.0171C86.875 64.2493 86.8151 64.4777 86.701 64.6805C86.5869 64.8834 86.4223 65.0539 86.2229 65.176C86.0235 65.2981 85.7959 65.3676 85.5618 65.3781C85.3276 65.3885 85.0946 65.3394 84.885 65.2355L80 62.8156L75.115 65.2355C74.924 65.3301 74.7135 65.3794 74.5 65.3794C74.2865 65.3794 74.076 65.3301 73.885 65.2355L69 62.8156L64.115 65.2355C63.9241 65.3302 63.7135 65.3795 63.5 65.3795C63.2865 65.3795 63.0759 65.3302 62.885 65.2355L58 62.8156L53.115 65.2355C52.9054 65.3394 52.6724 65.3885 52.4382 65.3781C52.2041 65.3676 51.9765 65.2981 51.7771 65.176C51.5777 65.0539 51.4131 64.8834 51.299 64.6805C51.1849 64.4777 51.125 64.2493 51.125 64.0171V36.771C51.1258 36.0486 51.4158 35.3561 51.9314 34.8453C52.4469 34.3345 53.1459 34.0472 53.875 34.0464H84.125C84.8541 34.0472 85.5531 34.3345 86.0686 34.8453C86.5842 35.3561 86.8742 36.0486 86.875 36.771ZM67.625 43.5825C67.625 43.2212 67.4801 42.8747 67.2223 42.6192C66.9644 42.3638 66.6147 42.2202 66.25 42.2202H58C57.6353 42.2202 57.2856 42.3638 57.0277 42.6192C56.7699 42.8747 56.625 43.2212 56.625 43.5825V54.4809C56.625 54.8422 56.7699 55.1887 57.0277 55.4442C57.2856 55.6997 57.6353 55.8432 58 55.8432H66.25C66.6147 55.8432 66.9644 55.6997 67.2223 55.4442C67.4801 55.1887 67.625 54.8422 67.625 54.4809V43.5825ZM81.375 51.7563C81.375 51.395 81.2301 51.0485 80.9723 50.7931C80.7144 50.5376 80.3647 50.394 80 50.394H71.75C71.3853 50.394 71.0356 50.5376 70.7777 50.793C70.5199 51.0485 70.375 51.395 70.375 51.7563C70.375 52.1176 70.5199 52.4641 70.7777 52.7196C71.0356 52.9751 71.3853 53.1186 71.75 53.1186H80C80.3647 53.1186 80.7144 52.9751 80.9723 52.7196C81.2301 52.4641 81.375 52.1176 81.375 51.7563ZM81.375 46.3071C81.375 45.9458 81.2301 45.5993 80.9723 45.3438C80.7144 45.0884 80.3647 44.9448 80 44.9448H71.75C71.3853 44.9448 71.0356 45.0883 70.7777 45.3438C70.5199 45.5993 70.375 45.9458 70.375 46.3071C70.375 46.6684 70.5199 47.0149 70.7777 47.2704C71.0356 47.5259 71.3853 47.6694 71.75 47.6694H80C80.3647 47.6694 80.7144 47.5259 80.9723 47.2704C81.2301 47.0149 81.375 46.6684 81.375 46.3071Z" fill="white"/>
<rect x="99" y="37.1445" width="56" height="3.96306" rx="1.98153" fill="white"/>
<rect x="99" y="47.0503" width="56" height="3.96306" rx="1.98153" fill="white"/>
<rect x="99" y="56.957" width="41" height="3.96306" rx="1.98153" fill="white"/>
</g>
<defs>
<clipPath id="clip0_2896_30705">
<rect width="184" height="121.864" fill="white" transform="translate(0 0.484375)"/>
</clipPath>
</defs>
</svg>
