<svg width="20" height="20" viewBox="0 0 20 20" fill="none" xmlns="http://www.w3.org/2000/svg">
<path d="M3.54912 13.8281C2.6173 12.2572 2.29097 10.4002 2.6314 8.60583C2.97184 6.81142 3.95563 5.20301 5.39803 4.08261C6.84044 2.96222 8.64224 2.40692 10.4651 2.52099C12.2879 2.63506 14.0065 3.41065 15.2979 4.70212C16.5894 5.99359 17.365 7.71211 17.4791 9.53496C17.5932 11.3578 17.0379 13.1596 15.9175 14.602C14.7971 16.0444 13.1887 17.0282 11.3943 17.3687C9.59988 17.7091 7.74291 17.3828 6.17207 16.451L6.17209 16.4509L3.58173 17.191C3.47456 17.2216 3.36115 17.223 3.25325 17.1951C3.14536 17.1671 3.0469 17.1108 2.96809 17.032C2.88927 16.9532 2.83297 16.8547 2.80501 16.7468C2.77705 16.6389 2.77846 16.5255 2.80908 16.4184L3.54918 13.828L3.54912 13.8281Z" stroke="#616161" stroke-width="1.5" stroke-linecap="round" stroke-linejoin="round"/>
<path d="M10 10.7812C10.4315 10.7812 10.7812 10.4315 10.7812 10C10.7812 9.56853 10.4315 9.21875 10 9.21875C9.56853 9.21875 9.21875 9.56853 9.21875 10C9.21875 10.4315 9.56853 10.7812 10 10.7812Z" fill="#616161"/>
<path d="M6.25 10.7812C6.68147 10.7812 7.03125 10.4315 7.03125 10C7.03125 9.56853 6.68147 9.21875 6.25 9.21875C5.81853 9.21875 5.46875 9.56853 5.46875 10C5.46875 10.4315 5.81853 10.7812 6.25 10.7812Z" fill="#616161"/>
<path d="M13.75 10.7812C14.1815 10.7812 14.5312 10.4315 14.5312 10C14.5312 9.56853 14.1815 9.21875 13.75 9.21875C13.3185 9.21875 12.9688 9.56853 12.9688 10C12.9688 10.4315 13.3185 10.7812 13.75 10.7812Z" fill="#616161"/>
</svg>
