<svg width="72" height="72" viewBox="0 0 72 72" fill="none" xmlns="http://www.w3.org/2000/svg">
<path d="M36 6.75C30.2149 6.75 24.5597 8.46548 19.7496 11.6795C14.9394 14.8935 11.1904 19.4618 8.97654 24.8065C6.76267 30.1512 6.18343 36.0324 7.31204 41.7064C8.44066 47.3803 11.2265 52.5922 15.3171 56.6829C19.4078 60.7736 24.6197 63.5593 30.2936 64.688C35.9676 65.8166 41.8488 65.2373 47.1935 63.0235C52.5382 60.8096 57.1065 57.0606 60.3205 52.2504C63.5345 47.4403 65.25 41.7851 65.25 36C65.2411 28.2452 62.1565 20.8105 56.673 15.327C51.1895 9.84353 43.7548 6.75896 36 6.75ZM49.9307 30.8782L33.4292 46.6282C33.0096 47.0274 32.4527 47.25 31.8736 47.25C31.2944 47.25 30.7375 47.0274 30.3179 46.6282L22.0693 38.7532C21.6384 38.3404 21.3889 37.7734 21.3757 37.1768C21.3625 36.5802 21.5867 36.0028 21.9989 35.5713C22.4112 35.1398 22.9778 34.8897 23.5744 34.8757C24.171 34.8617 24.7487 35.0851 25.1807 35.4968L31.8735 41.8887L46.8193 27.6218C47.2513 27.2101 47.8291 26.9867 48.4256 27.0007C49.0222 27.0147 49.5889 27.2648 50.0011 27.6963C50.4134 28.1278 50.6375 28.7052 50.6243 29.3018C50.6111 29.8984 50.3616 30.4654 49.9307 30.8782Z" fill="#E0E0E0"/>
</svg>
