<svg width="28" height="28" viewBox="0 0 28 28" fill="none" xmlns="http://www.w3.org/2000/svg">
<path d="M14 2.625C11.7502 2.625 9.551 3.29213 7.68039 4.54203C5.80978 5.79193 4.35182 7.56847 3.49088 9.64698C2.62993 11.7255 2.40467 14.0126 2.84357 16.2192C3.28248 18.4257 4.36584 20.4525 5.95667 22.0433C7.54749 23.6342 9.57432 24.7175 11.7809 25.1564C13.9874 25.5953 16.2745 25.3701 18.353 24.5091C20.4315 23.6482 22.2081 22.1902 23.458 20.3196C24.7079 18.449 25.375 16.2498 25.375 14C25.3715 10.9842 24.172 8.09298 22.0395 5.96051C19.907 3.82804 17.0158 2.62849 14 2.625ZM19.4175 12.0082L13.0002 18.1332C12.8371 18.2884 12.6205 18.375 12.3953 18.375C12.1701 18.375 11.9535 18.2884 11.7903 18.1332L8.58252 15.0707C8.41494 14.9101 8.31792 14.6897 8.31279 14.4577C8.30765 14.2256 8.39481 14.0011 8.55513 13.8333C8.71545 13.6655 8.93581 13.5682 9.16781 13.5628C9.39982 13.5573 9.62449 13.6442 9.79249 13.8043L12.3953 16.29L18.2075 10.7418C18.3755 10.5817 18.6002 10.4948 18.8322 10.5003C19.0642 10.5057 19.2846 10.603 19.4449 10.7708C19.6052 10.9386 19.6924 11.1631 19.6872 11.3952C19.6821 11.6272 19.5851 11.8476 19.4175 12.0082Z" fill="#9DE6A9"/>
</svg>
