<svg width="96" height="96" viewBox="0 0 96 96" fill="none" xmlns="http://www.w3.org/2000/svg">
<path d="M48 9C40.2865 9 32.7463 11.2873 26.3328 15.5727C19.9193 19.8581 14.9205 25.949 11.9687 33.0753C9.0169 40.2017 8.24457 48.0433 9.74939 55.6085C11.2542 63.1738 14.9686 70.1229 20.4229 75.5772C25.8771 81.0314 32.8262 84.7458 40.3915 86.2506C47.9568 87.7554 55.7984 86.9831 62.9247 84.0313C70.051 81.0795 76.142 76.0808 80.4273 69.6672C84.7127 63.2537 87 55.7135 87 48C86.9881 37.6602 82.8753 27.7474 75.564 20.436C68.2527 13.1247 58.3398 9.01195 48 9V9ZM66.5742 41.1709L44.5723 62.1709C44.0129 62.7032 43.2702 63 42.4981 63C41.7259 63 40.9833 62.7032 40.4238 62.1709L29.4258 51.6709C28.8512 51.1205 28.5186 50.3646 28.501 49.5691C28.4834 48.7736 28.7822 48.0037 29.3319 47.4284C29.8815 46.8531 30.6371 46.5195 31.4325 46.5009C32.2279 46.4823 32.9983 46.7802 33.5742 47.3291L42.4981 55.8516L62.4258 36.8291C63.0018 36.2802 63.7721 35.9823 64.5675 36.0009C65.363 36.0195 66.1185 36.3531 66.6682 36.9284C67.2178 37.5037 67.5167 38.2736 67.4991 39.0691C67.4814 39.8646 67.1488 40.6205 66.5742 41.1709V41.1709Z" fill="#E0E0E0"/>
</svg>
