<svg width="24" height="24" viewBox="0 0 24 24" fill="none" xmlns="http://www.w3.org/2000/svg">
<path d="M10.5 19.5L10.5 4.5C10.5 4.08579 10.1642 3.75 9.75 3.75L5.25 3.75C4.83579 3.75 4.5 4.08579 4.5 4.5L4.5 19.5C4.5 19.9142 4.83579 20.25 5.25 20.25H9.75C10.1642 20.25 10.5 19.9142 10.5 19.5Z" stroke="#769FCD" stroke-width="2" stroke-linecap="round" stroke-linejoin="round"/>
<path d="M19.5 19.5V4.5C19.5 4.08579 19.1642 3.75 18.75 3.75L14.25 3.75C13.8358 3.75 13.5 4.08579 13.5 4.5V19.5C13.5 19.9142 13.8358 20.25 14.25 20.25H18.75C19.1642 20.25 19.5 19.9142 19.5 19.5Z" stroke="#769FCD" stroke-width="2" stroke-linecap="round" stroke-linejoin="round"/>
</svg>
