<svg width="20" height="20" viewBox="0 0 20 20" fill="none" xmlns="http://www.w3.org/2000/svg">
<path d="M10 12.5C11.7259 12.5 13.125 11.1009 13.125 9.375C13.125 7.64911 11.7259 6.25 10 6.25C8.27411 6.25 6.875 7.64911 6.875 9.375C6.875 11.1009 8.27411 12.5 10 12.5Z" stroke="#8E9AA6" stroke-width="1.5" stroke-linecap="round" stroke-linejoin="round"/>
<path d="M4.9844 15.5761C5.45519 14.6505 6.17293 13.8732 7.05817 13.3303C7.94342 12.7874 8.96163 12.5 10.0001 12.5C11.0386 12.5 12.0568 12.7874 12.942 13.3303C13.8273 13.8732 14.545 14.6505 15.0158 15.5761" stroke="#8E9AA6" stroke-width="1.5" stroke-linecap="round" stroke-linejoin="round"/>
<path d="M13.75 4.375H17.5" stroke="#8E9AA6" stroke-width="1.5" stroke-linecap="round" stroke-linejoin="round"/>
<path d="M17.0732 7.50002C17.619 9.04725 17.6418 10.7308 17.1382 12.2923C16.6345 13.8537 15.6323 15.2067 14.2853 16.1434C12.9383 17.0802 11.3211 17.5489 9.68202 17.4776C8.0429 17.4063 6.4725 16.7989 5.21196 15.7488C3.95141 14.6986 3.07042 13.2638 2.70425 11.6645C2.33809 10.0652 2.507 8.38993 3.18505 6.89593C3.8631 5.40193 5.01279 4.1718 6.4576 3.39442C7.90241 2.61705 9.56244 2.33541 11.1828 2.59275" stroke="#8E9AA6" stroke-width="1.5" stroke-linecap="round" stroke-linejoin="round"/>
</svg>
