<svg width="938" height="455" viewBox="0 0 938 455" fill="none" xmlns="http://www.w3.org/2000/svg">
<rect width="938" height="455" rx="8" fill="#FAFAFA"/>
<path d="M262.082 183.6H267.414L252.41 217.08C250.88 220.552 249.268 223.073 247.574 224.644C245.92 226.215 243.936 227 241.622 227C239.39 227 237.633 226.483 236.352 225.45L238.212 220.986C239.286 221.73 240.402 222.102 241.56 222.102C243.668 222.102 245.445 220.635 246.892 217.7L247.636 216.088L227.982 183.6H233.934L250.178 210.818L262.082 183.6ZM308.455 227H303.185V188.56H279.625V227H274.355V183.6H308.455V227ZM351.154 218.816L353.262 222.784C351.816 224.272 349.852 225.45 347.372 226.318C344.892 227.186 342.288 227.62 339.56 227.62C333.071 227.62 327.76 225.595 323.626 221.544C319.576 217.411 317.55 211.996 317.55 205.3C317.55 198.852 319.493 193.541 323.378 189.366C327.264 185.109 332.534 182.98 339.188 182.98C344.686 182.98 349.088 184.385 352.394 187.196L349.976 191.164C347.083 189.015 343.508 187.94 339.25 187.94C334.538 187.94 330.674 189.552 327.656 192.776C324.639 195.959 323.13 200.133 323.13 205.3C323.13 210.467 324.68 214.662 327.78 217.886C330.963 221.069 335.055 222.66 340.056 222.66C344.272 222.66 347.972 221.379 351.154 218.816ZM360.16 223.652C360.16 222.784 360.49 222.019 361.152 221.358C361.854 220.697 362.702 220.366 363.694 220.366C364.562 220.366 365.326 220.697 365.988 221.358C366.649 222.019 366.98 222.784 366.98 223.652C366.98 224.644 366.67 225.491 366.05 226.194C365.43 226.855 364.644 227.186 363.694 227.186C362.702 227.186 361.854 226.855 361.152 226.194C360.49 225.491 360.16 224.644 360.16 223.652ZM379.095 223.652C379.095 222.784 379.426 222.019 380.087 221.358C380.79 220.697 381.637 220.366 382.629 220.366C383.497 220.366 384.262 220.697 384.923 221.358C385.584 222.019 385.915 222.784 385.915 223.652C385.915 224.644 385.605 225.491 384.985 226.194C384.365 226.855 383.58 227.186 382.629 227.186C381.637 227.186 380.79 226.855 380.087 226.194C379.426 225.491 379.095 224.644 379.095 223.652ZM398.031 223.652C398.031 222.784 398.361 222.019 399.023 221.358C399.725 220.697 400.573 220.366 401.565 220.366C402.433 220.366 403.197 220.697 403.859 221.358C404.52 222.019 404.851 222.784 404.851 223.652C404.851 224.644 404.541 225.491 403.921 226.194C403.301 226.855 402.515 227.186 401.565 227.186C400.573 227.186 399.725 226.855 399.023 226.194C398.361 225.491 398.031 224.644 398.031 223.652Z" fill="#424242"/>
<path d="M610.825 305.787C636.395 305.787 657.123 285.05 657.123 259.469C657.123 233.888 636.395 213.15 610.825 213.15C585.256 213.15 564.527 233.888 564.527 259.469C564.527 285.05 585.256 305.787 610.825 305.787Z" fill="#FF6584"/>
<path d="M1.66303 343.1L1 343.416V455H938V259L926.833 259.47L1.66303 343.1Z" fill="#F2F2F2"/>
<path d="M468.5 426.774C471.26 426.774 473.498 424.536 473.498 421.774C473.498 419.012 471.26 416.774 468.5 416.774C465.74 416.774 463.502 419.012 463.502 421.774C463.502 424.536 465.74 426.774 468.5 426.774Z" fill="#F2F2F2"/>
<path d="M611.367 308.111C611.367 340.745 575.668 328.792 531.632 328.792C487.595 328.792 451.896 340.745 451.896 308.111C451.896 275.477 487.595 210.613 531.632 210.613C575.668 210.613 611.367 275.477 611.367 308.111Z" fill="#2D9CDB"/>
<path d="M690.88 335.477C681.645 333.912 672.763 332.568 664.235 331.444L667.606 324.905C666.469 324.51 661.475 328.255 661.475 328.255L665.899 309.272C660.182 309.962 657.275 329.344 657.275 329.344L650.887 322.791L653.979 330.159C631.545 327.445 608.973 326.024 586.376 325.902L589.261 320.305C588.125 319.91 583.13 323.655 583.13 323.655L587.554 304.672C581.837 305.362 578.93 324.745 578.93 324.745L572.542 318.192L575.817 325.995C568.402 326.143 561.634 326.46 555.498 326.88L556.516 324.905C555.795 324.654 553.523 326.069 551.957 327.137C551.505 327.173 551.064 327.209 550.62 327.245L554.809 309.272C550.145 309.835 547.352 322.835 546.48 327.607C545.867 327.664 545.258 327.722 544.661 327.781L539.841 322.837C543.879 316.57 549.788 311.624 549.788 311.624C542.217 313.877 538.245 317.652 536.169 321.172C535.984 303.181 538.974 285.298 545.002 268.347C545.002 268.347 529.352 302.419 531.349 325.29L531.562 328.925C510.215 326.776 491.445 325.937 475.286 325.902L478.171 320.305C477.035 319.91 472.04 323.655 472.04 323.655L476.464 304.672C470.747 305.362 467.84 324.745 467.84 324.745L461.452 318.192L464.727 325.995C451.737 326.21 438.766 327.091 425.865 328.636C428.784 319.917 438.698 311.624 438.698 311.624C431.127 313.877 427.155 317.652 425.079 321.172C424.894 303.181 427.884 285.298 433.912 268.347C433.912 268.347 418.262 302.419 420.259 325.29L420.498 329.352C407.229 331.252 400.559 333.23 400.559 333.23L579.79 335.477C576.665 334.948 573.581 334.445 570.538 333.968L690.88 335.477ZM539.826 322.861L542.006 328.055C540.249 328.243 538.56 328.437 536.955 328.636C537.672 326.6 538.636 324.661 539.826 322.861Z" fill="#3F3D56"/>
<path d="M636.742 330.701C636.645 330.542 634.362 326.729 633.571 318.81C632.845 311.545 633.312 299.3 639.66 282.218C651.686 249.857 636.888 223.747 636.737 223.487L637.467 223.063C637.505 223.129 641.324 229.786 643.579 240.387C646.56 254.441 645.474 269.053 640.451 282.512C628.445 314.817 637.37 330.11 637.462 330.261L636.742 330.701Z" fill="#3F3D56"/>
<path d="M632.039 221.587C635.068 221.587 637.524 219.131 637.524 216.1C637.524 213.07 635.068 210.613 632.039 210.613C629.01 210.613 626.555 213.07 626.555 216.1C626.555 219.131 629.01 221.587 632.039 221.587Z" fill="#2D9CDB"/>
<path d="M649.336 241.846C652.365 241.846 654.82 239.39 654.82 236.359C654.82 233.329 652.365 230.873 649.336 230.873C646.307 230.873 643.852 233.329 643.852 236.359C643.852 239.39 646.307 241.846 649.336 241.846Z" fill="#3F3D56"/>
<path d="M637.523 255.353C640.552 255.353 643.008 252.896 643.008 249.866C643.008 246.835 640.552 244.379 637.523 244.379C634.495 244.379 632.039 246.835 632.039 249.866C632.039 252.896 634.495 255.353 637.523 255.353Z" fill="#2D9CDB"/>
<path d="M651.867 266.748C654.896 266.748 657.352 264.292 657.352 261.261C657.352 258.231 654.896 255.775 651.867 255.775C648.838 255.775 646.383 258.231 646.383 261.261C646.383 264.292 648.838 266.748 651.867 266.748Z" fill="#2D9CDB"/>
<path d="M633.305 284.475C636.334 284.475 638.789 282.019 638.789 278.988C638.789 275.958 636.334 273.501 633.305 273.501C630.276 273.501 627.82 275.958 627.82 278.988C627.82 282.019 630.276 284.475 633.305 284.475Z" fill="#3F3D56"/>
<path d="M640.053 330.903C640.053 330.903 634.569 317.396 651.022 307.267L640.053 330.903Z" fill="#3F3D56"/>
<path d="M633.309 330.658C633.309 330.658 630.813 316.295 611.494 316.418L633.309 330.658Z" fill="#3F3D56"/>
<path d="M544.617 96.4584C538.601 86.2888 526.699 85.8149 526.699 85.8149C526.699 85.8149 515.101 84.3311 507.661 99.8195C500.726 114.256 491.156 128.195 506.12 131.574L508.823 123.157L510.497 132.201C512.628 132.354 514.765 132.391 516.9 132.31C532.926 131.793 548.188 132.462 547.697 126.708C547.043 119.06 550.405 106.244 544.617 96.4584Z" fill="#2F2E41"/>
<path d="M501.256 178.536L499.99 201.328L537.116 205.127L538.381 181.491L525.725 173.472L501.256 178.536Z" fill="#A0616A"/>
<path d="M601.031 228.551C599.917 217.784 555.718 212.897 545.096 211.876L541.124 209.558L539.858 196.052C539.858 196.052 500.623 192.676 497.67 192.253C494.717 191.831 492.186 197.318 492.186 198.584C492.186 199.5 491.634 206.034 489.417 209.908C484.631 213.756 470.037 225.863 470.037 230.451C470.037 235.937 481.639 304.946 481.639 304.946L482.904 319.296L494.717 321.406L493.873 276.667C493.873 276.667 498.092 250.921 492.186 243.746V240.791C492.186 240.791 509.509 236.276 515.615 231.36C517.384 230.979 522.355 230.042 525.101 230.857C525.478 231.079 525.912 231.307 526.394 231.539C526.456 231.594 526.515 231.654 526.569 231.717C526.569 231.717 526.586 231.69 526.617 231.644C534.515 235.342 554.776 240.007 563.062 238.681C569.452 237.705 575.986 238.893 581.624 242.057C576.984 247.966 580.359 264.849 580.359 264.849L580.78 301.147L586.687 308.322H594.702V288.485C594.702 288.485 602.296 240.791 601.031 228.551Z" fill="#2F2E41"/>
<path d="M522.983 124.3C530.672 124.3 536.905 118.065 536.905 110.372C536.905 102.68 530.672 96.444 522.983 96.444C515.294 96.444 509.061 102.68 509.061 110.372C509.061 118.065 515.294 124.3 522.983 124.3Z" fill="#A0616A"/>
<path d="M514.545 119.236C514.545 119.236 516.654 128.521 513.701 129.365C511.365 130.14 509.105 131.129 506.951 132.32L503.576 143.293V154.267L544.498 158.91L545.764 155.111V149.624L541.123 141.183L539.014 139.073C539.014 139.073 529.733 128.943 531.842 119.236H514.545Z" fill="#A0616A"/>
<path d="M551.037 152.79C551.037 152.79 552.303 167.562 551.037 174.316C549.772 181.069 550.193 191.198 550.193 191.198L540.912 189.51V166.718L543.022 154.478L551.037 152.79Z" fill="#A0616A"/>
<path d="M528.157 94.4759C532.909 94.4759 536.762 90.6213 536.762 85.8663C536.762 81.1113 532.909 77.2566 528.157 77.2566C523.404 77.2566 519.551 81.1113 519.551 85.8663C519.551 90.6213 523.404 94.4759 528.157 94.4759Z" fill="#2F2E41"/>
<path d="M518.645 83.6006C518.646 81.4742 519.432 79.4232 520.854 77.8425C522.276 76.2618 524.232 75.2633 526.345 75.0394C525.145 74.9115 523.931 75.0377 522.783 75.4096C521.635 75.7816 520.577 76.3911 519.68 77.1985C518.782 78.0059 518.065 78.9931 517.573 80.0961C517.082 81.1991 516.828 82.3931 516.828 83.6006C516.828 84.8082 517.082 86.0022 517.573 87.1052C518.065 88.2082 518.782 89.1954 519.68 90.0028C520.577 90.8102 521.635 91.4197 522.783 91.7917C523.931 92.1636 525.145 92.2898 526.345 92.1619C524.232 91.938 522.276 90.9395 520.854 89.3588C519.432 87.7781 518.646 85.727 518.645 83.6006Z" fill="#2F2E41"/>
<path d="M541.958 95.4783L530.199 89.3158L513.961 91.8369L510.602 106.682L518.964 106.36L521.301 100.906V106.27L525.16 106.121L527.4 97.4385L528.799 106.682L542.518 106.402L541.958 95.4783Z" fill="#2F2E41"/>
<path d="M550.616 205.126H499.146V256.619H550.616V205.126Z" fill="#F2F2F2"/>
<path d="M490.708 145.615L483.114 176.848C483.114 176.848 480.161 183.601 486.911 187.822C493.661 192.042 508.849 197.529 508.849 197.529C508.849 197.529 522.349 216.1 524.036 208.503C525.724 200.906 513.911 191.198 513.911 191.198L493.239 178.114L501.255 156.167L490.708 145.615Z" fill="#A0616A"/>
<path d="M545.552 184.867C545.552 184.867 551.88 184.023 551.459 191.198C551.037 198.373 542.599 199.217 542.599 199.217C542.599 199.217 538.802 215.256 533.318 212.302C527.833 209.347 536.271 193.309 536.271 193.309L543.443 187.822L545.552 184.867Z" fill="#A0616A"/>
<path d="M504.841 142.871L511.591 128.943L498.091 133.586C498.091 133.586 490.497 137.384 490.075 146.248C489.653 155.111 499.779 159.754 499.779 159.754C499.779 159.754 501.466 172.416 500.622 174.104C499.779 175.793 500.622 182.546 500.622 182.546C500.622 182.546 516.865 178.114 524.88 183.601C532.896 189.088 539.435 185.922 539.435 185.922C539.435 185.922 539.013 175.371 542.388 173.682C545.763 171.994 548.717 163.975 545.764 158.91C545.764 158.91 552.514 159.754 552.092 153.423C551.67 147.092 548.295 141.605 542.81 139.073C537.326 136.54 536.72 136.136 536.72 136.136L544.498 150.469V154.267C544.498 154.267 530.728 145.474 517.105 144.741C512.66 144.538 508.296 145.975 504.841 148.78L504.841 148.78V142.871Z" fill="#2F2E41"/>
<path d="M494.061 305.122C494.061 305.122 500.047 307.941 501.808 308.998C503.569 310.054 510.612 307.941 509.203 314.282C507.794 320.624 501.808 326.613 501.808 326.613C501.808 326.613 498.991 329.784 498.991 331.897C498.991 334.011 491.948 350.217 483.496 349.513C475.045 348.808 476.453 340.353 476.453 340.353L478.214 331.193C478.214 331.193 481.736 315.691 482.44 316.044C483.144 316.396 484.905 318.862 484.905 318.862C484.905 318.862 493.709 315.339 494.061 305.122Z" fill="#D0CDE1"/>
<path d="M581.859 294.57C581.859 294.57 575.872 297.389 574.111 298.446C572.351 299.503 565.308 297.389 566.716 303.73C568.125 310.072 574.111 316.061 574.111 316.061C574.111 316.061 576.928 319.232 576.928 321.345C576.928 323.459 583.971 339.665 592.423 338.961C600.874 338.256 599.466 329.801 599.466 329.801L597.705 320.641C597.705 320.641 594.184 305.139 593.479 305.492C592.775 305.844 591.014 308.31 591.014 308.31C591.014 308.31 582.211 304.787 581.859 294.57Z" fill="#D0CDE1"/>
</svg>
