<svg width="32" height="32" viewBox="0 0 32 32" fill="none" xmlns="http://www.w3.org/2000/svg">
<path d="M13.9995 16C13.9995 17.1046 14.8949 18 15.9995 18C17.1041 18 17.9995 17.1046 17.9995 16C17.9995 14.8954 17.1041 14 15.9995 14C14.8949 14 13.9995 14.8954 13.9995 16Z" fill="white"/>
<path d="M13.9995 8C13.9995 9.10457 14.8949 10 15.9995 10C17.1041 10 17.9995 9.10457 17.9995 8C17.9995 6.89543 17.1041 6 15.9995 6C14.8949 6 13.9995 6.89543 13.9995 8Z" fill="white"/>
<path d="M13.9995 24C13.9995 25.1046 14.8949 26 15.9995 26C17.1041 26 17.9995 25.1046 17.9995 24C17.9995 22.8954 17.1041 22 15.9995 22C14.8949 22 13.9995 22.8954 13.9995 24Z" fill="white"/>
</svg>
