<svg width="22" height="22" viewBox="0 0 22 22" fill="none" xmlns="http://www.w3.org/2000/svg">
<path d="M9.62475 11C9.62475 11.7594 10.2404 12.375 10.9998 12.375C11.7591 12.375 12.3748 11.7594 12.3748 11C12.3748 10.2406 11.7591 9.625 10.9998 9.625C10.2404 9.625 9.62475 10.2406 9.62475 11Z" fill="#A9B6C9"/>
<path d="M9.62475 5.5C9.62475 6.25939 10.2404 6.875 10.9998 6.875C11.7591 6.875 12.3748 6.25939 12.3748 5.5C12.3748 4.74061 11.7591 4.125 10.9998 4.125C10.2404 4.125 9.62475 4.74061 9.62475 5.5Z" fill="#A9B6C9"/>
<path d="M9.62475 16.5C9.62475 17.2594 10.2404 17.875 10.9998 17.875C11.7591 17.875 12.3748 17.2594 12.3748 16.5C12.3748 15.7406 11.7591 15.125 10.9998 15.125C10.2404 15.125 9.62475 15.7406 9.62475 16.5Z" fill="#A9B6C9"/>
</svg>
