<svg width="24" height="24" viewBox="0 0 24 24" fill="none" xmlns="http://www.w3.org/2000/svg">
<g opacity="0.35">
<path d="M15.375 13.875C16.2034 13.875 16.875 13.2034 16.875 12.375C16.875 11.5466 16.2034 10.875 15.375 10.875C14.5466 10.875 13.875 11.5466 13.875 12.375C13.875 13.2034 14.5466 13.875 15.375 13.875Z" fill="#BDBDBD"/>
<path d="M15.375 7.5C16.2034 7.5 16.875 6.82843 16.875 6C16.875 5.17157 16.2034 4.5 15.375 4.5C14.5466 4.5 13.875 5.17157 13.875 6C13.875 6.82843 14.5466 7.5 15.375 7.5Z" fill="#BDBDBD"/>
<path d="M15.375 20.25C16.2034 20.25 16.875 19.5784 16.875 18.75C16.875 17.9216 16.2034 17.25 15.375 17.25C14.5466 17.25 13.875 17.9216 13.875 18.75C13.875 19.5784 14.5466 20.25 15.375 20.25Z" fill="#BDBDBD"/>
<path d="M9 13.875C9.82843 13.875 10.5 13.2034 10.5 12.375C10.5 11.5466 9.82843 10.875 9 10.875C8.17157 10.875 7.5 11.5466 7.5 12.375C7.5 13.2034 8.17157 13.875 9 13.875Z" fill="#BDBDBD"/>
<path d="M9 7.5C9.82843 7.5 10.5 6.82843 10.5 6C10.5 5.17157 9.82843 4.5 9 4.5C8.17157 4.5 7.5 5.17157 7.5 6C7.5 6.82843 8.17157 7.5 9 7.5Z" fill="#BDBDBD"/>
<path d="M9 20.25C9.82843 20.25 10.5 19.5784 10.5 18.75C10.5 17.9216 9.82843 17.25 9 17.25C8.17157 17.25 7.5 17.9216 7.5 18.75C7.5 19.5784 8.17157 20.25 9 20.25Z" fill="#BDBDBD"/>
</g>
</svg>
