<svg width="18" height="18" viewBox="0 0 18 18" fill="none" xmlns="http://www.w3.org/2000/svg">
<path d="M7.62812 9.0502C7.62812 9.79578 8.23254 10.4002 8.97812 10.4002C9.72371 10.4002 10.3281 9.79578 10.3281 9.0502C10.3281 8.30461 9.72371 7.7002 8.97812 7.7002C8.23254 7.7002 7.62812 8.30461 7.62812 9.0502Z" fill="#9E9E9E"/>
<path d="M7.62812 4.5502C7.62812 5.29578 8.23254 5.9002 8.97812 5.9002C9.72371 5.9002 10.3281 5.29578 10.3281 4.5502C10.3281 3.80461 9.72371 3.2002 8.97812 3.2002C8.23254 3.2002 7.62812 3.80461 7.62812 4.5502Z" fill="#9E9E9E"/>
<path d="M7.62812 13.5502C7.62812 14.2958 8.23254 14.9002 8.97812 14.9002C9.72371 14.9002 10.3281 14.2958 10.3281 13.5502C10.3281 12.8046 9.72371 12.2002 8.97812 12.2002C8.23254 12.2002 7.62812 12.8046 7.62812 13.5502Z" fill="#9E9E9E"/>
</svg>
