<svg width="32" height="32" viewBox="0 0 32 32" fill="none" xmlns="http://www.w3.org/2000/svg">
<g opacity="0.35">
<path d="M20.5 18.5C21.6046 18.5 22.5 17.6046 22.5 16.5C22.5 15.3954 21.6046 14.5 20.5 14.5C19.3954 14.5 18.5 15.3954 18.5 16.5C18.5 17.6046 19.3954 18.5 20.5 18.5Z" fill="#C4C8E2"/>
<path d="M20.5 10C21.6046 10 22.5 9.10457 22.5 8C22.5 6.89543 21.6046 6 20.5 6C19.3954 6 18.5 6.89543 18.5 8C18.5 9.10457 19.3954 10 20.5 10Z" fill="#C4C8E2"/>
<path d="M20.5 27C21.6046 27 22.5 26.1046 22.5 25C22.5 23.8954 21.6046 23 20.5 23C19.3954 23 18.5 23.8954 18.5 25C18.5 26.1046 19.3954 27 20.5 27Z" fill="#C4C8E2"/>
<path d="M12 18.5C13.1046 18.5 14 17.6046 14 16.5C14 15.3954 13.1046 14.5 12 14.5C10.8954 14.5 10 15.3954 10 16.5C10 17.6046 10.8954 18.5 12 18.5Z" fill="#C4C8E2"/>
<path d="M12 10C13.1046 10 14 9.10457 14 8C14 6.89543 13.1046 6 12 6C10.8954 6 10 6.89543 10 8C10 9.10457 10.8954 10 12 10Z" fill="#C4C8E2"/>
<path d="M12 27C13.1046 27 14 26.1046 14 25C14 23.8954 13.1046 23 12 23C10.8954 23 10 23.8954 10 25C10 26.1046 10.8954 27 12 27Z" fill="#C4C8E2"/>
</g>
</svg>
