<svg width="20" height="20" viewBox="0 0 20 20" fill="none" xmlns="http://www.w3.org/2000/svg">
<path d="M11.875 8.75H15" stroke="#8E9AA6" stroke-width="1.5" stroke-linecap="round" stroke-linejoin="round"/>
<path d="M11.875 11.25H15" stroke="#8E9AA6" stroke-width="1.5" stroke-linecap="round" stroke-linejoin="round"/>
<path d="M7.19531 11.25C8.23085 11.25 9.07031 10.4105 9.07031 9.375C9.07031 8.33947 8.23085 7.5 7.19531 7.5C6.15978 7.5 5.32031 8.33947 5.32031 9.375C5.32031 10.4105 6.15978 11.25 7.19531 11.25Z" stroke="#8E9AA6" stroke-width="1.5" stroke-linecap="round" stroke-linejoin="round"/>
<path d="M4.77441 13.125C4.91313 12.5883 5.2262 12.113 5.66445 11.7736C6.10269 11.4342 6.64127 11.25 7.19556 11.25C7.74985 11.25 8.28844 11.4341 8.7267 11.7735C9.16497 12.1128 9.47808 12.5882 9.61683 13.1248" stroke="#8E9AA6" stroke-width="1.5" stroke-linecap="round" stroke-linejoin="round"/>
<path d="M16.875 3.75H3.125C2.77982 3.75 2.5 4.02982 2.5 4.375V15.625C2.5 15.9702 2.77982 16.25 3.125 16.25H16.875C17.2202 16.25 17.5 15.9702 17.5 15.625V4.375C17.5 4.02982 17.2202 3.75 16.875 3.75Z" stroke="#8E9AA6" stroke-width="1.5" stroke-linecap="round" stroke-linejoin="round"/>
</svg>
