<svg width="96" height="96" viewBox="0 0 96 96" fill="none" xmlns="http://www.w3.org/2000/svg">
<path d="M45.8788 50.1215C45.8885 50.1312 45.8993 50.1394 45.9092 50.1489C45.97 50.2081 46.0324 50.2657 46.098 50.3196C46.1346 50.3496 46.1734 50.376 46.2111 50.4042C46.2518 50.4346 46.2917 50.466 46.334 50.4944C46.3776 50.5237 46.423 50.549 46.4678 50.5757C46.507 50.5992 46.5453 50.6237 46.5858 50.6453C46.6308 50.6695 46.6773 50.69 46.7233 50.7116C46.7661 50.7319 46.8082 50.7532 46.852 50.7715C46.8963 50.7898 46.9417 50.8046 46.9868 50.8207C47.034 50.8378 47.0809 50.8559 47.1292 50.8705C47.1741 50.8841 47.2197 50.8942 47.2651 50.9055C47.3145 50.918 47.3636 50.9319 47.414 50.942C47.4663 50.9522 47.5191 50.9584 47.5716 50.966C47.6159 50.9724 47.6593 50.9806 47.704 50.985C47.8025 50.9947 47.9012 51 48.0001 51C48.0989 51 48.1976 50.9947 48.2962 50.985C48.3408 50.9806 48.3842 50.9724 48.4285 50.966C48.4811 50.9585 48.5338 50.9522 48.5862 50.942C48.6365 50.9319 48.6856 50.9179 48.7351 50.9055C48.7805 50.8942 48.8261 50.8841 48.8709 50.8705C48.9193 50.8559 48.9661 50.8378 49.0134 50.8207C49.0584 50.8046 49.1038 50.7898 49.1481 50.7715C49.1919 50.7532 49.234 50.7319 49.2769 50.7116C49.3228 50.69 49.3693 50.6695 49.4144 50.6453C49.4548 50.6237 49.4931 50.5992 49.5323 50.5757C49.5772 50.549 49.6226 50.5237 49.6661 50.4944C49.7084 50.4661 49.7484 50.4346 49.789 50.4042C49.8267 50.376 49.8655 50.3496 49.9022 50.3196C49.969 50.2646 50.0325 50.2062 50.0944 50.1458C50.1031 50.1372 50.1127 50.1301 50.1213 50.1215L68.1213 32.1215C68.3999 31.8429 68.6209 31.5122 68.7717 31.1482C68.9225 30.7842 69.0001 30.3941 69.0001 30.0001C69.0002 29.6062 68.9226 29.216 68.7718 28.852C68.6211 28.4881 68.4001 28.1573 68.1215 27.8787C67.843 27.6001 67.5122 27.3791 67.1483 27.2283C66.7843 27.0776 66.3942 26.9999 66.0002 26.9999C65.6062 26.9999 65.2161 27.0775 64.8521 27.2282C64.4881 27.379 64.1574 27.6 63.8788 27.8785L51.0001 40.7574V9C51.0001 8.20435 50.684 7.44129 50.1214 6.87868C49.5588 6.31607 48.7957 6 48.0001 6C47.2044 6 46.4414 6.31607 45.8787 6.87868C45.3161 7.44129 45.0001 8.20435 45.0001 9V40.7574L32.1213 27.8785C31.8428 27.6 31.512 27.379 31.148 27.2282C30.784 27.0775 30.3939 26.9999 29.9999 26.9999C29.606 26.9999 29.2159 27.0776 28.8519 27.2283C28.4879 27.3791 28.1572 27.6001 27.8786 27.8787C27.6 28.1573 27.3791 28.4881 27.2283 28.852C27.0776 29.216 27 29.6062 27 30.0001C27 30.3941 27.0776 30.7842 27.2284 31.1482C27.3792 31.5122 27.6002 31.8429 27.8788 32.1215L45.8788 50.1215Z" fill="#E0E0E0"/>
<path d="M84 45H63.728L54.364 54.364C52.6762 56.0518 50.387 57 48 57C45.613 57 43.3238 56.0518 41.636 54.364L32.272 45H12C10.4093 45.0018 8.88419 45.6345 7.75937 46.7594C6.63454 47.8842 6.00182 49.4093 6 51V75C6.00182 76.5907 6.63454 78.1158 7.75937 79.2406C8.88419 80.3655 10.4093 80.9982 12 81H84C85.5907 80.9982 87.1158 80.3655 88.2406 79.2406C89.3655 78.1158 89.9982 76.5907 90 75V51C89.9982 49.4093 89.3655 47.8842 88.2406 46.7594C87.1158 45.6345 85.5907 45.0018 84 45ZM70.5002 67.5C69.6102 67.5 68.7401 67.2361 68.0001 66.7416C67.2601 66.2471 66.6833 65.5443 66.3427 64.7221C66.0021 63.8998 65.913 62.995 66.0866 62.1221C66.2603 61.2492 66.6889 60.4474 67.3182 59.818C67.9475 59.1887 68.7494 58.7601 69.6223 58.5865C70.4952 58.4128 71.4 58.502 72.2223 58.8425C73.0445 59.1831 73.7473 59.7599 74.2418 60.4999C74.7363 61.24 75.0002 62.11 75.0002 63C75.0002 64.1935 74.5261 65.3381 73.6822 66.182C72.8383 67.0259 71.6937 67.5 70.5002 67.5Z" fill="#E0E0E0"/>
</svg>
