<svg width="18" height="18" viewBox="0 0 18 18" fill="none" xmlns="http://www.w3.org/2000/svg">
<g clip-path="url(#clip0_3008:78445)">
<path d="M17.6481 4.51259L9.17546 1.52322C9.06194 1.48314 8.93809 1.48314 8.82457 1.52322L0.351914 4.51259C0.141258 4.58691 0.000281671 4.7859 4.21419e-07 5.00928C-0.000280829 5.23266 0.140239 5.43197 0.350719 5.50678L8.82338 8.51886C8.8805 8.53918 8.94027 8.54934 9 8.54934C9.05977 8.54934 9.1195 8.53918 9.17662 8.51886L17.6493 5.50678C17.8598 5.43197 18.0002 5.23266 18 5.00928C17.9997 4.7859 17.8587 4.58691 17.6481 4.51259Z" fill="#BDBDBD"/>
<path d="M16.7349 11.551V6.95117L15.6802 7.32611V11.551C15.3625 11.7339 15.1484 12.0765 15.1484 12.4693C15.1484 12.8622 15.3625 13.2048 15.6802 13.3876V15.9792C15.6802 16.2705 15.9163 16.5066 16.2075 16.5066C16.4988 16.5066 16.7349 16.2705 16.7349 15.9792V13.3877C17.0525 13.2049 17.2666 12.8622 17.2666 12.4694C17.2666 12.0765 17.0526 11.7339 16.7349 11.551Z" fill="#BDBDBD"/>
<path d="M9.00002 9.60356C8.819 9.60356 8.64072 9.5728 8.47011 9.51215L3.70703 7.81885V10.1395C3.70703 10.7072 4.29931 11.1873 5.46741 11.5664C6.48557 11.8969 7.74016 12.0789 9.00002 12.0789C10.2599 12.0789 11.5144 11.8969 12.5326 11.5664C13.7007 11.1873 14.293 10.7072 14.293 10.1395V7.81885L9.52996 9.51215C9.35931 9.5728 9.18103 9.60356 9.00002 9.60356Z" fill="#BDBDBD"/>
</g>
<defs>
<clipPath id="clip0_3008:78445">
<rect width="18" height="18" fill="white"/>
</clipPath>
</defs>
</svg>
