<svg width="938" height="455" viewBox="0 0 938 455" fill="none" xmlns="http://www.w3.org/2000/svg">
<rect width="938" height="455" rx="8" fill="#FAFAFA"/>
<g clip-path="url(#clip0_2896:94615)">
<path d="M812.633 80.4998V293.976L494.47 293.976V80.4998L812.633 80.4998Z" fill="white" stroke="#E6E6E6"/>
<path d="M792.762 99.6497H698.258V201.835H792.762V99.6497Z" fill="#F2F2F2"/>
<path d="M548.86 105.827L639.969 105.827V99.6506L548.86 99.6506V105.827Z" fill="#E6E6E6"/>
<path d="M698.258 223.734H730.514V217.558H698.258V223.734Z" fill="#E6E6E6"/>
<path d="M699.389 234.962H791.629V228.786H699.389V234.962Z" fill="#E6E6E6"/>
<path d="M530.186 128.285L661.473 128.285V122.109L530.186 122.109V128.285Z" fill="#E6E6E6"/>
<path d="M530.186 145.691L661.473 145.691V139.515L530.186 139.515V145.691Z" fill="#E6E6E6"/>
<path d="M530.186 163.095L661.473 163.095V156.919L530.186 156.919V163.095Z" fill="#E6E6E6"/>
<path d="M530.186 180.5L661.473 180.5V174.324L530.186 174.324V180.5Z" fill="#E6E6E6"/>
<path d="M530.186 197.907L661.473 197.907V191.731L530.186 191.731V197.907Z" fill="#E6E6E6"/>
<path d="M530.186 215.31L661.473 215.31V209.134L530.186 209.134V215.31Z" fill="#E6E6E6"/>
<path d="M530.186 232.717L661.473 232.717V226.541L530.186 226.541V232.717Z" fill="#E6E6E6"/>
<path d="M712.45 158.001C713.849 157.014 715.392 156.246 717.026 155.724C727.387 151.9 738.243 149.555 749.269 148.761C758.856 148.086 769.247 148.887 776.735 154.865C777.899 155.713 778.852 156.815 779.521 158.086C780.463 160.103 780.177 162.447 779.872 164.65C779.804 165.504 779.587 166.34 779.231 167.121C778.223 169.024 775.742 169.691 773.587 169.463C771.433 169.235 769.411 168.33 767.285 167.911C765.97 167.683 764.639 167.549 763.305 167.508L749.974 166.792C741.685 166.347 733.287 165.909 725.156 167.569C722.652 168.016 720.234 168.843 717.985 170.021C716.128 171.055 714.877 172.54 713.154 170.629C710.126 167.272 708.451 161.102 712.45 158.001Z" fill="#2F2E41"/>
<path d="M733.106 163.85C733.106 163.85 751.036 155.875 757.837 165.077C764.638 174.278 754.127 170.598 754.127 170.598L742.38 174.278L729.396 171.824L733.106 163.85Z" fill="#F2F2F2"/>
<path d="M734.033 158.022C734.033 158.022 736.506 169.677 734.651 172.744C732.797 175.811 745.162 180.105 745.162 180.105L756.909 175.198C756.909 175.198 753.818 156.182 756.909 152.501L734.033 158.022Z" fill="#FFB9B9"/>
<path opacity="0.1" d="M734.033 158.022C734.033 158.022 736.506 169.677 734.651 172.744C732.797 175.811 745.162 180.105 745.162 180.105L756.909 175.198C756.909 175.198 753.818 156.182 756.909 152.501L734.033 158.022Z" fill="black"/>
<path d="M762.474 146.365C762.47 151.245 760.514 155.923 757.037 159.374C753.559 162.824 748.844 164.764 743.926 164.768C742.82 164.77 741.717 164.671 740.63 164.474C737.159 163.852 733.938 162.261 731.346 159.887C728.754 157.513 726.898 154.455 725.996 151.072C725.094 147.689 725.182 144.12 726.252 140.786C727.321 137.451 729.327 134.487 732.034 132.243C734.741 129.999 738.036 128.568 741.534 128.116C745.032 127.665 748.587 128.213 751.783 129.695C754.978 131.177 757.681 133.533 759.575 136.486C761.468 139.439 762.474 142.866 762.474 146.365Z" fill="#FFB9B9"/>
<path d="M773.672 202.398H714.52L715.861 196.621L721.667 171.518L728.378 167.021L728.384 167.015L731.536 164.898L733.103 163.848C733.103 163.848 734.031 164.269 735.101 164.842C735.412 165.016 735.729 165.196 736.046 165.387C736.052 165.381 736.052 165.387 736.052 165.387C736.565 165.682 737.053 166.019 737.512 166.392C737.597 166.47 737.67 166.538 737.744 166.611C738.921 167.779 742.356 173.977 748.037 170.805C748.324 170.648 748.602 170.476 748.869 170.288C750.35 169.271 751.762 168.159 753.096 166.959C754.29 165.875 755.066 165.039 755.699 164.46C755.984 164.179 756.308 163.941 756.661 163.753C756.928 163.614 757.226 163.543 757.527 163.545C759.383 163.545 761.856 167.223 761.856 167.223L761.93 167.436L761.936 167.453L769.739 190.697L773.672 202.398Z" fill="#F2F2F2"/>
<path d="M714.52 202.396H732.447C732.487 200.34 732.379 198.284 732.125 196.243C731.576 192.139 730.229 188.186 729.38 184.132C728.633 180.58 728.271 176.959 728.299 173.33C728.305 172.83 728.316 172.325 728.361 171.82C728.406 170.662 728.743 169.535 729.34 168.541C729.765 167.895 730.348 167.345 730.8 166.727C730.958 166.525 731.096 166.309 731.213 166.081V166.076C731.27 165.964 731.321 165.85 731.366 165.733C731.466 165.465 731.523 165.183 731.536 164.897C731.638 163.044 729.946 161.259 728.118 160.495C725.553 159.539 722.745 159.427 720.111 160.175C717.499 160.924 714.976 161.948 712.584 163.229C711.775 163.622 710.972 164.027 710.196 164.476C709.271 164.997 708.42 165.639 707.667 166.385C705.743 168.355 704.9 171.101 704.221 173.757C703.573 175.787 703.351 177.927 703.57 180.045C703.575 180.112 703.592 180.185 703.604 180.253C704.277 183.751 707.152 186.378 708.685 189.601C710.462 193.34 710.343 197.697 709.636 201.773C709.602 201.981 709.563 202.189 709.523 202.397H714.52V202.396Z" fill="#2F2E41"/>
<path d="M787.497 179.935C785.247 187.276 783.614 194.79 782.614 202.399H757.058C756.39 200.591 755.725 198.781 755.061 196.97C754.531 195.603 754.075 194.208 753.697 192.792C753.292 191.146 753.1 189.456 753.125 187.762C753.125 187.357 753.142 186.948 753.176 186.543C753.179 186.54 753.18 186.536 753.18 186.532C753.18 186.528 753.179 186.524 753.176 186.521C753.331 184.384 753.83 182.286 754.653 180.305C755.031 179.405 755.466 178.529 755.955 177.684C757.143 175.55 758.58 173.54 759.859 171.451C760.656 170.175 761.351 168.838 761.936 167.454C761.936 167.451 761.936 167.448 761.937 167.445C761.938 167.442 761.94 167.439 761.942 167.437C762.705 165.671 763.104 163.772 763.113 161.85C763.074 159.374 758.852 155.057 763.441 155.472C769.706 156.034 775.087 159.61 779.994 163.686C781.301 164.776 782.58 165.904 783.83 167.016C785.766 168.745 787.809 170.632 788.392 173.153C788.485 173.555 788.54 173.964 788.556 174.377C788.522 176.275 788.164 178.155 787.497 179.935Z" fill="#2F2E41"/>
<path d="M749.193 173.162C748.549 171.437 747.562 169.858 746.291 168.52C745.009 167.445 743.491 166.682 741.859 166.292C739.744 165.693 737.557 165.382 735.357 165.367C732.739 165.351 729.703 166.048 728.591 168.4C727.708 170.268 728.392 172.48 729.281 174.345C729.661 175.311 730.294 176.159 731.114 176.801C732.243 177.558 733.704 177.534 735.042 177.788C737.118 178.311 739.084 179.194 740.848 180.398L745.434 183.149L753.312 187.873C753.104 187.748 753.178 182.389 752.936 181.51C752.157 178.681 750.402 175.841 749.193 173.162Z" fill="#FFB9B9"/>
<path d="M762.007 136.777C761.677 135.677 760.95 134.735 759.965 134.133C760.015 132.954 759.87 131.775 759.533 130.643C758.41 127.348 755.749 127.537 753.239 126.08C752.149 125.448 752.217 124.89 751.649 123.852C750.906 122.491 749.793 121.364 748.437 120.6C746.826 119.582 745.126 118.533 743.221 118.404C739.216 118.133 736.146 121.87 732.318 123.07C730.631 123.598 728.818 123.62 727.123 124.12C725.427 124.62 723.735 125.813 723.482 127.55C723.365 128.352 723.571 129.175 723.453 129.977C723.217 131.571 721.808 132.687 720.865 133.997C718.779 136.896 719.017 140.991 720.686 144.145C721.037 144.798 721.439 145.422 721.889 146.013C722.028 147.503 722.459 148.953 723.159 150.279C724.827 153.433 727.698 155.79 730.696 157.748C730.451 156.702 730.302 155.636 730.252 154.563C730.209 154.205 730.256 153.843 730.388 153.508C730.722 152.815 731.605 152.631 732.277 152.252C733.671 151.466 734.217 149.727 734.258 148.137C734.298 146.547 733.959 144.955 734.126 143.373C734.133 143.01 734.216 142.651 734.371 142.322C734.526 141.992 734.748 141.698 735.025 141.459C735.539 141.167 736.126 141.028 736.718 141.058C739.573 140.942 742.557 140.89 745.075 139.551C745.887 139.015 746.76 138.577 747.676 138.245C749.817 137.691 752.004 139.18 753.238 141.002C754.471 142.823 755.086 144.991 756.225 146.873C757.363 148.755 759.329 150.433 761.529 150.21C761.653 150.21 761.776 150.185 761.889 150.135C762.002 150.085 762.104 150.012 762.187 149.92C762.282 149.751 762.324 149.558 762.308 149.365L762.431 141.019C762.533 139.591 762.389 138.157 762.007 136.777Z" fill="#2F2E41"/>
<path d="M713.09 192.512C713.491 195.796 713.735 199.092 713.82 202.399H698.258V189.424C698.337 189.109 698.422 188.8 698.524 188.492C699.497 185.516 701.54 183.023 703.311 180.435C703.396 180.305 703.487 180.176 703.571 180.047C704.325 178.955 704.973 177.796 705.507 176.583C705.762 175.988 706.169 173.108 706.599 172.861C708.444 171.799 709.943 176.336 710.198 177.347C711.103 180.946 711.89 184.578 712.484 188.245C712.716 189.665 712.918 191.087 713.09 192.512Z" fill="#2F2E41"/>
<path d="M791.731 202.397H756.006C755.701 201.684 755.401 200.971 755.084 200.264C752.856 195.264 749.976 190.577 746.516 186.323C745.946 185.76 745.575 185.029 745.458 184.24C745.446 183.912 745.527 183.587 745.69 183.302C746.234 182.297 747.671 181.708 748.837 181.23C750.042 180.749 751.149 180.057 752.107 179.187C752.955 178.43 753.604 177.48 753.998 176.419C754.103 176.107 754.182 175.788 754.235 175.464C754.399 175.678 754.569 175.897 754.733 176.11C755.135 176.638 755.542 177.16 755.955 177.682C759.917 182.729 764.268 187.704 769.741 190.696C771.17 191.487 772.68 192.125 774.245 192.6C774.395 192.665 774.557 192.699 774.72 192.699C774.884 192.699 775.046 192.665 775.196 192.6C775.427 192.412 775.575 192.142 775.609 191.848C776.096 189.826 776.265 187.743 776.622 185.694C777.277 181.965 778.536 178.367 780.351 175.038C781.364 173.168 784.657 166.335 786.746 170.641C787.345 171.882 787.949 173.127 788.557 174.375C788.936 175.167 789.32 175.953 789.705 176.744C791.125 179.256 791.773 182.125 791.567 184.998C791.624 190.803 791.678 196.603 791.731 202.397Z" fill="#2F2E41"/>
<path opacity="0.1" d="M714.52 202.398H717.616L715.861 196.621L713.332 188.294C713.361 189.704 713.28 191.114 713.089 192.511C712.707 195.398 711.874 198.209 710.621 200.843C710.378 201.354 710.118 201.87 709.908 202.398H714.52Z" fill="black"/>
<path opacity="0.1" d="M777.572 184.643C777.136 185.806 777.532 187.092 777.868 188.287C778.841 191.754 779.296 195.344 779.217 198.942C779.231 199.005 779.229 199.07 779.211 199.132C779.193 199.194 779.16 199.251 779.115 199.297C779.07 199.343 779.013 199.377 778.951 199.396C778.889 199.415 778.823 199.419 778.76 199.406C777.332 199.493 775.699 199.502 774.73 198.459L777.572 184.643Z" fill="black"/>
<path d="M124.5 296.185V82.7083H442.663V296.185H124.5Z" fill="white" stroke="#E6E6E6"/>
<path d="M238.877 101.858H144.373V204.043H238.877V101.858Z" fill="#F2F2F2"/>
<path d="M388.273 101.858H297.164V108.034H388.273V101.858Z" fill="#E6E6E6"/>
<path d="M177.76 219.764H145.504V225.94H177.76V219.764Z" fill="#E6E6E6"/>
<path d="M237.744 230.993H145.504V237.169H237.744V230.993Z" fill="#E6E6E6"/>
<path d="M406.945 124.316H275.658V130.492H406.945V124.316Z" fill="#E6E6E6"/>
<path d="M406.945 141.723H275.658V147.899H406.945V141.723Z" fill="#E6E6E6"/>
<path d="M406.945 159.128H275.658V165.304H406.945V159.128Z" fill="#E6E6E6"/>
<path d="M406.945 176.532H275.658V182.708H406.945V176.532Z" fill="#E6E6E6"/>
<path d="M406.945 193.937H275.658V200.113H406.945V193.937Z" fill="#E6E6E6"/>
<path d="M406.945 211.344H275.658V217.52H406.945V211.344Z" fill="#E6E6E6"/>
<path d="M406.945 228.748H275.658V234.924H406.945V228.748Z" fill="#E6E6E6"/>
<path d="M236.308 204.604H224.023C223.078 202.083 222.238 199.53 221.504 196.946C221.02 193.907 219.624 191.083 217.498 188.844C216.849 188.126 216.271 187.347 215.772 186.519C214.719 184.481 214.339 182.165 214.685 179.9C214.756 179.269 214.862 178.643 215.002 178.025C215.54 175.627 216.44 173.325 217.192 170.99C217.351 170.515 217.642 170.095 218.03 169.776C218.418 169.458 218.889 169.253 219.388 169.187C220.198 169.053 221.03 169.148 221.787 169.462C221.955 169.53 222.116 169.613 222.268 169.709C223.61 170.512 224.306 172.152 224.866 173.651C227.429 180.478 229.991 187.306 232.551 194.133C233.049 195.458 233.547 196.787 234.045 198.119C234.78 200.073 235.51 202.027 236.133 204.02C236.195 204.217 236.252 204.407 236.308 204.604Z" fill="#D0CDE1"/>
<path d="M185.162 114.745C182.108 115.768 179.34 118.162 178.715 121.3C178.425 122.755 178.603 124.267 178.359 125.73C177.793 129.122 175.108 131.714 172.633 134.12C170.157 136.527 167.6 139.324 167.419 142.758C167.222 146.518 169.97 150.041 169.495 153.777C168.942 158.118 164.321 160.93 163.179 165.156C162.417 167.978 163.351 171.017 164.889 173.508C167.819 178.256 172.828 181.479 178.162 183.207C183.495 184.935 189.176 185.298 194.787 185.356C201.618 185.427 209.035 184.846 214.168 180.372C217.1 177.794 218.942 174.212 219.323 170.343C219.811 165.161 217.631 159.807 219.134 154.821C220.081 151.683 222.454 148.817 222.1 145.561C221.753 142.377 218.951 140.12 217.028 137.548C215.232 135.146 214.143 132.31 213.075 129.514L209.422 119.947C208.704 118.066 207.916 116.088 206.315 114.854C203.319 112.543 198.502 112.997 194.998 113.474C191.748 113.916 188.288 113.697 185.162 114.745Z" fill="#2F2E41"/>
<path d="M187.99 146.274C187.99 146.274 188.347 156.917 187.275 157.982C186.202 159.046 191.565 166.141 191.565 166.141L201.22 165.786L206.226 161.884L201.935 156.208C201.935 156.208 200.147 146.984 201.577 144.855C203.008 142.727 187.99 146.274 187.99 146.274Z" fill="#A0616A"/>
<path opacity="0.1" d="M187.99 146.274C187.99 146.274 188.347 156.917 187.275 157.982C186.202 159.046 191.565 166.141 191.565 166.141L201.22 165.786L206.226 161.884L201.935 156.208C201.935 156.208 200.147 146.984 201.577 144.855C203.008 142.727 187.99 146.274 187.99 146.274Z" fill="black"/>
<path d="M193.888 150.352C200.997 150.352 206.76 144.634 206.76 137.581C206.76 130.527 200.997 124.809 193.888 124.809C186.779 124.809 181.016 130.527 181.016 137.581C181.016 144.634 186.779 150.352 193.888 150.352Z" fill="#A0616A"/>
<path d="M200.486 204.605H210.921C211.312 203.903 211.68 203.173 212.104 202.511V202.505C212.568 201.704 213.22 201.026 214.006 200.529C214.505 200.302 214.977 200.021 215.415 199.692C215.833 199.242 216.129 198.693 216.275 198.098C216.993 195.87 217.39 193.552 217.452 191.214C217.469 190.428 217.452 189.631 217.497 188.845C217.519 188.231 217.599 187.62 217.735 187.02C218.093 185.801 218.612 184.634 219.28 183.55C220.694 180.996 222.113 178.441 223.535 175.886C223.791 175.167 223.89 174.401 223.824 173.641C223.793 172.615 223.476 171.618 222.907 170.76C222.709 170.407 222.494 170.053 222.267 169.71C221.395 168.329 220.378 167.041 219.234 165.87C216.808 163.345 213.863 161.367 210.599 160.07C210.189 159.933 209.799 159.745 209.439 159.509C209.013 159.152 208.653 158.724 208.375 158.245C207.243 156.555 205.862 154.652 203.819 154.759C203.487 154.593 203.125 154.495 202.753 154.47C202.382 154.445 202.01 154.494 201.658 154.613C201.55 154.641 201.444 154.674 201.341 154.714C200.56 155.057 199.802 155.449 199.072 155.887C197.192 156.855 195.062 157.239 192.96 156.988C192.713 156.971 192.472 156.91 192.247 156.808C192.008 156.658 191.788 156.481 191.591 156.28C191.074 155.861 190.455 155.585 189.796 155.48C189.136 155.376 188.461 155.446 187.839 155.685C187.254 155.892 186.738 156.253 186.345 156.73C185.971 157.196 185.711 157.757 185.298 158.195C184.228 159.329 182.463 159.374 180.901 159.368C177.657 159.278 174.414 159.574 171.241 160.25C168.454 160.863 165.85 162.113 163.635 163.899L163.63 163.905C163.324 164.163 163.041 164.427 162.758 164.708C162.115 165.309 161.602 166.035 161.253 166.841C160.823 167.942 160.88 169.183 160.489 170.3C160.059 171.552 159.103 172.574 158.718 173.831C158.424 174.786 158.463 175.842 157.977 176.706C157.999 176.723 158.016 176.74 158.039 176.757C160.099 178.553 161.859 180.911 163.924 182.691C165.123 183.597 166.137 184.722 166.912 186.004C167.061 186.292 167.184 186.593 167.28 186.902C167.512 187.976 167.615 189.072 167.585 190.17C167.846 195.42 170.715 200.181 173.923 204.358C173.986 204.442 174.048 204.526 174.116 204.605L200.486 204.605Z" fill="#D0CDE1"/>
<path d="M166.912 186.005C166.425 189.356 165.934 192.706 165.44 196.055C165.216 197.848 164.879 199.625 164.433 201.377C164.139 202.461 163.76 203.522 163.494 204.606H148.758C148.765 203.999 148.813 203.393 148.899 202.792C149.279 200.634 149.895 198.523 150.738 196.498C152.453 191.905 154.166 187.309 155.877 182.709C156.607 180.749 157.235 178.7 158.038 176.757C158.18 176.398 158.333 176.039 158.497 175.691C159.351 173.827 161.722 174.59 163.477 174.871C163.958 174.93 164.428 175.063 164.869 175.264C165.402 175.555 165.852 175.977 166.176 176.488C167.84 178.93 167.478 182.159 167.047 185.078C167.002 185.387 166.957 185.696 166.912 186.005Z" fill="#D0CDE1"/>
<path d="M212.102 202.512C212.125 202.591 212.368 203.427 212.77 204.606H200.484C206.573 203.567 212.102 202.506 212.102 202.506V202.512Z" fill="#2F2E41"/>
<path d="M194.961 137.583C202.662 137.583 208.906 134.248 208.906 130.133C208.906 126.019 202.662 122.683 194.961 122.683C187.259 122.683 181.016 126.019 181.016 130.133C181.016 134.248 187.259 137.583 194.961 137.583Z" fill="#2F2E41"/>
<path d="M647.626 161.163H328.463V375.639H647.626V161.163Z" fill="#2D9CDB"/>
<path opacity="0.1" d="M593.22 361.041C613.847 361.041 630.569 359.281 630.569 357.111C630.569 354.94 613.847 353.181 593.22 353.181C572.593 353.181 555.871 354.94 555.871 357.111C555.871 359.281 572.593 361.041 593.22 361.041Z" fill="black"/>
<path d="M443.338 180.815H348.834V283H443.338V180.815Z" fill="#F2F2F2"/>
<path d="M379.265 227.731C379.572 227.824 379.902 227.808 380.198 227.686C380.494 227.565 380.739 227.345 380.891 227.065C382.198 225.021 379.791 222.387 380.313 220.022C380.73 218.128 382.899 217.004 383.343 215.116C383.774 213.281 382.446 211.213 383.343 209.553C384.047 208.252 385.803 207.91 387.273 208.138C388.743 208.366 390.138 209.007 391.623 209.097C393.601 209.216 395.487 208.352 397.422 207.924C399.357 207.496 401.717 207.664 402.855 209.274C404.316 211.341 402.834 214.22 403.343 216.695C403.747 218.659 405.404 220.286 405.44 222.291C405.453 223.004 403.565 222.43 403.665 223.135C403.765 223.841 402.873 223.22 403.586 223.136C403.877 223.065 404.139 222.904 404.332 222.676C404.525 222.449 404.639 222.166 404.66 221.869C404.745 221.281 405.858 221.085 405.845 220.492C405.815 219.1 408.35 220.038 408.768 218.71C409.728 215.613 409.531 212.276 408.213 209.311C407.534 208.1 406.991 206.818 406.596 205.489C406.223 203.644 406.809 201.664 406.195 199.884C405.367 197.485 402.628 196.262 400.084 196.014C397.541 195.766 394.957 196.21 392.428 195.844C390.163 195.516 387.97 194.542 385.685 194.683C382.943 194.852 380.557 196.605 378.657 198.573C376.756 200.541 375.144 202.804 372.986 204.49C372.325 204.941 371.715 205.462 371.167 206.043C370.068 207.372 369.957 209.266 370.262 210.958C370.568 212.651 371.234 214.265 371.515 215.962C371.779 217.556 371.697 219.185 371.811 220.797C371.838 222.423 372.334 224.007 373.24 225.361C373.632 225.889 374.14 226.321 374.726 226.624C375.311 226.928 375.959 227.095 376.619 227.112C377.076 227.123 377.463 226.715 377.924 226.821C378.502 226.954 378.753 227.498 379.265 227.731Z" fill="#2F2E41"/>
<path d="M358.482 283.562C358.896 277.942 359.207 273.742 359.207 273.742L361.878 266.758L370.451 283.562L358.482 283.562Z" fill="#575A89"/>
<path opacity="0.1" d="M358.482 283.562C358.896 277.942 359.207 273.742 359.207 273.742L361.878 266.758L370.451 283.562L358.482 283.562Z" fill="black"/>
<path d="M378.35 228.302C378.35 228.302 386.344 248.492 381.741 252.337C377.138 256.183 407.419 245.848 407.419 245.848L406.693 243.204C406.693 243.204 396.76 239.358 401.605 228.302C406.45 217.246 378.35 228.302 378.35 228.302Z" fill="#A0616A"/>
<path opacity="0.1" d="M378.35 228.302C378.35 228.302 386.344 248.492 381.741 252.337C377.138 256.183 407.419 245.848 407.419 245.848L406.693 243.204C406.693 243.204 396.76 239.358 401.605 228.302C406.45 217.246 378.35 228.302 378.35 228.302Z" fill="black"/>
<path d="M389.735 236.475C399.1 236.475 406.692 228.942 406.692 219.651C406.692 210.359 399.1 202.826 389.735 202.826C380.369 202.826 372.777 210.359 372.777 219.651C372.777 228.942 380.369 236.475 389.735 236.475Z" fill="#A0616A"/>
<path d="M430.915 255.944C430.915 255.944 430.848 257.28 430.729 259.615C430.485 264.371 430.05 273.281 429.614 283.562H363.88C362.162 281.279 360.756 278.782 359.698 276.134C359.412 275.366 359.246 274.559 359.206 273.742C358.844 267.369 364.599 258.476 368.662 257.628C373.262 256.662 381.983 247.533 381.983 247.533C382.011 247.88 382.127 248.215 382.321 248.506C382.515 248.797 382.78 249.034 383.092 249.195V249.2C383.795 249.561 384.582 249.731 385.373 249.695C388.213 249.695 400.708 243.973 404.72 242.104C405.507 241.739 405.965 241.52 405.965 241.52C410.592 243.501 415.373 245.11 420.26 246.331C422.698 246.935 424.948 248.129 426.808 249.806C428.667 251.484 430.079 253.592 430.915 255.944Z" fill="#575A89"/>
<path d="M376.359 226.049C376.666 226.141 376.995 226.126 377.292 226.004C377.588 225.883 377.833 225.663 377.985 225.382C379.292 223.339 376.885 220.704 377.406 218.34C377.824 216.446 379.993 215.322 380.437 213.434C380.868 211.599 379.54 209.531 380.437 207.871C381.14 206.57 382.897 206.228 384.367 206.456C385.836 206.683 387.232 207.324 388.716 207.414C390.695 207.534 392.581 206.67 394.516 206.242C396.45 205.814 398.81 205.981 399.948 207.591C401.41 209.659 399.927 212.538 400.436 215.012C400.84 216.977 405.444 218.356 405.862 217.027C406.822 213.93 406.625 210.594 405.307 207.629C404.627 206.418 404.085 205.136 403.689 203.807C403.317 201.962 403.903 199.981 403.289 198.201C402.461 195.803 399.721 194.58 397.178 194.332C394.635 194.083 392.051 194.528 389.522 194.161C387.256 193.833 385.063 192.859 382.779 193C380.037 193.17 377.651 194.922 375.751 196.89C373.85 198.858 372.238 201.122 370.08 202.807C369.419 203.259 368.809 203.779 368.261 204.361C367.162 205.69 367.05 207.583 367.356 209.276C367.662 210.968 368.327 212.583 368.608 214.279C368.872 215.874 368.791 217.503 368.905 219.115C368.931 220.74 369.427 222.324 370.334 223.679C370.726 224.207 371.234 224.639 371.819 224.942C372.405 225.246 373.052 225.412 373.713 225.43C374.17 225.441 374.556 225.033 375.018 225.139C375.595 225.272 375.846 225.816 376.359 226.049Z" fill="#2F2E41"/>
<path opacity="0.1" d="M439.32 283.561H420.136C418.676 272.938 417.471 261.833 417.471 261.833L421.347 260.148L429.224 255.943C429.224 255.943 429.802 257.302 430.73 259.615C432.71 264.561 436.304 273.87 439.32 283.561Z" fill="black"/>
<path d="M441.011 283.56H419.36C416.152 271.938 412.988 259.305 412.988 259.305L421.228 253.298L430.916 255.942C430.916 255.942 436.586 269.333 441.011 283.56Z" fill="#575A89"/>
<path d="M592.733 180.815H501.625V186.991H592.733V180.815Z" fill="#2D9CDB"/>
<path d="M382.221 298.72H349.965V304.896H382.221V298.72Z" fill="#F2F2F2"/>
<path d="M442.205 309.949H349.965V316.126H442.205V309.949Z" fill="#F2F2F2"/>
<path d="M611.408 203.273H480.121V209.449H611.408V203.273Z" fill="#F2F2F2"/>
<path d="M611.408 220.677H480.121V226.853H611.408V220.677Z" fill="#F2F2F2"/>
<path d="M611.408 238.084H480.121V244.26H611.408V238.084Z" fill="#F2F2F2"/>
<path d="M611.408 255.489H480.121V261.665H611.408V255.489Z" fill="#F2F2F2"/>
<path d="M611.408 272.893H480.121V279.069H611.408V272.893Z" fill="#F2F2F2"/>
<path d="M611.408 290.3H480.121V296.476H611.408V290.3Z" fill="#F2F2F2"/>
<path d="M611.408 307.702H480.121V313.878H611.408V307.702Z" fill="#F2F2F2"/>
<path opacity="0.1" d="M628.712 308.538L592.823 344.146L577.739 329.18C577.26 328.705 576.692 328.328 576.066 328.071C575.441 327.814 574.77 327.681 574.093 327.681C573.416 327.681 572.745 327.813 572.12 328.071C571.494 328.328 570.926 328.705 570.447 329.18L569.905 328.375C567.891 330.373 568.433 334.417 570.447 336.415L590.018 355.833C590.756 356.565 591.756 356.976 592.799 356.976C593.843 356.976 594.843 356.566 595.581 355.834L636 315.773C638.015 313.776 638.746 310.114 636.732 308.116C634.719 306.119 630.725 306.541 628.712 308.538Z" fill="black"/>
<path d="M628.713 306.958L592.824 342.565L577.74 327.599C577.261 327.124 576.693 326.747 576.067 326.49C575.442 326.233 574.771 326.101 574.094 326.101C573.417 326.101 572.746 326.233 572.121 326.49C571.495 326.747 570.927 327.124 570.448 327.599C569.969 328.074 569.589 328.638 569.33 329.259C569.071 329.88 568.938 330.545 568.938 331.217C568.938 331.889 569.071 332.554 569.33 333.175C569.589 333.795 569.969 334.359 570.448 334.834L590.019 354.252C590.757 354.984 591.757 355.396 592.8 355.396C593.843 355.396 594.844 354.985 595.582 354.254L636.001 314.193C636.48 313.718 636.861 313.154 637.12 312.534C637.379 311.913 637.513 311.248 637.513 310.576C637.513 309.904 637.38 309.239 637.121 308.618C636.862 307.997 636.482 307.433 636.003 306.958C635.036 305.999 633.725 305.46 632.358 305.46C630.991 305.46 629.68 305.999 628.713 306.958Z" fill="white"/>
</g>
<defs>
<clipPath id="clip0_2896:94615">
<rect width="690" height="295" fill="white" transform="translate(124 80)"/>
</clipPath>
</defs>
</svg>
