<svg width="20" height="20" viewBox="0 0 20 20" fill="none" xmlns="http://www.w3.org/2000/svg">
<path d="M10.0001 17.5C14.1423 17.5 17.5001 14.1421 17.5001 10C17.5001 5.85786 14.1423 2.5 10.0001 2.5C5.85799 2.5 2.50012 5.85786 2.50012 10C2.50012 14.1421 5.85799 17.5 10.0001 17.5Z" stroke="#8E9AA6" stroke-width="1.5" stroke-linecap="round" stroke-linejoin="round"/>
<path d="M9.375 9.375H10.0001L10 13.75H10.625" stroke="#8E9AA6" stroke-width="1.5" stroke-linecap="round" stroke-linejoin="round"/>
<path d="M10 7.34375C10.4315 7.34375 10.7812 6.99397 10.7812 6.5625C10.7812 6.13103 10.4315 5.78125 10 5.78125C9.56853 5.78125 9.21875 6.13103 9.21875 6.5625C9.21875 6.99397 9.56853 7.34375 10 7.34375Z" fill="#8E9AA6"/>
</svg>
