<svg width="20" height="20" viewBox="0 0 20 20" fill="none" xmlns="http://www.w3.org/2000/svg">
<path d="M6.04304 15.7716L3.52717 17.8865C3.43607 17.9631 3.32499 18.0121 3.207 18.0277C3.08901 18.0433 2.96901 18.0249 2.86112 17.9747C2.75323 17.9244 2.66193 17.8444 2.59796 17.744C2.53398 17.6437 2.5 17.5271 2.5 17.4081V5C2.5 4.83424 2.56585 4.67527 2.68306 4.55806C2.80027 4.44085 2.95924 4.375 3.125 4.375H16.875C17.0408 4.375 17.1997 4.44085 17.3169 4.55806C17.4342 4.67527 17.5 4.83424 17.5 5V15C17.5 15.1658 17.4342 15.3247 17.3169 15.4419C17.1997 15.5592 17.0408 15.625 16.875 15.625H6.44522C6.29808 15.625 6.15567 15.6769 6.04304 15.7716Z" stroke="#8E9AA6" stroke-width="1.5" stroke-linecap="round" stroke-linejoin="round"/>
</svg>
