<svg width="34" height="34" viewBox="0 0 34 34" fill="none" xmlns="http://www.w3.org/2000/svg">
<path opacity="0.6" d="M29.042 14.436H24.9478C21.5903 14.436 18.8562 11.7018 18.8562 8.34433V4.25016C18.8562 3.471 18.2187 2.8335 17.4395 2.8335H11.4328C7.06949 2.8335 3.54199 5.66683 3.54199 10.7243V23.276C3.54199 28.3335 7.06949 31.1668 11.4328 31.1668H22.5678C26.9312 31.1668 30.4587 28.3335 30.4587 23.276V15.8527C30.4587 15.0735 29.8212 14.436 29.042 14.436Z" fill="#1991EB"/>
<path opacity="0.3" d="M22.3835 3.13103C21.8027 2.55019 20.7969 2.94686 20.7969 3.75436V8.69853C20.7969 10.7669 22.5535 12.481 24.6927 12.481C26.0385 12.4952 27.9085 12.4952 29.5094 12.4952C30.3169 12.4952 30.7419 11.546 30.1752 10.9794C28.1352 8.92519 24.4802 5.22769 22.3835 3.13103Z" fill="#1991EB"/>
</svg>
