<svg width="16" height="16" viewBox="0 0 16 16" fill="none" xmlns="http://www.w3.org/2000/svg">
<path d="M0.667969 4C0.667969 2.89543 1.5634 2 2.66797 2H13.3346C14.4392 2 15.3346 2.89543 15.3346 4V12C15.3346 13.1046 14.4392 14 13.3346 14H2.66797C1.5634 14 0.667969 13.1046 0.667969 12V4Z" fill="#BDBDBD"/>
<path d="M2 4.5C2 4.22386 2.22386 4 2.5 4H3.5C3.77614 4 4 4.22386 4 4.5C4 4.77614 3.77614 5 3.5 5H2.5C2.22386 5 2 4.77614 2 4.5Z" fill="white"/>
<path d="M2 11.5C2 11.2239 2.22386 11 2.5 11H3.5C3.77614 11 4 11.2239 4 11.5C4 11.7761 3.77614 12 3.5 12H2.5C2.22386 12 2 11.7761 2 11.5Z" fill="white"/>
<path d="M5.32812 4.5C5.32812 4.22386 5.55198 4 5.82812 4H6.82812C7.10427 4 7.32812 4.22386 7.32812 4.5C7.32812 4.77614 7.10427 5 6.82812 5H5.82812C5.55198 5 5.32812 4.77614 5.32812 4.5Z" fill="white"/>
<path d="M5.32812 11.5C5.32812 11.2239 5.55198 11 5.82812 11H6.82812C7.10427 11 7.32812 11.2239 7.32812 11.5C7.32812 11.7761 7.10427 12 6.82812 12H5.82812C5.55198 12 5.32812 11.7761 5.32812 11.5Z" fill="white"/>
<path d="M8.65625 4.5C8.65625 4.22386 8.88011 4 9.15625 4H10.1562C10.4324 4 10.6562 4.22386 10.6562 4.5C10.6562 4.77614 10.4324 5 10.1562 5H9.15625C8.88011 5 8.65625 4.77614 8.65625 4.5Z" fill="white"/>
<path d="M8.65625 11.5C8.65625 11.2239 8.88011 11 9.15625 11H10.1562C10.4324 11 10.6562 11.2239 10.6562 11.5C10.6562 11.7761 10.4324 12 10.1562 12H9.15625C8.88011 12 8.65625 11.7761 8.65625 11.5Z" fill="white"/>
<path d="M11.9805 4.5C11.9805 4.22386 12.2043 4 12.4805 4H13.4805C13.7566 4 13.9805 4.22386 13.9805 4.5C13.9805 4.77614 13.7566 5 13.4805 5H12.4805C12.2043 5 11.9805 4.77614 11.9805 4.5Z" fill="white"/>
<path d="M11.9805 11.5C11.9805 11.2239 12.2043 11 12.4805 11H13.4805C13.7566 11 13.9805 11.2239 13.9805 11.5C13.9805 11.7761 13.7566 12 13.4805 12H12.4805C12.2043 12 11.9805 11.7761 11.9805 11.5Z" fill="white"/>
</svg>
