<svg width="20" height="20" viewBox="0 0 20 20" fill="none" xmlns="http://www.w3.org/2000/svg">
<path fill-rule="evenodd" clip-rule="evenodd" d="M16.2008 4H3.80078C2.97235 4 2.30078 4.67157 2.30078 5.5V14.5C2.30078 15.3284 2.97235 16 3.80078 16H16.2008C17.0292 16 17.7008 15.3284 17.7008 14.5V5.5C17.7008 4.67157 17.0292 4 16.2008 4ZM3.80078 2.5C2.14393 2.5 0.800781 3.84315 0.800781 5.5V14.5C0.800781 16.1569 2.14392 17.5 3.80078 17.5H16.2008C17.8576 17.5 19.2008 16.1569 19.2008 14.5V5.5C19.2008 3.84315 17.8576 2.5 16.2008 2.5H3.80078ZM3.30078 6.15002C3.30078 5.73581 3.63657 5.40002 4.05078 5.40002H5.05078C5.46499 5.40002 5.80078 5.73581 5.80078 6.15002C5.80078 6.56424 5.46499 6.90002 5.05078 6.90002H4.05078C3.63657 6.90002 3.30078 6.56424 3.30078 6.15002ZM4.05078 13.5C3.63657 13.5 3.30078 13.8358 3.30078 14.25C3.30078 14.6642 3.63657 15 4.05078 15H5.05078C5.46499 15 5.80078 14.6642 5.80078 14.25C5.80078 13.8358 5.46499 13.5 5.05078 13.5H4.05078ZM6.90039 6.15002C6.90039 5.73581 7.23618 5.40002 7.65039 5.40002H8.65039C9.0646 5.40002 9.40039 5.73581 9.40039 6.15002C9.40039 6.56424 9.0646 6.90002 8.65039 6.90002H7.65039C7.23618 6.90002 6.90039 6.56424 6.90039 6.15002ZM7.65039 13.5C7.23618 13.5 6.90039 13.8358 6.90039 14.25C6.90039 14.6642 7.23618 15 7.65039 15H8.65039C9.0646 15 9.40039 14.6642 9.40039 14.25C9.40039 13.8358 9.0646 13.5 8.65039 13.5H7.65039ZM10.5 6.15002C10.5 5.73581 10.8358 5.40002 11.25 5.40002H12.25C12.6642 5.40002 13 5.73581 13 6.15002C13 6.56424 12.6642 6.90002 12.25 6.90002H11.25C10.8358 6.90002 10.5 6.56424 10.5 6.15002ZM11.25 13.5C10.8358 13.5 10.5 13.8358 10.5 14.25C10.5 14.6642 10.8358 15 11.25 15H12.25C12.6642 15 13 14.6642 13 14.25C13 13.8358 12.6642 13.5 12.25 13.5H11.25ZM14.0996 6.15002C14.0996 5.73581 14.4354 5.40002 14.8496 5.40002H15.8496C16.2638 5.40002 16.5996 5.73581 16.5996 6.15002C16.5996 6.56424 16.2638 6.90002 15.8496 6.90002H14.8496C14.4354 6.90002 14.0996 6.56424 14.0996 6.15002ZM14.8496 13.5C14.4354 13.5 14.0996 13.8358 14.0996 14.25C14.0996 14.6642 14.4354 15 14.8496 15H15.8496C16.2638 15 16.5996 14.6642 16.5996 14.25C16.5996 13.8358 16.2638 13.5 15.8496 13.5H14.8496Z" fill="#9E9E9E"/>
</svg>
