<svg width="20" height="19" viewBox="0 0 20 19" fill="none" xmlns="http://www.w3.org/2000/svg">
<path d="M8.27385 14.4875H1.64258" stroke="white" stroke-width="2" stroke-linecap="round" stroke-linejoin="round"/>
<path fill-rule="evenodd" clip-rule="evenodd" d="M18.3581 14.4877C18.3581 15.9457 17.1762 17.1277 15.7181 17.1277C14.2601 17.1277 13.0781 15.9457 13.0781 14.4877C13.0781 13.0285 14.2601 11.8477 15.7181 11.8477C17.1762 11.8477 18.3581 13.0285 18.3581 14.4877Z" stroke="white" stroke-width="2" stroke-linecap="round" stroke-linejoin="round"/>
<path d="M11.7266 3.7399H18.3589" stroke="white" stroke-width="2" stroke-linecap="round" stroke-linejoin="round"/>
<path fill-rule="evenodd" clip-rule="evenodd" d="M1.64258 3.7401C1.64258 5.19922 2.82454 6.3801 4.28258 6.3801C5.74062 6.3801 6.92258 5.19922 6.92258 3.7401C6.92258 2.28206 5.74062 1.1001 4.28258 1.1001C2.82454 1.1001 1.64258 2.28206 1.64258 3.7401Z" stroke="white" stroke-width="2" stroke-linecap="round" stroke-linejoin="round"/>
</svg>
