<svg width="18" height="18" viewBox="0 0 18 18" fill="none" xmlns="http://www.w3.org/2000/svg">
<path d="M7.43078 13.9887H1.40234" stroke="#98A3B1" stroke-width="2" stroke-linecap="round" stroke-linejoin="round"/>
<path fill-rule="evenodd" clip-rule="evenodd" d="M16.5988 13.9889C16.5988 15.3144 15.5243 16.3889 14.1988 16.3889C12.8733 16.3889 11.7988 15.3144 11.7988 13.9889C11.7988 12.6624 12.8733 11.5889 14.1988 11.5889C15.5243 11.5889 16.5988 12.6624 16.5988 13.9889Z" stroke="#98A3B1" stroke-width="2" stroke-linecap="round" stroke-linejoin="round"/>
<path d="M10.5684 4.21822H16.5978" stroke="#98A3B1" stroke-width="2" stroke-linecap="round" stroke-linejoin="round"/>
<path fill-rule="evenodd" clip-rule="evenodd" d="M1.40234 4.21836C1.40234 5.54483 2.47685 6.61836 3.80234 6.61836C5.12783 6.61836 6.20234 5.54483 6.20234 4.21836C6.20234 2.89287 5.12783 1.81836 3.80234 1.81836C2.47685 1.81836 1.40234 2.89287 1.40234 4.21836Z" stroke="#98A3B1" stroke-width="2" stroke-linecap="round" stroke-linejoin="round"/>
</svg>
