<svg width="18" height="18" viewBox="0 0 18 18" fill="none" xmlns="http://www.w3.org/2000/svg">
<path d="M15.1873 5.06226H9.23267L7.31226 3.14185C7.20806 3.03704 7.08411 2.95394 6.94757 2.89736C6.81104 2.84079 6.66464 2.81186 6.51685 2.81226H2.81226C2.51398 2.81255 2.228 2.93118 2.01709 3.14209C1.80617 3.353 1.68755 3.63898 1.68726 3.93726V14.1057C1.68765 14.3925 1.80181 14.6675 2.00468 14.8702C2.20755 15.073 2.48258 15.187 2.76941 15.1873H15.2499C15.5315 15.1869 15.8015 15.0748 16.0007 14.8757C16.1998 14.6765 16.3119 14.4065 16.3123 14.1249V6.18726C16.312 5.88898 16.1933 5.603 15.9824 5.39209C15.7715 5.18118 15.4855 5.06255 15.1873 5.06226ZM2.81226 3.93726H6.51685L7.64185 5.06226H2.81226V3.93726Z" fill="#E0E0E0"/>
</svg>
