<svg width="86" height="120" viewBox="0 0 86 120" fill="none" xmlns="http://www.w3.org/2000/svg">
<rect width="86" height="120" rx="4" fill="#C4E0FB"/>
<ellipse cx="42.8774" cy="47.4082" rx="12.7414" ry="12.7414" stroke="white" stroke-width="3.5" stroke-linecap="round" stroke-linejoin="round"/>
<path fill-rule="evenodd" clip-rule="evenodd" d="M22.6668 77.8706C22.6634 76.9749 22.8637 76.0901 23.2526 75.2832C24.473 72.8423 27.9147 71.5487 30.7705 70.9629C32.8302 70.5233 34.9182 70.2297 37.0192 70.0841C40.909 69.7425 44.8212 69.7425 48.711 70.0841C50.8118 70.2314 52.8998 70.525 54.9597 70.9629C57.8155 71.5487 61.2572 72.7203 62.4776 75.2832C63.2597 76.928 63.2597 78.8375 62.4776 80.4823C61.2572 83.0452 57.8155 84.2169 54.9597 84.7783C52.9025 85.236 50.8137 85.5379 48.711 85.6814C45.5451 85.9498 42.3643 85.9987 39.1916 85.8279C38.4593 85.8279 37.7515 85.8279 37.0192 85.6814C34.9244 85.5397 32.8436 85.2377 30.7949 84.7783C27.9147 84.2169 24.4975 83.0452 23.2526 80.4823C22.8657 79.6661 22.6656 78.7739 22.6668 77.8706Z" stroke="white" stroke-width="3.5" stroke-linecap="round" stroke-linejoin="round"/>
</svg>
