<svg width="24" height="24" viewBox="0 0 24 24" fill="none" xmlns="http://www.w3.org/2000/svg">
<path d="M22.2202 9.62949C22.1688 9.413 22.0699 9.21063 21.9308 9.03698C21.7916 8.86333 21.6157 8.72272 21.4156 8.62529L20.0558 7.95293L19.533 7.0472L19.6306 5.53328C19.6462 5.31133 19.6124 5.08868 19.5316 4.88137C19.4508 4.67407 19.325 4.48729 19.1632 4.33449C18.0002 3.23212 16.5934 2.41988 15.0572 1.96387C14.844 1.90021 14.6193 1.88466 14.3994 1.91832C14.1794 1.95199 13.9697 2.03404 13.7852 2.15856L12.523 2.99997H11.4771L10.215 2.1586C10.0306 2.03401 9.82087 1.9519 9.6009 1.91821C9.38093 1.88452 9.15623 1.90008 8.94301 1.96378C7.40685 2.41979 6.00004 3.23201 4.83705 4.33435C4.67526 4.48715 4.54942 4.67395 4.46858 4.88128C4.38775 5.08861 4.35395 5.3113 4.36963 5.53328L4.46722 7.04711L3.94427 7.95284L2.58444 8.62525C2.38439 8.72266 2.20845 8.86326 2.06932 9.03691C1.93019 9.21056 1.83133 9.41292 1.77988 9.6294C1.40671 11.1878 1.40671 12.8123 1.77988 14.3706C1.83133 14.5871 1.93018 14.7895 2.06932 14.9631C2.20845 15.1368 2.38438 15.2774 2.58444 15.3748L3.94427 16.0472L4.46713 16.9529L4.36954 18.4668C4.35389 18.6888 4.38769 18.9114 4.4685 19.1188C4.54932 19.3261 4.67513 19.5128 4.83687 19.6656C5.99987 20.768 7.40669 21.5802 8.94287 22.0363C9.15608 22.1 9.38078 22.1156 9.60075 22.0819C9.82071 22.0482 10.0305 21.9661 10.2149 21.8416L11.477 21.0002H12.5229L13.7851 21.8415C14.0345 22.0091 14.3281 22.0989 14.6286 22.0997C14.7737 22.0997 14.9181 22.0783 15.0571 22.0363C16.5932 21.5803 18 20.7681 19.163 19.6658C19.3248 19.513 19.4507 19.3262 19.5315 19.1188C19.6123 18.9115 19.6461 18.6888 19.6305 18.4668L19.5329 16.953L20.0558 16.0473L21.4156 15.3749C21.6157 15.2775 21.7916 15.1369 21.9308 14.9632C22.0699 14.7896 22.1688 14.5872 22.2202 14.3707C22.5934 12.8123 22.5934 11.1879 22.2202 9.62949H22.2202ZM16.5001 12.0001C16.5001 12.8901 16.2362 13.7601 15.7417 14.5001C15.2472 15.2401 14.5444 15.8169 13.7222 16.1575C12.8999 16.4981 11.9951 16.5872 11.1222 16.4136C10.2493 16.24 9.44744 15.8114 8.81811 15.182C8.18877 14.5527 7.76019 13.7509 7.58655 12.878C7.41292 12.0051 7.50204 11.1003 7.84263 10.278C8.18322 9.45572 8.76 8.75292 9.50002 8.25845C10.24 7.76398 11.1101 7.50006 12.0001 7.50006C13.1931 7.50141 14.337 7.97595 15.1806 8.81957C16.0242 9.66319 16.4987 10.807 16.5001 12.0001Z" fill="#9397AC"/>
</svg>
