<svg width="20" height="20" viewBox="0 0 20 20" fill="none" xmlns="http://www.w3.org/2000/svg">
<path d="M10 8.125C10 8.62228 9.80246 9.09919 9.45083 9.45083C9.09919 9.80246 8.62228 10 8.125 10C7.62772 10 7.15081 9.80246 6.79917 9.45083C6.44754 9.09919 6.25 8.62228 6.25 8.125V5C6.25 4.50272 6.44754 4.02581 6.79917 3.67417C7.15081 3.32254 7.62772 3.125 8.125 3.125C8.62228 3.125 9.09919 3.32254 9.45083 3.67417C9.80246 4.02581 10 4.50272 10 5V8.125Z" stroke="#9E9E9E" stroke-width="1.5" stroke-linecap="round" stroke-linejoin="round"/>
<path d="M10 5C10 4.50272 10.1975 4.02581 10.5492 3.67417C10.9008 3.32254 11.3777 3.125 11.875 3.125C12.3723 3.125 12.8492 3.32254 13.2008 3.67417C13.5525 4.02581 13.75 4.50272 13.75 5V6.875" stroke="#9E9E9E" stroke-width="1.5" stroke-linecap="round" stroke-linejoin="round"/>
<path d="M10 13.75C10 12.9212 10.3292 12.1263 10.9153 11.5403C11.5013 10.9542 12.2962 10.625 13.125 10.625H11.875C11.3777 10.625 10.9008 10.4275 10.5492 10.0758C10.1975 9.72419 10 9.24728 10 8.75V7.5C10 7.33424 10.0658 7.17527 10.1831 7.05806C10.3003 6.94085 10.4592 6.875 10.625 6.875H15.625C16.1223 6.875 16.5992 7.07254 16.9508 7.42417C17.3025 7.77581 17.5 8.25272 17.5 8.75V10C17.5 11.9891 16.7098 13.8968 15.3033 15.3033C13.8968 16.7098 11.9891 17.5 10 17.5C8.01088 17.5 6.10322 16.7098 4.6967 15.3033C3.29018 13.8968 2.5 11.9891 2.5 10V6.875C2.5 6.37772 2.69754 5.90081 3.04917 5.54917C3.40081 5.19754 3.87772 5 4.375 5C4.87228 5 5.34919 5.19754 5.70083 5.54917C6.05246 5.90081 6.25 6.37772 6.25 6.875V8.125C6.25 8.62228 6.05246 9.09919 5.70083 9.45083C5.34919 9.80246 4.87228 10 4.375 10C3.87772 10 3.40081 9.80246 3.04917 9.45083C2.69754 9.09919 2.5 8.62228 2.5 8.125" stroke="#9E9E9E" stroke-width="1.5" stroke-linecap="round" stroke-linejoin="round"/>
</svg>
