<svg width="20" height="17" viewBox="0 0 20 17" fill="none" xmlns="http://www.w3.org/2000/svg">
<path fill-rule="evenodd" clip-rule="evenodd" d="M9.69184 0.31512C9.89 0.238059 10.1098 0.238059 10.308 0.31512L19.2715 3.80092C19.9209 4.05345 19.9085 4.98775 19.2368 5.21163L10.2687 8.201C10.0942 8.25916 9.9056 8.25916 9.73112 8.201L0.763011 5.21163C0.105584 4.99249 0.0650356 4.05888 0.728341 3.80092L9.69184 0.31512ZM9.99992 1.80475L3.20878 4.44574L9.99992 6.70946L16.7911 4.44574L9.99992 1.80475Z" fill="#9E9E9E"/>
<path fill-rule="evenodd" clip-rule="evenodd" d="M4.25 10V6H5.75V9.96315C5.75275 9.97478 5.75865 9.99576 5.77043 10.024C5.80087 10.0971 5.88094 10.2443 6.09352 10.4143C6.52902 10.7627 7.58013 11.25 10 11.25C12.4199 11.25 13.471 10.7627 13.9065 10.4143C14.1191 10.2443 14.1991 10.0971 14.2296 10.024C14.2414 9.99576 14.2472 9.97478 14.25 9.96315V6H15.75V10H15C15.75 10 15.75 10.0009 15.75 10.0019L15.75 10.0038L15.75 10.0077L15.7498 10.0163L15.7492 10.036C15.7487 10.0501 15.7477 10.0664 15.7462 10.0847C15.7431 10.1214 15.7378 10.1661 15.7286 10.2178C15.7101 10.3212 15.6761 10.4524 15.6142 10.601C15.4884 10.9029 15.2559 11.2557 14.8435 11.5857C14.029 12.2373 12.5801 12.75 10 12.75C7.41987 12.75 5.97098 12.2373 5.15648 11.5857C4.74406 11.2557 4.51163 10.9029 4.38582 10.601C4.32391 10.4524 4.28992 10.3212 4.27144 10.2178C4.26222 10.1661 4.25686 10.1214 4.25381 10.0847C4.25228 10.0664 4.25133 10.0501 4.25076 10.036L4.25017 10.0163L4.25004 10.0077L4.25001 10.0038L4.25 10.0019C4.25 10.0009 4.25 10 5 10H4.25Z" fill="#9E9E9E"/>
<path fill-rule="evenodd" clip-rule="evenodd" d="M17.5 12V5H18.5V12H17.5Z" fill="#9E9E9E"/>
<path fill-rule="evenodd" clip-rule="evenodd" d="M17.5 16V13H18.5V16C18.5 16.2761 18.2761 16.5 18 16.5C17.7239 16.5 17.5 16.2761 17.5 16Z" fill="#9E9E9E"/>
<path fill-rule="evenodd" clip-rule="evenodd" d="M18 13C18.2761 13 18.5 12.7761 18.5 12.5C18.5 12.2239 18.2761 12 18 12C17.7239 12 17.5 12.2239 17.5 12.5C17.5 12.7761 17.7239 13 18 13ZM18 14C18.8284 14 19.5 13.3284 19.5 12.5C19.5 11.6716 18.8284 11 18 11C17.1716 11 16.5 11.6716 16.5 12.5C16.5 13.3284 17.1716 14 18 14Z" fill="#9E9E9E"/>
</svg>
