<svg width="22" height="22" viewBox="0 0 22 22" fill="none" xmlns="http://www.w3.org/2000/svg">
<path fill-rule="evenodd" clip-rule="evenodd" d="M10.6612 1.44639C10.8791 1.36162 11.121 1.36162 11.3389 1.44639L21.1988 5.28077C21.9131 5.55856 21.8994 6.58628 21.1607 6.83255L11.2957 10.1209C11.1038 10.1848 10.8963 10.1848 10.7044 10.1209L0.839458 6.83255C0.116289 6.59149 0.0716857 5.56452 0.801322 5.28077L10.6612 1.44639ZM11.0001 3.08498L3.5298 5.99008L11.0001 8.48016L18.4703 5.99008L11.0001 3.08498Z" fill="white"/>
<path fill-rule="evenodd" clip-rule="evenodd" d="M4.67505 14.3004V9.90039H6.32505V14.2599C6.32807 14.2726 6.33456 14.2957 6.34752 14.3268C6.38101 14.4072 6.46908 14.5691 6.70292 14.7562C7.18197 15.1394 8.33819 15.6754 11 15.6754C13.6619 15.6754 14.8181 15.1394 15.2972 14.7562C15.531 14.5691 15.6191 14.4072 15.6526 14.3268C15.6655 14.2957 15.672 14.2726 15.675 14.2599V9.90039H17.325V14.3004H16.5C17.325 14.3004 17.325 14.3014 17.325 14.3024L17.325 14.3045L17.325 14.3089L17.3249 14.3184L17.3242 14.3399C17.3236 14.3555 17.3225 14.3735 17.3209 14.3936C17.3175 14.4339 17.3116 14.4831 17.3015 14.5399C17.2811 14.6537 17.2438 14.798 17.1756 14.9614C17.0373 15.2936 16.7816 15.6817 16.3279 16.0446C15.432 16.7614 13.8382 17.3254 11 17.3254C8.1619 17.3254 6.56813 16.7614 5.67218 16.0446C5.21852 15.6817 4.96284 15.2936 4.82445 14.9614C4.75635 14.798 4.71896 14.6537 4.69864 14.5399C4.68849 14.4831 4.6826 14.4339 4.67924 14.3936C4.67756 14.3735 4.67651 14.3555 4.67589 14.3399L4.67523 14.3184L4.67509 14.3089L4.67506 14.3045L4.67505 14.3024C4.67505 14.3014 4.67505 14.3004 5.50005 14.3004H4.67505Z" fill="white"/>
<path fill-rule="evenodd" clip-rule="evenodd" d="M19.2502 15.4001V6.6001H20.3502V15.4001H19.2502Z" fill="white"/>
<path fill-rule="evenodd" clip-rule="evenodd" d="M19.2502 19.8005V16.5005H20.3502V19.8005C20.3502 20.1042 20.104 20.3505 19.8002 20.3505C19.4965 20.3505 19.2502 20.1042 19.2502 19.8005Z" fill="white"/>
<path fill-rule="evenodd" clip-rule="evenodd" d="M19.8001 16.5003C20.1039 16.5003 20.3501 16.254 20.3501 15.9503C20.3501 15.6465 20.1039 15.4003 19.8001 15.4003C19.4964 15.4003 19.2501 15.6465 19.2501 15.9503C19.2501 16.254 19.4964 16.5003 19.8001 16.5003ZM19.8001 17.6003C20.7114 17.6003 21.4501 16.8616 21.4501 15.9503C21.4501 15.039 20.7114 14.3003 19.8001 14.3003C18.8889 14.3003 18.1501 15.039 18.1501 15.9503C18.1501 16.8616 18.8889 17.6003 19.8001 17.6003Z" fill="white"/>
</svg>
