<svg width="44" height="44" viewBox="0 0 44 44" fill="none" xmlns="http://www.w3.org/2000/svg">
<path d="M37.125 6.875H6.875C6.14591 6.87583 5.44692 7.16583 4.93138 7.68138C4.41583 8.19692 4.12583 8.89591 4.125 9.625V34.375C4.12583 35.1041 4.41583 35.8031 4.93138 36.3186C5.44692 36.8342 6.14591 37.1242 6.875 37.125H37.125C37.8541 37.1242 38.5531 36.8342 39.0686 36.3186C39.5842 35.8031 39.8742 35.1041 39.875 34.375V9.625C39.8742 8.89591 39.5842 8.19692 39.0686 7.68138C38.5531 7.16583 37.8541 6.87583 37.125 6.875ZM21.4992 30.2062C21.1461 30.297 20.7713 30.2439 20.4573 30.0584C20.1433 29.873 19.9158 29.5705 19.8248 29.2174C19.5956 28.3322 19.0789 27.5481 18.3557 26.9884C17.6326 26.4287 16.7441 26.125 15.8296 26.125C14.9152 26.125 14.0267 26.4288 13.3036 26.9886C12.5805 27.5483 12.0638 28.3324 11.8347 29.2177C11.7897 29.3925 11.7107 29.5568 11.6022 29.7012C11.4937 29.8455 11.3578 29.967 11.2023 30.0589C11.0468 30.1507 10.8748 30.211 10.696 30.2363C10.5172 30.2617 10.3352 30.2515 10.1603 30.2065C9.98548 30.1615 9.82119 30.0825 9.67685 29.974C9.53252 29.8655 9.41097 29.7296 9.31914 29.5742C9.22732 29.4187 9.16702 29.2466 9.14168 29.0678C9.11634 28.8891 9.12647 28.707 9.17148 28.5322C9.58966 26.9056 10.5902 25.4891 11.9834 24.5513C11.2022 23.7869 10.6664 22.8072 10.4444 21.7371C10.2224 20.6669 10.3243 19.5549 10.737 18.5429C11.1497 17.531 11.8546 16.6649 12.7617 16.0552C13.6687 15.4455 14.7369 15.1199 15.8298 15.1199C16.9227 15.1199 17.9908 15.4455 18.8979 16.0552C19.805 16.6649 20.5098 17.531 20.9225 18.5429C21.3353 19.5549 21.4371 20.6669 21.2151 21.7371C20.9931 22.8072 20.4574 23.7869 19.6762 24.5513C21.0692 25.489 22.0697 26.9054 22.488 28.5318C22.5789 28.8849 22.5258 29.2597 22.3404 29.5737C22.155 29.8878 21.8524 30.1153 21.4992 30.2062ZM33 26.125H26.125C25.7603 26.125 25.4106 25.9801 25.1527 25.7223C24.8949 25.4644 24.75 25.1147 24.75 24.75C24.75 24.3853 24.8949 24.0356 25.1527 23.7777C25.4106 23.5199 25.7603 23.375 26.125 23.375H33C33.3647 23.375 33.7144 23.5199 33.9723 23.7777C34.2301 24.0356 34.375 24.3853 34.375 24.75C34.375 25.1147 34.2301 25.4644 33.9723 25.7223C33.7144 25.9801 33.3647 26.125 33 26.125ZM33 20.625H26.125C25.7603 20.625 25.4106 20.4801 25.1527 20.2223C24.8949 19.9644 24.75 19.6147 24.75 19.25C24.75 18.8853 24.8949 18.5356 25.1527 18.2777C25.4106 18.0199 25.7603 17.875 26.125 17.875H33C33.3647 17.875 33.7144 18.0199 33.9723 18.2777C34.2301 18.5356 34.375 18.8853 34.375 19.25C34.375 19.6147 34.2301 19.9644 33.9723 20.2223C33.7144 20.4801 33.3647 20.625 33 20.625Z" fill="white"/>
<path d="M15.8301 23.375C17.3489 23.375 18.5801 22.1438 18.5801 20.625C18.5801 19.1062 17.3489 17.875 15.8301 17.875C14.3113 17.875 13.0801 19.1062 13.0801 20.625C13.0801 22.1438 14.3113 23.375 15.8301 23.375Z" fill="white"/>
</svg>
