<svg width="18" height="18" viewBox="0 0 18 18" fill="none" xmlns="http://www.w3.org/2000/svg">
<path d="M15.1875 2.8125H2.8125C2.51424 2.81284 2.22829 2.93148 2.01738 3.14238C1.80648 3.35329 1.68784 3.63924 1.6875 3.9375V14.0625C1.68784 14.3608 1.80648 14.6467 2.01738 14.8576C2.22829 15.0685 2.51424 15.1872 2.8125 15.1875H15.1875C15.4858 15.1872 15.7717 15.0685 15.9826 14.8576C16.1935 14.6467 16.3122 14.3608 16.3125 14.0625V3.9375C16.3122 3.63924 16.1935 3.35329 15.9826 3.14238C15.7717 2.93148 15.4858 2.81284 15.1875 2.8125ZM8.79514 12.3571C8.65067 12.3942 8.49735 12.3725 8.3689 12.2966C8.24045 12.2208 8.14738 12.097 8.11014 11.9526C8.01638 11.5904 7.80499 11.2697 7.50917 11.0407C7.21335 10.8117 6.84985 10.6875 6.47577 10.6875C6.10168 10.6875 5.73819 10.8118 5.44238 11.0408C5.14658 11.2698 4.93521 11.5905 4.84147 11.9527C4.82306 12.0242 4.79073 12.0914 4.74635 12.1505C4.70196 12.2095 4.64637 12.2592 4.58277 12.2968C4.51917 12.3344 4.44878 12.359 4.37565 12.3694C4.30251 12.3798 4.22804 12.3756 4.15651 12.3572C4.08497 12.3388 4.01776 12.3065 3.95871 12.2621C3.89967 12.2177 3.84994 12.1621 3.81238 12.0985C3.77481 12.0349 3.75014 11.9645 3.73978 11.8914C3.72941 11.8183 3.73356 11.7438 3.75197 11.6723C3.92304 11.0069 4.33236 10.4274 4.9023 10.0437C4.58271 9.73102 4.36353 9.33022 4.27272 8.89244C4.1819 8.45466 4.22357 7.99975 4.39241 7.58575C4.56125 7.17175 4.84961 6.81744 5.22068 6.56803C5.59175 6.31862 6.02872 6.18542 6.47582 6.18542C6.92292 6.18542 7.35989 6.31862 7.73096 6.56803C8.10203 6.81744 8.39038 7.17175 8.55922 7.58575C8.72806 7.99975 8.76974 8.45466 8.67892 8.89244C8.58811 9.33022 8.36892 9.73102 8.04934 10.0437C8.61922 10.4273 9.02853 11.0068 9.19964 11.6721C9.23683 11.8166 9.21511 11.9699 9.13925 12.0984C9.06339 12.2268 8.93961 12.3199 8.79514 12.3571ZM13.5 10.6875H10.6875C10.5383 10.6875 10.3952 10.6282 10.2898 10.5227C10.1843 10.4173 10.125 10.2742 10.125 10.125C10.125 9.97582 10.1843 9.83274 10.2898 9.72725C10.3952 9.62176 10.5383 9.5625 10.6875 9.5625H13.5C13.6492 9.5625 13.7923 9.62176 13.8977 9.72725C14.0032 9.83274 14.0625 9.97582 14.0625 10.125C14.0625 10.2742 14.0032 10.4173 13.8977 10.5227C13.7923 10.6282 13.6492 10.6875 13.5 10.6875ZM13.5 8.4375H10.6875C10.5383 8.4375 10.3952 8.37824 10.2898 8.27275C10.1843 8.16726 10.125 8.02418 10.125 7.875C10.125 7.72582 10.1843 7.58274 10.2898 7.47725C10.3952 7.37176 10.5383 7.3125 10.6875 7.3125H13.5C13.6492 7.3125 13.7923 7.37176 13.8977 7.47725C14.0032 7.58274 14.0625 7.72582 14.0625 7.875C14.0625 8.02418 14.0032 8.16726 13.8977 8.27275C13.7923 8.37824 13.6492 8.4375 13.5 8.4375Z" fill="#E0E0E0"/>
<path d="M6.47583 9.5625C7.09715 9.5625 7.60083 9.05882 7.60083 8.4375C7.60083 7.81618 7.09715 7.3125 6.47583 7.3125C5.85451 7.3125 5.35083 7.81618 5.35083 8.4375C5.35083 9.05882 5.85451 9.5625 6.47583 9.5625Z" fill="#E0E0E0"/>
</svg>
