<svg width="28" height="28" viewBox="0 0 28 28" fill="none" xmlns="http://www.w3.org/2000/svg">
<path d="M14 2.625C11.7502 2.625 9.551 3.29213 7.68039 4.54203C5.80978 5.79193 4.35182 7.56847 3.49088 9.64698C2.62993 11.7255 2.40467 14.0126 2.84357 16.2192C3.28248 18.4257 4.36584 20.4525 5.95667 22.0433C7.54749 23.6342 9.57432 24.7175 11.7809 25.1564C13.9874 25.5953 16.2745 25.3701 18.353 24.5091C20.4315 23.6482 22.2081 22.1902 23.458 20.3196C24.7079 18.449 25.375 16.2498 25.375 14C25.3715 10.9842 24.172 8.09298 22.0395 5.96051C19.907 3.82804 17.0158 2.62849 14 2.625ZM13.9999 7.875C14.2595 7.875 14.5132 7.95198 14.7291 8.0962C14.9449 8.24042 15.1131 8.4454 15.2125 8.68523C15.3118 8.92506 15.3378 9.18896 15.2872 9.44356C15.2365 9.69816 15.1115 9.93202 14.928 10.1156C14.7444 10.2991 14.5106 10.4241 14.256 10.4748C14.0014 10.5254 13.7375 10.4994 13.4976 10.4001C13.2578 10.3008 13.0528 10.1325 12.9086 9.91669C12.7644 9.70085 12.6874 9.44709 12.6874 9.1875C12.6874 9.01514 12.7213 8.84447 12.7873 8.68523C12.8533 8.52599 12.9499 8.3813 13.0718 8.25942C13.1937 8.13754 13.3384 8.04087 13.4976 7.97491C13.6569 7.90895 13.8275 7.875 13.9999 7.875H13.9999ZM14.875 20.125H14C13.8851 20.1251 13.7713 20.1025 13.6651 20.0585C13.5589 20.0146 13.4624 19.9501 13.3811 19.8689C13.2999 19.7876 13.2354 19.6911 13.1915 19.5849C13.1475 19.4787 13.1249 19.3649 13.125 19.25V14C12.8929 14 12.6704 13.9078 12.5063 13.7437C12.3422 13.5796 12.25 13.3571 12.25 13.125C12.25 12.8929 12.3422 12.6704 12.5063 12.5063C12.6704 12.3422 12.8929 12.25 13.125 12.25H14C14.1149 12.2499 14.2287 12.2725 14.3349 12.3165C14.4411 12.3604 14.5376 12.4249 14.6189 12.5061C14.7001 12.5874 14.7646 12.6839 14.8085 12.7901C14.8525 12.8963 14.8751 13.0101 14.875 13.125V18.375C15.1071 18.375 15.3296 18.4672 15.4937 18.6313C15.6578 18.7954 15.75 19.0179 15.75 19.25C15.75 19.4821 15.6578 19.7046 15.4937 19.8687C15.3296 20.0328 15.1071 20.125 14.875 20.125Z" fill="#FFD961"/>
</svg>
