<svg width="20" height="20" viewBox="0 0 20 20" fill="none" xmlns="http://www.w3.org/2000/svg">
<path fill-rule="evenodd" clip-rule="evenodd" d="M10 0C4.47715 0 0 4.47715 0 10C0 15.5228 4.47715 20 10 20C15.5228 20 20 15.5228 20 10C20 4.47715 15.5228 0 10 0ZM7.80137 4.69889C8.37026 4.673 8.55204 4.66667 10.0005 4.66667H9.99883C11.4477 4.66667 11.6288 4.673 12.1977 4.69889C12.7655 4.72489 13.1533 4.81478 13.4933 4.94667C13.8444 5.08278 14.1411 5.26501 14.4378 5.56168C14.7344 5.85812 14.9167 6.15568 15.0533 6.50646C15.1844 6.84558 15.2744 7.23314 15.3011 7.80092C15.3267 8.36982 15.3333 8.5516 15.3333 10.0001C15.3333 11.4485 15.3267 11.6299 15.3011 12.1987C15.2744 12.7663 15.1844 13.154 15.0533 13.4932C14.9167 13.8439 14.7344 14.1414 14.4378 14.4379C14.1414 14.7345 13.8443 14.9172 13.4936 15.0534C13.1543 15.1853 12.7663 15.2752 12.1985 15.3012C11.6296 15.3271 11.4484 15.3334 9.99983 15.3334C8.55149 15.3334 8.36982 15.3271 7.80092 15.3012C7.23325 15.2752 6.84558 15.1853 6.50624 15.0534C6.15568 14.9172 5.85812 14.7345 5.56179 14.4379C5.26523 14.1414 5.083 13.8439 4.94667 13.4931C4.81489 13.154 4.725 12.7664 4.69889 12.1986C4.67311 11.6297 4.66667 11.4485 4.66667 10.0001C4.66667 8.5516 4.67333 8.36971 4.69878 7.80081C4.72433 7.23325 4.81433 6.84558 4.94656 6.50635C5.08323 6.15568 5.26545 5.85812 5.56212 5.56168C5.85857 5.26512 6.15613 5.08289 6.50691 4.94667C6.84602 4.81478 7.23358 4.72489 7.80137 4.69889Z" fill="#E0E0E0"/>
<path fill-rule="evenodd" clip-rule="evenodd" d="M9.52175 5.62762C9.61465 5.62747 9.71459 5.62751 9.82244 5.62756L10.0002 5.62762C11.4242 5.62762 11.593 5.63273 12.1553 5.65828C12.6753 5.68206 12.9576 5.76895 13.1456 5.84195C13.3945 5.93862 13.5719 6.05418 13.7585 6.24084C13.9451 6.42751 14.0607 6.60529 14.1576 6.85418C14.2306 7.04196 14.3176 7.32419 14.3412 7.84419C14.3668 8.40642 14.3724 8.57531 14.3724 9.99866C14.3724 11.422 14.3668 11.5909 14.3412 12.1531C14.3175 12.6731 14.2306 12.9554 14.1576 13.1431C14.0609 13.392 13.9451 13.5693 13.7585 13.7558C13.5718 13.9425 13.3946 14.058 13.1456 14.1547C12.9578 14.228 12.6753 14.3147 12.1553 14.3385C11.5931 14.364 11.4242 14.3696 10.0002 14.3696C8.57607 14.3696 8.40729 14.364 7.84506 14.3385C7.32506 14.3145 7.04283 14.2276 6.85472 14.1546C6.60583 14.0579 6.42805 13.9424 6.24138 13.7557C6.05471 13.569 5.93916 13.3917 5.84227 13.1427C5.76926 12.9549 5.68226 12.6727 5.6586 12.1527C5.63304 11.5905 5.62793 11.4216 5.62793 9.99733C5.62793 8.57309 5.63304 8.40509 5.6586 7.84286C5.68237 7.32285 5.76926 7.04063 5.84227 6.85263C5.93893 6.60374 6.05471 6.42596 6.24138 6.23929C6.42805 6.05262 6.60583 5.93706 6.85472 5.84017C7.04272 5.76684 7.32506 5.68017 7.84506 5.65628C8.33707 5.63406 8.52774 5.62739 9.52175 5.62628V5.62762ZM12.8469 6.51257C12.4935 6.51257 12.2069 6.79891 12.2069 7.15236C12.2069 7.50569 12.4935 7.79236 12.8469 7.79236C13.2002 7.79236 13.4869 7.50569 13.4869 7.15236C13.4869 6.79902 13.2002 6.51235 12.8469 6.51235V6.51257ZM7.26107 9.99931C7.26107 8.48678 8.48735 7.26046 9.99987 7.2604C11.5124 7.2604 12.7385 8.48674 12.7385 9.99931C12.7385 11.5119 11.5126 12.7377 9.99999 12.7377C8.48741 12.7377 7.26107 11.5119 7.26107 9.99931Z" fill="#E0E0E0"/>
<path fill-rule="evenodd" clip-rule="evenodd" d="M10.0005 8.22198C10.9822 8.22198 11.7782 9.01788 11.7782 9.99978C11.7782 10.9816 10.9822 11.7776 10.0005 11.7776C9.01855 11.7776 8.22266 10.9816 8.22266 9.99978C8.22266 9.01788 9.01855 8.22198 10.0005 8.22198V8.22198Z" fill="#E0E0E0"/>
</svg>
