<svg width="24" height="24" viewBox="0 0 24 24" fill="none" xmlns="http://www.w3.org/2000/svg">
<path fill-rule="evenodd" clip-rule="evenodd" d="M12 0C5.37258 0 0 5.37258 0 12C0 18.6274 5.37258 24 12 24C18.6274 24 24 18.6274 24 12C24 5.37258 18.6274 0 12 0ZM9.36166 5.63869C10.0443 5.60762 10.2625 5.60002 12.0006 5.60002H11.9986C13.7373 5.60002 13.9546 5.60762 14.6373 5.63869C15.3187 5.66989 15.784 5.77776 16.192 5.93603C16.6133 6.09936 16.9693 6.31803 17.3253 6.67404C17.6813 7.02977 17.9 7.38684 18.064 7.80778C18.2214 8.21472 18.3294 8.67979 18.3614 9.36113C18.392 10.0438 18.4 10.2619 18.4 12.0001C18.4 13.7382 18.392 13.9558 18.3614 14.6385C18.3294 15.3196 18.2214 15.7848 18.064 16.1919C17.9 16.6127 17.6813 16.9697 17.3253 17.3255C16.9697 17.6815 16.6132 17.9007 16.1924 18.0642C15.7852 18.2224 15.3196 18.3303 14.6383 18.3615C13.9556 18.3926 13.7381 18.4002 11.9998 18.4002C10.2618 18.4002 10.0438 18.3926 9.36113 18.3615C8.67992 18.3303 8.21472 18.2224 7.80751 18.0642C7.38684 17.9007 7.02977 17.6815 6.67417 17.3255C6.3183 16.9697 6.09963 16.6127 5.93603 16.1917C5.77789 15.7848 5.67002 15.3197 5.63869 14.6384C5.60776 13.9557 5.60002 13.7382 5.60002 12.0001C5.60002 10.2619 5.60802 10.0437 5.63856 9.361C5.66922 8.67992 5.77723 8.21472 5.93589 7.80765C6.0999 7.38684 6.31856 7.02977 6.67457 6.67404C7.03031 6.31816 7.38738 6.0995 7.80831 5.93603C8.21525 5.77776 8.68032 5.66989 9.36166 5.63869Z" fill="#757575"/>
<path fill-rule="evenodd" clip-rule="evenodd" d="M11.4264 6.75331C11.5379 6.75313 11.6578 6.75319 11.7873 6.75325L12.0006 6.75331C13.7094 6.75331 13.9119 6.75944 14.5867 6.79011C15.2107 6.81864 15.5494 6.92291 15.775 7.01051C16.0737 7.12651 16.2866 7.26518 16.5105 7.48918C16.7345 7.71319 16.8731 7.92652 16.9894 8.22519C17.077 8.45053 17.1814 8.7892 17.2098 9.4132C17.2405 10.0879 17.2472 10.2905 17.2472 11.9986C17.2472 13.7066 17.2405 13.9093 17.2098 14.5839C17.1813 15.2079 17.077 15.5466 16.9894 15.7719C16.8734 16.0706 16.7345 16.2833 16.5105 16.5071C16.2865 16.7311 16.0738 16.8698 15.775 16.9858C15.5497 17.0738 15.2107 17.1778 14.5867 17.2064C13.9121 17.237 13.7094 17.2437 12.0006 17.2437C10.2916 17.2437 10.0891 17.237 9.41441 17.2064C8.7904 17.1776 8.45173 17.0733 8.22599 16.9857C7.92732 16.8697 7.71399 16.731 7.48999 16.507C7.26598 16.283 7.12732 16.0702 7.01105 15.7714C6.92345 15.5461 6.81905 15.2074 6.79065 14.5834C6.75998 13.9087 6.75385 13.706 6.75385 11.997C6.75385 10.2879 6.75998 10.0863 6.79065 9.4116C6.81918 8.7876 6.92345 8.44893 7.01105 8.22332C7.12705 7.92465 7.26598 7.71132 7.48999 7.48732C7.71399 7.26331 7.92732 7.12465 8.22599 7.00838C8.4516 6.92038 8.7904 6.81638 9.41441 6.78771C10.0048 6.76104 10.2336 6.75304 11.4264 6.75171V6.75331ZM15.4169 7.81597C14.9929 7.81597 14.6489 8.15958 14.6489 8.58371C14.6489 9.00772 14.9929 9.35172 15.4169 9.35172C15.8409 9.35172 16.1849 9.00772 16.1849 8.58371C16.1849 8.15971 15.8409 7.81571 15.4169 7.81571V7.81597ZM8.71386 12C8.71386 10.185 10.1854 8.71341 12.0004 8.71334C13.8155 8.71334 15.2867 10.185 15.2867 12C15.2867 13.8151 13.8157 15.2861 12.0006 15.2861C10.1855 15.2861 8.71386 13.8151 8.71386 12Z" fill="#757575"/>
<path d="M12.0006 9.8667C13.1787 9.8667 14.134 10.8218 14.134 12.0001C14.134 13.1782 13.1787 14.1334 12.0006 14.1334C10.8223 14.1334 9.86725 13.1782 9.86725 12.0001C9.86725 10.8218 10.8223 9.8667 12.0006 9.8667Z" fill="#757575"/>
</svg>
