<svg width="16" height="16" viewBox="0 0 16 16" fill="none" xmlns="http://www.w3.org/2000/svg">
<path fill-rule="evenodd" clip-rule="evenodd" d="M8.00075 -0.000976562C5.82806 -0.000976562 5.55539 0.00852354 4.70205 0.0473573C3.85037 0.0863577 3.26903 0.221192 2.76036 0.419028C2.23419 0.623363 1.78785 0.8967 1.34318 1.34154C0.898176 1.78621 0.62484 2.23255 0.419838 2.75855C0.221502 3.26739 0.0865009 3.8489 0.0481672 4.70024C0.0100001 5.55358 0 5.82642 0 7.99911C0 10.1718 0.00966677 10.4436 0.0483338 11.297C0.0875009 12.1486 0.222336 12.73 0.420004 13.2387C0.624506 13.7648 0.897843 14.2112 1.34268 14.6558C1.78719 15.1008 2.23352 15.3749 2.75936 15.5792C3.26837 15.777 3.84987 15.9119 4.70138 15.9509C5.55472 15.9897 5.82723 15.9992 7.99975 15.9992C10.1726 15.9992 10.4444 15.9897 11.2978 15.9509C12.1495 15.9119 12.7315 15.777 13.2405 15.5792C13.7665 15.3749 14.2121 15.1008 14.6567 14.6558C15.1017 14.2112 15.375 13.7648 15.58 13.2388C15.7767 12.73 15.9117 12.1485 15.9517 11.2971C15.99 10.4438 16 10.1718 16 7.99911C16 5.82642 15.99 5.55375 15.9517 4.70041C15.9117 3.84873 15.7767 3.26739 15.58 2.75872C15.375 2.23255 15.1017 1.78621 14.6567 1.34154C14.2116 0.896533 13.7666 0.623197 13.24 0.419028C12.73 0.221192 12.1483 0.0863577 11.2966 0.0473573C10.4433 0.00852354 10.1716 -0.000976562 7.99825 -0.000976562L8.00075 -0.000976562Z" fill="#70A8DD"/>
<path fill-rule="evenodd" clip-rule="evenodd" d="M7.28262 1.44243C7.49562 1.4421 7.73329 1.44243 8.0003 1.44243C10.1363 1.44243 10.3895 1.4501 11.233 1.48843C12.013 1.5241 12.4363 1.65443 12.7183 1.76393C13.0917 1.90893 13.3579 2.08227 13.6377 2.36227C13.9177 2.64228 14.091 2.90895 14.2364 3.28228C14.3459 3.56395 14.4764 3.98729 14.5119 4.7673C14.5502 5.61064 14.5585 5.86398 14.5585 7.999C14.5585 10.134 14.5502 10.3874 14.5119 11.2307C14.4762 12.0107 14.3459 12.434 14.2364 12.7157C14.0914 13.0891 13.9177 13.3549 13.6377 13.6347C13.3577 13.9147 13.0918 14.0881 12.7183 14.2331C12.4367 14.3431 12.013 14.4731 11.233 14.5087C10.3897 14.5471 10.1363 14.5554 8.0003 14.5554C5.86411 14.5554 5.61094 14.5471 4.7676 14.5087C3.98759 14.4727 3.56425 14.3424 3.28208 14.2329C2.90874 14.0879 2.64207 13.9146 2.36207 13.6346C2.08207 13.3546 1.90873 13.0886 1.7634 12.715C1.6539 12.4334 1.5234 12.01 1.4879 11.23C1.44956 10.3867 1.44189 10.1334 1.44189 7.997C1.44189 5.86064 1.44956 5.60864 1.4879 4.7653C1.52356 3.98529 1.6539 3.56195 1.7634 3.27995C1.9084 2.90661 2.08207 2.63994 2.36207 2.35994C2.64207 2.07994 2.90874 1.9066 3.28208 1.76127C3.56408 1.65127 3.98759 1.52126 4.7676 1.48543C5.5056 1.4521 5.79161 1.4421 7.28262 1.44043V1.44243Z" fill="#70A8DD"/>
<path fill-rule="evenodd" clip-rule="evenodd" d="M12.2701 2.77084C11.7401 2.77084 11.3101 3.20035 11.3101 3.73052C11.3101 4.26052 11.7401 4.69053 12.2701 4.69053C12.8001 4.69053 13.2301 4.26052 13.2301 3.73052C13.2301 3.20051 12.8001 2.77051 12.2701 2.77051V2.77084Z" fill="#FAFAFA"/>
<path fill-rule="evenodd" clip-rule="evenodd" d="M7.99998 3.89355C5.73112 3.89355 3.8916 5.73307 3.8916 8.00193C3.8916 10.2708 5.73112 12.1095 7.99998 12.1095C10.2688 12.1095 12.1077 10.2708 12.1077 8.00193C12.1077 5.73307 10.2687 3.89355 7.99981 3.89355L7.99998 3.89355Z" fill="#FAFAFA"/>
<path fill-rule="evenodd" clip-rule="evenodd" d="M8.00068 5.33496C9.47336 5.33496 10.6674 6.52881 10.6674 8.00166C10.6674 9.47434 9.47336 10.6683 8.00068 10.6683C6.52783 10.6683 5.33398 9.47434 5.33398 8.00166C5.33398 6.52881 6.52783 5.33496 8.00068 5.33496V5.33496Z" fill="#70A8DD"/>
</svg>
