<svg width="20" height="20" viewBox="0 0 20 20" fill="none" xmlns="http://www.w3.org/2000/svg">
<path d="M7.2788 9.5964C6.79701 8.39466 6.74492 7.06342 7.13134 5.8277C7.51776 4.59199 8.31899 3.5276 9.3996 2.81444C10.4802 2.10128 11.7739 1.78309 13.062 1.91367C14.3502 2.04425 15.5537 2.61558 16.4692 3.53109C17.3847 4.4466 17.956 5.65014 18.0866 6.93826C18.2172 8.22638 17.899 9.52009 17.1858 10.6007C16.4727 11.6813 15.4083 12.4825 14.1726 12.869C12.9369 13.2554 11.6056 13.2033 10.4039 12.7215L10.4039 12.7214L9.37519 13.7501H7.50019V15.6251H5.62519V17.5001H2.50019V14.3751L7.27894 9.59634L7.2788 9.5964Z" stroke="#8E9AA6" stroke-width="1.5" stroke-linecap="round" stroke-linejoin="round"/>
<path d="M14.0625 6.71875C14.494 6.71875 14.8438 6.36897 14.8438 5.9375C14.8438 5.50603 14.494 5.15625 14.0625 5.15625C13.631 5.15625 13.2812 5.50603 13.2812 5.9375C13.2812 6.36897 13.631 6.71875 14.0625 6.71875Z" fill="#8E9AA6"/>
</svg>
