<svg width="28" height="28" viewBox="0 0 28 28" fill="none" xmlns="http://www.w3.org/2000/svg">
<path d="M13.3812 7.81282L15.5467 5.64731C15.9935 5.20009 16.5241 4.84528 17.108 4.60315C17.692 4.36102 18.318 4.23632 18.9501 4.23618C19.5823 4.23603 20.2083 4.36044 20.7924 4.60229C21.3765 4.84415 21.9072 5.19871 22.3542 5.64572C22.8012 6.09274 23.1558 6.62345 23.3976 7.20753C23.6395 7.79161 23.7639 8.41762 23.7638 9.0498C23.7636 9.68197 23.6389 10.3079 23.3968 10.8919C23.1547 11.4759 22.7998 12.0064 22.3526 12.4532L19.259 15.5468C18.8121 15.9937 18.2816 16.3482 17.6977 16.59C17.1139 16.8319 16.4881 16.9564 15.8561 16.9564C15.2241 16.9564 14.5983 16.8319 14.0144 16.59C13.4305 16.3482 12.9 15.9937 12.4531 15.5468" stroke="#9DE6A9" stroke-width="2" stroke-linecap="round" stroke-linejoin="round"/>
<path d="M14.6189 20.1872L12.4534 22.3527C12.0066 22.7999 11.476 23.1547 10.892 23.3968C10.3081 23.639 9.68212 23.7637 9.04995 23.7638C8.41777 23.764 7.79176 23.6396 7.20768 23.3977C6.6236 23.1558 6.09289 22.8013 5.64588 22.3543C5.19886 21.9073 4.8443 21.3765 4.60244 20.7925C4.36059 20.2084 4.23618 19.5824 4.23633 18.9502C4.23648 18.318 4.36117 17.6921 4.6033 17.1081C4.84543 16.5241 5.20024 15.9936 5.64746 15.5468L8.74105 12.4532C9.18794 12.0063 9.71846 11.6518 10.3023 11.41C10.8862 11.1681 11.512 11.0436 12.144 11.0436C12.776 11.0436 13.4018 11.1681 13.9857 11.41C14.5695 11.6518 15.1001 12.0063 15.547 12.4532" stroke="#9DE6A9" stroke-width="2" stroke-linecap="round" stroke-linejoin="round"/>
</svg>
