<svg width="24" height="24" viewBox="0 0 24 24" fill="none" xmlns="http://www.w3.org/2000/svg">
<g opacity="0.9">
<path d="M11.4696 6.6968L13.3257 4.84065C13.7087 4.45731 14.1635 4.15319 14.664 3.94565C15.1645 3.73811 15.7011 3.63123 16.2429 3.6311C16.7848 3.63098 17.3214 3.73761 17.822 3.94492C18.3227 4.15222 18.7776 4.45613 19.1607 4.83929C19.5439 5.22244 19.8478 5.67734 20.0551 6.17798C20.2624 6.67862 20.369 7.2152 20.3689 7.75706C20.3688 8.29893 20.2619 8.83546 20.0543 9.336C19.8468 9.83655 19.5427 10.2913 19.1594 10.6743L16.5077 13.3259C16.1247 13.709 15.6699 14.0128 15.1695 14.2201C14.669 14.4274 14.1326 14.5341 13.5909 14.5341C13.0492 14.5341 12.5128 14.4274 12.0123 14.2201C11.5118 14.0128 11.0571 13.709 10.6741 13.3259" stroke="white" stroke-width="2" stroke-linecap="round" stroke-linejoin="round"/>
<path d="M12.5304 17.3034L10.6743 19.1595C10.2913 19.5429 9.83655 19.847 9.336 20.0545C8.83546 20.2621 8.29893 20.3689 7.75706 20.3691C7.2152 20.3692 6.67862 20.2626 6.17798 20.0553C5.67734 19.848 5.22244 19.544 4.83929 19.1609C4.45613 18.7777 4.15222 18.3228 3.94492 17.8222C3.73761 17.3216 3.63098 16.785 3.6311 16.2431C3.63123 15.7012 3.73811 15.1647 3.94565 14.6642C4.15319 14.1636 4.45731 13.7089 4.84065 13.3259L7.4923 10.6742C7.87534 10.2912 8.33007 9.98736 8.83054 9.78006C9.33101 9.57276 9.86741 9.46606 10.4091 9.46606C10.9508 9.46606 11.4872 9.57276 11.9877 9.78006C12.4881 9.98736 12.9429 10.2912 13.3259 10.6742" stroke="white" stroke-width="2" stroke-linecap="round" stroke-linejoin="round"/>
</g>
</svg>
