<svg width="28" height="28" viewBox="0 0 28 28" fill="none" xmlns="http://www.w3.org/2000/svg">
<path d="M15.8551 19.5683L12.7615 22.6619C11.7769 23.6462 10.4416 24.1991 9.04936 24.1989C7.65712 24.1988 6.32195 23.6457 5.33749 22.6612C4.35304 21.6768 3.79992 20.3416 3.7998 18.9494C3.79969 17.5572 4.35257 16.2219 5.33686 15.2373L8.43045 12.1437" stroke="#FF916F" stroke-width="2" stroke-linecap="round" stroke-linejoin="round"/>
<path d="M19.5682 15.8554L22.6618 12.7618C23.6461 11.7772 24.1989 10.442 24.1988 9.04972C24.1987 7.65749 23.6456 6.32232 22.6611 5.33786C21.6767 4.3534 20.3415 3.80029 18.9493 3.80017C17.557 3.80005 16.2218 4.35294 15.2372 5.33723L12.1436 8.43082" stroke="#FF916F" stroke-width="2" stroke-linecap="round" stroke-linejoin="round"/>
</svg>
