<svg width="24" height="24" viewBox="0 0 24 24" fill="none" xmlns="http://www.w3.org/2000/svg">
<path d="M11.4693 6.69705L13.3255 4.84089C13.7085 4.45756 14.1632 4.15343 14.6638 3.9459C15.1643 3.73836 15.7008 3.63147 16.2427 3.63135C16.7846 3.63122 17.3211 3.73786 17.8218 3.94516C18.3224 4.15247 18.7773 4.45638 19.1605 4.83953C19.5436 5.22269 19.8475 5.67758 20.0548 6.17822C20.2621 6.67886 20.3688 7.21544 20.3687 7.75731C20.3685 8.29917 20.2616 8.8357 20.0541 9.33625C19.8466 9.83679 19.5424 10.2915 19.1591 10.6745L16.5075 13.3262C16.1244 13.7092 15.6697 14.0131 15.1692 14.2204C14.6687 14.4277 14.1323 14.5344 13.5906 14.5344C13.0489 14.5344 12.5125 14.4277 12.0121 14.2204C11.5116 14.0131 11.0569 13.7092 10.6738 13.3262" stroke="#769FCD" stroke-width="2" stroke-linecap="round" stroke-linejoin="round"/>
<path d="M12.5302 17.3036L10.674 19.1598C10.2911 19.5431 9.8363 19.8472 9.33576 20.0548C8.83521 20.2623 8.29868 20.3692 7.75682 20.3693C7.21496 20.3694 6.67838 20.2628 6.17773 20.0555C5.67709 19.8482 5.2222 19.5443 4.83904 19.1611C4.45589 18.778 4.15198 18.3231 3.94467 17.8224C3.73737 17.3218 3.63073 16.7852 3.63086 16.2434C3.63099 15.7015 3.73787 15.165 3.94541 14.6644C4.15295 14.1639 4.45707 13.7091 4.8404 13.3261L7.49205 10.6745C7.87509 10.2915 8.32983 9.98761 8.8303 9.78031C9.33077 9.57301 9.86716 9.46631 10.4089 9.46631C10.9506 9.46631 11.487 9.57301 11.9874 9.78031C12.4879 9.98761 12.9426 10.2915 13.3257 10.6745" stroke="#769FCD" stroke-width="2" stroke-linecap="round" stroke-linejoin="round"/>
</svg>
