<svg width="20" height="20" viewBox="0 0 20 20" fill="none" xmlns="http://www.w3.org/2000/svg">
<path fill-rule="evenodd" clip-rule="evenodd" d="M10 0C15.5228 0 20 4.47715 20 10C20 15.5228 15.5228 20 10 20C4.47715 20 0 15.5228 0 10C0 4.47715 4.47715 0 10 0Z" fill="#70A8DD"/>
<path d="M9.99927 4.75C8.90565 4.7513 7.85719 5.18631 7.08389 5.95962C6.31058 6.73292 5.87557 7.78138 5.87427 8.875C5.87427 12.4045 9.62427 15.0706 9.78394 15.1823C9.84708 15.2264 9.92225 15.25 9.99927 15.25C10.0763 15.25 10.1515 15.2264 10.2146 15.1823C10.3743 15.0706 14.1243 12.4045 14.1243 8.875C14.123 7.78138 13.688 6.73292 12.9146 5.95962C12.1413 5.18631 11.0929 4.7513 9.99927 4.75ZM9.99954 7.37514C10.2962 7.37514 10.5862 7.46311 10.8329 7.62793C11.0796 7.79275 11.2718 8.02702 11.3854 8.30111C11.4989 8.5752 11.5286 8.8768 11.4707 9.16777C11.4128 9.45874 11.27 9.72602 11.0602 9.9358C10.8504 10.1456 10.5831 10.2884 10.2922 10.3463C10.0012 10.4042 9.69961 10.3745 9.42552 10.261C9.15143 10.1474 8.91716 9.95516 8.75234 9.70849C8.58752 9.46182 8.49954 9.17181 8.49954 8.87514C8.49954 8.67815 8.53833 8.4831 8.61371 8.3011C8.68909 8.11911 8.79958 7.95375 8.93887 7.81446C9.07816 7.67517 9.24352 7.56469 9.42551 7.48931C9.6075 7.41392 9.80256 7.37513 9.99954 7.37514Z" fill="white"/>
</svg>
