<svg width="114" height="26" viewBox="0 0 114 26" fill="none" xmlns="http://www.w3.org/2000/svg">
<path d="M3.92735 25.7183H0V3.01917H3.92735V13.785L12.7399 3.01917H17.4655L8.26979 13.5905L18.0403 25.7183H13.0592L3.92735 14.012V25.7183Z" fill="#424242"/>
<path d="M24.7571 25.7182H21.0576V9.28093H24.7571V25.7182Z" fill="#424242"/>
<path d="M43.5376 9.28093V25.7182H40.5781L32.9018 15.8559V25.7182H29.4335V9.28093H32.3931L40.0694 19.1903V9.28093H43.5376Z" fill="#424242"/>
<path d="M46.8196 17.4996C46.8196 15.0731 47.6134 13.0537 49.2011 11.4413C50.8042 9.81318 52.8774 8.99915 55.4208 8.99915C57.9487 8.99915 60.0066 9.77405 61.5942 11.3239C63.2127 12.8737 64.022 14.9322 64.022 17.4996C64.022 19.973 63.205 22.0081 61.5711 23.6049C59.9526 25.2016 57.9025 26 55.4208 26C52.9083 26 50.8427 25.2251 49.2242 23.6753C47.6211 22.1255 46.8196 20.0669 46.8196 17.4996ZM50.7502 17.4996C50.7502 18.8928 51.205 20.0748 52.1144 21.0454C53.0084 22.0003 54.1106 22.4777 55.4208 22.4777C56.9006 22.4777 58.0489 22.0159 58.8659 21.0923C59.6829 20.1374 60.0913 18.9398 60.0913 17.4996C60.0913 16.0124 59.6443 14.8148 58.7503 13.9069C57.8408 12.9832 56.731 12.5214 55.4208 12.5214C54.0643 12.5214 52.9468 12.9832 52.0682 13.9069C51.1896 14.8305 50.7502 16.0281 50.7502 17.4996Z" fill="#424242"/>
<path d="M77.5972 25.7182H67.3081V9.28093H71.0075V22.196H77.5972V25.7182Z" fill="#424242"/>
<path d="M84.1134 25.7182H80.414V9.28093H84.1134V25.7182Z" fill="#424242"/>
<path d="M92.4893 25.7182H88.7899V9.28093H98.1541V12.8032H92.4893V16.2785H97.4604V19.8008H92.4893V25.7182Z" fill="#424242"/>
<path d="M105.445 12.8032H100.59V9.28093H114V12.8032H109.145V25.7182H105.445V12.8032Z" fill="#424242"/>
<path d="M107.281 0L113.861 7.54775H100.702L107.281 0Z" fill="#FFCA28"/>
</svg>
