<svg width="20" height="20" viewBox="0 0 20 20" fill="none" xmlns="http://www.w3.org/2000/svg">
<path fill-rule="evenodd" clip-rule="evenodd" d="M10 20C15.5228 20 20 15.5228 20 10C20 4.47715 15.5228 0 10 0C4.47715 0 0 4.47715 0 10C0 15.5228 4.47715 20 10 20ZM10.138 9.43882C9.35683 9.43882 5.33203 7.15646 5.33203 7.15646V6.80006C5.33203 6.35846 5.69043 6.00006 6.13283 6.00006H14.1432C14.586 6.00006 14.9444 6.35846 14.9444 6.80006L14.938 7.20006C14.938 7.20006 10.9568 9.43882 10.138 9.43882ZM14.938 8.39981C14.938 8.39981 10.9944 10.5386 10.138 10.5386C9.35683 10.5386 5.33803 8.39981 5.33843 8.39981L5.33203 13.1998C5.33203 13.6414 5.69083 13.9998 6.13283 13.9998H14.1432C14.586 13.9998 14.9444 13.6414 14.9444 13.1998L14.938 8.39981Z" fill="#70A8DD"/>
</svg>
