<svg width="15" height="13" viewBox="0 0 15 13" fill="none" xmlns="http://www.w3.org/2000/svg">
<path fill-rule="evenodd" clip-rule="evenodd" d="M7.209 5.15814C6.0372 5.15814 0 1.7346 0 1.7346V1.2C0 0.5376 0.5376 0 1.2012 0H13.2168C13.881 0 14.4186 0.5376 14.4186 1.2L14.409 1.8C14.409 1.8 8.4372 5.15814 7.209 5.15814Z" fill="#70A8DD"/>
<path fill-rule="evenodd" clip-rule="evenodd" d="M7.209 6.8097C8.4936 6.8097 14.409 3.60156 14.409 3.60156L14.4186 10.8016C14.4186 11.464 13.881 12.0016 13.2168 12.0016H1.2012C0.5382 12.0016 0 11.464 0 10.8016L0.0096 3.60156C0.009 3.60156 6.0372 6.8097 7.209 6.8097Z" fill="#70A8DD"/>
</svg>
