<svg width="20" height="20" viewBox="0 0 20 20" fill="none" xmlns="http://www.w3.org/2000/svg">
<path fill-rule="evenodd" clip-rule="evenodd" d="M10 20C15.5228 20 20 15.5228 20 10C20 4.47715 15.5228 0 10 0C4.47715 0 0 4.47715 0 10C0 15.5228 4.47715 20 10 20ZM10.1393 9.43876C9.35813 9.43876 5.33333 7.1564 5.33333 7.1564V6.8C5.33333 6.3584 5.69173 6 6.13413 6H14.1445C14.5873 6 14.9457 6.3584 14.9457 6.8L14.9393 7.2C14.9393 7.2 10.9581 9.43876 10.1393 9.43876ZM14.9393 8.39974C14.9393 8.39974 10.9957 10.5385 10.1393 10.5385C9.35813 10.5385 5.33933 8.39974 5.33973 8.39974L5.33333 13.1997C5.33333 13.6413 5.69213 13.9997 6.13413 13.9997H14.1445C14.5873 13.9997 14.9457 13.6413 14.9457 13.1997L14.9393 8.39974Z" fill="#E0E0E0"/>
</svg>
