<svg width="16" height="16" viewBox="0 0 16 16" fill="none" xmlns="http://www.w3.org/2000/svg">
<path fill-rule="evenodd" clip-rule="evenodd" d="M8 16C12.4183 16 16 12.4183 16 8C16 3.58172 12.4183 0 8 0C3.58172 0 0 3.58172 0 8C0 12.4183 3.58172 16 8 16ZM8.11199 7.55101C7.48703 7.55101 4.26719 5.72512 4.26719 5.72512V5.44C4.26719 5.08672 4.55391 4.8 4.90783 4.8H11.3161C11.6704 4.8 11.9571 5.08672 11.9571 5.44L11.952 5.76C11.952 5.76 8.76703 7.55101 8.11199 7.55101ZM11.952 6.71982C11.952 6.71982 8.79711 8.43083 8.11199 8.43083C7.48703 8.43083 4.27199 6.71982 4.27231 6.71982L4.26719 10.5598C4.26719 10.9131 4.55423 11.1998 4.90783 11.1998H11.3161C11.6704 11.1998 11.9571 10.9131 11.9571 10.5598L11.952 6.71982Z" fill="#BDBDBD"/>
</svg>
