<svg width="20" height="20" viewBox="0 0 20 20" fill="none" xmlns="http://www.w3.org/2000/svg">
<path d="M10 1.24951C8.1773 1.25167 6.42987 1.9767 5.14103 3.26554C3.85219 4.55439 3.12716 6.30181 3.125 8.12451C3.125 14.0071 9.375 18.4504 9.64111 18.6366C9.74636 18.7101 9.87163 18.7495 10 18.7495C10.1284 18.7495 10.2536 18.7101 10.3589 18.6366C10.625 18.4504 16.875 14.0071 16.875 8.12451C16.8728 6.30181 16.1478 4.55439 14.859 3.26554C13.5701 1.9767 11.8227 1.25167 10 1.24951ZM10.0005 5.62474C10.4949 5.62474 10.9783 5.77136 11.3894 6.04606C11.8005 6.32077 12.1209 6.71121 12.3102 7.16803C12.4994 7.62484 12.5489 8.12751 12.4524 8.61246C12.356 9.09742 12.1179 9.54287 11.7682 9.89251C11.4186 10.2421 10.9731 10.4802 10.4882 10.5767C10.0032 10.6732 9.50056 10.6237 9.04375 10.4344C8.58693 10.2452 8.19649 9.92479 7.92178 9.51366C7.64708 9.10254 7.50046 8.61919 7.50046 8.12474C7.50045 7.79643 7.56511 7.47134 7.69074 7.16802C7.81637 6.8647 8.00052 6.5891 8.23267 6.35695C8.46482 6.1248 8.74042 5.94065 9.04374 5.81502C9.34706 5.68939 9.67215 5.62473 10.0005 5.62474Z" fill="#E0E0E0"/>
</svg>
