<svg width="24" height="24" viewBox="0 0 24 24" fill="none" xmlns="http://www.w3.org/2000/svg">
<path fill-rule="evenodd" clip-rule="evenodd" d="M19 4.5H5C3.61929 4.5 2.5 5.61929 2.5 7V17C2.5 18.3807 3.61929 19.5 5 19.5H19C20.3807 19.5 21.5 18.3807 21.5 17V7C21.5 5.61929 20.3807 4.5 19 4.5ZM5 3C2.79086 3 1 4.79086 1 7V17C1 19.2091 2.79086 21 5 21H19C21.2091 21 23 19.2091 23 17V7C23 4.79086 21.2091 3 19 3H5ZM4 7.25C4 6.83579 4.33579 6.5 4.75 6.5H6.25C6.66421 6.5 7 6.83579 7 7.25C7 7.66421 6.66421 8 6.25 8H4.75C4.33579 8 4 7.66421 4 7.25ZM9.08008 6.5C8.66586 6.5 8.33008 6.83579 8.33008 7.25C8.33008 7.66421 8.66586 8 9.08008 8H10.5801C10.9943 8 11.3301 7.66421 11.3301 7.25C11.3301 6.83579 10.9943 6.5 10.5801 6.5H9.08008ZM12.6602 7.25C12.6602 6.83579 12.9959 6.5 13.4102 6.5H14.9102C15.3244 6.5 15.6602 6.83579 15.6602 7.25C15.6602 7.66421 15.3244 8 14.9102 8H13.4102C12.9959 8 12.6602 7.66421 12.6602 7.25ZM17.7402 6.5C17.326 6.5 16.9902 6.83579 16.9902 7.25C16.9902 7.66421 17.326 8 17.7402 8H19.2402C19.6544 8 19.9902 7.66421 19.9902 7.25C19.9902 6.83579 19.6544 6.5 19.2402 6.5H17.7402ZM4 17.25C4 16.8358 4.33579 16.5 4.75 16.5H6.25C6.66421 16.5 7 16.8358 7 17.25C7 17.6642 6.66421 18 6.25 18H4.75C4.33579 18 4 17.6642 4 17.25ZM9.08008 16.5C8.66586 16.5 8.33008 16.8358 8.33008 17.25C8.33008 17.6642 8.66586 18 9.08008 18H10.5801C10.9943 18 11.3301 17.6642 11.3301 17.25C11.3301 16.8358 10.9943 16.5 10.5801 16.5H9.08008ZM12.6602 17.25C12.6602 16.8358 12.9959 16.5 13.4102 16.5H14.9102C15.3244 16.5 15.6602 16.8358 15.6602 17.25C15.6602 17.6642 15.3244 18 14.9102 18H13.4102C12.9959 18 12.6602 17.6642 12.6602 17.25ZM17.7402 16.5C17.326 16.5 16.9902 16.8358 16.9902 17.25C16.9902 17.6642 17.326 18 17.7402 18H19.2402C19.6544 18 19.9902 17.6642 19.9902 17.25C19.9902 16.8358 19.6544 16.5 19.2402 16.5H17.7402Z" fill="#70A8DD"/>
</svg>
