<svg width="20" height="20" viewBox="0 0 20 20" fill="none" xmlns="http://www.w3.org/2000/svg">
<path d="M14.0625 15.625C15.2706 15.625 16.25 14.6456 16.25 13.4375C16.25 12.2294 15.2706 11.25 14.0625 11.25C12.8544 11.25 11.875 12.2294 11.875 13.4375C11.875 14.6456 12.8544 15.625 14.0625 15.625Z" stroke="#9E9E9E" stroke-width="1.5" stroke-linecap="round" stroke-linejoin="round"/>
<path d="M4.0625 18.125C5.27062 18.125 6.25 17.1456 6.25 15.9375C6.25 14.7294 5.27062 13.75 4.0625 13.75C2.85438 13.75 1.875 14.7294 1.875 15.9375C1.875 17.1456 2.85438 18.125 4.0625 18.125Z" stroke="#9E9E9E" stroke-width="1.5" stroke-linecap="round" stroke-linejoin="round"/>
<path d="M6.25 15.9375V5L16.25 2.5V13.4375" stroke="#9E9E9E" stroke-width="1.5" stroke-linecap="round" stroke-linejoin="round"/>
</svg>
