<svg width="56" height="56" viewBox="0 0 56 56" fill="none" xmlns="http://www.w3.org/2000/svg">
<path d="M17.5 33.25C23.7822 33.25 28.875 28.1572 28.875 21.875C28.875 15.5928 23.7822 10.5 17.5 10.5C11.2178 10.5 6.125 15.5928 6.125 21.875C6.125 28.1572 11.2178 33.25 17.5 33.25Z" fill="#FFCFCF"/>
<path d="M10.8044 22.75C11.2319 20.9406 12.0914 19.2981 13.2682 17.9375C14.5144 16.4966 16.1163 15.5471 17.9375 14.8751" stroke="white" stroke-linecap="round"/>
<path d="M19.25 35C25.5322 35 30.625 29.9072 30.625 23.625C30.625 17.3428 25.5322 12.25 19.25 12.25C12.9678 12.25 7.875 17.3428 7.875 23.625C7.875 29.9072 12.9678 35 19.25 35Z" stroke="#6D7684" stroke-width="2" stroke-miterlimit="10"/>
<path d="M33.9966 12.6738C35.5611 12.2329 37.202 12.1325 38.8086 12.3793C40.4152 12.626 41.9503 13.2142 43.3105 14.1041C44.6706 14.9941 45.8243 16.1652 46.6938 17.5386C47.5632 18.912 48.1283 20.4557 48.3509 22.0658C48.5735 23.676 48.4484 25.3151 47.9842 26.8729C47.5199 28.4306 46.7273 29.8708 45.6596 31.0964C44.5919 32.322 43.2739 33.3046 41.7945 33.978C40.3151 34.6513 38.7085 34.9999 37.0831 35" stroke="#6D7684" stroke-width="2" stroke-linecap="round" stroke-linejoin="round"/>
<path d="M3.49927 43.1805C5.27581 40.6535 7.63428 38.5911 10.3756 37.1673C13.1168 35.7435 16.1605 35.0001 19.2494 35C22.3384 34.9999 25.3821 35.743 28.1235 37.1666C30.8649 38.5902 33.2235 40.6525 35.0003 43.1793" stroke="#6D7684" stroke-width="2" stroke-linecap="round" stroke-linejoin="round"/>
<path d="M37.083 35C40.1723 34.9978 43.2166 35.74 45.9582 37.1637C48.6998 38.5875 51.058 40.6509 52.8331 43.1793" stroke="#6D7684" stroke-width="2" stroke-linecap="round" stroke-linejoin="round"/>
</svg>
