<svg width="335" height="339" viewBox="0 0 335 339" fill="none" xmlns="http://www.w3.org/2000/svg">
<rect x="0.5" y="0.5" width="334" height="338" rx="7.5" stroke="#DADADA" stroke-dasharray="8 8"/>
<path d="M179.189 152.864C182.394 152.864 184.994 150.266 184.994 147.061C184.994 143.857 182.394 141.259 179.189 141.259" stroke="#CACACA" stroke-width="1.5" stroke-linecap="round" stroke-linejoin="round"/>
<path d="M181.857 159.169C182.814 159.235 183.766 159.371 184.703 159.582C186.004 159.837 187.57 160.37 188.127 161.538C188.483 162.286 188.483 163.157 188.127 163.907C187.572 165.075 186.004 165.606 184.703 165.874" stroke="#CACACA" stroke-width="1.5" stroke-linecap="round" stroke-linejoin="round"/>
<path d="M156.58 152.864C153.375 152.864 150.775 150.266 150.775 147.061C150.775 143.857 153.375 141.259 156.58 141.259" stroke="#CACACA" stroke-width="1.5" stroke-linecap="round" stroke-linejoin="round"/>
<path d="M153.911 159.169C152.954 159.235 152.003 159.371 151.066 159.582C149.764 159.837 148.199 160.37 147.643 161.538C147.286 162.286 147.286 163.157 147.643 163.907C148.197 165.075 149.764 165.606 151.066 165.874" stroke="#CACACA" stroke-width="1.5" stroke-linecap="round" stroke-linejoin="round"/>
<path fill-rule="evenodd" clip-rule="evenodd" d="M167.875 160.419C174.369 160.419 179.917 161.402 179.917 165.334C179.917 169.265 174.406 170.284 167.875 170.284C161.38 170.284 155.834 169.301 155.834 165.369C155.834 161.436 161.345 160.419 167.875 160.419Z" stroke="#CACACA" stroke-width="1.5" stroke-linecap="round" stroke-linejoin="round"/>
<path fill-rule="evenodd" clip-rule="evenodd" d="M167.876 154.81C163.593 154.81 160.159 151.376 160.159 147.091C160.159 142.809 163.593 139.375 167.876 139.375C172.158 139.375 175.592 142.809 175.592 147.091C175.592 151.376 172.158 154.81 167.876 154.81Z" stroke="#CACACA" stroke-width="1.5" stroke-linecap="round" stroke-linejoin="round"/>
<path d="M81.414 203H80.21L84.424 193.144H85.446L89.66 203H88.386L87.126 200.032H82.66L81.414 203ZM86.664 198.912L84.9 194.726L83.136 198.912H86.664ZM95.1751 196.7H96.6451L93.8871 199.71L96.9111 203H95.3571L92.5151 199.78L95.1751 196.7ZM92.2491 203H91.1291V196.7H92.2491V203ZM99.8638 197.82H97.5538V196.7H103.294V197.82H100.984V203H99.8638V197.82ZM109.533 201.432L109.883 202.314C109.276 202.865 108.487 203.14 107.517 203.14C106.49 203.14 105.673 202.841 105.067 202.244C104.451 201.647 104.143 200.849 104.143 199.85C104.143 198.907 104.432 198.123 105.011 197.498C105.58 196.873 106.373 196.56 107.391 196.56C108.231 196.56 108.926 196.831 109.477 197.372C110.037 197.904 110.317 198.595 110.317 199.444C110.317 199.715 110.293 199.967 110.247 200.2H105.403C105.449 200.788 105.669 201.25 106.061 201.586C106.462 201.922 106.975 202.09 107.601 202.09C108.422 202.09 109.066 201.871 109.533 201.432ZM107.335 197.61C106.784 197.61 106.327 197.764 105.963 198.072C105.608 198.38 105.398 198.786 105.333 199.29H109.155C109.127 198.767 108.949 198.357 108.623 198.058C108.305 197.759 107.876 197.61 107.335 197.61ZM105.249 194.46C105.249 194.264 105.309 194.11 105.431 193.998C105.552 193.877 105.711 193.816 105.907 193.816C106.075 193.816 106.219 193.877 106.341 193.998C106.462 194.119 106.523 194.273 106.523 194.46C106.523 194.675 106.462 194.847 106.341 194.978C106.229 195.099 106.084 195.16 105.907 195.16C105.711 195.16 105.552 195.099 105.431 194.978C105.309 194.847 105.249 194.675 105.249 194.46ZM108.091 194.46C108.091 194.273 108.156 194.119 108.287 193.998C108.417 193.877 108.576 193.816 108.763 193.816C108.931 193.816 109.075 193.877 109.197 193.998C109.318 194.119 109.379 194.273 109.379 194.46C109.379 194.675 109.318 194.847 109.197 194.978C109.085 195.099 108.94 195.16 108.763 195.16C108.567 195.16 108.403 195.099 108.273 194.978C108.151 194.847 108.091 194.675 108.091 194.46ZM113.206 205.8H112.086V196.7H113.206V197.442C113.43 197.181 113.738 196.971 114.13 196.812C114.522 196.644 114.928 196.56 115.348 196.56C116.244 196.56 116.949 196.859 117.462 197.456C117.994 198.044 118.26 198.809 118.26 199.752C118.26 200.713 117.957 201.521 117.35 202.174C116.753 202.818 115.964 203.14 114.984 203.14C114.228 203.14 113.635 202.995 113.206 202.706V205.8ZM115.026 197.61C114.279 197.61 113.673 197.899 113.206 198.478V201.6C113.701 201.927 114.261 202.09 114.886 202.09C115.549 202.09 116.076 201.88 116.468 201.46C116.869 201.031 117.07 200.475 117.07 199.794C117.07 199.131 116.888 198.604 116.524 198.212C116.16 197.811 115.661 197.61 115.026 197.61ZM122.145 203H120.115V196.7H121.235V198.59H122.271C123.13 198.59 123.76 198.786 124.161 199.178C124.563 199.561 124.763 200.088 124.763 200.76C124.763 201.395 124.553 201.927 124.133 202.356C123.732 202.785 123.069 203 122.145 203ZM127.087 203H125.967V196.7H127.087V203ZM122.061 199.64H121.235V201.95H122.047C122.579 201.95 122.967 201.857 123.209 201.67C123.452 201.483 123.573 201.194 123.573 200.802C123.573 200.027 123.069 199.64 122.061 199.64ZM138.412 203H137.292V197.75H133.862V203H132.742V196.7H138.412V203ZM141.194 202.216C140.578 201.581 140.27 200.793 140.27 199.85C140.27 198.898 140.578 198.114 141.194 197.498C141.819 196.873 142.631 196.56 143.63 196.56C144.628 196.56 145.436 196.873 146.052 197.498C146.677 198.114 146.99 198.898 146.99 199.85C146.99 200.802 146.677 201.591 146.052 202.216C145.436 202.832 144.628 203.14 143.63 203.14C142.64 203.14 141.828 202.832 141.194 202.216ZM142.076 198.24C141.665 198.651 141.46 199.187 141.46 199.85C141.46 200.513 141.66 201.049 142.062 201.46C142.472 201.88 142.995 202.09 143.63 202.09C144.264 202.09 144.782 201.885 145.184 201.474C145.594 201.054 145.8 200.513 145.8 199.85C145.8 199.206 145.594 198.669 145.184 198.24C144.782 197.82 144.264 197.61 143.63 197.61C142.995 197.61 142.477 197.82 142.076 198.24ZM152.902 196.7H154.372L151.614 199.71L154.638 203H153.084L150.242 199.78L152.902 196.7ZM149.976 203H148.856V196.7H149.976V203ZM156.414 198.03L156.12 197.134C156.746 196.751 157.446 196.56 158.22 196.56C159.07 196.56 159.686 196.77 160.068 197.19C160.451 197.61 160.642 198.259 160.642 199.136V203H159.578V202.188C159.084 202.795 158.412 203.098 157.562 203.098C156.984 203.098 156.517 202.925 156.162 202.58C155.808 202.225 155.63 201.749 155.63 201.152C155.63 200.536 155.85 200.051 156.288 199.696C156.727 199.332 157.301 199.15 158.01 199.15C158.673 199.15 159.196 199.285 159.578 199.556C159.578 198.847 159.48 198.338 159.284 198.03C159.088 197.722 158.71 197.568 158.15 197.568C157.581 197.568 157.002 197.722 156.414 198.03ZM157.954 202.09C158.58 202.09 159.121 201.819 159.578 201.278V200.48C159.186 200.2 158.715 200.06 158.164 200.06C157.782 200.06 157.46 200.153 157.198 200.34C156.946 200.517 156.82 200.769 156.82 201.096C156.82 201.404 156.918 201.647 157.114 201.824C157.32 202.001 157.6 202.09 157.954 202.09ZM171.902 203H170.782V200.34H167.282V203H166.162V196.7H167.282V199.29H170.782V196.7H171.902V203ZM179.148 201.432L179.498 202.314C178.891 202.865 178.103 203.14 177.132 203.14C176.105 203.14 175.289 202.841 174.682 202.244C174.066 201.647 173.758 200.849 173.758 199.85C173.758 198.907 174.047 198.123 174.626 197.498C175.195 196.873 175.989 196.56 177.006 196.56C177.846 196.56 178.541 196.831 179.092 197.372C179.652 197.904 179.932 198.595 179.932 199.444C179.932 199.715 179.909 199.967 179.862 200.2H175.018C175.065 200.788 175.284 201.25 175.676 201.586C176.077 201.922 176.591 202.09 177.216 202.09C178.037 202.09 178.681 201.871 179.148 201.432ZM176.95 197.61C176.399 197.61 175.942 197.764 175.578 198.072C175.223 198.38 175.013 198.786 174.948 199.29H178.77C178.742 198.767 178.565 198.357 178.238 198.058C177.921 197.759 177.491 197.61 176.95 197.61ZM185.278 204.54H184.228V201.95H185.012C185.245 201.661 185.451 201.194 185.628 200.55C185.805 199.897 185.922 199.169 185.978 198.366L186.076 196.7H190.374V201.95H191.424V204.54H190.374V203H185.278V204.54ZM187.126 197.75L187.056 198.8C187 199.5 186.888 200.139 186.72 200.718C186.552 201.297 186.379 201.707 186.202 201.95H189.254V197.75H187.126ZM193.397 202.216C192.781 201.581 192.473 200.793 192.473 199.85C192.473 198.898 192.781 198.114 193.397 197.498C194.022 196.873 194.834 196.56 195.833 196.56C196.831 196.56 197.639 196.873 198.255 197.498C198.88 198.114 199.193 198.898 199.193 199.85C199.193 200.802 198.88 201.591 198.255 202.216C197.639 202.832 196.831 203.14 195.833 203.14C194.843 203.14 194.031 202.832 193.397 202.216ZM194.279 198.24C193.868 198.651 193.663 199.187 193.663 199.85C193.663 200.513 193.863 201.049 194.265 201.46C194.675 201.88 195.198 202.09 195.833 202.09C196.467 202.09 196.985 201.885 197.387 201.474C197.797 201.054 198.003 200.513 198.003 199.85C198.003 199.206 197.797 198.669 197.387 198.24C196.985 197.82 196.467 197.61 195.833 197.61C195.198 197.61 194.68 197.82 194.279 198.24ZM205.931 193.06L206.533 193.942C206.309 194.25 206.038 194.46 205.721 194.572C205.375 194.693 204.983 194.787 204.545 194.852C204.115 194.917 203.709 195.034 203.327 195.202C202.375 195.641 201.843 196.653 201.731 198.24H201.759C201.964 197.801 202.295 197.447 202.753 197.176C203.219 196.905 203.719 196.77 204.251 196.77C205.147 196.77 205.856 197.055 206.379 197.624C206.911 198.193 207.177 198.954 207.177 199.906C207.177 200.802 206.873 201.567 206.267 202.202C205.669 202.827 204.895 203.14 203.943 203.14C202.916 203.14 202.104 202.79 201.507 202.09C200.909 201.399 200.611 200.443 200.611 199.22C200.611 196.495 201.39 194.801 202.949 194.138C203.303 193.979 203.714 193.863 204.181 193.788C204.545 193.723 204.806 193.671 204.965 193.634C205.123 193.597 205.291 193.531 205.469 193.438C205.655 193.345 205.809 193.219 205.931 193.06ZM201.801 199.43C201.801 200.233 201.997 200.877 202.389 201.362C202.781 201.847 203.289 202.09 203.915 202.09C204.521 202.09 205.016 201.885 205.399 201.474C205.791 201.073 205.987 200.569 205.987 199.962C205.987 199.318 205.805 198.8 205.441 198.408C205.086 198.016 204.596 197.82 203.971 197.82C203.401 197.82 202.925 197.979 202.543 198.296C202.141 198.623 201.894 199.001 201.801 199.43ZM209.369 198.03L209.075 197.134C209.701 196.751 210.401 196.56 211.175 196.56C212.025 196.56 212.641 196.77 213.023 197.19C213.406 197.61 213.597 198.259 213.597 199.136V203H212.533V202.188C212.039 202.795 211.367 203.098 210.517 203.098C209.939 203.098 209.472 202.925 209.117 202.58C208.763 202.225 208.585 201.749 208.585 201.152C208.585 200.536 208.805 200.051 209.243 199.696C209.682 199.332 210.256 199.15 210.965 199.15C211.628 199.15 212.151 199.285 212.533 199.556C212.533 198.847 212.435 198.338 212.239 198.03C212.043 197.722 211.665 197.568 211.105 197.568C210.536 197.568 209.957 197.722 209.369 198.03ZM210.909 202.09C211.535 202.09 212.076 201.819 212.533 201.278V200.48C212.141 200.2 211.67 200.06 211.119 200.06C210.737 200.06 210.415 200.153 210.153 200.34C209.901 200.517 209.775 200.769 209.775 201.096C209.775 201.404 209.873 201.647 210.069 201.824C210.275 202.001 210.555 202.09 210.909 202.09ZM215.723 203V196.7C215.77 196.7 215.835 196.7 215.919 196.7C216.003 196.691 216.124 196.686 216.283 196.686C216.442 196.677 216.586 196.672 216.717 196.672C217.408 196.653 217.837 196.644 218.005 196.644C219.816 196.644 220.721 197.185 220.721 198.268C220.721 198.641 220.604 198.963 220.371 199.234C220.138 199.495 219.834 199.654 219.461 199.71V199.738C220.441 199.915 220.931 200.41 220.931 201.222C220.931 202.445 219.965 203.056 218.033 203.056C217.94 203.056 217.529 203.047 216.801 203.028C216.661 203.028 216.507 203.023 216.339 203.014C216.171 203.014 216.04 203.009 215.947 203C215.854 203 215.779 203 215.723 203ZM218.187 200.172H216.843V202.104C217.515 202.132 217.944 202.146 218.131 202.146C219.204 202.146 219.741 201.81 219.741 201.138C219.741 200.494 219.223 200.172 218.187 200.172ZM218.089 197.554C217.818 197.554 217.403 197.568 216.843 197.596V199.472H218.257C218.64 199.472 218.948 199.383 219.181 199.206C219.414 199.029 219.531 198.791 219.531 198.492C219.531 197.867 219.05 197.554 218.089 197.554ZM228.323 203H227.203V197.82H224.991L224.921 198.884C224.846 199.752 224.734 200.475 224.585 201.054C224.445 201.623 224.258 202.053 224.025 202.342C223.801 202.622 223.563 202.818 223.311 202.93C223.059 203.033 222.751 203.084 222.387 203.084L222.303 201.992C222.405 202.001 222.513 201.987 222.625 201.95C222.737 201.903 222.858 201.81 222.989 201.67C223.129 201.53 223.25 201.343 223.353 201.11C223.465 200.877 223.563 200.55 223.647 200.13C223.74 199.701 223.801 199.211 223.829 198.66L223.941 196.7H228.323V203ZM235.562 201.432L235.912 202.314C235.305 202.865 234.517 203.14 233.546 203.14C232.519 203.14 231.703 202.841 231.096 202.244C230.48 201.647 230.172 200.849 230.172 199.85C230.172 198.907 230.461 198.123 231.04 197.498C231.609 196.873 232.403 196.56 233.42 196.56C234.26 196.56 234.955 196.831 235.506 197.372C236.066 197.904 236.346 198.595 236.346 199.444C236.346 199.715 236.323 199.967 236.276 200.2H231.432C231.479 200.788 231.698 201.25 232.09 201.586C232.491 201.922 233.005 202.09 233.63 202.09C234.451 202.09 235.095 201.871 235.562 201.432ZM233.364 197.61C232.813 197.61 232.356 197.764 231.992 198.072C231.637 198.38 231.427 198.786 231.362 199.29H235.184C235.156 198.767 234.979 198.357 234.652 198.058C234.335 197.759 233.905 197.61 233.364 197.61ZM243.855 203H242.735V200.34H239.235V203H238.115V196.7H239.235V199.29H242.735V196.7H243.855V203ZM248.161 203H246.131V196.7H247.251V198.59H248.287C249.146 198.59 249.776 198.786 250.177 199.178C250.578 199.561 250.779 200.088 250.779 200.76C250.779 201.395 250.569 201.927 250.149 202.356C249.748 202.785 249.085 203 248.161 203ZM253.103 203H251.983V196.7H253.103V203ZM248.077 199.64H247.251V201.95H248.063C248.595 201.95 248.982 201.857 249.225 201.67C249.468 201.483 249.589 201.194 249.589 200.802C249.589 200.027 249.085 199.64 248.077 199.64Z" fill="#BDBDBD"/>
</svg>
