<svg width="20" height="20" viewBox="0 0 20 20" fill="none" xmlns="http://www.w3.org/2000/svg">
<path fill-rule="evenodd" clip-rule="evenodd" d="M14 3.5H7C6.17157 3.5 5.5 4.17157 5.5 5V15C5.5 15.8284 6.17157 16.5 7 16.5H14C14.8284 16.5 15.5 15.8284 15.5 15V5C15.5 4.17157 14.8284 3.5 14 3.5ZM7 2C5.34315 2 4 3.34315 4 5V15C4 16.6569 5.34315 18 7 18H14C15.6569 18 17 16.6569 17 15V5C17 3.34315 15.6569 2 14 2H7Z" fill="#9E9E9E"/>
<path d="M2 6.25C2 5.42157 2.67157 4.75 3.5 4.75H5.5C6.32843 4.75 7 5.42157 7 6.25C7 7.07843 6.32843 7.75 5.5 7.75H3.5C2.67157 7.75 2 7.07843 2 6.25Z" fill="#FAFAFA"/>
<path d="M2 10C2 9.17157 2.67157 8.5 3.5 8.5H5.5C6.32843 8.5 7 9.17157 7 10C7 10.8284 6.32843 11.5 5.5 11.5H3.5C2.67157 11.5 2 10.8284 2 10Z" fill="#FAFAFA"/>
<path d="M2 13.75C2 12.9216 2.67157 12.25 3.5 12.25H5.5C6.32843 12.25 7 12.9216 7 13.75C7 14.5784 6.32843 15.25 5.5 15.25H3.5C2.67157 15.25 2 14.5784 2 13.75Z" fill="#FAFAFA"/>
<path d="M2.5 6.25C2.5 5.83579 2.83579 5.5 3.25 5.5H5.75C6.16421 5.5 6.5 5.83579 6.5 6.25C6.5 6.66421 6.16421 7 5.75 7H3.25C2.83579 7 2.5 6.66421 2.5 6.25Z" fill="#9E9E9E"/>
<path d="M2.5 10C2.5 9.58579 2.83579 9.25 3.25 9.25H5.75C6.16421 9.25 6.5 9.58579 6.5 10C6.5 10.4142 6.16421 10.75 5.75 10.75H3.25C2.83579 10.75 2.5 10.4142 2.5 10Z" fill="#9E9E9E"/>
<path d="M2.5 13.75C2.5 13.3358 2.83579 13 3.25 13H5.75C6.16421 13 6.5 13.3358 6.5 13.75C6.5 14.1642 6.16421 14.5 5.75 14.5H3.25C2.83579 14.5 2.5 14.1642 2.5 13.75Z" fill="#9E9E9E"/>
</svg>
