<svg width="32" height="32" viewBox="0 0 32 32" fill="none" xmlns="http://www.w3.org/2000/svg">
<rect width="32" height="32" rx="2" fill="#F3F9FE"/>
<path fill-rule="evenodd" clip-rule="evenodd" d="M23 8.5H9C7.61929 8.5 6.5 9.61929 6.5 11V22C6.5 23.3807 7.61929 24.5 9 24.5H23C24.3807 24.5 25.5 23.3807 25.5 22V11C25.5 9.61929 24.3807 8.5 23 8.5ZM9 7C6.79086 7 5 8.79086 5 11V22C5 24.2091 6.79086 26 9 26H23C25.2091 26 27 24.2091 27 22V11C27 8.79086 25.2091 7 23 7H9Z" fill="#70A8DD"/>
<path fill-rule="evenodd" clip-rule="evenodd" d="M23 12.5H9C7.61929 12.5 6.5 13.6193 6.5 15V22C6.5 23.3807 7.61929 24.5 9 24.5H23C24.3807 24.5 25.5 23.3807 25.5 22V15C25.5 13.6193 24.3807 12.5 23 12.5ZM9 11C6.79086 11 5 12.7909 5 15V22C5 24.2091 6.79086 26 9 26H23C25.2091 26 27 24.2091 27 22V15C27 12.7909 25.2091 11 23 11H9Z" fill="#70A8DD"/>
<path d="M14.5 9.75C14.5 10.1642 14.1642 10.5 13.75 10.5C13.3358 10.5 13 10.1642 13 9.75C13 9.33579 13.3358 9 13.75 9C14.1642 9 14.5 9.33579 14.5 9.75Z" fill="#70A8DD"/>
<path d="M19 9.75C19 10.1642 18.6642 10.5 18.25 10.5C17.8358 10.5 17.5 10.1642 17.5 9.75C17.5 9.33579 17.8358 9 18.25 9C18.6642 9 19 9.33579 19 9.75Z" fill="#70A8DD"/>
<path d="M16.75 9.75C16.75 10.1642 16.4142 10.5 16 10.5C15.5858 10.5 15.25 10.1642 15.25 9.75C15.25 9.33579 15.5858 9 16 9C16.4142 9 16.75 9.33579 16.75 9.75Z" fill="#70A8DD"/>
<path fill-rule="evenodd" clip-rule="evenodd" d="M13.75 15.7137V21.2867L19.3229 18.5002L13.75 15.7137ZM12.25 15.3092C12.25 14.38 13.2279 13.7756 14.059 14.1912L20.441 17.3822C21.3623 17.8428 21.3623 19.1576 20.441 19.6182L14.059 22.8092C13.2279 23.2248 12.25 22.6204 12.25 21.6912V15.3092Z" fill="#70A8DD"/>
</svg>
