<svg width="24" height="24" viewBox="0 0 24 24" fill="none" xmlns="http://www.w3.org/2000/svg">
<path fill-rule="evenodd" clip-rule="evenodd" d="M19 4.5H5C3.61929 4.5 2.5 5.61929 2.5 7V18C2.5 19.3807 3.61929 20.5 5 20.5H19C20.3807 20.5 21.5 19.3807 21.5 18V7C21.5 5.61929 20.3807 4.5 19 4.5ZM5 3C2.79086 3 1 4.79086 1 7V18C1 20.2091 2.79086 22 5 22H19C21.2091 22 23 20.2091 23 18V7C23 4.79086 21.2091 3 19 3H5Z" fill="#70A8DD"/>
<path fill-rule="evenodd" clip-rule="evenodd" d="M19 8.5H5C3.61929 8.5 2.5 9.61929 2.5 11V18C2.5 19.3807 3.61929 20.5 5 20.5H19C20.3807 20.5 21.5 19.3807 21.5 18V11C21.5 9.61929 20.3807 8.5 19 8.5ZM5 7C2.79086 7 1 8.79086 1 11V18C1 20.2091 2.79086 22 5 22H19C21.2091 22 23 20.2091 23 18V11C23 8.79086 21.2091 7 19 7H5Z" fill="#70A8DD"/>
<path d="M10.5 5.75C10.5 6.16421 10.1642 6.5 9.75 6.5C9.33579 6.5 9 6.16421 9 5.75C9 5.33579 9.33579 5 9.75 5C10.1642 5 10.5 5.33579 10.5 5.75Z" fill="#70A8DD"/>
<path d="M15 5.75C15 6.16421 14.6642 6.5 14.25 6.5C13.8358 6.5 13.5 6.16421 13.5 5.75C13.5 5.33579 13.8358 5 14.25 5C14.6642 5 15 5.33579 15 5.75Z" fill="#70A8DD"/>
<path d="M12.75 5.75C12.75 6.16421 12.4142 6.5 12 6.5C11.5858 6.5 11.25 6.16421 11.25 5.75C11.25 5.33579 11.5858 5 12 5C12.4142 5 12.75 5.33579 12.75 5.75Z" fill="#70A8DD"/>
<path fill-rule="evenodd" clip-rule="evenodd" d="M9.75 11.7137V17.2867L15.3229 14.5002L9.75 11.7137ZM8.25 11.3092C8.25 10.38 9.22789 9.77563 10.059 10.1912L16.441 13.3822C17.3623 13.8428 17.3623 15.1576 16.441 15.6182L10.059 18.8092C9.22789 19.2248 8.25 18.6204 8.25 17.6912V11.3092Z" fill="#70A8DD"/>
</svg>
