<svg width="20" height="20" viewBox="0 0 20 20" fill="none" xmlns="http://www.w3.org/2000/svg">
<path fill-rule="evenodd" clip-rule="evenodd" d="M10 0C15.5228 0 20 4.47715 20 10C20 15.5228 15.5228 20 10 20C4.47715 20 0 15.5228 0 10C0 4.47715 4.47715 0 10 0ZM7.01746 5.04778C7.07531 5.06746 7.16453 5.11339 7.21576 5.14621C7.52969 5.35295 8.40382 6.46371 8.6897 7.01829C8.85327 7.33495 8.90779 7.56957 8.85659 7.74349C8.80369 7.93053 8.71614 8.02899 8.32451 8.34237C8.16753 8.46869 8.02046 8.59831 7.99734 8.63277C7.93785 8.71809 7.88992 8.88544 7.88992 9.00357C7.89159 9.27758 8.07004 9.77472 8.30469 10.157C8.48643 10.454 8.81195 10.8346 9.13418 11.1267C9.51257 11.4713 9.84636 11.7058 10.2231 11.8913C10.7073 12.1308 11.003 12.1915 11.2195 12.0914C11.274 12.0668 11.3319 12.034 11.3501 12.0193C11.3666 12.0045 11.4938 11.8502 11.6326 11.6796C11.9003 11.3449 11.9614 11.2908 12.1448 11.2284C12.3778 11.1497 12.6158 11.171 12.8554 11.2924C13.0371 11.3859 13.4337 11.6304 13.6898 11.8076C14.0269 12.0422 14.7474 12.6263 14.8449 12.7428C15.0167 12.9528 15.0465 13.2219 14.9308 13.5189C14.8085 13.8322 14.3326 14.4196 14.0005 14.6707C13.6997 14.8971 13.4866 14.984 13.2057 14.9972C12.9744 15.0086 12.8785 14.989 12.5827 14.8676C10.2628 13.9176 8.41044 12.5 6.93979 10.5524C6.17144 9.53518 5.58648 8.48019 5.18659 7.38582C4.95362 6.74758 4.94206 6.47029 5.13371 6.14379C5.21635 6.00598 5.56831 5.66469 5.82442 5.47438C6.25076 5.15935 6.44738 5.04285 6.60436 5.01005C6.71176 4.98707 6.89847 5.00512 7.01746 5.04778Z" fill="#E0E0E0"/>
</svg>
