<svg width="16" height="16" viewBox="0 0 16 16" fill="none" xmlns="http://www.w3.org/2000/svg">
<path fill-rule="evenodd" clip-rule="evenodd" d="M3.52619 0.57167C3.61296 0.601192 3.7468 0.670091 3.82364 0.719322C4.29454 1.02943 5.60574 2.69557 6.03455 3.52744C6.27991 4.00242 6.36169 4.35436 6.28489 4.61524C6.20553 4.8958 6.07421 5.04348 5.48677 5.51355C5.25129 5.70303 5.03069 5.89747 4.99602 5.94915C4.90678 6.07714 4.83487 6.32816 4.83487 6.50536C4.83739 6.91637 5.10506 7.66208 5.45703 8.23552C5.72965 8.68098 6.21793 9.25192 6.70127 9.69002C7.26886 10.2069 7.76953 10.5588 8.33466 10.8369C9.06088 11.1962 9.50456 11.2873 9.82927 11.1372C9.91106 11.1002 9.99778 11.051 10.0251 11.0289C10.0498 11.0067 10.2407 10.7754 10.4489 10.5194C10.8504 10.0173 10.9421 9.93614 11.2173 9.84263C11.5668 9.72449 11.9237 9.75647 12.2831 9.9386C12.5557 10.0789 13.1506 10.4456 13.5347 10.7114C14.0404 11.0633 15.121 11.9395 15.2673 12.1142C15.5251 12.4293 15.5697 12.8328 15.3962 13.2783C15.2127 13.7484 14.4989 14.6295 14.0007 15.006C13.5496 15.3457 13.2299 15.476 12.8085 15.4958C12.4615 15.513 12.3178 15.4835 11.8741 15.3013C8.39416 13.8763 5.61566 11.75 3.40969 8.82864C2.25716 7.30276 1.37973 5.72028 0.779884 4.07873C0.430428 3.12137 0.41309 2.70544 0.700571 2.21568C0.824526 2.00896 1.35246 1.49704 1.73664 1.21157C2.37613 0.739023 2.67107 0.564277 2.90654 0.515068C3.06764 0.480605 3.34771 0.507674 3.52619 0.57167Z" fill="#70A8DD"/>
</svg>
