<svg width="16" height="16" viewBox="0 0 16 16" fill="none" xmlns="http://www.w3.org/2000/svg">
<path fill-rule="evenodd" clip-rule="evenodd" d="M8 0C12.4183 0 16 3.58172 16 8C16 12.4183 12.4183 16 8 16C3.58172 16 0 12.4183 0 8C0 3.58172 3.58172 0 8 0ZM5.61397 4.03822C5.66024 4.05397 5.73163 4.09072 5.77261 4.11697C6.02376 4.28236 6.72306 5.17097 6.95176 5.61463C7.08262 5.86796 7.12623 6.05566 7.08528 6.19479C7.04295 6.34443 6.97291 6.42319 6.65961 6.67389C6.53402 6.77495 6.41637 6.87865 6.39788 6.90622C6.35028 6.97447 6.31193 7.10835 6.31193 7.20286C6.31327 7.42206 6.45603 7.81978 6.64375 8.12561C6.78914 8.36319 7.04956 8.66769 7.30734 8.90135C7.61006 9.177 7.87709 9.36468 8.17848 9.51302C8.5658 9.70464 8.80243 9.75321 8.97561 9.67315C9.01923 9.65346 9.06548 9.6272 9.08005 9.61541C9.09324 9.60358 9.19504 9.48019 9.30609 9.3437C9.52023 9.07592 9.56914 9.03261 9.71587 8.98273C9.90228 8.91973 10.0926 8.93678 10.2843 9.03392C10.4297 9.10874 10.747 9.30431 10.9519 9.44607C11.2215 9.63377 11.7979 10.1011 11.8759 10.1943C12.0134 10.3623 12.0372 10.5775 11.9446 10.8151C11.8468 11.0658 11.4661 11.5357 11.2004 11.7365C10.9598 11.9177 10.7893 11.9872 10.5645 11.9977C10.3795 12.0069 10.3028 11.9912 10.0662 11.894C8.21022 11.1341 6.72835 9.99999 5.55183 8.44194C4.93715 7.62814 4.46919 6.78415 4.14927 5.90866C3.9629 5.39807 3.95365 5.17623 4.10697 4.91503C4.17308 4.80478 4.45465 4.53176 4.65954 4.3795C5.00061 4.12748 5.1579 4.03428 5.28349 4.00804C5.36941 3.98966 5.51878 4.00409 5.61397 4.03822Z" fill="#BDBDBD"/>
</svg>
