<svg width="184" height="123" viewBox="0 0 184 123" fill="none" xmlns="http://www.w3.org/2000/svg">
<rect x="1.23047" y="0.5" width="141.381" height="121.268" rx="3.5" fill="white" stroke="#E6E6E6"/>
<path d="M24.5045 111.71C30.2353 111.71 34.8811 107.083 34.8811 101.377C34.8811 95.6701 30.2353 91.0439 24.5045 91.0439C18.7737 91.0439 14.1279 95.6701 14.1279 101.377C14.1279 107.083 18.7737 111.71 24.5045 111.71Z" fill="#E6E6E6"/>
<path d="M48.4697 94.4883C48.011 94.4883 47.5711 94.6697 47.2468 94.9927C46.9224 95.3156 46.7402 95.7537 46.7402 96.2104C46.7402 96.6672 46.9224 97.1052 47.2468 97.4282C47.5711 97.7511 48.011 97.9326 48.4697 97.9326H130C130.459 97.9326 130.898 97.7511 131.223 97.4282C131.547 97.1052 131.729 96.6672 131.729 96.2104C131.729 95.7537 131.547 95.3156 131.223 94.9927C130.898 94.6697 130.459 94.4883 130 94.4883H48.4697Z" fill="#E6E6E6"/>
<path d="M48.4703 104.821C48.2429 104.82 48.0178 104.865 47.8076 104.951C47.5975 105.037 47.4066 105.164 47.2457 105.324C47.0849 105.484 46.9572 105.674 46.8702 105.883C46.7831 106.092 46.7383 106.316 46.7383 106.543C46.7383 106.769 46.7831 106.993 46.8702 107.202C46.9572 107.411 47.0849 107.601 47.2457 107.761C47.4066 107.921 47.5975 108.048 47.8076 108.135C48.0178 108.221 48.2429 108.265 48.4703 108.265H83.553C84.0112 108.264 84.4505 108.082 84.7742 107.76C85.098 107.437 85.2799 106.999 85.2799 106.543C85.2799 106.086 85.098 105.649 84.7742 105.326C84.4505 105.003 84.0112 104.821 83.553 104.821H48.4703Z" fill="#E6E6E6"/>
<path d="M173.369 81.3529H35.812C35.1366 81.3521 34.4892 81.0846 34.0116 80.6091C33.5341 80.1336 33.2654 79.4888 33.2646 78.8163V18.7036C33.2654 18.0311 33.5341 17.3864 34.0116 16.9108C34.4892 16.4353 35.1366 16.1678 35.812 16.167H173.369C174.045 16.1678 174.692 16.4353 175.17 16.9108C175.647 17.3864 175.916 18.0311 175.917 18.7036V78.8163C175.916 79.4888 175.647 80.1336 175.17 80.6091C174.692 81.0846 174.045 81.3521 173.369 81.3529Z" fill="#EAACAC"/>
<path d="M84.125 33.875H53.875C53.1459 33.8758 52.4469 34.1658 51.9314 34.6814C51.4158 35.1969 51.1258 35.8959 51.125 36.625V61.375C51.1258 62.1041 51.4158 62.8031 51.9314 63.3186C52.4469 63.8342 53.1459 64.1242 53.875 64.125H84.125C84.8541 64.1242 85.5531 63.8342 86.0686 63.3186C86.5842 62.8031 86.8742 62.1041 86.875 61.375V36.625C86.8742 35.8959 86.5842 35.1969 86.0686 34.6814C85.5531 34.1658 84.8541 33.8758 84.125 33.875ZM68.4992 57.2062C68.1461 57.297 67.7713 57.2439 67.4573 57.0584C67.1433 56.873 66.9158 56.5705 66.8248 56.2174C66.5956 55.3322 66.0789 54.5481 65.3557 53.9884C64.6326 53.4287 63.7441 53.125 62.8296 53.125C61.9152 53.125 61.0267 53.4288 60.3036 53.9886C59.5805 54.5483 59.0638 55.3324 58.8347 56.2177C58.7897 56.3925 58.7107 56.5568 58.6022 56.7012C58.4937 56.8455 58.3578 56.967 58.2023 57.0589C58.0468 57.1507 57.8748 57.211 57.696 57.2363C57.5172 57.2617 57.3352 57.2515 57.1603 57.2065C56.9855 57.1615 56.8212 57.0825 56.6769 56.974C56.5325 56.8655 56.411 56.7296 56.3191 56.5742C56.2273 56.4187 56.167 56.2466 56.1417 56.0678C56.1163 55.8891 56.1265 55.707 56.1715 55.5322C56.5897 53.9056 57.5902 52.4891 58.9834 51.5513C58.2022 50.7869 57.6664 49.8072 57.4444 48.7371C57.2224 47.6669 57.3243 46.5549 57.737 45.5429C58.1497 44.531 58.8546 43.6649 59.7617 43.0552C60.6687 42.4455 61.7369 42.1199 62.8298 42.1199C63.9227 42.1199 64.9908 42.4455 65.8979 43.0552C66.805 43.6649 67.5098 44.531 67.9225 45.5429C68.3353 46.5549 68.4371 47.6669 68.2151 48.7371C67.9931 49.8072 67.4574 50.7869 66.6762 51.5513C68.0692 52.489 69.0697 53.9054 69.488 55.5318C69.5789 55.8849 69.5258 56.2597 69.3404 56.5737C69.155 56.8878 68.8524 57.1153 68.4992 57.2062ZM80 53.125H73.125C72.7603 53.125 72.4106 52.9801 72.1527 52.7223C71.8949 52.4644 71.75 52.1147 71.75 51.75C71.75 51.3853 71.8949 51.0356 72.1527 50.7777C72.4106 50.5199 72.7603 50.375 73.125 50.375H80C80.3647 50.375 80.7144 50.5199 80.9723 50.7777C81.2301 51.0356 81.375 51.3853 81.375 51.75C81.375 52.1147 81.2301 52.4644 80.9723 52.7223C80.7144 52.9801 80.3647 53.125 80 53.125ZM80 47.625H73.125C72.7603 47.625 72.4106 47.4801 72.1527 47.2223C71.8949 46.9644 71.75 46.6147 71.75 46.25C71.75 45.8853 71.8949 45.5356 72.1527 45.2777C72.4106 45.0199 72.7603 44.875 73.125 44.875H80C80.3647 44.875 80.7144 45.0199 80.9723 45.2777C81.2301 45.5356 81.375 45.8853 81.375 46.25C81.375 46.6147 81.2301 46.9644 80.9723 47.2223C80.7144 47.4801 80.3647 47.625 80 47.625Z" fill="white"/>
<path d="M62.8301 50.375C64.3489 50.375 65.5801 49.1438 65.5801 47.625C65.5801 46.1062 64.3489 44.875 62.8301 44.875C61.3113 44.875 60.0801 46.1062 60.0801 47.625C60.0801 49.1438 61.3113 50.375 62.8301 50.375Z" fill="white"/>
<rect x="99" y="37" width="56" height="4" rx="2" fill="white"/>
<rect x="99" y="47" width="56" height="4" rx="2" fill="white"/>
<rect x="99" y="57" width="41" height="4" rx="2" fill="white"/>
</svg>
