<svg width="18" height="18" viewBox="0 0 18 18" fill="none" xmlns="http://www.w3.org/2000/svg">
<path fill-rule="evenodd" clip-rule="evenodd" d="M2.91871 5.63076C3.52037 5.53131 4.4874 5.43749 5.99975 5.4375C7.51207 5.43751 8.47908 5.53133 9.08074 5.63076C9.86031 5.7596 10.3215 6.39954 10.4177 7.0735L10.9343 10.6894C11.0473 11.4801 10.4337 12.1875 9.63499 12.1875H9.22138C9.13407 12.1875 9.05832 12.2478 9.03868 12.3328L8.182 16.0451C8.04457 16.6407 7.51429 17.0625 6.90313 17.0625L5.09638 17.0625C4.48521 17.0625 3.95492 16.6407 3.81749 16.0451L2.96081 12.3329C2.94118 12.2478 2.86542 12.1875 2.77811 12.1875H2.3645C1.56578 12.1875 0.952239 11.4801 1.0652 10.6894L1.58176 7.07346C1.67803 6.39953 2.13916 5.7596 2.91871 5.63076ZM5.99974 6.5625C4.53102 6.56249 3.62782 6.65382 3.10216 6.7407C2.91049 6.77238 2.73839 6.93199 2.69545 7.23256L2.17889 10.8485C2.16275 10.9615 2.2504 11.0625 2.3645 11.0625H2.77811C3.38929 11.0625 3.91957 11.4844 4.057 12.0799L4.91368 15.7922C4.93332 15.8773 5.00907 15.9375 5.09638 15.9375L6.90311 15.9375C6.99042 15.9375 7.06618 15.8772 7.08581 15.7922L7.94249 12.0799C8.07992 11.4843 8.61021 11.0625 9.22138 11.0625H9.63499C9.74909 11.0625 9.83674 10.9614 9.82061 10.8485L9.30405 7.2326C9.26111 6.93202 9.089 6.77239 8.8973 6.74071C8.37163 6.65383 7.46844 6.56251 5.99974 6.5625Z" fill="#53ADF0"/>
<path fill-rule="evenodd" clip-rule="evenodd" d="M6 4.125C6.62132 4.125 7.125 3.62132 7.125 3C7.125 2.37868 6.62132 1.875 6 1.875C5.37868 1.875 4.875 2.37868 4.875 3C4.875 3.62132 5.37868 4.125 6 4.125ZM6 5.25C7.24264 5.25 8.25 4.24264 8.25 3C8.25 1.75736 7.24264 0.75 6 0.75C4.75736 0.75 3.75 1.75736 3.75 3C3.75 4.24264 4.75736 5.25 6 5.25Z" fill="#53ADF0"/>
<path fill-rule="evenodd" clip-rule="evenodd" d="M11.8246 6.18581C11.8526 6.18646 11.8909 6.18735 12.0001 6.18735C13.5125 6.18736 14.4795 6.28118 15.0811 6.38061C15.8607 6.50945 16.3218 7.14939 16.4181 7.82335L16.9347 11.4392C17.0476 12.2299 16.4341 12.9373 15.6354 12.9373H15.1657C15.085 12.9373 15.0133 12.989 14.9878 13.0656L14.2047 15.4149C14.0261 15.9508 13.5245 16.3123 12.9596 16.3124L11.0857 16.3124C10.4835 16.3124 9.95847 15.9025 9.81241 15.3182L9.57943 14.3862C9.50408 14.0848 9.68733 13.7794 9.98872 13.704C10.2901 13.6287 10.5955 13.812 10.6708 14.1133L10.9038 15.0453C10.9247 15.1288 10.9997 15.1874 11.0857 15.1874L12.9596 15.1874C13.0403 15.1874 13.1119 15.1357 13.1374 15.0591L13.9206 12.7098C14.0992 12.1738 14.6008 11.8123 15.1657 11.8123H15.6354C15.7495 11.8123 15.8371 11.7113 15.821 11.5983L15.3044 7.98245C15.2615 7.68186 15.0894 7.52224 14.8977 7.49055C14.372 7.40368 13.4688 7.31236 12.0001 7.31235C11.8792 7.31235 11.8326 7.31128 11.8017 7.31058C11.7969 7.31047 11.7924 7.31036 11.7881 7.31028C11.7706 7.30992 11.7549 7.30964 11.6383 7.31236C11.3277 7.31961 11.07 7.07371 11.0628 6.76314C11.0555 6.45256 11.3014 6.19491 11.612 6.18767C11.7282 6.18496 11.7662 6.18459 11.8111 6.18551C11.8155 6.1856 11.8199 6.1857 11.8246 6.18581Z" fill="#53ADF0"/>
<path fill-rule="evenodd" clip-rule="evenodd" d="M12 4.875C12.6213 4.875 13.125 4.37132 13.125 3.75C13.125 3.12868 12.6213 2.625 12 2.625C11.3787 2.625 10.875 3.12868 10.875 3.75C10.875 4.37132 11.3787 4.875 12 4.875ZM12 6C13.2426 6 14.25 4.99264 14.25 3.75C14.25 2.50736 13.2426 1.5 12 1.5C10.7574 1.5 9.75 2.50736 9.75 3.75C9.75 4.99264 10.7574 6 12 6Z" fill="#53ADF0"/>
</svg>
