<svg width="18" height="18" viewBox="0 0 18 18" fill="none" xmlns="http://www.w3.org/2000/svg">
<path fill-rule="evenodd" clip-rule="evenodd" d="M1.6875 1.5C1.6875 1.18934 1.93934 0.9375 2.25 0.9375H5.25C5.56066 0.9375 5.8125 1.18934 5.8125 1.5C5.8125 1.81066 5.56066 2.0625 5.25 2.0625H2.25C1.93934 2.0625 1.6875 1.81066 1.6875 1.5Z" fill="#53ADF0"/>
<path fill-rule="evenodd" clip-rule="evenodd" d="M1.6875 5.25C1.6875 4.93934 1.93934 4.6875 2.25 4.6875H5.25C5.56066 4.6875 5.8125 4.93934 5.8125 5.25C5.8125 5.56066 5.56066 5.8125 5.25 5.8125H2.25C1.93934 5.8125 1.6875 5.56066 1.6875 5.25Z" fill="#53ADF0"/>
<path fill-rule="evenodd" clip-rule="evenodd" d="M1.6875 9C1.6875 8.68934 1.93934 8.4375 2.25 8.4375H5.25C5.56066 8.4375 5.8125 8.68934 5.8125 9C5.8125 9.31066 5.56066 9.5625 5.25 9.5625H2.25C1.93934 9.5625 1.6875 9.31066 1.6875 9Z" fill="#53ADF0"/>
<path fill-rule="evenodd" clip-rule="evenodd" d="M1.6875 12.75C1.6875 12.4393 1.93934 12.1875 2.25 12.1875H5.25C5.56066 12.1875 5.8125 12.4393 5.8125 12.75C5.8125 13.0607 5.56066 13.3125 5.25 13.3125H2.25C1.93934 13.3125 1.6875 13.0607 1.6875 12.75Z" fill="#53ADF0"/>
<path fill-rule="evenodd" clip-rule="evenodd" d="M1.6875 16.5C1.6875 16.1893 1.93934 15.9375 2.25 15.9375H5.25C5.56066 15.9375 5.8125 16.1893 5.8125 16.5C5.8125 16.8107 5.56066 17.0625 5.25 17.0625H2.25C1.93934 17.0625 1.6875 16.8107 1.6875 16.5Z" fill="#53ADF0"/>
<path fill-rule="evenodd" clip-rule="evenodd" d="M9.06684 5.60758C9.67475 5.51728 10.6054 5.43749 12 5.4375C13.3946 5.43751 14.3252 5.51729 14.9331 5.60759C15.8283 5.74056 16.3125 6.51752 16.3125 7.30207V10.9984C16.3125 11.6551 15.7801 12.1875 15.1234 12.1875C15.0936 12.1875 15.0677 12.2081 15.061 12.2372L14.1823 16.0451C14.0448 16.6407 13.5145 17.0625 12.9034 17.0625L11.0966 17.0625C10.4855 17.0625 9.95517 16.6407 9.81775 16.0451L8.93898 12.2372C8.93228 12.2081 8.90639 12.1875 8.87656 12.1875C8.21986 12.1875 7.6875 11.6552 7.6875 10.9985V7.30203C7.6875 6.51751 8.17168 5.74056 9.06684 5.60758ZM12 6.5625C10.6461 6.56249 9.77255 6.64009 9.23214 6.72037C9.00336 6.75436 8.8125 6.95027 8.8125 7.30203V10.9985C8.8125 11.0338 8.84118 11.0625 8.87656 11.0625C9.43026 11.0625 9.91067 11.4447 10.0352 11.9842L10.9139 15.7922C10.9336 15.8773 11.0093 15.9375 11.0966 15.9375L12.9034 15.9375C12.9907 15.9375 13.0664 15.8772 13.0861 15.7922L13.9648 11.9842C14.0893 11.4447 14.5697 11.0625 15.1234 11.0625C15.1588 11.0625 15.1875 11.0338 15.1875 10.9984V7.30207C15.1875 6.9503 14.9966 6.75437 14.7678 6.72038C14.2274 6.64011 13.3539 6.56251 12 6.5625Z" fill="#53ADF0"/>
<path fill-rule="evenodd" clip-rule="evenodd" d="M12 4.125C12.6213 4.125 13.125 3.62132 13.125 3C13.125 2.37868 12.6213 1.875 12 1.875C11.3787 1.875 10.875 2.37868 10.875 3C10.875 3.62132 11.3787 4.125 12 4.125ZM12 5.25C13.2426 5.25 14.25 4.24264 14.25 3C14.25 1.75736 13.2426 0.75 12 0.75C10.7574 0.75 9.75 1.75736 9.75 3C9.75 4.24264 10.7574 5.25 12 5.25Z" fill="#53ADF0"/>
</svg>
