<svg width="18" height="15" viewBox="0 0 18 15" fill="none" xmlns="http://www.w3.org/2000/svg">
<path fill-rule="evenodd" clip-rule="evenodd" d="M8.72226 0.183364C8.9006 0.114009 9.09846 0.114009 9.27681 0.183364L17.344 3.32059C17.9284 3.54787 17.9172 4.38873 17.3128 4.59022L9.24145 7.28066C9.08442 7.333 8.91465 7.333 8.75762 7.28066L0.686319 4.59022C0.094635 4.39299 0.0581414 3.55275 0.655117 3.32059L8.72226 0.183364ZM8.99953 1.52403L2.88751 3.90093L8.99953 5.93827L15.1116 3.90093L8.99953 1.52403Z" fill="#53ADF0"/>
<path fill-rule="evenodd" clip-rule="evenodd" d="M3.82422 8.8998V5.2998H5.17422V8.86664C5.17669 8.87711 5.182 8.89599 5.19261 8.92144C5.22 8.98719 5.29206 9.11966 5.48339 9.27272C5.87534 9.58628 6.82134 10.0248 8.99922 10.0248C11.1771 10.0248 12.1231 9.58628 12.5151 9.27272C12.7064 9.11966 12.7784 8.98719 12.8058 8.92144C12.8164 8.89599 12.8217 8.87711 12.8242 8.86664V5.2998H14.1742V8.8998H13.4992C14.1742 8.8998 14.1742 8.90064 14.1742 8.90148L14.1742 8.9032L14.1742 8.90678L14.1741 8.9145L14.1735 8.93216C14.173 8.94491 14.1722 8.95959 14.1708 8.97608C14.168 9.00903 14.1632 9.04931 14.1549 9.09581C14.1383 9.1889 14.1077 9.30694 14.052 9.44067C13.9388 9.71242 13.7296 10.03 13.3584 10.3269C12.6253 10.9133 11.3213 11.3748 8.99922 11.3748C6.6771 11.3748 5.3731 10.9133 4.64005 10.3269C4.26888 10.03 4.05968 9.71242 3.94645 9.44067C3.89073 9.30694 3.86014 9.1889 3.84352 9.09581C3.83522 9.04931 3.8304 9.00903 3.82765 8.97608C3.82628 8.95959 3.82542 8.94491 3.8249 8.93216L3.82437 8.9145L3.82425 8.90678L3.82423 8.9032L3.82422 8.90148C3.82422 8.90064 3.82422 8.8998 4.49922 8.8998H3.82422Z" fill="#53ADF0"/>
<path fill-rule="evenodd" clip-rule="evenodd" d="M15.75 10.6999V4.3999H16.65V10.6999H15.75Z" fill="#53ADF0"/>
<path fill-rule="evenodd" clip-rule="evenodd" d="M15.75 14.2996V11.5996H16.65V14.2996C16.65 14.5481 16.4485 14.7496 16.2 14.7496C15.9515 14.7496 15.75 14.5481 15.75 14.2996Z" fill="#53ADF0"/>
<path fill-rule="evenodd" clip-rule="evenodd" d="M16.1996 11.5998C16.4481 11.5998 16.6496 11.3983 16.6496 11.1498C16.6496 10.9013 16.4481 10.6998 16.1996 10.6998C15.9511 10.6998 15.7496 10.9013 15.7496 11.1498C15.7496 11.3983 15.9511 11.5998 16.1996 11.5998ZM16.1996 12.4998C16.9452 12.4998 17.5496 11.8954 17.5496 11.1498C17.5496 10.4042 16.9452 9.7998 16.1996 9.7998C15.454 9.7998 14.8496 10.4042 14.8496 11.1498C14.8496 11.8954 15.454 12.4998 16.1996 12.4998Z" fill="#53ADF0"/>
</svg>
