<svg width="18" height="18" viewBox="0 0 18 18" fill="none" xmlns="http://www.w3.org/2000/svg">
<path fill-rule="evenodd" clip-rule="evenodd" d="M7.125 1.875V16.125H10.875V1.875H7.125ZM6.75 0.75C6.33579 0.75 6 1.08579 6 1.5V16.5C6 16.9142 6.33579 17.25 6.75 17.25H11.25C11.6642 17.25 12 16.9142 12 16.5V1.5C12 1.08579 11.6642 0.75 11.25 0.75H6.75Z" fill="#53ADF0"/>
<path fill-rule="evenodd" clip-rule="evenodd" d="M9 4.3125H7.125V3.1875H9V4.3125Z" fill="#53ADF0"/>
<path fill-rule="evenodd" clip-rule="evenodd" d="M8.25 6.9375H6.375V5.8125H8.25V6.9375Z" fill="#53ADF0"/>
<path fill-rule="evenodd" clip-rule="evenodd" d="M8.25 12.1875H6.375V11.0625H8.25V12.1875Z" fill="#53ADF0"/>
<path fill-rule="evenodd" clip-rule="evenodd" d="M9 9.5625H7.125V8.4375H9V9.5625Z" fill="#53ADF0"/>
<path fill-rule="evenodd" clip-rule="evenodd" d="M9 14.8125H7.125V13.6875H9V14.8125Z" fill="#53ADF0"/>
</svg>
