<svg width="18" height="18" viewBox="0 0 18 18" fill="none" xmlns="http://www.w3.org/2000/svg">
<path d="M12.0146 8.18525C13.3804 8.18525 14.4874 7.07825 14.4874 5.7125C14.4874 4.3475 13.3804 3.23975 12.0146 3.23975" stroke="#53ADF0" stroke-width="1.5" stroke-linecap="round" stroke-linejoin="round"/>
<path d="M13.1523 10.8726C13.5603 10.9003 13.9653 10.9588 14.3651 11.0473C14.9193 11.1576 15.5868 11.3848 15.8238 11.8821C15.9753 12.2008 15.9753 12.5721 15.8238 12.8908C15.5876 13.3881 14.9193 13.6153 14.3651 13.7293" stroke="#53ADF0" stroke-width="1.5" stroke-linecap="round" stroke-linejoin="round"/>
<path fill-rule="evenodd" clip-rule="evenodd" d="M7.19325 11.4048C9.96075 11.4048 12.3247 11.824 12.3247 13.4988C12.3247 15.1743 9.97575 15.6078 7.19325 15.6078C4.42575 15.6078 2.0625 15.1893 2.0625 13.5138C2.0625 11.8383 4.41075 11.4048 7.19325 11.4048Z" stroke="#53ADF0" stroke-width="1.5" stroke-linecap="round" stroke-linejoin="round"/>
<path fill-rule="evenodd" clip-rule="evenodd" d="M7.19327 9.01425C5.36777 9.01425 3.90527 7.551 3.90527 5.7255C3.90527 3.90075 5.36777 2.4375 7.19327 2.4375C9.01877 2.4375 10.482 3.90075 10.482 5.7255C10.482 7.551 9.01877 9.01425 7.19327 9.01425Z" stroke="#53ADF0" stroke-width="1.5" stroke-linecap="round" stroke-linejoin="round"/>
</svg>
