<svg width="18" height="18" viewBox="0 0 18 18" fill="none" xmlns="http://www.w3.org/2000/svg">
<path fill-rule="evenodd" clip-rule="evenodd" d="M15 2.625H3C2.79289 2.625 2.625 2.79289 2.625 3V15C2.625 15.2071 2.79289 15.375 3 15.375H15C15.2071 15.375 15.375 15.2071 15.375 15V3C15.375 2.79289 15.2071 2.625 15 2.625ZM3 1.5C2.17157 1.5 1.5 2.17157 1.5 3V15C1.5 15.8284 2.17157 16.5 3 16.5H15C15.8284 16.5 16.5 15.8284 16.5 15V3C16.5 2.17157 15.8284 1.5 15 1.5H3Z" fill="#53ADF0"/>
<path fill-rule="evenodd" clip-rule="evenodd" d="M5.17496 3.68872C5.99195 3.46325 7.33149 3.1875 8.99997 3.1875C10.6684 3.1875 12.008 3.46325 12.825 3.68872C13.6619 3.9197 13.9422 4.85632 13.5357 5.53373L12.8508 6.67528C12.6136 7.07061 12.1864 7.3125 11.7253 7.3125H6.27461C5.81358 7.3125 5.38635 7.07061 5.14915 6.67528L4.46422 5.53373C4.05778 4.85632 4.33801 3.9197 5.17496 3.68872ZM8.99997 4.3125C7.45364 4.3125 6.21634 4.56838 5.47425 4.77318C5.45164 4.77942 5.43919 4.78821 5.43169 4.79526C5.42348 4.80298 5.41586 4.81378 5.41051 4.8285C5.39989 4.85767 5.39813 4.90364 5.4289 4.95492L6.11383 6.09647C6.14772 6.15294 6.20875 6.1875 6.27461 6.1875H11.7253C11.7912 6.1875 11.8522 6.15294 11.8861 6.09647L12.571 4.95492C12.6018 4.90364 12.6 4.85767 12.5894 4.8285C12.5841 4.81378 12.5765 4.80298 12.5682 4.79526C12.5607 4.78821 12.5483 4.77942 12.5257 4.77318C11.7836 4.56838 10.5463 4.3125 8.99997 4.3125Z" fill="#53ADF0"/>
<path fill-rule="evenodd" clip-rule="evenodd" d="M7.36371 4.70443C7.66509 4.62908 7.97049 4.81232 8.04584 5.11371L8.42084 6.61371L7.32943 6.88656L6.95443 5.38656C6.87908 5.08517 7.06232 4.77977 7.36371 4.70443Z" fill="#53ADF0"/>
</svg>
