<svg width="18" height="18" viewBox="0 0 18 18" fill="none" xmlns="http://www.w3.org/2000/svg">
<path fill-rule="evenodd" clip-rule="evenodd" d="M8.68431 5.2499C7.07797 5.2499 5.77578 6.55209 5.77578 8.15843C5.77578 9.76476 7.07797 11.067 8.68431 11.067C10.2906 11.067 11.5928 9.76476 11.5928 8.15843C11.5928 6.55209 10.2906 5.2499 8.68431 5.2499ZM4.42578 8.15843C4.42578 5.80651 6.33239 3.8999 8.68431 3.8999C11.0362 3.8999 12.9428 5.80651 12.9428 8.15843C12.9428 10.5103 11.0362 12.417 8.68431 12.417C6.33239 12.417 4.42578 10.5103 4.42578 8.15843Z" fill="#53ADF0"/>
<path fill-rule="evenodd" clip-rule="evenodd" d="M10.2661 14.3086C9.21138 14.216 8.15059 14.216 7.09589 14.3086L7.08348 14.3097L7.08347 14.3096C6.52426 14.3484 5.96847 14.4265 5.42026 14.5435L5.41503 14.5446L5.41502 14.5446C5.05069 14.6193 4.6711 14.7354 4.35743 14.896C4.03839 15.0595 3.85295 15.2351 3.77077 15.3963C3.70731 15.5297 3.67464 15.6758 3.6752 15.8236C3.67663 16.1964 3.37558 16.4997 3.00279 16.5012C2.63 16.5026 2.32664 16.2015 2.32521 15.8287C2.32386 15.4745 2.40309 15.1245 2.55691 14.8054L2.56117 14.7966L2.56123 14.7966C2.82336 14.2724 3.2931 13.9244 3.74195 13.6945C4.19796 13.4609 4.70283 13.3128 5.14109 13.2227C5.74854 13.0932 6.36434 13.0065 6.98393 12.9633C8.11323 12.8644 9.24901 12.8645 10.3783 12.9633C10.9977 13.007 11.6132 13.0936 12.2206 13.2226C12.8126 13.3442 13.5954 13.5688 14.1786 14.035C14.7237 14.4707 14.9104 15.1421 15.0251 15.5548C15.0286 15.5671 15.0319 15.5791 15.0352 15.5909L15.0502 15.6448C15.1504 16.0038 14.9405 16.3761 14.5815 16.4763C14.2224 16.5765 13.8501 16.3667 13.7499 16.0076L13.7349 15.9538C13.5987 15.4657 13.5016 15.2221 13.3356 15.0895C13.0122 14.8309 12.4928 14.6566 11.947 14.5446L11.9422 14.5436L11.9422 14.5436C11.3936 14.427 10.8375 14.3488 10.278 14.3096L10.2661 14.3087L10.2661 14.3086Z" fill="#53ADF0"/>
<path fill-rule="evenodd" clip-rule="evenodd" d="M10.4716 2.87643C10.074 2.47885 9.45682 2.40287 8.97469 2.69215L8.75787 2.82224C8.07577 3.23151 7.22362 3.23151 6.54151 2.82224C6.11722 2.56767 5.56527 2.75351 5.38131 3.21342C5.14598 3.80175 4.66348 4.25689 4.0622 4.45732L3.90624 4.5093C3.37506 4.68636 3.15764 5.32003 3.46822 5.7859L3.52522 5.87139C4.07357 6.69391 3.96512 7.78914 3.2661 8.48815C2.98343 8.77082 2.98343 9.22912 3.2661 9.51179L4.07699 10.3227C4.34059 10.5863 4.34059 11.0137 4.07699 11.2773C3.81338 11.5409 3.386 11.5409 3.12239 11.2773L2.31151 10.4664C1.50163 9.65651 1.50163 8.34344 2.31151 7.53356C2.55549 7.28958 2.59334 6.90732 2.40195 6.62023L2.34496 6.53475C1.54061 5.32822 2.10368 3.68713 3.47933 3.22858L3.63529 3.17659C3.85969 3.10179 4.03995 2.93182 4.12786 2.71205C4.62039 1.48074 6.09844 0.982043 7.23607 1.66463C7.49066 1.81738 7.80872 1.81738 8.06331 1.66463L8.28012 1.53454C9.29345 0.926542 10.5905 1.08622 11.4261 1.92183L11.7999 2.29559C11.9516 2.44724 12.1447 2.55061 12.355 2.59266L12.7019 2.66205C13.8297 2.88761 14.5611 3.98473 14.3355 5.11253C14.2802 5.38914 14.3887 5.67295 14.6143 5.8422L14.6791 5.8908C15.534 6.53194 15.808 7.6927 15.3301 8.64845L14.9846 9.33943L14.0613 10.7244C13.8545 11.0346 13.4354 11.1184 13.1253 10.9116C12.8151 10.7048 12.7313 10.2857 12.9381 9.97555L13.8147 8.66052L14.1226 8.04471C14.3087 7.67251 14.202 7.22048 13.8691 6.9708L13.8043 6.9222C13.1627 6.44102 12.8545 5.63418 13.0118 4.84778C13.0911 4.45108 12.8338 4.06517 12.4371 3.98583L12.0902 3.91645C11.6186 3.82212 11.1854 3.5903 10.8453 3.25019L10.4716 2.87643Z" fill="#53ADF0"/>
</svg>
