<svg width="20" height="20" viewBox="0 0 20 20" fill="none" xmlns="http://www.w3.org/2000/svg">
<circle cx="9.64966" cy="6.06519" r="3.98169" stroke="#616161" stroke-width="1.5" stroke-linecap="round" stroke-linejoin="round"/>
<path fill-rule="evenodd" clip-rule="evenodd" d="M3.33204 15.5846C3.33097 15.3047 3.39358 15.0282 3.51511 14.7761C3.8965 14.0133 4.97201 13.609 5.86446 13.426C6.5081 13.2886 7.16062 13.1969 7.81717 13.1514C9.03273 13.0446 10.2553 13.0446 11.4709 13.1514C12.1274 13.1974 12.7799 13.2891 13.4236 13.426C14.316 13.609 15.3915 13.9752 15.7729 14.7761C16.0173 15.2901 16.0173 15.8868 15.7729 16.4008C15.3915 17.2017 14.316 17.5678 13.4236 17.7433C12.7807 17.8863 12.1279 17.9807 11.4709 18.0255C10.4815 18.1094 9.48752 18.1247 8.49604 18.0713C8.26721 18.0713 8.046 18.0713 7.81717 18.0255C7.16256 17.9812 6.5123 17.8869 5.87209 17.7433C4.97201 17.5678 3.90413 17.2017 3.51511 16.4008C3.3942 16.1457 3.33166 15.8669 3.33204 15.5846Z" stroke="#616161" stroke-width="1.5" stroke-linecap="round" stroke-linejoin="round"/>
</svg>
