<svg width="28" height="28" viewBox="0 0 28 28" fill="none" xmlns="http://www.w3.org/2000/svg">
<circle cx="14" cy="14" r="14" fill="#EBF5FF"/>
<path opacity="0.8" d="M4.81517 24.5659C6.52362 26.0511 8.56672 27.0998 10.7693 27.6221C12.972 28.1445 15.2684 28.125 17.4618 27.5652C19.6552 27.0055 21.6802 25.9222 23.3632 24.4082C25.0461 22.8943 26.3368 20.9948 27.1247 18.8726C27.9126 16.7504 28.1741 14.4688 27.8868 12.2234C27.5996 9.97799 26.7721 7.83573 25.4753 5.98023C24.1786 4.12474 22.4512 2.61137 20.4414 1.56984C18.4315 0.52831 16.199 -0.0103094 13.9353 0.000149426L13.9437 1.82013C15.9131 1.81103 17.8554 2.27963 19.604 3.18576C21.3526 4.09189 22.8554 5.40852 23.9835 7.0228C25.1117 8.63708 25.8316 10.5009 26.0815 12.4544C26.3315 14.4079 26.1039 16.3929 25.4185 18.2392C24.733 20.0855 23.6101 21.738 22.1459 23.0552C20.6818 24.3723 18.9201 25.3148 17.0118 25.8018C15.1035 26.2887 13.1056 26.3057 11.1893 25.8513C9.27305 25.3968 7.49555 24.4844 6.0092 23.1924L4.81517 24.5659Z" fill="#1991EB"/>
<g opacity="0.8">
<path d="M14 19.5V8.5" stroke="#1991EB" stroke-width="1.8" stroke-linecap="round" stroke-linejoin="round"/>
<path d="M9.5 13L14 8.5L18.5 13" stroke="#1991EB" stroke-width="1.8" stroke-linecap="round" stroke-linejoin="round"/>
</g>
</svg>
