<svg width="159" height="62" viewBox="0 0 159 62" fill="none" xmlns="http://www.w3.org/2000/svg">
<g id="Buttons">
<g id="Body" filter="url(#filter0_ddd_3053_159461)">
<rect x="8" y="4" width="143" height="46" rx="8" fill="white"/>
</g>
<g id="BookmarkSimple">
<g id="BookmarkSimple_2">
<path id="Vector" d="M99.625 34.5L93.9994 31.375L88.375 34.5V20.125C88.375 19.9592 88.4408 19.8003 88.5581 19.6831C88.6753 19.5658 88.8342 19.5 89 19.5H99C99.1658 19.5 99.3247 19.5658 99.4419 19.6831C99.5592 19.8003 99.625 19.9592 99.625 20.125V34.5Z" stroke="#616161" stroke-width="1.5" stroke-linecap="round" stroke-linejoin="round"/>
<path id="Vector_2" d="M90.875 23.875H97.125" stroke="#616161" stroke-width="1.5" stroke-linecap="round" stroke-linejoin="round"/>
</g>
</g>
<g id="ChatCircleDots">
<g id="ChatCircleDots_2">
<path id="Vector_3" d="M57.5491 30.8281C56.6173 29.2572 56.291 27.4002 56.6314 25.6058C56.9718 23.8114 57.9556 22.203 59.398 21.0826C60.8404 19.9622 62.6422 19.4069 64.4651 19.521C66.2879 19.6351 68.0065 20.4107 69.2979 21.7021C70.5894 22.9936 71.365 24.7121 71.4791 26.535C71.5932 28.3578 71.0379 30.1596 69.9175 31.602C68.7971 33.0444 67.1887 34.0282 65.3943 34.3687C63.5999 34.7091 61.7429 34.3828 60.1721 33.451L60.1721 33.4509L57.5817 34.191C57.4746 34.2216 57.3612 34.223 57.2533 34.1951C57.1454 34.1671 57.0469 34.1108 56.9681 34.032C56.8893 33.9532 56.833 33.8547 56.805 33.7468C56.7771 33.6389 56.7785 33.5255 56.8091 33.4184L57.5492 30.828L57.5491 30.8281Z" stroke="#616161" stroke-width="1.5" stroke-linecap="round" stroke-linejoin="round"/>
<path id="Vector_4" d="M64 27.781C64.4315 27.781 64.7812 27.4312 64.7812 26.9998C64.7812 26.5683 64.4315 26.2185 64 26.2185C63.5685 26.2185 63.2188 26.5683 63.2188 26.9998C63.2188 27.4312 63.5685 27.781 64 27.781Z" fill="#616161"/>
<path id="Vector_5" d="M60.25 27.781C60.6815 27.781 61.0312 27.4312 61.0312 26.9998C61.0312 26.5683 60.6815 26.2185 60.25 26.2185C59.8185 26.2185 59.4688 26.5683 59.4688 26.9998C59.4688 27.4312 59.8185 27.781 60.25 27.781Z" fill="#616161"/>
<path id="Vector_6" d="M67.75 27.781C68.1815 27.781 68.5312 27.4312 68.5312 26.9998C68.5312 26.5683 68.1815 26.2185 67.75 26.2185C67.3185 26.2185 66.9688 26.5683 66.9688 26.9998C66.9688 27.4312 67.3185 27.781 67.75 27.781Z" fill="#616161"/>
</g>
</g>
<g id="Profile / Light / 20px">
<g id="Profile">
<circle id="Ellipse_736" cx="33.6497" cy="23.0652" r="3.98169" stroke="#616161" stroke-width="1.5" stroke-linecap="round" stroke-linejoin="round"/>
<path id="Path_33945" fill-rule="evenodd" clip-rule="evenodd" d="M27.334 32.5846C27.3329 32.3047 27.3955 32.0282 27.5171 31.7761C27.8985 31.0133 28.974 30.609 29.8664 30.426C30.51 30.2886 31.1626 30.1969 31.8191 30.1514C33.0347 30.0446 34.2573 30.0446 35.4728 30.1514C36.1293 30.1974 36.7818 30.2891 37.4255 30.426C38.318 30.609 39.3935 30.9752 39.7749 31.7761C40.0193 32.2901 40.0193 32.8868 39.7749 33.4008C39.3935 34.2017 38.318 34.5678 37.4255 34.7433C36.7827 34.8863 36.1299 34.9807 35.4728 35.0255C34.4835 35.1094 33.4895 35.1247 32.498 35.0713C32.2692 35.0713 32.048 35.0713 31.8191 35.0255C31.1645 34.9812 30.5142 34.8869 29.874 34.7433C28.974 34.5678 27.9061 34.2017 27.5171 33.4008C27.3961 33.1457 27.3336 32.8669 27.334 32.5846Z" stroke="#616161" stroke-width="1.5" stroke-linecap="round" stroke-linejoin="round"/>
</g>
</g>
<g id="TrashSimple">
<g id="TrashSimple_2">
<path id="Vector_7" d="M131.875 21.375L118.125 21.375" stroke="#616161" stroke-width="1.5" stroke-linecap="round" stroke-linejoin="round"/>
<path id="Vector_8" d="M121.875 18.875H128.125" stroke="#616161" stroke-width="1.5" stroke-linecap="round" stroke-linejoin="round"/>
<path id="Vector_9" d="M130.625 21.375V33.25C130.625 33.4158 130.559 33.5747 130.442 33.6919C130.325 33.8092 130.166 33.875 130 33.875H120C119.834 33.875 119.675 33.8092 119.558 33.6919C119.441 33.5747 119.375 33.4158 119.375 33.25V21.375" stroke="#616161" stroke-width="1.5" stroke-linecap="round" stroke-linejoin="round"/>
</g>
</g>
<g id="Cursor / Pointer">
<g id="Path" filter="url(#filter1_d_3053_159461)">
<path fill-rule="evenodd" clip-rule="evenodd" d="M126.982 40L126.095 38.6453C125.49 37.7203 124.201 37.3829 123.214 37.89L123.444 37.7718C123.199 37.8977 123.082 38.2114 123.183 38.4721L124.41 41.6474C124.604 42.1508 125.101 42.8627 125.513 43.2203C125.513 43.2203 127.982 45.2639 127.982 46.03V47H131.982H133.076H133.982H134.982V46.03C134.982 45.2639 136.491 42.8507 136.491 42.8507C136.769 42.3816 137 41.5552 137 41.0066V36.9718C136.982 36.0785 136.223 35.3545 135.286 35.3545C134.817 35.3545 134.437 35.7165 134.437 36.1634V36.4866C134.437 35.5933 133.678 34.8693 132.741 34.8693C132.272 34.8693 131.893 35.2313 131.893 35.6782V36.0013C131.893 35.108 131.133 34.3841 130.196 34.3841C129.728 34.3841 129.348 34.7461 129.348 35.193V35.5161C129.348 35.3726 129.333 35.2584 129.303 35.168L129.044 31.0012C129.009 30.4378 128.534 30 127.982 30C127.426 30 126.982 30.4476 126.982 30.9998V35V40Z" fill="white"/>
<path d="M122.954 37.3833C122.586 37.6978 122.445 38.229 122.623 38.6885L123.85 41.8637C124.08 42.4574 124.633 43.2508 125.12 43.6733L125.125 43.678L125.13 43.6825L122.954 37.3833ZM122.954 37.3833L122.94 37.3564M122.954 37.3833L122.94 37.3564M122.94 37.3564L123.17 37.2382L122.94 37.3564ZM126.382 38.0314C125.605 37.1334 124.283 36.8086 123.175 37.2493L125.131 43.6825L125.131 43.6826L125.132 43.6835L125.136 43.6873L125.155 43.7033C125.173 43.7176 125.198 43.7391 125.231 43.7668C125.296 43.8223 125.39 43.9029 125.503 44.0021C125.729 44.2012 126.029 44.4727 126.327 44.7658C126.628 45.0615 126.914 45.3669 127.122 45.6348C127.226 45.7692 127.299 45.8809 127.344 45.9672C127.369 46.0147 127.379 46.0422 127.382 46.0525V47V47.6H127.982H131.982H133.076H133.982H134.982H135.582V47V46.03C135.582 46.0303 135.582 46.0261 135.583 46.0165C135.584 46.0071 135.586 45.9941 135.589 45.9772C135.595 45.9429 135.606 45.8986 135.622 45.8438C135.655 45.7334 135.705 45.5987 135.77 45.444C135.901 45.1348 136.08 44.78 136.264 44.438C136.448 44.0978 136.632 43.7797 136.771 43.5461C136.84 43.4295 136.898 43.3344 136.938 43.2688L136.984 43.1936L136.996 43.1745L136.999 43.1699L137 43.1689L137 43.1688L137 43.1687L137 43.1687L137.003 43.1626L137.007 43.1564C137.181 42.8621 137.326 42.4848 137.428 42.1188C137.529 41.7533 137.6 41.3529 137.6 41.0066V36.9718H137.6L137.6 36.9597C137.575 35.7205 136.53 34.7545 135.286 34.7545C134.982 34.7545 134.693 34.8478 134.455 35.01C134.03 34.5521 133.413 34.2693 132.741 34.2693C132.437 34.2693 132.149 34.3626 131.91 34.5247C131.485 34.0669 130.868 33.7841 130.196 33.7841C130.068 33.7841 129.942 33.8008 129.821 33.8324L129.643 30.964C129.588 30.0821 128.849 29.4 127.982 29.4C127.093 29.4 126.382 30.1177 126.382 30.9998V35V38.0314Z" stroke="#757575" stroke-width="1.2"/>
</g>
</g>
</g>
<defs>
<filter id="filter0_ddd_3053_159461" x="0" y="0" width="159" height="62" filterUnits="userSpaceOnUse" color-interpolation-filters="sRGB">
<feFlood flood-opacity="0" result="BackgroundImageFix"/>
<feColorMatrix in="SourceAlpha" type="matrix" values="0 0 0 0 0 0 0 0 0 0 0 0 0 0 0 0 0 0 127 0" result="hardAlpha"/>
<feOffset/>
<feGaussianBlur stdDeviation="0.5"/>
<feColorMatrix type="matrix" values="0 0 0 0 0 0 0 0 0 0 0 0 0 0 0 0 0 0 0.04 0"/>
<feBlend mode="normal" in2="BackgroundImageFix" result="effect1_dropShadow_3053_159461"/>
<feColorMatrix in="SourceAlpha" type="matrix" values="0 0 0 0 0 0 0 0 0 0 0 0 0 0 0 0 0 0 127 0" result="hardAlpha"/>
<feOffset/>
<feGaussianBlur stdDeviation="1"/>
<feColorMatrix type="matrix" values="0 0 0 0 0 0 0 0 0 0 0 0 0 0 0 0 0 0 0.06 0"/>
<feBlend mode="normal" in2="effect1_dropShadow_3053_159461" result="effect2_dropShadow_3053_159461"/>
<feColorMatrix in="SourceAlpha" type="matrix" values="0 0 0 0 0 0 0 0 0 0 0 0 0 0 0 0 0 0 127 0" result="hardAlpha"/>
<feOffset dy="4"/>
<feGaussianBlur stdDeviation="4"/>
<feColorMatrix type="matrix" values="0 0 0 0 0 0 0 0 0 0 0 0 0 0 0 0 0 0 0.04 0"/>
<feBlend mode="normal" in2="effect2_dropShadow_3053_159461" result="effect3_dropShadow_3053_159461"/>
<feBlend mode="normal" in="SourceGraphic" in2="effect3_dropShadow_3053_159461" result="shape"/>
</filter>
<filter id="filter1_d_3053_159461" x="118.947" y="26.8" width="22.252" height="25.3999" filterUnits="userSpaceOnUse" color-interpolation-filters="sRGB">
<feFlood flood-opacity="0" result="BackgroundImageFix"/>
<feColorMatrix in="SourceAlpha" type="matrix" values="0 0 0 0 0 0 0 0 0 0 0 0 0 0 0 0 0 0 127 0" result="hardAlpha"/>
<feOffset dy="1"/>
<feGaussianBlur stdDeviation="1.5"/>
<feColorMatrix type="matrix" values="0 0 0 0 0 0 0 0 0 0 0 0 0 0 0 0 0 0 0.2 0"/>
<feBlend mode="normal" in2="BackgroundImageFix" result="effect1_dropShadow_3053_159461"/>
<feBlend mode="normal" in="SourceGraphic" in2="effect1_dropShadow_3053_159461" result="shape"/>
</filter>
</defs>
</svg>
