<svg width="268" height="178" viewBox="0 0 268 178" fill="none" xmlns="http://www.w3.org/2000/svg">
<rect x="1.56445" y="0.5" width="206.381" height="175.94" rx="3.5" fill="white" stroke="#E6E6E6"/>
<path d="M35.6899 161.661C44.037 161.661 50.8036 154.966 50.8036 146.708C50.8036 138.449 44.037 131.754 35.6899 131.754C27.3428 131.754 20.5762 138.449 20.5762 146.708C20.5762 154.966 27.3428 161.661 35.6899 161.661Z" fill="#E6E6E6"/>
<path d="M70.5971 136.741C69.929 136.741 69.2883 137.004 68.8159 137.471C68.3435 137.939 68.0781 138.572 68.0781 139.233C68.0781 139.894 68.3435 140.528 68.8159 140.996C69.2883 141.463 69.929 141.726 70.5971 141.726H189.348C190.016 141.726 190.656 141.463 191.129 140.996C191.601 140.528 191.867 139.894 191.867 139.233C191.867 138.572 191.601 137.939 191.129 137.471C190.656 137.004 190.016 136.741 189.348 136.741H70.5971Z" fill="#E6E6E6"/>
<path d="M70.5988 151.69C70.2677 151.689 69.9398 151.754 69.6337 151.879C69.3277 152.004 69.0496 152.187 68.8153 152.419C68.581 152.65 68.3951 152.925 68.2683 153.228C68.1415 153.53 68.0762 153.855 68.0762 154.182C68.0762 154.51 68.1415 154.834 68.2683 155.137C68.3951 155.439 68.581 155.714 68.8153 155.946C69.0496 156.177 69.3277 156.361 69.6337 156.486C69.9398 156.611 70.2677 156.675 70.5988 156.674H121.698C122.365 156.673 123.005 156.41 123.476 155.943C123.948 155.476 124.213 154.842 124.213 154.182C124.213 153.522 123.948 152.888 123.476 152.421C123.005 151.954 122.365 151.691 121.698 151.69H70.5988Z" fill="#E6E6E6"/>
<path d="M252.517 117.733H52.1614C51.1778 117.732 50.2347 117.345 49.5392 116.657C48.8436 115.968 48.4523 115.035 48.4512 114.062V27.0698C48.4523 26.0966 48.8436 25.1636 49.5391 24.4754C50.2347 23.7872 51.1777 23.4001 52.1614 23.3989H252.517C253.501 23.4001 254.444 23.7872 255.139 24.4754C255.835 25.1635 256.226 26.0966 256.227 27.0698V114.062C256.226 115.035 255.835 115.968 255.139 116.657C254.444 117.345 253.5 117.732 252.517 117.733Z" fill="#EAACAC"/>
<path d="M117.094 94.625L100.498 85.4062L83.9062 94.625V52.2188C83.9062 51.7298 84.1005 51.2608 84.4463 50.915C84.792 50.5693 85.261 50.375 85.75 50.375H115.25C115.739 50.375 116.208 50.5693 116.554 50.915C116.899 51.2608 117.094 51.7298 117.094 52.2188V94.625Z" fill="white" stroke="white" stroke-width="1.5" stroke-linecap="round" stroke-linejoin="round"/>
<path d="M91.2812 63.2812H109.719" stroke="#EAACAC" stroke-width="4" stroke-linecap="round" stroke-linejoin="round"/>
<rect x="144.195" y="53.5474" width="81.5652" height="5.78861" rx="2.89431" fill="white"/>
<rect x="144.195" y="68.0161" width="81.5652" height="5.7886" rx="2.8943" fill="white"/>
<rect x="144.195" y="82.4863" width="59.7174" height="5.78861" rx="2.89431" fill="white"/>
</svg>
