<svg width="858" height="411" viewBox="0 0 858 411" fill="none" xmlns="http://www.w3.org/2000/svg">
<mask id="mask0_7742_254666" style="mask-type:alpha" maskUnits="userSpaceOnUse" x="0" y="0" width="858" height="411">
<path d="M0 0H858V411H0V0Z" fill="#F5F5F5"/>
</mask>
<g mask="url(#mask0_7742_254666)">
<g filter="url(#filter0_ddd_7742_254666)">
<g clip-path="url(#clip0_7742_254666)">
<path d="M1544 -139H-376V941H1544V-139Z" fill="#F5F5F5"/>
<path d="M319 17H187V41H319V17Z" fill="#F5F5F5"/>
<path d="M356.847 28.791C356.946 28.705 357 28.595 357 28.466C357 28.207 356.766 28 356.468 28C356.319 28 356.184 28.055 356.08 28.145L352.995 30.885L349.92 28.145C349.816 28.055 349.676 28 349.532 28C349.234 28 349 28.207 349 28.466C349 28.595 349.054 28.705 349.153 28.791L352.581 31.836C352.698 31.945 352.842 31.996 353 32C353.158 32 353.293 31.945 353.415 31.836L356.847 28.791Z" fill="#757575"/>
<path d="M192.911 23.2001H194.115L190.727 30.7601C190.382 31.5441 190.018 32.1131 189.635 32.4681C189.262 32.8231 188.814 33.0001 188.291 33.0001C187.787 33.0001 187.39 32.8831 187.101 32.6501L187.521 31.6421C187.764 31.8101 188.016 31.8941 188.277 31.8941C188.753 31.8941 189.154 31.5631 189.481 30.9001L189.649 30.5361L185.211 23.2001H186.555L190.223 29.3461L192.911 23.2001ZM200.105 33.0001H198.985V27.7501H195.555V33.0001H194.435V26.7001H200.105V33.0001ZM203.502 35.8001H202.382V26.7001H203.502V27.4421C203.726 27.1811 204.034 26.9711 204.426 26.8121C204.818 26.6441 205.224 26.5601 205.644 26.5601C206.54 26.5601 207.245 26.8591 207.758 27.4561C208.29 28.0441 208.556 28.8091 208.556 29.7521C208.556 30.7131 208.253 31.5211 207.646 32.1741C207.049 32.8181 206.26 33.1401 205.28 33.1401C204.524 33.1401 203.931 32.9951 203.502 32.7061V35.8001ZM205.322 27.6101C204.575 27.6101 203.969 27.8991 203.502 28.4781V31.6001C203.997 31.9271 204.557 32.0901 205.182 32.0901C205.845 32.0901 206.372 31.8801 206.764 31.4601C207.165 31.0311 207.366 30.4751 207.366 29.7941C207.366 29.1311 207.184 28.6041 206.82 28.2121C206.456 27.8111 205.957 27.6101 205.322 27.6101ZM210.747 28.0301L210.453 27.1341C211.079 26.7511 211.779 26.5601 212.553 26.5601C213.403 26.5601 214.019 26.7701 214.401 27.1901C214.784 27.6101 214.975 28.2591 214.975 29.1361V33.0001H213.911V32.1881C213.417 32.7951 212.745 33.0981 211.895 33.0981C211.317 33.0981 210.85 32.9251 210.495 32.5801C210.141 32.2251 209.963 31.7491 209.963 31.1521C209.963 30.5361 210.183 30.0511 210.621 29.6961C211.06 29.3321 211.634 29.1501 212.343 29.1501C213.006 29.1501 213.529 29.2851 213.911 29.5561C213.911 28.8471 213.813 28.3381 213.617 28.0301C213.421 27.7221 213.043 27.5681 212.483 27.5681C211.914 27.5681 211.335 27.7221 210.747 28.0301ZM212.287 32.0901C212.913 32.0901 213.454 31.8191 213.911 31.2781V30.4801C213.519 30.2001 213.048 30.0601 212.497 30.0601C212.115 30.0601 211.793 30.1531 211.531 30.3401C211.279 30.5171 211.153 30.7691 211.153 31.0961C211.153 31.4041 211.251 31.6471 211.447 31.8241C211.653 32.0011 211.933 32.0901 212.287 32.0901ZM217.101 33.0001V26.7001C217.147 26.7001 217.213 26.7001 217.297 26.7001C217.381 26.6911 217.502 26.6861 217.661 26.6861C217.819 26.6771 217.964 26.6721 218.095 26.6721C218.785 26.6531 219.215 26.6441 219.383 26.6441C221.193 26.6441 222.099 27.1851 222.099 28.2681C222.099 28.6411 221.982 28.9631 221.749 29.2341C221.515 29.4951 221.212 29.6541 220.839 29.7101V29.7381C221.819 29.9151 222.309 30.4101 222.309 31.2221C222.309 32.4451 221.343 33.0561 219.411 33.0561C219.317 33.0561 218.907 33.0471 218.179 33.0281C218.039 33.0281 217.885 33.0231 217.717 33.0141C217.549 33.0141 217.418 33.0091 217.325 33.0001C217.231 33.0001 217.157 33.0001 217.101 33.0001ZM219.565 30.1721H218.221V32.1041C218.893 32.1321 219.322 32.1461 219.509 32.1461C220.582 32.1461 221.119 31.8101 221.119 31.1381C221.119 30.4941 220.601 30.1721 219.565 30.1721ZM219.467 27.5541C219.196 27.5541 218.781 27.5681 218.221 27.5961V29.4721H219.635C220.017 29.4721 220.325 29.3831 220.559 29.2061C220.792 29.0291 220.909 28.7911 220.909 28.4921C220.909 27.8671 220.428 27.5541 219.467 27.5541ZM229.701 33.0001H228.581V27.8201H226.369L226.299 28.8841C226.224 29.7521 226.112 30.4751 225.963 31.0541C225.823 31.6231 225.636 32.0531 225.403 32.3421C225.179 32.6221 224.941 32.8181 224.689 32.9301C224.437 33.0331 224.129 33.0841 223.765 33.0841L223.681 31.9921C223.783 32.0011 223.891 31.9871 224.003 31.9501C224.115 31.9031 224.236 31.8101 224.367 31.6701C224.507 31.5301 224.628 31.3431 224.731 31.1101C224.843 30.8771 224.941 30.5501 225.025 30.1301C225.118 29.7011 225.179 29.2111 225.207 28.6601L225.319 26.7001H229.701V33.0001ZM236.94 31.4321L237.29 32.3141C236.683 32.8651 235.895 33.1401 234.924 33.1401C233.897 33.1401 233.081 32.8411 232.474 32.2441C231.858 31.6471 231.55 30.8491 231.55 29.8501C231.55 28.9071 231.839 28.1231 232.418 27.4981C232.987 26.8731 233.781 26.5601 234.798 26.5601C235.638 26.5601 236.333 26.8311 236.884 27.3721C237.444 27.9041 237.724 28.5951 237.724 29.4441C237.724 29.7151 237.701 29.9671 237.654 30.2001H232.81C232.857 30.7881 233.076 31.2501 233.468 31.5861C233.869 31.9221 234.383 32.0901 235.008 32.0901C235.829 32.0901 236.473 31.8711 236.94 31.4321ZM234.742 27.6101C234.191 27.6101 233.734 27.7641 233.37 28.0721C233.015 28.3801 232.805 28.7861 232.74 29.2901H236.562C236.534 28.7671 236.357 28.3571 236.03 28.0581C235.713 27.7591 235.283 27.6101 234.742 27.6101ZM245.233 33.0001H244.113V30.3401H240.613V33.0001H239.493V26.7001H240.613V29.2901H244.113V26.7001H245.233V33.0001ZM252.269 28.3101L248.629 33.0001H247.509V26.7001H248.629V31.3901L252.269 26.7001H253.389V33.0001H252.269V28.3101ZM260.645 31.4321L260.995 32.3141C260.388 32.8651 259.6 33.1401 258.629 33.1401C257.602 33.1401 256.786 32.8411 256.179 32.2441C255.563 31.6471 255.255 30.8491 255.255 29.8501C255.255 28.9071 255.544 28.1231 256.123 27.4981C256.692 26.8731 257.486 26.5601 258.503 26.5601C259.343 26.5601 260.038 26.8311 260.589 27.3721C261.149 27.9041 261.429 28.5951 261.429 29.4441C261.429 29.7151 261.406 29.9671 261.359 30.2001H256.515C256.562 30.7881 256.781 31.2501 257.173 31.5861C257.574 31.9221 258.088 32.0901 258.713 32.0901C259.534 32.0901 260.178 31.8711 260.645 31.4321ZM258.447 27.6101C257.896 27.6101 257.439 27.7641 257.075 28.0721C256.72 28.3801 256.51 28.7861 256.445 29.2901H260.267C260.239 28.7671 260.062 28.3571 259.735 28.0581C259.418 27.7591 258.988 27.6101 258.447 27.6101ZM266.929 28.0301L266.635 27.1341C267.26 26.7511 267.96 26.5601 268.735 26.5601C269.584 26.5601 270.2 26.7701 270.583 27.1901C270.966 27.6101 271.157 28.2591 271.157 29.1361V33.0001H270.093V32.1881C269.598 32.7951 268.926 33.0981 268.077 33.0981C267.498 33.0981 267.032 32.9251 266.677 32.5801C266.322 32.2251 266.145 31.7491 266.145 31.1521C266.145 30.5361 266.364 30.0511 266.803 29.6961C267.242 29.3321 267.816 29.1501 268.525 29.1501C269.188 29.1501 269.71 29.2851 270.093 29.5561C270.093 28.8471 269.995 28.3381 269.799 28.0301C269.603 27.7221 269.225 27.5681 268.665 27.5681C268.096 27.5681 267.517 27.7221 266.929 28.0301ZM268.469 32.0901C269.094 32.0901 269.636 31.8191 270.093 31.2781V30.4801C269.701 30.2001 269.23 30.0601 268.679 30.0601C268.296 30.0601 267.974 30.1531 267.713 30.3401C267.461 30.5171 267.335 30.7691 267.335 31.0961C267.335 31.4041 267.433 31.6471 267.629 31.8241C267.834 32.0011 268.114 32.0901 268.469 32.0901ZM279.022 33.0001H277.902V30.3401H274.402V33.0001H273.282V26.7001H274.402V29.2901H277.902V26.7001H279.022V33.0001ZM286.142 31.2781L286.674 32.0901C286.133 32.7901 285.325 33.1401 284.252 33.1401C283.244 33.1401 282.427 32.8411 281.802 32.2441C281.186 31.6471 280.878 30.8491 280.878 29.8501C280.878 28.9261 281.181 28.1471 281.788 27.5121C282.395 26.8771 283.155 26.5601 284.07 26.5601C285.171 26.5601 285.997 26.8351 286.548 27.3861L286.03 28.2681C285.545 27.8291 284.943 27.6101 284.224 27.6101C283.636 27.6101 283.127 27.8251 282.698 28.2541C282.278 28.6741 282.068 29.2061 282.068 29.8501C282.068 30.5311 282.283 31.0731 282.712 31.4741C283.151 31.8851 283.692 32.0901 284.336 32.0901C285.064 32.0901 285.666 31.8191 286.142 31.2781ZM288.72 28.0301L288.426 27.1341C289.051 26.7511 289.751 26.5601 290.526 26.5601C291.375 26.5601 291.991 26.7701 292.374 27.1901C292.757 27.6101 292.948 28.2591 292.948 29.1361V33.0001H291.884V32.1881C291.389 32.7951 290.717 33.0981 289.868 33.0981C289.289 33.0981 288.823 32.9251 288.468 32.5801C288.113 32.2251 287.936 31.7491 287.936 31.1521C287.936 30.5361 288.155 30.0511 288.594 29.6961C289.033 29.3321 289.607 29.1501 290.316 29.1501C290.979 29.1501 291.501 29.2851 291.884 29.5561C291.884 28.8471 291.786 28.3381 291.59 28.0301C291.394 27.7221 291.016 27.5681 290.456 27.5681C289.887 27.5681 289.308 27.7221 288.72 28.0301ZM290.26 32.0901C290.885 32.0901 291.427 31.8191 291.884 31.2781V30.4801C291.492 30.2001 291.021 30.0601 290.47 30.0601C290.087 30.0601 289.765 30.1531 289.504 30.3401C289.252 30.5171 289.126 30.7691 289.126 31.0961C289.126 31.4041 289.224 31.6471 289.42 31.8241C289.625 32.0011 289.905 32.0901 290.26 32.0901ZM296.193 33.0001H295.073V26.7001H296.095L298.517 29.8221L300.813 26.7001H301.807V33.0001H300.687V28.4081L298.503 31.3341H298.461L296.193 28.4081V33.0001ZM308.959 23.0601L309.561 23.9421C309.337 24.2501 309.066 24.4601 308.749 24.5721C308.404 24.6931 308.012 24.7871 307.573 24.8521C307.144 24.9171 306.738 25.0341 306.355 25.2021C305.403 25.6411 304.871 26.6531 304.759 28.2401H304.787C304.992 27.8011 305.324 27.4471 305.781 27.1761C306.248 26.9051 306.747 26.7701 307.279 26.7701C308.175 26.7701 308.884 27.0551 309.407 27.6241C309.939 28.1931 310.205 28.9541 310.205 29.9061C310.205 30.8021 309.902 31.5671 309.295 32.2021C308.698 32.8271 307.923 33.1401 306.971 33.1401C305.944 33.1401 305.132 32.7901 304.535 32.0901C303.938 31.3991 303.639 30.4431 303.639 29.2201C303.639 26.4951 304.418 24.8011 305.977 24.1381C306.332 23.9791 306.742 23.8631 307.209 23.7881C307.573 23.7231 307.834 23.6711 307.993 23.6341C308.152 23.5971 308.32 23.5311 308.497 23.4381C308.684 23.3451 308.838 23.2191 308.959 23.0601ZM304.829 29.4301C304.829 30.2331 305.025 30.8771 305.417 31.3621C305.809 31.8471 306.318 32.0901 306.943 32.0901C307.55 32.0901 308.044 31.8851 308.427 31.4741C308.819 31.0731 309.015 30.5691 309.015 29.9621C309.015 29.3181 308.833 28.8001 308.469 28.4081C308.114 28.0161 307.624 27.8201 306.999 27.8201C306.43 27.8201 305.954 27.9791 305.571 28.2961C305.17 28.6231 304.922 29.0011 304.829 29.4301ZM317.248 33.0001H316.128V27.8201H313.916L313.846 28.8841C313.771 29.7521 313.659 30.4751 313.51 31.0541C313.37 31.6231 313.183 32.0531 312.95 32.3421C312.726 32.6221 312.488 32.8181 312.236 32.9301C311.984 33.0331 311.676 33.0841 311.312 33.0841L311.228 31.9921C311.33 32.0011 311.438 31.9871 311.55 31.9501C311.662 31.9031 311.783 31.8101 311.914 31.6701C312.054 31.5301 312.175 31.3431 312.278 31.1101C312.39 30.8771 312.488 30.5501 312.572 30.1301C312.665 29.7011 312.726 29.2111 312.754 28.6601L312.866 26.7001H317.248V33.0001ZM322.275 26.7001H324.235V33.0001H323.115V30.9001H321.897L320.357 33.0001H318.999L320.819 30.6201C320.436 30.5361 320.114 30.3311 319.853 30.0041C319.591 29.6681 319.461 29.2671 319.461 28.8001C319.461 28.1561 319.694 27.6471 320.161 27.2741C320.627 26.8911 321.332 26.7001 322.275 26.7001ZM320.651 28.8281C320.651 29.1271 320.767 29.3741 321.001 29.5701C321.234 29.7571 321.509 29.8501 321.827 29.8501H323.115V27.7501H322.093C321.617 27.7501 321.257 27.8481 321.015 28.0441C320.772 28.2401 320.651 28.5011 320.651 28.8281ZM327.641 33.0001H326.521V26.7001H327.543L329.965 29.8221L332.261 26.7001H333.255V33.0001H332.135V28.4081L329.951 31.3341H329.909L327.641 28.4081V33.0001ZM340.294 28.3101L336.654 33.0001H335.534V26.7001H336.654V31.3901L340.294 26.7001H341.414V33.0001H340.294V28.3101Z" fill="#757575"/>
<g filter="url(#filter1_d_7742_254666)">
<path fill-rule="evenodd" clip-rule="evenodd" d="M8 5C3.582 5 0 8.582 0 13V53V990H1544V53H175L159.205 14.876C156.728 8.89801 150.895 5 144.424 5H8Z" fill="white"/>
</g>
<path d="M32 180C32 175.582 35.582 172 40 172H372C376.418 172 380 175.582 380 180V1015H32V180Z" fill="#F5F5F5"/>
<path d="M348 296.5H64C59.8579 296.5 56.5 299.858 56.5 304V588C56.5 592.142 59.8579 595.5 64 595.5H348C352.142 595.5 355.5 592.142 355.5 588V304C355.5 299.858 352.142 296.5 348 296.5Z" stroke="#DCDCDC" stroke-dasharray="8 8"/>
<path d="M348 240H64C59.5817 240 56 243.582 56 248V272C56 276.418 59.5817 280 64 280H348C352.418 280 356 276.418 356 272V248C356 243.582 352.418 240 348 240Z" fill="#E0E0E0"/>
<path d="M199.812 260H212.188" stroke="#616161" stroke-width="1.5" stroke-linecap="round" stroke-linejoin="round"/>
<path d="M206 253.812V266.188" stroke="#616161" stroke-width="1.5" stroke-linecap="round" stroke-linejoin="round"/>
<path d="M188 194.5H176C174.067 194.5 172.5 196.067 172.5 198V210C172.5 211.933 174.067 213.5 176 213.5H188C189.933 213.5 191.5 211.933 191.5 210V198C191.5 196.067 189.933 194.5 188 194.5Z" fill="#FAFAFA" stroke="#BDBDBD"/>
<path d="M181.87 208.476C181.35 208.476 180.898 208.38 180.514 208.188C180.13 207.988 179.814 207.704 179.566 207.336C179.318 206.968 179.134 206.516 179.014 205.98C178.894 205.444 178.834 204.832 178.834 204.144C178.834 203.464 178.894 202.856 179.014 202.32C179.134 201.776 179.318 201.32 179.566 200.952C179.814 200.584 180.13 200.304 180.514 200.112C180.898 199.912 181.35 199.812 181.87 199.812C182.91 199.812 183.674 200.192 184.162 200.952C184.658 201.712 184.906 202.776 184.906 204.144C184.906 205.512 184.658 206.576 184.162 207.336C183.674 208.096 182.91 208.476 181.87 208.476ZM181.87 207.324C182.158 207.324 182.402 207.268 182.602 207.156C182.81 207.036 182.978 206.868 183.106 206.652C183.234 206.436 183.326 206.18 183.382 205.884C183.438 205.58 183.466 205.244 183.466 204.876V203.412C183.466 203.044 183.438 202.712 183.382 202.416C183.326 202.112 183.234 201.852 183.106 201.636C182.978 201.42 182.81 201.256 182.602 201.144C182.402 201.024 182.158 200.964 181.87 200.964C181.582 200.964 181.334 201.024 181.126 201.144C180.926 201.256 180.762 201.42 180.634 201.636C180.506 201.852 180.414 202.112 180.358 202.416C180.302 202.712 180.274 203.044 180.274 203.412V204.876C180.274 205.244 180.302 205.58 180.358 205.884C180.414 206.18 180.506 206.436 180.634 206.652C180.762 206.868 180.926 207.036 181.126 207.156C181.334 207.268 181.582 207.324 181.87 207.324Z" fill="#BDBDBD"/>
<path d="M65.3287 206.44L66.0807 207.912C65.7287 208.285 65.2217 208.589 64.5607 208.824C63.9097 209.059 63.2217 209.176 62.4967 209.176C60.7897 209.176 59.3977 208.648 58.3207 207.592C57.2537 206.536 56.7207 205.139 56.7207 203.4C56.7207 201.736 57.2277 200.355 58.2407 199.256C59.2437 198.168 60.6457 197.624 62.4487 197.624C63.8777 197.624 65.0137 198.003 65.8567 198.76L64.9767 200.216C64.2197 199.715 63.3767 199.464 62.4487 199.464C61.3817 199.464 60.5077 199.821 59.8247 200.536C59.1417 201.251 58.8007 202.205 58.8007 203.4C58.8007 204.573 59.1577 205.523 59.8727 206.248C60.5977 206.973 61.5317 207.336 62.6727 207.336C63.6537 207.336 64.5397 207.037 65.3287 206.44ZM68.6717 203.64H66.3037V201.8H72.8637V203.64H70.5117V209H68.6717V203.64ZM75.2407 203.656L74.7767 202.312C75.5557 201.853 76.4037 201.624 77.3207 201.624C78.3237 201.624 79.0547 201.869 79.5127 202.36C79.9717 202.851 80.2007 203.603 80.2007 204.616V209H78.6007V208.168C78.1747 208.787 77.4647 209.096 76.4727 209.096C75.7907 209.096 75.2407 208.899 74.8247 208.504C74.4197 208.099 74.2167 207.56 74.2167 206.888C74.2167 206.141 74.4567 205.565 74.9367 205.16C75.4167 204.755 76.0517 204.552 76.8407 204.552C77.4917 204.552 78.0357 204.707 78.4727 205.016C78.4947 204.376 78.3987 203.907 78.1847 203.608C77.9827 203.309 77.6307 203.16 77.1287 203.16C76.5747 203.16 75.9447 203.325 75.2407 203.656ZM77.0807 207.544C77.6997 207.544 78.1637 207.325 78.4727 206.888V206.152C78.1747 205.917 77.7527 205.8 77.2087 205.8C76.8677 205.8 76.5907 205.88 76.3767 206.04C76.1637 206.2 76.0567 206.419 76.0567 206.696C76.0567 206.952 76.1527 207.16 76.3447 207.32C76.5367 207.469 76.7827 207.544 77.0807 207.544ZM84.4277 212.2H82.5877V201.8H84.4277V202.488C84.6617 202.232 84.9817 202.024 85.3877 201.864C85.7927 201.704 86.2137 201.624 86.6517 201.624C87.6437 201.624 88.4327 201.965 89.0197 202.648C89.6167 203.341 89.9157 204.221 89.9157 205.288C89.9157 206.408 89.5637 207.336 88.8597 208.072C88.1557 208.808 87.2377 209.176 86.1077 209.176C85.3817 209.176 84.8217 209.059 84.4277 208.824V212.2ZM86.0757 203.352C85.4357 203.352 84.8857 203.613 84.4277 204.136V207.048C84.8647 207.325 85.3717 207.464 85.9477 207.464C86.5557 207.464 87.0407 207.267 87.4037 206.872C87.7767 206.477 87.9637 205.965 87.9637 205.336C87.9637 204.739 87.7927 204.259 87.4517 203.896C87.1207 203.533 86.6617 203.352 86.0757 203.352ZM101.609 209H92.0087V201.8H93.8487V207.288H95.8807V201.8H97.7207V207.288H99.7687V201.8H101.609V209ZM109.35 204.44L105.99 209H104.15V201.8H105.99V206.36L109.35 201.8H111.19V209H109.35V204.44ZM118.944 204.44L115.584 209H113.744V201.8H115.584V206.36L118.944 201.8H120.784V209H118.944V204.44ZM114.816 198.2H116.496C116.496 198.552 116.565 198.835 116.704 199.048C116.842 199.261 117.05 199.368 117.328 199.368C117.573 199.368 117.76 199.261 117.888 199.048C118.026 198.824 118.096 198.541 118.096 198.2H119.776C119.776 198.947 119.557 199.549 119.12 200.008C118.682 200.456 118.085 200.68 117.328 200.68C116.496 200.68 115.866 200.461 115.44 200.024C115.024 199.576 114.816 198.968 114.816 198.2ZM132.636 197.624L133.596 199.128C133.34 199.448 133.02 199.683 132.636 199.832C132.295 199.949 131.868 200.067 131.356 200.184C130.855 200.28 130.439 200.413 130.108 200.584C129.223 201 128.705 201.896 128.556 203.272H128.588C128.812 202.877 129.159 202.557 129.628 202.312C130.097 202.056 130.593 201.928 131.116 201.928C132.108 201.928 132.903 202.248 133.5 202.888C134.097 203.539 134.396 204.397 134.396 205.464C134.396 206.499 134.044 207.379 133.34 208.104C132.636 208.819 131.729 209.176 130.62 209.176C129.415 209.176 128.46 208.765 127.756 207.944C127.063 207.123 126.716 206.013 126.716 204.616C126.716 201.544 127.623 199.613 129.436 198.824C129.831 198.653 130.268 198.525 130.748 198.44C131.292 198.333 131.692 198.232 131.948 198.136C132.204 198.029 132.433 197.859 132.636 197.624ZM128.684 205C128.695 205.725 128.871 206.317 129.212 206.776C129.553 207.235 130.007 207.464 130.572 207.464C131.127 207.464 131.575 207.283 131.916 206.92C132.257 206.557 132.428 206.099 132.428 205.544C132.428 204.979 132.268 204.52 131.948 204.168C131.639 203.816 131.207 203.64 130.652 203.64C130.172 203.64 129.756 203.768 129.404 204.024C129.052 204.269 128.812 204.595 128.684 205ZM138.334 212.2H136.494V201.8H138.334V202.488C138.568 202.232 138.888 202.024 139.294 201.864C139.699 201.704 140.12 201.624 140.558 201.624C141.55 201.624 142.339 201.965 142.926 202.648C143.523 203.341 143.822 204.221 143.822 205.288C143.822 206.408 143.47 207.336 142.766 208.072C142.062 208.808 141.144 209.176 140.014 209.176C139.288 209.176 138.728 209.059 138.334 208.824V212.2ZM139.982 203.352C139.342 203.352 138.792 203.613 138.334 204.136V207.048C138.771 207.325 139.278 207.464 139.854 207.464C140.462 207.464 140.947 207.267 141.31 206.872C141.683 206.477 141.87 205.965 141.87 205.336C141.87 204.739 141.699 204.259 141.358 203.896C141.027 203.533 140.568 203.352 139.982 203.352ZM146.476 203.656L146.012 202.312C146.79 201.853 147.638 201.624 148.556 201.624C149.558 201.624 150.289 201.869 150.748 202.36C151.206 202.851 151.436 203.603 151.436 204.616V209H149.836V208.168C149.409 208.787 148.7 209.096 147.708 209.096C147.025 209.096 146.476 208.899 146.06 208.504C145.654 208.099 145.452 207.56 145.452 206.888C145.452 206.141 145.692 205.565 146.172 205.16C146.652 204.755 147.286 204.552 148.076 204.552C148.726 204.552 149.27 204.707 149.708 205.016C149.729 204.376 149.633 203.907 149.42 203.608C149.217 203.309 148.865 203.16 148.364 203.16C147.809 203.16 147.18 203.325 146.476 203.656ZM148.316 207.544C148.934 207.544 149.398 207.325 149.708 206.888V206.152C149.409 205.917 148.988 205.8 148.444 205.8C148.102 205.8 147.825 205.88 147.612 206.04C147.398 206.2 147.292 206.419 147.292 206.696C147.292 206.952 147.388 207.16 147.58 207.32C147.772 207.469 148.017 207.544 148.316 207.544ZM155.438 203.64H153.07V201.8H159.63V203.64H157.278V209H155.438V203.64Z" fill="#212121"/>
<path d="M338 206C339.105 206 340 205.105 340 204C340 202.895 339.105 202 338 202C336.895 202 336 202.895 336 204C336 205.105 336.895 206 338 206Z" fill="#BDBDBD"/>
<path d="M344 206C345.105 206 346 205.105 346 204C346 202.895 345.105 202 344 202C342.895 202 342 202.895 342 204C342 205.105 342.895 206 344 206Z" fill="#BDBDBD"/>
<path d="M350 206C351.105 206 352 205.105 352 204C352 202.895 351.105 202 350 202C348.895 202 348 202.895 348 204C348 205.105 348.895 206 350 206Z" fill="#BDBDBD"/>
<path d="M243 110H107C101.477 110 97 114.477 97 120C97 125.523 101.477 130 107 130H243C248.523 130 253 125.523 253 120C253 114.477 248.523 110 243 110Z" fill="#F5F5F5"/>
<path d="M113.551 123H112.321V117.15H109.201V123H107.971V116H113.551V123ZM120.041 123H115.891V116H119.941V117.15H117.121V118.89H119.641V120.04H117.121V121.85H120.041V123ZM123.272 120.47V123H122.042V116C122.336 116 122.652 115.997 122.992 115.99C123.339 115.983 123.686 115.98 124.032 115.98C124.526 115.98 124.952 116.043 125.312 116.17C125.679 116.29 125.962 116.46 126.162 116.68C126.362 116.893 126.509 117.13 126.602 117.39C126.696 117.643 126.742 117.923 126.742 118.23C126.742 118.863 126.516 119.4 126.062 119.84C125.616 120.28 124.989 120.5 124.182 120.5C123.776 120.5 123.472 120.49 123.272 120.47ZM124.152 117.13L123.272 117.15V119.3C123.626 119.333 123.916 119.35 124.142 119.35C124.536 119.35 124.849 119.253 125.082 119.06C125.322 118.867 125.442 118.587 125.442 118.22C125.442 117.493 125.012 117.13 124.152 117.13ZM133.377 121.4L133.847 122.32C133.627 122.553 133.31 122.743 132.897 122.89C132.49 123.037 132.06 123.11 131.607 123.11C130.54 123.11 129.67 122.78 128.997 122.12C128.33 121.46 127.997 120.587 127.997 119.5C127.997 118.46 128.313 117.597 128.947 116.91C129.573 116.23 130.45 115.89 131.577 115.89C132.47 115.89 133.18 116.127 133.707 116.6L133.157 117.51C132.683 117.197 132.157 117.04 131.577 117.04C130.91 117.04 130.363 117.263 129.937 117.71C129.51 118.157 129.297 118.753 129.297 119.5C129.297 120.233 129.52 120.827 129.967 121.28C130.42 121.733 131.003 121.96 131.717 121.96C132.33 121.96 132.883 121.773 133.377 121.4ZM134.656 119.5C134.656 118.48 134.996 117.623 135.676 116.93C136.37 116.237 137.243 115.89 138.296 115.89C139.35 115.89 140.22 116.223 140.906 116.89C141.6 117.563 141.946 118.433 141.946 119.5C141.946 120.547 141.6 121.41 140.906 122.09C140.213 122.77 139.343 123.11 138.296 123.11C137.243 123.11 136.373 122.777 135.686 122.11C135 121.443 134.656 120.573 134.656 119.5ZM135.956 119.5C135.956 120.207 136.18 120.793 136.626 121.26C137.073 121.727 137.63 121.96 138.296 121.96C139.016 121.96 139.586 121.727 140.006 121.26C140.433 120.793 140.646 120.207 140.646 119.5C140.646 118.787 140.42 118.197 139.966 117.73C139.513 117.27 138.956 117.04 138.296 117.04C137.623 117.04 137.063 117.27 136.616 117.73C136.176 118.19 135.956 118.78 135.956 119.5ZM149.42 123H148.2V120.01H145V123H143.77V116H145V118.86H148.2V116H149.42V123ZM152.098 123H150.858L153.818 115.98H154.898L157.858 123H156.548L155.818 121.21H152.828L152.098 123ZM155.348 120.06L154.328 117.57L153.298 120.06H155.348ZM164.598 123H163.378V117.15H161.338L161.198 118.47C161.118 119.27 161.014 119.953 160.888 120.52C160.761 121.087 160.621 121.54 160.468 121.88C160.314 122.22 160.131 122.48 159.918 122.66C159.711 122.84 159.494 122.953 159.268 123C159.048 123.04 158.791 123.04 158.498 123L158.528 121.78C158.674 121.8 158.794 121.793 158.888 121.76C158.981 121.727 159.091 121.633 159.218 121.48C159.358 121.307 159.471 121.077 159.558 120.79C159.798 120.077 159.974 118.947 160.088 117.4L160.188 116H164.598V123ZM168.863 119.5C168.743 119.5 168.509 119.517 168.163 119.55V121.84C168.603 121.86 168.829 121.87 168.843 121.87C169.816 121.87 170.303 121.46 170.303 120.64C170.303 120.267 170.176 119.983 169.923 119.79C169.669 119.597 169.316 119.5 168.863 119.5ZM166.933 116H168.163V118.4C168.449 118.367 168.716 118.35 168.963 118.35C169.829 118.35 170.486 118.547 170.933 118.94C171.379 119.333 171.603 119.89 171.603 120.61C171.603 121.357 171.346 121.947 170.833 122.38C170.326 122.807 169.616 123.02 168.703 123.02C168.316 123.02 167.986 123.017 167.713 123.01C167.439 123.003 167.179 123 166.933 123V116ZM179.076 123H177.856V120.01H174.656V123H173.426V116H174.656V118.86H177.856V116H179.076V123ZM188.114 123H186.894V116H188.114V123ZM183.324 119.5C183.218 119.5 182.991 119.517 182.644 119.55V121.84C182.698 121.84 182.804 121.847 182.964 121.86C183.124 121.867 183.238 121.87 183.304 121.87C184.224 121.87 184.684 121.46 184.684 120.64C184.684 120.267 184.568 119.983 184.334 119.79C184.101 119.597 183.764 119.5 183.324 119.5ZM181.414 116H182.644V118.4C182.931 118.367 183.191 118.35 183.424 118.35C184.258 118.35 184.891 118.55 185.324 118.95C185.764 119.343 185.984 119.897 185.984 120.61C185.984 121.357 185.731 121.947 185.224 122.38C184.724 122.807 184.034 123.02 183.154 123.02C182.781 123.02 182.458 123.017 182.184 123.01C181.918 123.003 181.661 123 181.414 123V116ZM195.207 118.03L191.537 123H190.457V116H191.687V120.98L195.357 116H196.437V123H195.207V118.03ZM191.567 114.3H192.717C192.797 114.687 193.08 114.88 193.567 114.88C194.074 114.88 194.34 114.687 194.367 114.3H195.517C195.51 114.72 195.32 115.067 194.947 115.34C194.574 115.6 194.114 115.73 193.567 115.73C192.98 115.73 192.507 115.603 192.147 115.35C191.794 115.09 191.6 114.74 191.567 114.3ZM206.876 123H205.646V117.15H202.526V123H201.296V116H206.876V123ZM210.446 120.47V123H209.216V116C209.509 116 209.826 115.997 210.166 115.99C210.512 115.983 210.859 115.98 211.206 115.98C211.699 115.98 212.126 116.043 212.486 116.17C212.852 116.29 213.136 116.46 213.336 116.68C213.536 116.893 213.682 117.13 213.776 117.39C213.869 117.643 213.916 117.923 213.916 118.23C213.916 118.863 213.689 119.4 213.236 119.84C212.789 120.28 212.162 120.5 211.356 120.5C210.949 120.5 210.646 120.49 210.446 120.47ZM211.326 117.13L210.446 117.15V119.3C210.799 119.333 211.089 119.35 211.316 119.35C211.709 119.35 212.022 119.253 212.256 119.06C212.496 118.867 212.616 118.587 212.616 118.22C212.616 117.493 212.186 117.13 211.326 117.13ZM215.17 119.5C215.17 118.48 215.51 117.623 216.19 116.93C216.883 116.237 217.756 115.89 218.81 115.89C219.863 115.89 220.733 116.223 221.42 116.89C222.113 117.563 222.46 118.433 222.46 119.5C222.46 120.547 222.113 121.41 221.42 122.09C220.726 122.77 219.856 123.11 218.81 123.11C217.756 123.11 216.886 122.777 216.2 122.11C215.513 121.443 215.17 120.573 215.17 119.5ZM216.47 119.5C216.47 120.207 216.693 120.793 217.14 121.26C217.586 121.727 218.143 121.96 218.81 121.96C219.53 121.96 220.1 121.727 220.52 121.26C220.946 120.793 221.16 120.207 221.16 119.5C221.16 118.787 220.933 118.197 220.48 117.73C220.026 117.27 219.47 117.04 218.81 117.04C218.136 117.04 217.576 117.27 217.13 117.73C216.69 118.19 216.47 118.78 216.47 119.5ZM228.433 123H224.283V116H228.333V117.15H225.513V118.89H228.033V120.04H225.513V121.85H228.433V123ZM231.665 123H230.435V116H231.665V119.32L234.425 116H235.905L233.025 119.26L236.085 123H234.525L231.665 119.39V123ZM238.895 117.15H236.625V116H242.395V117.15H240.125V123H238.895V117.15Z" fill="#9E9E9E"/>
<path d="M747 172.5H415C410.858 172.5 407.5 175.858 407.5 180V964C407.5 968.142 410.858 971.5 415 971.5H747C751.142 971.5 754.5 968.142 754.5 964V180C754.5 175.858 751.142 172.5 747 172.5Z" stroke="#DCDCDC" stroke-linecap="round" stroke-dasharray="8 8"/>
<path d="M433.031 211H431.191V207.16H432.391C432.711 206.787 433.058 205.96 433.431 204.68C433.815 203.368 434.044 201.821 434.119 200.04L434.231 197.8H441.175V207.16H442.695V211H440.855V209H433.031V211ZM436.135 199.64L435.959 201.592C435.863 202.936 435.666 204.115 435.367 205.128C435.058 206.184 434.786 206.861 434.551 207.16H439.223V199.64H436.135ZM444.975 208.12C444.26 207.405 443.903 206.499 443.903 205.4C443.903 204.301 444.26 203.4 444.975 202.696C445.69 201.981 446.639 201.624 447.823 201.624C448.996 201.624 449.94 201.981 450.655 202.696C451.38 203.4 451.743 204.301 451.743 205.4C451.743 206.488 451.38 207.395 450.655 208.12C449.93 208.824 448.986 209.176 447.823 209.176C446.639 209.176 445.69 208.824 444.975 208.12ZM446.431 203.928C446.058 204.312 445.871 204.803 445.871 205.4C445.871 205.997 446.052 206.493 446.415 206.888C446.788 207.272 447.258 207.464 447.823 207.464C448.399 207.464 448.868 207.272 449.231 206.888C449.604 206.504 449.791 206.008 449.791 205.4C449.791 204.803 449.604 204.312 449.231 203.928C448.858 203.544 448.388 203.352 447.823 203.352C447.268 203.352 446.804 203.544 446.431 203.928ZM459.244 197.624L460.204 199.128C459.948 199.448 459.628 199.683 459.244 199.832C458.902 199.949 458.476 200.067 457.964 200.184C457.462 200.28 457.046 200.413 456.716 200.584C455.83 201 455.313 201.896 455.163 203.272H455.196C455.42 202.877 455.766 202.557 456.236 202.312C456.705 202.056 457.201 201.928 457.724 201.928C458.716 201.928 459.51 202.248 460.108 202.888C460.705 203.539 461.004 204.397 461.004 205.464C461.004 206.499 460.652 207.379 459.948 208.104C459.244 208.819 458.337 209.176 457.228 209.176C456.022 209.176 455.068 208.765 454.364 207.944C453.67 207.123 453.324 206.013 453.324 204.616C453.324 201.544 454.23 199.613 456.044 198.824C456.438 198.653 456.876 198.525 457.356 198.44C457.9 198.333 458.3 198.232 458.556 198.136C458.812 198.029 459.041 197.859 459.244 197.624ZM455.292 205C455.302 205.725 455.478 206.317 455.82 206.776C456.161 207.235 456.614 207.464 457.18 207.464C457.734 207.464 458.182 207.283 458.524 206.92C458.865 206.557 459.036 206.099 459.036 205.544C459.036 204.979 458.876 204.52 458.556 204.168C458.246 203.816 457.814 203.64 457.26 203.64C456.78 203.64 456.364 203.768 456.012 204.024C455.66 204.269 455.42 204.595 455.292 205ZM463.661 203.656L463.197 202.312C463.976 201.853 464.824 201.624 465.741 201.624C466.744 201.624 467.474 201.869 467.933 202.36C468.392 202.851 468.621 203.603 468.621 204.616V209H467.021V208.168C466.594 208.787 465.885 209.096 464.893 209.096C464.21 209.096 463.661 208.899 463.245 208.504C462.84 208.099 462.637 207.56 462.637 206.888C462.637 206.141 462.877 205.565 463.357 205.16C463.837 204.755 464.472 204.552 465.261 204.552C465.912 204.552 466.456 204.707 466.893 205.016C466.914 204.376 466.818 203.907 466.605 203.608C466.402 203.309 466.05 203.16 465.549 203.16C464.994 203.16 464.365 203.325 463.661 203.656ZM465.501 207.544C466.12 207.544 466.584 207.325 466.893 206.888V206.152C466.594 205.917 466.173 205.8 465.629 205.8C465.288 205.8 465.01 205.88 464.797 206.04C464.584 206.2 464.477 206.419 464.477 206.696C464.477 206.952 464.573 207.16 464.765 207.32C464.957 207.469 465.202 207.544 465.501 207.544ZM471.007 209V201.8C471.103 201.8 471.509 201.789 472.223 201.768C472.949 201.736 473.487 201.72 473.839 201.72C476.015 201.72 477.103 202.349 477.103 203.608C477.103 204.013 476.975 204.371 476.719 204.68C476.463 204.979 476.143 205.155 475.759 205.208V205.24C476.783 205.485 477.295 206.04 477.295 206.904C477.295 208.355 476.154 209.08 473.871 209.08C473.541 209.08 473.034 209.064 472.351 209.032C472.181 209.032 471.983 209.027 471.759 209.016C471.546 209.016 471.381 209.011 471.263 209C471.157 209 471.071 209 471.007 209ZM473.999 205.944H472.847V207.544C473.487 207.587 473.893 207.608 474.063 207.608C474.469 207.608 474.783 207.533 475.007 207.384C475.242 207.235 475.359 207.032 475.359 206.776C475.359 206.221 474.906 205.944 473.999 205.944ZM473.999 203.208C473.573 203.208 473.189 203.219 472.847 203.24V204.824H474.047C474.378 204.824 474.645 204.749 474.847 204.6C475.05 204.451 475.151 204.248 475.151 203.992C475.151 203.469 474.767 203.208 473.999 203.208ZM484.739 204.44L481.379 209H479.539V201.8H481.379V206.36L484.739 201.8H486.579V209H484.739V204.44ZM490.748 203.64H488.38V201.8H494.94V203.64H492.588V209H490.748V203.64ZM499.445 209H496.757V201.8H498.597V203.768H499.589C500.667 203.768 501.461 203.992 501.973 204.44C502.496 204.888 502.757 205.496 502.757 206.264C502.757 207.085 502.48 207.747 501.925 208.248C501.371 208.749 500.544 209 499.445 209ZM499.429 205.24H498.597V207.4H499.413C500.341 207.4 500.805 207.043 500.805 206.328C500.805 205.603 500.347 205.24 499.429 205.24ZM515.449 209H513.609V206.248H510.457V209H508.617V201.8H510.457V204.52H513.609V201.8H515.449V209ZM518.616 208.12C517.901 207.405 517.544 206.499 517.544 205.4C517.544 204.301 517.901 203.4 518.616 202.696C519.33 201.981 520.28 201.624 521.464 201.624C522.637 201.624 523.581 201.981 524.296 202.696C525.021 203.4 525.384 204.301 525.384 205.4C525.384 206.488 525.021 207.395 524.296 208.12C523.57 208.824 522.626 209.176 521.464 209.176C520.28 209.176 519.33 208.824 518.616 208.12ZM520.072 203.928C519.698 204.312 519.512 204.803 519.512 205.4C519.512 205.997 519.693 206.493 520.056 206.888C520.429 207.272 520.898 207.464 521.464 207.464C522.04 207.464 522.509 207.272 522.872 206.888C523.245 206.504 523.432 206.008 523.432 205.4C523.432 204.803 523.245 204.312 522.872 203.928C522.498 203.544 522.029 203.352 521.464 203.352C520.909 203.352 520.445 203.544 520.072 203.928ZM527.476 209V201.8C527.572 201.8 527.977 201.789 528.692 201.768C529.417 201.736 529.956 201.72 530.308 201.72C532.484 201.72 533.572 202.349 533.572 203.608C533.572 204.013 533.444 204.371 533.188 204.68C532.932 204.979 532.612 205.155 532.228 205.208V205.24C533.252 205.485 533.764 206.04 533.764 206.904C533.764 208.355 532.623 209.08 530.34 209.08C530.009 209.08 529.503 209.064 528.82 209.032C528.649 209.032 528.452 209.027 528.228 209.016C528.015 209.016 527.849 209.011 527.732 209C527.625 209 527.54 209 527.476 209ZM530.468 205.944H529.316V207.544C529.956 207.587 530.361 207.608 530.532 207.608C530.937 207.608 531.252 207.533 531.476 207.384C531.711 207.235 531.828 207.032 531.828 206.776C531.828 206.221 531.375 205.944 530.468 205.944ZM530.468 203.208C530.041 203.208 529.657 203.219 529.316 203.24V204.824H530.516C530.847 204.824 531.113 204.749 531.316 204.6C531.519 204.451 531.62 204.248 531.62 203.992C531.62 203.469 531.236 203.208 530.468 203.208ZM540.855 201.8H542.951L540.119 209C539.607 210.248 539.149 211.091 538.743 211.528C538.349 211.976 537.879 212.2 537.335 212.2C536.823 212.2 536.306 212.013 535.783 211.64L536.375 210.248C536.653 210.419 536.903 210.504 537.127 210.504C537.565 210.504 537.933 210.131 538.231 209.384L538.391 209L535.063 201.8H537.271L538.951 205.736C538.973 205.789 539.09 206.136 539.303 206.776C539.367 206.381 539.453 206.029 539.559 205.72L540.855 201.8ZM546.506 209H544.554V201.8H546.506V204.408H547.786C547.978 203.555 548.4 202.877 549.05 202.376C549.701 201.875 550.496 201.624 551.434 201.624C552.586 201.624 553.52 201.981 554.234 202.696C554.949 203.4 555.306 204.301 555.306 205.4C555.306 206.477 554.944 207.379 554.218 208.104C553.504 208.819 552.576 209.176 551.434 209.176C550.464 209.176 549.648 208.915 548.986 208.392C548.336 207.859 547.925 207.144 547.754 206.248H546.506V209ZM549.754 205.4C549.754 205.997 549.909 206.472 550.218 206.824C550.538 207.165 550.96 207.336 551.482 207.336C552.005 207.336 552.426 207.165 552.746 206.824C553.066 206.472 553.226 205.997 553.226 205.4C553.226 204.803 553.066 204.333 552.746 203.992C552.437 203.64 552.016 203.464 551.482 203.464C550.97 203.464 550.554 203.64 550.234 203.992C549.914 204.344 549.754 204.813 549.754 205.4ZM563.144 212.2H561.304V201.8H563.144V202.488C563.379 202.232 563.699 202.024 564.104 201.864C564.51 201.704 564.931 201.624 565.368 201.624C566.36 201.624 567.15 201.965 567.736 202.648C568.334 203.341 568.632 204.221 568.632 205.288C568.632 206.408 568.28 207.336 567.576 208.072C566.872 208.808 565.955 209.176 564.824 209.176C564.099 209.176 563.539 209.059 563.144 208.824V212.2ZM564.792 203.352C564.152 203.352 563.603 203.613 563.144 204.136V207.048C563.582 207.325 564.088 207.464 564.664 207.464C565.272 207.464 565.758 207.267 566.12 206.872C566.494 206.477 566.68 205.965 566.68 205.336C566.68 204.739 566.51 204.259 566.168 203.896C565.838 203.533 565.379 203.352 564.792 203.352ZM571.35 208.12C570.635 207.405 570.278 206.499 570.278 205.4C570.278 204.301 570.635 203.4 571.35 202.696C572.065 201.981 573.014 201.624 574.198 201.624C575.371 201.624 576.315 201.981 577.03 202.696C577.755 203.4 578.118 204.301 578.118 205.4C578.118 206.488 577.755 207.395 577.03 208.12C576.305 208.824 575.361 209.176 574.198 209.176C573.014 209.176 572.065 208.824 571.35 208.12ZM572.806 203.928C572.433 204.312 572.246 204.803 572.246 205.4C572.246 205.997 572.427 206.493 572.79 206.888C573.163 207.272 573.633 207.464 574.198 207.464C574.774 207.464 575.243 207.272 575.606 206.888C575.979 206.504 576.166 206.008 576.166 205.4C576.166 204.803 575.979 204.312 575.606 203.928C575.233 203.544 574.763 203.352 574.198 203.352C573.643 203.352 573.179 203.544 572.806 203.928ZM586.552 209H584.712V203.64H582.808L582.76 204.408C582.621 205.709 582.419 206.701 582.152 207.384C581.896 208.067 581.565 208.531 581.16 208.776C580.765 209.011 580.216 209.133 579.512 209.144L579.352 207.352C579.587 207.363 579.805 207.299 580.008 207.16C580.243 206.989 580.451 206.632 580.632 206.088C580.813 205.544 580.931 204.861 580.984 204.04L581.096 201.8H586.552V209ZM591.789 209H589.101V201.8H590.941V203.768H591.933C593.01 203.768 593.805 203.992 594.317 204.44C594.84 204.888 595.101 205.496 595.101 206.264C595.101 207.085 594.824 207.747 594.269 208.248C593.714 208.749 592.888 209 591.789 209ZM591.773 205.24H590.941V207.4H591.757C592.685 207.4 593.149 207.043 593.149 206.328C593.149 205.603 592.69 205.24 591.773 205.24Z" fill="#BDBDBD"/>
<path d="M0 13C0 8.582 3.582 5 8 5H144.424C150.895 5 156.728 8.89801 159.205 14.876L175 53H0V13Z" fill="white"/>
<path d="M32.2872 31.1521L32.7632 32.0481C32.4362 32.3841 31.9932 32.6501 31.4332 32.8461C30.8732 33.0421 30.2852 33.1401 29.6692 33.1401C28.2042 33.1401 27.0042 32.6831 26.0712 31.7681C25.1562 30.8351 24.6992 29.6121 24.6992 28.1001C24.6992 26.6441 25.1382 25.4451 26.0152 24.5021C26.8922 23.5411 28.0822 23.0601 29.5852 23.0601C30.8262 23.0601 31.8202 23.3771 32.5672 24.0121L32.0212 24.9081C31.3682 24.4231 30.5602 24.1801 29.5992 24.1801C28.5352 24.1801 27.6622 24.5441 26.9812 25.2721C26.3002 25.9911 25.9592 26.9331 25.9592 28.1001C25.9592 29.2671 26.3092 30.2141 27.0092 30.9421C27.7282 31.6611 28.6522 32.0201 29.7812 32.0201C30.7332 32.0201 31.5682 31.7311 32.2872 31.1521ZM39.0322 31.4321L39.3822 32.3141C38.7752 32.8651 37.9862 33.1401 37.0162 33.1401C35.9892 33.1401 35.1722 32.8411 34.5662 32.2441C33.9502 31.6471 33.6422 30.8491 33.6422 29.8501C33.6422 28.9071 33.9312 28.1231 34.5102 27.4981C35.0792 26.8731 35.8722 26.5601 36.8902 26.5601C37.7302 26.5601 38.4252 26.8311 38.9762 27.3721C39.5362 27.9041 39.8162 28.5951 39.8162 29.4441C39.8162 29.7151 39.7922 29.9671 39.7462 30.2001H34.9022C34.9482 30.7881 35.1682 31.2501 35.5602 31.5861C35.9612 31.9221 36.4742 32.0901 37.1002 32.0901C37.9212 32.0901 38.5652 31.8711 39.0322 31.4321ZM36.8342 27.6101C36.2832 27.6101 35.8262 27.7641 35.4622 28.0721C35.1072 28.3801 34.8972 28.7861 34.8322 29.2901H38.6542C38.6262 28.7671 38.4482 28.3571 38.1222 28.0581C37.8042 27.7591 37.3752 27.6101 36.8342 27.6101ZM42.7052 33.0001H41.5852V26.7001H42.6072L45.0292 29.8221L47.3252 26.7001H48.3192V33.0001H47.1992V28.4081L45.0152 31.3341H44.9732L42.7052 28.4081V33.0001ZM52.7272 33.0001H50.5992V26.7001H51.7192V28.5901H52.8672C53.7252 28.5901 54.3552 28.7861 54.7572 29.1781C55.1582 29.5611 55.3592 30.0881 55.3592 30.7601C55.3592 31.3951 55.1492 31.9271 54.7292 32.3561C54.3092 32.7851 53.6412 33.0001 52.7272 33.0001ZM52.6572 29.6401H51.7192V31.9501H52.6432C53.6602 31.9501 54.1692 31.5671 54.1692 30.8021C54.1692 30.0271 53.6652 29.6401 52.6572 29.6401ZM59.6632 26.7001H61.6232V33.0001H60.5032V30.9001H59.2852L57.7452 33.0001H56.3872L58.2072 30.6201C57.8252 30.5361 57.5032 30.3311 57.2412 30.0041C56.9802 29.6681 56.8492 29.2671 56.8492 28.8001C56.8492 28.1561 57.0832 27.6471 57.5492 27.2741C58.0162 26.8911 58.7212 26.7001 59.6632 26.7001ZM58.0392 28.8281C58.0392 29.1271 58.1562 29.3741 58.3892 29.5701C58.6232 29.7571 58.8982 29.8501 59.2152 29.8501H60.5032V27.7501H59.4812C59.0052 27.7501 58.6462 27.8481 58.4032 28.0441C58.1612 28.2401 58.0392 28.5011 58.0392 28.8281ZM75.4662 33.0001H74.2762V24.3201H68.9562V33.0001H67.7662V23.2001H75.4662V33.0001ZM83.1612 31.4321L83.5112 32.3141C82.9042 32.8651 82.1152 33.1401 81.1452 33.1401C80.1182 33.1401 79.3012 32.8411 78.6952 32.2441C78.0792 31.6471 77.7712 30.8491 77.7712 29.8501C77.7712 28.9071 78.0602 28.1231 78.6392 27.4981C79.2082 26.8731 80.0012 26.5601 81.0192 26.5601C81.8592 26.5601 82.5542 26.8311 83.1052 27.3721C83.6652 27.9041 83.9452 28.5951 83.9452 29.4441C83.9452 29.7151 83.9212 29.9671 83.8752 30.2001H79.0312C79.0772 30.7881 79.2972 31.2501 79.6892 31.5861C80.0902 31.9221 80.6032 32.0901 81.2292 32.0901C82.0502 32.0901 82.6942 31.8711 83.1612 31.4321ZM80.9632 27.6101C80.4122 27.6101 79.9552 27.7641 79.5912 28.0721C79.2362 28.3801 79.0262 28.7861 78.9612 29.2901H82.7832C82.7552 28.7671 82.5772 28.3571 82.2512 28.0581C81.9332 27.7591 81.5042 27.6101 80.9632 27.6101ZM87.1032 27.8201H84.7932V26.7001H90.5332V27.8201H88.2232V33.0001H87.1032V27.8201ZM93.1272 35.8001H92.0072V26.7001H93.1272V27.4421C93.3512 27.1811 93.6592 26.9711 94.0512 26.8121C94.4432 26.6441 94.8492 26.5601 95.2692 26.5601C96.1652 26.5601 96.8702 26.8591 97.3832 27.4561C97.9152 28.0441 98.1812 28.8091 98.1812 29.7521C98.1812 30.7131 97.8782 31.5211 97.2712 32.1741C96.6742 32.8181 95.8852 33.1401 94.9052 33.1401C94.1492 33.1401 93.5562 32.9951 93.1272 32.7061V35.8001ZM94.9472 27.6101C94.2002 27.6101 93.5942 27.8991 93.1272 28.4781V31.6001C93.6222 31.9271 94.1822 32.0901 94.8072 32.0901C95.4702 32.0901 95.9972 31.8801 96.3892 31.4601C96.7902 31.0311 96.9912 30.4751 96.9912 29.7941C96.9912 29.1311 96.8092 28.6041 96.4452 28.2121C96.0812 27.8111 95.5822 27.6101 94.9472 27.6101ZM100.54 32.2161C99.9242 31.5811 99.6162 30.7931 99.6162 29.8501C99.6162 28.8981 99.9242 28.1141 100.54 27.4981C101.166 26.8731 101.978 26.5601 102.976 26.5601C103.975 26.5601 104.782 26.8731 105.398 27.4981C106.024 28.1141 106.336 28.8981 106.336 29.8501C106.336 30.8021 106.024 31.5911 105.398 32.2161C104.782 32.8321 103.975 33.1401 102.976 33.1401C101.987 33.1401 101.175 32.8321 100.54 32.2161ZM101.422 28.2401C101.012 28.6511 100.806 29.1871 100.806 29.8501C100.806 30.5131 101.007 31.0491 101.408 31.4601C101.819 31.8801 102.342 32.0901 102.976 32.0901C103.611 32.0901 104.129 31.8851 104.53 31.4741C104.941 31.0541 105.146 30.5131 105.146 29.8501C105.146 29.2061 104.941 28.6691 104.53 28.2401C104.129 27.8201 103.611 27.6101 102.976 27.6101C102.342 27.6101 101.824 27.8201 101.422 28.2401ZM108.202 33.0001V26.7001C108.249 26.7001 108.314 26.7001 108.398 26.7001C108.482 26.6911 108.604 26.6861 108.762 26.6861C108.921 26.6771 109.066 26.6721 109.196 26.6721C109.887 26.6531 110.316 26.6441 110.484 26.6441C112.295 26.6441 113.2 27.1851 113.2 28.2681C113.2 28.6411 113.084 28.9631 112.85 29.2341C112.617 29.4951 112.314 29.6541 111.94 29.7101V29.7381C112.92 29.9151 113.41 30.4101 113.41 31.2221C113.41 32.4451 112.444 33.0561 110.512 33.0561C110.419 33.0561 110.008 33.0471 109.28 33.0281C109.14 33.0281 108.986 33.0231 108.818 33.0141C108.65 33.0141 108.52 33.0091 108.426 33.0001C108.333 33.0001 108.258 33.0001 108.202 33.0001ZM110.666 30.1721H109.322V32.1041C109.994 32.1321 110.424 32.1461 110.61 32.1461C111.684 32.1461 112.22 31.8101 112.22 31.1381C112.22 30.4941 111.702 30.1721 110.666 30.1721ZM110.568 27.5541C110.298 27.5541 109.882 27.5681 109.322 27.5961V29.4721H110.736C111.119 29.4721 111.427 29.3831 111.66 29.2061C111.894 29.0291 112.01 28.7911 112.01 28.4921C112.01 27.8671 111.53 27.5541 110.568 27.5541ZM117.4 33.0001H115.37V26.7001H116.49V28.5901H117.526C118.385 28.5901 119.015 28.7861 119.416 29.1781C119.818 29.5611 120.018 30.0881 120.018 30.7601C120.018 31.3951 119.808 31.9271 119.388 32.3561C118.987 32.7851 118.324 33.0001 117.4 33.0001ZM122.342 33.0001H121.222V26.7001H122.342V33.0001ZM117.316 29.6401H116.49V31.9501H117.302C117.834 31.9501 118.222 31.8571 118.464 31.6701C118.707 31.4831 118.828 31.1941 118.828 30.8021C118.828 30.0271 118.324 29.6401 117.316 29.6401ZM128.901 26.7001H130.203L127.949 29.7381L130.343 33.0001H128.971L127.123 30.4521L125.247 33.0001H123.945L126.325 29.7941L124.085 26.7001H125.457L127.165 29.0801L128.901 26.7001Z" fill="#424242"/>
<path d="M34.0371 97.9998V83.2998H42.6261V85.7148H36.6201V88.9908C37.1941 88.9068 37.8521 88.8648 38.5941 88.8648C40.1201 88.8648 41.3241 89.2638 42.2061 90.0618C43.0881 90.8598 43.5291 91.9378 43.5291 93.2958C43.5291 94.8218 43.0321 96.0048 42.0381 96.8448C41.0581 97.6708 39.6651 98.0838 37.8591 98.0838C37.5231 98.0838 36.7811 98.0698 35.6331 98.0418C35.4091 98.0418 35.1711 98.0348 34.9191 98.0208C34.6671 98.0208 34.4711 98.0138 34.3311 97.9998C34.2051 97.9998 34.1071 97.9998 34.0371 97.9998ZM38.3841 91.2798C37.8521 91.2798 37.2641 91.3218 36.6201 91.4058V95.5848C37.3061 95.6408 37.8521 95.6688 38.2581 95.6688C40.0641 95.6688 40.9671 94.9408 40.9671 93.4848C40.9671 92.7988 40.7501 92.2598 40.3161 91.8678C39.8821 91.4758 39.2381 91.2798 38.3841 91.2798ZM47.2121 96.8448C46.2741 95.9068 45.8051 94.7168 45.8051 93.2748C45.8051 91.8328 46.2741 90.6498 47.2121 89.7258C48.1501 88.7878 49.3961 88.3188 50.9501 88.3188C52.4901 88.3188 53.7291 88.7878 54.6671 89.7258C55.6191 90.6498 56.0951 91.8328 56.0951 93.2748C56.0951 94.7028 55.6191 95.8928 54.6671 96.8448C53.7151 97.7688 52.4761 98.2308 50.9501 98.2308C49.3961 98.2308 48.1501 97.7688 47.2121 96.8448ZM49.1231 91.3428C48.6331 91.8468 48.3881 92.4908 48.3881 93.2748C48.3881 94.0588 48.6261 94.7098 49.1021 95.2278C49.5921 95.7318 50.2081 95.9838 50.9501 95.9838C51.7061 95.9838 52.3221 95.7318 52.7981 95.2278C53.2881 94.7238 53.5331 94.0728 53.5331 93.2748C53.5331 92.4908 53.2881 91.8468 52.7981 91.3428C52.3081 90.8388 51.6921 90.5868 50.9501 90.5868C50.2221 90.5868 49.6131 90.8388 49.1231 91.3428ZM66.6591 97.9998H64.2441V90.9648H61.7451L61.6821 91.9728C61.5001 93.6808 61.2341 94.9828 60.8841 95.8788C60.5481 96.7748 60.1141 97.3838 59.5821 97.7058C59.0641 98.0138 58.3431 98.1748 57.4191 98.1888L57.2091 95.8368C57.5171 95.8508 57.8041 95.7668 58.0701 95.5848C58.3781 95.3608 58.6511 94.8918 58.8891 94.1778C59.1271 93.4638 59.2811 92.5678 59.3511 91.4898L59.4981 88.5498H66.6591V97.9998ZM73.0261 97.9998H69.4981V88.5498H71.9131V91.1328H73.2151C74.6291 91.1328 75.6721 91.4268 76.3441 92.0148C77.0301 92.6028 77.3731 93.4008 77.3731 94.4088C77.3731 95.4868 77.0091 96.3548 76.2811 97.0128C75.5531 97.6708 74.4681 97.9998 73.0261 97.9998ZM73.0051 93.0648H71.9131V95.8998H72.9841C74.2021 95.8998 74.8111 95.4308 74.8111 94.4928C74.8111 93.5408 74.2091 93.0648 73.0051 93.0648ZM92.0511 97.9998H79.4511V88.5498H81.8661V95.7528H84.5331V88.5498H86.9481V95.7528H89.6361V88.5498H92.0511V97.9998ZM101.704 92.0148L97.2941 97.9998H94.8791V88.5498H97.2941V94.5348L101.704 88.5498H104.119V97.9998H101.704V92.0148ZM114.378 95.3538L115.071 97.0548C114.133 97.8388 112.929 98.2308 111.459 98.2308C109.947 98.2308 108.715 97.7758 107.763 96.8658C106.839 95.9698 106.377 94.7728 106.377 93.2748C106.377 91.8748 106.832 90.6988 107.742 89.7468C108.652 88.7948 109.863 88.3188 111.375 88.3188C112.621 88.3188 113.678 88.7318 114.546 89.5578C115.414 90.3838 115.848 91.4338 115.848 92.7078C115.848 93.2678 115.799 93.7018 115.701 94.0098H108.876C108.974 94.6958 109.275 95.2348 109.779 95.6268C110.297 96.0188 110.941 96.2148 111.711 96.2148C112.761 96.2148 113.65 95.9278 114.378 95.3538ZM111.27 90.3348C109.898 90.3348 109.072 91.0208 108.792 92.3928H113.433C113.447 91.7908 113.251 91.3008 112.845 90.9228C112.453 90.5308 111.928 90.3348 111.27 90.3348ZM124.958 97.9998H122.543V88.5498H128.885V90.8178H124.958V97.9998ZM131.079 96.8448C130.141 95.9068 129.672 94.7168 129.672 93.2748C129.672 91.8328 130.141 90.6498 131.079 89.7258C132.017 88.7878 133.263 88.3188 134.817 88.3188C136.357 88.3188 137.596 88.7878 138.534 89.7258C139.486 90.6498 139.962 91.8328 139.962 93.2748C139.962 94.7028 139.486 95.8928 138.534 96.8448C137.582 97.7688 136.343 98.2308 134.817 98.2308C133.263 98.2308 132.017 97.7688 131.079 96.8448ZM132.99 91.3428C132.5 91.8468 132.255 92.4908 132.255 93.2748C132.255 94.0588 132.493 94.7098 132.969 95.2278C133.459 95.7318 134.075 95.9838 134.817 95.9838C135.573 95.9838 136.189 95.7318 136.665 95.2278C137.155 94.7238 137.4 94.0728 137.4 93.2748C137.4 92.4908 137.155 91.8468 136.665 91.3428C136.175 90.8388 135.559 90.5868 134.817 90.5868C134.089 90.5868 133.48 90.8388 132.99 91.3428ZM151.169 97.9998H148.754V94.3878H144.617V97.9998H142.202V88.5498H144.617V92.1198H148.754V88.5498H151.169V97.9998ZM159.902 88.5498H162.947L159.314 93.0438L163.388 97.9998H160.238L156.5 93.2328L159.902 88.5498ZM156.416 97.9998H154.001V88.5498H156.416V97.9998ZM171.783 92.0148L167.373 97.9998H164.958V88.5498H167.373V94.5348L171.783 88.5498H174.198V97.9998H171.783V92.0148Z" fill="#212121"/>
<path d="M83 110H42C36.4772 110 32 114.477 32 120C32 125.523 36.4772 130 42 130H83C88.5228 130 93 125.523 93 120C93 114.477 88.5228 110 83 110Z" fill="#DBEDFF"/>
<path d="M46.8096 123.08H45.5796V122.15C44.6066 122.15 43.8226 121.91 43.2296 121.43C42.6426 120.943 42.3496 120.267 42.3496 119.4C42.3496 118.54 42.6426 117.87 43.2296 117.39C43.8226 116.903 44.6066 116.657 45.5796 116.65V115.92H46.8096V116.65C47.7766 116.657 48.5566 116.907 49.1496 117.4C49.7426 117.893 50.0396 118.56 50.0396 119.4C50.0396 120.253 49.7426 120.927 49.1496 121.42C48.5626 121.893 47.7826 122.137 46.8096 122.15V123.08ZM48.7396 119.4C48.7396 118.907 48.5726 118.517 48.2396 118.23C47.9066 117.937 47.4296 117.787 46.8096 117.78V121.02C48.0966 121.013 48.7396 120.473 48.7396 119.4ZM43.6496 119.4C43.6496 119.92 43.8166 120.32 44.1496 120.6C44.4826 120.873 44.9596 121.013 45.5796 121.02V117.78C44.9666 117.787 44.4896 117.937 44.1496 118.23C43.8166 118.517 43.6496 118.907 43.6496 119.4ZM56.5086 118.03L52.8386 123H51.7586V116H52.9886V120.98L56.6586 116H57.7386V123H56.5086V118.03ZM65.4286 123H64.2086V117.15H62.1686L62.0286 118.47C61.9486 119.27 61.8446 119.953 61.7186 120.52C61.5916 121.087 61.4516 121.54 61.2986 121.88C61.1446 122.22 60.9616 122.48 60.7486 122.66C60.5416 122.84 60.3246 122.953 60.0986 123C59.8786 123.04 59.6216 123.04 59.3286 123L59.3586 121.78C59.5046 121.8 59.6246 121.793 59.7186 121.76C59.8116 121.727 59.9216 121.633 60.0486 121.48C60.1886 121.307 60.3016 121.077 60.3886 120.79C60.6286 120.077 60.8046 118.947 60.9186 117.4L61.0186 116H65.4286V123ZM69.6936 119.5C69.5736 119.5 69.3396 119.517 68.9936 119.55V121.84C69.4336 121.86 69.6596 121.87 69.6736 121.87C70.6466 121.87 71.1336 121.46 71.1336 120.64C71.1336 120.267 71.0066 119.983 70.7536 119.79C70.4996 119.597 70.1466 119.5 69.6936 119.5ZM67.7636 116H68.9936V118.4C69.2796 118.367 69.5466 118.35 69.7936 118.35C70.6596 118.35 71.3166 118.547 71.7636 118.94C72.2096 119.333 72.4336 119.89 72.4336 120.61C72.4336 121.357 72.1766 121.947 71.6636 122.38C71.1566 122.807 70.4466 123.02 69.5336 123.02C69.1466 123.02 68.8166 123.017 68.5436 123.01C68.2696 123.003 68.0096 123 67.7636 123V116ZM75.4876 123H74.2576V116H75.4976L77.8876 119.27L80.1676 116H81.3276V123H80.1076V117.94L77.8976 121.05H77.7176L75.4876 117.97V123Z" fill="#70A8DD"/>
<path d="M0 147.5H1544" stroke="#E0E0E0"/>
</g>
<g filter="url(#filter2_d_7742_254666)">
<path fill-rule="evenodd" clip-rule="evenodd" d="M232.982 279L232.095 277.645C231.49 276.72 230.201 276.383 229.214 276.89L229.444 276.772C229.199 276.898 229.082 277.211 229.183 277.472L230.41 280.647C230.604 281.151 231.101 281.863 231.513 282.22C231.513 282.22 233.982 284.264 233.982 285.03V286H237.982H239.076H239.982H240.982V285.03C240.982 284.264 242.491 281.851 242.491 281.851C242.769 281.382 243 280.555 243 280.007V275.972C242.982 275.078 242.223 274.355 241.286 274.355C240.817 274.355 240.437 274.717 240.437 275.163V275.487C240.437 274.593 239.678 273.869 238.741 273.869C238.272 273.869 237.893 274.231 237.893 274.678V275.001C237.893 274.108 237.133 273.384 236.196 273.384C235.728 273.384 235.348 273.746 235.348 274.193V274.516C235.348 274.373 235.333 274.258 235.303 274.168L235.044 270.001C235.009 269.438 234.534 269 233.982 269C233.426 269 232.982 269.448 232.982 270V274V279Z" fill="white"/>
<path d="M228.954 276.383C228.586 276.698 228.445 277.229 228.623 277.688L229.85 280.864C230.08 281.457 230.633 282.251 231.12 282.673L231.125 282.678L231.13 282.682L228.954 276.383ZM228.954 276.383L228.94 276.356M228.954 276.383L228.94 276.356M228.94 276.356L229.17 276.238L228.94 276.356ZM232.382 277.031C231.605 276.133 230.283 275.809 229.175 276.249L231.131 282.683L231.131 282.683L231.132 282.683L231.136 282.687L231.155 282.703C231.173 282.718 231.198 282.739 231.231 282.767C231.296 282.822 231.39 282.903 231.503 283.002C231.729 283.201 232.029 283.473 232.327 283.766C232.628 284.061 232.914 284.367 233.122 284.635C233.226 284.769 233.299 284.881 233.344 284.967C233.369 285.015 233.379 285.042 233.382 285.053V286V286.6H233.982H237.982H239.076H239.982H240.982H241.582V286V285.03C241.582 285.03 241.582 285.026 241.583 285.017C241.584 285.007 241.586 284.994 241.589 284.977C241.595 284.943 241.606 284.899 241.622 284.844C241.655 284.733 241.705 284.599 241.77 284.444C241.901 284.135 242.08 283.78 242.264 283.438C242.448 283.098 242.632 282.78 242.771 282.546C242.84 282.429 242.898 282.334 242.938 282.269L242.984 282.194L242.996 282.175L242.999 282.17L243 282.169L243 282.169L243 282.169L243 282.169L243.003 282.163L243.007 282.156C243.181 281.862 243.326 281.485 243.428 281.119C243.529 280.753 243.6 280.353 243.6 280.007V275.972H243.6L243.6 275.96C243.575 274.72 242.53 273.755 241.286 273.755C240.982 273.755 240.693 273.848 240.455 274.01C240.03 273.552 239.413 273.269 238.741 273.269C238.437 273.269 238.149 273.363 237.91 273.525C237.485 273.067 236.868 272.784 236.196 272.784C236.068 272.784 235.942 272.801 235.821 272.832L235.643 269.964C235.588 269.082 234.849 268.4 233.982 268.4C233.093 268.4 232.382 269.118 232.382 270V274V277.031Z" stroke="#757575" stroke-width="1.2"/>
</g>
</g>
</g>
<defs>
<filter id="filter0_ddd_7742_254666" x="-396" y="-149" width="1960" height="1120" filterUnits="userSpaceOnUse" color-interpolation-filters="sRGB">
<feFlood flood-opacity="0" result="BackgroundImageFix"/>
<feColorMatrix in="SourceAlpha" type="matrix" values="0 0 0 0 0 0 0 0 0 0 0 0 0 0 0 0 0 0 127 0" result="hardAlpha"/>
<feOffset/>
<feGaussianBlur stdDeviation="0.5"/>
<feColorMatrix type="matrix" values="0 0 0 0 0 0 0 0 0 0 0 0 0 0 0 0 0 0 0.04 0"/>
<feBlend mode="normal" in2="BackgroundImageFix" result="effect1_dropShadow_7742_254666"/>
<feColorMatrix in="SourceAlpha" type="matrix" values="0 0 0 0 0 0 0 0 0 0 0 0 0 0 0 0 0 0 127 0" result="hardAlpha"/>
<feOffset dy="2"/>
<feGaussianBlur stdDeviation="3"/>
<feColorMatrix type="matrix" values="0 0 0 0 0 0 0 0 0 0 0 0 0 0 0 0 0 0 0.04 0"/>
<feBlend mode="normal" in2="effect1_dropShadow_7742_254666" result="effect2_dropShadow_7742_254666"/>
<feColorMatrix in="SourceAlpha" type="matrix" values="0 0 0 0 0 0 0 0 0 0 0 0 0 0 0 0 0 0 127 0" result="hardAlpha"/>
<feOffset dy="10"/>
<feGaussianBlur stdDeviation="10"/>
<feColorMatrix type="matrix" values="0 0 0 0 0 0 0 0 0 0 0 0 0 0 0 0 0 0 0.04 0"/>
<feBlend mode="normal" in2="effect2_dropShadow_7742_254666" result="effect3_dropShadow_7742_254666"/>
<feBlend mode="normal" in="SourceGraphic" in2="effect3_dropShadow_7742_254666" result="shape"/>
</filter>
<filter id="filter1_d_7742_254666" x="-9" y="1" width="1560" height="1001" filterUnits="userSpaceOnUse" color-interpolation-filters="sRGB">
<feFlood flood-opacity="0" result="BackgroundImageFix"/>
<feColorMatrix in="SourceAlpha" type="matrix" values="0 0 0 0 0 0 0 0 0 0 0 0 0 0 0 0 0 0 127 0" result="hardAlpha"/>
<feOffset dx="-1" dy="4"/>
<feGaussianBlur stdDeviation="4"/>
<feColorMatrix type="matrix" values="0 0 0 0 0 0 0 0 0 0 0 0 0 0 0 0 0 0 0.1 0"/>
<feBlend mode="normal" in2="BackgroundImageFix" result="effect1_dropShadow_7742_254666"/>
<feBlend mode="normal" in="SourceGraphic" in2="effect1_dropShadow_7742_254666" result="shape"/>
</filter>
<filter id="filter2_d_7742_254666" x="224.947" y="265.8" width="22.252" height="25.4004" filterUnits="userSpaceOnUse" color-interpolation-filters="sRGB">
<feFlood flood-opacity="0" result="BackgroundImageFix"/>
<feColorMatrix in="SourceAlpha" type="matrix" values="0 0 0 0 0 0 0 0 0 0 0 0 0 0 0 0 0 0 127 0" result="hardAlpha"/>
<feOffset dy="1"/>
<feGaussianBlur stdDeviation="1.5"/>
<feColorMatrix type="matrix" values="0 0 0 0 0 0 0 0 0 0 0 0 0 0 0 0 0 0 0.2 0"/>
<feBlend mode="normal" in2="BackgroundImageFix" result="effect1_dropShadow_7742_254666"/>
<feBlend mode="normal" in="SourceGraphic" in2="effect1_dropShadow_7742_254666" result="shape"/>
</filter>
<clipPath id="clip0_7742_254666">
<rect width="1920" height="1080" fill="white" transform="translate(-376 -139)"/>
</clipPath>
</defs>
</svg>
