<svg width="504" height="756" viewBox="0 0 504 756" fill="none" xmlns="http://www.w3.org/2000/svg">
<g filter="url(#filter0_ddd_3053_166373)">
<rect x="8" y="183" width="296" height="64" rx="8" fill="white"/>
<rect x="8.5" y="183.5" width="295" height="63" rx="7.5" stroke="#E7E7E7"/>
</g>
<text fill="#212121" xml:space="preserve" style="white-space: pre" font-family="Circe" font-size="15" letter-spacing="0.5px"><tspan x="64" y="210.745">&#x41d;&#x430; &#x442;&#x440;&#x43e;&#x43f;&#x435; &#x432;&#x43e;&#x439;&#x43d;&#x44b;</tspan></text>
<text fill="#9E9E9E" xml:space="preserve" style="white-space: pre" font-family="Circe" font-size="13" letter-spacing="0.4px"><tspan x="64" y="227.679">&#x424;&#x438;&#x43b;&#x44c;&#x43c;</tspan></text>
<path d="M282 210L287 215L282 220" stroke="#757575" stroke-width="1.5" stroke-linecap="round" stroke-linejoin="round"/>
<rect x="20" y="199" width="32" height="32" rx="2" fill="#F3F9FE"/>
<path fill-rule="evenodd" clip-rule="evenodd" d="M43 207.5H29C27.6193 207.5 26.5 208.619 26.5 210V220C26.5 221.381 27.6193 222.5 29 222.5H43C44.3807 222.5 45.5 221.381 45.5 220V210C45.5 208.619 44.3807 207.5 43 207.5ZM29 206C26.7909 206 25 207.791 25 210V220C25 222.209 26.7909 224 29 224H43C45.2091 224 47 222.209 47 220V210C47 207.791 45.2091 206 43 206H29ZM28 210.25C28 209.836 28.3358 209.5 28.75 209.5H30.25C30.6642 209.5 31 209.836 31 210.25C31 210.664 30.6642 211 30.25 211H28.75C28.3358 211 28 210.664 28 210.25ZM33.0801 209.5C32.6659 209.5 32.3301 209.836 32.3301 210.25C32.3301 210.664 32.6659 211 33.0801 211H34.5801C34.9943 211 35.3301 210.664 35.3301 210.25C35.3301 209.836 34.9943 209.5 34.5801 209.5H33.0801ZM36.6602 210.25C36.6602 209.836 36.9959 209.5 37.4102 209.5H38.9102C39.3244 209.5 39.6602 209.836 39.6602 210.25C39.6602 210.664 39.3244 211 38.9102 211H37.4102C36.9959 211 36.6602 210.664 36.6602 210.25ZM41.7402 209.5C41.326 209.5 40.9902 209.836 40.9902 210.25C40.9902 210.664 41.326 211 41.7402 211H43.2402C43.6544 211 43.9902 210.664 43.9902 210.25C43.9902 209.836 43.6544 209.5 43.2402 209.5H41.7402ZM28 220.25C28 219.836 28.3358 219.5 28.75 219.5H30.25C30.6642 219.5 31 219.836 31 220.25C31 220.664 30.6642 221 30.25 221H28.75C28.3358 221 28 220.664 28 220.25ZM33.0801 219.5C32.6659 219.5 32.3301 219.836 32.3301 220.25C32.3301 220.664 32.6659 221 33.0801 221H34.5801C34.9943 221 35.3301 220.664 35.3301 220.25C35.3301 219.836 34.9943 219.5 34.5801 219.5H33.0801ZM36.6602 220.25C36.6602 219.836 36.9959 219.5 37.4102 219.5H38.9102C39.3244 219.5 39.6602 219.836 39.6602 220.25C39.6602 220.664 39.3244 221 38.9102 221H37.4102C36.9959 221 36.6602 220.664 36.6602 220.25ZM41.7402 219.5C41.326 219.5 40.9902 219.836 40.9902 220.25C40.9902 220.664 41.326 221 41.7402 221H43.2402C43.6544 221 43.9902 220.664 43.9902 220.25C43.9902 219.836 43.6544 219.5 43.2402 219.5H41.7402Z" fill="#70A8DD"/>
<g filter="url(#filter1_ddd_3053_166373)">
<rect x="8" y="335" width="296" height="64" rx="8" fill="white"/>
<rect x="8.5" y="335.5" width="295" height="63" rx="7.5" stroke="#E7E7E7"/>
</g>
<text fill="#212121" xml:space="preserve" style="white-space: pre" font-family="Circe" font-size="15" letter-spacing="0.5px"><tspan x="64" y="362.745">&#x41f;&#x440;&#x435;&#x43f;&#x43e;&#x434; &#x43d;&#x430; &#x447;&#x430;&#x441;</tspan></text>
<text fill="#9E9E9E" xml:space="preserve" style="white-space: pre" font-family="Circe" font-size="13" letter-spacing="0.4px"><tspan x="64" y="379.679">&#x424;&#x438;&#x43b;&#x44c;&#x43c;</tspan></text>
<path d="M282 362L287 367L282 372" stroke="#757575" stroke-width="1.5" stroke-linecap="round" stroke-linejoin="round"/>
<rect x="20" y="351" width="32" height="32" rx="2" fill="#F3F9FE"/>
<path fill-rule="evenodd" clip-rule="evenodd" d="M43 359.5H29C27.6193 359.5 26.5 360.619 26.5 362V372C26.5 373.381 27.6193 374.5 29 374.5H43C44.3807 374.5 45.5 373.381 45.5 372V362C45.5 360.619 44.3807 359.5 43 359.5ZM29 358C26.7909 358 25 359.791 25 362V372C25 374.209 26.7909 376 29 376H43C45.2091 376 47 374.209 47 372V362C47 359.791 45.2091 358 43 358H29ZM28 362.25C28 361.836 28.3358 361.5 28.75 361.5H30.25C30.6642 361.5 31 361.836 31 362.25C31 362.664 30.6642 363 30.25 363H28.75C28.3358 363 28 362.664 28 362.25ZM33.0801 361.5C32.6659 361.5 32.3301 361.836 32.3301 362.25C32.3301 362.664 32.6659 363 33.0801 363H34.5801C34.9943 363 35.3301 362.664 35.3301 362.25C35.3301 361.836 34.9943 361.5 34.5801 361.5H33.0801ZM36.6602 362.25C36.6602 361.836 36.9959 361.5 37.4102 361.5H38.9102C39.3244 361.5 39.6602 361.836 39.6602 362.25C39.6602 362.664 39.3244 363 38.9102 363H37.4102C36.9959 363 36.6602 362.664 36.6602 362.25ZM41.7402 361.5C41.326 361.5 40.9902 361.836 40.9902 362.25C40.9902 362.664 41.326 363 41.7402 363H43.2402C43.6544 363 43.9902 362.664 43.9902 362.25C43.9902 361.836 43.6544 361.5 43.2402 361.5H41.7402ZM28 372.25C28 371.836 28.3358 371.5 28.75 371.5H30.25C30.6642 371.5 31 371.836 31 372.25C31 372.664 30.6642 373 30.25 373H28.75C28.3358 373 28 372.664 28 372.25ZM33.0801 371.5C32.6659 371.5 32.3301 371.836 32.3301 372.25C32.3301 372.664 32.6659 373 33.0801 373H34.5801C34.9943 373 35.3301 372.664 35.3301 372.25C35.3301 371.836 34.9943 371.5 34.5801 371.5H33.0801ZM36.6602 372.25C36.6602 371.836 36.9959 371.5 37.4102 371.5H38.9102C39.3244 371.5 39.6602 371.836 39.6602 372.25C39.6602 372.664 39.3244 373 38.9102 373H37.4102C36.9959 373 36.6602 372.664 36.6602 372.25ZM41.7402 371.5C41.326 371.5 40.9902 371.836 40.9902 372.25C40.9902 372.664 41.326 373 41.7402 373H43.2402C43.6544 373 43.9902 372.664 43.9902 372.25C43.9902 371.836 43.6544 371.5 43.2402 371.5H41.7402Z" fill="#70A8DD"/>
<g filter="url(#filter2_ddd_3053_166373)">
<rect x="8" y="259" width="296" height="64" rx="8" fill="#F3F9FE"/>
<rect x="8.5" y="259.5" width="295" height="63" rx="7.5" stroke="#70A8DD"/>
</g>
<text fill="#212121" xml:space="preserve" style="white-space: pre" font-family="Circe" font-size="15" letter-spacing="0.5px"><tspan x="64" y="286.745">&#x411;&#x43e;&#x43b;&#x44c;&#x448;&#x438;&#x435; &#x433;&#x43e;&#x43d;&#x43a;&#x438;</tspan></text>
<text fill="#9E9E9E" xml:space="preserve" style="white-space: pre" font-family="Circe" font-size="13" letter-spacing="0.4px"><tspan x="64" y="303.679">&#x424;&#x438;&#x43b;&#x44c;&#x43c;</tspan></text>
<path d="M282 286L287 291L282 296" stroke="#1991EB" stroke-width="1.5" stroke-linecap="round" stroke-linejoin="round"/>
<rect x="20" y="275" width="32" height="32" rx="2" fill="#E8F5FF"/>
<path fill-rule="evenodd" clip-rule="evenodd" d="M43 283.5H29C27.6193 283.5 26.5 284.619 26.5 286V296C26.5 297.381 27.6193 298.5 29 298.5H43C44.3807 298.5 45.5 297.381 45.5 296V286C45.5 284.619 44.3807 283.5 43 283.5ZM29 282C26.7909 282 25 283.791 25 286V296C25 298.209 26.7909 300 29 300H43C45.2091 300 47 298.209 47 296V286C47 283.791 45.2091 282 43 282H29ZM28 286.25C28 285.836 28.3358 285.5 28.75 285.5H30.25C30.6642 285.5 31 285.836 31 286.25C31 286.664 30.6642 287 30.25 287H28.75C28.3358 287 28 286.664 28 286.25ZM33.0801 285.5C32.6659 285.5 32.3301 285.836 32.3301 286.25C32.3301 286.664 32.6659 287 33.0801 287H34.5801C34.9943 287 35.3301 286.664 35.3301 286.25C35.3301 285.836 34.9943 285.5 34.5801 285.5H33.0801ZM36.6602 286.25C36.6602 285.836 36.9959 285.5 37.4102 285.5H38.9102C39.3244 285.5 39.6602 285.836 39.6602 286.25C39.6602 286.664 39.3244 287 38.9102 287H37.4102C36.9959 287 36.6602 286.664 36.6602 286.25ZM41.7402 285.5C41.326 285.5 40.9902 285.836 40.9902 286.25C40.9902 286.664 41.326 287 41.7402 287H43.2402C43.6544 287 43.9902 286.664 43.9902 286.25C43.9902 285.836 43.6544 285.5 43.2402 285.5H41.7402ZM28 296.25C28 295.836 28.3358 295.5 28.75 295.5H30.25C30.6642 295.5 31 295.836 31 296.25C31 296.664 30.6642 297 30.25 297H28.75C28.3358 297 28 296.664 28 296.25ZM33.0801 295.5C32.6659 295.5 32.3301 295.836 32.3301 296.25C32.3301 296.664 32.6659 297 33.0801 297H34.5801C34.9943 297 35.3301 296.664 35.3301 296.25C35.3301 295.836 34.9943 295.5 34.5801 295.5H33.0801ZM36.6602 296.25C36.6602 295.836 36.9959 295.5 37.4102 295.5H38.9102C39.3244 295.5 39.6602 295.836 39.6602 296.25C39.6602 296.664 39.3244 297 38.9102 297H37.4102C36.9959 297 36.6602 296.664 36.6602 296.25ZM41.7402 295.5C41.326 295.5 40.9902 295.836 40.9902 296.25C40.9902 296.664 41.326 297 41.7402 297H43.2402C43.6544 297 43.9902 296.664 43.9902 296.25C43.9902 295.836 43.6544 295.5 43.2402 295.5H41.7402Z" fill="#70A8DD"/>
<line x1="8" y1="94" x2="304" y2="94" stroke="#E0E0E0" stroke-width="2"/>
<text fill="#1991EB" xml:space="preserve" style="white-space: pre" font-family="Circe" font-size="12" font-weight="bold" letter-spacing="0.4px"><tspan x="8" y="79.396">&#x410;&#x41a;&#x422;&#x418;&#x412;&#x41d;&#x42b;&#x415;</tspan></text>
<text fill="#9E9E9E" xml:space="preserve" style="white-space: pre" font-family="Circe" font-size="12" font-weight="bold" letter-spacing="0.4px"><tspan x="90" y="79.396">&#x410;&#x420;&#x425;&#x418;&#x412;</tspan></text>
<line x1="8" y1="94" x2="78" y2="94" stroke="#1991EB" stroke-width="2"/>
<path d="M288 23.5C292.142 23.5 295.5 20.1421 295.5 16C295.5 11.8579 292.142 8.5 288 8.5C283.858 8.5 280.5 11.8579 280.5 16C280.5 20.1421 283.858 23.5 288 23.5Z" stroke="#9E9E9E" stroke-width="1.5" stroke-linecap="round" stroke-linejoin="round"/>
<path d="M288 17.875V17.25C288.494 17.25 288.978 17.1034 289.389 16.8287C289.8 16.554 290.12 16.1635 290.31 15.7067C290.499 15.2499 290.548 14.7472 290.452 14.2623C290.356 13.7773 290.117 13.3319 289.768 12.9822C289.418 12.6326 288.973 12.3945 288.488 12.298C288.003 12.2016 287.5 12.2511 287.043 12.4403C286.586 12.6295 286.196 12.95 285.921 13.3611C285.647 13.7722 285.5 14.2555 285.5 14.75" stroke="#9E9E9E" stroke-width="1.5" stroke-linecap="round" stroke-linejoin="round"/>
<path d="M288 21.3125C288.518 21.3125 288.938 20.8928 288.938 20.375C288.938 19.8572 288.518 19.4375 288 19.4375C287.482 19.4375 287.062 19.8572 287.062 20.375C287.062 20.8928 287.482 21.3125 288 21.3125Z" fill="#9E9E9E"/>
<rect x="272.5" y="0.5" width="31" height="31" rx="3.5" stroke="#E0E0E0"/>
<rect x="8" y="119" width="250" height="40" rx="8" fill="#1991EB"/>
<text fill="white" xml:space="preserve" style="white-space: pre" font-family="Circe" font-size="13" font-weight="bold" letter-spacing="0.25px"><tspan x="74.1938" y="143.179">&#x421;&#x41e;&#x417;&#x414;&#x410;&#x422;&#x42c; &#x41f;&#x420;&#x41e;&#x415;&#x41a;&#x422;</tspan></text>
<rect x="264" y="119" width="40" height="40" rx="8" fill="#A0CFFF"/>
<path d="M284 141.5C285.105 141.5 286 140.605 286 139.5C286 138.395 285.105 137.5 284 137.5C282.895 137.5 282 138.395 282 139.5C282 140.605 282.895 141.5 284 141.5Z" fill="#127FD1"/>
<path d="M278 141.5C279.105 141.5 280 140.605 280 139.5C280 138.395 279.105 137.5 278 137.5C276.895 137.5 276 138.395 276 139.5C276 140.605 276.895 141.5 278 141.5Z" fill="#127FD1"/>
<path d="M290 141.5C291.105 141.5 292 140.605 292 139.5C292 138.395 291.105 137.5 290 137.5C288.895 137.5 288 138.395 288 139.5C288 140.605 288.895 141.5 290 141.5Z" fill="#127FD1"/>
<text fill="#212121" xml:space="preserve" style="white-space: pre" font-family="Circe" font-size="21" letter-spacing="0.15px"><tspan x="8" y="21.443">&#x421;&#x43f;&#x438;&#x441;&#x43e;&#x43a; &#x43f;&#x440;&#x43e;&#x435;&#x43a;&#x442;&#x43e;&#x432;</tspan></text>
<g filter="url(#filter3_dddd_3053_166373)">
<path d="M265 167C265 164.791 266.791 163 269 163H467C469.209 163 471 164.791 471 167V291C471 293.209 469.209 295 467 295H269C266.791 295 265 293.209 265 291V167Z" fill="white"/>
<path d="M269 163.5H467V162.5H269V163.5ZM470.5 167V291H471.5V167H470.5ZM467 294.5H269V295.5H467V294.5ZM265.5 291V167H264.5V291H265.5ZM269 294.5C267.067 294.5 265.5 292.933 265.5 291H264.5C264.5 293.485 266.515 295.5 269 295.5V294.5ZM470.5 291C470.5 292.933 468.933 294.5 467 294.5V295.5C469.485 295.5 471.5 293.485 471.5 291H470.5ZM467 163.5C468.933 163.5 470.5 165.067 470.5 167H471.5C471.5 164.515 469.485 162.5 467 162.5V163.5ZM269 162.5C266.515 162.5 264.5 164.515 264.5 167H265.5C265.5 165.067 267.067 163.5 269 163.5V162.5Z" fill="#E7E7E7"/>
</g>
<path d="M289.75 198L287.25 200.5L284.75 198" stroke="#8E9AA6" stroke-width="1.5" stroke-linecap="round" stroke-linejoin="round"/>
<path d="M287.25 185.5V200.5" stroke="#8E9AA6" stroke-width="1.5" stroke-linecap="round" stroke-linejoin="round"/>
<path d="M292.25 188L294.75 185.5L297.25 188" stroke="#8E9AA6" stroke-width="1.5" stroke-linecap="round" stroke-linejoin="round"/>
<path d="M294.75 200.5V185.5" stroke="#8E9AA6" stroke-width="1.5" stroke-linecap="round" stroke-linejoin="round"/>
<text fill="#637380" xml:space="preserve" style="white-space: pre" font-family="Circe" font-size="15" letter-spacing="0px"><tspan x="313" y="197.745">&#x418;&#x437;&#x43c;&#x435;&#x43d;&#x438;&#x442;&#x44c; &#x43f;&#x43e;&#x440;&#x44f;&#x434;&#x43e;&#x43a;</tspan></text>
<path d="M297.875 259.375L284.125 259.375" stroke="#8E9AA6" stroke-width="1.5" stroke-linecap="round" stroke-linejoin="round"/>
<path d="M289.125 263.125V268.125" stroke="#8E9AA6" stroke-width="1.5" stroke-linecap="round" stroke-linejoin="round"/>
<path d="M292.875 263.125V268.125" stroke="#8E9AA6" stroke-width="1.5" stroke-linecap="round" stroke-linejoin="round"/>
<path d="M287.875 256.875H294.125" stroke="#8E9AA6" stroke-width="1.5" stroke-linecap="round" stroke-linejoin="round"/>
<path d="M296.625 259.375V271.25C296.625 271.416 296.559 271.575 296.442 271.692C296.325 271.809 296.166 271.875 296 271.875H286C285.834 271.875 285.675 271.809 285.558 271.692C285.441 271.575 285.375 271.416 285.375 271.25V259.375" stroke="#8E9AA6" stroke-width="1.5" stroke-linecap="round" stroke-linejoin="round"/>
<text fill="#637380" xml:space="preserve" style="white-space: pre" font-family="Circe" font-size="15" letter-spacing="0px"><tspan x="313" y="269.745">&#x423;&#x434;&#x430;&#x43b;&#x438;&#x442;&#x44c;</tspan></text>
<path d="M288.5 235.875H284.75C284.584 235.875 284.425 235.809 284.308 235.692C284.191 235.575 284.125 235.416 284.125 235.25V231.759C284.125 231.677 284.141 231.595 284.173 231.52C284.204 231.444 284.25 231.375 284.308 231.317L293.683 221.942C293.8 221.825 293.959 221.759 294.125 221.759C294.291 221.759 294.45 221.825 294.567 221.942L298.058 225.433C298.175 225.55 298.241 225.709 298.241 225.875C298.241 226.041 298.175 226.2 298.058 226.317L288.5 235.875Z" stroke="#8E9AA6" stroke-width="1.5" stroke-linecap="round" stroke-linejoin="round"/>
<path d="M291.625 224L296 228.375" stroke="#8E9AA6" stroke-width="1.5" stroke-linecap="round" stroke-linejoin="round"/>
<text fill="#637380" xml:space="preserve" style="white-space: pre" font-family="Circe" font-size="15" letter-spacing="0px"><tspan x="313" y="233.745">&#x41f;&#x435;&#x440;&#x435;&#x438;&#x43c;&#x435;&#x43d;&#x43e;&#x432;&#x430;&#x442;&#x44c;</tspan></text>
<g filter="url(#filter4_d_3053_166373)">
<path fill-rule="evenodd" clip-rule="evenodd" d="M294.982 163L294.095 161.645C293.49 160.72 292.201 160.383 291.214 160.89L291.444 160.772C291.199 160.898 291.082 161.211 291.183 161.472L292.41 164.647C292.604 165.151 293.101 165.863 293.513 166.22C293.513 166.22 295.982 168.264 295.982 169.03V170H299.982H301.076H301.982H302.982V169.03C302.982 168.264 304.491 165.851 304.491 165.851C304.769 165.382 305 164.555 305 164.007V159.972C304.982 159.078 304.223 158.355 303.286 158.355C302.817 158.355 302.437 158.717 302.437 159.163V159.487C302.437 158.593 301.678 157.869 300.741 157.869C300.272 157.869 299.893 158.231 299.893 158.678V159.001C299.893 158.108 299.133 157.384 298.196 157.384C297.728 157.384 297.348 157.746 297.348 158.193V158.516C297.348 158.373 297.333 158.258 297.303 158.168L297.044 154.001C297.009 153.438 296.534 153 295.982 153C295.426 153 294.982 153.448 294.982 154V158V163Z" fill="white"/>
<path d="M290.954 160.383C290.586 160.698 290.445 161.229 290.623 161.688L291.85 164.864C292.08 165.457 292.633 166.251 293.12 166.673L293.125 166.678L293.13 166.682L290.954 160.383ZM290.954 160.383L290.94 160.356M290.954 160.383L290.94 160.356M290.94 160.356L291.17 160.238L290.94 160.356ZM294.382 161.031C293.605 160.133 292.283 159.809 291.175 160.249L293.131 166.683L293.131 166.683L293.132 166.683L293.136 166.687L293.155 166.703C293.173 166.718 293.198 166.739 293.231 166.767C293.296 166.822 293.39 166.903 293.503 167.002C293.729 167.201 294.029 167.473 294.327 167.766C294.628 168.061 294.914 168.367 295.122 168.635C295.226 168.769 295.299 168.881 295.344 168.967C295.369 169.015 295.379 169.042 295.382 169.053V170V170.6H295.982H299.982H301.076H301.982H302.982H303.582V170V169.03C303.582 169.03 303.582 169.026 303.583 169.017C303.584 169.007 303.586 168.994 303.589 168.977C303.595 168.943 303.606 168.899 303.622 168.844C303.655 168.733 303.705 168.599 303.77 168.444C303.901 168.135 304.08 167.78 304.264 167.438C304.448 167.098 304.632 166.78 304.771 166.546C304.84 166.429 304.898 166.334 304.938 166.269L304.984 166.194L304.996 166.175L304.999 166.17L305 166.169L305 166.169L305 166.169L305 166.169L305.003 166.163L305.007 166.156C305.181 165.862 305.326 165.485 305.428 165.119C305.529 164.753 305.6 164.353 305.6 164.007V159.972H305.6L305.6 159.96C305.575 158.72 304.53 157.755 303.286 157.755C302.982 157.755 302.693 157.848 302.455 158.01C302.03 157.552 301.413 157.269 300.741 157.269C300.437 157.269 300.149 157.363 299.91 157.525C299.485 157.067 298.868 156.784 298.196 156.784C298.068 156.784 297.942 156.801 297.821 156.832L297.643 153.964C297.588 153.082 296.849 152.4 295.982 152.4C295.093 152.4 294.382 153.118 294.382 154V158V161.031Z" stroke="#363B3E" stroke-width="1.2"/>
</g>
<defs>
<filter id="filter0_ddd_3053_166373" x="0" y="179" width="312" height="80" filterUnits="userSpaceOnUse" color-interpolation-filters="sRGB">
<feFlood flood-opacity="0" result="BackgroundImageFix"/>
<feColorMatrix in="SourceAlpha" type="matrix" values="0 0 0 0 0 0 0 0 0 0 0 0 0 0 0 0 0 0 127 0" result="hardAlpha"/>
<feOffset/>
<feGaussianBlur stdDeviation="0.5"/>
<feColorMatrix type="matrix" values="0 0 0 0 0 0 0 0 0 0 0 0 0 0 0 0 0 0 0.04 0"/>
<feBlend mode="normal" in2="BackgroundImageFix" result="effect1_dropShadow_3053_166373"/>
<feColorMatrix in="SourceAlpha" type="matrix" values="0 0 0 0 0 0 0 0 0 0 0 0 0 0 0 0 0 0 127 0" result="hardAlpha"/>
<feOffset/>
<feGaussianBlur stdDeviation="1"/>
<feColorMatrix type="matrix" values="0 0 0 0 0 0 0 0 0 0 0 0 0 0 0 0 0 0 0.06 0"/>
<feBlend mode="normal" in2="effect1_dropShadow_3053_166373" result="effect2_dropShadow_3053_166373"/>
<feColorMatrix in="SourceAlpha" type="matrix" values="0 0 0 0 0 0 0 0 0 0 0 0 0 0 0 0 0 0 127 0" result="hardAlpha"/>
<feOffset dy="4"/>
<feGaussianBlur stdDeviation="4"/>
<feColorMatrix type="matrix" values="0 0 0 0 0 0 0 0 0 0 0 0 0 0 0 0 0 0 0.04 0"/>
<feBlend mode="normal" in2="effect2_dropShadow_3053_166373" result="effect3_dropShadow_3053_166373"/>
<feBlend mode="normal" in="SourceGraphic" in2="effect3_dropShadow_3053_166373" result="shape"/>
</filter>
<filter id="filter1_ddd_3053_166373" x="0" y="331" width="312" height="80" filterUnits="userSpaceOnUse" color-interpolation-filters="sRGB">
<feFlood flood-opacity="0" result="BackgroundImageFix"/>
<feColorMatrix in="SourceAlpha" type="matrix" values="0 0 0 0 0 0 0 0 0 0 0 0 0 0 0 0 0 0 127 0" result="hardAlpha"/>
<feOffset/>
<feGaussianBlur stdDeviation="0.5"/>
<feColorMatrix type="matrix" values="0 0 0 0 0 0 0 0 0 0 0 0 0 0 0 0 0 0 0.04 0"/>
<feBlend mode="normal" in2="BackgroundImageFix" result="effect1_dropShadow_3053_166373"/>
<feColorMatrix in="SourceAlpha" type="matrix" values="0 0 0 0 0 0 0 0 0 0 0 0 0 0 0 0 0 0 127 0" result="hardAlpha"/>
<feOffset/>
<feGaussianBlur stdDeviation="1"/>
<feColorMatrix type="matrix" values="0 0 0 0 0 0 0 0 0 0 0 0 0 0 0 0 0 0 0.06 0"/>
<feBlend mode="normal" in2="effect1_dropShadow_3053_166373" result="effect2_dropShadow_3053_166373"/>
<feColorMatrix in="SourceAlpha" type="matrix" values="0 0 0 0 0 0 0 0 0 0 0 0 0 0 0 0 0 0 127 0" result="hardAlpha"/>
<feOffset dy="4"/>
<feGaussianBlur stdDeviation="4"/>
<feColorMatrix type="matrix" values="0 0 0 0 0 0 0 0 0 0 0 0 0 0 0 0 0 0 0.04 0"/>
<feBlend mode="normal" in2="effect2_dropShadow_3053_166373" result="effect3_dropShadow_3053_166373"/>
<feBlend mode="normal" in="SourceGraphic" in2="effect3_dropShadow_3053_166373" result="shape"/>
</filter>
<filter id="filter2_ddd_3053_166373" x="0" y="255" width="312" height="80" filterUnits="userSpaceOnUse" color-interpolation-filters="sRGB">
<feFlood flood-opacity="0" result="BackgroundImageFix"/>
<feColorMatrix in="SourceAlpha" type="matrix" values="0 0 0 0 0 0 0 0 0 0 0 0 0 0 0 0 0 0 127 0" result="hardAlpha"/>
<feOffset/>
<feGaussianBlur stdDeviation="0.5"/>
<feColorMatrix type="matrix" values="0 0 0 0 0 0 0 0 0 0 0 0 0 0 0 0 0 0 0.04 0"/>
<feBlend mode="normal" in2="BackgroundImageFix" result="effect1_dropShadow_3053_166373"/>
<feColorMatrix in="SourceAlpha" type="matrix" values="0 0 0 0 0 0 0 0 0 0 0 0 0 0 0 0 0 0 127 0" result="hardAlpha"/>
<feOffset/>
<feGaussianBlur stdDeviation="1"/>
<feColorMatrix type="matrix" values="0 0 0 0 0 0 0 0 0 0 0 0 0 0 0 0 0 0 0.06 0"/>
<feBlend mode="normal" in2="effect1_dropShadow_3053_166373" result="effect2_dropShadow_3053_166373"/>
<feColorMatrix in="SourceAlpha" type="matrix" values="0 0 0 0 0 0 0 0 0 0 0 0 0 0 0 0 0 0 127 0" result="hardAlpha"/>
<feOffset dy="4"/>
<feGaussianBlur stdDeviation="4"/>
<feColorMatrix type="matrix" values="0 0 0 0 0 0 0 0 0 0 0 0 0 0 0 0 0 0 0.04 0"/>
<feBlend mode="normal" in2="effect2_dropShadow_3053_166373" result="effect3_dropShadow_3053_166373"/>
<feBlend mode="normal" in="SourceGraphic" in2="effect3_dropShadow_3053_166373" result="shape"/>
</filter>
<filter id="filter3_dddd_3053_166373" x="232.5" y="154.5" width="271" height="197" filterUnits="userSpaceOnUse" color-interpolation-filters="sRGB">
<feFlood flood-opacity="0" result="BackgroundImageFix"/>
<feColorMatrix in="SourceAlpha" type="matrix" values="0 0 0 0 0 0 0 0 0 0 0 0 0 0 0 0 0 0 127 0" result="hardAlpha"/>
<feOffset/>
<feGaussianBlur stdDeviation="0.5"/>
<feColorMatrix type="matrix" values="0 0 0 0 0 0 0 0 0 0 0 0 0 0 0 0 0 0 0.04 0"/>
<feBlend mode="normal" in2="BackgroundImageFix" result="effect1_dropShadow_3053_166373"/>
<feColorMatrix in="SourceAlpha" type="matrix" values="0 0 0 0 0 0 0 0 0 0 0 0 0 0 0 0 0 0 127 0" result="hardAlpha"/>
<feOffset dy="4"/>
<feGaussianBlur stdDeviation="4"/>
<feColorMatrix type="matrix" values="0 0 0 0 0 0 0 0 0 0 0 0 0 0 0 0 0 0 0.04 0"/>
<feBlend mode="normal" in2="effect1_dropShadow_3053_166373" result="effect2_dropShadow_3053_166373"/>
<feColorMatrix in="SourceAlpha" type="matrix" values="0 0 0 0 0 0 0 0 0 0 0 0 0 0 0 0 0 0 127 0" result="hardAlpha"/>
<feOffset dy="16"/>
<feGaussianBlur stdDeviation="12"/>
<feColorMatrix type="matrix" values="0 0 0 0 0 0 0 0 0 0 0 0 0 0 0 0 0 0 0.04 0"/>
<feBlend mode="normal" in2="effect2_dropShadow_3053_166373" result="effect3_dropShadow_3053_166373"/>
<feColorMatrix in="SourceAlpha" type="matrix" values="0 0 0 0 0 0 0 0 0 0 0 0 0 0 0 0 0 0 127 0" result="hardAlpha"/>
<feOffset dy="24"/>
<feGaussianBlur stdDeviation="16"/>
<feColorMatrix type="matrix" values="0 0 0 0 0 0 0 0 0 0 0 0 0 0 0 0 0 0 0.04 0"/>
<feBlend mode="normal" in2="effect3_dropShadow_3053_166373" result="effect4_dropShadow_3053_166373"/>
<feBlend mode="normal" in="SourceGraphic" in2="effect4_dropShadow_3053_166373" result="shape"/>
</filter>
<filter id="filter4_d_3053_166373" x="286.947" y="149.8" width="22.252" height="25.4004" filterUnits="userSpaceOnUse" color-interpolation-filters="sRGB">
<feFlood flood-opacity="0" result="BackgroundImageFix"/>
<feColorMatrix in="SourceAlpha" type="matrix" values="0 0 0 0 0 0 0 0 0 0 0 0 0 0 0 0 0 0 127 0" result="hardAlpha"/>
<feOffset dy="1"/>
<feGaussianBlur stdDeviation="1.5"/>
<feColorMatrix type="matrix" values="0 0 0 0 0 0 0 0 0 0 0 0 0 0 0 0 0 0 0.2 0"/>
<feBlend mode="normal" in2="BackgroundImageFix" result="effect1_dropShadow_3053_166373"/>
<feBlend mode="normal" in="SourceGraphic" in2="effect1_dropShadow_3053_166373" result="shape"/>
</filter>
</defs>
</svg>
