<svg width="24" height="24" viewBox="0 0 24 24" fill="none" xmlns="http://www.w3.org/2000/svg">
<path d="M12 2.25C10.0716 2.25 8.18657 2.82183 6.58319 3.89317C4.97982 4.96451 3.73013 6.48726 2.99218 8.26884C2.25422 10.0504 2.06114 12.0108 2.43735 13.9021C2.81355 15.7934 3.74215 17.5307 5.10571 18.8943C6.46928 20.2579 8.20656 21.1865 10.0979 21.5627C11.9892 21.9389 13.9496 21.7458 15.7312 21.0078C17.5127 20.2699 19.0355 19.0202 20.1068 17.4168C21.1782 15.8134 21.75 13.9284 21.75 12C21.7471 9.41504 20.7189 6.93679 18.8911 5.10894C17.0632 3.28109 14.585 2.25293 12 2.25ZM13.1251 17.2504C13.125 17.5488 13.0065 17.8349 12.7954 18.0459C12.5844 18.2569 12.2982 18.3754 11.9998 18.3754C11.7014 18.3753 11.4152 18.2568 11.2043 18.0458C10.9933 17.8348 10.8747 17.5486 10.8747 17.2502C10.8747 16.9518 10.9933 16.6656 11.2043 16.4546C11.4152 16.2436 11.7014 16.125 11.9998 16.125C12.2982 16.125 12.5844 16.2435 12.7954 16.4545C13.0065 16.6654 13.125 16.9516 13.1251 17.25V17.2504ZM14.6517 13.1517C14.1329 13.6733 13.4711 14.0296 12.75 14.1755V14.25C12.75 14.4489 12.671 14.6397 12.5303 14.7803C12.3897 14.921 12.1989 15 12 15C11.8011 15 11.6103 14.921 11.4697 14.7803C11.329 14.6397 11.25 14.4489 11.25 14.25V13.5C11.25 13.3011 11.329 13.1103 11.4697 12.9697C11.6103 12.829 11.8011 12.75 12 12.75C12.445 12.75 12.88 12.618 13.2499 12.3708C13.6199 12.1235 13.9083 11.7722 14.0785 11.3611C14.2488 10.9499 14.2934 10.4976 14.2065 10.0612C14.1197 9.62473 13.9055 9.22385 13.5908 8.9092C13.2762 8.59455 12.8753 8.38027 12.4389 8.29346C12.0024 8.20664 11.5501 8.25119 11.139 8.42146C10.7278 8.59174 10.3765 8.8801 10.1292 9.25007C9.882 9.62005 9.75003 10.055 9.75001 10.5C9.75001 10.6989 9.67099 10.8897 9.53034 11.0303C9.38968 11.171 9.19892 11.25 9.00001 11.25C8.80109 11.25 8.61033 11.171 8.46968 11.0303C8.32902 10.8897 8.25001 10.6989 8.25001 10.5C8.25003 9.88332 8.40214 9.27617 8.69286 8.73231C8.98358 8.18846 9.40394 7.7247 9.9167 7.3821C10.4295 7.03951 11.0188 6.82865 11.6325 6.76822C12.2462 6.70778 12.8654 6.79963 13.4351 7.03563C14.0048 7.27162 14.5076 7.64449 14.8988 8.12118C15.29 8.59788 15.5576 9.1637 15.6779 9.76853C15.7983 10.3734 15.7676 10.9985 15.5886 11.5887C15.4096 12.1788 15.0878 12.7157 14.6517 13.1517Z" fill="#9397AC"/>
</svg>
