<svg width="8" height="13" viewBox="0 0 8 13" fill="none" xmlns="http://www.w3.org/2000/svg">
<path d="M3.696 2.464C2.90667 2.464 2.25067 2.80533 1.728 3.488L0.64 2.256C0.938667 1.76533 1.37067 1.37067 1.936 1.072C2.50133 0.773333 3.12533 0.624 3.808 0.624C4.85333 0.624 5.66933 0.896 6.256 1.44C6.864 1.97333 7.168 2.64 7.168 3.44C7.168 4.144 7.02933 4.71467 6.752 5.152C6.47467 5.57867 6.08533 5.99467 5.584 6.4C5.52 6.45333 5.43467 6.52267 5.328 6.608C5.232 6.69333 5.152 6.76267 5.088 6.816C5.03467 6.85867 4.96 6.92267 4.864 7.008C4.77867 7.09333 4.71467 7.16267 4.672 7.216C4.62933 7.25867 4.57067 7.328 4.496 7.424C4.432 7.50933 4.38933 7.584 4.368 7.648C4.34667 7.712 4.31467 7.79733 4.272 7.904C4.24 8.01067 4.22933 8.10667 4.24 8.192C4.26133 8.27733 4.272 8.384 4.272 8.512L2.592 8.528C2.528 8.13333 2.52267 7.78667 2.576 7.488C2.64 7.17867 2.77333 6.90133 2.976 6.656C3.18933 6.4 3.36 6.21867 3.488 6.112C3.62667 5.99467 3.84533 5.824 4.144 5.6C4.848 5.10933 5.2 4.52267 5.2 3.84C5.2 3.456 5.056 3.13067 4.768 2.864C4.48 2.59733 4.12267 2.464 3.696 2.464ZM2.24 10.8C2.24 10.4907 2.35733 10.2187 2.592 9.984C2.83733 9.73867 3.14133 9.616 3.504 9.616C3.83467 9.616 4.112 9.73867 4.336 9.984C4.57067 10.2187 4.688 10.4907 4.688 10.8C4.688 11.152 4.576 11.456 4.352 11.712C4.128 11.9573 3.84533 12.08 3.504 12.08C3.14133 12.08 2.83733 11.9573 2.592 11.712C2.35733 11.456 2.24 11.152 2.24 10.8Z" fill="white"/>
</svg>
