<svg width="10" height="10" viewBox="0 0 10 10" fill="none" xmlns="http://www.w3.org/2000/svg">
<g clip-path="url(#clip0_3101:139029)">
<path d="M9.6441 1.37947C9.42923 1.35988 9.23921 1.51818 9.21962 1.73303L9.16787 2.30078C8.28976 0.921758 6.76546 0 4.99927 0C3.09925 0 1.42482 1.08441 0.593607 2.71199C0.495482 2.90412 0.571693 3.13941 0.763822 3.23754C0.95599 3.33566 1.19124 3.25947 1.28937 3.06732C1.99283 1.6899 3.40546 0.78125 4.99927 0.78125C6.45195 0.78125 7.76292 1.53771 8.51398 2.72281L7.95701 2.32502C7.78144 2.19965 7.53748 2.24031 7.4121 2.41586C7.28673 2.59143 7.3274 2.83537 7.50294 2.96076L9.19191 4.16703C9.43945 4.3435 9.78087 4.18195 9.80794 3.88463L9.99761 1.80396C10.0172 1.5891 9.85894 1.39906 9.6441 1.37947Z" fill="white"/>
<path d="M9.23543 6.76252C9.04328 6.66441 8.80801 6.7406 8.70988 6.93273C8.00642 8.31016 6.59379 9.21881 4.99998 9.21881C3.5473 9.21881 2.23633 8.46234 1.48527 7.27725L2.04224 7.67504C2.21781 7.80041 2.46176 7.75975 2.58715 7.5842C2.71252 7.40863 2.67185 7.16469 2.49631 7.0393L0.807342 5.83303C0.56283 5.65834 0.218651 5.81504 0.191307 6.11543L0.00163882 8.19609C-0.017951 8.41094 0.14035 8.60098 0.355174 8.62057C0.570291 8.64012 0.760076 8.48166 0.779647 8.26701L0.831404 7.69926C1.70949 9.0783 3.23379 10.0001 4.99998 10.0001C6.9 10.0001 8.57443 8.91564 9.40564 7.28807C9.50377 7.09594 9.42756 6.86064 9.23543 6.76252Z" fill="white"/>
</g>
<defs>
<clipPath id="clip0_3101:139029">
<rect width="10" height="10" fill="white"/>
</clipPath>
</defs>
</svg>
