<svg width="24" height="24" viewBox="0 0 24 24" fill="none" xmlns="http://www.w3.org/2000/svg">
<g opacity="0.3">
<path d="M19.5 13.5H4.5C4.08579 13.5 3.75 13.8358 3.75 14.25V18.75C3.75 19.1642 4.08579 19.5 4.5 19.5H19.5C19.9142 19.5 20.25 19.1642 20.25 18.75V14.25C20.25 13.8358 19.9142 13.5 19.5 13.5Z" stroke="white" stroke-width="1.5" stroke-linecap="round" stroke-linejoin="round"/>
<path d="M19.5 4.5H4.5C4.08579 4.5 3.75 4.83579 3.75 5.25V9.75C3.75 10.1642 4.08579 10.5 4.5 10.5H19.5C19.9142 10.5 20.25 10.1642 20.25 9.75V5.25C20.25 4.83579 19.9142 4.5 19.5 4.5Z" stroke="white" stroke-width="1.5" stroke-linecap="round" stroke-linejoin="round"/>
</g>
</svg>
