<svg width="61" height="42" viewBox="0 0 61 42" fill="none" xmlns="http://www.w3.org/2000/svg">
<path fill-rule="evenodd" clip-rule="evenodd" d="M14 4H48C51.858 4 55.2058 6.18478 56.8735 9.38462H59.0803C57.2719 5.04809 52.9919 2 48 2H14C7.37258 2 2 7.37258 2 14C2 20.6274 7.37258 26 14 26H22V24H14C8.47715 24 4 19.5228 4 14C4 8.47715 8.47715 4 14 4Z" fill="#6D7684"/>
<circle cx="40" cy="24" r="11" fill="#E5E8ED"/>
<circle cx="38" cy="22" r="11" stroke="#6D7684" stroke-width="2"/>
<path d="M46.5 22C46.5 21.7239 46.2761 21.5 46 21.5C45.7239 21.5 45.5 21.7239 45.5 22H46.5ZM38 29.5C37.7239 29.5 37.5 29.7239 37.5 30C37.5 30.2761 37.7239 30.5 38 30.5V29.5ZM45.5 22C45.5 26.1421 42.1421 29.5 38 29.5V30.5C42.6944 30.5 46.5 26.6944 46.5 22H45.5Z" fill="white"/>
<line x1="45.7071" y1="29.2929" x2="55.6066" y2="39.1924" stroke="#6D7684" stroke-width="2"/>
</svg>
