<svg width="20" height="20" viewBox="0 0 20 20" fill="none" xmlns="http://www.w3.org/2000/svg">
<path d="M15.6246 17.5H4.37402C4.20826 17.5 4.04929 17.4342 3.93208 17.3169C3.81487 17.1997 3.74902 17.0408 3.74902 16.875V3.125C3.74902 2.95924 3.81487 2.80027 3.93208 2.68306C4.04929 2.56585 4.20826 2.5 4.37402 2.5H11.8746L16.2496 6.875V16.875C16.2496 16.9571 16.2335 17.0383 16.2021 17.1142C16.1707 17.19 16.1246 17.2589 16.0666 17.3169C16.0085 17.375 15.9396 17.421 15.8638 17.4524C15.788 17.4838 15.7067 17.5 15.6246 17.5Z" stroke="#8E9AA6" stroke-width="1.5" stroke-linecap="round" stroke-linejoin="round"/>
<path d="M11.875 2.5V6.875H16.2506" stroke="#8E9AA6" stroke-width="1.5" stroke-linecap="round" stroke-linejoin="round"/>
<path d="M7.5 10.625H12.5" stroke="#8E9AA6" stroke-width="1.5" stroke-linecap="round" stroke-linejoin="round"/>
<path d="M7.5 13.125H12.5" stroke="#8E9AA6" stroke-width="1.5" stroke-linecap="round" stroke-linejoin="round"/>
</svg>
