<svg width="184" height="123" viewBox="0 0 184 123" fill="none" xmlns="http://www.w3.org/2000/svg">
<rect x="1.23047" y="0.5" width="141.381" height="121.268" rx="3.5" fill="white" stroke="#E6E6E6"/>
<path d="M24.5055 111.71C30.2363 111.71 34.8821 107.083 34.8821 101.377C34.8821 95.6701 30.2363 91.0439 24.5055 91.0439C18.7747 91.0439 14.1289 95.6701 14.1289 101.377C14.1289 107.083 18.7747 111.71 24.5055 111.71Z" fill="#E6E6E6"/>
<path d="M48.4677 94.4883C48.009 94.4883 47.5691 94.6697 47.2448 94.9927C46.9205 95.3156 46.7383 95.7537 46.7383 96.2104C46.7383 96.6672 46.9205 97.1052 47.2448 97.4282C47.5691 97.7511 48.009 97.9326 48.4677 97.9326H129.998C130.457 97.9326 130.896 97.7511 131.221 97.4282C131.545 97.1052 131.727 96.6672 131.727 96.2104C131.727 95.7537 131.545 95.3156 131.221 94.9927C130.896 94.6697 130.457 94.4883 129.998 94.4883H48.4677Z" fill="#E6E6E6"/>
<path d="M48.4703 104.821C48.2429 104.82 48.0178 104.865 47.8076 104.951C47.5975 105.038 47.4066 105.164 47.2457 105.324C47.0849 105.484 46.9572 105.674 46.8702 105.883C46.7831 106.092 46.7383 106.317 46.7383 106.543C46.7383 106.769 46.7831 106.993 46.8702 107.203C46.9572 107.412 47.0849 107.602 47.2457 107.762C47.4066 107.922 47.5975 108.048 47.8076 108.135C48.0178 108.221 48.2429 108.265 48.4703 108.265H83.553C84.0112 108.264 84.4505 108.083 84.7742 107.76C85.098 107.437 85.2799 106.999 85.2799 106.543C85.2799 106.087 85.098 105.649 84.7742 105.326C84.4505 105.003 84.0112 104.821 83.553 104.821H48.4703Z" fill="#E6E6E6"/>
<path d="M173.37 81.3529H35.813C35.1376 81.3521 34.4902 81.0846 34.0126 80.6091C33.5351 80.1336 33.2664 79.4888 33.2656 78.8163V18.7036C33.2664 18.0311 33.535 17.3864 34.0126 16.9108C34.4901 16.4353 35.1376 16.1678 35.813 16.167H173.37C174.046 16.1678 174.693 16.4353 175.171 16.9108C175.648 17.3864 175.917 18.0311 175.918 18.7036V78.8163C175.917 79.4888 175.648 80.1336 175.171 80.6091C174.693 81.0846 174.046 81.3521 173.37 81.3529Z" fill="#70A8DD"/>
<rect x="51" y="34" width="36" height="30" rx="3" fill="white"/>
<path d="M77.9743 39.0246C77.7856 38.8362 77.5502 38.7014 77.2923 38.6341C77.0343 38.5668 76.763 38.5694 76.5064 38.6417L59.0381 43.5686C58.7442 43.6515 58.4826 43.8221 58.2883 44.0577C58.0939 44.2932 57.9761 44.5825 57.9506 44.8868C57.925 45.1911 57.993 45.4959 58.1453 45.7606C58.2977 46.0252 58.5272 46.2371 58.8032 46.3678L66.1095 49.8287L71.1047 44.8335C71.2453 44.6928 71.4361 44.6138 71.635 44.6138C71.834 44.6138 72.0248 44.6928 72.1654 44.8335C72.3061 44.9741 72.3851 45.1649 72.3851 45.3638C72.3851 45.5628 72.3061 45.7535 72.1654 45.8942L67.1702 50.8894L70.6311 58.1957C70.751 58.4527 70.9419 58.6701 71.1813 58.8222C71.4208 58.9742 71.6988 59.0546 71.9824 59.0537C72.0253 59.0537 72.0686 59.0519 72.1121 59.0483C72.417 59.0245 72.7071 58.9073 72.9429 58.7127C73.1788 58.5181 73.349 58.2555 73.4303 57.9608L78.3572 40.4925C78.4294 40.2359 78.432 39.9646 78.3647 39.7067C78.2974 39.4487 78.1626 39.2133 77.9743 39.0246Z" fill="#70A8DD"/>
<rect x="99" y="37" width="56" height="4" rx="2" fill="white"/>
<rect x="99" y="47" width="56" height="4" rx="2" fill="white"/>
<rect x="99" y="57" width="41" height="4" rx="2" fill="white"/>
</svg>
