<svg width="894" height="443" viewBox="0 0 894 443" fill="none" xmlns="http://www.w3.org/2000/svg">
<g id="Group">
<g id="Card / Not Sesected">
<g id="Body" filter="url(#filter0_ddd_2896_59818)">
<rect x="8" y="183" width="296" height="64" rx="8" fill="white"/>
<rect x="8.5" y="183.5" width="295" height="63" rx="7.5" stroke="#E7E7E7"/>
</g>
<circle id="Moderation Indicator" cx="189.5" cy="207.5" r="3.5" fill="#F2CBBA"/>
<text id="Text" fill="#212121" xml:space="preserve" style="white-space: pre" font-family="Circe" font-size="15" letter-spacing="0.5px"><tspan x="64" y="210.745">&#x41c;&#x430;&#x43b;&#x435;&#x43d;&#x44c;&#x43a;&#x438;&#x439; &#x433;&#x43d;&#x43e;&#x43c;</tspan></text>
<text id="Text_2" fill="#9E9E9E" xml:space="preserve" style="white-space: pre" font-family="Circe" font-size="13" letter-spacing="0.4px"><tspan x="64" y="227.679">&#x413;&#x43b;&#x430;&#x432;&#x43d;&#x430;&#x44f; &#x440;&#x43e;&#x43b;&#x44c;</tspan></text>
<g id="CaretRight">
<g id="CaretRight_2">
<path id="Vector" d="M282 210L287 215L282 220" stroke="#757575" stroke-width="1.5" stroke-linecap="round" stroke-linejoin="round"/>
</g>
</g>
<rect id="Rectangle 299" x="20" y="199" width="32" height="32" rx="2" fill="#F3F9FE"/>
<g id="Film / Light / 24px">
<g id="Film">
<path id="Film_2" fill-rule="evenodd" clip-rule="evenodd" d="M43 207.5H29C27.6193 207.5 26.5 208.619 26.5 210V220C26.5 221.381 27.6193 222.5 29 222.5H43C44.3807 222.5 45.5 221.381 45.5 220V210C45.5 208.619 44.3807 207.5 43 207.5ZM29 206C26.7909 206 25 207.791 25 210V220C25 222.209 26.7909 224 29 224H43C45.2091 224 47 222.209 47 220V210C47 207.791 45.2091 206 43 206H29ZM28 210.25C28 209.836 28.3358 209.5 28.75 209.5H30.25C30.6642 209.5 31 209.836 31 210.25C31 210.664 30.6642 211 30.25 211H28.75C28.3358 211 28 210.664 28 210.25ZM33.0801 209.5C32.6659 209.5 32.3301 209.836 32.3301 210.25C32.3301 210.664 32.6659 211 33.0801 211H34.5801C34.9943 211 35.3301 210.664 35.3301 210.25C35.3301 209.836 34.9943 209.5 34.5801 209.5H33.0801ZM36.6602 210.25C36.6602 209.836 36.9959 209.5 37.4102 209.5H38.9102C39.3244 209.5 39.6602 209.836 39.6602 210.25C39.6602 210.664 39.3244 211 38.9102 211H37.4102C36.9959 211 36.6602 210.664 36.6602 210.25ZM41.7402 209.5C41.326 209.5 40.9902 209.836 40.9902 210.25C40.9902 210.664 41.326 211 41.7402 211H43.2402C43.6544 211 43.9902 210.664 43.9902 210.25C43.9902 209.836 43.6544 209.5 43.2402 209.5H41.7402ZM28 220.25C28 219.836 28.3358 219.5 28.75 219.5H30.25C30.6642 219.5 31 219.836 31 220.25C31 220.664 30.6642 221 30.25 221H28.75C28.3358 221 28 220.664 28 220.25ZM33.0801 219.5C32.6659 219.5 32.3301 219.836 32.3301 220.25C32.3301 220.664 32.6659 221 33.0801 221H34.5801C34.9943 221 35.3301 220.664 35.3301 220.25C35.3301 219.836 34.9943 219.5 34.5801 219.5H33.0801ZM36.6602 220.25C36.6602 219.836 36.9959 219.5 37.4102 219.5H38.9102C39.3244 219.5 39.6602 219.836 39.6602 220.25C39.6602 220.664 39.3244 221 38.9102 221H37.4102C36.9959 221 36.6602 220.664 36.6602 220.25ZM41.7402 219.5C41.326 219.5 40.9902 219.836 40.9902 220.25C40.9902 220.664 41.326 221 41.7402 221H43.2402C43.6544 221 43.9902 220.664 43.9902 220.25C43.9902 219.836 43.6544 219.5 43.2402 219.5H41.7402Z" fill="#70A8DD"/>
</g>
</g>
</g>
<g id="Card / Not Sesected_2">
<g id="Body_2" filter="url(#filter1_ddd_2896_59818)">
<rect x="8" y="335" width="296" height="64" rx="8" fill="white"/>
<rect x="8.5" y="335.5" width="295" height="63" rx="7.5" stroke="#E7E7E7"/>
</g>
<circle id="Moderation Indicator_2" cx="206.5" cy="359.5" r="3.5" fill="#B0EAD5"/>
<text id="Text_3" fill="#212121" xml:space="preserve" style="white-space: pre" font-family="Circe" font-size="15" letter-spacing="0.5px"><tspan x="64" y="362.745">&#x41e;&#x434;&#x430;&#x440;&#x451;&#x43d;&#x43d;&#x44b;&#x439; &#x43f;&#x430;&#x440;&#x435;&#x43d;&#x44c;</tspan></text>
<text id="Text_4" fill="#9E9E9E" xml:space="preserve" style="white-space: pre" font-family="Circe" font-size="13" letter-spacing="0.4px"><tspan x="64" y="379.679">&#x420;&#x43e;&#x43b;&#x44c; &#x434;&#x435;&#x432;&#x443;&#x448;&#x43a;&#x438;</tspan></text>
<g id="CaretRight_3">
<g id="CaretRight_4">
<path id="Vector_2" d="M282 362L287 367L282 372" stroke="#757575" stroke-width="1.5" stroke-linecap="round" stroke-linejoin="round"/>
</g>
</g>
<rect id="Rectangle 299_2" x="20" y="351" width="32" height="32" rx="2" fill="#F3F9FE"/>
<g id="Film / Light / 24px_2">
<g id="Film_3">
<path id="Film_4" fill-rule="evenodd" clip-rule="evenodd" d="M43 359.5H29C27.6193 359.5 26.5 360.619 26.5 362V372C26.5 373.381 27.6193 374.5 29 374.5H43C44.3807 374.5 45.5 373.381 45.5 372V362C45.5 360.619 44.3807 359.5 43 359.5ZM29 358C26.7909 358 25 359.791 25 362V372C25 374.209 26.7909 376 29 376H43C45.2091 376 47 374.209 47 372V362C47 359.791 45.2091 358 43 358H29ZM28 362.25C28 361.836 28.3358 361.5 28.75 361.5H30.25C30.6642 361.5 31 361.836 31 362.25C31 362.664 30.6642 363 30.25 363H28.75C28.3358 363 28 362.664 28 362.25ZM33.0801 361.5C32.6659 361.5 32.3301 361.836 32.3301 362.25C32.3301 362.664 32.6659 363 33.0801 363H34.5801C34.9943 363 35.3301 362.664 35.3301 362.25C35.3301 361.836 34.9943 361.5 34.5801 361.5H33.0801ZM36.6602 362.25C36.6602 361.836 36.9959 361.5 37.4102 361.5H38.9102C39.3244 361.5 39.6602 361.836 39.6602 362.25C39.6602 362.664 39.3244 363 38.9102 363H37.4102C36.9959 363 36.6602 362.664 36.6602 362.25ZM41.7402 361.5C41.326 361.5 40.9902 361.836 40.9902 362.25C40.9902 362.664 41.326 363 41.7402 363H43.2402C43.6544 363 43.9902 362.664 43.9902 362.25C43.9902 361.836 43.6544 361.5 43.2402 361.5H41.7402ZM28 372.25C28 371.836 28.3358 371.5 28.75 371.5H30.25C30.6642 371.5 31 371.836 31 372.25C31 372.664 30.6642 373 30.25 373H28.75C28.3358 373 28 372.664 28 372.25ZM33.0801 371.5C32.6659 371.5 32.3301 371.836 32.3301 372.25C32.3301 372.664 32.6659 373 33.0801 373H34.5801C34.9943 373 35.3301 372.664 35.3301 372.25C35.3301 371.836 34.9943 371.5 34.5801 371.5H33.0801ZM36.6602 372.25C36.6602 371.836 36.9959 371.5 37.4102 371.5H38.9102C39.3244 371.5 39.6602 371.836 39.6602 372.25C39.6602 372.664 39.3244 373 38.9102 373H37.4102C36.9959 373 36.6602 372.664 36.6602 372.25ZM41.7402 371.5C41.326 371.5 40.9902 371.836 40.9902 372.25C40.9902 372.664 41.326 373 41.7402 373H43.2402C43.6544 373 43.9902 372.664 43.9902 372.25C43.9902 371.836 43.6544 371.5 43.2402 371.5H41.7402Z" fill="#70A8DD"/>
</g>
</g>
</g>
<g id="Card / Sesected">
<g id="Body_3" filter="url(#filter2_ddd_2896_59818)">
<rect x="8" y="259" width="296" height="64" rx="8" fill="#F3F9FE"/>
<rect x="8.5" y="259.5" width="295" height="63" rx="7.5" stroke="#70A8DD"/>
</g>
<circle id="Moderation Indicator_3" cx="200.5" cy="283.5" r="3.5" fill="#F2CBBA"/>
<text id="Text_5" fill="#212121" xml:space="preserve" style="white-space: pre" font-family="Circe" font-size="15" letter-spacing="0.5px"><tspan x="64" y="286.745">&#x411;&#x43e;&#x43b;&#x44c;&#x448;&#x435; &#x447;&#x435;&#x43c; &#x444;&#x440;&#x443;&#x43a;&#x442;</tspan></text>
<text id="Text_6" fill="#9E9E9E" xml:space="preserve" style="white-space: pre" font-family="Circe" font-size="13" letter-spacing="0.4px"><tspan x="64" y="303.679">&#x413;&#x43b;&#x430;&#x432;&#x43d;&#x430;&#x44f; &#x440;&#x43e;&#x43b;&#x44c;</tspan></text>
<g id="CaretRight_5">
<g id="CaretRight_6">
<path id="Vector_3" d="M282 286L287 291L282 296" stroke="#1991EB" stroke-width="1.5" stroke-linecap="round" stroke-linejoin="round"/>
</g>
</g>
<rect id="Rectangle 299_3" x="20" y="275" width="32" height="32" rx="2" fill="#E8F5FF"/>
<g id="Film / Light / 24px_3">
<g id="Film_5">
<path id="Film_6" fill-rule="evenodd" clip-rule="evenodd" d="M43 283.5H29C27.6193 283.5 26.5 284.619 26.5 286V296C26.5 297.381 27.6193 298.5 29 298.5H43C44.3807 298.5 45.5 297.381 45.5 296V286C45.5 284.619 44.3807 283.5 43 283.5ZM29 282C26.7909 282 25 283.791 25 286V296C25 298.209 26.7909 300 29 300H43C45.2091 300 47 298.209 47 296V286C47 283.791 45.2091 282 43 282H29ZM28 286.25C28 285.836 28.3358 285.5 28.75 285.5H30.25C30.6642 285.5 31 285.836 31 286.25C31 286.664 30.6642 287 30.25 287H28.75C28.3358 287 28 286.664 28 286.25ZM33.0801 285.5C32.6659 285.5 32.3301 285.836 32.3301 286.25C32.3301 286.664 32.6659 287 33.0801 287H34.5801C34.9943 287 35.3301 286.664 35.3301 286.25C35.3301 285.836 34.9943 285.5 34.5801 285.5H33.0801ZM36.6602 286.25C36.6602 285.836 36.9959 285.5 37.4102 285.5H38.9102C39.3244 285.5 39.6602 285.836 39.6602 286.25C39.6602 286.664 39.3244 287 38.9102 287H37.4102C36.9959 287 36.6602 286.664 36.6602 286.25ZM41.7402 285.5C41.326 285.5 40.9902 285.836 40.9902 286.25C40.9902 286.664 41.326 287 41.7402 287H43.2402C43.6544 287 43.9902 286.664 43.9902 286.25C43.9902 285.836 43.6544 285.5 43.2402 285.5H41.7402ZM28 296.25C28 295.836 28.3358 295.5 28.75 295.5H30.25C30.6642 295.5 31 295.836 31 296.25C31 296.664 30.6642 297 30.25 297H28.75C28.3358 297 28 296.664 28 296.25ZM33.0801 295.5C32.6659 295.5 32.3301 295.836 32.3301 296.25C32.3301 296.664 32.6659 297 33.0801 297H34.5801C34.9943 297 35.3301 296.664 35.3301 296.25C35.3301 295.836 34.9943 295.5 34.5801 295.5H33.0801ZM36.6602 296.25C36.6602 295.836 36.9959 295.5 37.4102 295.5H38.9102C39.3244 295.5 39.6602 295.836 39.6602 296.25C39.6602 296.664 39.3244 297 38.9102 297H37.4102C36.9959 297 36.6602 296.664 36.6602 296.25ZM41.7402 295.5C41.326 295.5 40.9902 295.836 40.9902 296.25C40.9902 296.664 41.326 297 41.7402 297H43.2402C43.6544 297 43.9902 296.664 43.9902 296.25C43.9902 295.836 43.6544 295.5 43.2402 295.5H41.7402Z" fill="#70A8DD"/>
</g>
</g>
</g>
<g id="Tabs">
<line id="Body_4" x1="8" y1="94" x2="304" y2="94" stroke="#E0E0E0" stroke-width="2"/>
<text id="Text_7" fill="#1991EB" xml:space="preserve" style="white-space: pre" font-family="Circe" font-size="12" font-weight="bold" letter-spacing="0.4px"><tspan x="8" y="79.396">&#x410;&#x41a;&#x422;&#x418;&#x412;&#x41d;&#x42b;&#x415;</tspan></text>
<text id="Text_8" fill="#9E9E9E" xml:space="preserve" style="white-space: pre" font-family="Circe" font-size="12" font-weight="bold" letter-spacing="0.4px"><tspan x="90" y="79.396">&#x411;&#x41b;&#x41e;&#x41a;</tspan></text>
<text id="Text_9" fill="#9E9E9E" xml:space="preserve" style="white-space: pre" font-family="Circe" font-size="12" font-weight="bold" letter-spacing="0.4px"><tspan x="138" y="79.396">&#x410;&#x420;&#x425;&#x418;&#x412;</tspan></text>
<line id="Selector" x1="8" y1="94" x2="78" y2="94" stroke="#1991EB" stroke-width="2"/>
</g>
<g id="HowTo_bn">
<g id="Question">
<g id="Question_2">
<path id="Vector_4" d="M248 23.5C252.142 23.5 255.5 20.1421 255.5 16C255.5 11.8579 252.142 8.5 248 8.5C243.858 8.5 240.5 11.8579 240.5 16C240.5 20.1421 243.858 23.5 248 23.5Z" stroke="#9E9E9E" stroke-width="1.5" stroke-linecap="round" stroke-linejoin="round"/>
<path id="Vector_5" d="M248 17.875V17.25C248.494 17.25 248.978 17.1034 249.389 16.8287C249.8 16.554 250.12 16.1635 250.31 15.7067C250.499 15.2499 250.548 14.7472 250.452 14.2623C250.356 13.7773 250.117 13.3319 249.768 12.9822C249.418 12.6326 248.973 12.3945 248.488 12.298C248.003 12.2016 247.5 12.2511 247.043 12.4403C246.586 12.6295 246.196 12.95 245.921 13.3611C245.647 13.7722 245.5 14.2555 245.5 14.75" stroke="#9E9E9E" stroke-width="1.5" stroke-linecap="round" stroke-linejoin="round"/>
<path id="Vector_6" d="M248 21.3125C248.518 21.3125 248.938 20.8928 248.938 20.375C248.938 19.8572 248.518 19.4375 248 19.4375C247.482 19.4375 247.062 19.8572 247.062 20.375C247.062 20.8928 247.482 21.3125 248 21.3125Z" fill="#9E9E9E"/>
</g>
</g>
<rect id="Frame" x="232.5" y="0.5" width="31" height="31" rx="3.5" stroke="#E0E0E0"/>
</g>
<g id="Calendar_bn">
<rect id="Frame_2" x="272.5" y="0.5" width="31" height="31" rx="3.5" fill="#E0E0E0" stroke="#E0E0E0"/>
<g id="Calendar">
<g id="Calendar_2">
<path id="Vector_7" d="M294.25 9.125H281.75C281.405 9.125 281.125 9.40482 281.125 9.75V22.25C281.125 22.5952 281.405 22.875 281.75 22.875H294.25C294.595 22.875 294.875 22.5952 294.875 22.25V9.75C294.875 9.40482 294.595 9.125 294.25 9.125Z" stroke="#757575" stroke-width="1.5" stroke-linecap="round" stroke-linejoin="round"/>
<path id="Vector_8" d="M291.75 7.875V10.375" stroke="#757575" stroke-width="1.5" stroke-linecap="round" stroke-linejoin="round"/>
<path id="Vector_9" d="M284.25 7.875V10.375" stroke="#757575" stroke-width="1.5" stroke-linecap="round" stroke-linejoin="round"/>
<path id="Vector_10" d="M281.125 12.875H294.875" stroke="#757575" stroke-width="1.5" stroke-linecap="round" stroke-linejoin="round"/>
<path id="Vector_11" d="M285.188 15.9998H287.375L286.125 17.5623C286.331 17.5623 286.533 17.6129 286.714 17.7098C286.895 17.8067 287.05 17.9468 287.164 18.1176C287.278 18.2885 287.349 18.4849 287.369 18.6895C287.389 18.894 287.359 19.1003 287.28 19.2903C287.201 19.4802 287.077 19.6478 286.918 19.7782C286.76 19.9087 286.571 19.9979 286.369 20.0381C286.168 20.0783 285.959 20.0682 285.763 20.0086C285.566 19.9491 285.387 19.8419 285.242 19.6967" stroke="#757575" stroke-width="1.5" stroke-linecap="round" stroke-linejoin="round"/>
<path id="Vector_12" d="M289.25 16.9373L290.5 15.9998V20.0623" stroke="#757575" stroke-width="1.5" stroke-linecap="round" stroke-linejoin="round"/>
</g>
</g>
</g>
<g id="NewCasting_bn">
<rect id="Body_5" x="8" y="119" width="250" height="40" rx="8" fill="#1991EB"/>
<text id="Text_10" fill="white" xml:space="preserve" style="white-space: pre" font-family="Circe" font-size="13" font-weight="bold" letter-spacing="0.25px"><tspan x="69" y="143.179">&#x421;&#x41e;&#x417;&#x414;&#x410;&#x422;&#x42c; &#x41a;&#x410;&#x421;&#x422;&#x418;&#x41d;&#x413;</tspan></text>
</g>
<text id="Text_11" fill="#212121" xml:space="preserve" style="white-space: pre" font-family="Circe" font-size="21" letter-spacing="0.15px"><tspan x="8" y="21.443">&#x41a;&#x430;&#x441;&#x442;&#x438;&#x43d;&#x433;&#x438; &#x410;&#x43a;&#x442;&#x451;&#x440;&#x44b;</tspan></text>
<g id="Mode=Light">
<path id="Icon" d="M190.77 15.1859C190.919 15.0568 191 14.8924 191 14.6986C191 14.3112 190.648 14 190.202 14C189.979 14 189.776 14.0822 189.62 14.2172L184.993 18.3268L180.38 14.2172C180.224 14.0822 180.015 14 179.798 14C179.352 14 179 14.3112 179 14.6986C179 14.8924 179.081 15.0568 179.23 15.1859L184.371 19.7534C184.547 19.9178 184.763 19.9941 185 20C185.237 20 185.44 19.9178 185.622 19.7534L190.77 15.1859Z" fill="#616161"/>
</g>
<g id="Calendar Dropdown">
<g id="Body_6" filter="url(#filter3_dddd_2896_59818)">
<path d="M272 40C272 37.7909 273.791 36 276 36H612C614.209 36 616 37.7909 616 40V382C616 384.209 614.209 386 612 386H276C273.791 386 272 384.209 272 382V40Z" fill="white"/>
<path d="M276 36.5H612V35.5H276V36.5ZM615.5 40V382H616.5V40H615.5ZM612 385.5H276V386.5H612V385.5ZM272.5 382V40H271.5V382H272.5ZM276 385.5C274.067 385.5 272.5 383.933 272.5 382H271.5C271.5 384.485 273.515 386.5 276 386.5V385.5ZM615.5 382C615.5 383.933 613.933 385.5 612 385.5V386.5C614.485 386.5 616.5 384.485 616.5 382H615.5ZM612 36.5C613.933 36.5 615.5 38.067 615.5 40H616.5C616.5 37.5147 614.485 35.5 612 35.5V36.5ZM276 35.5C273.515 35.5 271.5 37.5147 271.5 40H272.5C272.5 38.067 274.067 36.5 276 36.5V35.5Z" fill="#E7E7E7"/>
</g>
<g id="Calendar_3">
<g id="Days">
<g id="Row">
<g id="Weekday">
<text id="Mo" fill="#212121" xml:space="preserve" style="white-space: pre" font-family="Circe" font-size="13" font-weight="bold" letter-spacing="0px"><tspan x="315.507" y="137.679">&#x41f;&#x43d;</tspan></text>
</g>
<g id="Weekday_2">
<text id="Tu" fill="#212121" xml:space="preserve" style="white-space: pre" font-family="Circe" font-size="13" font-weight="bold" letter-spacing="0px"><tspan x="357.094" y="137.679">&#x412;&#x442;</tspan></text>
</g>
<g id="Weekday_3">
<text id="We" fill="#212121" xml:space="preserve" style="white-space: pre" font-family="Circe" font-size="13" font-weight="bold" letter-spacing="0px"><tspan x="396.116" y="137.679">&#x421;&#x440;</tspan></text>
</g>
<g id="Weekday_4">
<text id="Th" fill="#212121" xml:space="preserve" style="white-space: pre" font-family="Circe" font-size="13" font-weight="bold" letter-spacing="0px"><tspan x="436.77" y="137.679">&#x427;&#x442;</tspan></text>
</g>
<g id="Weekday_5">
<text id="Fr" fill="#212121" xml:space="preserve" style="white-space: pre" font-family="Circe" font-size="13" font-weight="bold" letter-spacing="0px"><tspan x="476.218" y="137.679">&#x41f;&#x442;</tspan></text>
</g>
<g id="Weekday_6">
<text id="Sa" fill="#212121" xml:space="preserve" style="white-space: pre" font-family="Circe" font-size="13" font-weight="bold" letter-spacing="0px"><tspan x="516.18" y="137.679">&#x421;&#x431;</tspan></text>
</g>
<g id="Weekday_7">
<text id="Su" fill="#212121" xml:space="preserve" style="white-space: pre" font-family="Circe" font-size="13" font-weight="bold" letter-spacing="0px"><tspan x="556.821" y="137.679">&#x412;&#x441;</tspan></text>
</g>
</g>
<g id="Row_2">
<g id="Date Default">
<text id="1" fill="#212121" xml:space="preserve" style="white-space: pre" font-family="Circe" font-size="13" letter-spacing="0px"><tspan x="320.153" y="177.679">1</tspan></text>
<path d="M304 154V153.5H303.5V154H304ZM344 154H344.5V153.5H344V154ZM344 194V194.5H344.5V194H344ZM304 194H303.5V194.5H304V194ZM304 154.5H344V153.5H304V154.5ZM343.5 154V194H344.5V154H343.5ZM344 193.5H304V194.5H344V193.5ZM304.5 194V154H303.5V194H304.5Z" fill="#DFDFDF"/>
</g>
<g id="Date Default_2">
<text id="2" fill="#212121" xml:space="preserve" style="white-space: pre" font-family="Circe" font-size="13" letter-spacing="0px"><tspan x="360.153" y="177.679">2</tspan></text>
<path d="M344 154V153.5H343.5V154H344ZM384 154H384.5V153.5H384V154ZM384 194V194.5H384.5V194H384ZM344 194H343.5V194.5H344V194ZM344 154.5H384V153.5H344V154.5ZM383.5 154V194H384.5V154H383.5ZM384 193.5H344V194.5H384V193.5ZM344.5 194V154H343.5V194H344.5Z" fill="#DFDFDF"/>
</g>
<g id="Date Default_3">
<text id="3" fill="#212121" xml:space="preserve" style="white-space: pre" font-family="Circe" font-size="13" letter-spacing="0px"><tspan x="400.153" y="177.679">3</tspan></text>
<path d="M384 154V153.5H383.5V154H384ZM424 154H424.5V153.5H424V154ZM424 194V194.5H424.5V194H424ZM384 194H383.5V194.5H384V194ZM384 154.5H424V153.5H384V154.5ZM423.5 154V194H424.5V154H423.5ZM424 193.5H384V194.5H424V193.5ZM384.5 194V154H383.5V194H384.5Z" fill="#DFDFDF"/>
</g>
<g id="Date Default_4">
<text id="4" fill="#212121" xml:space="preserve" style="white-space: pre" font-family="Circe" font-size="13" letter-spacing="0px"><tspan x="440.153" y="177.679">4</tspan></text>
<path d="M424 154V153.5H423.5V154H424ZM464 154H464.5V153.5H464V154ZM464 194V194.5H464.5V194H464ZM424 194H423.5V194.5H424V194ZM424 154.5H464V153.5H424V154.5ZM463.5 154V194H464.5V154H463.5ZM464 193.5H424V194.5H464V193.5ZM424.5 194V154H423.5V194H424.5Z" fill="#DFDFDF"/>
</g>
<g id="Date Default_5">
<text id="5" fill="#212121" xml:space="preserve" style="white-space: pre" font-family="Circe" font-size="13" letter-spacing="0px"><tspan x="480.153" y="177.679">5</tspan></text>
<path d="M464 154V153.5H463.5V154H464ZM504 154H504.5V153.5H504V154ZM504 194V194.5H504.5V194H504ZM464 194H463.5V194.5H464V194ZM464 154.5H504V153.5H464V154.5ZM503.5 154V194H504.5V154H503.5ZM504 193.5H464V194.5H504V193.5ZM464.5 194V154H463.5V194H464.5Z" fill="#DFDFDF"/>
</g>
<g id="Date Default_6">
<path d="M504 154H544V194H504V154Z" fill="#1991EB"/>
<text id="6" fill="white" xml:space="preserve" style="white-space: pre" font-family="Circe" font-size="13" letter-spacing="0px"><tspan x="520.153" y="177.679">6</tspan></text>
<path d="M504 154V153.5H503.5V154H504ZM544 154H544.5V153.5H544V154ZM544 194V194.5H544.5V194H544ZM504 194H503.5V194.5H504V194ZM504 154.5H544V153.5H504V154.5ZM543.5 154V194H544.5V154H543.5ZM544 193.5H504V194.5H544V193.5ZM504.5 194V154H503.5V194H504.5Z" fill="#DFDFDF"/>
</g>
<g id="Date Default_7">
<text id="7" fill="#212121" xml:space="preserve" style="white-space: pre" font-family="Circe" font-size="13" letter-spacing="0px"><tspan x="560.153" y="177.679">7</tspan></text>
<path d="M544 154V153.5H543.5V154H544ZM584 154H584.5V153.5H584V154ZM584 194V194.5H584.5V194H584ZM544 194H543.5V194.5H544V194ZM544 154.5H584V153.5H544V154.5ZM583.5 154V194H584.5V154H583.5ZM584 193.5H544V194.5H584V193.5ZM544.5 194V154H543.5V194H544.5Z" fill="#DFDFDF"/>
</g>
</g>
<g id="Row_3">
<g id="Date Default_8" opacity="0.5">
<path d="M304 194H344V234H304V194Z" fill="#1991EB"/>
<text id="8" fill="white" xml:space="preserve" style="white-space: pre" font-family="Circe" font-size="13" letter-spacing="0px"><tspan x="320.153" y="217.679">8</tspan></text>
<path d="M304 194V193.5H303.5V194H304ZM344 194H344.5V193.5H344V194ZM344 234V234.5H344.5V234H344ZM304 234H303.5V234.5H304V234ZM304 194.5H344V193.5H304V194.5ZM343.5 194V234H344.5V194H343.5ZM344 233.5H304V234.5H344V233.5ZM304.5 234V194H303.5V234H304.5Z" fill="#DFDFDF"/>
</g>
<g id="Date Default_9">
<text id="9" fill="#212121" xml:space="preserve" style="white-space: pre" font-family="Circe" font-size="13" letter-spacing="0px"><tspan x="360.153" y="217.679">9</tspan></text>
<path d="M344 194V193.5H343.5V194H344ZM384 194H384.5V193.5H384V194ZM384 234V234.5H384.5V234H384ZM344 234H343.5V234.5H344V234ZM344 194.5H384V193.5H344V194.5ZM383.5 194V234H384.5V194H383.5ZM384 233.5H344V234.5H384V233.5ZM344.5 234V194H343.5V234H344.5Z" fill="#DFDFDF"/>
</g>
<g id="Date Default_10">
<text id="10" fill="#212121" xml:space="preserve" style="white-space: pre" font-family="Circe" font-size="13" letter-spacing="0px"><tspan x="396.307" y="217.679">10</tspan></text>
<path d="M384 194V193.5H383.5V194H384ZM424 194H424.5V193.5H424V194ZM424 234V234.5H424.5V234H424ZM384 234H383.5V234.5H384V234ZM384 194.5H424V193.5H384V194.5ZM423.5 194V234H424.5V194H423.5ZM424 233.5H384V234.5H424V233.5ZM384.5 234V194H383.5V234H384.5Z" fill="#DFDFDF"/>
</g>
<g id="Date Default_11">
<text id="11" fill="#212121" xml:space="preserve" style="white-space: pre" font-family="Circe" font-size="13" letter-spacing="0px"><tspan x="436.307" y="217.679">11</tspan></text>
<path d="M424 194V193.5H423.5V194H424ZM464 194H464.5V193.5H464V194ZM464 234V234.5H464.5V234H464ZM424 234H423.5V234.5H424V234ZM424 194.5H464V193.5H424V194.5ZM463.5 194V234H464.5V194H463.5ZM464 233.5H424V234.5H464V233.5ZM424.5 234V194H423.5V234H424.5Z" fill="#DFDFDF"/>
</g>
<g id="Date Default_12">
<text id="12" fill="#212121" xml:space="preserve" style="white-space: pre" font-family="Circe" font-size="13" letter-spacing="0px"><tspan x="476.307" y="217.679">12</tspan></text>
<path d="M464 194V193.5H463.5V194H464ZM504 194H504.5V193.5H504V194ZM504 234V234.5H504.5V234H504ZM464 234H463.5V234.5H464V234ZM464 194.5H504V193.5H464V194.5ZM503.5 194V234H504.5V194H503.5ZM504 233.5H464V234.5H504V233.5ZM464.5 234V194H463.5V234H464.5Z" fill="#DFDFDF"/>
</g>
<g id="Date Default_13">
<text id="13" fill="#212121" xml:space="preserve" style="white-space: pre" font-family="Circe" font-size="13" letter-spacing="0px"><tspan x="516.307" y="217.679">13</tspan></text>
<path d="M504 194V193.5H503.5V194H504ZM544 194H544.5V193.5H544V194ZM544 234V234.5H544.5V234H544ZM504 234H503.5V234.5H504V234ZM504 194.5H544V193.5H504V194.5ZM543.5 194V234H544.5V194H543.5ZM544 233.5H504V234.5H544V233.5ZM504.5 234V194H503.5V234H504.5Z" fill="#DFDFDF"/>
</g>
<g id="Date Default_14">
<text id="14" fill="#212121" xml:space="preserve" style="white-space: pre" font-family="Circe" font-size="13" letter-spacing="0px"><tspan x="556.307" y="217.679">14</tspan></text>
<path d="M544 194V193.5H543.5V194H544ZM584 194H584.5V193.5H584V194ZM584 234V234.5H584.5V234H584ZM544 234H543.5V234.5H544V234ZM544 194.5H584V193.5H544V194.5ZM583.5 194V234H584.5V194H583.5ZM584 233.5H544V234.5H584V233.5ZM544.5 234V194H543.5V234H544.5Z" fill="#DFDFDF"/>
</g>
</g>
<g id="Row_4">
<g id="Date Default_15">
<text id="15" fill="#212121" xml:space="preserve" style="white-space: pre" font-family="Circe" font-size="13" letter-spacing="0px"><tspan x="316.307" y="257.679">15</tspan></text>
<path d="M304 234V233.5H303.5V234H304ZM344 234H344.5V233.5H344V234ZM344 274V274.5H344.5V274H344ZM304 274H303.5V274.5H304V274ZM304 234.5H344V233.5H304V234.5ZM343.5 234V274H344.5V234H343.5ZM344 273.5H304V274.5H344V273.5ZM304.5 274V234H303.5V274H304.5Z" fill="#DFDFDF"/>
</g>
<g id="Date Default_16">
<text id="16" fill="#212121" xml:space="preserve" style="white-space: pre" font-family="Circe" font-size="13" letter-spacing="0px"><tspan x="356.307" y="257.679">16</tspan></text>
<path d="M344 234V233.5H343.5V234H344ZM384 234H384.5V233.5H384V234ZM384 274V274.5H384.5V274H384ZM344 274H343.5V274.5H344V274ZM344 234.5H384V233.5H344V234.5ZM383.5 234V274H384.5V234H383.5ZM384 273.5H344V274.5H384V273.5ZM344.5 274V234H343.5V274H344.5Z" fill="#DFDFDF"/>
</g>
<g id="Date Default_17">
<text id="17" fill="#212121" xml:space="preserve" style="white-space: pre" font-family="Circe" font-size="13" letter-spacing="0px"><tspan x="396.307" y="257.679">17</tspan></text>
<path d="M384 234V233.5H383.5V234H384ZM424 234H424.5V233.5H424V234ZM424 274V274.5H424.5V274H424ZM384 274H383.5V274.5H384V274ZM384 234.5H424V233.5H384V234.5ZM423.5 234V274H424.5V234H423.5ZM424 273.5H384V274.5H424V273.5ZM384.5 274V234H383.5V274H384.5Z" fill="#DFDFDF"/>
</g>
<g id="Date Active" opacity="0.5">
<path d="M424 234H464V274H424V234Z" fill="#1991EB"/>
<text id="18" fill="white" xml:space="preserve" style="white-space: pre" font-family="Circe" font-size="13" font-weight="bold" letter-spacing="0px"><tspan x="436.256" y="257.679">18</tspan></text>
<path d="M424 234V233.5H423.5V234H424ZM464 234H464.5V233.5H464V234ZM464 274V274.5H464.5V274H464ZM424 274H423.5V274.5H424V274ZM424 234.5H464V233.5H424V234.5ZM463.5 234V274H464.5V234H463.5ZM464 273.5H424V274.5H464V273.5ZM424.5 274V234H423.5V274H424.5Z" fill="#DFDFDF"/>
</g>
<g id="Date Default_18">
<text id="19" fill="#212121" xml:space="preserve" style="white-space: pre" font-family="Circe" font-size="13" letter-spacing="0px"><tspan x="476.307" y="257.679">19</tspan></text>
<path d="M464 234V233.5H463.5V234H464ZM504 234H504.5V233.5H504V234ZM504 274V274.5H504.5V274H504ZM464 274H463.5V274.5H464V274ZM464 234.5H504V233.5H464V234.5ZM503.5 234V274H504.5V234H503.5ZM504 273.5H464V274.5H504V273.5ZM464.5 274V234H463.5V274H464.5Z" fill="#DFDFDF"/>
</g>
<g id="Date Default_19">
<text id="20" fill="#212121" xml:space="preserve" style="white-space: pre" font-family="Circe" font-size="13" letter-spacing="0px"><tspan x="516.307" y="257.679">20</tspan></text>
<path d="M504 234V233.5H503.5V234H504ZM544 234H544.5V233.5H544V234ZM544 274V274.5H544.5V274H544ZM504 274H503.5V274.5H504V274ZM504 234.5H544V233.5H504V234.5ZM543.5 234V274H544.5V234H543.5ZM544 273.5H504V274.5H544V273.5ZM504.5 274V234H503.5V274H504.5Z" fill="#DFDFDF"/>
</g>
<g id="Date Default_20">
<text id="21" fill="#212121" xml:space="preserve" style="white-space: pre" font-family="Circe" font-size="13" letter-spacing="0px"><tspan x="556.307" y="257.679">21</tspan></text>
<path d="M544 234V233.5H543.5V234H544ZM584 234H584.5V233.5H584V234ZM584 274V274.5H584.5V274H584ZM544 274H543.5V274.5H544V274ZM544 234.5H584V233.5H544V234.5ZM583.5 234V274H584.5V234H583.5ZM584 273.5H544V274.5H584V273.5ZM544.5 274V234H543.5V274H544.5Z" fill="#DFDFDF"/>
</g>
</g>
<g id="Row_5">
<g id="Date Default_21">
<text id="22" fill="#212121" xml:space="preserve" style="white-space: pre" font-family="Circe" font-size="13" letter-spacing="0px"><tspan x="316.307" y="297.679">22</tspan></text>
<path d="M304 274V273.5H303.5V274H304ZM344 274H344.5V273.5H344V274ZM344 314V314.5H344.5V314H344ZM304 314H303.5V314.5H304V314ZM304 274.5H344V273.5H304V274.5ZM343.5 274V314H344.5V274H343.5ZM344 313.5H304V314.5H344V313.5ZM304.5 314V274H303.5V314H304.5Z" fill="#DFDFDF"/>
</g>
<g id="Date Default_22">
<text id="23" fill="#212121" xml:space="preserve" style="white-space: pre" font-family="Circe" font-size="13" letter-spacing="0px"><tspan x="356.307" y="297.679">23</tspan></text>
<path d="M344 274V273.5H343.5V274H344ZM384 274H384.5V273.5H384V274ZM384 314V314.5H384.5V314H384ZM344 314H343.5V314.5H344V314ZM344 274.5H384V273.5H344V274.5ZM383.5 274V314H384.5V274H383.5ZM384 313.5H344V314.5H384V313.5ZM344.5 314V274H343.5V314H344.5Z" fill="#DFDFDF"/>
</g>
<g id="Date Default_23">
<text id="24" fill="#212121" xml:space="preserve" style="white-space: pre" font-family="Circe" font-size="13" letter-spacing="0px"><tspan x="396.307" y="297.679">24</tspan></text>
<path d="M384 274V273.5H383.5V274H384ZM424 274H424.5V273.5H424V274ZM424 314V314.5H424.5V314H424ZM384 314H383.5V314.5H384V314ZM384 274.5H424V273.5H384V274.5ZM423.5 274V314H424.5V274H423.5ZM424 313.5H384V314.5H424V313.5ZM384.5 314V274H383.5V314H384.5Z" fill="#DFDFDF"/>
</g>
<g id="Date Default_24">
<text id="25" fill="#212121" xml:space="preserve" style="white-space: pre" font-family="Circe" font-size="13" letter-spacing="0px"><tspan x="436.307" y="297.679">25</tspan></text>
<path d="M424 274V273.5H423.5V274H424ZM464 274H464.5V273.5H464V274ZM464 314V314.5H464.5V314H464ZM424 314H423.5V314.5H424V314ZM424 274.5H464V273.5H424V274.5ZM463.5 274V314H464.5V274H463.5ZM464 313.5H424V314.5H464V313.5ZM424.5 314V274H423.5V314H424.5Z" fill="#DFDFDF"/>
</g>
<g id="Date Default_25">
<text id="26" fill="#212121" xml:space="preserve" style="white-space: pre" font-family="Circe" font-size="13" letter-spacing="0px"><tspan x="476.307" y="297.679">26</tspan></text>
<path d="M464 274V273.5H463.5V274H464ZM504 274H504.5V273.5H504V274ZM504 314V314.5H504.5V314H504ZM464 314H463.5V314.5H464V314ZM464 274.5H504V273.5H464V274.5ZM503.5 274V314H504.5V274H503.5ZM504 313.5H464V314.5H504V313.5ZM464.5 314V274H463.5V314H464.5Z" fill="#DFDFDF"/>
</g>
<g id="Date Default_26">
<text id="27" fill="#212121" xml:space="preserve" style="white-space: pre" font-family="Circe" font-size="13" letter-spacing="0px"><tspan x="516.307" y="297.679">27</tspan></text>
<path d="M504 274V273.5H503.5V274H504ZM544 274H544.5V273.5H544V274ZM544 314V314.5H544.5V314H544ZM504 314H503.5V314.5H504V314ZM504 274.5H544V273.5H504V274.5ZM543.5 274V314H544.5V274H543.5ZM544 313.5H504V314.5H544V313.5ZM504.5 314V274H503.5V314H504.5Z" fill="#DFDFDF"/>
</g>
<g id="Date Default_27">
<text id="28" fill="#212121" xml:space="preserve" style="white-space: pre" font-family="Circe" font-size="13" letter-spacing="0px"><tspan x="556.307" y="297.679">28</tspan></text>
<path d="M544 274V273.5H543.5V274H544ZM584 274H584.5V273.5H584V274ZM584 314V314.5H584.5V314H584ZM544 314H543.5V314.5H544V314ZM544 274.5H584V273.5H544V274.5ZM583.5 274V314H584.5V274H583.5ZM584 313.5H544V314.5H584V313.5ZM544.5 314V274H543.5V314H544.5Z" fill="#DFDFDF"/>
</g>
</g>
<g id="Row_6">
<g id="Date Default_28">
<text id="29" fill="#212121" xml:space="preserve" style="white-space: pre" font-family="Circe" font-size="13" letter-spacing="0px"><tspan x="316.307" y="337.679">29</tspan></text>
<path d="M304 314V313.5H303.5V314H304ZM344 314H344.5V313.5H344V314ZM344 354V354.5H344.5V354H344ZM304 354H303.5V354.5H304V354ZM304 314.5H344V313.5H304V314.5ZM343.5 314V354H344.5V314H343.5ZM344 353.5H304V354.5H344V353.5ZM304.5 354V314H303.5V354H304.5Z" fill="#DFDFDF"/>
</g>
<g id="Date Default_29">
<text id="30" fill="#212121" xml:space="preserve" style="white-space: pre" font-family="Circe" font-size="13" letter-spacing="0px"><tspan x="356.307" y="337.679">30</tspan></text>
<path d="M344 314V313.5H343.5V314H344ZM384 314H384.5V313.5H384V314ZM384 354V354.5H384.5V354H384ZM344 354H343.5V354.5H344V354ZM344 314.5H384V313.5H344V314.5ZM383.5 314V354H384.5V314H383.5ZM384 353.5H344V354.5H384V353.5ZM344.5 354V314H343.5V354H344.5Z" fill="#DFDFDF"/>
</g>
<g id="Date Inactive">
<path d="M384 314H424V354H384V314Z" fill="#FCFCFC"/>
<text id="1_2" fill="#9E9E9E" xml:space="preserve" style="white-space: pre" font-family="Circe" font-size="13" letter-spacing="0px"><tspan x="400.153" y="337.679">1</tspan></text>
<path d="M384 314V313.5H383.5V314H384ZM424 314H424.5V313.5H424V314ZM424 354V354.5H424.5V354H424ZM384 354H383.5V354.5H384V354ZM384 314.5H424V313.5H384V314.5ZM423.5 314V354H424.5V314H423.5ZM424 353.5H384V354.5H424V353.5ZM384.5 354V314H383.5V354H384.5Z" fill="#DFDFDF"/>
</g>
<g id="Date Inactive_2">
<path d="M424 314H464V354H424V314Z" fill="#FCFCFC"/>
<text id="2_2" fill="#9E9E9E" xml:space="preserve" style="white-space: pre" font-family="Circe" font-size="13" letter-spacing="0px"><tspan x="440.153" y="337.679">2</tspan></text>
<path d="M424 314V313.5H423.5V314H424ZM464 314H464.5V313.5H464V314ZM464 354V354.5H464.5V354H464ZM424 354H423.5V354.5H424V354ZM424 314.5H464V313.5H424V314.5ZM463.5 314V354H464.5V314H463.5ZM464 353.5H424V354.5H464V353.5ZM424.5 354V314H423.5V354H424.5Z" fill="#DFDFDF"/>
</g>
<g id="Date Inactive_3">
<path d="M464 314H504V354H464V314Z" fill="#FCFCFC"/>
<text id="3_2" fill="#9E9E9E" xml:space="preserve" style="white-space: pre" font-family="Circe" font-size="13" letter-spacing="0px"><tspan x="480.153" y="337.679">3</tspan></text>
<path d="M464 314V313.5H463.5V314H464ZM504 314H504.5V313.5H504V314ZM504 354V354.5H504.5V354H504ZM464 354H463.5V354.5H464V354ZM464 314.5H504V313.5H464V314.5ZM503.5 314V354H504.5V314H503.5ZM504 353.5H464V354.5H504V353.5ZM464.5 354V314H463.5V354H464.5Z" fill="#DFDFDF"/>
</g>
<g id="Date Inactive_4">
<path d="M504 314H544V354H504V314Z" fill="#FCFCFC"/>
<text id="4_2" fill="#9E9E9E" xml:space="preserve" style="white-space: pre" font-family="Circe" font-size="13" letter-spacing="0px"><tspan x="520.153" y="337.679">4</tspan></text>
<path d="M504 314V313.5H503.5V314H504ZM544 314H544.5V313.5H544V314ZM544 354V354.5H544.5V354H544ZM504 354H503.5V354.5H504V354ZM504 314.5H544V313.5H504V314.5ZM543.5 314V354H544.5V314H543.5ZM544 353.5H504V354.5H544V353.5ZM504.5 354V314H503.5V354H504.5Z" fill="#DFDFDF"/>
</g>
<g id="Date Inactive_5">
<path d="M544 314H584V354H544V314Z" fill="#FCFCFC"/>
<text id="5_2" fill="#9E9E9E" xml:space="preserve" style="white-space: pre" font-family="Circe" font-size="13" letter-spacing="0px"><tspan x="560.153" y="337.679">5</tspan></text>
<path d="M544 314V313.5H543.5V314H544ZM584 314H584.5V313.5H584V314ZM584 354V354.5H584.5V354H584ZM544 354H543.5V354.5H544V354ZM544 314.5H584V313.5H544V314.5ZM583.5 314V354H584.5V314H583.5ZM584 353.5H544V354.5H584V353.5ZM544.5 354V314H543.5V354H544.5Z" fill="#DFDFDF"/>
</g>
</g>
</g>
<g id="Header">
<text id="December 2019" fill="#212121" xml:space="preserve" style="white-space: pre" font-family="Circe" font-size="19" font-weight="bold" letter-spacing="0px"><tspan x="304" y="87.377">&#x414;&#x435;&#x43a;&#x430;&#x431;&#x440;&#x44c; 2021</tspan></text>
<g id="Group 7">
<g id="icon / chevron right" opacity="0.2">
<path id="Vector 2 (Stroke)" fill-rule="evenodd" clip-rule="evenodd" d="M573.457 85.957L572.043 84.5428L577.836 78.7499L572.043 72.957L573.457 71.5428L580.664 78.7499L573.457 85.957Z" fill="black"/>
</g>
<g id="icon / chevron left">
<path id="Vector 2 (Stroke)_2" fill-rule="evenodd" clip-rule="evenodd" d="M554.543 71.543L555.957 72.9572L550.164 78.7501L555.957 84.543L554.543 85.9572L547.336 78.7501L554.543 71.543Z" fill="#212121"/>
</g>
</g>
</g>
</g>
<g id="Cursor / Pointer">
<g id="Path" filter="url(#filter4_d_2896_59818)">
<mask id="path-162-outside-1_2896_59818" maskUnits="userSpaceOnUse" x="292.145" y="25" width="18" height="21" fill="black">
<rect fill="white" x="292.145" y="25" width="18" height="21"/>
<path fill-rule="evenodd" clip-rule="evenodd" d="M297.98 37L297.093 35.6453C296.488 34.7203 295.199 34.3829 294.212 34.89L294.442 34.7718C294.197 34.8977 294.08 35.2114 294.181 35.4721L295.408 38.6474C295.602 39.1508 296.099 39.8627 296.511 40.2203C296.511 40.2203 298.98 42.2639 298.98 43.03V44H302.98H304.074H304.98H305.98V43.03C305.98 42.2639 307.489 39.8507 307.489 39.8507C307.767 39.3816 307.998 38.5552 307.998 38.0066V33.9718C307.98 33.0785 307.221 32.3545 306.284 32.3545C305.815 32.3545 305.435 32.7165 305.435 33.1634V33.4866C305.435 32.5933 304.676 31.8693 303.739 31.8693C303.27 31.8693 302.891 32.2313 302.891 32.6782V33.0013C302.891 32.108 302.131 31.3841 301.194 31.3841C300.726 31.3841 300.346 31.7461 300.346 32.193V32.5161C300.346 32.3726 300.331 32.2584 300.301 32.168L300.042 28.0012C300.007 27.4378 299.532 27 298.98 27C298.424 27 297.98 27.4476 297.98 27.9998V32V37Z"/>
</mask>
<path fill-rule="evenodd" clip-rule="evenodd" d="M297.98 37L297.093 35.6453C296.488 34.7203 295.199 34.3829 294.212 34.89L294.442 34.7718C294.197 34.8977 294.08 35.2114 294.181 35.4721L295.408 38.6474C295.602 39.1508 296.099 39.8627 296.511 40.2203C296.511 40.2203 298.98 42.2639 298.98 43.03V44H302.98H304.074H304.98H305.98V43.03C305.98 42.2639 307.489 39.8507 307.489 39.8507C307.767 39.3816 307.998 38.5552 307.998 38.0066V33.9718C307.98 33.0785 307.221 32.3545 306.284 32.3545C305.815 32.3545 305.435 32.7165 305.435 33.1634V33.4866C305.435 32.5933 304.676 31.8693 303.739 31.8693C303.27 31.8693 302.891 32.2313 302.891 32.6782V33.0013C302.891 32.108 302.131 31.3841 301.194 31.3841C300.726 31.3841 300.346 31.7461 300.346 32.193V32.5161C300.346 32.3726 300.331 32.2584 300.301 32.168L300.042 28.0012C300.007 27.4378 299.532 27 298.98 27C298.424 27 297.98 27.4476 297.98 27.9998V32V37Z" fill="white"/>
<path fill-rule="evenodd" clip-rule="evenodd" d="M297.98 37L297.093 35.6453C296.488 34.7203 295.199 34.3829 294.212 34.89L294.442 34.7718C294.197 34.8977 294.08 35.2114 294.181 35.4721L295.408 38.6474C295.602 39.1508 296.099 39.8627 296.511 40.2203C296.511 40.2203 298.98 42.2639 298.98 43.03V44H302.98H304.074H304.98H305.98V43.03C305.98 42.2639 307.489 39.8507 307.489 39.8507C307.767 39.3816 307.998 38.5552 307.998 38.0066V33.9718C307.98 33.0785 307.221 32.3545 306.284 32.3545C305.815 32.3545 305.435 32.7165 305.435 33.1634V33.4866C305.435 32.5933 304.676 31.8693 303.739 31.8693C303.27 31.8693 302.891 32.2313 302.891 32.6782V33.0013C302.891 32.108 302.131 31.3841 301.194 31.3841C300.726 31.3841 300.346 31.7461 300.346 32.193V32.5161C300.346 32.3726 300.331 32.2584 300.301 32.168L300.042 28.0012C300.007 27.4378 299.532 27 298.98 27C298.424 27 297.98 27.4476 297.98 27.9998V32V37Z" stroke="#363B3E" stroke-width="2.4" mask="url(#path-162-outside-1_2896_59818)"/>
</g>
</g>
<g id="Tooltip">
<g id="Body_7" filter="url(#filter5_dddd_2896_59818)">
<path d="M504 200C504 197.791 505.791 196 508 196H858C860.209 196 862 197.791 862 200V286C862 288.209 860.209 290 858 290H508C505.791 290 504 288.209 504 286V200Z" fill="#424242"/>
</g>
<circle id="Moderation Indicator_4" cx="531.5" cy="259.5" r="3.5" fill="#F2CBBA"/>
<circle id="Moderation Indicator_5" cx="531.5" cy="228.5" r="3.5" fill="#B0EAD5"/>
<text id="&#208;&#156;&#208;&#189;&#208;&#190;&#208;&#179;&#208;&#190;&#208;&#190;&#208;&#177;&#208;&#181;&#209;&#137;&#208;&#176;&#209;&#142;&#209;&#137;&#208;&#176;&#209;&#143; &#208;&#184;&#209;&#129;&#209;&#130;&#208;&#190;&#209;&#128;&#208;&#184;&#209;&#143; &#208;&#191;..." fill="white" xml:space="preserve" style="white-space: pre" font-family="Circe" font-size="15" letter-spacing="0.5px"><tspan x="543" y="231.745">&#x41c;&#x43d;&#x43e;&#x433;&#x43e;&#x43e;&#x431;&#x435;&#x449;&#x430;&#x44e;&#x449;&#x430;&#x44f; &#x438;&#x441;&#x442;&#x43e;&#x440;&#x438;&#x44f; &#x43f;...</tspan></text>
<text id="&#208;&#154;&#208;&#176;&#209;&#129;&#209;&#130;&#208;&#184;&#208;&#189;&#208;&#179;" fill="#9E9E9E" xml:space="preserve" style="white-space: pre" font-family="Circe" font-size="15" letter-spacing="0.5px"><tspan x="782" y="231.745">&#x41a;&#x430;&#x441;&#x442;&#x438;&#x43d;&#x433;</tspan></text>
<text id="&#208;&#158;&#209;&#128;&#208;&#177;&#208;&#184;&#209;&#130; &#209;&#129; &#209;&#132;&#209;&#130;&#208;&#190;&#209;&#128;&#208;&#190;&#208;&#188;" fill="white" xml:space="preserve" style="white-space: pre" font-family="Circe" font-size="15" letter-spacing="0.5px"><tspan x="543" y="262.745">&#x41e;&#x440;&#x431;&#x438;&#x442; &#x441; &#x444;&#x442;&#x43e;&#x440;&#x43e;&#x43c;</tspan></text>
<text id="&#208;&#161;&#209;&#138;&#208;&#181;&#208;&#188;&#208;&#186;&#208;&#184;" fill="#9E9E9E" xml:space="preserve" style="white-space: pre" font-family="Circe" font-size="15" letter-spacing="0.5px"><tspan x="785.812" y="262.745">&#x421;&#x44a;&#x435;&#x43c;&#x43a;&#x438;</tspan></text>
</g>
<g id="Cursor / Pointer_2">
<g id="Path_2" filter="url(#filter6_d_2896_59818)">
<mask id="path-170-outside-2_2896_59818" maskUnits="userSpaceOnUse" x="525.145" y="179" width="18" height="21" fill="black">
<rect fill="white" x="525.145" y="179" width="18" height="21"/>
<path fill-rule="evenodd" clip-rule="evenodd" d="M530.98 191L530.093 189.645C529.488 188.72 528.199 188.383 527.212 188.89L527.442 188.772C527.197 188.898 527.08 189.211 527.181 189.472L528.408 192.647C528.602 193.151 529.099 193.863 529.511 194.22C529.511 194.22 531.98 196.264 531.98 197.03V198H535.98H537.074H537.98H538.98V197.03C538.98 196.264 540.489 193.851 540.489 193.851C540.767 193.382 540.998 192.555 540.998 192.007V187.972C540.98 187.078 540.221 186.355 539.284 186.355C538.815 186.355 538.435 186.717 538.435 187.163V187.487C538.435 186.593 537.676 185.869 536.739 185.869C536.27 185.869 535.891 186.231 535.891 186.678V187.001C535.891 186.108 535.131 185.384 534.194 185.384C533.726 185.384 533.346 185.746 533.346 186.193V186.516C533.346 186.373 533.331 186.258 533.301 186.168L533.042 182.001C533.007 181.438 532.532 181 531.98 181C531.424 181 530.98 181.448 530.98 182V186V191Z"/>
</mask>
<path fill-rule="evenodd" clip-rule="evenodd" d="M530.98 191L530.093 189.645C529.488 188.72 528.199 188.383 527.212 188.89L527.442 188.772C527.197 188.898 527.08 189.211 527.181 189.472L528.408 192.647C528.602 193.151 529.099 193.863 529.511 194.22C529.511 194.22 531.98 196.264 531.98 197.03V198H535.98H537.074H537.98H538.98V197.03C538.98 196.264 540.489 193.851 540.489 193.851C540.767 193.382 540.998 192.555 540.998 192.007V187.972C540.98 187.078 540.221 186.355 539.284 186.355C538.815 186.355 538.435 186.717 538.435 187.163V187.487C538.435 186.593 537.676 185.869 536.739 185.869C536.27 185.869 535.891 186.231 535.891 186.678V187.001C535.891 186.108 535.131 185.384 534.194 185.384C533.726 185.384 533.346 185.746 533.346 186.193V186.516C533.346 186.373 533.331 186.258 533.301 186.168L533.042 182.001C533.007 181.438 532.532 181 531.98 181C531.424 181 530.98 181.448 530.98 182V186V191Z" fill="white"/>
<path fill-rule="evenodd" clip-rule="evenodd" d="M530.98 191L530.093 189.645C529.488 188.72 528.199 188.383 527.212 188.89L527.442 188.772C527.197 188.898 527.08 189.211 527.181 189.472L528.408 192.647C528.602 193.151 529.099 193.863 529.511 194.22C529.511 194.22 531.98 196.264 531.98 197.03V198H535.98H537.074H537.98H538.98V197.03C538.98 196.264 540.489 193.851 540.489 193.851C540.767 193.382 540.998 192.555 540.998 192.007V187.972C540.98 187.078 540.221 186.355 539.284 186.355C538.815 186.355 538.435 186.717 538.435 187.163V187.487C538.435 186.593 537.676 185.869 536.739 185.869C536.27 185.869 535.891 186.231 535.891 186.678V187.001C535.891 186.108 535.131 185.384 534.194 185.384C533.726 185.384 533.346 185.746 533.346 186.193V186.516C533.346 186.373 533.331 186.258 533.301 186.168L533.042 182.001C533.007 181.438 532.532 181 531.98 181C531.424 181 530.98 181.448 530.98 182V186V191Z" stroke="#363B3E" stroke-width="2.4" mask="url(#path-170-outside-2_2896_59818)"/>
</g>
</g>
</g>
</g>
<defs>
<filter id="filter0_ddd_2896_59818" x="0" y="179" width="312" height="80" filterUnits="userSpaceOnUse" color-interpolation-filters="sRGB">
<feFlood flood-opacity="0" result="BackgroundImageFix"/>
<feColorMatrix in="SourceAlpha" type="matrix" values="0 0 0 0 0 0 0 0 0 0 0 0 0 0 0 0 0 0 127 0" result="hardAlpha"/>
<feOffset/>
<feGaussianBlur stdDeviation="0.5"/>
<feColorMatrix type="matrix" values="0 0 0 0 0 0 0 0 0 0 0 0 0 0 0 0 0 0 0.04 0"/>
<feBlend mode="normal" in2="BackgroundImageFix" result="effect1_dropShadow_2896_59818"/>
<feColorMatrix in="SourceAlpha" type="matrix" values="0 0 0 0 0 0 0 0 0 0 0 0 0 0 0 0 0 0 127 0" result="hardAlpha"/>
<feOffset/>
<feGaussianBlur stdDeviation="1"/>
<feColorMatrix type="matrix" values="0 0 0 0 0 0 0 0 0 0 0 0 0 0 0 0 0 0 0.06 0"/>
<feBlend mode="normal" in2="effect1_dropShadow_2896_59818" result="effect2_dropShadow_2896_59818"/>
<feColorMatrix in="SourceAlpha" type="matrix" values="0 0 0 0 0 0 0 0 0 0 0 0 0 0 0 0 0 0 127 0" result="hardAlpha"/>
<feOffset dy="4"/>
<feGaussianBlur stdDeviation="4"/>
<feColorMatrix type="matrix" values="0 0 0 0 0 0 0 0 0 0 0 0 0 0 0 0 0 0 0.04 0"/>
<feBlend mode="normal" in2="effect2_dropShadow_2896_59818" result="effect3_dropShadow_2896_59818"/>
<feBlend mode="normal" in="SourceGraphic" in2="effect3_dropShadow_2896_59818" result="shape"/>
</filter>
<filter id="filter1_ddd_2896_59818" x="0" y="331" width="312" height="80" filterUnits="userSpaceOnUse" color-interpolation-filters="sRGB">
<feFlood flood-opacity="0" result="BackgroundImageFix"/>
<feColorMatrix in="SourceAlpha" type="matrix" values="0 0 0 0 0 0 0 0 0 0 0 0 0 0 0 0 0 0 127 0" result="hardAlpha"/>
<feOffset/>
<feGaussianBlur stdDeviation="0.5"/>
<feColorMatrix type="matrix" values="0 0 0 0 0 0 0 0 0 0 0 0 0 0 0 0 0 0 0.04 0"/>
<feBlend mode="normal" in2="BackgroundImageFix" result="effect1_dropShadow_2896_59818"/>
<feColorMatrix in="SourceAlpha" type="matrix" values="0 0 0 0 0 0 0 0 0 0 0 0 0 0 0 0 0 0 127 0" result="hardAlpha"/>
<feOffset/>
<feGaussianBlur stdDeviation="1"/>
<feColorMatrix type="matrix" values="0 0 0 0 0 0 0 0 0 0 0 0 0 0 0 0 0 0 0.06 0"/>
<feBlend mode="normal" in2="effect1_dropShadow_2896_59818" result="effect2_dropShadow_2896_59818"/>
<feColorMatrix in="SourceAlpha" type="matrix" values="0 0 0 0 0 0 0 0 0 0 0 0 0 0 0 0 0 0 127 0" result="hardAlpha"/>
<feOffset dy="4"/>
<feGaussianBlur stdDeviation="4"/>
<feColorMatrix type="matrix" values="0 0 0 0 0 0 0 0 0 0 0 0 0 0 0 0 0 0 0.04 0"/>
<feBlend mode="normal" in2="effect2_dropShadow_2896_59818" result="effect3_dropShadow_2896_59818"/>
<feBlend mode="normal" in="SourceGraphic" in2="effect3_dropShadow_2896_59818" result="shape"/>
</filter>
<filter id="filter2_ddd_2896_59818" x="0" y="255" width="312" height="80" filterUnits="userSpaceOnUse" color-interpolation-filters="sRGB">
<feFlood flood-opacity="0" result="BackgroundImageFix"/>
<feColorMatrix in="SourceAlpha" type="matrix" values="0 0 0 0 0 0 0 0 0 0 0 0 0 0 0 0 0 0 127 0" result="hardAlpha"/>
<feOffset/>
<feGaussianBlur stdDeviation="0.5"/>
<feColorMatrix type="matrix" values="0 0 0 0 0 0 0 0 0 0 0 0 0 0 0 0 0 0 0.04 0"/>
<feBlend mode="normal" in2="BackgroundImageFix" result="effect1_dropShadow_2896_59818"/>
<feColorMatrix in="SourceAlpha" type="matrix" values="0 0 0 0 0 0 0 0 0 0 0 0 0 0 0 0 0 0 127 0" result="hardAlpha"/>
<feOffset/>
<feGaussianBlur stdDeviation="1"/>
<feColorMatrix type="matrix" values="0 0 0 0 0 0 0 0 0 0 0 0 0 0 0 0 0 0 0.06 0"/>
<feBlend mode="normal" in2="effect1_dropShadow_2896_59818" result="effect2_dropShadow_2896_59818"/>
<feColorMatrix in="SourceAlpha" type="matrix" values="0 0 0 0 0 0 0 0 0 0 0 0 0 0 0 0 0 0 127 0" result="hardAlpha"/>
<feOffset dy="4"/>
<feGaussianBlur stdDeviation="4"/>
<feColorMatrix type="matrix" values="0 0 0 0 0 0 0 0 0 0 0 0 0 0 0 0 0 0 0.04 0"/>
<feBlend mode="normal" in2="effect2_dropShadow_2896_59818" result="effect3_dropShadow_2896_59818"/>
<feBlend mode="normal" in="SourceGraphic" in2="effect3_dropShadow_2896_59818" result="shape"/>
</filter>
<filter id="filter3_dddd_2896_59818" x="239.5" y="27.5" width="409" height="415" filterUnits="userSpaceOnUse" color-interpolation-filters="sRGB">
<feFlood flood-opacity="0" result="BackgroundImageFix"/>
<feColorMatrix in="SourceAlpha" type="matrix" values="0 0 0 0 0 0 0 0 0 0 0 0 0 0 0 0 0 0 127 0" result="hardAlpha"/>
<feOffset/>
<feGaussianBlur stdDeviation="0.5"/>
<feColorMatrix type="matrix" values="0 0 0 0 0 0 0 0 0 0 0 0 0 0 0 0 0 0 0.04 0"/>
<feBlend mode="normal" in2="BackgroundImageFix" result="effect1_dropShadow_2896_59818"/>
<feColorMatrix in="SourceAlpha" type="matrix" values="0 0 0 0 0 0 0 0 0 0 0 0 0 0 0 0 0 0 127 0" result="hardAlpha"/>
<feOffset dy="4"/>
<feGaussianBlur stdDeviation="4"/>
<feColorMatrix type="matrix" values="0 0 0 0 0 0 0 0 0 0 0 0 0 0 0 0 0 0 0.04 0"/>
<feBlend mode="normal" in2="effect1_dropShadow_2896_59818" result="effect2_dropShadow_2896_59818"/>
<feColorMatrix in="SourceAlpha" type="matrix" values="0 0 0 0 0 0 0 0 0 0 0 0 0 0 0 0 0 0 127 0" result="hardAlpha"/>
<feOffset dy="16"/>
<feGaussianBlur stdDeviation="12"/>
<feColorMatrix type="matrix" values="0 0 0 0 0 0 0 0 0 0 0 0 0 0 0 0 0 0 0.04 0"/>
<feBlend mode="normal" in2="effect2_dropShadow_2896_59818" result="effect3_dropShadow_2896_59818"/>
<feColorMatrix in="SourceAlpha" type="matrix" values="0 0 0 0 0 0 0 0 0 0 0 0 0 0 0 0 0 0 127 0" result="hardAlpha"/>
<feOffset dy="24"/>
<feGaussianBlur stdDeviation="16"/>
<feColorMatrix type="matrix" values="0 0 0 0 0 0 0 0 0 0 0 0 0 0 0 0 0 0 0.04 0"/>
<feBlend mode="normal" in2="effect3_dropShadow_2896_59818" result="effect4_dropShadow_2896_59818"/>
<feBlend mode="normal" in="SourceGraphic" in2="effect4_dropShadow_2896_59818" result="shape"/>
</filter>
<filter id="filter4_d_2896_59818" x="289.945" y="23.8" width="22.2539" height="25.3999" filterUnits="userSpaceOnUse" color-interpolation-filters="sRGB">
<feFlood flood-opacity="0" result="BackgroundImageFix"/>
<feColorMatrix in="SourceAlpha" type="matrix" values="0 0 0 0 0 0 0 0 0 0 0 0 0 0 0 0 0 0 127 0" result="hardAlpha"/>
<feOffset dy="1"/>
<feGaussianBlur stdDeviation="1.5"/>
<feColorMatrix type="matrix" values="0 0 0 0 0 0 0 0 0 0 0 0 0 0 0 0 0 0 0.2 0"/>
<feBlend mode="normal" in2="BackgroundImageFix" result="effect1_dropShadow_2896_59818"/>
<feBlend mode="normal" in="SourceGraphic" in2="effect1_dropShadow_2896_59818" result="shape"/>
</filter>
<filter id="filter5_dddd_2896_59818" x="472" y="188" width="422" height="158" filterUnits="userSpaceOnUse" color-interpolation-filters="sRGB">
<feFlood flood-opacity="0" result="BackgroundImageFix"/>
<feColorMatrix in="SourceAlpha" type="matrix" values="0 0 0 0 0 0 0 0 0 0 0 0 0 0 0 0 0 0 127 0" result="hardAlpha"/>
<feOffset/>
<feGaussianBlur stdDeviation="0.5"/>
<feColorMatrix type="matrix" values="0 0 0 0 0 0 0 0 0 0 0 0 0 0 0 0 0 0 0.04 0"/>
<feBlend mode="normal" in2="BackgroundImageFix" result="effect1_dropShadow_2896_59818"/>
<feColorMatrix in="SourceAlpha" type="matrix" values="0 0 0 0 0 0 0 0 0 0 0 0 0 0 0 0 0 0 127 0" result="hardAlpha"/>
<feOffset dy="4"/>
<feGaussianBlur stdDeviation="4"/>
<feColorMatrix type="matrix" values="0 0 0 0 0 0 0 0 0 0 0 0 0 0 0 0 0 0 0.12 0"/>
<feBlend mode="normal" in2="effect1_dropShadow_2896_59818" result="effect2_dropShadow_2896_59818"/>
<feColorMatrix in="SourceAlpha" type="matrix" values="0 0 0 0 0 0 0 0 0 0 0 0 0 0 0 0 0 0 127 0" result="hardAlpha"/>
<feOffset dy="16"/>
<feGaussianBlur stdDeviation="12"/>
<feColorMatrix type="matrix" values="0 0 0 0 0 0 0 0 0 0 0 0 0 0 0 0 0 0 0.08 0"/>
<feBlend mode="normal" in2="effect2_dropShadow_2896_59818" result="effect3_dropShadow_2896_59818"/>
<feColorMatrix in="SourceAlpha" type="matrix" values="0 0 0 0 0 0 0 0 0 0 0 0 0 0 0 0 0 0 127 0" result="hardAlpha"/>
<feOffset dy="24"/>
<feGaussianBlur stdDeviation="16"/>
<feColorMatrix type="matrix" values="0 0 0 0 0 0 0 0 0 0 0 0 0 0 0 0 0 0 0.04 0"/>
<feBlend mode="normal" in2="effect3_dropShadow_2896_59818" result="effect4_dropShadow_2896_59818"/>
<feBlend mode="normal" in="SourceGraphic" in2="effect4_dropShadow_2896_59818" result="shape"/>
</filter>
<filter id="filter6_d_2896_59818" x="522.945" y="177.8" width="22.2539" height="25.3999" filterUnits="userSpaceOnUse" color-interpolation-filters="sRGB">
<feFlood flood-opacity="0" result="BackgroundImageFix"/>
<feColorMatrix in="SourceAlpha" type="matrix" values="0 0 0 0 0 0 0 0 0 0 0 0 0 0 0 0 0 0 127 0" result="hardAlpha"/>
<feOffset dy="1"/>
<feGaussianBlur stdDeviation="1.5"/>
<feColorMatrix type="matrix" values="0 0 0 0 0 0 0 0 0 0 0 0 0 0 0 0 0 0 0.2 0"/>
<feBlend mode="normal" in2="BackgroundImageFix" result="effect1_dropShadow_2896_59818"/>
<feBlend mode="normal" in="SourceGraphic" in2="effect1_dropShadow_2896_59818" result="shape"/>
</filter>
</defs>
</svg>
