<svg width="20" height="20" viewBox="0 0 20 20" fill="none" xmlns="http://www.w3.org/2000/svg">
<path d="M11.5625 13.4367L3.125 13.4367" stroke="#9E9E9E" stroke-width="1.5" stroke-linecap="round" stroke-linejoin="round"/>
<path d="M16.875 13.4367L14.6875 13.4367" stroke="#9E9E9E" stroke-width="1.5" stroke-linecap="round" stroke-linejoin="round"/>
<path d="M13.125 14.9992C13.9879 14.9992 14.6875 14.2997 14.6875 13.4367C14.6875 12.5738 13.9879 11.8742 13.125 11.8742C12.2621 11.8742 11.5625 12.5738 11.5625 13.4367C11.5625 14.2997 12.2621 14.9992 13.125 14.9992Z" stroke="#9E9E9E" stroke-width="1.5" stroke-linecap="round" stroke-linejoin="round"/>
<path d="M6.5625 6.56172L3.125 6.56165" stroke="#9E9E9E" stroke-width="1.5" stroke-linecap="round" stroke-linejoin="round"/>
<path d="M16.875 6.56165L9.6875 6.56172" stroke="#9E9E9E" stroke-width="1.5" stroke-linecap="round" stroke-linejoin="round"/>
<path d="M8.125 8.12421C8.98794 8.12421 9.6875 7.42465 9.6875 6.56171C9.6875 5.69876 8.98794 4.99921 8.125 4.99921C7.26206 4.99921 6.5625 5.69876 6.5625 6.56171C6.5625 7.42465 7.26206 8.12421 8.125 8.12421Z" stroke="#9E9E9E" stroke-width="1.5" stroke-linecap="round" stroke-linejoin="round"/>
</svg>
