<svg width="331" height="47" viewBox="0 0 331 47" fill="none" xmlns="http://www.w3.org/2000/svg">
<rect width="105" height="24" rx="4" fill="#1991EB"/>
<text fill="white" xml:space="preserve" style="white-space: pre" font-family="Circe" font-size="13" letter-spacing="0.4px"><tspan x="12.4998" y="15.679">&#x41e;&#x434;&#x43e;&#x431;&#x440;&#x438;&#x442;&#x44c;</tspan></text>
<path d="M93.3536 12.3536C93.5488 12.1583 93.5488 11.8417 93.3536 11.6464L90.1716 8.46447C89.9763 8.2692 89.6597 8.2692 89.4645 8.46447C89.2692 8.65973 89.2692 8.97631 89.4645 9.17157L92.2929 12L89.4645 14.8284C89.2692 15.0237 89.2692 15.3403 89.4645 15.5355C89.6597 15.7308 89.9763 15.7308 90.1716 15.5355L93.3536 12.3536ZM81 12.5L93 12.5V11.5L81 11.5V12.5Z" fill="white"/>
<rect x="113" width="105" height="24" rx="4" fill="#DF8282"/>
<text fill="white" xml:space="preserve" style="white-space: pre" font-family="Circe" font-size="13" letter-spacing="0.4px"><tspan x="125.614" y="15.679">&#x41e;&#x442;&#x43b;&#x43e;&#x436;&#x438;&#x442;&#x44c;</tspan></text>
<path d="M206.354 12.3536C206.549 12.1583 206.549 11.8417 206.354 11.6464L203.172 8.46447C202.976 8.2692 202.66 8.2692 202.464 8.46447C202.269 8.65973 202.269 8.97631 202.464 9.17157L205.293 12L202.464 14.8284C202.269 15.0237 202.269 15.3403 202.464 15.5355C202.66 15.7308 202.976 15.7308 203.172 15.5355L206.354 12.3536ZM194 12.5L206 12.5V11.5L194 11.5V12.5Z" fill="white"/>
<rect x="226" width="105" height="24" rx="4" fill="#009A61"/>
<g clip-path="url(#clip0_2896_53397)">
<path d="M320.644 8.37947C320.429 8.35988 320.239 8.51818 320.22 8.73303L320.168 9.30078C319.29 7.92176 317.765 7 315.999 7C314.099 7 312.425 8.08441 311.594 9.71199C311.495 9.90412 311.572 10.1394 311.764 10.2375C311.956 10.3357 312.191 10.2595 312.289 10.0673C312.993 8.6899 314.405 7.78125 315.999 7.78125C317.452 7.78125 318.763 8.53771 319.514 9.72281L318.957 9.32502C318.781 9.19965 318.537 9.24031 318.412 9.41586C318.287 9.59143 318.327 9.83537 318.503 9.96076L320.192 11.167C320.439 11.3435 320.781 11.182 320.808 10.8846L320.998 8.80396C321.017 8.5891 320.859 8.39906 320.644 8.37947Z" fill="white"/>
<path d="M320.235 13.7625C320.043 13.6644 319.808 13.7406 319.71 13.9327C319.006 15.3102 317.594 16.2188 316 16.2188C314.547 16.2188 313.236 15.4623 312.485 14.2772L313.042 14.675C313.218 14.8004 313.462 14.7597 313.587 14.5842C313.713 14.4086 313.672 14.1647 313.496 14.0393L311.807 12.833C311.563 12.6583 311.219 12.815 311.191 13.1154L311.002 15.1961C310.982 15.4109 311.14 15.601 311.355 15.6206C311.57 15.6401 311.76 15.4817 311.78 15.267L311.831 14.6993C312.709 16.0783 314.234 17.0001 316 17.0001C317.9 17.0001 319.574 15.9156 320.406 14.2881C320.504 14.0959 320.428 13.8606 320.235 13.7625Z" fill="white"/>
</g>
<text fill="white" xml:space="preserve" style="white-space: pre" font-family="Circe" font-size="13" letter-spacing="0.4px"><tspan x="238" y="15.679">&#x412;&#x435;&#x440;&#x43d;&#x443;&#x442;&#x44c;</tspan></text>
<g filter="url(#filter0_d_2896_53397)">
<mask id="path-11-outside-1_2896_53397" maskUnits="userSpaceOnUse" x="72.1445" y="19" width="18" height="21" fill="black">
<rect fill="white" x="72.1445" y="19" width="18" height="21"/>
<path fill-rule="evenodd" clip-rule="evenodd" d="M77.9801 31L77.0935 29.6453C76.4881 28.7203 75.1986 28.3829 74.2122 28.89L74.442 28.7718C74.1973 28.8977 74.0799 29.2114 74.1807 29.4721L75.4079 32.6474C75.6025 33.1508 76.0994 33.8627 76.5111 34.2203C76.5111 34.2203 78.9801 36.2639 78.9801 37.03V38H82.9801H84.0739H84.9801H85.9801V37.03C85.9801 36.2639 87.4889 33.8507 87.4889 33.8507C87.7667 33.3816 87.9982 32.5552 87.9982 32.0066V27.9718C87.9801 27.0785 87.2207 26.3545 86.2838 26.3545C85.8151 26.3545 85.4354 26.7165 85.4354 27.1634V27.4866C85.4354 26.5933 84.6761 25.8693 83.7391 25.8693C83.2704 25.8693 82.8907 26.2313 82.8907 26.6782V27.0013C82.8907 26.108 82.1314 25.3841 81.1944 25.3841C80.7257 25.3841 80.346 25.7461 80.346 26.193V26.5161C80.346 26.3726 80.3307 26.2584 80.301 26.168L80.0423 22.0012C80.0073 21.4378 79.5324 21 78.9801 21C78.4239 21 77.9801 21.4476 77.9801 21.9998V26V31Z"/>
</mask>
<path fill-rule="evenodd" clip-rule="evenodd" d="M77.9801 31L77.0935 29.6453C76.4881 28.7203 75.1986 28.3829 74.2122 28.89L74.442 28.7718C74.1973 28.8977 74.0799 29.2114 74.1807 29.4721L75.4079 32.6474C75.6025 33.1508 76.0994 33.8627 76.5111 34.2203C76.5111 34.2203 78.9801 36.2639 78.9801 37.03V38H82.9801H84.0739H84.9801H85.9801V37.03C85.9801 36.2639 87.4889 33.8507 87.4889 33.8507C87.7667 33.3816 87.9982 32.5552 87.9982 32.0066V27.9718C87.9801 27.0785 87.2207 26.3545 86.2838 26.3545C85.8151 26.3545 85.4354 26.7165 85.4354 27.1634V27.4866C85.4354 26.5933 84.6761 25.8693 83.7391 25.8693C83.2704 25.8693 82.8907 26.2313 82.8907 26.6782V27.0013C82.8907 26.108 82.1314 25.3841 81.1944 25.3841C80.7257 25.3841 80.346 25.7461 80.346 26.193V26.5161C80.346 26.3726 80.3307 26.2584 80.301 26.168L80.0423 22.0012C80.0073 21.4378 79.5324 21 78.9801 21C78.4239 21 77.9801 21.4476 77.9801 21.9998V26V31Z" fill="white"/>
<path fill-rule="evenodd" clip-rule="evenodd" d="M77.9801 31L77.0935 29.6453C76.4881 28.7203 75.1986 28.3829 74.2122 28.89L74.442 28.7718C74.1973 28.8977 74.0799 29.2114 74.1807 29.4721L75.4079 32.6474C75.6025 33.1508 76.0994 33.8627 76.5111 34.2203C76.5111 34.2203 78.9801 36.2639 78.9801 37.03V38H82.9801H84.0739H84.9801H85.9801V37.03C85.9801 36.2639 87.4889 33.8507 87.4889 33.8507C87.7667 33.3816 87.9982 32.5552 87.9982 32.0066V27.9718C87.9801 27.0785 87.2207 26.3545 86.2838 26.3545C85.8151 26.3545 85.4354 26.7165 85.4354 27.1634V27.4866C85.4354 26.5933 84.6761 25.8693 83.7391 25.8693C83.2704 25.8693 82.8907 26.2313 82.8907 26.6782V27.0013C82.8907 26.108 82.1314 25.3841 81.1944 25.3841C80.7257 25.3841 80.346 25.7461 80.346 26.193V26.5161C80.346 26.3726 80.3307 26.2584 80.301 26.168L80.0423 22.0012C80.0073 21.4378 79.5324 21 78.9801 21C78.4239 21 77.9801 21.4476 77.9801 21.9998V26V31Z" stroke="#757575" stroke-width="2.4" mask="url(#path-11-outside-1_2896_53397)"/>
</g>
<defs>
<filter id="filter0_d_2896_53397" x="69.9453" y="17.8" width="22.2539" height="25.4" filterUnits="userSpaceOnUse" color-interpolation-filters="sRGB">
<feFlood flood-opacity="0" result="BackgroundImageFix"/>
<feColorMatrix in="SourceAlpha" type="matrix" values="0 0 0 0 0 0 0 0 0 0 0 0 0 0 0 0 0 0 127 0" result="hardAlpha"/>
<feOffset dy="1"/>
<feGaussianBlur stdDeviation="1.5"/>
<feColorMatrix type="matrix" values="0 0 0 0 0 0 0 0 0 0 0 0 0 0 0 0 0 0 0.2 0"/>
<feBlend mode="normal" in2="BackgroundImageFix" result="effect1_dropShadow_2896_53397"/>
<feBlend mode="normal" in="SourceGraphic" in2="effect1_dropShadow_2896_53397" result="shape"/>
</filter>
<clipPath id="clip0_2896_53397">
<rect width="10" height="10" fill="white" transform="translate(311 7)"/>
</clipPath>
</defs>
</svg>
