<svg width="190" height="62" viewBox="0 0 190 62" fill="none" xmlns="http://www.w3.org/2000/svg">
<g id="Buttons">
<g id="Body" filter="url(#filter0_ddd_2896_54911)">
<rect x="8" y="4" width="174" height="46" rx="8" fill="white"/>
</g>
<g id="BookmarkSimple">
<g id="BookmarkSimple_2">
<path id="Vector" d="M99.625 34.5L93.9994 31.375L88.375 34.5V20.125C88.375 19.9592 88.4408 19.8003 88.5581 19.6831C88.6753 19.5658 88.8342 19.5 89 19.5H99C99.1658 19.5 99.3247 19.5658 99.4419 19.6831C99.5592 19.8003 99.625 19.9592 99.625 20.125V34.5Z" stroke="#616161" stroke-width="1.5" stroke-linecap="round" stroke-linejoin="round"/>
<path id="Vector_2" d="M90.875 23.875H97.125" stroke="#616161" stroke-width="1.5" stroke-linecap="round" stroke-linejoin="round"/>
</g>
</g>
<g id="MonitorPlay">
<g id="MonitorPlay_2">
<path id="Vector_3" d="M127.75 26.3125L123.625 23.5625V29.0625L127.75 26.3125Z" stroke="#616161" stroke-width="1.5" stroke-linecap="round" stroke-linejoin="round"/>
<path id="Vector_4" d="M118.125 32.5H131.875C132.634 32.5 133.25 31.8844 133.25 31.125V21.5C133.25 20.7406 132.634 20.125 131.875 20.125H118.125C117.366 20.125 116.75 20.7406 116.75 21.5V31.125C116.75 31.8844 117.366 32.5 118.125 32.5Z" stroke="#616161" stroke-width="1.5" stroke-linecap="round" stroke-linejoin="round"/>
<path id="Vector_5" d="M127.75 35.25H122.25" stroke="#616161" stroke-width="1.5" stroke-linecap="round" stroke-linejoin="round"/>
</g>
</g>
<g id="ChatCircleDots">
<g id="ChatCircleDots_2">
<path id="Vector_6" d="M57.5491 30.828C56.6173 29.2572 56.291 27.4002 56.6314 25.6058C56.9718 23.8114 57.9556 22.2029 59.398 21.0826C60.8404 19.9622 62.6422 19.4069 64.4651 19.5209C66.2879 19.635 68.0065 20.4106 69.2979 21.7021C70.5894 22.9935 71.365 24.712 71.4791 26.5349C71.5932 28.3578 71.0379 30.1596 69.9175 31.602C68.7971 33.0444 67.1887 34.0282 65.3943 34.3686C63.5999 34.7091 61.7429 34.3827 60.1721 33.4509L60.1721 33.4508L57.5817 34.191C57.4746 34.2216 57.3612 34.223 57.2533 34.195C57.1454 34.1671 57.0469 34.1108 56.9681 34.0319C56.8893 33.9531 56.833 33.8547 56.805 33.7468C56.7771 33.6389 56.7785 33.5255 56.8091 33.4183L57.5492 30.8279L57.5491 30.828Z" stroke="#616161" stroke-width="1.5" stroke-linecap="round" stroke-linejoin="round"/>
<path id="Vector_7" d="M64 27.7811C64.4315 27.7811 64.7812 27.4313 64.7812 26.9998C64.7812 26.5683 64.4315 26.2186 64 26.2186C63.5685 26.2186 63.2188 26.5683 63.2188 26.9998C63.2188 27.4313 63.5685 27.7811 64 27.7811Z" fill="#616161"/>
<path id="Vector_8" d="M60.25 27.7811C60.6815 27.7811 61.0312 27.4313 61.0312 26.9998C61.0312 26.5683 60.6815 26.2186 60.25 26.2186C59.8185 26.2186 59.4688 26.5683 59.4688 26.9998C59.4688 27.4313 59.8185 27.7811 60.25 27.7811Z" fill="#616161"/>
<path id="Vector_9" d="M67.75 27.7811C68.1815 27.7811 68.5312 27.4313 68.5312 26.9998C68.5312 26.5683 68.1815 26.2186 67.75 26.2186C67.3185 26.2186 66.9688 26.5683 66.9688 26.9998C66.9688 27.4313 67.3185 27.7811 67.75 27.7811Z" fill="#616161"/>
</g>
</g>
<g id="Profile / Light / 20px">
<g id="Profile">
<circle id="Ellipse_736" cx="33.6497" cy="23.0651" r="3.98169" stroke="#616161" stroke-width="1.5" stroke-linecap="round" stroke-linejoin="round"/>
<path id="Path_33945" fill-rule="evenodd" clip-rule="evenodd" d="M27.332 32.5846C27.331 32.3047 27.3936 32.0282 27.5151 31.776C27.8965 31.0132 28.972 30.609 29.8645 30.4259C30.5081 30.2886 31.1606 30.1968 31.8172 30.1513C33.0327 30.0445 34.2553 30.0445 35.4709 30.1513C36.1274 30.1973 36.7799 30.2891 37.4236 30.4259C38.316 30.609 39.3915 30.9751 39.7729 31.776C40.0173 32.29 40.0173 32.8867 39.7729 33.4007C39.3915 34.2017 38.316 34.5678 37.4236 34.7432C36.7807 34.8863 36.1279 34.9806 35.4709 35.0255C34.4815 35.1093 33.4875 35.1246 32.496 35.0712C32.2672 35.0712 32.046 35.0712 31.8172 35.0255C31.1626 34.9812 30.5123 34.8868 29.8721 34.7432C28.972 34.5678 27.9041 34.2017 27.5151 33.4007C27.3942 33.1457 27.3317 32.8668 27.332 32.5846Z" stroke="#616161" stroke-width="1.5" stroke-linecap="round" stroke-linejoin="round"/>
</g>
</g>
<g id="TrashSimple">
<g id="TrashSimple_2">
<path id="Vector_10" d="M162.875 21.375L149.125 21.375" stroke="#616161" stroke-width="1.5" stroke-linecap="round" stroke-linejoin="round"/>
<path id="Vector_11" d="M152.875 18.875H159.125" stroke="#616161" stroke-width="1.5" stroke-linecap="round" stroke-linejoin="round"/>
<path id="Vector_12" d="M161.625 21.375V33.25C161.625 33.4158 161.559 33.5747 161.442 33.6919C161.325 33.8092 161.166 33.875 161 33.875H151C150.834 33.875 150.675 33.8092 150.558 33.6919C150.441 33.5747 150.375 33.4158 150.375 33.25V21.375" stroke="#616161" stroke-width="1.5" stroke-linecap="round" stroke-linejoin="round"/>
</g>
</g>
<g id="Cursor / Pointer">
<g id="Path" filter="url(#filter1_d_2896_54911)">
<mask id="path-16-outside-1_2896_54911" maskUnits="userSpaceOnUse" x="152.145" y="28" width="18" height="21" fill="black">
<rect fill="white" x="152.145" y="28" width="18" height="21"/>
<path fill-rule="evenodd" clip-rule="evenodd" d="M157.98 40L157.093 38.6453C156.488 37.7203 155.199 37.3829 154.212 37.89L154.442 37.7718C154.197 37.8977 154.08 38.2114 154.181 38.4721L155.408 41.6474C155.602 42.1508 156.099 42.8627 156.511 43.2203C156.511 43.2203 158.98 45.2639 158.98 46.03V47H162.98H164.074H164.98H165.98V46.03C165.98 45.2639 167.489 42.8507 167.489 42.8507C167.767 42.3816 167.998 41.5552 167.998 41.0066V36.9718C167.98 36.0785 167.221 35.3545 166.284 35.3545C165.815 35.3545 165.435 35.7165 165.435 36.1634V36.4866C165.435 35.5933 164.676 34.8693 163.739 34.8693C163.27 34.8693 162.891 35.2313 162.891 35.6782V36.0013C162.891 35.108 162.131 34.3841 161.194 34.3841C160.726 34.3841 160.346 34.7461 160.346 35.193V35.5161C160.346 35.3726 160.331 35.2584 160.301 35.168L160.042 31.0012C160.007 30.4378 159.532 30 158.98 30C158.424 30 157.98 30.4476 157.98 30.9998V35V40Z"/>
</mask>
<path fill-rule="evenodd" clip-rule="evenodd" d="M157.98 40L157.093 38.6453C156.488 37.7203 155.199 37.3829 154.212 37.89L154.442 37.7718C154.197 37.8977 154.08 38.2114 154.181 38.4721L155.408 41.6474C155.602 42.1508 156.099 42.8627 156.511 43.2203C156.511 43.2203 158.98 45.2639 158.98 46.03V47H162.98H164.074H164.98H165.98V46.03C165.98 45.2639 167.489 42.8507 167.489 42.8507C167.767 42.3816 167.998 41.5552 167.998 41.0066V36.9718C167.98 36.0785 167.221 35.3545 166.284 35.3545C165.815 35.3545 165.435 35.7165 165.435 36.1634V36.4866C165.435 35.5933 164.676 34.8693 163.739 34.8693C163.27 34.8693 162.891 35.2313 162.891 35.6782V36.0013C162.891 35.108 162.131 34.3841 161.194 34.3841C160.726 34.3841 160.346 34.7461 160.346 35.193V35.5161C160.346 35.3726 160.331 35.2584 160.301 35.168L160.042 31.0012C160.007 30.4378 159.532 30 158.98 30C158.424 30 157.98 30.4476 157.98 30.9998V35V40Z" fill="white"/>
<path fill-rule="evenodd" clip-rule="evenodd" d="M157.98 40L157.093 38.6453C156.488 37.7203 155.199 37.3829 154.212 37.89L154.442 37.7718C154.197 37.8977 154.08 38.2114 154.181 38.4721L155.408 41.6474C155.602 42.1508 156.099 42.8627 156.511 43.2203C156.511 43.2203 158.98 45.2639 158.98 46.03V47H162.98H164.074H164.98H165.98V46.03C165.98 45.2639 167.489 42.8507 167.489 42.8507C167.767 42.3816 167.998 41.5552 167.998 41.0066V36.9718C167.98 36.0785 167.221 35.3545 166.284 35.3545C165.815 35.3545 165.435 35.7165 165.435 36.1634V36.4866C165.435 35.5933 164.676 34.8693 163.739 34.8693C163.27 34.8693 162.891 35.2313 162.891 35.6782V36.0013C162.891 35.108 162.131 34.3841 161.194 34.3841C160.726 34.3841 160.346 34.7461 160.346 35.193V35.5161C160.346 35.3726 160.331 35.2584 160.301 35.168L160.042 31.0012C160.007 30.4378 159.532 30 158.98 30C158.424 30 157.98 30.4476 157.98 30.9998V35V40Z" stroke="#757575" stroke-width="2.4" mask="url(#path-16-outside-1_2896_54911)"/>
</g>
</g>
</g>
<defs>
<filter id="filter0_ddd_2896_54911" x="0" y="0" width="190" height="62" filterUnits="userSpaceOnUse" color-interpolation-filters="sRGB">
<feFlood flood-opacity="0" result="BackgroundImageFix"/>
<feColorMatrix in="SourceAlpha" type="matrix" values="0 0 0 0 0 0 0 0 0 0 0 0 0 0 0 0 0 0 127 0" result="hardAlpha"/>
<feOffset/>
<feGaussianBlur stdDeviation="0.5"/>
<feColorMatrix type="matrix" values="0 0 0 0 0 0 0 0 0 0 0 0 0 0 0 0 0 0 0.04 0"/>
<feBlend mode="normal" in2="BackgroundImageFix" result="effect1_dropShadow_2896_54911"/>
<feColorMatrix in="SourceAlpha" type="matrix" values="0 0 0 0 0 0 0 0 0 0 0 0 0 0 0 0 0 0 127 0" result="hardAlpha"/>
<feOffset/>
<feGaussianBlur stdDeviation="1"/>
<feColorMatrix type="matrix" values="0 0 0 0 0 0 0 0 0 0 0 0 0 0 0 0 0 0 0.06 0"/>
<feBlend mode="normal" in2="effect1_dropShadow_2896_54911" result="effect2_dropShadow_2896_54911"/>
<feColorMatrix in="SourceAlpha" type="matrix" values="0 0 0 0 0 0 0 0 0 0 0 0 0 0 0 0 0 0 127 0" result="hardAlpha"/>
<feOffset dy="4"/>
<feGaussianBlur stdDeviation="4"/>
<feColorMatrix type="matrix" values="0 0 0 0 0 0 0 0 0 0 0 0 0 0 0 0 0 0 0.04 0"/>
<feBlend mode="normal" in2="effect2_dropShadow_2896_54911" result="effect3_dropShadow_2896_54911"/>
<feBlend mode="normal" in="SourceGraphic" in2="effect3_dropShadow_2896_54911" result="shape"/>
</filter>
<filter id="filter1_d_2896_54911" x="149.945" y="26.8" width="22.2539" height="25.4" filterUnits="userSpaceOnUse" color-interpolation-filters="sRGB">
<feFlood flood-opacity="0" result="BackgroundImageFix"/>
<feColorMatrix in="SourceAlpha" type="matrix" values="0 0 0 0 0 0 0 0 0 0 0 0 0 0 0 0 0 0 127 0" result="hardAlpha"/>
<feOffset dy="1"/>
<feGaussianBlur stdDeviation="1.5"/>
<feColorMatrix type="matrix" values="0 0 0 0 0 0 0 0 0 0 0 0 0 0 0 0 0 0 0.2 0"/>
<feBlend mode="normal" in2="BackgroundImageFix" result="effect1_dropShadow_2896_54911"/>
<feBlend mode="normal" in="SourceGraphic" in2="effect1_dropShadow_2896_54911" result="shape"/>
</filter>
</defs>
</svg>
