<svg width="344" height="411" viewBox="0 0 344 411" fill="none" xmlns="http://www.w3.org/2000/svg">
<g filter="url(#filter0_ddd_3799_143256)">
<rect x="40" y="183" width="296" height="64" rx="8" fill="white"/>
<rect x="40.5" y="183.5" width="295" height="63" rx="7.5" stroke="#E7E7E7"/>
</g>
<circle cx="221.5" cy="207.5" r="3.5" fill="#F2CBBA"/>
<text fill="#212121" xml:space="preserve" style="white-space: pre" font-family="Circe" font-size="15" letter-spacing="0.5px"><tspan x="96" y="210.745">&#x41c;&#x430;&#x43b;&#x435;&#x43d;&#x44c;&#x43a;&#x438;&#x439; &#x433;&#x43d;&#x43e;&#x43c;</tspan></text>
<text fill="#9E9E9E" xml:space="preserve" style="white-space: pre" font-family="Circe" font-size="13" letter-spacing="0.4px"><tspan x="96" y="227.679">&#x424;&#x438;&#x43b;&#x44c;&#x43c;</tspan></text>
<path d="M314 210L319 215L314 220" stroke="#757575" stroke-width="1.5" stroke-linecap="round" stroke-linejoin="round"/>
<rect x="52" y="199" width="32" height="32" rx="2" fill="#F3F9FE"/>
<path fill-rule="evenodd" clip-rule="evenodd" d="M75 207.5H61C59.6193 207.5 58.5 208.619 58.5 210V220C58.5 221.381 59.6193 222.5 61 222.5H75C76.3807 222.5 77.5 221.381 77.5 220V210C77.5 208.619 76.3807 207.5 75 207.5ZM61 206C58.7909 206 57 207.791 57 210V220C57 222.209 58.7909 224 61 224H75C77.2091 224 79 222.209 79 220V210C79 207.791 77.2091 206 75 206H61ZM60 210.25C60 209.836 60.3358 209.5 60.75 209.5H62.25C62.6642 209.5 63 209.836 63 210.25C63 210.664 62.6642 211 62.25 211H60.75C60.3358 211 60 210.664 60 210.25ZM65.0801 209.5C64.6659 209.5 64.3301 209.836 64.3301 210.25C64.3301 210.664 64.6659 211 65.0801 211H66.5801C66.9943 211 67.3301 210.664 67.3301 210.25C67.3301 209.836 66.9943 209.5 66.5801 209.5H65.0801ZM68.6602 210.25C68.6602 209.836 68.9959 209.5 69.4102 209.5H70.9102C71.3244 209.5 71.6602 209.836 71.6602 210.25C71.6602 210.664 71.3244 211 70.9102 211H69.4102C68.9959 211 68.6602 210.664 68.6602 210.25ZM73.7402 209.5C73.326 209.5 72.9902 209.836 72.9902 210.25C72.9902 210.664 73.326 211 73.7402 211H75.2402C75.6544 211 75.9902 210.664 75.9902 210.25C75.9902 209.836 75.6544 209.5 75.2402 209.5H73.7402ZM60 220.25C60 219.836 60.3358 219.5 60.75 219.5H62.25C62.6642 219.5 63 219.836 63 220.25C63 220.664 62.6642 221 62.25 221H60.75C60.3358 221 60 220.664 60 220.25ZM65.0801 219.5C64.6659 219.5 64.3301 219.836 64.3301 220.25C64.3301 220.664 64.6659 221 65.0801 221H66.5801C66.9943 221 67.3301 220.664 67.3301 220.25C67.3301 219.836 66.9943 219.5 66.5801 219.5H65.0801ZM68.6602 220.25C68.6602 219.836 68.9959 219.5 69.4102 219.5H70.9102C71.3244 219.5 71.6602 219.836 71.6602 220.25C71.6602 220.664 71.3244 221 70.9102 221H69.4102C68.9959 221 68.6602 220.664 68.6602 220.25ZM73.7402 219.5C73.326 219.5 72.9902 219.836 72.9902 220.25C72.9902 220.664 73.326 221 73.7402 221H75.2402C75.6544 221 75.9902 220.664 75.9902 220.25C75.9902 219.836 75.6544 219.5 75.2402 219.5H73.7402Z" fill="#70A8DD"/>
<g filter="url(#filter1_ddd_3799_143256)">
<rect x="40" y="335" width="296" height="64" rx="8" fill="white"/>
<rect x="40.5" y="335.5" width="295" height="63" rx="7.5" stroke="#E7E7E7"/>
</g>
<circle cx="238.5" cy="359.5" r="3.5" fill="#B0EAD5"/>
<text fill="#212121" xml:space="preserve" style="white-space: pre" font-family="Circe" font-size="15" letter-spacing="0.5px"><tspan x="96" y="362.745">&#x41e;&#x434;&#x430;&#x440;&#x451;&#x43d;&#x43d;&#x44b;&#x439; &#x43f;&#x430;&#x440;&#x435;&#x43d;&#x44c;</tspan></text>
<text fill="#9E9E9E" xml:space="preserve" style="white-space: pre" font-family="Circe" font-size="13" letter-spacing="0.4px"><tspan x="96" y="379.679">&#x424;&#x438;&#x43b;&#x44c;&#x43c;</tspan></text>
<path d="M314 362L319 367L314 372" stroke="#757575" stroke-width="1.5" stroke-linecap="round" stroke-linejoin="round"/>
<rect x="52" y="351" width="32" height="32" rx="2" fill="#F3F9FE"/>
<path fill-rule="evenodd" clip-rule="evenodd" d="M75 359.5H61C59.6193 359.5 58.5 360.619 58.5 362V372C58.5 373.381 59.6193 374.5 61 374.5H75C76.3807 374.5 77.5 373.381 77.5 372V362C77.5 360.619 76.3807 359.5 75 359.5ZM61 358C58.7909 358 57 359.791 57 362V372C57 374.209 58.7909 376 61 376H75C77.2091 376 79 374.209 79 372V362C79 359.791 77.2091 358 75 358H61ZM60 362.25C60 361.836 60.3358 361.5 60.75 361.5H62.25C62.6642 361.5 63 361.836 63 362.25C63 362.664 62.6642 363 62.25 363H60.75C60.3358 363 60 362.664 60 362.25ZM65.0801 361.5C64.6659 361.5 64.3301 361.836 64.3301 362.25C64.3301 362.664 64.6659 363 65.0801 363H66.5801C66.9943 363 67.3301 362.664 67.3301 362.25C67.3301 361.836 66.9943 361.5 66.5801 361.5H65.0801ZM68.6602 362.25C68.6602 361.836 68.9959 361.5 69.4102 361.5H70.9102C71.3244 361.5 71.6602 361.836 71.6602 362.25C71.6602 362.664 71.3244 363 70.9102 363H69.4102C68.9959 363 68.6602 362.664 68.6602 362.25ZM73.7402 361.5C73.326 361.5 72.9902 361.836 72.9902 362.25C72.9902 362.664 73.326 363 73.7402 363H75.2402C75.6544 363 75.9902 362.664 75.9902 362.25C75.9902 361.836 75.6544 361.5 75.2402 361.5H73.7402ZM60 372.25C60 371.836 60.3358 371.5 60.75 371.5H62.25C62.6642 371.5 63 371.836 63 372.25C63 372.664 62.6642 373 62.25 373H60.75C60.3358 373 60 372.664 60 372.25ZM65.0801 371.5C64.6659 371.5 64.3301 371.836 64.3301 372.25C64.3301 372.664 64.6659 373 65.0801 373H66.5801C66.9943 373 67.3301 372.664 67.3301 372.25C67.3301 371.836 66.9943 371.5 66.5801 371.5H65.0801ZM68.6602 372.25C68.6602 371.836 68.9959 371.5 69.4102 371.5H70.9102C71.3244 371.5 71.6602 371.836 71.6602 372.25C71.6602 372.664 71.3244 373 70.9102 373H69.4102C68.9959 373 68.6602 372.664 68.6602 372.25ZM73.7402 371.5C73.326 371.5 72.9902 371.836 72.9902 372.25C72.9902 372.664 73.326 373 73.7402 373H75.2402C75.6544 373 75.9902 372.664 75.9902 372.25C75.9902 371.836 75.6544 371.5 75.2402 371.5H73.7402Z" fill="#70A8DD"/>
<g filter="url(#filter2_ddd_3799_143256)">
<rect x="40" y="259" width="296" height="64" rx="8" fill="#F3F9FE"/>
<rect x="40.5" y="259.5" width="295" height="63" rx="7.5" stroke="#70A8DD"/>
</g>
<circle cx="232.5" cy="283.5" r="3.5" fill="#F2CBBA"/>
<text fill="#212121" xml:space="preserve" style="white-space: pre" font-family="Circe" font-size="15" letter-spacing="0.5px"><tspan x="96" y="286.745">&#x411;&#x43e;&#x43b;&#x44c;&#x448;&#x435; &#x447;&#x435;&#x43c; &#x444;&#x440;&#x443;&#x43a;&#x442;</tspan></text>
<text fill="#9E9E9E" xml:space="preserve" style="white-space: pre" font-family="Circe" font-size="13" letter-spacing="0.4px"><tspan x="96" y="303.679">&#x424;&#x438;&#x43b;&#x44c;&#x43c;</tspan></text>
<path d="M314 286L319 291L314 296" stroke="#1991EB" stroke-width="1.5" stroke-linecap="round" stroke-linejoin="round"/>
<rect x="52" y="275" width="32" height="32" rx="2" fill="#E8F5FF"/>
<path fill-rule="evenodd" clip-rule="evenodd" d="M75 283.5H61C59.6193 283.5 58.5 284.619 58.5 286V296C58.5 297.381 59.6193 298.5 61 298.5H75C76.3807 298.5 77.5 297.381 77.5 296V286C77.5 284.619 76.3807 283.5 75 283.5ZM61 282C58.7909 282 57 283.791 57 286V296C57 298.209 58.7909 300 61 300H75C77.2091 300 79 298.209 79 296V286C79 283.791 77.2091 282 75 282H61ZM60 286.25C60 285.836 60.3358 285.5 60.75 285.5H62.25C62.6642 285.5 63 285.836 63 286.25C63 286.664 62.6642 287 62.25 287H60.75C60.3358 287 60 286.664 60 286.25ZM65.0801 285.5C64.6659 285.5 64.3301 285.836 64.3301 286.25C64.3301 286.664 64.6659 287 65.0801 287H66.5801C66.9943 287 67.3301 286.664 67.3301 286.25C67.3301 285.836 66.9943 285.5 66.5801 285.5H65.0801ZM68.6602 286.25C68.6602 285.836 68.9959 285.5 69.4102 285.5H70.9102C71.3244 285.5 71.6602 285.836 71.6602 286.25C71.6602 286.664 71.3244 287 70.9102 287H69.4102C68.9959 287 68.6602 286.664 68.6602 286.25ZM73.7402 285.5C73.326 285.5 72.9902 285.836 72.9902 286.25C72.9902 286.664 73.326 287 73.7402 287H75.2402C75.6544 287 75.9902 286.664 75.9902 286.25C75.9902 285.836 75.6544 285.5 75.2402 285.5H73.7402ZM60 296.25C60 295.836 60.3358 295.5 60.75 295.5H62.25C62.6642 295.5 63 295.836 63 296.25C63 296.664 62.6642 297 62.25 297H60.75C60.3358 297 60 296.664 60 296.25ZM65.0801 295.5C64.6659 295.5 64.3301 295.836 64.3301 296.25C64.3301 296.664 64.6659 297 65.0801 297H66.5801C66.9943 297 67.3301 296.664 67.3301 296.25C67.3301 295.836 66.9943 295.5 66.5801 295.5H65.0801ZM68.6602 296.25C68.6602 295.836 68.9959 295.5 69.4102 295.5H70.9102C71.3244 295.5 71.6602 295.836 71.6602 296.25C71.6602 296.664 71.3244 297 70.9102 297H69.4102C68.9959 297 68.6602 296.664 68.6602 296.25ZM73.7402 295.5C73.326 295.5 72.9902 295.836 72.9902 296.25C72.9902 296.664 73.326 297 73.7402 297H75.2402C75.6544 297 75.9902 296.664 75.9902 296.25C75.9902 295.836 75.6544 295.5 75.2402 295.5H73.7402Z" fill="#70A8DD"/>
<line x1="40" y1="94" x2="336" y2="94" stroke="#E0E0E0" stroke-width="2"/>
<text fill="#1991EB" xml:space="preserve" style="white-space: pre" font-family="Circe" font-size="12" font-weight="bold" letter-spacing="0.4px"><tspan x="40" y="79.396">&#x410;&#x41a;&#x422;&#x418;&#x412;&#x41d;&#x42b;&#x415;</tspan></text>
<text fill="#9E9E9E" xml:space="preserve" style="white-space: pre" font-family="Circe" font-size="12" font-weight="bold" letter-spacing="0.4px"><tspan x="122" y="79.396">&#x411;&#x41b;&#x41e;&#x41a;</tspan></text>
<text fill="#9E9E9E" xml:space="preserve" style="white-space: pre" font-family="Circe" font-size="12" font-weight="bold" letter-spacing="0.4px"><tspan x="170" y="79.396">&#x410;&#x420;&#x425;&#x418;&#x412;</tspan></text>
<line x1="40" y1="94" x2="110" y2="94" stroke="#1991EB" stroke-width="2"/>
<path d="M280 23.5C284.142 23.5 287.5 20.1421 287.5 16C287.5 11.8579 284.142 8.5 280 8.5C275.858 8.5 272.5 11.8579 272.5 16C272.5 20.1421 275.858 23.5 280 23.5Z" stroke="#9E9E9E" stroke-width="1.5" stroke-linecap="round" stroke-linejoin="round"/>
<path d="M280 17.875V17.25C280.494 17.25 280.978 17.1034 281.389 16.8287C281.8 16.554 282.12 16.1635 282.31 15.7067C282.499 15.2499 282.548 14.7472 282.452 14.2623C282.356 13.7773 282.117 13.3319 281.768 12.9822C281.418 12.6326 280.973 12.3945 280.488 12.298C280.003 12.2016 279.5 12.2511 279.043 12.4403C278.586 12.6295 278.196 12.95 277.921 13.3611C277.647 13.7722 277.5 14.2555 277.5 14.75" stroke="#9E9E9E" stroke-width="1.5" stroke-linecap="round" stroke-linejoin="round"/>
<path d="M280 21.3125C280.518 21.3125 280.938 20.8928 280.938 20.375C280.938 19.8572 280.518 19.4375 280 19.4375C279.482 19.4375 279.062 19.8572 279.062 20.375C279.062 20.8928 279.482 21.3125 280 21.3125Z" fill="#9E9E9E"/>
<rect x="264.5" y="0.5" width="31" height="31" rx="3.5" stroke="#E0E0E0"/>
<path d="M326.25 9.125H313.75C313.405 9.125 313.125 9.40482 313.125 9.75V22.25C313.125 22.5952 313.405 22.875 313.75 22.875H326.25C326.595 22.875 326.875 22.5952 326.875 22.25V9.75C326.875 9.40482 326.595 9.125 326.25 9.125Z" stroke="#9E9E9E" stroke-width="1.5" stroke-linecap="round" stroke-linejoin="round"/>
<path d="M323.75 7.875V10.375" stroke="#9E9E9E" stroke-width="1.5" stroke-linecap="round" stroke-linejoin="round"/>
<path d="M316.25 7.875V10.375" stroke="#9E9E9E" stroke-width="1.5" stroke-linecap="round" stroke-linejoin="round"/>
<path d="M313.125 12.875H326.875" stroke="#9E9E9E" stroke-width="1.5" stroke-linecap="round" stroke-linejoin="round"/>
<path d="M317.188 15.9995H319.375L318.125 17.562C318.331 17.562 318.533 17.6127 318.714 17.7096C318.895 17.8064 319.05 17.9465 319.164 18.1174C319.278 18.2883 319.349 18.4847 319.369 18.6892C319.389 18.8937 319.359 19.1001 319.28 19.29C319.201 19.4799 319.077 19.6475 318.918 19.778C318.76 19.9084 318.571 19.9977 318.369 20.0379C318.168 20.0781 317.959 20.0679 317.763 20.0084C317.566 19.9488 317.387 19.8417 317.242 19.6964" stroke="#9E9E9E" stroke-width="1.5" stroke-linecap="round" stroke-linejoin="round"/>
<path d="M321.25 16.9375L322.5 16V20.0625" stroke="#9E9E9E" stroke-width="1.5" stroke-linecap="round" stroke-linejoin="round"/>
<rect x="304.5" y="0.5" width="31" height="31" rx="3.5" stroke="#E0E0E0"/>
<rect x="40" y="119" width="250" height="40" rx="8" fill="#1991EB"/>
<text fill="white" xml:space="preserve" style="white-space: pre" font-family="Circe" font-size="13" font-weight="bold" letter-spacing="0.25px"><tspan x="101" y="143.179">&#x421;&#x41e;&#x417;&#x414;&#x410;&#x422;&#x42c; &#x41a;&#x410;&#x421;&#x422;&#x418;&#x41d;&#x413;</tspan></text>
<rect x="296" y="119" width="40" height="40" rx="8" fill="#A0CFFF"/>
<path d="M316 141.5C317.105 141.5 318 140.605 318 139.5C318 138.395 317.105 137.5 316 137.5C314.895 137.5 314 138.395 314 139.5C314 140.605 314.895 141.5 316 141.5Z" fill="#127FD1"/>
<path d="M310 141.5C311.105 141.5 312 140.605 312 139.5C312 138.395 311.105 137.5 310 137.5C308.895 137.5 308 138.395 308 139.5C308 140.605 308.895 141.5 310 141.5Z" fill="#127FD1"/>
<path d="M322 141.5C323.105 141.5 324 140.605 324 139.5C324 138.395 323.105 137.5 322 137.5C320.895 137.5 320 138.395 320 139.5C320 140.605 320.895 141.5 322 141.5Z" fill="#127FD1"/>
<text fill="#212121" xml:space="preserve" style="white-space: pre" font-family="Circe" font-size="21" letter-spacing="0.15px"><tspan x="40" y="21.443">&#x41a;&#x430;&#x441;&#x442;&#x438;&#x43d;&#x433;&#x438; &#x410;&#x43a;&#x442;&#x451;&#x440;&#x44b;</tspan></text>
<path d="M222.77 18.8141C222.919 18.9432 223 19.1076 223 19.3014C223 19.6888 222.648 20 222.202 20C221.979 20 221.776 19.9178 221.62 19.7828L216.993 15.6732L212.38 19.7828C212.224 19.9178 212.015 20 211.798 20C211.352 20 211 19.6888 211 19.3014C211 19.1076 211.081 18.9432 211.23 18.8141L216.371 14.2466C216.547 14.0822 216.763 14.0059 217 14C217.237 14 217.44 14.0822 217.622 14.2466L222.77 18.8141Z" fill="#616161"/>
<g filter="url(#filter3_ddd_3799_143256)">
<rect x="20" y="31" width="203" height="80" rx="8" fill="white"/>
<rect x="20.5" y="31.5" width="202" height="79" rx="7.5" stroke="#E7E7E7"/>
</g>
<rect x="28" y="39" width="187" height="32" rx="4" fill="#F2F2F2"/>
<text fill="#424242" xml:space="preserve" style="white-space: pre" font-family="Circe" font-size="14" letter-spacing="0.25px"><tspan x="40" y="58.962">&#x41a;&#x430;&#x441;&#x442;&#x438;&#x43d;&#x433;&#x438; &#x410;&#x43a;&#x442;&#x451;&#x440;&#x44b;</tspan></text>
<text fill="#424242" xml:space="preserve" style="white-space: pre" font-family="Circe" font-size="14" letter-spacing="0.25px"><tspan x="40" y="90.962">&#x41a;&#x430;&#x441;&#x442;&#x438;&#x43d;&#x433;&#x438; &#x410;&#x41c;&#x421;</tspan></text>
<mask id="path-54-outside-1_3799_143256" maskUnits="userSpaceOnUse" x="186.145" y="57" width="18" height="21" fill="black">
<rect fill="white" x="186.145" y="57" width="18" height="21"/>
<path fill-rule="evenodd" clip-rule="evenodd" d="M191.98 69L191.093 67.6453C190.488 66.7203 189.199 66.3829 188.212 66.89L188.442 66.7718C188.197 66.8977 188.08 67.2114 188.181 67.4721L189.408 70.6474C189.602 71.1508 190.099 71.8627 190.511 72.2203C190.511 72.2203 192.98 74.2639 192.98 75.03V76H196.98H198.074H198.98H199.98V75.03C199.98 74.2639 201.489 71.8507 201.489 71.8507C201.767 71.3816 201.998 70.5552 201.998 70.0066V65.9718C201.98 65.0785 201.221 64.3545 200.284 64.3545C199.815 64.3545 199.435 64.7165 199.435 65.1634V65.4866C199.435 64.5933 198.676 63.8693 197.739 63.8693C197.27 63.8693 196.891 64.2313 196.891 64.6782V65.0013C196.891 64.108 196.131 63.3841 195.194 63.3841C194.726 63.3841 194.346 63.7461 194.346 64.193V64.5161C194.346 64.3726 194.331 64.2584 194.301 64.168L194.042 60.0012C194.007 59.4378 193.532 59 192.98 59C192.424 59 191.98 59.4476 191.98 59.9998V64V69Z"/>
</mask>
<path fill-rule="evenodd" clip-rule="evenodd" d="M191.98 69L191.093 67.6453C190.488 66.7203 189.199 66.3829 188.212 66.89L188.442 66.7718C188.197 66.8977 188.08 67.2114 188.181 67.4721L189.408 70.6474C189.602 71.1508 190.099 71.8627 190.511 72.2203C190.511 72.2203 192.98 74.2639 192.98 75.03V76H196.98H198.074H198.98H199.98V75.03C199.98 74.2639 201.489 71.8507 201.489 71.8507C201.767 71.3816 201.998 70.5552 201.998 70.0066V65.9718C201.98 65.0785 201.221 64.3545 200.284 64.3545C199.815 64.3545 199.435 64.7165 199.435 65.1634V65.4866C199.435 64.5933 198.676 63.8693 197.739 63.8693C197.27 63.8693 196.891 64.2313 196.891 64.6782V65.0013C196.891 64.108 196.131 63.3841 195.194 63.3841C194.726 63.3841 194.346 63.7461 194.346 64.193V64.5161C194.346 64.3726 194.331 64.2584 194.301 64.168L194.042 60.0012C194.007 59.4378 193.532 59 192.98 59C192.424 59 191.98 59.4476 191.98 59.9998V64V69Z" fill="white"/>
<path fill-rule="evenodd" clip-rule="evenodd" d="M191.98 69L191.093 67.6453C190.488 66.7203 189.199 66.3829 188.212 66.89L188.442 66.7718C188.197 66.8977 188.08 67.2114 188.181 67.4721L189.408 70.6474C189.602 71.1508 190.099 71.8627 190.511 72.2203C190.511 72.2203 192.98 74.2639 192.98 75.03V76H196.98H198.074H198.98H199.98V75.03C199.98 74.2639 201.489 71.8507 201.489 71.8507C201.767 71.3816 201.998 70.5552 201.998 70.0066V65.9718C201.98 65.0785 201.221 64.3545 200.284 64.3545C199.815 64.3545 199.435 64.7165 199.435 65.1634V65.4866C199.435 64.5933 198.676 63.8693 197.739 63.8693C197.27 63.8693 196.891 64.2313 196.891 64.6782V65.0013C196.891 64.108 196.131 63.3841 195.194 63.3841C194.726 63.3841 194.346 63.7461 194.346 64.193V64.5161C194.346 64.3726 194.331 64.2584 194.301 64.168L194.042 60.0012C194.007 59.4378 193.532 59 192.98 59C192.424 59 191.98 59.4476 191.98 59.9998V64V69Z" stroke="#787D8C" stroke-width="2.4" mask="url(#path-54-outside-1_3799_143256)"/>
<defs>
<filter id="filter0_ddd_3799_143256" x="32" y="179" width="312" height="80" filterUnits="userSpaceOnUse" color-interpolation-filters="sRGB">
<feFlood flood-opacity="0" result="BackgroundImageFix"/>
<feColorMatrix in="SourceAlpha" type="matrix" values="0 0 0 0 0 0 0 0 0 0 0 0 0 0 0 0 0 0 127 0" result="hardAlpha"/>
<feOffset/>
<feGaussianBlur stdDeviation="0.5"/>
<feColorMatrix type="matrix" values="0 0 0 0 0 0 0 0 0 0 0 0 0 0 0 0 0 0 0.04 0"/>
<feBlend mode="normal" in2="BackgroundImageFix" result="effect1_dropShadow_3799_143256"/>
<feColorMatrix in="SourceAlpha" type="matrix" values="0 0 0 0 0 0 0 0 0 0 0 0 0 0 0 0 0 0 127 0" result="hardAlpha"/>
<feOffset/>
<feGaussianBlur stdDeviation="1"/>
<feColorMatrix type="matrix" values="0 0 0 0 0 0 0 0 0 0 0 0 0 0 0 0 0 0 0.06 0"/>
<feBlend mode="normal" in2="effect1_dropShadow_3799_143256" result="effect2_dropShadow_3799_143256"/>
<feColorMatrix in="SourceAlpha" type="matrix" values="0 0 0 0 0 0 0 0 0 0 0 0 0 0 0 0 0 0 127 0" result="hardAlpha"/>
<feOffset dy="4"/>
<feGaussianBlur stdDeviation="4"/>
<feColorMatrix type="matrix" values="0 0 0 0 0 0 0 0 0 0 0 0 0 0 0 0 0 0 0.04 0"/>
<feBlend mode="normal" in2="effect2_dropShadow_3799_143256" result="effect3_dropShadow_3799_143256"/>
<feBlend mode="normal" in="SourceGraphic" in2="effect3_dropShadow_3799_143256" result="shape"/>
</filter>
<filter id="filter1_ddd_3799_143256" x="32" y="331" width="312" height="80" filterUnits="userSpaceOnUse" color-interpolation-filters="sRGB">
<feFlood flood-opacity="0" result="BackgroundImageFix"/>
<feColorMatrix in="SourceAlpha" type="matrix" values="0 0 0 0 0 0 0 0 0 0 0 0 0 0 0 0 0 0 127 0" result="hardAlpha"/>
<feOffset/>
<feGaussianBlur stdDeviation="0.5"/>
<feColorMatrix type="matrix" values="0 0 0 0 0 0 0 0 0 0 0 0 0 0 0 0 0 0 0.04 0"/>
<feBlend mode="normal" in2="BackgroundImageFix" result="effect1_dropShadow_3799_143256"/>
<feColorMatrix in="SourceAlpha" type="matrix" values="0 0 0 0 0 0 0 0 0 0 0 0 0 0 0 0 0 0 127 0" result="hardAlpha"/>
<feOffset/>
<feGaussianBlur stdDeviation="1"/>
<feColorMatrix type="matrix" values="0 0 0 0 0 0 0 0 0 0 0 0 0 0 0 0 0 0 0.06 0"/>
<feBlend mode="normal" in2="effect1_dropShadow_3799_143256" result="effect2_dropShadow_3799_143256"/>
<feColorMatrix in="SourceAlpha" type="matrix" values="0 0 0 0 0 0 0 0 0 0 0 0 0 0 0 0 0 0 127 0" result="hardAlpha"/>
<feOffset dy="4"/>
<feGaussianBlur stdDeviation="4"/>
<feColorMatrix type="matrix" values="0 0 0 0 0 0 0 0 0 0 0 0 0 0 0 0 0 0 0.04 0"/>
<feBlend mode="normal" in2="effect2_dropShadow_3799_143256" result="effect3_dropShadow_3799_143256"/>
<feBlend mode="normal" in="SourceGraphic" in2="effect3_dropShadow_3799_143256" result="shape"/>
</filter>
<filter id="filter2_ddd_3799_143256" x="32" y="255" width="312" height="80" filterUnits="userSpaceOnUse" color-interpolation-filters="sRGB">
<feFlood flood-opacity="0" result="BackgroundImageFix"/>
<feColorMatrix in="SourceAlpha" type="matrix" values="0 0 0 0 0 0 0 0 0 0 0 0 0 0 0 0 0 0 127 0" result="hardAlpha"/>
<feOffset/>
<feGaussianBlur stdDeviation="0.5"/>
<feColorMatrix type="matrix" values="0 0 0 0 0 0 0 0 0 0 0 0 0 0 0 0 0 0 0.04 0"/>
<feBlend mode="normal" in2="BackgroundImageFix" result="effect1_dropShadow_3799_143256"/>
<feColorMatrix in="SourceAlpha" type="matrix" values="0 0 0 0 0 0 0 0 0 0 0 0 0 0 0 0 0 0 127 0" result="hardAlpha"/>
<feOffset/>
<feGaussianBlur stdDeviation="1"/>
<feColorMatrix type="matrix" values="0 0 0 0 0 0 0 0 0 0 0 0 0 0 0 0 0 0 0.06 0"/>
<feBlend mode="normal" in2="effect1_dropShadow_3799_143256" result="effect2_dropShadow_3799_143256"/>
<feColorMatrix in="SourceAlpha" type="matrix" values="0 0 0 0 0 0 0 0 0 0 0 0 0 0 0 0 0 0 127 0" result="hardAlpha"/>
<feOffset dy="4"/>
<feGaussianBlur stdDeviation="4"/>
<feColorMatrix type="matrix" values="0 0 0 0 0 0 0 0 0 0 0 0 0 0 0 0 0 0 0.04 0"/>
<feBlend mode="normal" in2="effect2_dropShadow_3799_143256" result="effect3_dropShadow_3799_143256"/>
<feBlend mode="normal" in="SourceGraphic" in2="effect3_dropShadow_3799_143256" result="shape"/>
</filter>
<filter id="filter3_ddd_3799_143256" x="0" y="21" width="243" height="120" filterUnits="userSpaceOnUse" color-interpolation-filters="sRGB">
<feFlood flood-opacity="0" result="BackgroundImageFix"/>
<feColorMatrix in="SourceAlpha" type="matrix" values="0 0 0 0 0 0 0 0 0 0 0 0 0 0 0 0 0 0 127 0" result="hardAlpha"/>
<feOffset/>
<feGaussianBlur stdDeviation="0.5"/>
<feColorMatrix type="matrix" values="0 0 0 0 0 0 0 0 0 0 0 0 0 0 0 0 0 0 0.04 0"/>
<feBlend mode="normal" in2="BackgroundImageFix" result="effect1_dropShadow_3799_143256"/>
<feColorMatrix in="SourceAlpha" type="matrix" values="0 0 0 0 0 0 0 0 0 0 0 0 0 0 0 0 0 0 127 0" result="hardAlpha"/>
<feOffset dy="2"/>
<feGaussianBlur stdDeviation="3"/>
<feColorMatrix type="matrix" values="0 0 0 0 0 0 0 0 0 0 0 0 0 0 0 0 0 0 0.08 0"/>
<feBlend mode="normal" in2="effect1_dropShadow_3799_143256" result="effect2_dropShadow_3799_143256"/>
<feColorMatrix in="SourceAlpha" type="matrix" values="0 0 0 0 0 0 0 0 0 0 0 0 0 0 0 0 0 0 127 0" result="hardAlpha"/>
<feOffset dy="10"/>
<feGaussianBlur stdDeviation="10"/>
<feColorMatrix type="matrix" values="0 0 0 0 0 0 0 0 0 0 0 0 0 0 0 0 0 0 0.08 0"/>
<feBlend mode="normal" in2="effect2_dropShadow_3799_143256" result="effect3_dropShadow_3799_143256"/>
<feBlend mode="normal" in="SourceGraphic" in2="effect3_dropShadow_3799_143256" result="shape"/>
</filter>
</defs>
</svg>
