<svg width="296" height="415" viewBox="0 0 296 415" fill="none" xmlns="http://www.w3.org/2000/svg">
<line x1="8.74228e-08" y1="94" x2="296" y2="94" stroke="#E0E0E0" stroke-width="2"/>
<path d="M1.572 79H0.084L3.636 70.576H4.932L8.484 79H6.912L6.036 76.852H2.448L1.572 79ZM5.472 75.472L4.248 72.484L3.012 75.472H5.472ZM11.6181 79H10.1421V70.6H11.6181V74.584L14.9301 70.6H16.7061L13.2501 74.512L16.9221 79H15.0501L11.6181 74.668V79ZM20.2143 71.98H17.4903V70.6H24.4143V71.98H21.6903V79H20.2143V71.98ZM31.7945 73.036L27.3905 79H26.0945V70.6H27.5705V76.576L31.9745 70.6H33.2705V79H31.7945V73.036ZM35.9984 78.988V70.624C36.8624 70.584 37.6704 70.564 38.4224 70.564C39.3504 70.564 40.0424 70.748 40.4984 71.116C40.9544 71.484 41.1824 71.992 41.1824 72.64C41.1824 73.544 40.7824 74.18 39.9824 74.548V74.572C40.4384 74.692 40.7984 74.92 41.0624 75.256C41.3264 75.584 41.4584 76.008 41.4584 76.528C41.4584 77.344 41.1784 77.968 40.6184 78.4C40.0584 78.832 39.2984 79.048 38.3384 79.048C37.3784 79.048 36.5984 79.028 35.9984 78.988ZM38.5184 75.388H37.4744V77.608C37.8504 77.648 38.1744 77.668 38.4464 77.668C39.4704 77.668 39.9824 77.264 39.9824 76.456C39.9824 76.104 39.8544 75.84 39.5984 75.664C39.3424 75.48 38.9824 75.388 38.5184 75.388ZM38.3984 71.944C38.0464 71.944 37.7384 71.956 37.4744 71.98V74.104H38.4704C38.8464 74.104 39.1464 74.008 39.3704 73.816C39.6024 73.624 39.7184 73.348 39.7184 72.988C39.7184 72.652 39.6024 72.396 39.3704 72.22C39.1384 72.036 38.8144 71.944 38.3984 71.944ZM50.5846 79H49.1206V75.412H45.2806V79H43.8046V70.6H45.2806V74.032H49.1206V70.6H50.5846V79ZM61.3501 79H59.8861V70.6H61.3501V79ZM55.6021 74.8C55.4741 74.8 55.2021 74.82 54.7861 74.86V77.608C54.8501 77.608 54.9781 77.616 55.1701 77.632C55.3621 77.64 55.4981 77.644 55.5781 77.644C56.6821 77.644 57.2341 77.152 57.2341 76.168C57.2341 75.72 57.0941 75.38 56.8141 75.148C56.5341 74.916 56.1301 74.8 55.6021 74.8ZM53.3101 70.6H54.7861V73.48C55.1301 73.44 55.4421 73.42 55.7221 73.42C56.7221 73.42 57.4821 73.66 58.0021 74.14C58.5301 74.612 58.7941 75.276 58.7941 76.132C58.7941 77.028 58.4901 77.736 57.8821 78.256C57.2821 78.768 56.4541 79.024 55.3981 79.024C54.9501 79.024 54.5621 79.02 54.2341 79.012C53.9141 79.004 53.6061 79 53.3101 79V70.6ZM69.0612 79H64.0812V70.6H68.9412V71.98H65.5572V74.068H68.5812V75.448H65.5572V77.62H69.0612V79Z" fill="#1991EB"/>
<path d="M83.164 79V70.6H88.072V71.98H84.64V73.852C84.968 73.804 85.344 73.78 85.768 73.78C86.64 73.78 87.328 74.008 87.832 74.464C88.336 74.92 88.588 75.536 88.588 76.312C88.588 77.184 88.304 77.86 87.736 78.34C87.176 78.812 86.38 79.048 85.348 79.048C85.156 79.048 84.732 79.04 84.076 79.024C83.948 79.024 83.812 79.02 83.668 79.012C83.524 79.012 83.412 79.008 83.332 79C83.26 79 83.204 79 83.164 79ZM85.648 75.16C85.344 75.16 85.008 75.184 84.64 75.232V77.62C85.032 77.652 85.344 77.668 85.576 77.668C86.608 77.668 87.124 77.252 87.124 76.42C87.124 76.028 87 75.72 86.752 75.496C86.504 75.272 86.136 75.16 85.648 75.16ZM97.3551 79H95.8911V71.98H93.4431L93.2751 73.564C93.1791 74.524 93.0551 75.344 92.9031 76.024C92.7511 76.704 92.5831 77.248 92.3991 77.656C92.2151 78.064 91.9951 78.376 91.7391 78.592C91.4911 78.808 91.2311 78.944 90.9591 79C90.6951 79.048 90.3871 79.048 90.0351 79L90.0711 77.536C90.2471 77.56 90.3911 77.552 90.5031 77.512C90.6151 77.472 90.7471 77.36 90.8991 77.176C91.0671 76.968 91.2031 76.692 91.3071 76.348C91.5951 75.492 91.8071 74.136 91.9431 72.28L92.0631 70.6H97.3551V79ZM99.4533 74.8C99.4533 73.576 99.8613 72.548 100.677 71.716C101.509 70.884 102.557 70.468 103.821 70.468C105.085 70.468 106.129 70.868 106.953 71.668C107.785 72.476 108.201 73.52 108.201 74.8C108.201 76.056 107.785 77.092 106.953 77.908C106.121 78.724 105.077 79.132 103.821 79.132C102.557 79.132 101.513 78.732 100.689 77.932C99.8653 77.132 99.4533 76.088 99.4533 74.8ZM101.013 74.8C101.013 75.648 101.281 76.352 101.817 76.912C102.353 77.472 103.021 77.752 103.821 77.752C104.685 77.752 105.369 77.472 105.873 76.912C106.385 76.352 106.641 75.648 106.641 74.8C106.641 73.944 106.369 73.236 105.825 72.676C105.281 72.124 104.613 71.848 103.821 71.848C103.013 71.848 102.341 72.124 101.805 72.676C101.277 73.228 101.013 73.936 101.013 74.8ZM111.785 79H110.309V70.6H111.785V74.584L115.097 70.6H116.873L113.417 74.512L117.089 79H115.217L111.785 74.668V79Z" fill="#9E9E9E"/>
<path d="M131.572 79H130.084L133.636 70.576H134.932L138.484 79H136.912L136.036 76.852H132.448L131.572 79ZM135.472 75.472L134.248 72.484L133.012 75.472H135.472ZM141.618 75.964V79H140.142V70.6C140.494 70.6 140.874 70.596 141.282 70.588C141.698 70.58 142.114 70.576 142.53 70.576C143.122 70.576 143.634 70.652 144.066 70.804C144.506 70.948 144.846 71.152 145.086 71.416C145.326 71.672 145.502 71.956 145.614 72.268C145.726 72.572 145.782 72.908 145.782 73.276C145.782 74.036 145.51 74.68 144.966 75.208C144.43 75.736 143.678 76 142.71 76C142.222 76 141.858 75.988 141.618 75.964ZM142.674 71.956L141.618 71.98V74.56C142.042 74.6 142.39 74.62 142.662 74.62C143.134 74.62 143.51 74.504 143.79 74.272C144.078 74.04 144.222 73.704 144.222 73.264C144.222 72.392 143.706 71.956 142.674 71.956ZM152.364 70.6H154.092L151.26 74.716L154.2 79H152.472L150.3 75.844L148.14 79H146.412L149.352 74.716L146.544 70.6H148.272L150.336 73.636L152.364 70.6ZM161.584 73.036L157.18 79H155.884V70.6H157.36V76.576L161.764 70.6H163.06V79H161.584V73.036ZM165.787 78.988V70.624C166.651 70.584 167.459 70.564 168.211 70.564C169.139 70.564 169.831 70.748 170.287 71.116C170.743 71.484 170.971 71.992 170.971 72.64C170.971 73.544 170.571 74.18 169.771 74.548V74.572C170.227 74.692 170.587 74.92 170.851 75.256C171.115 75.584 171.247 76.008 171.247 76.528C171.247 77.344 170.967 77.968 170.407 78.4C169.847 78.832 169.087 79.048 168.127 79.048C167.167 79.048 166.387 79.028 165.787 78.988ZM168.307 75.388H167.263V77.608C167.639 77.648 167.963 77.668 168.235 77.668C169.259 77.668 169.771 77.264 169.771 76.456C169.771 76.104 169.643 75.84 169.387 75.664C169.131 75.48 168.771 75.388 168.307 75.388ZM168.187 71.944C167.835 71.944 167.527 71.956 167.263 71.98V74.104H168.259C168.635 74.104 168.935 74.008 169.159 73.816C169.391 73.624 169.507 73.348 169.507 72.988C169.507 72.652 169.391 72.396 169.159 72.22C168.927 72.036 168.603 71.944 168.187 71.944Z" fill="#9E9E9E"/>
<line y1="94" x2="70" y2="94" stroke="#1991EB" stroke-width="2"/>
<path d="M240 23.5C244.142 23.5 247.5 20.1421 247.5 16C247.5 11.8579 244.142 8.5 240 8.5C235.858 8.5 232.5 11.8579 232.5 16C232.5 20.1421 235.858 23.5 240 23.5Z" stroke="#9E9E9E" stroke-width="1.5" stroke-linecap="round" stroke-linejoin="round"/>
<path d="M240 17.875V17.25C240.494 17.25 240.978 17.1034 241.389 16.8287C241.8 16.554 242.12 16.1635 242.31 15.7067C242.499 15.2499 242.548 14.7472 242.452 14.2623C242.356 13.7773 242.117 13.3319 241.768 12.9822C241.418 12.6326 240.973 12.3945 240.488 12.298C240.003 12.2016 239.5 12.2511 239.043 12.4403C238.586 12.6295 238.196 12.95 237.921 13.3611C237.647 13.7722 237.5 14.2555 237.5 14.75" stroke="#9E9E9E" stroke-width="1.5" stroke-linecap="round" stroke-linejoin="round"/>
<path d="M240 21.3125C240.518 21.3125 240.938 20.8928 240.938 20.375C240.938 19.8572 240.518 19.4375 240 19.4375C239.482 19.4375 239.062 19.8572 239.062 20.375C239.062 20.8928 239.482 21.3125 240 21.3125Z" fill="#9E9E9E"/>
<rect x="224.5" y="0.5" width="31" height="31" rx="3.5" stroke="#E0E0E0"/>
<path d="M286.25 9.125H273.75C273.405 9.125 273.125 9.40482 273.125 9.75V22.25C273.125 22.5952 273.405 22.875 273.75 22.875H286.25C286.595 22.875 286.875 22.5952 286.875 22.25V9.75C286.875 9.40482 286.595 9.125 286.25 9.125Z" stroke="#9E9E9E" stroke-width="1.5" stroke-linecap="round" stroke-linejoin="round"/>
<path d="M283.75 7.875V10.375" stroke="#9E9E9E" stroke-width="1.5" stroke-linecap="round" stroke-linejoin="round"/>
<path d="M276.25 7.875V10.375" stroke="#9E9E9E" stroke-width="1.5" stroke-linecap="round" stroke-linejoin="round"/>
<path d="M273.125 12.875H286.875" stroke="#9E9E9E" stroke-width="1.5" stroke-linecap="round" stroke-linejoin="round"/>
<path d="M277.188 15.9995H279.375L278.125 17.562C278.331 17.562 278.533 17.6127 278.714 17.7096C278.895 17.8064 279.05 17.9465 279.164 18.1174C279.278 18.2883 279.349 18.4847 279.369 18.6892C279.389 18.8937 279.359 19.1001 279.28 19.29C279.201 19.4799 279.077 19.6475 278.918 19.778C278.76 19.9084 278.571 19.9977 278.369 20.0379C278.168 20.0781 277.959 20.0679 277.763 20.0084C277.566 19.9488 277.387 19.8417 277.242 19.6964" stroke="#9E9E9E" stroke-width="1.5" stroke-linecap="round" stroke-linejoin="round"/>
<path d="M281.25 16.9375L282.5 16V20.0625" stroke="#9E9E9E" stroke-width="1.5" stroke-linecap="round" stroke-linejoin="round"/>
<rect x="264.5" y="0.5" width="31" height="31" rx="3.5" stroke="#E0E0E0"/>
<rect y="119" width="250" height="40" rx="8" fill="#1991EB"/>
<path d="M68.579 140.92L69.19 142.116C68.904 142.419 68.4923 142.666 67.955 142.857C67.4263 143.048 66.8673 143.143 66.278 143.143C64.8913 143.143 63.7603 142.714 62.885 141.856C62.0183 140.998 61.585 139.863 61.585 138.45C61.585 137.098 61.9967 135.976 62.82 135.083C63.6347 134.199 64.7743 133.757 66.239 133.757C67.4003 133.757 68.3233 134.065 69.008 134.68L68.293 135.863C67.6777 135.456 66.993 135.252 66.239 135.252C65.3723 135.252 64.6617 135.542 64.107 136.123C63.5523 136.704 63.275 137.479 63.275 138.45C63.275 139.403 63.5653 140.175 64.146 140.764C64.7353 141.353 65.4937 141.648 66.421 141.648C67.2183 141.648 67.9377 141.405 68.579 140.92ZM69.9727 138.45C69.9727 137.124 70.4147 136.01 71.2987 135.109C72.2 134.208 73.3354 133.757 74.7047 133.757C76.074 133.757 77.205 134.19 78.0977 135.057C78.999 135.932 79.4497 137.063 79.4497 138.45C79.4497 139.811 78.999 140.933 78.0977 141.817C77.1964 142.701 76.0654 143.143 74.7047 143.143C73.3354 143.143 72.2044 142.71 71.3117 141.843C70.419 140.976 69.9727 139.845 69.9727 138.45ZM71.6627 138.45C71.6627 139.369 71.953 140.131 72.5337 140.738C73.1144 141.345 73.838 141.648 74.7047 141.648C75.6407 141.648 76.3817 141.345 76.9277 140.738C77.4824 140.131 77.7597 139.369 77.7597 138.45C77.7597 137.523 77.465 136.756 76.8757 136.149C76.2864 135.551 75.5627 135.252 74.7047 135.252C73.8294 135.252 73.1014 135.551 72.5207 136.149C71.9487 136.747 71.6627 137.514 71.6627 138.45ZM83.8641 143.143C83.1621 143.143 82.5381 143 81.9921 142.714C81.4547 142.428 81.0387 142.06 80.7441 141.609L81.6151 140.53C81.9011 140.859 82.2434 141.128 82.6421 141.336C83.0407 141.544 83.4221 141.648 83.7861 141.648C84.2801 141.648 84.6831 141.531 84.9951 141.297C85.3071 141.054 85.4631 140.721 85.4631 140.296C85.4631 139.923 85.3201 139.633 85.0341 139.425C84.7567 139.208 84.3624 139.1 83.8511 139.1H82.9151V137.605H83.7991C84.1631 137.605 84.4707 137.497 84.7221 137.28C84.9821 137.055 85.1121 136.764 85.1121 136.409C85.1121 136.045 84.9907 135.763 84.7481 135.564C84.5141 135.356 84.1934 135.252 83.7861 135.252C83.0494 135.252 82.4341 135.581 81.9401 136.24L81.0171 135.174C81.3291 134.749 81.7494 134.407 82.2781 134.147C82.8067 133.887 83.3701 133.757 83.9681 133.757C84.8001 133.757 85.4631 133.978 85.9571 134.42C86.4511 134.862 86.6981 135.473 86.6981 136.253C86.6981 136.634 86.5897 137.007 86.3731 137.371C86.1651 137.735 85.8661 138.03 85.4761 138.255V138.294C85.9961 138.424 86.3861 138.68 86.6461 139.061C86.9147 139.434 87.0491 139.897 87.0491 140.452C87.0491 141.258 86.7327 141.908 86.1001 142.402C85.4761 142.896 84.7307 143.143 83.8641 143.143ZM89.7946 144.625H88.2996V141.505H89.2746C89.5346 141.202 89.8162 140.53 90.1196 139.49C90.4316 138.424 90.6179 137.167 90.6786 135.72L90.7696 133.9H96.4116V141.505H97.6466V144.625H96.1516V143H89.7946V144.625ZM92.3166 135.395L92.1736 136.981C92.0956 138.073 91.9352 139.031 91.6926 139.854C91.4412 140.712 91.2202 141.262 91.0296 141.505H94.8256V135.395H92.3166ZM99.9227 143H98.3107L102.159 133.874H103.563L107.411 143H105.708L104.759 140.673H100.872L99.9227 143ZM104.148 139.178L102.822 135.941L101.483 139.178H104.148ZM110.044 135.395H107.093V133.9H114.594V135.395H111.643V143H110.044V135.395ZM118.74 138.45C118.584 138.45 118.28 138.472 117.83 138.515V141.492C118.402 141.518 118.696 141.531 118.714 141.531C119.979 141.531 120.612 140.998 120.612 139.932C120.612 139.447 120.447 139.078 120.118 138.827C119.788 138.576 119.329 138.45 118.74 138.45ZM116.231 133.9H117.83V137.02C118.202 136.977 118.549 136.955 118.87 136.955C119.996 136.955 120.85 137.211 121.431 137.722C122.011 138.233 122.302 138.957 122.302 139.893C122.302 140.864 121.968 141.631 121.301 142.194C120.642 142.749 119.719 143.026 118.532 143.026C118.029 143.026 117.6 143.022 117.245 143.013C116.889 143.004 116.551 143 116.231 143V133.9ZM129.006 143H127.407V133.9H129.006V138.216L132.594 133.9H134.518L130.774 138.138L134.752 143H132.724L129.006 138.307V143ZM136.758 143H135.146L138.994 133.874H140.398L144.246 143H142.543L141.594 140.673H137.707L136.758 143ZM140.983 139.178L139.657 135.941L138.318 139.178H140.983ZM151.859 140.92L152.47 142.116C152.184 142.419 151.773 142.666 151.235 142.857C150.707 143.048 150.148 143.143 149.558 143.143C148.172 143.143 147.041 142.714 146.165 141.856C145.299 140.998 144.865 139.863 144.865 138.45C144.865 137.098 145.277 135.976 146.1 135.083C146.915 134.199 148.055 133.757 149.519 133.757C150.681 133.757 151.604 134.065 152.288 134.68L151.573 135.863C150.958 135.456 150.273 135.252 149.519 135.252C148.653 135.252 147.942 135.542 147.387 136.123C146.833 136.704 146.555 137.479 146.555 138.45C146.555 139.403 146.846 140.175 147.426 140.764C148.016 141.353 148.774 141.648 149.701 141.648C150.499 141.648 151.218 141.405 151.859 140.92ZM156.13 135.395H153.179V133.9H160.68V135.395H157.729V143H156.13V135.395ZM168.492 136.539L163.721 143H162.317V133.9H163.916V140.374L168.687 133.9H170.091V143H168.492V136.539ZM180.208 143H178.622V139.113H174.462V143H172.863V133.9H174.462V137.618H178.622V133.9H180.208V143ZM184.576 143H182.977V133.9H188.112V135.395H184.576V143Z" fill="white"/>
<rect x="256" y="119" width="40" height="40" rx="8" fill="#DBEDFF"/>
<path d="M276 141.5C277.105 141.5 278 140.605 278 139.5C278 138.395 277.105 137.5 276 137.5C274.895 137.5 274 138.395 274 139.5C274 140.605 274.895 141.5 276 141.5Z" fill="#1991EB"/>
<path d="M270 141.5C271.105 141.5 272 140.605 272 139.5C272 138.395 271.105 137.5 270 137.5C268.895 137.5 268 138.395 268 139.5C268 140.605 268.895 141.5 270 141.5Z" fill="#1991EB"/>
<path d="M282 141.5C283.105 141.5 284 140.605 284 139.5C284 138.395 283.105 137.5 282 137.5C280.895 137.5 280 138.395 280 139.5C280 140.605 280.895 141.5 282 141.5Z" fill="#1991EB"/>
<rect y="183" width="296" height="277" rx="8" fill="#EEEEEE"/>
<path d="M271.789 215.141H24.1055V373.899H271.789V215.141Z" fill="#E6E6E6"/>
<path d="M264.706 235.053H31.1875V364.506H264.706V235.053Z" fill="white"/>
<path d="M271.684 215H24V225.531H271.684V215Z" fill="#2D9CDB"/>
<path d="M31.8214 222.336C32.8985 222.336 33.7716 221.462 33.7716 220.384C33.7716 219.306 32.8985 218.432 31.8214 218.432C30.7443 218.432 29.8711 219.306 29.8711 220.384C29.8711 221.462 30.7443 222.336 31.8214 222.336Z" fill="white"/>
<path d="M39.2237 222.336C40.3008 222.336 41.174 221.462 41.174 220.384C41.174 219.306 40.3008 218.432 39.2237 218.432C38.1466 218.432 37.2734 219.306 37.2734 220.384C37.2734 221.462 38.1466 222.336 39.2237 222.336Z" fill="white"/>
<path d="M46.626 222.336C47.7032 222.336 48.5763 221.462 48.5763 220.384C48.5763 219.306 47.7032 218.432 46.626 218.432C45.5489 218.432 44.6758 219.306 44.6758 220.384C44.6758 221.462 45.5489 222.336 46.626 222.336Z" fill="white"/>
<path d="M112 264H52V276H112V264Z" fill="#EDEDED"/>
<path d="M71 248H53C52.4477 248 52 248.448 52 249C52 249.552 52.4477 250 53 250H71C71.5523 250 72 249.552 72 249C72 248.448 71.5523 248 71 248Z" fill="#EDEDED"/>
<path d="M71 251H53C52.4477 251 52 251.448 52 252C52 252.552 52.4477 253 53 253H71C71.5523 253 72 252.552 72 252C72 251.448 71.5523 251 71 251Z" fill="#EDEDED"/>
<path d="M66 254H53C52.4477 254 52 254.448 52 255C52 255.552 52.4477 256 53 256H66C66.5523 256 67 255.552 67 255C67 254.448 66.5523 254 66 254Z" fill="#EDEDED"/>
<path d="M112 248H100V260H112V248Z" fill="#EDEDED"/>
<path d="M96 248H84V260H96V248Z" fill="#EDEDED"/>
<path d="M112 280H52V292H112V280Z" fill="#2D9CDB"/>
<path d="M244 248H123V351H244V248Z" fill="#F8F8F8"/>
<path d="M10.794 6.3H12.957L6.405 13.209L13.293 21H11.004L4.347 13.335L10.794 6.3ZM3.99 21H2.205V6.3H3.99V21ZM15.8857 13.545L15.4447 12.201C16.3827 11.627 17.4327 11.34 18.5947 11.34C19.8687 11.34 20.7927 11.655 21.3667 12.285C21.9407 12.915 22.2277 13.888 22.2277 15.204V21H20.6317V19.782C19.8897 20.692 18.8817 21.147 17.6077 21.147C16.7397 21.147 16.0397 20.888 15.5077 20.37C14.9757 19.838 14.7097 19.124 14.7097 18.228C14.7097 17.304 15.0387 16.576 15.6967 16.044C16.3547 15.498 17.2157 15.225 18.2797 15.225C19.2737 15.225 20.0577 15.428 20.6317 15.834C20.6317 14.77 20.4847 14.007 20.1907 13.545C19.8967 13.083 19.3297 12.852 18.4897 12.852C17.6357 12.852 16.7677 13.083 15.8857 13.545ZM18.1957 19.635C19.1337 19.635 19.9457 19.229 20.6317 18.417V17.22C20.0437 16.8 19.3367 16.59 18.5107 16.59C17.9367 16.59 17.4537 16.73 17.0617 17.01C16.6837 17.276 16.4947 17.654 16.4947 18.144C16.4947 18.606 16.6417 18.97 16.9357 19.236C17.2437 19.502 17.6637 19.635 18.1957 19.635ZM32.4569 18.417L33.2549 19.635C32.4429 20.685 31.2319 21.21 29.6219 21.21C28.1099 21.21 26.8849 20.762 25.9469 19.866C25.0229 18.97 24.5609 17.773 24.5609 16.275C24.5609 14.889 25.0159 13.72 25.9259 12.768C26.8359 11.816 27.9769 11.34 29.3489 11.34C31.0009 11.34 32.2399 11.753 33.0659 12.579L32.2889 13.902C31.5609 13.244 30.6579 12.915 29.5799 12.915C28.6979 12.915 27.9349 13.237 27.2909 13.881C26.6609 14.511 26.3459 15.309 26.3459 16.275C26.3459 17.297 26.6679 18.109 27.3119 18.711C27.9699 19.327 28.7819 19.635 29.7479 19.635C30.8399 19.635 31.7429 19.229 32.4569 18.417ZM37.7398 13.23H34.2748V11.55H42.8848V13.23H39.4198V21H37.7398V13.23ZM52.0108 13.965L46.5508 21H44.8708V11.55H46.5508V18.585L52.0108 11.55H53.6908V21H52.0108V13.965ZM65.5048 21H63.8248V17.01H58.5748V21H56.8948V11.55H58.5748V15.435H63.8248V11.55H65.5048V21ZM70.3733 21H68.6933V11.55H74.6783V13.125H70.3733V21ZM83.5917 13.965L78.1317 21H76.4517V11.55H78.1317V18.585L83.5917 11.55H85.2717V21H83.5917V13.965ZM93.9515 21H92.1455L98.4665 6.216H99.9995L106.32 21H104.409L102.519 16.548H95.8205L93.9515 21ZM101.826 14.868L99.1805 8.589L96.5345 14.868H101.826ZM114.368 11.55H116.573L112.436 16.065L116.972 21H114.641L110.378 16.17L114.368 11.55ZM109.979 21H108.299V11.55H109.979V21ZM121.176 13.23H117.711V11.55H126.321V13.23H122.856V21H121.176V13.23ZM135.455 18.648L135.98 19.971C135.07 20.797 133.887 21.21 132.431 21.21C130.891 21.21 129.666 20.762 128.756 19.866C127.832 18.97 127.37 17.773 127.37 16.275C127.37 14.861 127.804 13.685 128.672 12.747C129.526 11.809 130.716 11.34 132.242 11.34C133.502 11.34 134.545 11.746 135.371 12.558C136.211 13.356 136.631 14.392 136.631 15.666C136.631 16.072 136.596 16.45 136.526 16.8H129.26C129.33 17.682 129.659 18.375 130.247 18.879C130.849 19.383 131.619 19.635 132.557 19.635C133.789 19.635 134.755 19.306 135.455 18.648ZM132.158 12.915C131.332 12.915 130.646 13.146 130.1 13.608C129.568 14.07 129.253 14.679 129.155 15.435H134.888C134.846 14.651 134.58 14.035 134.09 13.587C133.614 13.139 132.97 12.915 132.158 12.915ZM129.029 8.19C129.029 7.896 129.12 7.665 129.302 7.497C129.484 7.315 129.722 7.224 130.016 7.224C130.268 7.224 130.485 7.315 130.667 7.497C130.849 7.679 130.94 7.91 130.94 8.19C130.94 8.512 130.849 8.771 130.667 8.967C130.499 9.149 130.282 9.24 130.016 9.24C129.722 9.24 129.484 9.149 129.302 8.967C129.12 8.771 129.029 8.512 129.029 8.19ZM133.292 8.19C133.292 7.91 133.39 7.679 133.586 7.497C133.782 7.315 134.02 7.224 134.3 7.224C134.552 7.224 134.769 7.315 134.951 7.497C135.133 7.679 135.224 7.91 135.224 8.19C135.224 8.512 135.133 8.771 134.951 8.967C134.783 9.149 134.566 9.24 134.3 9.24C134.006 9.24 133.761 9.149 133.565 8.967C133.383 8.771 133.292 8.512 133.292 8.19ZM140.74 25.2H139.06V11.55H140.74V12.663C141.076 12.271 141.538 11.956 142.126 11.718C142.714 11.466 143.323 11.34 143.953 11.34C145.297 11.34 146.354 11.788 147.124 12.684C147.922 13.566 148.321 14.714 148.321 16.128C148.321 17.57 147.866 18.781 146.956 19.761C146.06 20.727 144.877 21.21 143.407 21.21C142.273 21.21 141.384 20.993 140.74 20.559V25.2ZM143.47 12.915C142.35 12.915 141.44 13.349 140.74 14.217V18.9C141.482 19.39 142.322 19.635 143.26 19.635C144.254 19.635 145.045 19.32 145.633 18.69C146.235 18.046 146.536 17.213 146.536 16.191C146.536 15.197 146.263 14.406 145.717 13.818C145.171 13.216 144.422 12.915 143.47 12.915ZM153.924 21H150.879V11.55H152.559V14.385H154.113C155.401 14.385 156.346 14.679 156.948 15.267C157.55 15.841 157.851 16.632 157.851 17.64C157.851 18.592 157.536 19.39 156.906 20.034C156.304 20.678 155.31 21 153.924 21ZM161.337 21H159.657V11.55H161.337V21ZM153.798 15.96H152.559V19.425H153.777C154.575 19.425 155.156 19.285 155.52 19.005C155.884 18.725 156.066 18.291 156.066 17.703C156.066 16.541 155.31 15.96 153.798 15.96Z" fill="#212121"/>
<path d="M182.77 15.1859C182.919 15.0568 183 14.8924 183 14.6986C183 14.3112 182.648 14 182.202 14C181.979 14 181.776 14.0822 181.62 14.2172L176.993 18.3268L172.38 14.2172C172.224 14.0822 172.015 14 171.798 14C171.352 14 171 14.3112 171 14.6986C171 14.8924 171.081 15.0568 171.23 15.1859L176.371 19.7534C176.547 19.9178 176.763 19.9941 177 20C177.237 20 177.44 19.9178 177.622 19.7534L182.77 15.1859Z" fill="#616161"/>
</svg>
