<svg width="463" height="399" viewBox="0 0 463 399" fill="none" xmlns="http://www.w3.org/2000/svg">
<g filter="url(#filter0_ddd_2896_59089)">
<rect y="183" width="296" height="64" rx="8" fill="white"/>
<rect x="0.5" y="183.5" width="295" height="63" rx="7.5" stroke="#E7E7E7"/>
</g>
<circle cx="181.5" cy="207.5" r="3.5" fill="#F2CBBA"/>
<text fill="#212121" xml:space="preserve" style="white-space: pre" font-family="Circe" font-size="15" letter-spacing="0.5px"><tspan x="56" y="210.745">&#x41c;&#x430;&#x43b;&#x435;&#x43d;&#x44c;&#x43a;&#x438;&#x439; &#x433;&#x43d;&#x43e;&#x43c;</tspan></text>
<text fill="#9E9E9E" xml:space="preserve" style="white-space: pre" font-family="Circe" font-size="13" letter-spacing="0.4px"><tspan x="56" y="227.679">&#x424;&#x438;&#x43b;&#x44c;&#x43c;</tspan></text>
<path d="M274 210L279 215L274 220" stroke="#757575" stroke-width="1.5" stroke-linecap="round" stroke-linejoin="round"/>
<rect x="12" y="199" width="32" height="32" rx="2" fill="#F3F9FE"/>
<path fill-rule="evenodd" clip-rule="evenodd" d="M35 207.5H21C19.6193 207.5 18.5 208.619 18.5 210V220C18.5 221.381 19.6193 222.5 21 222.5H35C36.3807 222.5 37.5 221.381 37.5 220V210C37.5 208.619 36.3807 207.5 35 207.5ZM21 206C18.7909 206 17 207.791 17 210V220C17 222.209 18.7909 224 21 224H35C37.2091 224 39 222.209 39 220V210C39 207.791 37.2091 206 35 206H21ZM20 210.25C20 209.836 20.3358 209.5 20.75 209.5H22.25C22.6642 209.5 23 209.836 23 210.25C23 210.664 22.6642 211 22.25 211H20.75C20.3358 211 20 210.664 20 210.25ZM25.0801 209.5C24.6659 209.5 24.3301 209.836 24.3301 210.25C24.3301 210.664 24.6659 211 25.0801 211H26.5801C26.9943 211 27.3301 210.664 27.3301 210.25C27.3301 209.836 26.9943 209.5 26.5801 209.5H25.0801ZM28.6602 210.25C28.6602 209.836 28.9959 209.5 29.4102 209.5H30.9102C31.3244 209.5 31.6602 209.836 31.6602 210.25C31.6602 210.664 31.3244 211 30.9102 211H29.4102C28.9959 211 28.6602 210.664 28.6602 210.25ZM33.7402 209.5C33.326 209.5 32.9902 209.836 32.9902 210.25C32.9902 210.664 33.326 211 33.7402 211H35.2402C35.6544 211 35.9902 210.664 35.9902 210.25C35.9902 209.836 35.6544 209.5 35.2402 209.5H33.7402ZM20 220.25C20 219.836 20.3358 219.5 20.75 219.5H22.25C22.6642 219.5 23 219.836 23 220.25C23 220.664 22.6642 221 22.25 221H20.75C20.3358 221 20 220.664 20 220.25ZM25.0801 219.5C24.6659 219.5 24.3301 219.836 24.3301 220.25C24.3301 220.664 24.6659 221 25.0801 221H26.5801C26.9943 221 27.3301 220.664 27.3301 220.25C27.3301 219.836 26.9943 219.5 26.5801 219.5H25.0801ZM28.6602 220.25C28.6602 219.836 28.9959 219.5 29.4102 219.5H30.9102C31.3244 219.5 31.6602 219.836 31.6602 220.25C31.6602 220.664 31.3244 221 30.9102 221H29.4102C28.9959 221 28.6602 220.664 28.6602 220.25ZM33.7402 219.5C33.326 219.5 32.9902 219.836 32.9902 220.25C32.9902 220.664 33.326 221 33.7402 221H35.2402C35.6544 221 35.9902 220.664 35.9902 220.25C35.9902 219.836 35.6544 219.5 35.2402 219.5H33.7402Z" fill="#70A8DD"/>
<g filter="url(#filter1_ddd_2896_59089)">
<rect y="335" width="296" height="64" rx="8" fill="white"/>
<rect x="0.5" y="335.5" width="295" height="63" rx="7.5" stroke="#E7E7E7"/>
</g>
<circle cx="198.5" cy="359.5" r="3.5" fill="#B0EAD5"/>
<text fill="#212121" xml:space="preserve" style="white-space: pre" font-family="Circe" font-size="15" letter-spacing="0.5px"><tspan x="56" y="362.745">&#x41e;&#x434;&#x430;&#x440;&#x451;&#x43d;&#x43d;&#x44b;&#x439; &#x43f;&#x430;&#x440;&#x435;&#x43d;&#x44c;</tspan></text>
<text fill="#9E9E9E" xml:space="preserve" style="white-space: pre" font-family="Circe" font-size="13" letter-spacing="0.4px"><tspan x="56" y="379.679">&#x424;&#x438;&#x43b;&#x44c;&#x43c;</tspan></text>
<path d="M274 362L279 367L274 372" stroke="#757575" stroke-width="1.5" stroke-linecap="round" stroke-linejoin="round"/>
<rect x="12" y="351" width="32" height="32" rx="2" fill="#F3F9FE"/>
<path fill-rule="evenodd" clip-rule="evenodd" d="M35 359.5H21C19.6193 359.5 18.5 360.619 18.5 362V372C18.5 373.381 19.6193 374.5 21 374.5H35C36.3807 374.5 37.5 373.381 37.5 372V362C37.5 360.619 36.3807 359.5 35 359.5ZM21 358C18.7909 358 17 359.791 17 362V372C17 374.209 18.7909 376 21 376H35C37.2091 376 39 374.209 39 372V362C39 359.791 37.2091 358 35 358H21ZM20 362.25C20 361.836 20.3358 361.5 20.75 361.5H22.25C22.6642 361.5 23 361.836 23 362.25C23 362.664 22.6642 363 22.25 363H20.75C20.3358 363 20 362.664 20 362.25ZM25.0801 361.5C24.6659 361.5 24.3301 361.836 24.3301 362.25C24.3301 362.664 24.6659 363 25.0801 363H26.5801C26.9943 363 27.3301 362.664 27.3301 362.25C27.3301 361.836 26.9943 361.5 26.5801 361.5H25.0801ZM28.6602 362.25C28.6602 361.836 28.9959 361.5 29.4102 361.5H30.9102C31.3244 361.5 31.6602 361.836 31.6602 362.25C31.6602 362.664 31.3244 363 30.9102 363H29.4102C28.9959 363 28.6602 362.664 28.6602 362.25ZM33.7402 361.5C33.326 361.5 32.9902 361.836 32.9902 362.25C32.9902 362.664 33.326 363 33.7402 363H35.2402C35.6544 363 35.9902 362.664 35.9902 362.25C35.9902 361.836 35.6544 361.5 35.2402 361.5H33.7402ZM20 372.25C20 371.836 20.3358 371.5 20.75 371.5H22.25C22.6642 371.5 23 371.836 23 372.25C23 372.664 22.6642 373 22.25 373H20.75C20.3358 373 20 372.664 20 372.25ZM25.0801 371.5C24.6659 371.5 24.3301 371.836 24.3301 372.25C24.3301 372.664 24.6659 373 25.0801 373H26.5801C26.9943 373 27.3301 372.664 27.3301 372.25C27.3301 371.836 26.9943 371.5 26.5801 371.5H25.0801ZM28.6602 372.25C28.6602 371.836 28.9959 371.5 29.4102 371.5H30.9102C31.3244 371.5 31.6602 371.836 31.6602 372.25C31.6602 372.664 31.3244 373 30.9102 373H29.4102C28.9959 373 28.6602 372.664 28.6602 372.25ZM33.7402 371.5C33.326 371.5 32.9902 371.836 32.9902 372.25C32.9902 372.664 33.326 373 33.7402 373H35.2402C35.6544 373 35.9902 372.664 35.9902 372.25C35.9902 371.836 35.6544 371.5 35.2402 371.5H33.7402Z" fill="#70A8DD"/>
<g filter="url(#filter2_ddd_2896_59089)">
<rect y="259" width="296" height="64" rx="8" fill="#F3F9FE"/>
<rect x="0.5" y="259.5" width="295" height="63" rx="7.5" stroke="#70A8DD"/>
</g>
<circle cx="192.5" cy="283.5" r="3.5" fill="#F2CBBA"/>
<text fill="#212121" xml:space="preserve" style="white-space: pre" font-family="Circe" font-size="15" letter-spacing="0.5px"><tspan x="56" y="286.745">&#x411;&#x43e;&#x43b;&#x44c;&#x448;&#x435; &#x447;&#x435;&#x43c; &#x444;&#x440;&#x443;&#x43a;&#x442;</tspan></text>
<text fill="#9E9E9E" xml:space="preserve" style="white-space: pre" font-family="Circe" font-size="13" letter-spacing="0.4px"><tspan x="56" y="303.679">&#x424;&#x438;&#x43b;&#x44c;&#x43c;</tspan></text>
<path d="M274 286L279 291L274 296" stroke="#1991EB" stroke-width="1.5" stroke-linecap="round" stroke-linejoin="round"/>
<rect x="12" y="275" width="32" height="32" rx="2" fill="#E8F5FF"/>
<path fill-rule="evenodd" clip-rule="evenodd" d="M35 283.5H21C19.6193 283.5 18.5 284.619 18.5 286V296C18.5 297.381 19.6193 298.5 21 298.5H35C36.3807 298.5 37.5 297.381 37.5 296V286C37.5 284.619 36.3807 283.5 35 283.5ZM21 282C18.7909 282 17 283.791 17 286V296C17 298.209 18.7909 300 21 300H35C37.2091 300 39 298.209 39 296V286C39 283.791 37.2091 282 35 282H21ZM20 286.25C20 285.836 20.3358 285.5 20.75 285.5H22.25C22.6642 285.5 23 285.836 23 286.25C23 286.664 22.6642 287 22.25 287H20.75C20.3358 287 20 286.664 20 286.25ZM25.0801 285.5C24.6659 285.5 24.3301 285.836 24.3301 286.25C24.3301 286.664 24.6659 287 25.0801 287H26.5801C26.9943 287 27.3301 286.664 27.3301 286.25C27.3301 285.836 26.9943 285.5 26.5801 285.5H25.0801ZM28.6602 286.25C28.6602 285.836 28.9959 285.5 29.4102 285.5H30.9102C31.3244 285.5 31.6602 285.836 31.6602 286.25C31.6602 286.664 31.3244 287 30.9102 287H29.4102C28.9959 287 28.6602 286.664 28.6602 286.25ZM33.7402 285.5C33.326 285.5 32.9902 285.836 32.9902 286.25C32.9902 286.664 33.326 287 33.7402 287H35.2402C35.6544 287 35.9902 286.664 35.9902 286.25C35.9902 285.836 35.6544 285.5 35.2402 285.5H33.7402ZM20 296.25C20 295.836 20.3358 295.5 20.75 295.5H22.25C22.6642 295.5 23 295.836 23 296.25C23 296.664 22.6642 297 22.25 297H20.75C20.3358 297 20 296.664 20 296.25ZM25.0801 295.5C24.6659 295.5 24.3301 295.836 24.3301 296.25C24.3301 296.664 24.6659 297 25.0801 297H26.5801C26.9943 297 27.3301 296.664 27.3301 296.25C27.3301 295.836 26.9943 295.5 26.5801 295.5H25.0801ZM28.6602 296.25C28.6602 295.836 28.9959 295.5 29.4102 295.5H30.9102C31.3244 295.5 31.6602 295.836 31.6602 296.25C31.6602 296.664 31.3244 297 30.9102 297H29.4102C28.9959 297 28.6602 296.664 28.6602 296.25ZM33.7402 295.5C33.326 295.5 32.9902 295.836 32.9902 296.25C32.9902 296.664 33.326 297 33.7402 297H35.2402C35.6544 297 35.9902 296.664 35.9902 296.25C35.9902 295.836 35.6544 295.5 35.2402 295.5H33.7402Z" fill="#70A8DD"/>
<line x1="8.74228e-08" y1="94" x2="296" y2="94" stroke="#E0E0E0" stroke-width="2"/>
<text fill="#1991EB" xml:space="preserve" style="white-space: pre" font-family="Circe" font-size="12" font-weight="bold" letter-spacing="0.4px"><tspan x="0" y="79.396">&#x410;&#x41a;&#x422;&#x418;&#x412;&#x41d;&#x42b;&#x415;</tspan></text>
<text fill="#9E9E9E" xml:space="preserve" style="white-space: pre" font-family="Circe" font-size="12" font-weight="bold" letter-spacing="0.4px"><tspan x="82" y="79.396">&#x411;&#x41b;&#x41e;&#x41a;</tspan></text>
<text fill="#9E9E9E" xml:space="preserve" style="white-space: pre" font-family="Circe" font-size="12" font-weight="bold" letter-spacing="0.4px"><tspan x="130" y="79.396">&#x410;&#x420;&#x425;&#x418;&#x412;</tspan></text>
<line y1="94" x2="70" y2="94" stroke="#1991EB" stroke-width="2"/>
<path d="M240 23.5C244.142 23.5 247.5 20.1421 247.5 16C247.5 11.8579 244.142 8.5 240 8.5C235.858 8.5 232.5 11.8579 232.5 16C232.5 20.1421 235.858 23.5 240 23.5Z" stroke="#9E9E9E" stroke-width="1.5" stroke-linecap="round" stroke-linejoin="round"/>
<path d="M240 17.875V17.25C240.494 17.25 240.978 17.1034 241.389 16.8287C241.8 16.554 242.12 16.1635 242.31 15.7067C242.499 15.2499 242.548 14.7472 242.452 14.2623C242.356 13.7773 242.117 13.3319 241.768 12.9822C241.418 12.6326 240.973 12.3945 240.488 12.298C240.003 12.2016 239.5 12.2511 239.043 12.4403C238.586 12.6295 238.196 12.95 237.921 13.3611C237.647 13.7722 237.5 14.2555 237.5 14.75" stroke="#9E9E9E" stroke-width="1.5" stroke-linecap="round" stroke-linejoin="round"/>
<path d="M240 21.3125C240.518 21.3125 240.938 20.8928 240.938 20.375C240.938 19.8572 240.518 19.4375 240 19.4375C239.482 19.4375 239.062 19.8572 239.062 20.375C239.062 20.8928 239.482 21.3125 240 21.3125Z" fill="#9E9E9E"/>
<rect x="224.5" y="0.5" width="31" height="31" rx="3.5" stroke="#E0E0E0"/>
<path d="M286.25 9.125H273.75C273.405 9.125 273.125 9.40482 273.125 9.75V22.25C273.125 22.5952 273.405 22.875 273.75 22.875H286.25C286.595 22.875 286.875 22.5952 286.875 22.25V9.75C286.875 9.40482 286.595 9.125 286.25 9.125Z" stroke="#9E9E9E" stroke-width="1.5" stroke-linecap="round" stroke-linejoin="round"/>
<path d="M283.75 7.875V10.375" stroke="#9E9E9E" stroke-width="1.5" stroke-linecap="round" stroke-linejoin="round"/>
<path d="M276.25 7.875V10.375" stroke="#9E9E9E" stroke-width="1.5" stroke-linecap="round" stroke-linejoin="round"/>
<path d="M273.125 12.875H286.875" stroke="#9E9E9E" stroke-width="1.5" stroke-linecap="round" stroke-linejoin="round"/>
<path d="M277.188 15.9998H279.375L278.125 17.5623C278.331 17.5623 278.533 17.6129 278.714 17.7098C278.895 17.8067 279.05 17.9468 279.164 18.1176C279.278 18.2885 279.349 18.4849 279.369 18.6895C279.389 18.894 279.359 19.1003 279.28 19.2903C279.201 19.4802 279.077 19.6478 278.918 19.7782C278.76 19.9087 278.571 19.9979 278.369 20.0381C278.168 20.0783 277.959 20.0682 277.763 20.0086C277.566 19.9491 277.387 19.8419 277.242 19.6967" stroke="#9E9E9E" stroke-width="1.5" stroke-linecap="round" stroke-linejoin="round"/>
<path d="M281.25 16.9373L282.5 15.9998V20.0623" stroke="#9E9E9E" stroke-width="1.5" stroke-linecap="round" stroke-linejoin="round"/>
<rect x="264.5" y="0.5" width="31" height="31" rx="3.5" stroke="#E0E0E0"/>
<rect y="119" width="250" height="40" rx="8" fill="#1991EB"/>
<text fill="white" xml:space="preserve" style="white-space: pre" font-family="Circe" font-size="13" font-weight="bold" letter-spacing="0.25px"><tspan x="61" y="143.179">&#x421;&#x41e;&#x417;&#x414;&#x410;&#x422;&#x42c; &#x41a;&#x410;&#x421;&#x422;&#x418;&#x41d;&#x413;</tspan></text>
<rect x="256" y="119" width="40" height="40" rx="8" fill="#A0CFFF"/>
<path d="M276 141.5C277.105 141.5 278 140.605 278 139.5C278 138.395 277.105 137.5 276 137.5C274.895 137.5 274 138.395 274 139.5C274 140.605 274.895 141.5 276 141.5Z" fill="#127FD1"/>
<path d="M270 141.5C271.105 141.5 272 140.605 272 139.5C272 138.395 271.105 137.5 270 137.5C268.895 137.5 268 138.395 268 139.5C268 140.605 268.895 141.5 270 141.5Z" fill="#127FD1"/>
<path d="M282 141.5C283.105 141.5 284 140.605 284 139.5C284 138.395 283.105 137.5 282 137.5C280.895 137.5 280 138.395 280 139.5C280 140.605 280.895 141.5 282 141.5Z" fill="#127FD1"/>
<text fill="#212121" xml:space="preserve" style="white-space: pre" font-family="Circe" font-size="21" letter-spacing="0.15px"><tspan x="0" y="21.443">&#x41a;&#x430;&#x441;&#x442;&#x438;&#x43d;&#x433;&#x438; &#x410;&#x43a;&#x442;&#x451;&#x440;&#x44b;</tspan></text>
<path d="M182.77 15.1859C182.919 15.0568 183 14.8924 183 14.6986C183 14.3112 182.648 14 182.202 14C181.979 14 181.776 14.0822 181.62 14.2172L176.993 18.3268L172.38 14.2172C172.224 14.0822 172.015 14 171.798 14C171.352 14 171 14.3112 171 14.6986C171 14.8924 171.081 15.0568 171.23 15.1859L176.371 19.7534C176.547 19.9178 176.763 19.9941 177 20C177.237 20 177.44 19.9178 177.622 19.7534L182.77 15.1859Z" fill="#616161"/>
<g filter="url(#filter3_dddd_2896_59089)">
<path d="M257 167C257 164.791 258.791 163 261 163H459C461.209 163 463 164.791 463 167V291C463 293.209 461.209 295 459 295H261C258.791 295 257 293.209 257 291V167Z" fill="white"/>
<path d="M261 163.5H459V162.5H261V163.5ZM462.5 167V291H463.5V167H462.5ZM459 294.5H261V295.5H459V294.5ZM257.5 291V167H256.5V291H257.5ZM261 294.5C259.067 294.5 257.5 292.933 257.5 291H256.5C256.5 293.485 258.515 295.5 261 295.5V294.5ZM462.5 291C462.5 292.933 460.933 294.5 459 294.5V295.5C461.485 295.5 463.5 293.485 463.5 291H462.5ZM459 163.5C460.933 163.5 462.5 165.067 462.5 167H463.5C463.5 164.515 461.485 162.5 459 162.5V163.5ZM261 162.5C258.515 162.5 256.5 164.515 256.5 167H257.5C257.5 165.067 259.067 163.5 261 163.5V162.5Z" fill="#E7E7E7"/>
</g>
<path d="M281.75 198L279.25 200.5L276.75 198" stroke="#8E9AA6" stroke-width="1.5" stroke-linecap="round" stroke-linejoin="round"/>
<path d="M279.25 185.5V200.5" stroke="#8E9AA6" stroke-width="1.5" stroke-linecap="round" stroke-linejoin="round"/>
<path d="M284.25 188L286.75 185.5L289.25 188" stroke="#8E9AA6" stroke-width="1.5" stroke-linecap="round" stroke-linejoin="round"/>
<path d="M286.75 200.5V185.5" stroke="#8E9AA6" stroke-width="1.5" stroke-linecap="round" stroke-linejoin="round"/>
<text fill="#637380" xml:space="preserve" style="white-space: pre" font-family="Circe" font-size="15" letter-spacing="0px"><tspan x="305" y="197.745">&#x418;&#x437;&#x43c;&#x435;&#x43d;&#x438;&#x442;&#x44c; &#x43f;&#x43e;&#x440;&#x44f;&#x434;&#x43e;&#x43a;</tspan></text>
<path d="M289.875 259.375L276.125 259.375" stroke="#8E9AA6" stroke-width="1.5" stroke-linecap="round" stroke-linejoin="round"/>
<path d="M281.125 263.125V268.125" stroke="#8E9AA6" stroke-width="1.5" stroke-linecap="round" stroke-linejoin="round"/>
<path d="M284.875 263.125V268.125" stroke="#8E9AA6" stroke-width="1.5" stroke-linecap="round" stroke-linejoin="round"/>
<path d="M279.875 256.875H286.125" stroke="#8E9AA6" stroke-width="1.5" stroke-linecap="round" stroke-linejoin="round"/>
<path d="M288.625 259.375V271.25C288.625 271.416 288.559 271.575 288.442 271.692C288.325 271.809 288.166 271.875 288 271.875H278C277.834 271.875 277.675 271.809 277.558 271.692C277.441 271.575 277.375 271.416 277.375 271.25V259.375" stroke="#8E9AA6" stroke-width="1.5" stroke-linecap="round" stroke-linejoin="round"/>
<text fill="#637380" xml:space="preserve" style="white-space: pre" font-family="Circe" font-size="15" letter-spacing="0px"><tspan x="305" y="269.745">&#x423;&#x434;&#x430;&#x43b;&#x438;&#x442;&#x44c;</tspan></text>
<path d="M280.5 235.875H276.75C276.584 235.875 276.425 235.809 276.308 235.692C276.191 235.575 276.125 235.416 276.125 235.25V231.759C276.125 231.677 276.141 231.595 276.173 231.52C276.204 231.444 276.25 231.375 276.308 231.317L285.683 221.942C285.8 221.825 285.959 221.759 286.125 221.759C286.291 221.759 286.45 221.825 286.567 221.942L290.058 225.433C290.175 225.55 290.241 225.709 290.241 225.875C290.241 226.041 290.175 226.2 290.058 226.317L280.5 235.875Z" stroke="#8E9AA6" stroke-width="1.5" stroke-linecap="round" stroke-linejoin="round"/>
<path d="M283.625 224L288 228.375" stroke="#8E9AA6" stroke-width="1.5" stroke-linecap="round" stroke-linejoin="round"/>
<text fill="#637380" xml:space="preserve" style="white-space: pre" font-family="Circe" font-size="15" letter-spacing="0px"><tspan x="305" y="233.745">&#x41f;&#x435;&#x440;&#x435;&#x438;&#x43c;&#x435;&#x43d;&#x43e;&#x432;&#x430;&#x442;&#x44c;</tspan></text>
<g filter="url(#filter4_d_2896_59089)">
<mask id="path-65-outside-1_2896_59089" maskUnits="userSpaceOnUse" x="281.145" y="151" width="18" height="21" fill="black">
<rect fill="white" x="281.145" y="151" width="18" height="21"/>
<path fill-rule="evenodd" clip-rule="evenodd" d="M286.98 163L286.093 161.645C285.488 160.72 284.199 160.383 283.212 160.89L283.442 160.772C283.197 160.898 283.08 161.211 283.181 161.472L284.408 164.647C284.602 165.151 285.099 165.863 285.511 166.22C285.511 166.22 287.98 168.264 287.98 169.03V170H291.98H293.074H293.98H294.98V169.03C294.98 168.264 296.489 165.851 296.489 165.851C296.767 165.382 296.998 164.555 296.998 164.007V159.972C296.98 159.078 296.221 158.355 295.284 158.355C294.815 158.355 294.435 158.717 294.435 159.163V159.487C294.435 158.593 293.676 157.869 292.739 157.869C292.27 157.869 291.891 158.231 291.891 158.678V159.001C291.891 158.108 291.131 157.384 290.194 157.384C289.726 157.384 289.346 157.746 289.346 158.193V158.516C289.346 158.373 289.331 158.258 289.301 158.168L289.042 154.001C289.007 153.438 288.532 153 287.98 153C287.424 153 286.98 153.448 286.98 154V158V163Z"/>
</mask>
<path fill-rule="evenodd" clip-rule="evenodd" d="M286.98 163L286.093 161.645C285.488 160.72 284.199 160.383 283.212 160.89L283.442 160.772C283.197 160.898 283.08 161.211 283.181 161.472L284.408 164.647C284.602 165.151 285.099 165.863 285.511 166.22C285.511 166.22 287.98 168.264 287.98 169.03V170H291.98H293.074H293.98H294.98V169.03C294.98 168.264 296.489 165.851 296.489 165.851C296.767 165.382 296.998 164.555 296.998 164.007V159.972C296.98 159.078 296.221 158.355 295.284 158.355C294.815 158.355 294.435 158.717 294.435 159.163V159.487C294.435 158.593 293.676 157.869 292.739 157.869C292.27 157.869 291.891 158.231 291.891 158.678V159.001C291.891 158.108 291.131 157.384 290.194 157.384C289.726 157.384 289.346 157.746 289.346 158.193V158.516C289.346 158.373 289.331 158.258 289.301 158.168L289.042 154.001C289.007 153.438 288.532 153 287.98 153C287.424 153 286.98 153.448 286.98 154V158V163Z" fill="white"/>
<path fill-rule="evenodd" clip-rule="evenodd" d="M286.98 163L286.093 161.645C285.488 160.72 284.199 160.383 283.212 160.89L283.442 160.772C283.197 160.898 283.08 161.211 283.181 161.472L284.408 164.647C284.602 165.151 285.099 165.863 285.511 166.22C285.511 166.22 287.98 168.264 287.98 169.03V170H291.98H293.074H293.98H294.98V169.03C294.98 168.264 296.489 165.851 296.489 165.851C296.767 165.382 296.998 164.555 296.998 164.007V159.972C296.98 159.078 296.221 158.355 295.284 158.355C294.815 158.355 294.435 158.717 294.435 159.163V159.487C294.435 158.593 293.676 157.869 292.739 157.869C292.27 157.869 291.891 158.231 291.891 158.678V159.001C291.891 158.108 291.131 157.384 290.194 157.384C289.726 157.384 289.346 157.746 289.346 158.193V158.516C289.346 158.373 289.331 158.258 289.301 158.168L289.042 154.001C289.007 153.438 288.532 153 287.98 153C287.424 153 286.98 153.448 286.98 154V158V163Z" stroke="#363B3E" stroke-width="2.4" mask="url(#path-65-outside-1_2896_59089)"/>
</g>
<defs>
<filter id="filter0_ddd_2896_59089" x="-8" y="179" width="312" height="80" filterUnits="userSpaceOnUse" color-interpolation-filters="sRGB">
<feFlood flood-opacity="0" result="BackgroundImageFix"/>
<feColorMatrix in="SourceAlpha" type="matrix" values="0 0 0 0 0 0 0 0 0 0 0 0 0 0 0 0 0 0 127 0" result="hardAlpha"/>
<feOffset/>
<feGaussianBlur stdDeviation="0.5"/>
<feColorMatrix type="matrix" values="0 0 0 0 0 0 0 0 0 0 0 0 0 0 0 0 0 0 0.04 0"/>
<feBlend mode="normal" in2="BackgroundImageFix" result="effect1_dropShadow_2896_59089"/>
<feColorMatrix in="SourceAlpha" type="matrix" values="0 0 0 0 0 0 0 0 0 0 0 0 0 0 0 0 0 0 127 0" result="hardAlpha"/>
<feOffset/>
<feGaussianBlur stdDeviation="1"/>
<feColorMatrix type="matrix" values="0 0 0 0 0 0 0 0 0 0 0 0 0 0 0 0 0 0 0.06 0"/>
<feBlend mode="normal" in2="effect1_dropShadow_2896_59089" result="effect2_dropShadow_2896_59089"/>
<feColorMatrix in="SourceAlpha" type="matrix" values="0 0 0 0 0 0 0 0 0 0 0 0 0 0 0 0 0 0 127 0" result="hardAlpha"/>
<feOffset dy="4"/>
<feGaussianBlur stdDeviation="4"/>
<feColorMatrix type="matrix" values="0 0 0 0 0 0 0 0 0 0 0 0 0 0 0 0 0 0 0.04 0"/>
<feBlend mode="normal" in2="effect2_dropShadow_2896_59089" result="effect3_dropShadow_2896_59089"/>
<feBlend mode="normal" in="SourceGraphic" in2="effect3_dropShadow_2896_59089" result="shape"/>
</filter>
<filter id="filter1_ddd_2896_59089" x="-8" y="331" width="312" height="80" filterUnits="userSpaceOnUse" color-interpolation-filters="sRGB">
<feFlood flood-opacity="0" result="BackgroundImageFix"/>
<feColorMatrix in="SourceAlpha" type="matrix" values="0 0 0 0 0 0 0 0 0 0 0 0 0 0 0 0 0 0 127 0" result="hardAlpha"/>
<feOffset/>
<feGaussianBlur stdDeviation="0.5"/>
<feColorMatrix type="matrix" values="0 0 0 0 0 0 0 0 0 0 0 0 0 0 0 0 0 0 0.04 0"/>
<feBlend mode="normal" in2="BackgroundImageFix" result="effect1_dropShadow_2896_59089"/>
<feColorMatrix in="SourceAlpha" type="matrix" values="0 0 0 0 0 0 0 0 0 0 0 0 0 0 0 0 0 0 127 0" result="hardAlpha"/>
<feOffset/>
<feGaussianBlur stdDeviation="1"/>
<feColorMatrix type="matrix" values="0 0 0 0 0 0 0 0 0 0 0 0 0 0 0 0 0 0 0.06 0"/>
<feBlend mode="normal" in2="effect1_dropShadow_2896_59089" result="effect2_dropShadow_2896_59089"/>
<feColorMatrix in="SourceAlpha" type="matrix" values="0 0 0 0 0 0 0 0 0 0 0 0 0 0 0 0 0 0 127 0" result="hardAlpha"/>
<feOffset dy="4"/>
<feGaussianBlur stdDeviation="4"/>
<feColorMatrix type="matrix" values="0 0 0 0 0 0 0 0 0 0 0 0 0 0 0 0 0 0 0.04 0"/>
<feBlend mode="normal" in2="effect2_dropShadow_2896_59089" result="effect3_dropShadow_2896_59089"/>
<feBlend mode="normal" in="SourceGraphic" in2="effect3_dropShadow_2896_59089" result="shape"/>
</filter>
<filter id="filter2_ddd_2896_59089" x="-8" y="255" width="312" height="80" filterUnits="userSpaceOnUse" color-interpolation-filters="sRGB">
<feFlood flood-opacity="0" result="BackgroundImageFix"/>
<feColorMatrix in="SourceAlpha" type="matrix" values="0 0 0 0 0 0 0 0 0 0 0 0 0 0 0 0 0 0 127 0" result="hardAlpha"/>
<feOffset/>
<feGaussianBlur stdDeviation="0.5"/>
<feColorMatrix type="matrix" values="0 0 0 0 0 0 0 0 0 0 0 0 0 0 0 0 0 0 0.04 0"/>
<feBlend mode="normal" in2="BackgroundImageFix" result="effect1_dropShadow_2896_59089"/>
<feColorMatrix in="SourceAlpha" type="matrix" values="0 0 0 0 0 0 0 0 0 0 0 0 0 0 0 0 0 0 127 0" result="hardAlpha"/>
<feOffset/>
<feGaussianBlur stdDeviation="1"/>
<feColorMatrix type="matrix" values="0 0 0 0 0 0 0 0 0 0 0 0 0 0 0 0 0 0 0.06 0"/>
<feBlend mode="normal" in2="effect1_dropShadow_2896_59089" result="effect2_dropShadow_2896_59089"/>
<feColorMatrix in="SourceAlpha" type="matrix" values="0 0 0 0 0 0 0 0 0 0 0 0 0 0 0 0 0 0 127 0" result="hardAlpha"/>
<feOffset dy="4"/>
<feGaussianBlur stdDeviation="4"/>
<feColorMatrix type="matrix" values="0 0 0 0 0 0 0 0 0 0 0 0 0 0 0 0 0 0 0.04 0"/>
<feBlend mode="normal" in2="effect2_dropShadow_2896_59089" result="effect3_dropShadow_2896_59089"/>
<feBlend mode="normal" in="SourceGraphic" in2="effect3_dropShadow_2896_59089" result="shape"/>
</filter>
<filter id="filter3_dddd_2896_59089" x="224.5" y="154.5" width="271" height="197" filterUnits="userSpaceOnUse" color-interpolation-filters="sRGB">
<feFlood flood-opacity="0" result="BackgroundImageFix"/>
<feColorMatrix in="SourceAlpha" type="matrix" values="0 0 0 0 0 0 0 0 0 0 0 0 0 0 0 0 0 0 127 0" result="hardAlpha"/>
<feOffset/>
<feGaussianBlur stdDeviation="0.5"/>
<feColorMatrix type="matrix" values="0 0 0 0 0 0 0 0 0 0 0 0 0 0 0 0 0 0 0.04 0"/>
<feBlend mode="normal" in2="BackgroundImageFix" result="effect1_dropShadow_2896_59089"/>
<feColorMatrix in="SourceAlpha" type="matrix" values="0 0 0 0 0 0 0 0 0 0 0 0 0 0 0 0 0 0 127 0" result="hardAlpha"/>
<feOffset dy="4"/>
<feGaussianBlur stdDeviation="4"/>
<feColorMatrix type="matrix" values="0 0 0 0 0 0 0 0 0 0 0 0 0 0 0 0 0 0 0.04 0"/>
<feBlend mode="normal" in2="effect1_dropShadow_2896_59089" result="effect2_dropShadow_2896_59089"/>
<feColorMatrix in="SourceAlpha" type="matrix" values="0 0 0 0 0 0 0 0 0 0 0 0 0 0 0 0 0 0 127 0" result="hardAlpha"/>
<feOffset dy="16"/>
<feGaussianBlur stdDeviation="12"/>
<feColorMatrix type="matrix" values="0 0 0 0 0 0 0 0 0 0 0 0 0 0 0 0 0 0 0.04 0"/>
<feBlend mode="normal" in2="effect2_dropShadow_2896_59089" result="effect3_dropShadow_2896_59089"/>
<feColorMatrix in="SourceAlpha" type="matrix" values="0 0 0 0 0 0 0 0 0 0 0 0 0 0 0 0 0 0 127 0" result="hardAlpha"/>
<feOffset dy="24"/>
<feGaussianBlur stdDeviation="16"/>
<feColorMatrix type="matrix" values="0 0 0 0 0 0 0 0 0 0 0 0 0 0 0 0 0 0 0.04 0"/>
<feBlend mode="normal" in2="effect3_dropShadow_2896_59089" result="effect4_dropShadow_2896_59089"/>
<feBlend mode="normal" in="SourceGraphic" in2="effect4_dropShadow_2896_59089" result="shape"/>
</filter>
<filter id="filter4_d_2896_59089" x="278.945" y="149.8" width="22.2539" height="25.3999" filterUnits="userSpaceOnUse" color-interpolation-filters="sRGB">
<feFlood flood-opacity="0" result="BackgroundImageFix"/>
<feColorMatrix in="SourceAlpha" type="matrix" values="0 0 0 0 0 0 0 0 0 0 0 0 0 0 0 0 0 0 127 0" result="hardAlpha"/>
<feOffset dy="1"/>
<feGaussianBlur stdDeviation="1.5"/>
<feColorMatrix type="matrix" values="0 0 0 0 0 0 0 0 0 0 0 0 0 0 0 0 0 0 0.2 0"/>
<feBlend mode="normal" in2="BackgroundImageFix" result="effect1_dropShadow_2896_59089"/>
<feBlend mode="normal" in="SourceGraphic" in2="effect1_dropShadow_2896_59089" result="shape"/>
</filter>
</defs>
</svg>
