<svg width="20" height="20" viewBox="0 0 20 20" fill="none" xmlns="http://www.w3.org/2000/svg">
<path d="M10 17.5C14.1421 17.5 17.5 14.1421 17.5 10C17.5 5.85786 14.1421 2.5 10 2.5C5.85786 2.5 2.5 5.85786 2.5 10C2.5 14.1421 5.85786 17.5 10 17.5Z" stroke="#9E9E9E" stroke-width="1.5" stroke-linecap="round" stroke-linejoin="round"/>
<path d="M13.2485 11.8745C12.9191 12.4444 12.4455 12.9175 11.8753 13.2465C11.3052 13.5754 10.6585 13.7486 10.0003 13.7486C9.34201 13.7486 8.69535 13.5755 8.12519 13.2465C7.55502 12.9176 7.08143 12.4444 6.75195 11.8746" stroke="#9E9E9E" stroke-width="1.5" stroke-linecap="round" stroke-linejoin="round"/>
<path d="M7.1875 9.21875C7.61897 9.21875 7.96875 8.86897 7.96875 8.4375C7.96875 8.00603 7.61897 7.65625 7.1875 7.65625C6.75603 7.65625 6.40625 8.00603 6.40625 8.4375C6.40625 8.86897 6.75603 9.21875 7.1875 9.21875Z" fill="#9E9E9E"/>
<path d="M12.8125 9.21875C13.244 9.21875 13.5938 8.86897 13.5938 8.4375C13.5938 8.00603 13.244 7.65625 12.8125 7.65625C12.381 7.65625 12.0312 8.00603 12.0312 8.4375C12.0312 8.86897 12.381 9.21875 12.8125 9.21875Z" fill="#9E9E9E"/>
</svg>
