<svg width="32" height="32" viewBox="0 0 32 32" fill="none" xmlns="http://www.w3.org/2000/svg">
<rect width="32" height="32" rx="2" fill="#F3F9FE"/>
<path fill-rule="evenodd" clip-rule="evenodd" d="M11.7622 6.1427C11.5551 5.78398 11.678 5.32529 12.0367 5.11818C12.3954 4.91108 12.8541 5.03398 13.0612 5.3927L14.8026 8.40889C14.8207 8.44012 14.8362 8.4721 14.8493 8.50461C15.2217 8.50161 15.6053 8.50002 16 8.50002C16.2426 8.50002 16.481 8.50062 16.7152 8.50178C16.7282 8.46973 16.7435 8.4382 16.7613 8.40741L18.499 5.39759C18.7061 5.03887 19.1648 4.91596 19.5235 5.12307C19.8823 5.33017 20.0052 5.78887 19.7981 6.14759L18.4278 8.52092C21.476 8.57457 23.6609 8.72115 24.9825 8.83818C25.8809 8.91773 26.5763 9.62007 26.6622 10.5179C26.8082 12.0449 27 14.5225 27 17C27 19.4776 26.8082 21.9551 26.6622 23.4822C26.5763 24.38 25.8809 25.0823 24.9825 25.1619C24.5052 25.2041 23.9152 25.2503 23.2126 25.2945L22.907 26.4352C22.7997 26.8353 22.3885 27.0727 21.9884 26.9655C21.5883 26.8583 21.3509 26.4471 21.4581 26.047L21.6369 25.3795C20.1151 25.449 18.2361 25.5 16 25.5C13.7623 25.5 11.8822 25.4489 10.3599 25.3794L10.5389 26.0474C10.6461 26.4475 10.4086 26.8587 10.0085 26.9659C9.60842 27.0731 9.19717 26.8357 9.08996 26.4356L8.78414 25.2943C8.08297 25.2501 7.49407 25.2041 7.01745 25.1619C6.11907 25.0823 5.42369 24.38 5.33784 23.4822C5.19182 21.9551 5 19.4776 5 17C5 14.5225 5.19182 12.0449 5.33784 10.5179C5.42369 9.62007 6.11907 8.91773 7.01745 8.83818C8.27576 8.72676 10.3166 8.58854 13.1401 8.52925L11.7622 6.1427ZM6.83103 23.3394C6.68712 21.8344 6.5 19.4098 6.5 17C6.5 14.5902 6.68712 12.1657 6.83103 10.6607C6.84931 10.4694 6.98421 10.347 7.14976 10.3323C8.7554 10.1902 11.7054 10 16 10C17.7813 10 19.3312 10.0327 20.6499 10.0812V23.9189C19.3312 23.9673 17.7813 24 16 24C11.7054 24 8.7554 23.8099 7.14976 23.6677C6.98421 23.653 6.84931 23.5306 6.83103 23.3394ZM22.1499 23.8528C23.2825 23.7942 24.1826 23.7268 24.8502 23.6677C25.0158 23.653 25.1507 23.5306 25.169 23.3394C25.3129 21.8344 25.5 19.4098 25.5 17C25.5 14.5902 25.3129 12.1657 25.169 10.6607C25.1507 10.4694 25.0158 10.347 24.8502 10.3323C24.1826 10.2732 23.2825 10.2058 22.1499 10.1472V23.8528ZM24.5 13.75C24.5 14.1642 24.1642 14.5 23.75 14.5C23.3358 14.5 23 14.1642 23 13.75C23 13.3358 23.3358 13 23.75 13C24.1642 13 24.5 13.3358 24.5 13.75ZM23.75 16.5C24.1642 16.5 24.5 16.1642 24.5 15.75C24.5 15.3358 24.1642 15 23.75 15C23.3358 15 23 15.3358 23 15.75C23 16.1642 23.3358 16.5 23.75 16.5ZM24.5 21.75C24.5 22.1642 24.1642 22.5 23.75 22.5C23.3358 22.5 23 22.1642 23 21.75C23 21.3358 23.3358 21 23.75 21C24.1642 21 24.5 21.3358 24.5 21.75ZM23.75 12.5C24.1642 12.5 24.5 12.1642 24.5 11.75C24.5 11.3358 24.1642 11 23.75 11C23.3358 11 23 11.3358 23 11.75C23 12.1642 23.3358 12.5 23.75 12.5Z" fill="#70A8DD"/>
</svg>
