<svg width="24" height="24" viewBox="0 0 24 24" fill="none" xmlns="http://www.w3.org/2000/svg">
<path fill-rule="evenodd" clip-rule="evenodd" d="M7.76221 2.1427C7.5551 1.78398 7.67801 1.32529 8.03673 1.11818C8.39545 0.911078 8.85414 1.03398 9.06124 1.3927L10.8026 4.40889C10.8207 4.44012 10.8362 4.4721 10.8493 4.50461C11.2217 4.50161 11.6053 4.50002 12 4.50002C12.2426 4.50002 12.481 4.50062 12.7152 4.50178C12.7282 4.46973 12.7435 4.4382 12.7613 4.40741L14.499 1.39759C14.7061 1.03887 15.1648 0.91596 15.5235 1.12307C15.8823 1.33017 16.0052 1.78887 15.7981 2.14759L14.4278 4.52092C17.476 4.57457 19.6609 4.72115 20.9825 4.83818C21.8809 4.91773 22.5763 5.62007 22.6622 6.51788C22.8082 8.04494 23 10.5225 23 13C23 15.4776 22.8082 17.9551 22.6622 19.4822C22.5763 20.38 21.8809 21.0823 20.9825 21.1619C20.5052 21.2041 19.9152 21.2503 19.2126 21.2945L18.907 22.4352C18.7997 22.8353 18.3885 23.0727 17.9884 22.9655C17.5883 22.8583 17.3509 22.4471 17.4581 22.047L17.6369 21.3795C16.1151 21.449 14.2361 21.5 12 21.5C9.76229 21.5 7.88225 21.4489 6.35987 21.3794L6.53885 22.0474C6.64606 22.4475 6.40862 22.8587 6.00852 22.9659C5.60842 23.0731 5.19717 22.8357 5.08996 22.4356L4.78414 21.2943C4.08297 21.2501 3.49407 21.2041 3.01745 21.1619C2.11907 21.0823 1.42369 20.38 1.33784 19.4822C1.19182 17.9551 1 15.4776 1 13C1 10.5225 1.19182 8.04494 1.33784 6.51788C1.42369 5.62007 2.11907 4.91773 3.01745 4.83818C4.27576 4.72676 6.31664 4.58854 9.14008 4.52925L7.76221 2.1427ZM2.83103 19.3394C2.68712 17.8344 2.5 15.4098 2.5 13C2.5 10.5902 2.68712 8.16565 2.83103 6.66066C2.84931 6.4694 2.98421 6.34699 3.14976 6.33233C4.7554 6.19016 7.70544 6.00002 12 6.00002C13.7813 6.00002 15.3312 6.03273 16.6499 6.08116V19.9189C15.3312 19.9673 13.7813 20 12 20C7.70544 20 4.7554 19.8099 3.14976 19.6677C2.98421 19.653 2.84931 19.5306 2.83103 19.3394ZM18.1499 19.8528C19.2825 19.7942 20.1826 19.7268 20.8502 19.6677C21.0158 19.653 21.1507 19.5306 21.169 19.3394C21.3129 17.8344 21.5 15.4098 21.5 13C21.5 10.5902 21.3129 8.16565 21.169 6.66066C21.1507 6.4694 21.0158 6.34699 20.8502 6.33233C20.1826 6.27321 19.2825 6.2058 18.1499 6.14722V19.8528ZM20.5 9.75002C20.5 10.1642 20.1642 10.5 19.75 10.5C19.3358 10.5 19 10.1642 19 9.75002C19 9.33581 19.3358 9.00002 19.75 9.00002C20.1642 9.00002 20.5 9.33581 20.5 9.75002ZM19.75 12.5C20.1642 12.5 20.5 12.1642 20.5 11.75C20.5 11.3358 20.1642 11 19.75 11C19.3358 11 19 11.3358 19 11.75C19 12.1642 19.3358 12.5 19.75 12.5ZM20.5 17.75C20.5 18.1642 20.1642 18.5 19.75 18.5C19.3358 18.5 19 18.1642 19 17.75C19 17.3358 19.3358 17 19.75 17C20.1642 17 20.5 17.3358 20.5 17.75ZM19.75 8.50002C20.1642 8.50002 20.5 8.16423 20.5 7.75002C20.5 7.33581 20.1642 7.00002 19.75 7.00002C19.3358 7.00002 19 7.33581 19 7.75002C19 8.16423 19.3358 8.50002 19.75 8.50002Z" fill="#70A8DD"/>
</svg>
