<svg width="48" height="48" viewBox="0 0 48 48" fill="none" xmlns="http://www.w3.org/2000/svg">
<path d="M35.1895 21.8638C38.3941 21.8638 40.9938 19.266 40.9938 16.0613C40.9938 12.8566 38.3941 10.2588 35.1895 10.2588" stroke="#D5D5D5" stroke-width="1.5" stroke-linecap="round" stroke-linejoin="round"/>
<path d="M37.8574 28.1694C38.8144 28.2354 39.7659 28.3711 40.7028 28.5819C42.0044 28.8368 43.5701 29.3703 44.1274 30.5381C44.4831 31.2861 44.4831 32.1569 44.1274 32.9068C43.5719 34.0746 42.0044 34.6063 40.7028 34.8739" stroke="#D5D5D5" stroke-width="1.5" stroke-linecap="round" stroke-linejoin="round"/>
<path d="M12.5797 21.8638C9.37506 21.8638 6.77539 19.266 6.77539 16.0613C6.77539 12.8566 9.37506 10.2588 12.5797 10.2588" stroke="#D5D5D5" stroke-width="1.5" stroke-linecap="round" stroke-linejoin="round"/>
<path d="M9.91129 28.1694C8.95429 28.2354 8.00279 28.3711 7.06596 28.5819C5.76429 28.8368 4.19862 29.3703 3.64312 30.5381C3.28563 31.2861 3.28563 32.1569 3.64312 32.9068C4.19679 34.0746 5.76429 34.6063 7.06596 34.8739" stroke="#D5D5D5" stroke-width="1.5" stroke-linecap="round" stroke-linejoin="round"/>
<path fill-rule="evenodd" clip-rule="evenodd" d="M23.8753 29.4189C30.369 29.4189 35.9166 30.4016 35.9166 34.3341C35.9166 38.2648 30.4056 39.2841 23.8753 39.2841C17.3798 39.2841 11.834 38.3014 11.834 34.3689C11.834 30.4364 17.345 29.4189 23.8753 29.4189Z" stroke="#D5D5D5" stroke-width="1.5" stroke-linecap="round" stroke-linejoin="round"/>
<path fill-rule="evenodd" clip-rule="evenodd" d="M23.8747 23.8098C19.592 23.8098 16.1582 20.376 16.1582 16.0915C16.1582 11.8088 19.592 8.375 23.8747 8.375C28.1574 8.375 31.5912 11.8088 31.5912 16.0915C31.5912 20.376 28.1574 23.8098 23.8747 23.8098Z" stroke="#D5D5D5" stroke-width="1.5" stroke-linecap="round" stroke-linejoin="round"/>
</svg>
