<svg width="112" height="112" viewBox="0 0 112 112" fill="none" xmlns="http://www.w3.org/2000/svg">
<path d="M56 33.25C59.8073 33.25 63.5291 34.379 66.6947 36.4942C69.8604 38.6094 72.3277 41.6159 73.7847 45.1334C75.2417 48.6508 75.6229 52.5214 74.8801 56.2555C74.1374 59.9896 72.304 63.4197 69.6118 66.1118C66.9197 68.804 63.4896 70.6374 59.7555 71.3801C56.0214 72.1229 52.1508 71.7417 48.6333 70.2847C45.1159 68.8277 42.1094 66.3604 39.9942 63.1947C37.879 60.0291 36.75 56.3073 36.75 52.5C36.75 49.9721 37.2479 47.4689 38.2153 45.1333C39.1827 42.7978 40.6006 40.6757 42.3882 38.8882C44.1757 37.1007 46.2978 35.6827 48.6333 34.7153C50.9689 33.7479 53.4721 33.25 56 33.25ZM77 28H84V35C84 35.9283 84.3688 36.8185 85.0251 37.4749C85.6815 38.1313 86.5717 38.5 87.5 38.5C88.4283 38.5 89.3185 38.1313 89.9749 37.4749C90.6313 36.8185 91 35.9283 91 35V28H98C98.9283 28 99.8185 27.6313 100.475 26.9749C101.131 26.3185 101.5 25.4283 101.5 24.5C101.5 23.5718 101.131 22.6815 100.475 22.0251C99.8185 21.3688 98.9283 21 98 21H91V14C91 13.0718 90.6313 12.1815 89.9749 11.5251C89.3185 10.8688 88.4283 10.5 87.5 10.5C86.5717 10.5 85.6815 10.8688 85.0251 11.5251C84.3688 12.1815 84 13.0718 84 14V21H77C76.0717 21 75.1815 21.3688 74.5251 22.0251C73.8688 22.6815 73.5 23.5718 73.5 24.5C73.5 25.4283 73.8688 26.3185 74.5251 26.9749C75.1815 27.6313 76.0717 28 77 28ZM96.9325 45.9183C96.0157 46.0636 95.1942 46.5672 94.6487 47.3183C94.1032 48.0693 93.8783 49.0063 94.0236 49.9231C94.341 51.9332 94.5003 53.965 94.5 56C94.5074 65.4246 91.0433 74.5218 84.7692 81.5545C81.9595 77.4839 78.316 74.0576 74.0806 71.5031C69.2103 76.1545 62.7347 78.75 56 78.75C49.2653 78.75 42.7897 76.1545 37.9194 71.5031C33.684 74.0575 30.0404 77.4838 27.2307 81.5545C22.2979 76.01 19.0736 69.1575 17.9464 61.8224C16.8192 54.4874 17.8372 46.9829 20.8778 40.2132C23.9183 33.4435 28.8516 27.6975 35.0832 23.6676C41.3148 19.6377 48.5789 17.4958 56 17.5C58.0351 17.4998 60.067 17.6591 62.0772 17.9764C62.5311 18.0484 62.9949 18.0302 63.4418 17.923C63.8888 17.8158 64.3103 17.6215 64.6822 17.3514C65.0541 17.0813 65.3691 16.7405 65.6093 16.3486C65.8495 15.9567 66.0102 15.5213 66.0821 15.0673C66.154 14.6133 66.1359 14.1496 66.0286 13.7027C65.9213 13.2557 65.727 12.8343 65.4568 12.4624C65.1866 12.0905 64.8459 11.7755 64.4539 11.5354C64.062 11.2952 63.6266 11.1346 63.1726 11.0627C56.6735 10.0314 50.0281 10.421 43.694 12.2045C37.3599 13.9881 31.4876 17.1232 26.4815 21.3942C21.4754 25.6651 17.4545 30.9703 14.6955 36.9444C11.9366 42.9185 10.5052 49.4196 10.5 56C10.4975 62.3134 11.8121 68.5579 14.3598 74.3344C16.9074 80.1109 20.6322 85.2924 25.296 89.5478C25.4693 89.7425 25.6639 89.917 25.8762 90.0682C34.1827 97.4334 44.8996 101.5 56.0011 101.5C67.1026 101.5 77.8193 97.4324 86.1255 90.0669C86.3361 89.9166 86.5293 89.7433 86.7015 89.5501C91.3661 85.2947 95.0914 80.113 97.6396 74.336C100.188 68.559 101.503 62.314 101.5 56C101.5 53.5981 101.312 51.1999 100.937 48.8274C100.866 48.3734 100.705 47.9379 100.465 47.546C100.225 47.154 99.9096 46.8132 99.5377 46.543C99.1658 46.2729 98.7443 46.0786 98.2973 45.9714C97.8503 45.8642 97.3865 45.8462 96.9325 45.9183Z" fill="#E0E0E0"/>
</svg>
