<svg width="18" height="18" viewBox="0 0 18 18" fill="none" xmlns="http://www.w3.org/2000/svg">
<path fill-rule="evenodd" clip-rule="evenodd" d="M9 0C4.02944 0 0 4.02944 0 9C0 13.9706 4.02944 18 9 18C13.9706 18 18 13.9706 18 9C18 4.02944 13.9706 0 9 0ZM9.73287 11.8417C9.64413 11.9352 9.47087 11.9541 9.47087 11.9541H8.8971C8.8971 11.9541 7.63123 12.0288 6.51608 10.8894C5.29998 9.64641 4.22615 7.18016 4.22615 7.18016C4.22615 7.18016 4.16417 7.01839 4.23132 6.9405C4.30691 6.85247 4.51304 6.84694 4.51304 6.84694L5.88455 6.83818C5.88455 6.83818 6.01368 6.85892 6.10617 6.92575C6.18271 6.98106 6.22544 7.08384 6.22544 7.08384C6.22544 7.08384 6.44706 7.63414 6.74052 8.13191C7.31382 9.10394 7.58052 9.31641 7.77491 9.21225C8.05851 9.06062 7.97352 7.83832 7.97352 7.83832C7.97352 7.83832 7.97869 7.39494 7.83078 7.19722C7.71621 7.0442 7.50023 6.99949 7.40491 6.98705C7.32744 6.97691 7.45421 6.80085 7.61855 6.72203C7.86553 6.60358 8.30126 6.59667 8.81634 6.60174C9.21779 6.60589 9.3333 6.63031 9.49012 6.66765C9.85409 6.75386 9.84273 7.03016 9.81821 7.62647C9.81087 7.8048 9.80236 8.01176 9.80236 8.25082C9.80236 8.30454 9.80077 8.3618 9.79913 8.42071C9.79062 8.72621 9.78087 9.07605 9.98595 9.20626C10.0911 9.27263 10.348 9.21594 10.9908 8.14482C11.2955 7.63691 11.5237 7.04005 11.5237 7.04005C11.5237 7.04005 11.5739 6.93358 11.6514 6.88796C11.7308 6.8414 11.8378 6.85569 11.8378 6.85569L13.2812 6.84694C13.2812 6.84694 13.715 6.79578 13.785 6.98843C13.8587 7.18984 13.623 7.66088 13.0332 8.43242C12.4738 9.16449 12.2016 9.43402 12.2266 9.6724C12.2448 9.84658 12.4218 10.0041 12.7614 10.3133C13.4703 10.9594 13.6603 11.2993 13.7059 11.381C13.7097 11.3877 13.7125 11.3927 13.7145 11.396C14.0324 11.9136 13.3619 11.9541 13.3619 11.9541L12.0796 11.9716C12.0796 11.9716 11.8045 12.0251 11.442 11.7808C11.2521 11.653 11.0666 11.4442 10.8898 11.2453C10.6199 10.9415 10.3706 10.6609 10.1578 10.7272C9.80049 10.8387 9.81129 11.5942 9.81129 11.5942C9.81129 11.5942 9.8141 11.7559 9.73287 11.8417Z" fill="#70A8DD"/>
</svg>
