<svg width="20" height="20" viewBox="0 0 20 20" fill="none" xmlns="http://www.w3.org/2000/svg">
<path fill-rule="evenodd" clip-rule="evenodd" d="M10 0C4.47715 0 0 4.47715 0 10C0 15.5228 4.47715 20 10 20C15.5228 20 20 15.5228 20 10C20 4.47715 15.5228 0 10 0ZM10.8142 13.1567C10.7156 13.2607 10.5231 13.2817 10.5231 13.2817H9.88558C9.88558 13.2817 8.47906 13.3647 7.24001 12.0987C5.88879 10.7176 4.69564 7.97731 4.69564 7.97731C4.69564 7.97731 4.62678 7.79756 4.70138 7.71101C4.78537 7.6132 5.0144 7.60706 5.0144 7.60706L6.53831 7.59733C6.53831 7.59733 6.68178 7.62037 6.78456 7.69463C6.86959 7.75608 6.91707 7.87028 6.91707 7.87028C6.91707 7.87028 7.16332 8.48173 7.48938 9.03481C8.12639 10.1148 8.42272 10.3509 8.6387 10.2352C8.95381 10.0667 8.85939 8.7086 8.85939 8.7086C8.85939 8.7086 8.86512 8.21595 8.70079 7.99626C8.57349 7.82624 8.3335 7.77656 8.2276 7.76274C8.14152 7.75147 8.28238 7.55584 8.46498 7.46827C8.73939 7.33666 9.22354 7.32898 9.79585 7.33461C10.2419 7.33922 10.3702 7.36637 10.5445 7.40785C10.9489 7.50364 10.9363 7.81064 10.909 8.4732C10.9009 8.67135 10.8914 8.90131 10.8914 9.16693C10.8914 9.22662 10.8897 9.29024 10.8878 9.3557C10.8784 9.69514 10.8676 10.0838 11.0954 10.2285C11.2123 10.3023 11.4977 10.2393 12.2119 9.04915C12.5505 8.4848 12.804 7.82163 12.804 7.82163C12.804 7.82163 12.8598 7.70333 12.9459 7.65263C13.0341 7.60091 13.153 7.61679 13.153 7.61679L14.7568 7.60706C14.7568 7.60706 15.2388 7.55021 15.3166 7.76427C15.3985 7.98806 15.1366 8.51143 14.4813 9.3687C13.8597 10.1821 13.5572 10.4816 13.585 10.7465C13.6053 10.94 13.8019 11.115 14.1792 11.4586C14.9669 12.1764 15.178 12.5541 15.2288 12.6449C15.233 12.6524 15.2361 12.6579 15.2383 12.6615C15.5915 13.2366 14.8465 13.2817 14.8465 13.2817L13.4217 13.3012C13.4217 13.3012 13.116 13.3606 12.7132 13.0891C12.5023 12.9471 12.2961 12.7151 12.0997 12.4941C11.7998 12.1566 11.5228 11.8448 11.2864 11.9185C10.8893 12.0424 10.9013 12.8817 10.9013 12.8817C10.9013 12.8817 10.9045 13.0615 10.8142 13.1567Z" fill="#E0E0E0"/>
</svg>
