<svg width="24" height="24" viewBox="0 0 24 24" fill="none" xmlns="http://www.w3.org/2000/svg">
<path fill-rule="evenodd" clip-rule="evenodd" d="M12 0C5.37258 0 0 5.37258 0 12C0 18.6274 5.37258 24 12 24C18.6274 24 24 18.6274 24 12C24 5.37258 18.6274 0 12 0ZM12.9771 15.7881C12.8588 15.9129 12.6278 15.9381 12.6278 15.9381H11.8627C11.8627 15.9381 10.1749 16.0376 8.68803 14.5185C7.06657 12.8611 5.63479 9.57278 5.63479 9.57278C5.63479 9.57278 5.55216 9.35708 5.64168 9.25323C5.74247 9.13585 6.01731 9.12848 6.01731 9.12848L7.846 9.1168C7.846 9.1168 8.01816 9.14446 8.14149 9.23356C8.24354 9.30731 8.30051 9.44435 8.30051 9.44435C8.30051 9.44435 8.596 10.1781 8.98728 10.8418C9.75169 12.1378 10.1073 12.4211 10.3665 12.2822C10.7446 12.0801 10.6313 10.4503 10.6313 10.4503C10.6313 10.4503 10.6382 9.85915 10.441 9.59552C10.2882 9.3915 10.0002 9.33189 9.87314 9.31529C9.76984 9.30177 9.93888 9.06703 10.158 8.96194C10.4873 8.80401 11.0683 8.79479 11.755 8.80155C12.2903 8.80708 12.4443 8.83965 12.6534 8.88943C13.1387 9.00438 13.1236 9.37278 13.0909 10.1679C13.0811 10.4056 13.0697 10.6816 13.0697 11.0003C13.0697 11.072 13.0676 11.1483 13.0654 11.2269C13.0541 11.6342 13.0411 12.1006 13.3145 12.2742C13.4548 12.3627 13.7972 12.2871 14.6543 10.859C15.0606 10.1818 15.3648 9.38597 15.3648 9.38597C15.3648 9.38597 15.4318 9.24401 15.5351 9.18317C15.6409 9.1211 15.7837 9.14015 15.7837 9.14015L17.7081 9.12848C17.7081 9.12848 18.2866 9.06027 18.3799 9.31714C18.4782 9.58569 18.1639 10.2137 17.3776 11.2425C16.6317 12.2185 16.2687 12.5779 16.302 12.8958C16.3264 13.128 16.5623 13.3381 17.0151 13.7503C17.9603 14.6118 18.2137 15.065 18.2745 15.1738C18.2796 15.1829 18.2833 15.1895 18.286 15.1939C18.7098 15.884 17.8158 15.9381 17.8158 15.9381L16.1061 15.9614C16.1061 15.9614 15.7392 16.0327 15.2559 15.707C15.0027 15.5365 14.7553 15.2581 14.5197 14.9929C14.1598 14.5879 13.8274 14.2138 13.5437 14.3022C13.0672 14.4509 13.0816 15.4581 13.0816 15.4581C13.0816 15.4581 13.0854 15.6738 12.9771 15.7881Z" fill="#757575"/>
</svg>
