<svg width="248" height="159" viewBox="0 0 248 159" fill="none" xmlns="http://www.w3.org/2000/svg">
<path d="M247.791 0.141113H0.107422V158.899H247.791V0.141113Z" fill="#E6E6E6"/>
<path d="M240.706 20.0525H7.1875V149.506H240.706V20.0525Z" fill="white"/>
<path d="M247.684 0H0V10.5312H247.684V0Z" fill="#2D9CDB"/>
<path d="M7.82136 7.33587C8.89846 7.33587 9.77163 6.46199 9.77163 5.384C9.77163 4.30601 8.89846 3.43213 7.82136 3.43213C6.74426 3.43213 5.87109 4.30601 5.87109 5.384C5.87109 6.46199 6.74426 7.33587 7.82136 7.33587Z" fill="white"/>
<path d="M15.2218 7.33587C16.2989 7.33587 17.172 6.46199 17.172 5.384C17.172 4.30601 16.2989 3.43213 15.2218 3.43213C14.1446 3.43213 13.2715 4.30601 13.2715 5.384C13.2715 6.46199 14.1446 7.33587 15.2218 7.33587Z" fill="white"/>
<path d="M22.6241 7.33587C23.7012 7.33587 24.5744 6.46199 24.5744 5.384C24.5744 4.30601 23.7012 3.43213 22.6241 3.43213C21.547 3.43213 20.6738 4.30601 20.6738 5.384C20.6738 6.46199 21.547 7.33587 22.6241 7.33587Z" fill="white"/>
<path d="M88 49H28V61H88V49Z" fill="#EDEDED"/>
<path d="M47 33H29C28.4477 33 28 33.4477 28 34C28 34.5523 28.4477 35 29 35H47C47.5523 35 48 34.5523 48 34C48 33.4477 47.5523 33 47 33Z" fill="#EDEDED"/>
<path d="M47 36H29C28.4477 36 28 36.4477 28 37C28 37.5523 28.4477 38 29 38H47C47.5523 38 48 37.5523 48 37C48 36.4477 47.5523 36 47 36Z" fill="#EDEDED"/>
<path d="M42 39H29C28.4477 39 28 39.4477 28 40C28 40.5523 28.4477 41 29 41H42C42.5523 41 43 40.5523 43 40C43 39.4477 42.5523 39 42 39Z" fill="#EDEDED"/>
<path d="M88 33H76V45H88V33Z" fill="#EDEDED"/>
<path d="M72 33H60V45H72V33Z" fill="#EDEDED"/>
<path d="M88 65H28V77H88V65Z" fill="#2D9CDB"/>
<path d="M220 33H99V136H220V33Z" fill="#F8F8F8"/>
</svg>
