<svg width="96" height="96" viewBox="0 0 96 96" fill="none" xmlns="http://www.w3.org/2000/svg">
<path d="M48 9C40.2865 9 32.7463 11.2873 26.3328 15.5727C19.9193 19.8581 14.9205 25.949 11.9687 33.0753C9.0169 40.2017 8.24457 48.0433 9.74939 55.6085C11.2542 63.1738 14.9686 70.1229 20.4229 75.5772C25.8771 81.0314 32.8262 84.7458 40.3915 86.2506C47.9568 87.7554 55.7984 86.9831 62.9247 84.0313C70.051 81.0795 76.142 76.0808 80.4273 69.6672C84.7127 63.2537 87 55.7135 87 48C86.9881 37.6602 82.8753 27.7474 75.564 20.436C68.2527 13.1247 58.3398 9.01195 48 9ZM62.1211 57.8789C62.4001 58.1573 62.6216 58.4881 62.7727 58.8521C62.9238 59.2162 63.0017 59.6065 63.002 60.0007C63.0022 60.3949 62.9247 60.7852 62.7739 61.1495C62.6232 61.5137 62.4021 61.8446 62.1234 62.1234C61.8446 62.4021 61.5137 62.6232 61.1495 62.7739C60.7852 62.9247 60.3949 63.0022 60.0007 63.0019C59.6065 63.0017 59.2162 62.9238 58.8521 62.7727C58.4881 62.6215 58.1574 62.4001 57.8789 62.1211L48 52.2422L38.1211 62.1211C37.5584 62.6827 36.7957 62.9978 36.0007 62.9974C35.2057 62.997 34.4433 62.681 33.8812 62.1188C33.319 61.5567 33.003 60.7943 33.0026 59.9993C33.0022 59.2043 33.3174 58.4417 33.8789 57.8789L43.7578 48L33.8789 38.1211C33.3174 37.5583 33.0022 36.7957 33.0026 36.0007C33.003 35.2057 33.319 34.4433 33.8812 33.8812C34.4433 33.319 35.2057 33.003 36.0007 33.0026C36.7957 33.0022 37.5584 33.3173 38.1211 33.8789L48 43.7578L57.8789 33.8789C58.4417 33.3173 59.2043 33.0022 59.9994 33.0026C60.7944 33.003 61.5567 33.319 62.1189 33.8812C62.681 34.4433 62.997 35.2057 62.9974 36.0007C62.9979 36.7957 62.6827 37.5583 62.1211 38.1211L52.2422 48L62.1211 57.8789Z" fill="#FFB7AC"/>
</svg>
