<svg width="20" height="20" viewBox="0 0 20 20" fill="none" xmlns="http://www.w3.org/2000/svg">
<path d="M8.75 16.25V3.75C8.75 3.40482 8.47018 3.125 8.125 3.125L4.375 3.125C4.02982 3.125 3.75 3.40482 3.75 3.75L3.75 16.25C3.75 16.5952 4.02982 16.875 4.375 16.875H8.125C8.47018 16.875 8.75 16.5952 8.75 16.25Z" stroke="#8E9AA6" stroke-width="1.5" stroke-linecap="round" stroke-linejoin="round"/>
<path d="M16.25 16.25V3.75C16.25 3.40482 15.9702 3.125 15.625 3.125L11.875 3.125C11.5298 3.125 11.25 3.40482 11.25 3.75V16.25C11.25 16.5952 11.5298 16.875 11.875 16.875H15.625C15.9702 16.875 16.25 16.5952 16.25 16.25Z" stroke="#8E9AA6" stroke-width="1.5" stroke-linecap="round" stroke-linejoin="round"/>
</svg>
