<svg width="96" height="32" viewBox="0 0 96 32" fill="none" xmlns="http://www.w3.org/2000/svg">
<path d="M0 7.5C0 5.17029 0 4.00544 0.380602 3.08658C0.888072 1.86144 1.86144 0.888072 3.08658 0.380602C4.00544 0 5.17029 0 7.5 0H88.5C90.8297 0 91.9946 0 92.9134 0.380602C94.1386 0.888072 95.1119 1.86144 95.6194 3.08658C96 4.00544 96 5.17029 96 7.5V24.5C96 26.8297 96 27.9946 95.6194 28.9134C95.1119 30.1386 94.1386 31.1119 92.9134 31.6194C91.9946 32 90.8297 32 88.5 32H7.5C5.17029 32 4.00544 32 3.08658 31.6194C1.86144 31.1119 0.888072 30.1386 0.380602 28.9134C0 27.9946 0 26.8297 0 24.5V7.5Z" fill="#616161"/>
<path d="M65.2206 15.3607V17.1935H64.0718V18.3955H65.2206V22.4795C65.2206 23.874 65.8515 24.4318 67.4386 24.4318C67.7175 24.4318 67.9831 24.3986 68.2155 24.3588V23.1701C68.0163 23.19 67.8901 23.2033 67.671 23.2033C66.9604 23.2033 66.6483 22.8713 66.6483 22.1142V18.3955H68.2155V17.1935H66.6483V15.3607H65.2206Z" fill="white"/>
<path d="M72.2586 24.5314C74.3703 24.5314 75.6652 23.117 75.6652 20.7728C75.6652 18.442 74.3637 17.0209 72.2586 17.0209C70.1469 17.0209 68.8453 18.442 68.8453 20.7728C68.8453 23.117 70.1402 24.5314 72.2586 24.5314ZM72.2586 23.2631C71.0168 23.2631 70.3195 22.3533 70.3195 20.7728C70.3195 19.2056 71.0168 18.2892 72.2586 18.2892C73.4938 18.2892 74.1977 19.2056 74.1977 20.7728C74.1977 22.3467 73.4938 23.2631 72.2586 23.2631Z" fill="white"/>
<path d="M76.7732 24.392H78.2009V20.1221C78.2009 19.106 78.9646 18.4221 80.047 18.4221C80.2993 18.4221 80.7243 18.4685 80.8439 18.5084V17.1006C80.6911 17.0607 80.4189 17.0408 80.2064 17.0408C79.2634 17.0408 78.4599 17.5588 78.254 18.2693H78.1478V17.1603H76.7732V24.392Z" fill="white"/>
<path d="M84.3889 18.2361C85.4448 18.2361 86.1354 18.9732 86.1686 20.1088H82.5162C82.5959 18.9799 83.333 18.2361 84.3889 18.2361ZM86.1619 22.4396C85.8963 23.0041 85.3053 23.3162 84.442 23.3162C83.2998 23.3162 82.5627 22.5127 82.5162 21.2443V21.1646H87.6229V20.6666C87.6229 18.3955 86.4076 17.0209 84.3955 17.0209C82.3569 17.0209 81.0619 18.4885 81.0619 20.7994C81.0619 23.1103 82.3303 24.5314 84.4022 24.5314C86.0557 24.5314 87.2112 23.7346 87.5365 22.4396H86.1619Z" fill="white"/>
<path d="M55.8577 21.7214C55.9679 23.4972 57.4477 24.6329 59.6502 24.6329C62.0041 24.6329 63.477 23.4421 63.477 21.5425C63.477 20.0489 62.6373 19.223 60.6 18.7481L59.5056 18.4796C58.2116 18.1768 57.6886 17.7707 57.6886 17.0618C57.6886 16.167 58.5007 15.582 59.719 15.582C60.8753 15.582 61.6737 16.1532 61.8182 17.0687H63.3187C63.2292 15.3961 61.7563 14.2192 59.7396 14.2192C57.5716 14.2192 56.1262 15.3961 56.1262 17.165C56.1262 18.6242 56.9452 19.4914 58.7416 19.9113L60.0218 20.221C61.3364 20.5307 61.9146 20.985 61.9146 21.7421C61.9146 22.6231 61.0061 23.2632 59.7672 23.2632C58.4388 23.2632 57.5165 22.6644 57.3857 21.7214H55.8577Z" fill="white"/>
<path d="M41.0679 17.0408C40.085 17.0408 39.235 17.5322 38.7968 18.3556H38.6905V17.1603H37.3159V26.7959H38.7436V23.2963H38.8565C39.235 24.0599 40.0518 24.5115 41.0811 24.5115C42.9073 24.5115 44.0694 23.0705 44.0694 20.7728C44.0694 18.4752 42.9073 17.0408 41.0679 17.0408ZM40.6628 23.2299C39.4675 23.2299 38.7171 22.2869 38.7171 20.7795C38.7171 19.2654 39.4675 18.3224 40.6694 18.3224C41.878 18.3224 42.6018 19.2455 42.6018 20.7728C42.6018 22.3068 41.878 23.2299 40.6628 23.2299Z" fill="white"/>
<path d="M49.0653 17.0408C48.0825 17.0408 47.2325 17.5322 46.7942 18.3556H46.688V17.1603H45.3133V26.7959H46.7411V23.2963H46.854C47.2325 24.0599 48.0493 24.5115 49.0786 24.5115C50.9048 24.5115 52.0669 23.0705 52.0669 20.7728C52.0669 18.4752 50.9048 17.0408 49.0653 17.0408ZM48.6602 23.2299C47.4649 23.2299 46.7145 22.2869 46.7145 20.7795C46.7145 19.2654 47.4649 18.3224 48.6669 18.3224C49.8755 18.3224 50.5993 19.2455 50.5993 20.7728C50.5993 22.3068 49.8755 23.2299 48.6602 23.2299Z" fill="white"/>
<path d="M34.7543 24.392H36.3924L32.8065 14.4601H31.1477L27.5618 24.392H29.1448L30.0602 21.7559H33.8458L34.7543 24.392ZM31.8979 16.2634H32.0149L33.4535 20.4619H30.4525L31.8979 16.2634Z" fill="white"/>
<path d="M28.521 6.96877V11.76H30.2509C31.6786 11.76 32.5054 10.8801 32.5054 9.34944C32.5054 7.84202 31.672 6.96877 30.2509 6.96877H28.521ZM29.2647 7.64612H30.1679C31.1606 7.64612 31.7483 8.27698 31.7483 9.3594C31.7483 10.4584 31.1706 11.0826 30.1679 11.0826H29.2647V7.64612Z" fill="white"/>
<path d="M35.0374 11.8297C36.0933 11.8297 36.7408 11.1225 36.7408 9.95041C36.7408 8.78499 36.09 8.07444 35.0374 8.07444C33.9816 8.07444 33.3308 8.78499 33.3308 9.95041C33.3308 11.1225 33.9783 11.8297 35.0374 11.8297ZM35.0374 11.1955C34.4165 11.1955 34.0679 10.7406 34.0679 9.95041C34.0679 9.16682 34.4165 8.70862 35.0374 8.70862C35.655 8.70862 36.007 9.16682 36.007 9.95041C36.007 10.7373 35.655 11.1955 35.0374 11.1955Z" fill="white"/>
<path d="M42.2545 8.14416H41.5406L40.8965 10.9033H40.84L40.0963 8.14416H39.4123L38.6685 10.9033H38.6154L37.9679 8.14416H37.2441L38.2402 11.76H38.974L39.7178 9.09709H39.7742L40.5213 11.76H41.2617L42.2545 8.14416Z" fill="white"/>
<path d="M43.0766 11.76H43.7904V9.64495C43.7904 9.08049 44.1258 8.72854 44.6537 8.72854C45.1817 8.72854 45.434 9.01741 45.434 9.59846V11.76H46.1479V9.41916C46.1479 8.5592 45.7029 8.07444 44.8961 8.07444C44.3516 8.07444 43.993 8.31682 43.817 8.71858H43.7639V8.14416H43.0766V11.76Z" fill="white"/>
<path d="M47.2721 11.76H47.986V6.73303H47.2721V11.76Z" fill="white"/>
<path d="M50.6708 11.8297C51.7267 11.8297 52.3741 11.1225 52.3741 9.95041C52.3741 8.78499 51.7233 8.07444 50.6708 8.07444C49.6149 8.07444 48.9642 8.78499 48.9642 9.95041C48.9642 11.1225 49.6116 11.8297 50.6708 11.8297ZM50.6708 11.1955C50.0499 11.1955 49.7013 10.7406 49.7013 9.95041C49.7013 9.16682 50.0499 8.70862 50.6708 8.70862C51.2884 8.70862 51.6403 9.16682 51.6403 9.95041C51.6403 10.7373 51.2884 11.1955 50.6708 11.1955Z" fill="white"/>
<path d="M54.5011 11.2188C54.1126 11.2188 53.8304 11.0295 53.8304 10.7041C53.8304 10.3854 54.0562 10.216 54.5542 10.1828L55.4374 10.1264V10.4285C55.4374 10.8768 55.039 11.2188 54.5011 11.2188ZM54.3185 11.8198C54.7933 11.8198 55.1884 11.6139 55.4042 11.252H55.4607V11.76H56.148V9.28967C56.148 8.526 55.6367 8.07444 54.7302 8.07444C53.9101 8.07444 53.3257 8.47288 53.2527 9.09377H53.9433C54.023 8.83811 54.2986 8.69202 54.697 8.69202C55.1851 8.69202 55.4374 8.90784 55.4374 9.28967V9.60178L54.4579 9.65823C53.598 9.71135 53.1132 10.0865 53.1132 10.7373C53.1132 11.3981 53.6212 11.8198 54.3185 11.8198Z" fill="white"/>
<path d="M58.5705 11.8198C59.0685 11.8198 59.4902 11.584 59.706 11.1889H59.7625V11.76H60.4465V6.73303H59.7326V8.71858H59.6795C59.4836 8.32014 59.0652 8.0844 58.5705 8.0844C57.6574 8.0844 57.0697 8.80823 57.0697 9.95041C57.0697 11.0959 57.6508 11.8198 58.5705 11.8198ZM58.773 8.72522C59.3707 8.72522 59.7459 9.20002 59.7459 9.95374C59.7459 10.7108 59.374 11.1789 58.773 11.1789C58.1687 11.1789 57.8068 10.7174 57.8068 9.95041C57.8068 9.19006 58.172 8.72522 58.773 8.72522Z" fill="white"/>
<path d="M65.0756 11.8297C66.1315 11.8297 66.779 11.1225 66.779 9.95041C66.779 8.78499 66.1282 8.07444 65.0756 8.07444C64.0198 8.07444 63.369 8.78499 63.369 9.95041C63.369 11.1225 64.0165 11.8297 65.0756 11.8297ZM65.0756 11.1955C64.4547 11.1955 64.1061 10.7406 64.1061 9.95041C64.1061 9.16682 64.4547 8.70862 65.0756 8.70862C65.6932 8.70862 66.0452 9.16682 66.0452 9.95041C66.0452 10.7373 65.6932 11.1955 65.0756 11.1955Z" fill="white"/>
<path d="M67.7239 11.76H68.4378V9.64495C68.4378 9.08049 68.7731 8.72854 69.3011 8.72854C69.829 8.72854 70.0813 9.01741 70.0813 9.59846V11.76H70.7952V9.41916C70.7952 8.5592 70.3503 8.07444 69.5435 8.07444C68.9989 8.07444 68.6403 8.31682 68.4644 8.71858H68.4112V8.14416H67.7239V11.76Z" fill="white"/>
<path d="M74.083 7.24436V8.16077H73.5086V8.76174H74.083V10.8037C74.083 11.501 74.3984 11.7799 75.192 11.7799C75.3314 11.7799 75.4642 11.7633 75.5804 11.7434V11.149C75.4808 11.159 75.4177 11.1656 75.3082 11.1656C74.9529 11.1656 74.7969 10.9996 74.7969 10.6211V8.76174H75.5804V8.16077H74.7969V7.24436H74.083Z" fill="white"/>
<path d="M76.5387 11.76H77.2526V9.64827C77.2526 9.10041 77.5779 8.73186 78.1623 8.73186C78.667 8.73186 78.936 9.02405 78.936 9.60178V11.76H79.6498V9.42581C79.6498 8.56584 79.175 8.07776 78.4047 8.07776C77.8602 8.07776 77.4783 8.32014 77.3024 8.72522H77.2459V6.73303H76.5387V11.76Z" fill="white"/>
<path d="M82.2251 8.68206C82.753 8.68206 83.0983 9.05061 83.1149 9.61838H81.2887C81.3286 9.05393 81.6971 8.68206 82.2251 8.68206ZM83.1116 10.7838C82.9788 11.066 82.6833 11.2221 82.2516 11.2221C81.6805 11.2221 81.312 10.8203 81.2887 10.1862V10.1463H83.842V9.89729C83.842 8.76174 83.2344 8.07444 82.2284 8.07444C81.209 8.07444 80.5616 8.80823 80.5616 9.9637C80.5616 11.1192 81.1958 11.8297 82.2317 11.8297C83.0585 11.8297 83.6362 11.4313 83.7989 10.7838H83.1116Z" fill="white"/>
<path d="M19.8151 16.2407C19.8325 14.8959 20.5547 13.6234 21.7004 12.919C20.9776 11.8868 19.767 11.2323 18.5075 11.1929C17.1641 11.0519 15.8617 11.9967 15.1771 11.9967C14.4793 11.9967 13.4253 11.2069 12.2903 11.2302C10.8109 11.278 9.43177 12.1191 8.71201 13.4125C7.16481 16.0913 8.31888 20.0281 9.80097 22.1934C10.5425 23.2537 11.4091 24.438 12.5431 24.396C13.6527 24.35 14.0672 23.6884 15.4066 23.6884C16.7336 23.6884 17.1224 24.396 18.2794 24.3693C19.4701 24.35 20.2203 23.3043 20.9358 22.234C21.4686 21.4785 21.8786 20.6435 22.1505 19.76C20.7512 19.1682 19.8168 17.76 19.8151 16.2407Z" fill="white"/>
<path d="M17.6298 9.76888C18.279 8.98951 18.5989 7.98777 18.5214 6.97638C17.5296 7.08056 16.6134 7.5546 15.9554 8.30407C15.3119 9.03633 14.9771 10.0205 15.0404 10.9932C16.0326 11.0034 17.0081 10.5422 17.6298 9.76888Z" fill="white"/>
<path d="M3.08658 31.6194L2.7039 32.5433L3.08658 31.6194ZM0.380602 28.9134L1.30448 28.5307L0.380602 28.9134ZM95.6194 28.9134L96.5433 29.2961L95.6194 28.9134ZM92.9134 31.6194L93.2961 32.5433L92.9134 31.6194ZM92.9134 0.380602L93.2961 -0.543277L92.9134 0.380602ZM95.6194 3.08658L94.6955 3.46927L95.6194 3.08658ZM7.5 1H88.5V-1H7.5V1ZM95 7.5V24.5H97V7.5H95ZM88.5 31H7.5V33H88.5V31ZM1 24.5V7.5H-1V24.5H1ZM7.5 31C6.32146 31 5.48764 30.9995 4.83229 30.9547C4.18592 30.9106 3.78654 30.8269 3.46927 30.6955L2.7039 32.5433C3.30548 32.7925 3.94795 32.8991 4.69615 32.9501C5.43537 33.0005 6.34883 33 7.5 33V31ZM-1 24.5C-1 25.6512 -1.00054 26.5646 -0.950105 27.3038C-0.899056 28.052 -0.792462 28.6945 -0.543277 29.2961L1.30448 28.5307C1.17306 28.2135 1.08936 27.8141 1.04526 27.1677C1.00054 26.5124 1 25.6785 1 24.5H-1ZM3.46927 30.6955C2.48915 30.2895 1.71046 29.5108 1.30448 28.5307L-0.543277 29.2961C0.0656865 30.7663 1.23373 31.9343 2.7039 32.5433L3.46927 30.6955ZM95 24.5C95 25.6785 94.9995 26.5124 94.9547 27.1677C94.9106 27.8141 94.8269 28.2135 94.6955 28.5307L96.5433 29.2961C96.7925 28.6945 96.8991 28.052 96.9501 27.3038C97.0005 26.5646 97 25.6512 97 24.5H95ZM88.5 33C89.6512 33 90.5646 33.0005 91.3038 32.9501C92.052 32.8991 92.6945 32.7925 93.2961 32.5433L92.5307 30.6955C92.2135 30.8269 91.8141 30.9106 91.1677 30.9547C90.5124 30.9995 89.6785 31 88.5 31V33ZM94.6955 28.5307C94.2895 29.5108 93.5108 30.2895 92.5307 30.6955L93.2961 32.5433C94.7663 31.9343 95.9343 30.7663 96.5433 29.2961L94.6955 28.5307ZM88.5 1C89.6785 1 90.5124 1.00054 91.1677 1.04526C91.8141 1.08936 92.2135 1.17306 92.5307 1.30448L93.2961 -0.543277C92.6945 -0.792462 92.052 -0.899056 91.3038 -0.950105C90.5646 -1.00054 89.6512 -1 88.5 -1V1ZM97 7.5C97 6.34883 97.0005 5.43537 96.9501 4.69615C96.8991 3.94795 96.7925 3.30548 96.5433 2.7039L94.6955 3.46927C94.8269 3.78654 94.9106 4.18592 94.9547 4.83229C94.9995 5.48764 95 6.32146 95 7.5H97ZM92.5307 1.30448C93.5108 1.71046 94.2895 2.48915 94.6955 3.46927L96.5433 2.7039C95.9343 1.23373 94.7663 0.0656865 93.2961 -0.543277L92.5307 1.30448ZM7.5 -1C6.34883 -1 5.43537 -1.00054 4.69615 -0.950105C3.94795 -0.899056 3.30548 -0.792462 2.7039 -0.543277L3.46927 1.30448C3.78654 1.17306 4.18592 1.08936 4.83229 1.04526C5.48764 1.00054 6.32146 1 7.5 1V-1ZM1 7.5C1 6.32146 1.00054 5.48764 1.04526 4.83229C1.08936 4.18592 1.17306 3.78654 1.30448 3.46927L-0.543277 2.7039C-0.792462 3.30548 -0.899056 3.94795 -0.950105 4.69615C-1.00054 5.43537 -1 6.34883 -1 7.5H1ZM2.7039 -0.543277C1.23373 0.0656865 0.0656865 1.23373 -0.543277 2.7039L1.30448 3.46927C1.71046 2.48915 2.48915 1.71046 3.46927 1.30448L2.7039 -0.543277Z" fill="#616161"/>
</svg>
