<svg width="16" height="16" viewBox="0 0 16 16" fill="none" xmlns="http://www.w3.org/2000/svg">
<path d="M6.74462 11.991H1.92188" stroke="#1991EB" stroke-width="1.5" stroke-linecap="round" stroke-linejoin="round"/>
<path fill-rule="evenodd" clip-rule="evenodd" d="M14.0783 11.9908C14.0783 13.0512 13.2187 13.9108 12.1583 13.9108C11.0979 13.9108 10.2383 13.0512 10.2383 11.9908C10.2383 10.9296 11.0979 10.0708 12.1583 10.0708C13.2187 10.0708 14.0783 10.9296 14.0783 11.9908Z" stroke="#1991EB" stroke-width="1.5" stroke-linecap="round" stroke-linejoin="round"/>
<path d="M9.25586 4.17463H14.0794" stroke="#1991EB" stroke-width="1.5" stroke-linecap="round" stroke-linejoin="round"/>
<path fill-rule="evenodd" clip-rule="evenodd" d="M1.92188 4.17464C1.92188 5.23582 2.78148 6.09464 3.84188 6.09464C4.90227 6.09464 5.76188 5.23582 5.76188 4.17464C5.76188 3.11425 4.90227 2.25464 3.84188 2.25464C2.78148 2.25464 1.92188 3.11425 1.92188 4.17464Z" stroke="#1991EB" stroke-width="1.5" stroke-linecap="round" stroke-linejoin="round"/>
</svg>
