<svg width="938" height="455" viewBox="0 0 938 455" fill="none" xmlns="http://www.w3.org/2000/svg">
<mask id="mask0_7760_255739" style="mask-type:alpha" maskUnits="userSpaceOnUse" x="0" y="0" width="938" height="455">
<rect width="938" height="455" rx="8" fill="#F5F5F5"/>
</mask>
<g mask="url(#mask0_7760_255739)">
<g filter="url(#filter0_ddd_7760_255739)">
<rect x="40" y="48" width="858" height="407" fill="#C4C4C4"/>
</g>
</g>
<mask id="mask1_7760_255739" style="mask-type:alpha" maskUnits="userSpaceOnUse" x="40" y="44" width="858" height="411">
<path d="M40 44H898V455H40V44Z" fill="#F5F5F5"/>
</mask>
<g mask="url(#mask1_7760_255739)">
<g filter="url(#filter1_ddd_7760_255739)">
<g clip-path="url(#clip0_7760_255739)">
<path d="M1584 -95H-336V985H1584V-95Z" fill="#F5F5F5"/>
<path d="M359 61H227V85H359V61Z" fill="#F5F5F5"/>
<path d="M396.847 72.791C396.946 72.705 397 72.595 397 72.466C397 72.207 396.766 72 396.468 72C396.319 72 396.184 72.055 396.08 72.145L392.995 74.885L389.92 72.145C389.816 72.055 389.676 72 389.532 72C389.234 72 389 72.207 389 72.466C389 72.595 389.054 72.705 389.153 72.791L392.581 75.836C392.698 75.945 392.842 75.996 393 76C393.158 76 393.293 75.945 393.415 75.836L396.847 72.791Z" fill="#757575"/>
<path d="M232.911 67.2001H234.115L230.727 74.7601C230.382 75.5441 230.018 76.1131 229.635 76.4681C229.262 76.8231 228.814 77.0001 228.291 77.0001C227.787 77.0001 227.39 76.8831 227.101 76.6501L227.521 75.6421C227.764 75.8101 228.016 75.8941 228.277 75.8941C228.753 75.8941 229.154 75.5631 229.481 74.9001L229.649 74.5361L225.211 67.2001H226.555L230.223 73.3461L232.911 67.2001ZM240.105 77.0001H238.985V71.7501H235.555V77.0001H234.435V70.7001H240.105V77.0001ZM243.502 79.8001H242.382V70.7001H243.502V71.4421C243.726 71.1811 244.034 70.9711 244.426 70.8121C244.818 70.6441 245.224 70.5601 245.644 70.5601C246.54 70.5601 247.245 70.8591 247.758 71.4561C248.29 72.0441 248.556 72.8091 248.556 73.7521C248.556 74.7131 248.253 75.5211 247.646 76.1741C247.049 76.8181 246.26 77.1401 245.28 77.1401C244.524 77.1401 243.931 76.9951 243.502 76.7061V79.8001ZM245.322 71.6101C244.575 71.6101 243.969 71.8991 243.502 72.4781V75.6001C243.997 75.9271 244.557 76.0901 245.182 76.0901C245.845 76.0901 246.372 75.8801 246.764 75.4601C247.165 75.0311 247.366 74.4751 247.366 73.7941C247.366 73.1311 247.184 72.6041 246.82 72.2121C246.456 71.8111 245.957 71.6101 245.322 71.6101ZM250.747 72.0301L250.453 71.1341C251.079 70.7511 251.779 70.5601 252.553 70.5601C253.403 70.5601 254.019 70.7701 254.401 71.1901C254.784 71.6101 254.975 72.2591 254.975 73.1361V77.0001H253.911V76.1881C253.417 76.7951 252.745 77.0981 251.895 77.0981C251.317 77.0981 250.85 76.9251 250.495 76.5801C250.141 76.2251 249.963 75.7491 249.963 75.1521C249.963 74.5361 250.183 74.0511 250.621 73.6961C251.06 73.3321 251.634 73.1501 252.343 73.1501C253.006 73.1501 253.529 73.2851 253.911 73.5561C253.911 72.8471 253.813 72.3381 253.617 72.0301C253.421 71.7221 253.043 71.5681 252.483 71.5681C251.914 71.5681 251.335 71.7221 250.747 72.0301ZM252.287 76.0901C252.913 76.0901 253.454 75.8191 253.911 75.2781V74.4801C253.519 74.2001 253.048 74.0601 252.497 74.0601C252.115 74.0601 251.793 74.1531 251.531 74.3401C251.279 74.5171 251.153 74.7691 251.153 75.0961C251.153 75.4041 251.251 75.6471 251.447 75.8241C251.653 76.0011 251.933 76.0901 252.287 76.0901ZM257.101 77.0001V70.7001C257.147 70.7001 257.213 70.7001 257.297 70.7001C257.381 70.6911 257.502 70.6861 257.661 70.6861C257.819 70.6771 257.964 70.6721 258.095 70.6721C258.785 70.6531 259.215 70.6441 259.383 70.6441C261.193 70.6441 262.099 71.1851 262.099 72.2681C262.099 72.6411 261.982 72.9631 261.749 73.2341C261.515 73.4951 261.212 73.6541 260.839 73.7101V73.7381C261.819 73.9151 262.309 74.4101 262.309 75.2221C262.309 76.4451 261.343 77.0561 259.411 77.0561C259.317 77.0561 258.907 77.0471 258.179 77.0281C258.039 77.0281 257.885 77.0231 257.717 77.0141C257.549 77.0141 257.418 77.0091 257.325 77.0001C257.231 77.0001 257.157 77.0001 257.101 77.0001ZM259.565 74.1721H258.221V76.1041C258.893 76.1321 259.322 76.1461 259.509 76.1461C260.582 76.1461 261.119 75.8101 261.119 75.1381C261.119 74.4941 260.601 74.1721 259.565 74.1721ZM259.467 71.5541C259.196 71.5541 258.781 71.5681 258.221 71.5961V73.4721H259.635C260.017 73.4721 260.325 73.3831 260.559 73.2061C260.792 73.0291 260.909 72.7911 260.909 72.4921C260.909 71.8671 260.428 71.5541 259.467 71.5541ZM269.701 77.0001H268.581V71.8201H266.369L266.299 72.8841C266.224 73.7521 266.112 74.4751 265.963 75.0541C265.823 75.6231 265.636 76.0531 265.403 76.3421C265.179 76.6221 264.941 76.8181 264.689 76.9301C264.437 77.0331 264.129 77.0841 263.765 77.0841L263.681 75.9921C263.783 76.0011 263.891 75.9871 264.003 75.9501C264.115 75.9031 264.236 75.8101 264.367 75.6701C264.507 75.5301 264.628 75.3431 264.731 75.1101C264.843 74.8771 264.941 74.5501 265.025 74.1301C265.118 73.7011 265.179 73.2111 265.207 72.6601L265.319 70.7001H269.701V77.0001ZM276.94 75.4321L277.29 76.3141C276.683 76.8651 275.895 77.1401 274.924 77.1401C273.897 77.1401 273.081 76.8411 272.474 76.2441C271.858 75.6471 271.55 74.8491 271.55 73.8501C271.55 72.9071 271.839 72.1231 272.418 71.4981C272.987 70.8731 273.781 70.5601 274.798 70.5601C275.638 70.5601 276.333 70.8311 276.884 71.3721C277.444 71.9041 277.724 72.5951 277.724 73.4441C277.724 73.7151 277.701 73.9671 277.654 74.2001H272.81C272.857 74.7881 273.076 75.2501 273.468 75.5861C273.869 75.9221 274.383 76.0901 275.008 76.0901C275.829 76.0901 276.473 75.8711 276.94 75.4321ZM274.742 71.6101C274.191 71.6101 273.734 71.7641 273.37 72.0721C273.015 72.3801 272.805 72.7861 272.74 73.2901H276.562C276.534 72.7671 276.357 72.3571 276.03 72.0581C275.713 71.7591 275.283 71.6101 274.742 71.6101ZM285.233 77.0001H284.113V74.3401H280.613V77.0001H279.493V70.7001H280.613V73.2901H284.113V70.7001H285.233V77.0001ZM292.269 72.3101L288.629 77.0001H287.509V70.7001H288.629V75.3901L292.269 70.7001H293.389V77.0001H292.269V72.3101ZM300.645 75.4321L300.995 76.3141C300.388 76.8651 299.6 77.1401 298.629 77.1401C297.602 77.1401 296.786 76.8411 296.179 76.2441C295.563 75.6471 295.255 74.8491 295.255 73.8501C295.255 72.9071 295.544 72.1231 296.123 71.4981C296.692 70.8731 297.486 70.5601 298.503 70.5601C299.343 70.5601 300.038 70.8311 300.589 71.3721C301.149 71.9041 301.429 72.5951 301.429 73.4441C301.429 73.7151 301.406 73.9671 301.359 74.2001H296.515C296.562 74.7881 296.781 75.2501 297.173 75.5861C297.574 75.9221 298.088 76.0901 298.713 76.0901C299.534 76.0901 300.178 75.8711 300.645 75.4321ZM298.447 71.6101C297.896 71.6101 297.439 71.7641 297.075 72.0721C296.72 72.3801 296.51 72.7861 296.445 73.2901H300.267C300.239 72.7671 300.062 72.3571 299.735 72.0581C299.418 71.7591 298.988 71.6101 298.447 71.6101ZM306.929 72.0301L306.635 71.1341C307.26 70.7511 307.96 70.5601 308.735 70.5601C309.584 70.5601 310.2 70.7701 310.583 71.1901C310.966 71.6101 311.157 72.2591 311.157 73.1361V77.0001H310.093V76.1881C309.598 76.7951 308.926 77.0981 308.077 77.0981C307.498 77.0981 307.032 76.9251 306.677 76.5801C306.322 76.2251 306.145 75.7491 306.145 75.1521C306.145 74.5361 306.364 74.0511 306.803 73.6961C307.242 73.3321 307.816 73.1501 308.525 73.1501C309.188 73.1501 309.71 73.2851 310.093 73.5561C310.093 72.8471 309.995 72.3381 309.799 72.0301C309.603 71.7221 309.225 71.5681 308.665 71.5681C308.096 71.5681 307.517 71.7221 306.929 72.0301ZM308.469 76.0901C309.094 76.0901 309.636 75.8191 310.093 75.2781V74.4801C309.701 74.2001 309.23 74.0601 308.679 74.0601C308.296 74.0601 307.974 74.1531 307.713 74.3401C307.461 74.5171 307.335 74.7691 307.335 75.0961C307.335 75.4041 307.433 75.6471 307.629 75.8241C307.834 76.0011 308.114 76.0901 308.469 76.0901ZM319.022 77.0001H317.902V74.3401H314.402V77.0001H313.282V70.7001H314.402V73.2901H317.902V70.7001H319.022V77.0001ZM326.142 75.2781L326.674 76.0901C326.133 76.7901 325.325 77.1401 324.252 77.1401C323.244 77.1401 322.427 76.8411 321.802 76.2441C321.186 75.6471 320.878 74.8491 320.878 73.8501C320.878 72.9261 321.181 72.1471 321.788 71.5121C322.395 70.8771 323.155 70.5601 324.07 70.5601C325.171 70.5601 325.997 70.8351 326.548 71.3861L326.03 72.2681C325.545 71.8291 324.943 71.6101 324.224 71.6101C323.636 71.6101 323.127 71.8251 322.698 72.2541C322.278 72.6741 322.068 73.2061 322.068 73.8501C322.068 74.5311 322.283 75.0731 322.712 75.4741C323.151 75.8851 323.692 76.0901 324.336 76.0901C325.064 76.0901 325.666 75.8191 326.142 75.2781ZM328.72 72.0301L328.426 71.1341C329.051 70.7511 329.751 70.5601 330.526 70.5601C331.375 70.5601 331.991 70.7701 332.374 71.1901C332.757 71.6101 332.948 72.2591 332.948 73.1361V77.0001H331.884V76.1881C331.389 76.7951 330.717 77.0981 329.868 77.0981C329.289 77.0981 328.823 76.9251 328.468 76.5801C328.113 76.2251 327.936 75.7491 327.936 75.1521C327.936 74.5361 328.155 74.0511 328.594 73.6961C329.033 73.3321 329.607 73.1501 330.316 73.1501C330.979 73.1501 331.501 73.2851 331.884 73.5561C331.884 72.8471 331.786 72.3381 331.59 72.0301C331.394 71.7221 331.016 71.5681 330.456 71.5681C329.887 71.5681 329.308 71.7221 328.72 72.0301ZM330.26 76.0901C330.885 76.0901 331.427 75.8191 331.884 75.2781V74.4801C331.492 74.2001 331.021 74.0601 330.47 74.0601C330.087 74.0601 329.765 74.1531 329.504 74.3401C329.252 74.5171 329.126 74.7691 329.126 75.0961C329.126 75.4041 329.224 75.6471 329.42 75.8241C329.625 76.0011 329.905 76.0901 330.26 76.0901ZM336.193 77.0001H335.073V70.7001H336.095L338.517 73.8221L340.813 70.7001H341.807V77.0001H340.687V72.4081L338.503 75.3341H338.461L336.193 72.4081V77.0001ZM348.959 67.0601L349.561 67.9421C349.337 68.2501 349.066 68.4601 348.749 68.5721C348.404 68.6931 348.012 68.7871 347.573 68.8521C347.144 68.9171 346.738 69.0341 346.355 69.2021C345.403 69.6411 344.871 70.6531 344.759 72.2401H344.787C344.992 71.8011 345.324 71.4471 345.781 71.1761C346.248 70.9051 346.747 70.7701 347.279 70.7701C348.175 70.7701 348.884 71.0551 349.407 71.6241C349.939 72.1931 350.205 72.9541 350.205 73.9061C350.205 74.8021 349.902 75.5671 349.295 76.2021C348.698 76.8271 347.923 77.1401 346.971 77.1401C345.944 77.1401 345.132 76.7901 344.535 76.0901C343.938 75.3991 343.639 74.4431 343.639 73.2201C343.639 70.4951 344.418 68.8011 345.977 68.1381C346.332 67.9791 346.742 67.8631 347.209 67.7881C347.573 67.7231 347.834 67.6711 347.993 67.6341C348.152 67.5971 348.32 67.5311 348.497 67.4381C348.684 67.3451 348.838 67.2191 348.959 67.0601ZM344.829 73.4301C344.829 74.2331 345.025 74.8771 345.417 75.3621C345.809 75.8471 346.318 76.0901 346.943 76.0901C347.55 76.0901 348.044 75.8851 348.427 75.4741C348.819 75.0731 349.015 74.5691 349.015 73.9621C349.015 73.3181 348.833 72.8001 348.469 72.4081C348.114 72.0161 347.624 71.8201 346.999 71.8201C346.43 71.8201 345.954 71.9791 345.571 72.2961C345.17 72.6231 344.922 73.0011 344.829 73.4301ZM357.248 77.0001H356.128V71.8201H353.916L353.846 72.8841C353.771 73.7521 353.659 74.4751 353.51 75.0541C353.37 75.6231 353.183 76.0531 352.95 76.3421C352.726 76.6221 352.488 76.8181 352.236 76.9301C351.984 77.0331 351.676 77.0841 351.312 77.0841L351.228 75.9921C351.33 76.0011 351.438 75.9871 351.55 75.9501C351.662 75.9031 351.783 75.8101 351.914 75.6701C352.054 75.5301 352.175 75.3431 352.278 75.1101C352.39 74.8771 352.488 74.5501 352.572 74.1301C352.665 73.7011 352.726 73.2111 352.754 72.6601L352.866 70.7001H357.248V77.0001ZM362.275 70.7001H364.235V77.0001H363.115V74.9001H361.897L360.357 77.0001H358.999L360.819 74.6201C360.436 74.5361 360.114 74.3311 359.853 74.0041C359.591 73.6681 359.461 73.2671 359.461 72.8001C359.461 72.1561 359.694 71.6471 360.161 71.2741C360.627 70.8911 361.332 70.7001 362.275 70.7001ZM360.651 72.8281C360.651 73.1271 360.767 73.3741 361.001 73.5701C361.234 73.7571 361.509 73.8501 361.827 73.8501H363.115V71.7501H362.093C361.617 71.7501 361.257 71.8481 361.015 72.0441C360.772 72.2401 360.651 72.5011 360.651 72.8281ZM367.641 77.0001H366.521V70.7001H367.543L369.965 73.8221L372.261 70.7001H373.255V77.0001H372.135V72.4081L369.951 75.3341H369.909L367.641 72.4081V77.0001ZM380.294 72.3101L376.654 77.0001H375.534V70.7001H376.654V75.3901L380.294 70.7001H381.414V77.0001H380.294V72.3101Z" fill="#757575"/>
<g filter="url(#filter2_d_7760_255739)">
<path fill-rule="evenodd" clip-rule="evenodd" d="M48 49C43.582 49 40 52.582 40 57V97V1034H1584V97H215L199.205 58.876C196.728 52.898 190.895 49 184.424 49H48Z" fill="white"/>
</g>
<path d="M72 224C72 219.582 75.582 216 80 216H412C416.418 216 420 219.582 420 224V1059H72V224Z" fill="#F5F5F5"/>
<path d="M388 340.5H104C99.8579 340.5 96.5 343.858 96.5 348V632C96.5 636.142 99.8579 639.5 104 639.5H388C392.142 639.5 395.5 636.142 395.5 632V348C395.5 343.858 392.142 340.5 388 340.5Z" stroke="#DCDCDC" stroke-dasharray="8 8"/>
<path d="M388 284H104C99.5817 284 96 287.582 96 292V316C96 320.418 99.5817 324 104 324H388C392.418 324 396 320.418 396 316V292C396 287.582 392.418 284 388 284Z" fill="#E0E0E0"/>
<path d="M239.812 304H252.188" stroke="#616161" stroke-width="1.5" stroke-linecap="round" stroke-linejoin="round"/>
<path d="M246 297.812V310.188" stroke="#616161" stroke-width="1.5" stroke-linecap="round" stroke-linejoin="round"/>
<path d="M228 238.5H216C214.067 238.5 212.5 240.067 212.5 242V254C212.5 255.933 214.067 257.5 216 257.5H228C229.933 257.5 231.5 255.933 231.5 254V242C231.5 240.067 229.933 238.5 228 238.5Z" fill="#FAFAFA" stroke="#BDBDBD"/>
<path d="M221.87 252.476C221.35 252.476 220.898 252.38 220.514 252.188C220.13 251.988 219.814 251.704 219.566 251.336C219.318 250.968 219.134 250.516 219.014 249.98C218.894 249.444 218.834 248.832 218.834 248.144C218.834 247.464 218.894 246.856 219.014 246.32C219.134 245.776 219.318 245.32 219.566 244.952C219.814 244.584 220.13 244.304 220.514 244.112C220.898 243.912 221.35 243.812 221.87 243.812C222.91 243.812 223.674 244.192 224.162 244.952C224.658 245.712 224.906 246.776 224.906 248.144C224.906 249.512 224.658 250.576 224.162 251.336C223.674 252.096 222.91 252.476 221.87 252.476ZM221.87 251.324C222.158 251.324 222.402 251.268 222.602 251.156C222.81 251.036 222.978 250.868 223.106 250.652C223.234 250.436 223.326 250.18 223.382 249.884C223.438 249.58 223.466 249.244 223.466 248.876V247.412C223.466 247.044 223.438 246.712 223.382 246.416C223.326 246.112 223.234 245.852 223.106 245.636C222.978 245.42 222.81 245.256 222.602 245.144C222.402 245.024 222.158 244.964 221.87 244.964C221.582 244.964 221.334 245.024 221.126 245.144C220.926 245.256 220.762 245.42 220.634 245.636C220.506 245.852 220.414 246.112 220.358 246.416C220.302 246.712 220.274 247.044 220.274 247.412V248.876C220.274 249.244 220.302 249.58 220.358 249.884C220.414 250.18 220.506 250.436 220.634 250.652C220.762 250.868 220.926 251.036 221.126 251.156C221.334 251.268 221.582 251.324 221.87 251.324Z" fill="#BDBDBD"/>
<path d="M105.329 250.44L106.081 251.912C105.729 252.285 105.222 252.589 104.561 252.824C103.91 253.059 103.222 253.176 102.497 253.176C100.79 253.176 99.3977 252.648 98.3207 251.592C97.2537 250.536 96.7207 249.139 96.7207 247.4C96.7207 245.736 97.2277 244.355 98.2407 243.256C99.2437 242.168 100.646 241.624 102.449 241.624C103.878 241.624 105.014 242.003 105.857 242.76L104.977 244.216C104.22 243.715 103.377 243.464 102.449 243.464C101.382 243.464 100.508 243.821 99.8247 244.536C99.1417 245.251 98.8007 246.205 98.8007 247.4C98.8007 248.573 99.1577 249.523 99.8727 250.248C100.598 250.973 101.532 251.336 102.673 251.336C103.654 251.336 104.54 251.037 105.329 250.44ZM108.672 247.64H106.304V245.8H112.864V247.64H110.512V253H108.672V247.64ZM115.241 247.656L114.777 246.312C115.556 245.853 116.404 245.624 117.321 245.624C118.324 245.624 119.055 245.869 119.513 246.36C119.972 246.851 120.201 247.603 120.201 248.616V253H118.601V252.168C118.175 252.787 117.465 253.096 116.473 253.096C115.791 253.096 115.241 252.899 114.825 252.504C114.42 252.099 114.217 251.56 114.217 250.888C114.217 250.141 114.457 249.565 114.937 249.16C115.417 248.755 116.052 248.552 116.841 248.552C117.492 248.552 118.036 248.707 118.473 249.016C118.495 248.376 118.399 247.907 118.185 247.608C117.983 247.309 117.631 247.16 117.129 247.16C116.575 247.16 115.945 247.325 115.241 247.656ZM117.081 251.544C117.7 251.544 118.164 251.325 118.473 250.888V250.152C118.175 249.917 117.753 249.8 117.209 249.8C116.868 249.8 116.591 249.88 116.377 250.04C116.164 250.2 116.057 250.419 116.057 250.696C116.057 250.952 116.153 251.16 116.345 251.32C116.537 251.469 116.783 251.544 117.081 251.544ZM124.428 256.2H122.588V245.8H124.428V246.488C124.662 246.232 124.982 246.024 125.388 245.864C125.793 245.704 126.214 245.624 126.652 245.624C127.644 245.624 128.433 245.965 129.02 246.648C129.617 247.341 129.916 248.221 129.916 249.288C129.916 250.408 129.564 251.336 128.86 252.072C128.156 252.808 127.238 253.176 126.108 253.176C125.382 253.176 124.822 253.059 124.428 252.824V256.2ZM126.076 247.352C125.436 247.352 124.886 247.613 124.428 248.136V251.048C124.865 251.325 125.372 251.464 125.948 251.464C126.556 251.464 127.041 251.267 127.404 250.872C127.777 250.477 127.964 249.965 127.964 249.336C127.964 248.739 127.793 248.259 127.452 247.896C127.121 247.533 126.662 247.352 126.076 247.352ZM141.609 253H132.009V245.8H133.849V251.288H135.881V245.8H137.721V251.288H139.769V245.8H141.609V253ZM149.35 248.44L145.99 253H144.15V245.8H145.99V250.36L149.35 245.8H151.19V253H149.35V248.44ZM158.944 248.44L155.584 253H153.744V245.8H155.584V250.36L158.944 245.8H160.784V253H158.944V248.44ZM154.816 242.2H156.496C156.496 242.552 156.565 242.835 156.704 243.048C156.842 243.261 157.05 243.368 157.328 243.368C157.573 243.368 157.76 243.261 157.888 243.048C158.026 242.824 158.096 242.541 158.096 242.2H159.776C159.776 242.947 159.557 243.549 159.12 244.008C158.682 244.456 158.085 244.68 157.328 244.68C156.496 244.68 155.866 244.461 155.44 244.024C155.024 243.576 154.816 242.968 154.816 242.2ZM172.636 241.624L173.596 243.128C173.34 243.448 173.02 243.683 172.636 243.832C172.295 243.949 171.868 244.067 171.356 244.184C170.855 244.28 170.439 244.413 170.108 244.584C169.223 245 168.705 245.896 168.556 247.272H168.588C168.812 246.877 169.159 246.557 169.628 246.312C170.097 246.056 170.593 245.928 171.116 245.928C172.108 245.928 172.903 246.248 173.5 246.888C174.097 247.539 174.396 248.397 174.396 249.464C174.396 250.499 174.044 251.379 173.34 252.104C172.636 252.819 171.729 253.176 170.62 253.176C169.415 253.176 168.46 252.765 167.756 251.944C167.063 251.123 166.716 250.013 166.716 248.616C166.716 245.544 167.623 243.613 169.436 242.824C169.831 242.653 170.268 242.525 170.748 242.44C171.292 242.333 171.692 242.232 171.948 242.136C172.204 242.029 172.433 241.859 172.636 241.624ZM168.684 249C168.695 249.725 168.871 250.317 169.212 250.776C169.553 251.235 170.007 251.464 170.572 251.464C171.127 251.464 171.575 251.283 171.916 250.92C172.257 250.557 172.428 250.099 172.428 249.544C172.428 248.979 172.268 248.52 171.948 248.168C171.639 247.816 171.207 247.64 170.652 247.64C170.172 247.64 169.756 247.768 169.404 248.024C169.052 248.269 168.812 248.595 168.684 249ZM178.334 256.2H176.494V245.8H178.334V246.488C178.568 246.232 178.888 246.024 179.294 245.864C179.699 245.704 180.12 245.624 180.558 245.624C181.55 245.624 182.339 245.965 182.926 246.648C183.523 247.341 183.822 248.221 183.822 249.288C183.822 250.408 183.47 251.336 182.766 252.072C182.062 252.808 181.144 253.176 180.014 253.176C179.288 253.176 178.728 253.059 178.334 252.824V256.2ZM179.982 247.352C179.342 247.352 178.792 247.613 178.334 248.136V251.048C178.771 251.325 179.278 251.464 179.854 251.464C180.462 251.464 180.947 251.267 181.31 250.872C181.683 250.477 181.87 249.965 181.87 249.336C181.87 248.739 181.699 248.259 181.358 247.896C181.027 247.533 180.568 247.352 179.982 247.352ZM186.476 247.656L186.012 246.312C186.79 245.853 187.638 245.624 188.556 245.624C189.558 245.624 190.289 245.869 190.748 246.36C191.206 246.851 191.436 247.603 191.436 248.616V253H189.836V252.168C189.409 252.787 188.7 253.096 187.708 253.096C187.025 253.096 186.476 252.899 186.06 252.504C185.654 252.099 185.452 251.56 185.452 250.888C185.452 250.141 185.692 249.565 186.172 249.16C186.652 248.755 187.286 248.552 188.076 248.552C188.726 248.552 189.27 248.707 189.708 249.016C189.729 248.376 189.633 247.907 189.42 247.608C189.217 247.309 188.865 247.16 188.364 247.16C187.809 247.16 187.18 247.325 186.476 247.656ZM188.316 251.544C188.934 251.544 189.398 251.325 189.708 250.888V250.152C189.409 249.917 188.988 249.8 188.444 249.8C188.102 249.8 187.825 249.88 187.612 250.04C187.398 250.2 187.292 250.419 187.292 250.696C187.292 250.952 187.388 251.16 187.58 251.32C187.772 251.469 188.017 251.544 188.316 251.544ZM195.438 247.64H193.07V245.8H199.63V247.64H197.278V253H195.438V247.64Z" fill="#212121"/>
<path d="M378 250C379.105 250 380 249.105 380 248C380 246.895 379.105 246 378 246C376.895 246 376 246.895 376 248C376 249.105 376.895 250 378 250Z" fill="#BDBDBD"/>
<path d="M384 250C385.105 250 386 249.105 386 248C386 246.895 385.105 246 384 246C382.895 246 382 246.895 382 248C382 249.105 382.895 250 384 250Z" fill="#BDBDBD"/>
<path d="M390 250C391.105 250 392 249.105 392 248C392 246.895 391.105 246 390 246C388.895 246 388 246.895 388 248C388 249.105 388.895 250 390 250Z" fill="#BDBDBD"/>
<path d="M283 154H147C141.477 154 137 158.477 137 164C137 169.523 141.477 174 147 174H283C288.523 174 293 169.523 293 164C293 158.477 288.523 154 283 154Z" fill="#F5F5F5"/>
<path d="M153.551 167H152.321V161.15H149.201V167H147.971V160H153.551V167ZM160.041 167H155.891V160H159.941V161.15H157.121V162.89H159.641V164.04H157.121V165.85H160.041V167ZM163.272 164.47V167H162.042V160C162.336 160 162.652 159.997 162.992 159.99C163.339 159.983 163.686 159.98 164.032 159.98C164.526 159.98 164.952 160.043 165.312 160.17C165.679 160.29 165.962 160.46 166.162 160.68C166.362 160.893 166.509 161.13 166.602 161.39C166.696 161.643 166.742 161.923 166.742 162.23C166.742 162.863 166.516 163.4 166.062 163.84C165.616 164.28 164.989 164.5 164.182 164.5C163.776 164.5 163.472 164.49 163.272 164.47ZM164.152 161.13L163.272 161.15V163.3C163.626 163.333 163.916 163.35 164.142 163.35C164.536 163.35 164.849 163.253 165.082 163.06C165.322 162.867 165.442 162.587 165.442 162.22C165.442 161.493 165.012 161.13 164.152 161.13ZM173.377 165.4L173.847 166.32C173.627 166.553 173.31 166.743 172.897 166.89C172.49 167.037 172.06 167.11 171.607 167.11C170.54 167.11 169.67 166.78 168.997 166.12C168.33 165.46 167.997 164.587 167.997 163.5C167.997 162.46 168.313 161.597 168.947 160.91C169.573 160.23 170.45 159.89 171.577 159.89C172.47 159.89 173.18 160.127 173.707 160.6L173.157 161.51C172.683 161.197 172.157 161.04 171.577 161.04C170.91 161.04 170.363 161.263 169.937 161.71C169.51 162.157 169.297 162.753 169.297 163.5C169.297 164.233 169.52 164.827 169.967 165.28C170.42 165.733 171.003 165.96 171.717 165.96C172.33 165.96 172.883 165.773 173.377 165.4ZM174.656 163.5C174.656 162.48 174.996 161.623 175.676 160.93C176.37 160.237 177.243 159.89 178.296 159.89C179.35 159.89 180.22 160.223 180.906 160.89C181.6 161.563 181.946 162.433 181.946 163.5C181.946 164.547 181.6 165.41 180.906 166.09C180.213 166.77 179.343 167.11 178.296 167.11C177.243 167.11 176.373 166.777 175.686 166.11C175 165.443 174.656 164.573 174.656 163.5ZM175.956 163.5C175.956 164.207 176.18 164.793 176.626 165.26C177.073 165.727 177.63 165.96 178.296 165.96C179.016 165.96 179.586 165.727 180.006 165.26C180.433 164.793 180.646 164.207 180.646 163.5C180.646 162.787 180.42 162.197 179.966 161.73C179.513 161.27 178.956 161.04 178.296 161.04C177.623 161.04 177.063 161.27 176.616 161.73C176.176 162.19 175.956 162.78 175.956 163.5ZM189.42 167H188.2V164.01H185V167H183.77V160H185V162.86H188.2V160H189.42V167ZM192.098 167H190.858L193.818 159.98H194.898L197.858 167H196.548L195.818 165.21H192.828L192.098 167ZM195.348 164.06L194.328 161.57L193.298 164.06H195.348ZM204.598 167H203.378V161.15H201.338L201.198 162.47C201.118 163.27 201.014 163.953 200.888 164.52C200.761 165.087 200.621 165.54 200.468 165.88C200.314 166.22 200.131 166.48 199.918 166.66C199.711 166.84 199.494 166.953 199.268 167C199.048 167.04 198.791 167.04 198.498 167L198.528 165.78C198.674 165.8 198.794 165.793 198.888 165.76C198.981 165.727 199.091 165.633 199.218 165.48C199.358 165.307 199.471 165.077 199.558 164.79C199.798 164.077 199.974 162.947 200.088 161.4L200.188 160H204.598V167ZM208.863 163.5C208.743 163.5 208.509 163.517 208.163 163.55V165.84C208.603 165.86 208.829 165.87 208.843 165.87C209.816 165.87 210.303 165.46 210.303 164.64C210.303 164.267 210.176 163.983 209.923 163.79C209.669 163.597 209.316 163.5 208.863 163.5ZM206.933 160H208.163V162.4C208.449 162.367 208.716 162.35 208.963 162.35C209.829 162.35 210.486 162.547 210.933 162.94C211.379 163.333 211.603 163.89 211.603 164.61C211.603 165.357 211.346 165.947 210.833 166.38C210.326 166.807 209.616 167.02 208.703 167.02C208.316 167.02 207.986 167.017 207.713 167.01C207.439 167.003 207.179 167 206.933 167V160ZM219.076 167H217.856V164.01H214.656V167H213.426V160H214.656V162.86H217.856V160H219.076V167ZM228.114 167H226.894V160H228.114V167ZM223.324 163.5C223.218 163.5 222.991 163.517 222.644 163.55V165.84C222.698 165.84 222.804 165.847 222.964 165.86C223.124 165.867 223.238 165.87 223.304 165.87C224.224 165.87 224.684 165.46 224.684 164.64C224.684 164.267 224.568 163.983 224.334 163.79C224.101 163.597 223.764 163.5 223.324 163.5ZM221.414 160H222.644V162.4C222.931 162.367 223.191 162.35 223.424 162.35C224.258 162.35 224.891 162.55 225.324 162.95C225.764 163.343 225.984 163.897 225.984 164.61C225.984 165.357 225.731 165.947 225.224 166.38C224.724 166.807 224.034 167.02 223.154 167.02C222.781 167.02 222.458 167.017 222.184 167.01C221.918 167.003 221.661 167 221.414 167V160ZM235.207 162.03L231.537 167H230.457V160H231.687V164.98L235.357 160H236.437V167H235.207V162.03ZM231.567 158.3H232.717C232.797 158.687 233.08 158.88 233.567 158.88C234.074 158.88 234.34 158.687 234.367 158.3H235.517C235.51 158.72 235.32 159.067 234.947 159.34C234.574 159.6 234.114 159.73 233.567 159.73C232.98 159.73 232.507 159.603 232.147 159.35C231.794 159.09 231.6 158.74 231.567 158.3ZM246.876 167H245.646V161.15H242.526V167H241.296V160H246.876V167ZM250.446 164.47V167H249.216V160C249.509 160 249.826 159.997 250.166 159.99C250.512 159.983 250.859 159.98 251.206 159.98C251.699 159.98 252.126 160.043 252.486 160.17C252.852 160.29 253.136 160.46 253.336 160.68C253.536 160.893 253.682 161.13 253.776 161.39C253.869 161.643 253.916 161.923 253.916 162.23C253.916 162.863 253.689 163.4 253.236 163.84C252.789 164.28 252.162 164.5 251.356 164.5C250.949 164.5 250.646 164.49 250.446 164.47ZM251.326 161.13L250.446 161.15V163.3C250.799 163.333 251.089 163.35 251.316 163.35C251.709 163.35 252.022 163.253 252.256 163.06C252.496 162.867 252.616 162.587 252.616 162.22C252.616 161.493 252.186 161.13 251.326 161.13ZM255.17 163.5C255.17 162.48 255.51 161.623 256.19 160.93C256.883 160.237 257.756 159.89 258.81 159.89C259.863 159.89 260.733 160.223 261.42 160.89C262.113 161.563 262.46 162.433 262.46 163.5C262.46 164.547 262.113 165.41 261.42 166.09C260.726 166.77 259.856 167.11 258.81 167.11C257.756 167.11 256.886 166.777 256.2 166.11C255.513 165.443 255.17 164.573 255.17 163.5ZM256.47 163.5C256.47 164.207 256.693 164.793 257.14 165.26C257.586 165.727 258.143 165.96 258.81 165.96C259.53 165.96 260.1 165.727 260.52 165.26C260.946 164.793 261.16 164.207 261.16 163.5C261.16 162.787 260.933 162.197 260.48 161.73C260.026 161.27 259.47 161.04 258.81 161.04C258.136 161.04 257.576 161.27 257.13 161.73C256.69 162.19 256.47 162.78 256.47 163.5ZM268.433 167H264.283V160H268.333V161.15H265.513V162.89H268.033V164.04H265.513V165.85H268.433V167ZM271.665 167H270.435V160H271.665V163.32L274.425 160H275.905L273.025 163.26L276.085 167H274.525L271.665 163.39V167ZM278.895 161.15H276.625V160H282.395V161.15H280.125V167H278.895V161.15Z" fill="#9E9E9E"/>
<path d="M787 216.5H455C450.858 216.5 447.5 219.858 447.5 224V1008C447.5 1012.14 450.858 1015.5 455 1015.5H787C791.142 1015.5 794.5 1012.14 794.5 1008V224C794.5 219.858 791.142 216.5 787 216.5Z" stroke="#DCDCDC" stroke-linecap="round" stroke-dasharray="8 8"/>
<path d="M473.031 255H471.191V251.16H472.391C472.711 250.787 473.058 249.96 473.431 248.68C473.815 247.368 474.044 245.821 474.119 244.04L474.231 241.8H481.175V251.16H482.695V255H480.855V253H473.031V255ZM476.135 243.64L475.959 245.592C475.863 246.936 475.666 248.115 475.367 249.128C475.058 250.184 474.786 250.861 474.551 251.16H479.223V243.64H476.135ZM484.975 252.12C484.26 251.405 483.903 250.499 483.903 249.4C483.903 248.301 484.26 247.4 484.975 246.696C485.69 245.981 486.639 245.624 487.823 245.624C488.996 245.624 489.94 245.981 490.655 246.696C491.38 247.4 491.743 248.301 491.743 249.4C491.743 250.488 491.38 251.395 490.655 252.12C489.93 252.824 488.986 253.176 487.823 253.176C486.639 253.176 485.69 252.824 484.975 252.12ZM486.431 247.928C486.058 248.312 485.871 248.803 485.871 249.4C485.871 249.997 486.052 250.493 486.415 250.888C486.788 251.272 487.258 251.464 487.823 251.464C488.399 251.464 488.868 251.272 489.231 250.888C489.604 250.504 489.791 250.008 489.791 249.4C489.791 248.803 489.604 248.312 489.231 247.928C488.858 247.544 488.388 247.352 487.823 247.352C487.268 247.352 486.804 247.544 486.431 247.928ZM499.244 241.624L500.204 243.128C499.948 243.448 499.628 243.683 499.244 243.832C498.902 243.949 498.476 244.067 497.964 244.184C497.462 244.28 497.046 244.413 496.716 244.584C495.83 245 495.313 245.896 495.163 247.272H495.196C495.42 246.877 495.766 246.557 496.236 246.312C496.705 246.056 497.201 245.928 497.724 245.928C498.716 245.928 499.51 246.248 500.108 246.888C500.705 247.539 501.004 248.397 501.004 249.464C501.004 250.499 500.652 251.379 499.948 252.104C499.244 252.819 498.337 253.176 497.228 253.176C496.022 253.176 495.068 252.765 494.364 251.944C493.67 251.123 493.324 250.013 493.324 248.616C493.324 245.544 494.23 243.613 496.044 242.824C496.438 242.653 496.876 242.525 497.356 242.44C497.9 242.333 498.3 242.232 498.556 242.136C498.812 242.029 499.041 241.859 499.244 241.624ZM495.292 249C495.302 249.725 495.478 250.317 495.82 250.776C496.161 251.235 496.614 251.464 497.18 251.464C497.734 251.464 498.182 251.283 498.524 250.92C498.865 250.557 499.036 250.099 499.036 249.544C499.036 248.979 498.876 248.52 498.556 248.168C498.246 247.816 497.814 247.64 497.26 247.64C496.78 247.64 496.364 247.768 496.012 248.024C495.66 248.269 495.42 248.595 495.292 249ZM503.661 247.656L503.197 246.312C503.976 245.853 504.824 245.624 505.741 245.624C506.744 245.624 507.474 245.869 507.933 246.36C508.392 246.851 508.621 247.603 508.621 248.616V253H507.021V252.168C506.594 252.787 505.885 253.096 504.893 253.096C504.21 253.096 503.661 252.899 503.245 252.504C502.84 252.099 502.637 251.56 502.637 250.888C502.637 250.141 502.877 249.565 503.357 249.16C503.837 248.755 504.472 248.552 505.261 248.552C505.912 248.552 506.456 248.707 506.893 249.016C506.914 248.376 506.818 247.907 506.605 247.608C506.402 247.309 506.05 247.16 505.549 247.16C504.994 247.16 504.365 247.325 503.661 247.656ZM505.501 251.544C506.12 251.544 506.584 251.325 506.893 250.888V250.152C506.594 249.917 506.173 249.8 505.629 249.8C505.288 249.8 505.01 249.88 504.797 250.04C504.584 250.2 504.477 250.419 504.477 250.696C504.477 250.952 504.573 251.16 504.765 251.32C504.957 251.469 505.202 251.544 505.501 251.544ZM511.007 253V245.8C511.103 245.8 511.509 245.789 512.223 245.768C512.949 245.736 513.487 245.72 513.839 245.72C516.015 245.72 517.103 246.349 517.103 247.608C517.103 248.013 516.975 248.371 516.719 248.68C516.463 248.979 516.143 249.155 515.759 249.208V249.24C516.783 249.485 517.295 250.04 517.295 250.904C517.295 252.355 516.154 253.08 513.871 253.08C513.541 253.08 513.034 253.064 512.351 253.032C512.181 253.032 511.983 253.027 511.759 253.016C511.546 253.016 511.381 253.011 511.263 253C511.157 253 511.071 253 511.007 253ZM513.999 249.944H512.847V251.544C513.487 251.587 513.893 251.608 514.063 251.608C514.469 251.608 514.783 251.533 515.007 251.384C515.242 251.235 515.359 251.032 515.359 250.776C515.359 250.221 514.906 249.944 513.999 249.944ZM513.999 247.208C513.573 247.208 513.189 247.219 512.847 247.24V248.824H514.047C514.378 248.824 514.645 248.749 514.847 248.6C515.05 248.451 515.151 248.248 515.151 247.992C515.151 247.469 514.767 247.208 513.999 247.208ZM524.739 248.44L521.379 253H519.539V245.8H521.379V250.36L524.739 245.8H526.579V253H524.739V248.44ZM530.748 247.64H528.38V245.8H534.94V247.64H532.588V253H530.748V247.64ZM539.445 253H536.757V245.8H538.597V247.768H539.589C540.667 247.768 541.461 247.992 541.973 248.44C542.496 248.888 542.757 249.496 542.757 250.264C542.757 251.085 542.48 251.747 541.925 252.248C541.371 252.749 540.544 253 539.445 253ZM539.429 249.24H538.597V251.4H539.413C540.341 251.4 540.805 251.043 540.805 250.328C540.805 249.603 540.347 249.24 539.429 249.24ZM555.449 253H553.609V250.248H550.457V253H548.617V245.8H550.457V248.52H553.609V245.8H555.449V253ZM558.616 252.12C557.901 251.405 557.544 250.499 557.544 249.4C557.544 248.301 557.901 247.4 558.616 246.696C559.33 245.981 560.28 245.624 561.464 245.624C562.637 245.624 563.581 245.981 564.296 246.696C565.021 247.4 565.384 248.301 565.384 249.4C565.384 250.488 565.021 251.395 564.296 252.12C563.57 252.824 562.626 253.176 561.464 253.176C560.28 253.176 559.33 252.824 558.616 252.12ZM560.072 247.928C559.698 248.312 559.512 248.803 559.512 249.4C559.512 249.997 559.693 250.493 560.056 250.888C560.429 251.272 560.898 251.464 561.464 251.464C562.04 251.464 562.509 251.272 562.872 250.888C563.245 250.504 563.432 250.008 563.432 249.4C563.432 248.803 563.245 248.312 562.872 247.928C562.498 247.544 562.029 247.352 561.464 247.352C560.909 247.352 560.445 247.544 560.072 247.928ZM567.476 253V245.8C567.572 245.8 567.977 245.789 568.692 245.768C569.417 245.736 569.956 245.72 570.308 245.72C572.484 245.72 573.572 246.349 573.572 247.608C573.572 248.013 573.444 248.371 573.188 248.68C572.932 248.979 572.612 249.155 572.228 249.208V249.24C573.252 249.485 573.764 250.04 573.764 250.904C573.764 252.355 572.623 253.08 570.34 253.08C570.009 253.08 569.503 253.064 568.82 253.032C568.649 253.032 568.452 253.027 568.228 253.016C568.015 253.016 567.849 253.011 567.732 253C567.625 253 567.54 253 567.476 253ZM570.468 249.944H569.316V251.544C569.956 251.587 570.361 251.608 570.532 251.608C570.937 251.608 571.252 251.533 571.476 251.384C571.711 251.235 571.828 251.032 571.828 250.776C571.828 250.221 571.375 249.944 570.468 249.944ZM570.468 247.208C570.041 247.208 569.657 247.219 569.316 247.24V248.824H570.516C570.847 248.824 571.113 248.749 571.316 248.6C571.519 248.451 571.62 248.248 571.62 247.992C571.62 247.469 571.236 247.208 570.468 247.208ZM580.855 245.8H582.951L580.119 253C579.607 254.248 579.149 255.091 578.743 255.528C578.349 255.976 577.879 256.2 577.335 256.2C576.823 256.2 576.306 256.013 575.783 255.64L576.375 254.248C576.653 254.419 576.903 254.504 577.127 254.504C577.565 254.504 577.933 254.131 578.231 253.384L578.391 253L575.063 245.8H577.271L578.951 249.736C578.973 249.789 579.09 250.136 579.303 250.776C579.367 250.381 579.453 250.029 579.559 249.72L580.855 245.8ZM586.506 253H584.554V245.8H586.506V248.408H587.786C587.978 247.555 588.4 246.877 589.05 246.376C589.701 245.875 590.496 245.624 591.434 245.624C592.586 245.624 593.52 245.981 594.234 246.696C594.949 247.4 595.306 248.301 595.306 249.4C595.306 250.477 594.944 251.379 594.218 252.104C593.504 252.819 592.576 253.176 591.434 253.176C590.464 253.176 589.648 252.915 588.986 252.392C588.336 251.859 587.925 251.144 587.754 250.248H586.506V253ZM589.754 249.4C589.754 249.997 589.909 250.472 590.218 250.824C590.538 251.165 590.96 251.336 591.482 251.336C592.005 251.336 592.426 251.165 592.746 250.824C593.066 250.472 593.226 249.997 593.226 249.4C593.226 248.803 593.066 248.333 592.746 247.992C592.437 247.64 592.016 247.464 591.482 247.464C590.97 247.464 590.554 247.64 590.234 247.992C589.914 248.344 589.754 248.813 589.754 249.4ZM603.144 256.2H601.304V245.8H603.144V246.488C603.379 246.232 603.699 246.024 604.104 245.864C604.51 245.704 604.931 245.624 605.368 245.624C606.36 245.624 607.15 245.965 607.736 246.648C608.334 247.341 608.632 248.221 608.632 249.288C608.632 250.408 608.28 251.336 607.576 252.072C606.872 252.808 605.955 253.176 604.824 253.176C604.099 253.176 603.539 253.059 603.144 252.824V256.2ZM604.792 247.352C604.152 247.352 603.603 247.613 603.144 248.136V251.048C603.582 251.325 604.088 251.464 604.664 251.464C605.272 251.464 605.758 251.267 606.12 250.872C606.494 250.477 606.68 249.965 606.68 249.336C606.68 248.739 606.51 248.259 606.168 247.896C605.838 247.533 605.379 247.352 604.792 247.352ZM611.35 252.12C610.635 251.405 610.278 250.499 610.278 249.4C610.278 248.301 610.635 247.4 611.35 246.696C612.065 245.981 613.014 245.624 614.198 245.624C615.371 245.624 616.315 245.981 617.03 246.696C617.755 247.4 618.118 248.301 618.118 249.4C618.118 250.488 617.755 251.395 617.03 252.12C616.305 252.824 615.361 253.176 614.198 253.176C613.014 253.176 612.065 252.824 611.35 252.12ZM612.806 247.928C612.433 248.312 612.246 248.803 612.246 249.4C612.246 249.997 612.427 250.493 612.79 250.888C613.163 251.272 613.633 251.464 614.198 251.464C614.774 251.464 615.243 251.272 615.606 250.888C615.979 250.504 616.166 250.008 616.166 249.4C616.166 248.803 615.979 248.312 615.606 247.928C615.233 247.544 614.763 247.352 614.198 247.352C613.643 247.352 613.179 247.544 612.806 247.928ZM626.552 253H624.712V247.64H622.808L622.76 248.408C622.621 249.709 622.419 250.701 622.152 251.384C621.896 252.067 621.565 252.531 621.16 252.776C620.765 253.011 620.216 253.133 619.512 253.144L619.352 251.352C619.587 251.363 619.805 251.299 620.008 251.16C620.243 250.989 620.451 250.632 620.632 250.088C620.813 249.544 620.931 248.861 620.984 248.04L621.096 245.8H626.552V253ZM631.789 253H629.101V245.8H630.941V247.768H631.933C633.01 247.768 633.805 247.992 634.317 248.44C634.84 248.888 635.101 249.496 635.101 250.264C635.101 251.085 634.824 251.747 634.269 252.248C633.714 252.749 632.888 253 631.789 253ZM631.773 249.24H630.941V251.4H631.757C632.685 251.4 633.149 251.043 633.149 250.328C633.149 249.603 632.69 249.24 631.773 249.24Z" fill="#BDBDBD"/>
<path d="M40 57C40 52.582 43.582 49 48 49H184.424C190.895 49 196.728 52.898 199.205 58.876L215 97H40V57Z" fill="white"/>
<path d="M72.2872 75.1521L72.7632 76.0481C72.4362 76.3841 71.9932 76.6501 71.4332 76.8461C70.8732 77.0421 70.2852 77.1401 69.6692 77.1401C68.2042 77.1401 67.0042 76.6831 66.0712 75.7681C65.1562 74.8351 64.6992 73.6121 64.6992 72.1001C64.6992 70.6441 65.1382 69.4451 66.0152 68.5021C66.8922 67.5411 68.0822 67.0601 69.5852 67.0601C70.8262 67.0601 71.8202 67.3771 72.5672 68.0121L72.0212 68.9081C71.3682 68.4231 70.5602 68.1801 69.5992 68.1801C68.5352 68.1801 67.6622 68.5441 66.9812 69.2721C66.3002 69.9911 65.9592 70.9331 65.9592 72.1001C65.9592 73.2671 66.3092 74.2141 67.0092 74.9421C67.7282 75.6611 68.6522 76.0201 69.7812 76.0201C70.7332 76.0201 71.5682 75.7311 72.2872 75.1521ZM79.0322 75.4321L79.3822 76.3141C78.7752 76.8651 77.9862 77.1401 77.0162 77.1401C75.9892 77.1401 75.1722 76.8411 74.5662 76.2441C73.9502 75.6471 73.6422 74.8491 73.6422 73.8501C73.6422 72.9071 73.9312 72.1231 74.5102 71.4981C75.0792 70.8731 75.8722 70.5601 76.8902 70.5601C77.7302 70.5601 78.4252 70.8311 78.9762 71.3721C79.5362 71.9041 79.8162 72.5951 79.8162 73.4441C79.8162 73.7151 79.7922 73.9671 79.7462 74.2001H74.9022C74.9482 74.7881 75.1682 75.2501 75.5602 75.5861C75.9612 75.9221 76.4742 76.0901 77.1002 76.0901C77.9212 76.0901 78.5652 75.8711 79.0322 75.4321ZM76.8342 71.6101C76.2832 71.6101 75.8262 71.7641 75.4622 72.0721C75.1072 72.3801 74.8972 72.7861 74.8322 73.2901H78.6542C78.6262 72.7671 78.4482 72.3571 78.1222 72.0581C77.8042 71.7591 77.3752 71.6101 76.8342 71.6101ZM82.7052 77.0001H81.5852V70.7001H82.6072L85.0292 73.8221L87.3252 70.7001H88.3192V77.0001H87.1992V72.4081L85.0152 75.3341H84.9732L82.7052 72.4081V77.0001ZM92.7272 77.0001H90.5992V70.7001H91.7192V72.5901H92.8672C93.7252 72.5901 94.3552 72.7861 94.7572 73.1781C95.1582 73.5611 95.3592 74.0881 95.3592 74.7601C95.3592 75.3951 95.1492 75.9271 94.7292 76.3561C94.3092 76.7851 93.6412 77.0001 92.7272 77.0001ZM92.6572 73.6401H91.7192V75.9501H92.6432C93.6602 75.9501 94.1692 75.5671 94.1692 74.8021C94.1692 74.0271 93.6652 73.6401 92.6572 73.6401ZM99.6632 70.7001H101.623V77.0001H100.503V74.9001H99.2852L97.7452 77.0001H96.3872L98.2072 74.6201C97.8252 74.5361 97.5032 74.3311 97.2412 74.0041C96.9802 73.6681 96.8492 73.2671 96.8492 72.8001C96.8492 72.1561 97.0832 71.6471 97.5492 71.2741C98.0162 70.8911 98.7212 70.7001 99.6632 70.7001ZM98.0392 72.8281C98.0392 73.1271 98.1562 73.3741 98.3892 73.5701C98.6232 73.7571 98.8982 73.8501 99.2152 73.8501H100.503V71.7501H99.4812C99.0052 71.7501 98.6462 71.8481 98.4032 72.0441C98.1612 72.2401 98.0392 72.5011 98.0392 72.8281ZM115.466 77.0001H114.276V68.3201H108.956V77.0001H107.766V67.2001H115.466V77.0001ZM123.161 75.4321L123.511 76.3141C122.904 76.8651 122.115 77.1401 121.145 77.1401C120.118 77.1401 119.301 76.8411 118.695 76.2441C118.079 75.6471 117.771 74.8491 117.771 73.8501C117.771 72.9071 118.06 72.1231 118.639 71.4981C119.208 70.8731 120.001 70.5601 121.019 70.5601C121.859 70.5601 122.554 70.8311 123.105 71.3721C123.665 71.9041 123.945 72.5951 123.945 73.4441C123.945 73.7151 123.921 73.9671 123.875 74.2001H119.031C119.077 74.7881 119.297 75.2501 119.689 75.5861C120.09 75.9221 120.603 76.0901 121.229 76.0901C122.05 76.0901 122.694 75.8711 123.161 75.4321ZM120.963 71.6101C120.412 71.6101 119.955 71.7641 119.591 72.0721C119.236 72.3801 119.026 72.7861 118.961 73.2901H122.783C122.755 72.7671 122.577 72.3571 122.251 72.0581C121.933 71.7591 121.504 71.6101 120.963 71.6101ZM127.103 71.8201H124.793V70.7001H130.533V71.8201H128.223V77.0001H127.103V71.8201ZM133.127 79.8001H132.007V70.7001H133.127V71.4421C133.351 71.1811 133.659 70.9711 134.051 70.8121C134.443 70.6441 134.849 70.5601 135.269 70.5601C136.165 70.5601 136.87 70.8591 137.383 71.4561C137.915 72.0441 138.181 72.8091 138.181 73.7521C138.181 74.7131 137.878 75.5211 137.271 76.1741C136.674 76.8181 135.885 77.1401 134.905 77.1401C134.149 77.1401 133.556 76.9951 133.127 76.7061V79.8001ZM134.947 71.6101C134.2 71.6101 133.594 71.8991 133.127 72.4781V75.6001C133.622 75.9271 134.182 76.0901 134.807 76.0901C135.47 76.0901 135.997 75.8801 136.389 75.4601C136.79 75.0311 136.991 74.4751 136.991 73.7941C136.991 73.1311 136.809 72.6041 136.445 72.2121C136.081 71.8111 135.582 71.6101 134.947 71.6101ZM140.54 76.2161C139.924 75.5811 139.616 74.7931 139.616 73.8501C139.616 72.8981 139.924 72.1141 140.54 71.4981C141.166 70.8731 141.978 70.5601 142.976 70.5601C143.975 70.5601 144.782 70.8731 145.398 71.4981C146.024 72.1141 146.336 72.8981 146.336 73.8501C146.336 74.8021 146.024 75.5911 145.398 76.2161C144.782 76.8321 143.975 77.1401 142.976 77.1401C141.987 77.1401 141.175 76.8321 140.54 76.2161ZM141.422 72.2401C141.012 72.6511 140.806 73.1871 140.806 73.8501C140.806 74.5131 141.007 75.0491 141.408 75.4601C141.819 75.8801 142.342 76.0901 142.976 76.0901C143.611 76.0901 144.129 75.8851 144.53 75.4741C144.941 75.0541 145.146 74.5131 145.146 73.8501C145.146 73.2061 144.941 72.6691 144.53 72.2401C144.129 71.8201 143.611 71.6101 142.976 71.6101C142.342 71.6101 141.824 71.8201 141.422 72.2401ZM148.202 77.0001V70.7001C148.249 70.7001 148.314 70.7001 148.398 70.7001C148.482 70.6911 148.604 70.6861 148.762 70.6861C148.921 70.6771 149.066 70.6721 149.196 70.6721C149.887 70.6531 150.316 70.6441 150.484 70.6441C152.295 70.6441 153.2 71.1851 153.2 72.2681C153.2 72.6411 153.084 72.9631 152.85 73.2341C152.617 73.4951 152.314 73.6541 151.94 73.7101V73.7381C152.92 73.9151 153.41 74.4101 153.41 75.2221C153.41 76.4451 152.444 77.0561 150.512 77.0561C150.419 77.0561 150.008 77.0471 149.28 77.0281C149.14 77.0281 148.986 77.0231 148.818 77.0141C148.65 77.0141 148.52 77.0091 148.426 77.0001C148.333 77.0001 148.258 77.0001 148.202 77.0001ZM150.666 74.1721H149.322V76.1041C149.994 76.1321 150.424 76.1461 150.61 76.1461C151.684 76.1461 152.22 75.8101 152.22 75.1381C152.22 74.4941 151.702 74.1721 150.666 74.1721ZM150.568 71.5541C150.298 71.5541 149.882 71.5681 149.322 71.5961V73.4721H150.736C151.119 73.4721 151.427 73.3831 151.66 73.2061C151.894 73.0291 152.01 72.7911 152.01 72.4921C152.01 71.8671 151.53 71.5541 150.568 71.5541ZM157.4 77.0001H155.37V70.7001H156.49V72.5901H157.526C158.385 72.5901 159.015 72.7861 159.416 73.1781C159.818 73.5611 160.018 74.0881 160.018 74.7601C160.018 75.3951 159.808 75.9271 159.388 76.3561C158.987 76.7851 158.324 77.0001 157.4 77.0001ZM162.342 77.0001H161.222V70.7001H162.342V77.0001ZM157.316 73.6401H156.49V75.9501H157.302C157.834 75.9501 158.222 75.8571 158.464 75.6701C158.707 75.4831 158.828 75.1941 158.828 74.8021C158.828 74.0271 158.324 73.6401 157.316 73.6401ZM168.901 70.7001H170.203L167.949 73.7381L170.343 77.0001H168.971L167.123 74.4521L165.247 77.0001H163.945L166.325 73.7941L164.085 70.7001H165.457L167.165 73.0801L168.901 70.7001Z" fill="#424242"/>
<path d="M74.0371 142V127.3H82.6261V129.715H76.6201V132.991C77.1941 132.907 77.8521 132.865 78.5941 132.865C80.1201 132.865 81.3241 133.264 82.2061 134.062C83.0881 134.86 83.5291 135.938 83.5291 137.296C83.5291 138.822 83.0321 140.005 82.0381 140.845C81.0581 141.671 79.6651 142.084 77.8591 142.084C77.5231 142.084 76.7811 142.07 75.6331 142.042C75.4091 142.042 75.1711 142.035 74.9191 142.021C74.6671 142.021 74.4711 142.014 74.3311 142C74.2051 142 74.1071 142 74.0371 142ZM78.3841 135.28C77.8521 135.28 77.2641 135.322 76.6201 135.406V139.585C77.3061 139.641 77.8521 139.669 78.2581 139.669C80.0641 139.669 80.9671 138.941 80.9671 137.485C80.9671 136.799 80.7501 136.26 80.3161 135.868C79.8821 135.476 79.2381 135.28 78.3841 135.28ZM87.2121 140.845C86.2741 139.907 85.8051 138.717 85.8051 137.275C85.8051 135.833 86.2741 134.65 87.2121 133.726C88.1501 132.788 89.3961 132.319 90.9501 132.319C92.4901 132.319 93.7291 132.788 94.6671 133.726C95.6191 134.65 96.0951 135.833 96.0951 137.275C96.0951 138.703 95.6191 139.893 94.6671 140.845C93.7151 141.769 92.4761 142.231 90.9501 142.231C89.3961 142.231 88.1501 141.769 87.2121 140.845ZM89.1231 135.343C88.6331 135.847 88.3881 136.491 88.3881 137.275C88.3881 138.059 88.6261 138.71 89.1021 139.228C89.5921 139.732 90.2081 139.984 90.9501 139.984C91.7061 139.984 92.3221 139.732 92.7981 139.228C93.2881 138.724 93.5331 138.073 93.5331 137.275C93.5331 136.491 93.2881 135.847 92.7981 135.343C92.3081 134.839 91.6921 134.587 90.9501 134.587C90.2221 134.587 89.6131 134.839 89.1231 135.343ZM106.659 142H104.244V134.965H101.745L101.682 135.973C101.5 137.681 101.234 138.983 100.884 139.879C100.548 140.775 100.114 141.384 99.5821 141.706C99.0641 142.014 98.3431 142.175 97.4191 142.189L97.2091 139.837C97.5171 139.851 97.8041 139.767 98.0701 139.585C98.3781 139.361 98.6511 138.892 98.8891 138.178C99.1271 137.464 99.2811 136.568 99.3511 135.49L99.4981 132.55H106.659V142ZM113.026 142H109.498V132.55H111.913V135.133H113.215C114.629 135.133 115.672 135.427 116.344 136.015C117.03 136.603 117.373 137.401 117.373 138.409C117.373 139.487 117.009 140.355 116.281 141.013C115.553 141.671 114.468 142 113.026 142ZM113.005 137.065H111.913V139.9H112.984C114.202 139.9 114.811 139.431 114.811 138.493C114.811 137.541 114.209 137.065 113.005 137.065ZM132.051 142H119.451V132.55H121.866V139.753H124.533V132.55H126.948V139.753H129.636V132.55H132.051V142ZM141.704 136.015L137.294 142H134.879V132.55H137.294V138.535L141.704 132.55H144.119V142H141.704V136.015ZM154.378 139.354L155.071 141.055C154.133 141.839 152.929 142.231 151.459 142.231C149.947 142.231 148.715 141.776 147.763 140.866C146.839 139.97 146.377 138.773 146.377 137.275C146.377 135.875 146.832 134.699 147.742 133.747C148.652 132.795 149.863 132.319 151.375 132.319C152.621 132.319 153.678 132.732 154.546 133.558C155.414 134.384 155.848 135.434 155.848 136.708C155.848 137.268 155.799 137.702 155.701 138.01H148.876C148.974 138.696 149.275 139.235 149.779 139.627C150.297 140.019 150.941 140.215 151.711 140.215C152.761 140.215 153.65 139.928 154.378 139.354ZM151.27 134.335C149.898 134.335 149.072 135.021 148.792 136.393H153.433C153.447 135.791 153.251 135.301 152.845 134.923C152.453 134.531 151.928 134.335 151.27 134.335ZM164.958 142H162.543V132.55H168.885V134.818H164.958V142ZM171.079 140.845C170.141 139.907 169.672 138.717 169.672 137.275C169.672 135.833 170.141 134.65 171.079 133.726C172.017 132.788 173.263 132.319 174.817 132.319C176.357 132.319 177.596 132.788 178.534 133.726C179.486 134.65 179.962 135.833 179.962 137.275C179.962 138.703 179.486 139.893 178.534 140.845C177.582 141.769 176.343 142.231 174.817 142.231C173.263 142.231 172.017 141.769 171.079 140.845ZM172.99 135.343C172.5 135.847 172.255 136.491 172.255 137.275C172.255 138.059 172.493 138.71 172.969 139.228C173.459 139.732 174.075 139.984 174.817 139.984C175.573 139.984 176.189 139.732 176.665 139.228C177.155 138.724 177.4 138.073 177.4 137.275C177.4 136.491 177.155 135.847 176.665 135.343C176.175 134.839 175.559 134.587 174.817 134.587C174.089 134.587 173.48 134.839 172.99 135.343ZM191.169 142H188.754V138.388H184.617V142H182.202V132.55H184.617V136.12H188.754V132.55H191.169V142ZM199.902 132.55H202.947L199.314 137.044L203.388 142H200.238L196.5 137.233L199.902 132.55ZM196.416 142H194.001V132.55H196.416V142ZM211.783 136.015L207.373 142H204.958V132.55H207.373V138.535L211.783 132.55H214.198V142H211.783V136.015Z" fill="#212121"/>
<path d="M123 154H82C76.4772 154 72 158.477 72 164C72 169.523 76.4772 174 82 174H123C128.523 174 133 169.523 133 164C133 158.477 128.523 154 123 154Z" fill="#DBEDFF"/>
<path d="M86.8096 167.08H85.5796V166.15C84.6066 166.15 83.8226 165.91 83.2296 165.43C82.6426 164.943 82.3496 164.267 82.3496 163.4C82.3496 162.54 82.6426 161.87 83.2296 161.39C83.8226 160.903 84.6066 160.657 85.5796 160.65V159.92H86.8096V160.65C87.7766 160.657 88.5566 160.907 89.1496 161.4C89.7426 161.893 90.0396 162.56 90.0396 163.4C90.0396 164.253 89.7426 164.927 89.1496 165.42C88.5626 165.893 87.7826 166.137 86.8096 166.15V167.08ZM88.7396 163.4C88.7396 162.907 88.5726 162.517 88.2396 162.23C87.9066 161.937 87.4296 161.787 86.8096 161.78V165.02C88.0966 165.013 88.7396 164.473 88.7396 163.4ZM83.6496 163.4C83.6496 163.92 83.8166 164.32 84.1496 164.6C84.4826 164.873 84.9596 165.013 85.5796 165.02V161.78C84.9666 161.787 84.4896 161.937 84.1496 162.23C83.8166 162.517 83.6496 162.907 83.6496 163.4ZM96.5086 162.03L92.8386 167H91.7586V160H92.9886V164.98L96.6586 160H97.7386V167H96.5086V162.03ZM105.429 167H104.209V161.15H102.169L102.029 162.47C101.949 163.27 101.845 163.953 101.719 164.52C101.592 165.087 101.452 165.54 101.299 165.88C101.145 166.22 100.962 166.48 100.749 166.66C100.542 166.84 100.325 166.953 100.099 167C99.8786 167.04 99.6216 167.04 99.3286 167L99.3586 165.78C99.5046 165.8 99.6246 165.793 99.7186 165.76C99.8116 165.727 99.9216 165.633 100.049 165.48C100.189 165.307 100.302 165.077 100.389 164.79C100.629 164.077 100.805 162.947 100.919 161.4L101.019 160H105.429V167ZM109.694 163.5C109.574 163.5 109.34 163.517 108.994 163.55V165.84C109.434 165.86 109.66 165.87 109.674 165.87C110.647 165.87 111.134 165.46 111.134 164.64C111.134 164.267 111.007 163.983 110.754 163.79C110.5 163.597 110.147 163.5 109.694 163.5ZM107.764 160H108.994V162.4C109.28 162.367 109.547 162.35 109.794 162.35C110.66 162.35 111.317 162.547 111.764 162.94C112.21 163.333 112.434 163.89 112.434 164.61C112.434 165.357 112.177 165.947 111.664 166.38C111.157 166.807 110.447 167.02 109.534 167.02C109.147 167.02 108.817 167.017 108.544 167.01C108.27 167.003 108.01 167 107.764 167V160ZM115.488 167H114.258V160H115.498L117.888 163.27L120.168 160H121.328V167H120.108V161.94L117.898 165.05H117.718L115.488 161.97V167Z" fill="#70A8DD"/>
<path d="M40 191.5H1584" stroke="#E0E0E0"/>
</g>
<g filter="url(#filter3_d_7760_255739)">
<path fill-rule="evenodd" clip-rule="evenodd" d="M272.982 323L272.095 321.645C271.49 320.72 270.201 320.383 269.214 320.89L269.444 320.772C269.199 320.898 269.082 321.211 269.183 321.472L270.41 324.647C270.604 325.151 271.101 325.863 271.513 326.22C271.513 326.22 273.982 328.264 273.982 329.03V330H277.982H279.076H279.982H280.982V329.03C280.982 328.264 282.491 325.851 282.491 325.851C282.769 325.382 283 324.555 283 324.007V319.972C282.982 319.078 282.223 318.355 281.286 318.355C280.817 318.355 280.437 318.717 280.437 319.163V319.487C280.437 318.593 279.678 317.869 278.741 317.869C278.272 317.869 277.893 318.231 277.893 318.678V319.001C277.893 318.108 277.133 317.384 276.196 317.384C275.728 317.384 275.348 317.746 275.348 318.193V318.516C275.348 318.373 275.333 318.258 275.303 318.168L275.044 314.001C275.009 313.438 274.534 313 273.982 313C273.426 313 272.982 313.448 272.982 314V318V323Z" fill="white"/>
<path d="M268.954 320.383C268.586 320.698 268.445 321.229 268.623 321.688L269.85 324.864C270.08 325.457 270.633 326.251 271.12 326.673L271.125 326.678L271.13 326.682L268.954 320.383ZM268.954 320.383L268.94 320.356M268.954 320.383L268.94 320.356M268.94 320.356L269.17 320.238L268.94 320.356ZM272.382 321.031C271.605 320.133 270.283 319.809 269.175 320.249L271.131 326.683L271.131 326.683L271.132 326.683L271.136 326.687L271.155 326.703C271.173 326.718 271.198 326.739 271.231 326.767C271.296 326.822 271.39 326.903 271.503 327.002C271.729 327.201 272.029 327.473 272.327 327.766C272.628 328.061 272.914 328.367 273.122 328.635C273.226 328.769 273.299 328.881 273.344 328.967C273.369 329.015 273.379 329.042 273.382 329.053V330V330.6H273.982H277.982H279.076H279.982H280.982H281.582V330V329.03C281.582 329.03 281.582 329.026 281.583 329.017C281.584 329.007 281.586 328.994 281.589 328.977C281.595 328.943 281.606 328.899 281.622 328.844C281.655 328.733 281.705 328.599 281.77 328.444C281.901 328.135 282.08 327.78 282.264 327.438C282.448 327.098 282.632 326.78 282.771 326.546C282.84 326.429 282.898 326.334 282.938 326.269L282.984 326.194L282.996 326.175L282.999 326.17L283 326.169L283 326.169L283 326.169L283 326.169L283.003 326.163L283.007 326.156C283.181 325.862 283.326 325.485 283.428 325.119C283.529 324.753 283.6 324.353 283.6 324.007V319.972H283.6L283.6 319.96C283.575 318.72 282.53 317.755 281.286 317.755C280.982 317.755 280.693 317.848 280.455 318.01C280.03 317.552 279.413 317.269 278.741 317.269C278.437 317.269 278.149 317.363 277.91 317.525C277.485 317.067 276.868 316.784 276.196 316.784C276.068 316.784 275.942 316.801 275.821 316.832L275.643 313.964C275.588 313.082 274.849 312.4 273.982 312.4C273.093 312.4 272.382 313.118 272.382 314V318V321.031Z" stroke="#757575" stroke-width="1.2"/>
</g>
</g>
</g>
<defs>
<filter id="filter0_ddd_7760_255739" x="32" y="44" width="874" height="423" filterUnits="userSpaceOnUse" color-interpolation-filters="sRGB">
<feFlood flood-opacity="0" result="BackgroundImageFix"/>
<feColorMatrix in="SourceAlpha" type="matrix" values="0 0 0 0 0 0 0 0 0 0 0 0 0 0 0 0 0 0 127 0" result="hardAlpha"/>
<feOffset/>
<feGaussianBlur stdDeviation="0.5"/>
<feColorMatrix type="matrix" values="0 0 0 0 0 0 0 0 0 0 0 0 0 0 0 0 0 0 0.04 0"/>
<feBlend mode="normal" in2="BackgroundImageFix" result="effect1_dropShadow_7760_255739"/>
<feColorMatrix in="SourceAlpha" type="matrix" values="0 0 0 0 0 0 0 0 0 0 0 0 0 0 0 0 0 0 127 0" result="hardAlpha"/>
<feOffset/>
<feGaussianBlur stdDeviation="1"/>
<feColorMatrix type="matrix" values="0 0 0 0 0 0 0 0 0 0 0 0 0 0 0 0 0 0 0.06 0"/>
<feBlend mode="normal" in2="effect1_dropShadow_7760_255739" result="effect2_dropShadow_7760_255739"/>
<feColorMatrix in="SourceAlpha" type="matrix" values="0 0 0 0 0 0 0 0 0 0 0 0 0 0 0 0 0 0 127 0" result="hardAlpha"/>
<feOffset dy="4"/>
<feGaussianBlur stdDeviation="4"/>
<feColorMatrix type="matrix" values="0 0 0 0 0 0 0 0 0 0 0 0 0 0 0 0 0 0 0.04 0"/>
<feBlend mode="normal" in2="effect2_dropShadow_7760_255739" result="effect3_dropShadow_7760_255739"/>
<feBlend mode="normal" in="SourceGraphic" in2="effect3_dropShadow_7760_255739" result="shape"/>
</filter>
<filter id="filter1_ddd_7760_255739" x="-356" y="-105" width="1960" height="1120" filterUnits="userSpaceOnUse" color-interpolation-filters="sRGB">
<feFlood flood-opacity="0" result="BackgroundImageFix"/>
<feColorMatrix in="SourceAlpha" type="matrix" values="0 0 0 0 0 0 0 0 0 0 0 0 0 0 0 0 0 0 127 0" result="hardAlpha"/>
<feOffset/>
<feGaussianBlur stdDeviation="0.5"/>
<feColorMatrix type="matrix" values="0 0 0 0 0 0 0 0 0 0 0 0 0 0 0 0 0 0 0.04 0"/>
<feBlend mode="normal" in2="BackgroundImageFix" result="effect1_dropShadow_7760_255739"/>
<feColorMatrix in="SourceAlpha" type="matrix" values="0 0 0 0 0 0 0 0 0 0 0 0 0 0 0 0 0 0 127 0" result="hardAlpha"/>
<feOffset dy="2"/>
<feGaussianBlur stdDeviation="3"/>
<feColorMatrix type="matrix" values="0 0 0 0 0 0 0 0 0 0 0 0 0 0 0 0 0 0 0.04 0"/>
<feBlend mode="normal" in2="effect1_dropShadow_7760_255739" result="effect2_dropShadow_7760_255739"/>
<feColorMatrix in="SourceAlpha" type="matrix" values="0 0 0 0 0 0 0 0 0 0 0 0 0 0 0 0 0 0 127 0" result="hardAlpha"/>
<feOffset dy="10"/>
<feGaussianBlur stdDeviation="10"/>
<feColorMatrix type="matrix" values="0 0 0 0 0 0 0 0 0 0 0 0 0 0 0 0 0 0 0.04 0"/>
<feBlend mode="normal" in2="effect2_dropShadow_7760_255739" result="effect3_dropShadow_7760_255739"/>
<feBlend mode="normal" in="SourceGraphic" in2="effect3_dropShadow_7760_255739" result="shape"/>
</filter>
<filter id="filter2_d_7760_255739" x="31" y="45" width="1560" height="1001" filterUnits="userSpaceOnUse" color-interpolation-filters="sRGB">
<feFlood flood-opacity="0" result="BackgroundImageFix"/>
<feColorMatrix in="SourceAlpha" type="matrix" values="0 0 0 0 0 0 0 0 0 0 0 0 0 0 0 0 0 0 127 0" result="hardAlpha"/>
<feOffset dx="-1" dy="4"/>
<feGaussianBlur stdDeviation="4"/>
<feColorMatrix type="matrix" values="0 0 0 0 0 0 0 0 0 0 0 0 0 0 0 0 0 0 0.1 0"/>
<feBlend mode="normal" in2="BackgroundImageFix" result="effect1_dropShadow_7760_255739"/>
<feBlend mode="normal" in="SourceGraphic" in2="effect1_dropShadow_7760_255739" result="shape"/>
</filter>
<filter id="filter3_d_7760_255739" x="264.947" y="309.8" width="22.252" height="25.4004" filterUnits="userSpaceOnUse" color-interpolation-filters="sRGB">
<feFlood flood-opacity="0" result="BackgroundImageFix"/>
<feColorMatrix in="SourceAlpha" type="matrix" values="0 0 0 0 0 0 0 0 0 0 0 0 0 0 0 0 0 0 127 0" result="hardAlpha"/>
<feOffset dy="1"/>
<feGaussianBlur stdDeviation="1.5"/>
<feColorMatrix type="matrix" values="0 0 0 0 0 0 0 0 0 0 0 0 0 0 0 0 0 0 0.2 0"/>
<feBlend mode="normal" in2="BackgroundImageFix" result="effect1_dropShadow_7760_255739"/>
<feBlend mode="normal" in="SourceGraphic" in2="effect1_dropShadow_7760_255739" result="shape"/>
</filter>
<clipPath id="clip0_7760_255739">
<rect width="1920" height="1080" fill="white" transform="translate(-336 -95)"/>
</clipPath>
</defs>
</svg>
